<svg width="43" height="58" viewBox="0 0 43 58" fill="none" xmlns="http://www.w3.org/2000/svg">
<g opacity="0.5">
<path d="M25.0833 15.4062V0H2.6875C1.19818 0 0 1.21211 0 2.71875V55.2812C0 56.7879 1.19818 58 2.6875 58H40.3125C41.8018 58 43 56.7879 43 55.2812V18.125H27.7708C26.2927 18.125 25.0833 16.9016 25.0833 15.4062ZM32.25 42.1406C32.25 42.8883 31.6453 43.5 30.9062 43.5H12.0938C11.3547 43.5 10.75 42.8883 10.75 42.1406V41.2344C10.75 40.4867 11.3547 39.875 12.0938 39.875H30.9062C31.6453 39.875 32.25 40.4867 32.25 41.2344V42.1406ZM32.25 34.8906C32.25 35.6383 31.6453 36.25 30.9062 36.25H12.0938C11.3547 36.25 10.75 35.6383 10.75 34.8906V33.9844C10.75 33.2367 11.3547 32.625 12.0938 32.625H30.9062C31.6453 32.625 32.25 33.2367 32.25 33.9844V34.8906ZM32.25 26.7344V27.6406C32.25 28.3883 31.6453 29 30.9062 29H12.0938C11.3547 29 10.75 28.3883 10.75 27.6406V26.7344C10.75 25.9867 11.3547 25.375 12.0938 25.375H30.9062C31.6453 25.375 32.25 25.9867 32.25 26.7344ZM43 13.809V14.5H28.6667V0H29.3497C30.0664 0 30.7495 0.283203 31.2534 0.792969L42.2161 11.8945C42.7201 12.4043 43 13.0953 43 13.809Z" fill="#0F1938"/>
</g>
</svg>
