<svg width="328" height="200" viewBox="0 0 328 200" fill="none" xmlns="http://www.w3.org/2000/svg">
<path d="M101.924 122.383C86.4272 122.383 73.8635 109.857 73.8635 94.4049C73.8635 78.9528 86.4266 66.426 101.924 66.426C102.862 66.426 103.79 66.4764 104.705 66.5661C104.705 66.5186 104.697 66.4735 104.697 66.426C104.697 47.356 120.201 31.8965 139.327 31.8965C143.379 31.8965 147.252 32.6268 150.866 33.9016C157.871 20.2308 172.122 10.8647 188.576 10.8647C211.833 10.8647 230.703 29.5673 230.899 52.7112C232.773 52.4033 234.683 52.2031 236.644 52.2031C256.08 52.2031 271.836 67.9138 271.836 87.2928C271.836 106.673 256.08 122.383 236.644 122.383H101.924Z" fill="#E2E8F0"/>
<path d="M96.7629 126.8C80.0527 126.8 66.5052 111.441 66.5052 94.7653C66.5052 79.7804 77.2279 66.1798 91.5277 63.5754M100.359 61.1034C100.359 40.5229 116.472 27.3057 137.094 27.3057M189.41 6.81641C214.489 6.81641 235.625 24.792 235.836 49.7692M241.389 126.8H219.348M104.407 126.8H125.823" stroke="#171D28"/>
<path d="M194.777 138.645L175.437 138.611L175.503 100.87C175.508 98.0513 173.243 95.7774 170.425 95.7725L152.075 95.7401C149.256 95.7351 146.983 98.001 146.978 100.82L146.912 138.561L127.571 138.527C123.035 138.519 120.758 144.005 123.953 147.213C123.953 147.213 123.953 147.213 123.953 147.213L157.496 180.924L157.496 180.924C159.485 182.92 162.707 182.926 164.703 180.937L164.703 180.937L198.365 147.344L198.366 147.343C201.57 144.129 199.315 138.653 194.777 138.645Z" stroke="#171D28"/>
<path d="M152.074 96.2401L170.424 96.2725C172.966 96.2769 175.008 98.3264 175.003 100.869L174.936 139.11L194.776 139.145C198.867 139.152 200.903 144.089 198.012 146.99L164.35 180.583C162.55 182.377 159.644 182.372 157.851 180.571L124.307 146.86C121.426 143.968 123.48 139.019 127.57 139.027L147.411 139.062L147.478 100.821C147.483 98.2778 149.532 96.2356 152.074 96.2401Z" fill="white"/>
<circle cx="188.643" cy="45.6437" r="24.6436" transform="rotate(5 188.643 45.6437)" fill="#8D9CAF"/>
<g clip-path="url(#clip0_10350_54215)">
<path d="M201.781 55.5788L196.211 50.9773L196.956 42.4654L203.241 38.8956C204.462 38.2068 205.964 39.1557 205.844 40.5293L204.629 54.422C204.508 55.8011 202.859 56.4687 201.781 55.5788Z" fill="white"/>
<path d="M173.412 52.5531L174.777 36.9568C174.837 36.2712 175.167 35.6375 175.694 35.1952C176.221 34.7528 176.902 34.538 177.588 34.598L193.184 35.9625C193.524 35.9922 193.854 36.0884 194.156 36.2458C194.458 36.4031 194.727 36.6185 194.946 36.8795C195.165 37.1405 195.33 37.4422 195.433 37.7672C195.535 38.0921 195.573 38.4341 195.543 38.7736L194.178 54.3699C194.149 54.7093 194.052 55.0396 193.895 55.3419C193.738 55.6441 193.522 55.9124 193.261 56.1315C193 56.3505 192.699 56.516 192.374 56.6184C192.049 56.7209 191.707 56.7584 191.367 56.7287L175.771 55.3642C175.086 55.3042 174.452 54.9743 174.009 54.4471C173.567 53.9199 173.352 53.2386 173.412 52.5531V52.5531Z" fill="white"/>
</g>
<circle cx="120.175" cy="91.1748" r="21.1747" transform="rotate(-7 120.175 91.1748)" fill="#8D9CAF"/>
<path d="M115.01 91.7668L113.938 83.0354C113.768 81.646 114.156 80.2458 115.017 79.1427C115.879 78.0396 117.144 77.3241 118.533 77.1535C119.922 76.9829 121.322 77.3713 122.425 78.2332C123.528 79.095 124.243 80.3598 124.414 81.7492L125.486 90.4805C125.656 91.87 125.268 93.2702 124.407 94.3733C123.545 95.4764 122.28 96.1919 120.891 96.3625C119.502 96.533 118.102 96.1447 116.999 95.2828C115.896 94.421 115.181 93.1562 115.01 91.7668V91.7668Z" fill="white"/>
<path d="M129.853 89.9472C130.449 94.7985 127.325 99.2574 122.727 100.473L122.953 102.316L126.009 101.941C126.24 101.913 126.474 101.977 126.658 102.121C126.841 102.265 126.961 102.475 126.989 102.707L127.096 103.58C127.125 103.812 127.06 104.045 126.916 104.229C126.773 104.413 126.562 104.532 126.33 104.56L117.601 105.632C117.369 105.661 117.136 105.596 116.952 105.452C116.768 105.309 116.649 105.098 116.621 104.866L116.513 103.993C116.485 103.762 116.55 103.528 116.693 103.344C116.837 103.161 117.048 103.041 117.279 103.013L120.335 102.638L120.106 100.774C115.223 100.701 111.196 96.7692 110.595 91.8774L110.326 89.6859C110.298 89.4543 110.362 89.2209 110.506 89.0371C110.649 88.8532 110.86 88.734 111.092 88.7056L111.965 88.5984C112.196 88.5699 112.43 88.6347 112.613 88.7783C112.797 88.922 112.916 89.1327 112.945 89.3643L113.228 91.6727C113.676 95.3185 116.734 98.2545 120.406 98.1631C121.389 98.1402 122.356 97.9118 123.245 97.4926C124.134 97.0734 124.926 96.4727 125.569 95.7291C126.212 94.9856 126.692 94.1156 126.979 93.1752C127.266 92.2348 127.353 91.2447 127.234 90.2687L126.912 87.6493C126.884 87.4177 126.949 87.1844 127.092 87.0005C127.236 86.8167 127.447 86.6974 127.678 86.669L128.551 86.5618C128.783 86.5334 129.016 86.5981 129.2 86.7418C129.384 86.8854 129.503 87.0962 129.531 87.3278L129.853 89.9472Z" fill="white"/>
<circle cx="201.91" cy="95.9096" r="17.9095" transform="rotate(7 201.91 95.9096)" fill="#8D9CAF"/>
<g clip-path="url(#clip1_10350_54215)">
<path d="M212.676 89.1891C210.347 86.654 206.43 86.5773 203.74 88.7471L202.688 89.5957L201.871 88.5176C199.791 85.7621 195.968 84.8885 193.095 86.7849C189.803 88.9627 189.086 93.5091 191.415 96.5933L199.433 107.202C199.554 107.364 199.707 107.5 199.882 107.602C200.057 107.704 200.25 107.769 200.451 107.793C200.652 107.818 200.856 107.802 201.05 107.745C201.245 107.689 201.426 107.594 201.582 107.466L211.929 99.1121C214.94 96.6835 215.343 92.0985 212.676 89.1891V89.1891ZM209.093 97.6608L201.463 103.653C201.388 103.713 201.301 103.757 201.208 103.783C201.115 103.809 201.018 103.816 200.922 103.805C200.827 103.793 200.734 103.762 200.65 103.715C200.566 103.667 200.493 103.603 200.434 103.527L194.61 96.0304C193.43 94.5117 193.444 92.2744 194.832 90.9404C195.201 90.5825 195.641 90.3064 196.124 90.1302C196.607 89.954 197.122 89.8817 197.634 89.9179C198.147 89.9541 198.647 90.0981 199.1 90.3405C199.553 90.5828 199.95 90.9181 200.265 91.3243L202.158 93.7581L204.417 91.9843C205.93 90.7963 208.157 90.8058 209.482 92.1993C209.838 92.5722 210.112 93.0154 210.287 93.5005C210.461 93.9856 210.533 94.5018 210.496 95.016C210.459 95.5302 210.315 96.0311 210.074 96.4865C209.832 96.9419 209.498 97.3417 209.093 97.6603L209.093 97.6608Z" fill="white"/>
<path d="M200.432 103.527L194.609 96.0303C193.429 94.5116 193.443 92.2743 194.831 90.9404C195.2 90.5824 195.64 90.3064 196.123 90.1302C196.606 89.954 197.121 89.8816 197.633 89.9178C198.146 89.9541 198.645 90.098 199.099 90.3404C199.552 90.5827 199.949 90.918 200.264 91.3242L202.157 93.758L204.415 91.9842C205.928 90.7966 208.156 90.8057 209.481 92.1991C209.837 92.5719 210.111 93.0151 210.286 93.5001C210.461 93.9851 210.532 94.5013 210.496 95.0156C210.459 95.5298 210.316 96.0308 210.074 96.4862C209.833 96.9417 209.498 97.3416 209.093 97.6604L201.462 103.653C201.386 103.713 201.299 103.757 201.206 103.783C201.114 103.809 201.016 103.816 200.921 103.804C200.825 103.793 200.733 103.762 200.649 103.714C200.565 103.667 200.492 103.603 200.432 103.527V103.527Z" fill="white"/>
</g>
<circle cx="239.881" cy="75.8809" r="11.8809" transform="rotate(7 239.881 75.8809)" fill="#8D9CAF"/>
<path d="M248.028 72.4406L243.825 73.821L242.717 82.2195L246.946 81.046C247.126 80.9962 247.288 80.8933 247.411 80.7507C247.534 80.608 247.613 80.432 247.638 80.2455L248.601 72.9452C248.611 72.869 248.602 72.7919 248.576 72.7206C248.549 72.6493 248.506 72.586 248.45 72.5362C248.393 72.4864 248.325 72.4517 248.252 72.435C248.178 72.4184 248.101 72.4203 248.028 72.4406ZM232.495 72.2912C232.316 72.341 232.154 72.4436 232.031 72.586C231.908 72.7284 231.828 72.904 231.804 73.0903L230.841 80.3905C230.831 80.4668 230.839 80.544 230.866 80.6154C230.892 80.6867 230.935 80.7501 230.992 80.8C231.048 80.8498 231.116 80.8846 231.19 80.9013C231.263 80.918 231.34 80.9161 231.413 80.8957L235.617 79.5148L236.513 72.7178C236.33 72.2574 236.186 71.7813 236.082 71.2946L232.495 72.2912ZM239.63 77.3581C239.43 77.3352 239.239 77.2683 239.069 77.162C238.9 77.0557 238.756 76.9127 238.647 76.7428C238.172 76.0031 237.674 75.1641 237.235 74.3122L236.535 79.6196L241.799 82.1147L242.745 74.941C242.098 75.669 241.396 76.3713 240.743 76.9834C240.594 77.1236 240.417 77.2297 240.224 77.2944C240.032 77.3592 239.829 77.3809 239.63 77.3581V77.3581Z" fill="white"/>
<path d="M241.03 66.9657C240.079 66.8572 239.116 67.1373 238.353 67.7441C237.59 68.3509 237.09 69.2348 236.962 70.2014C236.747 71.8287 238.7 75.0619 239.456 76.2402C239.491 76.2962 239.538 76.3434 239.594 76.3785C239.65 76.4136 239.713 76.4356 239.779 76.4431C239.844 76.4506 239.911 76.4433 239.974 76.4218C240.038 76.4003 240.096 76.3652 240.145 76.3187C241.185 75.3451 243.92 72.6463 244.135 71.019C244.263 70.0524 244.007 69.0823 243.425 68.3222C242.842 67.562 241.981 67.0741 241.03 66.9657V66.9657ZM240.388 71.825C240.152 71.7981 239.93 71.7005 239.751 71.5446C239.572 71.3887 239.444 71.1815 239.383 70.9492C239.322 70.7169 239.33 70.47 239.407 70.2396C239.485 70.0092 239.627 69.8057 239.817 69.6548C240.006 69.504 240.235 69.4126 240.473 69.3921C240.711 69.3717 240.948 69.4231 241.154 69.54C241.361 69.6568 241.527 69.8338 241.632 70.0486C241.737 70.2633 241.776 70.5062 241.744 70.7465C241.702 71.0687 241.535 71.3633 241.281 71.5656C241.026 71.7678 240.705 71.8612 240.388 71.825Z" fill="white"/>
<circle cx="149.874" cy="65.8739" r="11.126" transform="rotate(-5 149.874 65.8739)" fill="#8D9CAF"/>
<path d="M151.614 67.2615L146.687 67.6925L144.678 69.4957C144.643 69.527 144.6 69.5479 144.554 69.5561C144.508 69.5642 144.46 69.5593 144.416 69.5419C144.373 69.5245 144.335 69.4953 144.307 69.4575C144.279 69.4197 144.262 69.3749 144.258 69.3281L144.135 67.9185C143.694 67.9566 143.256 67.8181 142.917 67.5333C142.578 67.2485 142.366 66.8407 142.327 66.3994L141.963 62.2382C141.925 61.7968 142.063 61.3584 142.347 61.0191C142.632 60.6797 143.039 60.4673 143.479 60.4283L150.959 59.774C151.399 59.7358 151.837 59.8744 152.176 60.1592C152.515 60.444 152.727 60.8518 152.766 61.293L153.13 65.4542C153.149 65.6727 153.125 65.8927 153.059 66.1018C152.993 66.3109 152.887 66.505 152.746 66.6728C152.605 66.8407 152.433 66.979 152.238 67.0801C152.044 67.1811 151.832 67.2427 151.614 67.2615V67.2615Z" fill="white"/>
<path d="M157.334 65.1203L157.698 69.2803C157.736 69.7215 157.596 70.16 157.31 70.4994C157.023 70.8388 156.613 71.0515 156.17 71.0907L155.333 71.1639L155.457 72.5757C155.461 72.6225 155.452 72.6696 155.431 72.7117C155.409 72.7537 155.377 72.7891 155.337 72.8138C155.296 72.8386 155.25 72.8517 155.203 72.8517C155.156 72.8517 155.109 72.8387 155.069 72.8139L152.763 71.3888L149.476 71.6763C149.032 71.7147 148.592 71.5765 148.25 71.292C147.909 71.0074 147.696 70.5999 147.657 70.1587L147.511 68.4947L151.695 68.1287C152.36 68.0695 152.975 67.7503 153.405 67.2413C153.834 66.7323 154.044 66.0748 153.987 65.4131L153.841 63.7491L155.515 63.6027C155.958 63.5643 156.399 63.7025 156.74 63.987C157.081 64.2716 157.295 64.6791 157.334 65.1203Z" fill="white"/>
<path fill-rule="evenodd" clip-rule="evenodd" d="M60.9317 53.5542C59.9996 54.245 59.3097 53.6725 58.4287 53.1955C57.9 52.9088 56.2423 51.5976 55.661 51.7398C54.989 51.9042 54.5476 53.2499 54.2304 53.7983C53.6779 54.7532 53.1229 55.7125 52.4446 56.5834C52.1434 56.9698 51.332 58.4217 50.8784 58.6301C50.6184 58.7495 50.4296 58.773 50.1665 58.5864C49.7047 58.2585 50.0402 58.0011 50.2628 57.4872C51.2803 55.139 52.4325 52.841 53.9655 50.7879C52.651 49.8471 51.2853 48.997 49.9125 48.146C49.5101 47.8967 48.5522 47.5372 48.608 46.9248C48.6764 46.1781 49.6384 46.3711 50.1461 46.5292C50.8874 46.7595 51.6094 47.3285 52.2745 47.7203C52.8236 48.0437 53.907 49 54.5341 49.043C54.9657 49.0729 54.9913 48.807 55.2539 48.3789C55.5018 47.9745 55.7491 47.5696 55.9987 47.1658C56.3991 46.5184 56.7996 45.874 57.2429 45.2553C57.4862 44.9158 57.8437 44.1733 58.2416 43.9744C58.4724 43.8589 59.2213 43.8341 59.3764 44.0743C59.7397 44.6358 57.8452 47.4587 57.5414 48.0573C57.3398 48.4544 57.1644 48.8592 56.9306 49.2364C56.8417 49.3792 56.5752 49.5141 56.5314 49.6795C56.3459 50.3818 56.8709 50.5517 57.4002 50.8936C58.6304 51.6879 59.8782 52.5318 60.9317 53.5542Z" fill="#8D9CAF"/>
<path fill-rule="evenodd" clip-rule="evenodd" d="M270.527 43.9788C269.595 44.6696 268.905 44.0971 268.024 43.6201C267.496 43.3333 265.838 42.0222 265.257 42.1643C264.585 42.3287 264.143 43.6744 263.826 44.2228C263.274 45.1778 262.719 46.1371 262.04 47.008C261.739 47.3944 260.928 48.8463 260.474 49.0547C260.214 49.174 260.025 49.1976 259.762 49.0109C259.3 48.683 259.636 48.4257 259.859 47.9118C260.876 45.5636 262.028 43.2656 263.561 41.2124C262.247 40.2716 260.881 39.4216 259.508 38.5706C259.106 38.3212 258.148 37.9618 258.204 37.3494C258.272 36.6026 259.234 36.7957 259.742 36.9537C260.483 37.1841 261.205 37.753 261.87 38.1449C262.419 38.4683 263.503 39.4245 264.13 39.4675C264.561 39.4975 264.587 39.2316 264.85 38.8035C265.098 38.399 265.345 37.9941 265.594 37.5903C265.995 36.9429 266.395 36.2986 266.839 35.6799C267.082 35.3404 267.439 34.5978 267.837 34.3989C268.068 34.2834 268.817 34.2587 268.972 34.4988C269.335 35.0603 267.441 37.8833 267.137 38.4819C266.936 38.879 266.76 39.2838 266.526 39.661C266.437 39.8037 266.171 39.9386 266.127 40.104C265.942 40.8064 266.467 40.9762 266.996 41.3181C268.226 42.1125 269.474 42.9564 270.527 43.9788Z" fill="#8D9CAF"/>
<path fill-rule="evenodd" clip-rule="evenodd" d="M40.7782 103.655C40.1807 104.099 39.739 103.731 39.1747 103.425C38.8361 103.241 37.7746 102.399 37.4021 102.491C36.9715 102.597 36.6882 103.462 36.4847 103.814C36.1304 104.428 35.7744 105.044 35.3394 105.604C35.1463 105.853 34.6259 106.786 34.3352 106.92C34.1686 106.997 34.0476 107.012 33.8791 106.892C33.5834 106.682 33.7985 106.516 33.9413 106.186C34.5941 104.677 35.3332 103.2 36.3162 101.88C35.4744 101.276 34.5997 100.73 33.7206 100.184C33.4629 100.024 32.8493 99.7936 32.8853 99.4001C32.9295 98.9203 33.5457 99.044 33.8709 99.1453C34.3458 99.293 34.8081 99.6582 35.2341 99.9097C35.5857 100.117 36.2794 100.731 36.6812 100.759C36.9577 100.778 36.9742 100.607 37.1426 100.332C37.3016 100.072 37.4602 99.8115 37.6203 99.5519C37.877 99.1358 38.1339 98.7217 38.4182 98.324C38.5742 98.1057 38.8035 97.6285 39.0586 97.5006C39.2065 97.4263 39.6863 97.4101 39.7855 97.5643C40.0181 97.9249 38.8032 99.7394 38.6083 100.124C38.479 100.379 38.3665 100.64 38.2165 100.882C38.1595 100.974 37.9887 101.06 37.9605 101.167C37.8414 101.618 38.1777 101.727 38.5167 101.946C39.3045 102.456 40.1036 102.998 40.7782 103.655Z" fill="#8D9CAF"/>
<path fill-rule="evenodd" clip-rule="evenodd" d="M290.806 28.1138C290.208 28.558 289.766 28.1904 289.202 27.8843C288.863 27.7003 287.802 26.8585 287.429 26.9501C286.999 27.056 286.716 27.9208 286.512 28.2732C286.158 28.887 285.802 29.5036 285.367 30.0634C285.174 30.3118 284.653 31.245 284.363 31.379C284.196 31.4558 284.075 31.4711 283.906 31.3512C283.611 31.1407 283.826 30.9753 283.969 30.645C284.621 29.1359 285.361 27.6589 286.344 26.3392C285.502 25.7352 284.627 25.1896 283.748 24.6434C283.49 24.4834 282.877 24.2528 282.913 23.8593C282.957 23.3795 283.573 23.5032 283.898 23.6045C284.373 23.7522 284.835 24.1175 285.261 24.369C285.613 24.5765 286.307 25.1905 286.709 25.2178C286.985 25.2369 287.002 25.0661 287.17 24.7909C287.329 24.531 287.488 24.2707 287.648 24.0112C287.904 23.5951 288.161 23.1809 288.446 22.7832C288.602 22.565 288.831 22.0877 289.086 21.9598C289.234 21.8855 289.714 21.8693 289.813 22.0235C290.045 22.3841 288.831 24.1986 288.636 24.5834C288.506 24.8386 288.394 25.0987 288.244 25.3412C288.187 25.4329 288.016 25.5197 287.988 25.626C287.869 26.0773 288.205 26.1863 288.544 26.4057C289.332 26.9156 290.131 27.4573 290.806 28.1138Z" fill="#8D9CAF"/>
<path fill-rule="evenodd" clip-rule="evenodd" d="M56.1332 134.081C56.521 131.09 59.5262 131.341 59.8793 133.721C60.0251 137.081 56.2396 137.049 56.1332 134.081ZM54.9506 135.624C58.2195 140.413 62.1578 136.251 60.9457 133.306C59.5968 130.139 52.9809 128.74 54.9506 135.624Z" fill="#8D9CAF"/>
<path fill-rule="evenodd" clip-rule="evenodd" d="M256.629 17.7491C256.921 15.4986 259.182 15.6877 259.448 17.478C259.557 20.006 256.71 19.9818 256.629 17.7491ZM255.74 18.9097C258.199 22.5127 261.162 19.3819 260.25 17.1659C259.235 14.7837 254.258 13.7312 255.74 18.9097Z" fill="#8D9CAF"/>
<defs>
<clipPath id="clip0_10350_54215">
<rect width="31.2683" height="27.794" fill="white" transform="translate(175.304 30.9106) rotate(5)"/>
</clipPath>
<clipPath id="clip1_10350_54215">
<rect width="24.4797" height="24.4797" fill="white" transform="translate(191.101 83.5229) rotate(7)"/>
</clipPath>
</defs>
</svg>
