<?xml version="1.0" encoding="utf-8"?>
<!-- Generator: Adobe Illustrator 15.0.0, SVG Export Plug-In . SVG Version: 6.00 Build 0)  -->
<!DOCTYPE svg PUBLIC "-//W3C//DTD SVG 1.1//EN" "http://www.w3.org/Graphics/SVG/1.1/DTD/svg11.dtd">
<svg version="1.1" id="Layer_1" xmlns="http://www.w3.org/2000/svg" xmlns:xlink="http://www.w3.org/1999/xlink" x="0px" y="0px"
	 width="328px" height="200px" viewBox="0 0 328 200" enable-background="new 0 0 328 200" xml:space="preserve">
<path opacity="0.4" fill="#475ABB" stroke="#475ABB" enable-background="new    " d="M105.205,67.118v-0.552
	c0-0.047-0.004-0.09-0.006-0.11l-0.002-0.025c0-0.003,0-0.005,0-0.005 M105.205,67.118l-0.008-0.692l0,0 M105.205,67.118
	l-0.549-0.054 M105.205,67.118l-0.549-0.054 M105.197,66.426c0-18.792,15.279-34.029,34.13-34.029c3.992,0,7.808,0.719,11.373,1.977
	 M105.197,66.426L150.7,34.374 M104.656,67.064c-0.9-0.088-1.811-0.138-2.732-0.138c-15.223,0-27.561,12.305-27.561,27.479
	c0,15.175,12.338,27.479,27.561,27.479h134.721c19.16,0,34.691-15.487,34.691-34.59c0-19.102-15.531-34.59-34.691-34.59
	c-1.928,0-3.81,0.197-5.664,0.501l-0.576,0.095l-0.006-0.584c-0.193-22.868-18.838-41.351-41.822-41.351
	c-16.26,0-30.342,9.255-37.265,22.765l-0.199,0.389 M104.656,67.064l46.456-32.545 M151.112,34.519l-0.412-0.146 M151.112,34.519
	l-0.412-0.146"/>
<path fill="none" stroke="#0F1938" d="M96.763,126.8c-16.71,0-30.257-15.358-30.257-32.035c0-14.985,10.723-28.585,25.022-31.19
	 M100.359,61.104c0-20.581,16.113-33.798,36.735-33.798 M189.41,6.816c25.078,0,46.215,17.976,46.426,42.953 M241.389,126.8h-22.041
	 M104.407,126.8h21.416"/>
<circle fill="#475ABB" cx="188.308" cy="45.983" r="24.81"/>
<g>
	<defs>
		
			<rect id="SVGID_1_" x="173.661" y="32.302" transform="matrix(-0.9975 0.0705 -0.0705 -0.9975 381.5916 79.1269)" width="31.48" height="27.982"/>
	</defs>
	<clipPath id="SVGID_2_">
		<use xlink:href="#SVGID_1_"  overflow="visible"/>
	</clipPath>
	<g clip-path="url(#SVGID_2_)">
		<path opacity="0.4" fill="#FFFFFF" enable-background="new    " d="M202.941,53.783l-6.266-3.694l-0.605-8.581l5.684-4.543
			c1.105-0.878,2.749-0.172,2.848,1.212l0.988,14.005C205.688,53.573,204.154,54.498,202.941,53.783z"/>
		<path fill="#FFFFFF" d="M174.257,55.262l-1.11-15.723c-0.049-0.691,0.18-1.374,0.633-1.896c0.455-0.523,1.099-0.845,1.789-0.894
			l15.723-1.11c0.343-0.024,0.686,0.02,1.012,0.128c0.325,0.109,0.627,0.28,0.885,0.505c0.26,0.225,0.472,0.499,0.625,0.805
			c0.153,0.307,0.244,0.641,0.269,0.983l1.11,15.723c0.024,0.342-0.02,0.686-0.127,1.011c-0.109,0.325-0.281,0.626-0.506,0.885
			c-0.225,0.259-0.498,0.471-0.806,0.625s-0.642,0.245-0.983,0.269l-15.723,1.11c-0.691,0.049-1.373-0.179-1.896-0.633
			S174.307,55.953,174.257,55.262L174.257,55.262z"/>
	</g>
</g>
<circle fill="#475ABB" cx="119.655" cy="91.509" r="21.066"/>
<path opacity="0.4" fill="#FFFFFF" enable-background="new    " d="M114.482,91.468v-8.752c0-1.393,0.554-2.728,1.538-3.713
	c0.985-0.985,2.32-1.538,3.712-1.538c1.393,0,2.728,0.553,3.713,1.538c0.984,0.985,1.537,2.32,1.537,3.713v8.752
	c0,1.393-0.553,2.728-1.537,3.713c-0.985,0.985-2.32,1.538-3.713,1.538c-1.392,0-2.727-0.553-3.712-1.538
	C115.036,94.196,114.482,92.86,114.482,91.468L114.482,91.468z"/>
<path fill="#FFFFFF" d="M129.36,91.471c0,4.863-3.626,8.887-8.313,9.53v1.849h3.062c0.233,0,0.455,0.092,0.619,0.256
	s0.257,0.387,0.257,0.619v0.875c0,0.231-0.093,0.455-0.257,0.619c-0.164,0.163-0.386,0.256-0.619,0.256h-8.75
	c-0.232,0-0.454-0.093-0.618-0.256c-0.164-0.164-0.257-0.388-0.257-0.619v-0.875c0-0.232,0.093-0.455,0.257-0.619
	c0.164-0.164,0.386-0.256,0.618-0.256h3.063v-1.869c-4.813-0.664-8.313-5.035-8.313-9.938v-2.197c0-0.232,0.093-0.455,0.257-0.619
	c0.164-0.164,0.386-0.256,0.618-0.256h0.875c0.232,0,0.455,0.092,0.619,0.256s0.256,0.387,0.256,0.619v2.314
	c0,3.654,2.664,6.924,6.301,7.279c0.973,0.096,1.956-0.012,2.885-0.318c0.928-0.306,1.783-0.804,2.508-1.46
	c0.725-0.656,1.305-1.457,1.702-2.351c0.398-0.894,0.603-1.861,0.605-2.839v-2.625c0-0.232,0.092-0.455,0.256-0.619
	c0.164-0.164,0.386-0.256,0.619-0.256h0.875c0.232,0,0.454,0.092,0.618,0.256s0.257,0.387,0.257,0.619V91.471z"/>
<circle fill="#475ABB" cx="202.345" cy="95.88" r="18.55"/>
<g>
	<defs>
		
			<rect id="SVGID_3_" x="189.506" y="84.499" transform="matrix(-0.9922 -0.1247 0.1247 -0.9922 390.6765 218.7989)" width="25.355" height="25.356"/>
	</defs>
	<clipPath id="SVGID_4_">
		<use xlink:href="#SVGID_3_"  overflow="visible"/>
	</clipPath>
	<g clip-path="url(#SVGID_4_)">
		<path opacity="0.4" fill="#FFFFFF" enable-background="new    " d="M213.516,88.949c-2.406-2.633-6.461-2.724-9.254-0.484
			l-1.093,0.876l-0.842-1.119c-2.147-2.86-6.104-3.776-9.086-1.82c-3.415,2.246-4.173,6.953-1.769,10.154l8.274,11.012
			c0.125,0.168,0.282,0.309,0.463,0.414c0.181,0.106,0.382,0.174,0.59,0.201c0.208,0.025,0.419,0.01,0.62-0.049
			c0.202-0.058,0.389-0.156,0.553-0.287l10.74-8.623C215.839,96.718,216.27,91.97,213.516,88.949L213.516,88.949z M209.779,97.713
			l-7.92,6.186c-0.078,0.062-0.168,0.106-0.264,0.133c-0.097,0.027-0.197,0.033-0.297,0.021c-0.099-0.013-0.195-0.044-0.281-0.094
			s-0.162-0.115-0.224-0.195l-6.01-7.781c-1.218-1.577-1.197-3.894,0.243-5.271c0.384-0.37,0.841-0.654,1.342-0.835
			s1.033-0.254,1.564-0.216c0.531,0.039,1.049,0.19,1.518,0.442c0.468,0.252,0.879,0.601,1.203,1.022l1.953,2.526l2.346-1.831
			c1.57-1.226,3.878-1.21,5.246,0.237c0.367,0.388,0.65,0.847,0.83,1.35c0.179,0.503,0.25,1.038,0.212,1.57
			c-0.04,0.533-0.19,1.051-0.442,1.522C210.548,96.971,210.2,97.384,209.779,97.713L209.779,97.713z"/>
		<path fill="#FFFFFF" d="M200.793,103.764l-6.01-7.782c-1.219-1.576-1.197-3.894,0.244-5.271c0.384-0.37,0.84-0.654,1.341-0.835
			s1.034-0.254,1.565-0.215c0.53,0.039,1.047,0.189,1.516,0.442s0.88,0.601,1.205,1.022l1.953,2.526l2.344-1.831
			c1.57-1.226,3.878-1.21,5.246,0.237c0.369,0.387,0.65,0.847,0.83,1.35s0.252,1.038,0.214,1.57c-0.04,0.533-0.19,1.051-0.441,1.522
			c-0.252,0.471-0.599,0.884-1.021,1.213l-7.922,6.186c-0.078,0.061-0.168,0.106-0.265,0.133c-0.096,0.027-0.196,0.033-0.295,0.021
			c-0.099-0.013-0.194-0.045-0.282-0.094C200.93,103.909,200.854,103.844,200.793,103.764L200.793,103.764z"/>
	</g>
</g>
<circle fill="#475ABB" cx="240.199" cy="76.173" r="12.945"/>
<path fill="#FFFFFF" d="M249.338,72.32l-4.626,1.5l-2.448,9.661l4.623-1.261c0.195-0.054,0.381-0.168,0.532-0.331
	s0.261-0.363,0.315-0.578l2.127-8.397c0.023-0.087,0.025-0.177,0.01-0.259c-0.018-0.083-0.053-0.157-0.105-0.215
	c-0.051-0.059-0.117-0.1-0.191-0.121C249.499,72.297,249.418,72.298,249.338,72.32z M233.046,71.81
	c-0.196,0.054-0.381,0.168-0.532,0.33c-0.152,0.162-0.262,0.362-0.316,0.577l-2.127,8.397c-0.022,0.088-0.025,0.177-0.01,0.26
	c0.018,0.083,0.053,0.157,0.105,0.216c0.051,0.059,0.117,0.1,0.191,0.121c0.076,0.021,0.156,0.021,0.236-0.001l4.627-1.501
	l1.98-7.819c-0.122-0.535-0.2-1.087-0.235-1.65L233.046,71.81z M239.766,77.808c-0.207-0.031-0.397-0.112-0.56-0.238
	c-0.162-0.126-0.291-0.294-0.379-0.493c-0.386-0.863-0.781-1.841-1.111-2.833l-1.547,6.105l5.147,2.992l2.09-8.252
	c-0.79,0.826-1.635,1.62-2.415,2.312c-0.179,0.159-0.38,0.277-0.593,0.348C240.188,77.818,239.971,77.838,239.766,77.808
	L239.766,77.808z"/>
<path opacity="0.4" fill="#FFFFFF" enable-background="new    " d="M242.412,66.386c-0.946-0.142-1.962,0.151-2.824,0.813
	c-0.861,0.662-1.498,1.64-1.77,2.718c-0.457,1.814,1.041,5.47,1.633,6.803c0.027,0.063,0.068,0.117,0.119,0.157
	c0.052,0.041,0.113,0.066,0.178,0.076s0.134,0.003,0.201-0.02c0.066-0.022,0.131-0.061,0.188-0.111
	c1.196-1.066,4.363-4.025,4.82-5.84c0.271-1.078,0.156-2.168-0.32-3.03C244.159,67.091,243.359,66.527,242.412,66.386
	L242.412,66.386z M241.046,71.805c-0.235-0.035-0.444-0.149-0.603-0.327c-0.158-0.178-0.258-0.412-0.285-0.673
	c-0.028-0.261,0.017-0.537,0.129-0.793c0.113-0.256,0.287-0.48,0.501-0.645s0.459-0.262,0.703-0.28
	c0.243-0.018,0.476,0.044,0.668,0.18c0.19,0.135,0.333,0.336,0.407,0.579s0.078,0.515,0.012,0.782
	c-0.092,0.359-0.303,0.685-0.59,0.906C241.7,71.754,241.361,71.852,241.046,71.805z"/>
<circle fill="#475ABB" cx="150.481" cy="66.322" r="11.626"/>
<path fill="#FFFFFF" d="M152.164,67.924h-5.168l-2.255,1.694c-0.04,0.029-0.086,0.047-0.135,0.051s-0.098-0.005-0.142-0.027
	s-0.081-0.056-0.106-0.098c-0.026-0.042-0.04-0.09-0.039-0.139v-1.479c-0.463,0-0.906-0.185-1.233-0.512
	c-0.327-0.327-0.51-0.771-0.511-1.234v-4.365c0.001-0.463,0.184-0.907,0.511-1.234c0.327-0.327,0.77-0.511,1.233-0.512h7.845
	c0.462,0,0.905,0.185,1.232,0.512c0.327,0.328,0.511,0.771,0.511,1.234v4.365c0,0.229-0.045,0.456-0.133,0.667
	c-0.087,0.212-0.216,0.404-0.378,0.566s-0.354,0.29-0.565,0.378C152.619,67.88,152.393,67.925,152.164,67.924L152.164,67.924z"/>
<path opacity="0.4" fill="#FFFFFF" enable-background="new    " d="M158.314,66.216v4.363c0,0.463-0.185,0.907-0.514,1.234
	c-0.329,0.327-0.776,0.511-1.241,0.512h-0.878v1.481c0,0.049-0.013,0.097-0.039,0.139s-0.063,0.076-0.107,0.098
	s-0.094,0.032-0.143,0.027c-0.049-0.004-0.096-0.022-0.136-0.051l-2.271-1.694h-3.447c-0.466,0-0.912-0.185-1.241-0.512
	s-0.514-0.771-0.515-1.234v-1.745h4.389c0.698-0.001,1.367-0.277,1.86-0.768c0.494-0.491,0.771-1.156,0.773-1.85v-1.746h1.755
	c0.465,0,0.912,0.185,1.241,0.512C158.129,65.31,158.314,65.753,158.314,66.216z"/>
<path fill="#FFFFFF" d="M154.18,105.05l18.349,0.033c2.541,0.004,4.584,2.054,4.58,4.597l-0.068,38.24l19.841,0.035
	c4.091,0.008,6.127,4.943,3.235,7.846l-33.662,33.592c-1.801,1.795-4.705,1.789-6.499-0.011l-33.544-33.712
	c-2.881-2.893-0.827-7.84,3.264-7.833l19.84,0.035l0.068-38.241C149.588,107.088,151.637,105.046,154.18,105.05z"/>
<path fill="#475ABB" d="M60.931,53.555c-0.932,0.69-1.622,0.118-2.503-0.359c-0.529-0.287-2.187-1.598-2.768-1.456
	c-0.672,0.164-1.113,1.51-1.431,2.058c-0.552,0.955-1.107,1.915-1.786,2.785c-0.301,0.387-1.113,1.838-1.566,2.047
	c-0.26,0.119-0.449,0.143-0.712-0.044c-0.462-0.328-0.126-0.585,0.096-1.099c1.018-2.348,2.17-4.646,3.703-6.699
	c-1.314-0.941-2.68-1.791-4.053-2.642c-0.402-0.25-1.36-0.609-1.305-1.221c0.068-0.747,1.031-0.554,1.538-0.396
	c0.742,0.23,1.463,0.799,2.128,1.191c0.549,0.323,1.632,1.279,2.26,1.322c0.432,0.03,0.457-0.236,0.72-0.664
	c0.248-0.405,0.495-0.81,0.745-1.213c0.4-0.647,0.801-1.292,1.244-1.91c0.244-0.34,0.601-1.083,0.999-1.281
	c0.23-0.115,0.979-0.14,1.135,0.1c0.363,0.561-1.531,3.384-1.835,3.983c-0.202,0.397-0.377,0.802-0.611,1.179
	c-0.089,0.143-0.355,0.277-0.399,0.443c-0.186,0.702,0.34,0.872,0.869,1.214C58.629,51.689,59.877,52.533,60.931,53.555z"/>
<path fill="#475ABB" d="M270.527,43.979c-0.932,0.69-1.623,0.118-2.504-0.359c-0.527-0.287-2.186-1.598-2.767-1.456
	c-0.672,0.164-1.114,1.51-1.431,2.058c-0.553,0.955-1.107,1.915-1.786,2.785c-0.302,0.387-1.112,1.838-1.565,2.047
	c-0.261,0.119-0.449,0.143-0.713-0.044c-0.462-0.328-0.125-0.585,0.098-1.099c1.017-2.348,2.168-4.646,3.701-6.699
	c-1.313-0.941-2.68-1.791-4.053-2.642c-0.402-0.25-1.359-0.609-1.304-1.221c0.067-0.747,1.03-0.554,1.538-0.396
	c0.74,0.23,1.463,0.799,2.128,1.191c0.549,0.323,1.633,1.279,2.26,1.322c0.431,0.03,0.457-0.236,0.72-0.664
	c0.248-0.405,0.496-0.81,0.744-1.213c0.401-0.647,0.801-1.292,1.245-1.91c0.243-0.34,0.601-1.083,0.998-1.281
	c0.231-0.116,0.979-0.14,1.136,0.1c0.362,0.562-1.531,3.385-1.836,3.983c-0.201,0.397-0.377,0.802-0.611,1.179
	c-0.088,0.143-0.354,0.277-0.398,0.443c-0.186,0.702,0.34,0.872,0.869,1.214C268.227,42.112,269.475,42.957,270.527,43.979z"/>
<path fill="#475ABB" d="M40.777,103.654c-0.598,0.443-1.04,0.076-1.604-0.229c-0.339-0.184-1.4-1.026-1.773-0.934
	c-0.43,0.106-0.714,0.97-0.917,1.323c-0.354,0.613-0.71,1.229-1.146,1.789c-0.193,0.248-0.713,1.182-1.004,1.316
	c-0.167,0.076-0.288,0.092-0.456-0.027c-0.296-0.211-0.081-0.377,0.062-0.707c0.653-1.51,1.392-2.986,2.375-4.306
	c-0.842-0.604-1.717-1.149-2.596-1.696c-0.258-0.16-0.871-0.391-0.835-0.784c0.044-0.48,0.661-0.356,0.986-0.255
	c0.475,0.147,0.937,0.513,1.363,0.765c0.352,0.208,1.045,0.821,1.447,0.848c0.276,0.02,0.293-0.15,0.461-0.427
	c0.159-0.26,0.317-0.52,0.478-0.779c0.257-0.416,0.514-0.831,0.798-1.228c0.156-0.218,0.386-0.695,0.641-0.823
	c0.148-0.075,0.627-0.091,0.727,0.063c0.232,0.361-0.982,2.175-1.177,2.56c-0.129,0.255-0.242,0.515-0.392,0.758
	c-0.057,0.091-0.228,0.179-0.256,0.285c-0.119,0.451,0.217,0.56,0.556,0.778C39.304,102.456,40.103,102.998,40.777,103.654z"/>
<path fill="#475ABB" d="M290.805,28.113c-0.598,0.444-1.039,0.077-1.604-0.229c-0.34-0.184-1.4-1.026-1.773-0.934
	c-0.43,0.106-0.713,0.971-0.916,1.323c-0.354,0.613-0.711,1.23-1.146,1.79c-0.193,0.248-0.714,1.182-1.005,1.315
	c-0.166,0.077-0.287,0.092-0.457-0.028c-0.295-0.21-0.079-0.376,0.063-0.706c0.652-1.509,1.392-2.986,2.375-4.306
	c-0.842-0.604-1.717-1.15-2.596-1.696c-0.259-0.16-0.871-0.391-0.835-0.784c0.044-0.48,0.66-0.356,0.984-0.255
	c0.476,0.147,0.938,0.513,1.363,0.765c0.352,0.208,1.047,0.821,1.448,0.849c0.276,0.019,0.293-0.152,0.461-0.427
	c0.159-0.26,0.317-0.521,0.478-0.78c0.256-0.416,0.514-0.831,0.799-1.228c0.156-0.218,0.385-0.695,0.64-0.823
	c0.147-0.074,0.628-0.091,0.728,0.063c0.231,0.361-0.982,2.175-1.178,2.56c-0.13,0.255-0.242,0.515-0.392,0.758
	c-0.058,0.091-0.228,0.178-0.257,0.285c-0.118,0.451,0.218,0.561,0.557,0.78C289.331,26.915,290.13,27.457,290.805,28.113z"/>
<path fill="#475ABB" d="M56.133,134.082c0.388-2.992,3.393-2.74,3.746-0.361C60.025,137.082,56.24,137.049,56.133,134.082z
	 M54.951,135.624c3.269,4.789,7.207,0.628,5.995-2.317C59.597,130.141,52.981,128.741,54.951,135.624z"/>
<path fill="#475ABB" d="M256.629,17.749c0.292-2.25,2.553-2.062,2.818-0.271C259.557,20.005,256.71,19.981,256.629,17.749z
	 M255.74,18.909c2.459,3.603,5.422,0.472,4.51-1.744C259.234,14.783,254.258,13.73,255.74,18.909z"/>
<path fill="none" stroke="#0F1938" d="M179.54,151.42l0.001-0.5l0.068-38.24c0.004-2.268-1.815-4.093-4.082-4.097l-18.348-0.033
	c-2.266-0.004-4.091,1.815-4.095,4.082l-0.068,38.241v0.5l-0.5-0.001l-19.841-0.035c-3.645-0.007-5.476,4.403-2.908,6.981l0,0
	l33.543,33.711h0.001 M179.54,151.42h0.5l19.841,0.035c3.643,0.007,5.461,4.404,2.883,6.992l0,0 M163.311,192.029
	c1.598,1.604,4.187,1.609,5.791,0.01l33.662-33.592"/>
</svg>
