<svg width="328" height="200" viewBox="0 0 328 200" fill="none" xmlns="http://www.w3.org/2000/svg">
<mask id="mask0_10350_54319" style="mask-type:alpha" maskUnits="userSpaceOnUse" x="0" y="0" width="321" height="200">
<rect width="321" height="200" fill="#C4C4C4"/>
</mask>
<g mask="url(#mask0_10350_54319)">
<path d="M197.812 143.952C205.363 143.952 211.485 137.83 211.485 130.279C211.485 122.727 205.363 116.605 197.812 116.605C190.26 116.605 184.139 122.727 184.139 130.279C184.139 137.83 190.26 143.952 197.812 143.952Z" fill="#8D9CAF"/>
<path d="M225.992 139.949C231.331 139.949 235.66 135.62 235.66 130.28C235.66 124.941 231.331 120.612 225.992 120.612C220.652 120.612 216.323 124.941 216.323 130.28C216.323 135.62 220.652 139.949 225.992 139.949Z" fill="#E2E8F0"/>
<path d="M215.623 161.786C220.962 161.786 225.291 157.457 225.291 152.117C225.291 146.777 220.962 142.449 215.623 142.449C210.283 142.449 205.954 146.777 205.954 152.117C205.954 157.457 210.283 161.786 215.623 161.786Z" fill="#8D9CAF"/>
<path d="M217.319 116.829C229.259 116.829 238.939 107.149 238.939 95.2093C238.939 83.2693 229.259 73.5901 217.319 73.5901C205.379 73.5901 195.7 83.2693 195.7 95.2093C195.7 107.149 205.379 116.829 217.319 116.829Z" fill="#8D9CAF"/>
<path d="M176.485 205.063C193.371 205.063 207.06 191.375 207.06 174.489C207.06 157.604 193.371 143.915 176.485 143.915C159.6 143.915 145.911 157.604 145.911 174.489C145.911 191.375 159.6 205.063 176.485 205.063Z" fill="#E2E8F0"/>
<path d="M98.9902 121.055C115.876 121.055 129.564 107.367 129.564 90.4812C129.564 73.5955 115.876 59.907 98.9902 59.907C82.1046 59.907 68.416 73.5955 68.416 90.4812C68.416 107.367 82.1046 121.055 98.9902 121.055Z" fill="#E2E8F0"/>
<path d="M163.7 126.979C178.803 126.979 191.046 114.736 191.046 99.6325C191.046 84.5295 178.803 72.2861 163.7 72.2861C148.597 72.2861 136.354 84.5295 136.354 99.6325C136.354 114.736 148.597 126.979 163.7 126.979Z" fill="#8D9CAF"/>
<path d="M145.145 184.456C139.844 167.178 149.554 148.875 166.831 143.574C171.217 142.229 175.669 141.85 179.958 142.317M186.026 206.142C203.304 200.842 213.014 182.538 207.713 165.261C205.896 159.339 202.553 154.307 198.246 150.463" stroke="#8D9CAF"/>
<path d="M178.729 66.148C176.41 58.5873 180.658 50.5778 188.219 48.2583C190.138 47.6695 192.087 47.504 193.963 47.7084M196.619 75.638C204.179 73.3184 208.428 65.309 206.109 57.7483C205.314 55.1571 203.851 52.9549 201.966 51.2728" stroke="#8D9CAF"/>
<path d="M216.14 124.423C219.319 118.856 226.409 116.92 231.976 120.099C233.389 120.906 234.569 121.965 235.49 123.187M220.464 140.26C226.031 143.439 233.121 141.503 236.3 135.936C237.39 134.028 237.878 131.941 237.826 129.894" stroke="#8D9CAF"/>
<path d="M236.258 74.0906C235.953 68.4858 240.25 63.6955 245.855 63.3912C247.278 63.3139 248.648 63.5332 249.906 63.9951M246.957 83.6881C252.562 83.3838 256.859 78.5935 256.554 72.9886C256.45 71.0678 255.819 69.3005 254.809 67.8194" stroke="#8D9CAF"/>
<path d="M266.26 129.791C279.339 129.791 289.942 119.188 289.942 106.109C289.942 93.0289 279.339 82.4258 266.26 82.4258C253.18 82.4258 242.577 93.0289 242.577 106.109C242.577 119.188 253.18 129.791 266.26 129.791Z" fill="#E2E8F0"/>
<path d="M133.106 160.424C143.786 160.424 152.443 151.766 152.443 141.087C152.443 130.407 143.786 121.75 133.106 121.75C122.427 121.75 113.77 130.407 113.77 141.087C113.77 151.766 122.427 160.424 133.106 160.424Z" fill="#8D9CAF"/>
<path d="M128.837 226.501C139.516 226.501 148.174 217.844 148.174 207.164C148.174 196.485 139.516 187.828 128.837 187.828C118.157 187.828 109.5 196.485 109.5 207.164C109.5 217.844 118.157 226.501 128.837 226.501Z" fill="#8D9CAF"/>
<path d="M63.4755 206.893C74.1549 206.893 82.8123 198.236 82.8123 187.556C82.8123 176.877 74.1549 168.219 63.4755 168.219C52.7961 168.219 44.1387 176.877 44.1387 187.556C44.1387 198.236 52.7961 206.893 63.4755 206.893Z" fill="#E2E8F0"/>
<path d="M192.33 77.4839C199.882 77.4839 206.004 71.3622 206.004 63.8107C206.004 56.2592 199.882 50.1375 192.33 50.1375C184.779 50.1375 178.657 56.2592 178.657 63.8107C178.657 71.3622 184.779 77.4839 192.33 77.4839Z" fill="#E2E8F0"/>
<path d="M246.257 83.2486C251.597 83.2486 255.926 78.9199 255.926 73.5802C255.926 68.2405 251.597 63.9118 246.257 63.9118C240.918 63.9118 236.589 68.2405 236.589 73.5802C236.589 78.9199 240.918 83.2486 246.257 83.2486Z" fill="#E2E8F0"/>
<path d="M226.745 64.7933C238.685 64.7933 248.364 55.114 248.364 43.1741C248.364 31.2341 238.685 21.5548 226.745 21.5548C214.805 21.5548 205.126 31.2341 205.126 43.1741C205.126 55.114 214.805 64.7933 226.745 64.7933Z" fill="#8D9CAF"/>
<path d="M148.564 69.2158C167.061 69.2158 182.056 54.2207 182.056 35.7234C182.056 17.2261 167.061 2.23108 148.564 2.23108C130.066 2.23108 115.071 17.2261 115.071 35.7234C115.071 54.2207 130.066 69.2158 148.564 69.2158Z" fill="#8D9CAF"/>
<path fill-rule="evenodd" clip-rule="evenodd" d="M97.5479 28.2191C97.1039 28.6335 96.6458 28.4344 96.0911 28.2987C95.7582 28.2171 94.6653 27.7689 94.3539 27.8926C93.9939 28.0356 93.9053 28.7071 93.7916 28.9943C93.5936 29.4944 93.3947 29.9968 93.1156 30.4701C92.9916 30.6801 92.7067 31.4377 92.4754 31.5797C92.3428 31.661 92.2389 31.6907 92.068 31.6295C91.768 31.5221 91.9268 31.3689 91.9911 31.1071C92.2854 29.911 92.6617 28.725 93.2824 27.6157C92.4276 27.3064 91.5545 27.0445 90.6774 26.7828C90.4204 26.7062 89.8364 26.633 89.7947 26.3417C89.7442 25.9865 90.3106 25.9817 90.6163 26.0053C91.0626 26.0396 91.5383 26.2339 91.9608 26.3511C92.3096 26.4479 93.0358 26.7872 93.3952 26.7453C93.6425 26.7167 93.6253 26.5901 93.7225 26.3645C93.8142 26.1513 93.9055 25.9379 93.9983 25.7249C94.1471 25.3833 94.2963 25.0431 94.4729 24.7106C94.5697 24.5282 94.683 24.1464 94.884 24.0143C95.0006 23.9377 95.4207 23.8522 95.5369 23.949C95.8092 24.1752 95.0763 25.6794 94.9762 25.9887C94.9097 26.1938 94.859 26.4 94.772 26.5991C94.7388 26.6745 94.6044 26.7638 94.5994 26.8453C94.5785 27.1913 94.8954 27.2188 95.2352 27.3261C96.025 27.5754 96.8306 27.846 97.5479 28.2191Z" fill="#8D9CAF"/>
<path fill-rule="evenodd" clip-rule="evenodd" d="M76.6621 92.3317C76.2625 92.7875 75.8502 92.5685 75.351 92.4193C75.0514 92.3295 74.0678 91.8364 73.7875 91.9725C73.4635 92.1298 73.3838 92.8685 73.2815 93.1844C73.1033 93.7345 72.9243 94.2872 72.6731 94.8078C72.5615 95.0388 72.3051 95.8721 72.0969 96.0283C71.9775 96.1178 71.8841 96.1504 71.7303 96.0832C71.4602 95.965 71.6032 95.7965 71.6611 95.5086C71.9259 94.1928 72.2646 92.8882 72.8232 91.6679C72.0538 91.3277 71.2681 91.0396 70.4787 90.7518C70.2474 90.6675 69.7218 90.5869 69.6843 90.2666C69.6388 89.8758 70.1486 89.8705 70.4237 89.8965C70.8253 89.9343 71.2536 90.148 71.6338 90.2769C71.9477 90.3833 72.6013 90.7566 72.9247 90.7106C73.1473 90.6791 73.1318 90.5398 73.2193 90.2916C73.3018 90.0571 73.384 89.8224 73.4675 89.588C73.6014 89.2123 73.7358 88.8381 73.8946 88.4724C73.9818 88.2717 74.0837 87.8518 74.2646 87.7065C74.3696 87.6221 74.7476 87.5282 74.8523 87.6346C75.0974 87.8834 74.4377 89.538 74.3476 89.8782C74.2878 90.1039 74.2422 90.3307 74.1638 90.5497C74.134 90.6327 74.013 90.7308 74.0085 90.8205C73.9897 91.2011 74.2749 91.2313 74.5807 91.3494C75.2915 91.6236 76.0166 91.9213 76.6621 92.3317Z" fill="#8D9CAF"/>
<path fill-rule="evenodd" clip-rule="evenodd" d="M79.7727 32.0265C79.8049 33.2584 78.8966 33.5122 77.9552 33.9906C77.3899 34.2774 75.263 34.9263 75.0348 35.5194C74.771 36.205 75.6623 37.4067 75.9427 38.0162C76.431 39.0775 76.9215 40.1438 77.2615 41.2638C77.4123 41.7609 78.1718 43.3497 78.0776 43.8716C78.0235 44.1707 77.93 44.3496 77.6108 44.4656C77.0504 44.6691 77.0314 44.2204 76.7236 43.7144C75.3174 41.4017 74.0356 39.0022 73.194 36.4194C71.5924 36.994 70.038 37.6685 68.4786 38.3485C68.0216 38.5478 67.135 39.1646 66.6419 38.7442C66.0409 38.2312 66.7869 37.5098 67.2289 37.1632C67.8739 36.6568 68.7984 36.3729 69.5364 36.031C70.1455 35.7488 71.621 35.385 72.0361 34.8644C72.322 34.5064 72.1088 34.3225 71.8989 33.8338C71.7005 33.3721 71.5013 32.9108 71.3045 32.448C70.9891 31.706 70.6764 30.9656 70.4115 30.2036C70.2662 29.7854 69.8431 29.0229 69.9119 28.5553C69.9517 28.284 70.3819 27.6162 70.6819 27.6268C71.3839 27.6509 72.6696 31.0163 73.0013 31.6445C73.2213 32.0613 73.4637 32.46 73.6471 32.8928C73.7163 33.057 73.6717 33.3712 73.7875 33.5098C74.2798 34.0979 74.7423 33.7434 75.3555 33.4895C76.7802 32.8995 78.2582 32.3241 79.7727 32.0265Z" fill="#8D9CAF"/>
<path fill-rule="evenodd" clip-rule="evenodd" d="M69.5603 127.19C69.4245 125.825 71.1223 125.655 71.5977 126.678C72.0731 128.157 69.9678 128.498 69.5603 127.19ZM69.085 127.986C71.4619 129.806 73.1597 127.588 72.141 126.394C71.0205 125.114 67.1834 125.114 69.085 127.986Z" fill="#8D9CAF"/>
<path fill-rule="evenodd" clip-rule="evenodd" d="M119.667 65.3772C119.558 64.3535 120.916 64.2256 121.297 64.9934C121.677 66.1024 119.993 66.3583 119.667 65.3772ZM119.287 65.9744C121.188 67.3393 122.546 65.6758 121.731 64.7801C120.835 63.8204 117.765 63.8204 119.287 65.9744Z" fill="#8D9CAF"/>
<path fill-rule="evenodd" clip-rule="evenodd" d="M102.027 85.9475C101.891 84.5825 103.589 84.4119 104.065 85.4356C104.54 86.9143 102.435 87.2555 102.027 85.9475ZM101.552 86.7437C103.929 88.5636 105.626 86.3456 104.608 85.1513C103.487 83.8716 99.6502 83.8716 101.552 86.7437Z" fill="#8D9CAF"/>
<path fill-rule="evenodd" clip-rule="evenodd" d="M59.3999 73.7383C59.126 71.2807 62.5498 70.9735 63.5084 72.8167C64.4671 75.4791 60.2216 76.0934 59.3999 73.7383ZM58.4412 75.1719C63.2345 78.4486 66.6583 74.4551 64.604 72.3047C62.3443 70.0007 54.6066 70.0007 58.4412 75.1719Z" fill="#8D9CAF"/>
<path fill-rule="evenodd" clip-rule="evenodd" d="M192.35 15.6429C192.076 13.1853 195.5 12.8781 196.459 14.7213C197.417 17.3837 193.172 17.9981 192.35 15.6429ZM191.391 17.0765C196.185 20.3533 199.608 16.3597 197.554 14.2093C195.295 11.9053 187.557 11.9053 191.391 17.0765Z" fill="#8D9CAF"/>
<path fill-rule="evenodd" clip-rule="evenodd" d="M32.7967 85.5436C32.6881 84.5199 34.0463 84.3919 34.4266 85.1597C34.8069 86.2687 33.1227 86.5246 32.7967 85.5436ZM32.4164 86.1407C34.3179 87.5057 35.6762 85.8421 34.8612 84.9464C33.9648 83.9867 30.8952 83.9867 32.4164 86.1407Z" fill="#8D9CAF"/>
<path d="M171.37 37.3073H150.755L164.484 51.0365C165.009 51.5612 165.872 51.6038 166.412 51.0956C169.774 47.928 172.086 43.658 172.765 38.8581C172.881 38.0362 172.199 37.3073 171.37 37.3073ZM169.994 31.6777C169.279 21.2994 160.985 13.0061 150.607 12.2903C149.815 12.2355 149.147 12.9036 149.147 13.6977V33.1373H168.588C169.382 33.1373 170.049 32.47 169.994 31.6777Z" fill="white"/>
<path d="M144.977 16.6917V37.3067L158.518 50.8482C159.113 51.4433 159.068 52.4537 158.381 52.9402C155.055 55.2998 151.009 56.7106 146.63 56.7654C135.493 56.9052 125.908 47.7762 125.529 36.6438C125.161 25.8042 133.074 16.7594 143.427 15.2964C144.248 15.18 144.977 15.862 144.977 16.6917Z" fill="#E2E8F0"/>
<path d="M77.6895 156.938L74.2942 162.244L70.2109 165.689L81.6069 178.525L79.199 166.951L83.6758 162.796L77.6895 156.938Z" fill="white"/>
<path d="M121.475 173.068C121.371 173.902 121.282 175.983 121.168 177.401C120.557 178.574 120.205 179.645 119.73 180.534C120.72 181.704 128.406 188.732 128.958 188.948C129.51 189.163 136.746 188.948 136.746 188.948C136.746 188.396 132.787 185.837 130.95 184.112C130.26 183.251 129.114 173.983 129.114 172.122L121.475 173.068Z" fill="white"/>
<path d="M95.9838 103.109C95.7215 105.019 94.6623 130.197 94.6623 134.24C93.1379 136.094 78.891 154.515 78.891 156.701C80.5738 158.601 82.8654 160.66 84.2587 161.935C85.1397 162.744 106.919 139.415 107.318 138.215C107.716 137.014 110.763 129.877 110.763 128.209C110.763 126.541 104.004 104.423 104.004 104.423L95.9838 103.109Z" fill="#171D28"/>
<path d="M96.2462 128.428C96.1819 130.435 96.1447 131.979 96.1447 132.754C94.6203 134.607 80.3735 153.029 80.3735 155.214C81.7642 156.627 84.6621 159.251 85.7411 160.448C86.9339 160.384 108.402 137.929 108.8 136.728C109.199 135.528 112.245 128.391 112.245 126.723C112.245 125.055 105.487 102.936 105.487 102.936L97.4662 101.622C97.3078 102.778 96.855 112.469 96.5234 120.828" stroke="#171D28" stroke-linecap="round" stroke-linejoin="round"/>
<path d="M121.157 104.454C121.546 106.605 129.229 171.583 129.229 173.642C128.331 174.8 123.144 174.966 122.243 174.414C121.343 173.862 113.285 135.809 112.614 133.582C110.1 131.906 99.7929 108.548 99.7954 105.004" fill="#171D28"/>
<path d="M108.109 63.4251C95.2401 63.4251 95.683 100.546 96.4156 103.248C97.1481 105.95 121.499 106.309 121.551 104.208C122.058 84.4353 123.417 63.4251 108.109 63.4251Z" fill="#8D9CAF"/>
<path d="M117.734 150.637C115.854 141.921 114.072 133.408 113.753 132.346C111.241 130.671 100.931 107.312 100.934 103.769" stroke="#171D28" stroke-linecap="round" stroke-linejoin="round"/>
<path d="M125.394 128.425C127.576 146.676 130.096 168.327 130.096 169.53C128.504 169.933 123.605 170.339 122.488 170.477C122.144 170.267 120.89 164.996 119.43 158.433" stroke="#171D28" stroke-linecap="round" stroke-linejoin="round"/>
<path d="M122.295 103.218C122.387 103.713 122.849 107.408 123.513 112.82" stroke="#171D28" stroke-linecap="round" stroke-linejoin="round"/>
<path d="M124.942 183.594C127.238 185.704 129.644 187.838 129.95 187.952C130.502 188.159 137.738 187.952 137.738 187.952C137.738 187.4 133.779 184.841 131.943 183.116C131.655 182.757 131.289 180.951 130.953 178.83" stroke="#171D28" stroke-linecap="round" stroke-linejoin="round"/>
<path d="M130.407 174.718C130.222 173.102 130.103 171.726 130.103 171.125L122.463 172.077C122.36 172.911 122.27 174.993 122.157 176.411C121.545 177.584 121.194 178.655 120.719 179.544C120.984 179.853 121.709 180.568 122.652 181.462" stroke="#171D28" stroke-linecap="round" stroke-linejoin="round"/>
<path d="M105.375 104.301C112.698 104.888 122.263 104.531 122.295 103.217C122.451 97.1543 122.686 90.9725 122.495 85.3203" stroke="#171D28" stroke-linecap="round" stroke-linejoin="round"/>
<path d="M122.062 79.0648C120.954 69.3912 117.662 62.4348 108.855 62.4348C95.9866 62.4348 96.4296 99.5553 97.1621 102.258C97.2957 102.753 98.1866 103.154 99.56 103.495" stroke="#171D28" stroke-linecap="round" stroke-linejoin="round"/>
<path d="M105.379 66.0936C105.379 67.3136 111.023 67.2047 110.924 65.5764L110.407 56.9966H105.379V66.0936Z" fill="white"/>
<path d="M106.12 65.3514C106.12 66.5714 111.765 66.4625 111.666 64.8341L111.148 56.2544H106.12V65.3514Z" stroke="#171D28" stroke-linecap="round" stroke-linejoin="round"/>
<path d="M98.8595 51.1321C97.7654 46.0263 99.6516 41.293 103.072 40.56C106.493 39.8269 110.153 43.3718 111.247 48.4776C112.342 53.5834 110.455 58.3167 107.035 59.0497C103.614 59.7828 99.9536 56.2379 98.8595 51.1321Z" fill="white"/>
<path d="M113.408 51.023C113.44 49.9321 113.342 48.8413 113.116 47.7737C112.725 45.7948 111.864 43.9387 110.607 42.3615" stroke="#171D28" stroke-linecap="round" stroke-linejoin="round"/>
<path d="M107.205 58.3296C107.756 58.4278 108.322 58.4194 108.87 58.3049C110.724 57.9163 112.132 56.3498 112.859 54.1845" stroke="#171D28" stroke-linecap="round" stroke-linejoin="round"/>
<path d="M103.932 39.6989C98.4875 39.6989 95.7653 45.4353 94.528 51.5775C93.5381 56.5269 91.0634 60.7339 91.0634 64.9409C91.0634 71.2439 95.1887 76.8194 99.4774 76.8194C106.122 76.8194 108.634 70.3332 108.634 67.4156C108.634 63.2903 107.396 60.6003 107.396 55.537C107.396 51.528 109.871 48.546 109.871 42.6686C109.871 41.1739 107.485 39.6989 103.932 39.6989Z" fill="#171D28"/>
<path d="M109.282 67.7621C109.342 67.4047 109.373 67.0431 109.376 66.6807C109.376 62.5553 108.139 59.8653 108.139 54.8021C108.139 50.7931 110.613 47.8111 110.613 41.9337C110.613 40.4488 108.233 38.964 104.674 38.964C101.704 38.964 99.5241 40.6963 97.97 43.2527" stroke="#171D28" stroke-linecap="round" stroke-linejoin="round"/>
<path d="M95.0161 73.2798C96.5009 75.0121 98.3446 76.0762 100.213 76.0762C101.439 76.1008 102.655 75.8566 103.777 75.3607C104.898 74.8647 105.897 74.1291 106.704 73.2055" stroke="#171D28" stroke-linecap="round" stroke-linejoin="round"/>
<path d="M94.9365 52.2769C93.8155 56.6126 91.8036 60.4063 91.8036 64.1975C91.8047 66.3273 92.2683 68.4314 93.1622 70.3645" stroke="#171D28" stroke-linecap="round" stroke-linejoin="round"/>
<path d="M131.334 169.374L120.718 170.698" stroke="#171D28" stroke-linecap="round" stroke-linejoin="round"/>
<path d="M131.675 170.93L121.061 172.254" stroke="#171D28" stroke-linecap="round" stroke-linejoin="round"/>
<path d="M86.7061 161.431L78.7325 153.594" stroke="#171D28" stroke-linecap="round" stroke-linejoin="round"/>
<path d="M85.9678 162.842L77.9943 155.007" stroke="#171D28" stroke-linecap="round" stroke-linejoin="round"/>
<path d="M80.4883 174.879L82.8442 177.535L80.4363 165.961L84.9131 161.806L78.9268 155.948L75.5315 161.254L71.4482 164.699L77.0609 171.019" stroke="#171D28" stroke-linecap="round" stroke-linejoin="round"/>
<path d="M123.434 62.7312C125.183 62.2706 126.908 61.7196 128.601 61.0806C129.096 59.9794 135.446 36.6504 136.52 32.1489C137.203 32.2058 138.076 33.312 137.448 35.6531C138.648 36.6256 140.605 38.5831 137.567 41.674C137.433 42.5204 133.634 65.4311 133.266 65.9261C132.068 67.547 127.396 69.8188 126.371 70.2271C126.047 69.3387 126.542 67.8761 123.434 62.7312Z" fill="white"/>
<path d="M110.371 73.2075C109.332 70.2379 119.013 61.9105 121.826 61.6853C123.475 62.5316 127.429 69.0847 126.528 72.3042C123.42 74.2716 112.091 78.1148 110.371 73.2075Z" fill="#8D9CAF"/>
<path d="M134.43 41.2259C135.615 36.8209 136.63 32.9628 137.001 31.3939C137.684 31.4508 138.597 32.1363 137.971 34.4774" stroke="#171D28" stroke-linecap="round" stroke-linejoin="round"/>
<path d="M123.926 61.9887C125.676 61.5281 127.401 60.9771 129.093 60.3381C129.341 59.7665 131.182 53.1986 133.038 46.3882" stroke="#171D28" stroke-linecap="round" stroke-linejoin="round"/>
<path d="M134.941 60.2074C136.154 53.7063 137.725 42.9835 138.05 40.9196C139.161 39.9866 140.579 37.304 139.262 36.1409" stroke="#171D28" stroke-linecap="round" stroke-linejoin="round"/>
<path d="M127.35 69.4951C128.312 69.3441 132.838 66.4586 133.749 65.1941C133.931 64.8298 134.063 64.4428 134.143 64.0433" stroke="#171D28" stroke-linecap="round" stroke-linejoin="round"/>
<path d="M115.838 74.6074C113.576 74.6074 111.73 73.9664 111.114 72.2069C110.456 70.3286 114.084 66.3048 117.561 63.5455" stroke="#171D28" stroke-linecap="round" stroke-linejoin="round"/>
<path d="M122.566 60.6841C124.214 61.5305 128.168 68.0835 127.268 71.303C125.928 72.0853 124.51 72.7232 123.036 73.2061" stroke="#171D28" stroke-linecap="round" stroke-linejoin="round"/>
</g>
</svg>
