<svg width="32" height="29" viewBox="0 0 32 29" fill="none" xmlns="http://www.w3.org/2000/svg">
<path d="M32 21.3325C32 23.2936 30.4056 24.888 28.4444 24.888H11.4056C10.4611 24.888 9.55556 24.5158 8.88889 23.8491L0.520667 15.4769C0.187278 15.1436 0 14.6936 0 14.2214C0 13.7491 0.187333 13.2991 0.520667 12.9658L8.88889 4.59635C9.55556 3.92913 10.4611 3.55469 11.4056 3.55469H28.4444C30.4056 3.55469 32 5.14635 32 7.11024V21.3325ZM15.0556 11.5602L17.6722 14.2214L15.0556 16.8325C14.5389 17.3547 14.5389 18.1991 15.0556 18.6714C15.5778 19.238 16.4222 19.238 16.8944 18.6714L19.5556 16.1047L22.1667 18.6714C22.6889 19.238 23.5333 19.238 24.0056 18.6714C24.5722 18.1991 24.5722 17.3547 24.0056 16.8325L21.4389 14.2214L24.0056 11.5602C24.5722 11.088 24.5722 10.2436 24.0056 9.72135C23.5333 9.20469 22.6889 9.20469 22.1667 9.72135L19.5556 12.338L16.8944 9.72135C16.4222 9.20469 15.5778 9.20469 15.0556 9.72135C14.5389 10.2436 14.5389 11.088 15.0556 11.5602Z" fill="#0F1938"/>
</svg>
