<svg width="32" height="29" viewBox="0 0 32 29" fill="none" xmlns="http://www.w3.org/2000/svg">
<g clip-path="url(#clip0_10955_7232)">
<path d="M23.7389 11.2939L20.8111 14.2217L23.7389 17.1495C24.0889 17.4939 24.0889 18.0606 23.7389 18.4051C23.3944 18.7551 22.8278 18.7551 22.4833 18.4051L19.5056 15.4773L16.6278 18.4051C16.2833 18.7551 15.7167 18.7551 15.3722 18.4051C15.0222 18.0606 15.0222 17.4939 15.3722 17.1495L18.3 14.2217L15.3722 11.2939C15.0222 10.9495 15.0222 10.3828 15.3722 10.0384C15.7167 9.68839 16.2833 9.68839 16.6278 10.0384L19.5056 12.9662L22.4833 10.0384C22.8278 9.68839 23.3944 9.68839 23.7389 10.0384C24.0889 10.3828 24.0889 10.9495 23.7389 11.2939ZM28.4444 3.55505C30.4056 3.55505 32 5.14672 32 7.11061V21.3328C32 23.2939 30.4056 24.8884 28.4444 24.8884H11.4056C10.4611 24.8884 9.55556 24.5162 8.88889 23.8495L0.520667 15.4773C0.187278 15.1439 0 14.6939 0 14.2217C0 13.7495 0.187333 13.2995 0.520667 12.9662L8.88889 4.59672C9.55556 3.9295 10.4611 3.55505 11.4056 3.55505H28.4444ZM30.2222 7.11061C30.2222 6.12728 29.4278 5.33283 28.4444 5.33283H11.4056C10.9333 5.33283 10.4778 5.52005 10.1444 5.85505L1.72778 14.2217L10.1444 22.5884C10.4778 22.9217 10.9333 23.1106 11.4056 23.1106H28.4444C29.4278 23.1106 30.2222 22.3162 30.2222 21.3328V7.11061Z" fill="#0F1938"/>
</g>
<defs>
<clipPath id="clip0_10955_7232">
<rect width="32" height="28.4444" fill="white"/>
</clipPath>
</defs>
</svg>
