<svg width="66" height="59" viewBox="0 0 66 59" fill="none" xmlns="http://www.w3.org/2000/svg">
<path d="M60.5 0H5.5C2.46354 0 0 2.47754 0 5.53125V42.4062C0 45.46 2.46354 47.9375 5.5 47.9375H27.5L25.6667 53.4688H17.4167C15.8927 53.4688 14.6667 54.7018 14.6667 56.2344C14.6667 57.767 15.8927 59 17.4167 59H48.5833C50.1073 59 51.3333 57.767 51.3333 56.2344C51.3333 54.7018 50.1073 53.4688 48.5833 53.4688H40.3333L38.5 47.9375H60.5C63.5365 47.9375 66 45.46 66 42.4062V5.53125C66 2.47754 63.5365 0 60.5 0ZM58.6667 40.5625H7.33333V7.375H58.6667V40.5625Z" fill="#8D9CAF"/>
</svg>
