<svg width="328" height="200" viewBox="0 0 328 200" fill="none" xmlns="http://www.w3.org/2000/svg">
<mask id="mask0_10350_54255" style="mask-type:alpha" maskUnits="userSpaceOnUse" x="0" y="0" width="312" height="200">
<rect width="312" height="200" fill="#C4C4C4"/>
</mask>
<g mask="url(#mask0_10350_54255)">
<g opacity="0.4">
<path d="M172.217 140.424C184.272 140.626 194.21 131.017 194.412 118.961C194.614 106.905 185.005 96.968 172.949 96.7657C160.893 96.5634 150.956 106.173 150.754 118.228C150.552 130.284 160.161 140.222 172.217 140.424Z" fill="#8D9CAF"/>
<path d="M177.053 106.761C181.228 107.369 184.593 111.013 183.767 116.687C182.94 122.36 178.675 124.893 174.5 124.284C170.9 123.76 170.893 120.532 171.935 119.18C172.475 119.515 172.803 119.783 173.739 119.92C176.186 120.276 178.443 118.918 178.872 115.974C179.301 113.029 177.526 111.084 175.078 110.727C175.078 110.727 172.785 110.32 171.175 112.285C170.915 109.534 173.489 106.242 177.053 106.761ZM163.128 130.182L166.686 105.764L171.365 106.446L167.807 130.864L163.128 130.182Z" fill="white"/>
</g>
<path d="M175.117 234.979C183.819 217.925 198.147 210.026 201.132 188.428C201.323 186.827 177.204 167.568 165.095 166.819C152.986 166.07 130.268 231.135 130.268 231.135L175.117 234.979Z" fill="white"/>
<path d="M198.632 182.799L151.942 179.049L139.438 194.262C138.439 205.408 136.343 228.066 135.954 229.532C135.565 230.998 155.073 232.939 164.876 233.726L173.704 227.886C177.113 223.274 184.764 213.058 188.09 209.084C191.416 205.11 194.029 200.517 194.92 198.718L197.959 189.606L198.632 182.799Z" fill="white"/>
<path d="M206.545 172.93L128.372 165.976L126.886 180.78L205.059 187.734L206.545 172.93Z" fill="#0F1938"/>
<path d="M166.363 180.333C168.253 180.499 169.944 179.076 170.139 177.156C170.335 175.236 168.962 173.546 167.072 173.38C165.182 173.215 163.492 174.637 163.296 176.557C163.1 178.477 164.474 180.168 166.363 180.333Z" fill="white"/>
<path d="M218.691 47.4895L141.73 40.577L140.824 49.6878L217.785 56.6003L218.691 47.4895Z" fill="#0F1938"/>
<path d="M110.322 228.677C115.385 214.891 121.589 161.012 118.489 148.257C125.26 144.109 153.195 126.342 157.394 123.466C160.774 126.259 156.994 146.648 144.229 154.514L143.6 160.7C149.894 161.253 157.148 183.61 149.511 205.907C145.422 215.609 153.323 232.455 153.323 232.455L110.322 228.677Z" fill="white"/>
<path d="M216.936 152.584C233.662 166.387 202.198 187.055 193.774 192.787C191.912 191.144 192.548 171.106 216.936 152.584Z" fill="white"/>
<path d="M211.473 141.037C191.302 151.024 186.534 176.112 188.817 177.812C195.909 175.683 224.127 149.396 225.466 136.261C225.769 133.287 217.878 126.92 216.015 125.944C214.969 125.415 216.316 123.69 212.061 127.006C211.716 130.639 210.747 137.393 211.473 141.037Z" fill="white"/>
<path d="M214.039 109.834C218.234 107.202 233.221 95.0135 234.883 93.1589C238.146 92.4446 242.151 108.546 212.095 128.914" fill="white"/>
<path d="M186.672 214.339C186.502 214.556 186.539 214.871 186.756 215.041C186.973 215.212 187.288 215.174 187.458 214.957L186.672 214.339ZM200.57 187.012C200.606 186.738 200.412 186.488 200.138 186.452C199.865 186.417 199.614 186.61 199.578 186.884L200.57 187.012ZM173.911 232.629C173.784 232.874 173.879 233.175 174.124 233.303C174.369 233.43 174.671 233.335 174.798 233.09L173.911 232.629ZM181.034 223.195C181.2 222.974 181.156 222.66 180.935 222.494C180.715 222.328 180.401 222.373 180.235 222.593L181.034 223.195ZM172.708 50.2754C172.433 50.2495 172.189 50.4513 172.163 50.7263C172.137 51.0012 172.339 51.2451 172.614 51.271L172.708 50.2754ZM184.249 52.369C184.524 52.3949 184.768 52.1931 184.794 51.9182C184.82 51.6432 184.618 51.3993 184.343 51.3734L184.249 52.369ZM148.933 164.723C148.812 164.475 148.513 164.371 148.264 164.492C148.016 164.613 147.913 164.913 148.034 165.161L148.933 164.723ZM148.833 204.192C148.744 204.453 148.884 204.738 149.145 204.827C149.406 204.916 149.691 204.776 149.78 204.515L148.833 204.192ZM152.269 124.301C152.036 124.448 151.966 124.757 152.113 124.991C152.261 125.224 152.57 125.294 152.803 125.146L152.269 124.301ZM156.565 122.141L156.88 121.753C156.71 121.615 156.47 121.604 156.287 121.725L156.565 122.141ZM143.455 153.019L143.198 152.59C143.062 152.671 142.972 152.813 142.957 152.972L143.455 153.019ZM142.534 157.46C142.508 157.735 142.71 157.979 142.985 158.005C143.26 158.031 143.504 157.829 143.53 157.554L142.534 157.46ZM120.909 143.732C120.673 143.876 120.598 144.183 120.742 144.419C120.886 144.655 121.194 144.73 121.429 144.586L120.909 143.732ZM144.936 130.082C145.17 129.936 145.242 129.628 145.096 129.393C144.95 129.159 144.642 129.087 144.408 129.233L144.936 130.082ZM119.092 154.147C119.094 153.871 118.871 153.646 118.595 153.644C118.319 153.643 118.094 153.865 118.092 154.142L119.092 154.147ZM199.758 186.329C199.982 186.169 200.035 185.857 199.874 185.632C199.714 185.407 199.401 185.355 199.177 185.515L199.758 186.329ZM192.538 190.646L192.259 191.061C192.427 191.174 192.647 191.174 192.815 191.062L192.538 190.646ZM201.475 166.3C201.645 166.083 201.607 165.769 201.39 165.598C201.172 165.428 200.858 165.466 200.688 165.684L201.475 166.3ZM215.919 150.395C215.705 150.22 215.39 150.253 215.216 150.467C215.041 150.681 215.073 150.996 215.287 151.17L215.919 150.395ZM211.268 175.559C211.072 175.753 211.071 176.07 211.266 176.266C211.46 176.462 211.777 176.463 211.973 176.269L211.268 175.559ZM214.86 123.704C214.615 123.576 214.313 123.672 214.186 123.916C214.058 124.161 214.153 124.463 214.398 124.591L214.86 123.704ZM224.289 134.507L223.791 134.46L224.289 134.507ZM218.769 145.664C218.614 145.893 218.674 146.204 218.903 146.359C219.132 146.513 219.443 146.453 219.597 146.225L218.769 145.664ZM208.575 159.473C208.767 159.274 208.762 158.958 208.563 158.765C208.365 158.573 208.048 158.579 207.856 158.777L208.575 159.473ZM187.583 175.6L187.287 176.002C187.412 176.094 187.572 176.123 187.721 176.081L187.583 175.6ZM210.389 139.595C210.638 139.475 210.743 139.177 210.623 138.928C210.503 138.679 210.204 138.574 209.956 138.694L210.389 139.595ZM223.345 117.733C223.549 117.547 223.564 117.231 223.379 117.027C223.193 116.822 222.877 116.807 222.672 116.993L223.345 117.733ZM210.569 126.347C210.338 126.498 210.273 126.807 210.424 127.039C210.575 127.27 210.885 127.335 211.116 127.184L210.569 126.347ZM212.374 107.339C212.139 107.483 212.065 107.791 212.209 108.027C212.353 108.262 212.661 108.336 212.897 108.192L212.374 107.339ZM233.586 91.3203L233.484 90.8307C233.381 90.8522 233.286 90.9059 233.215 90.9842L233.586 91.3203ZM229.01 110.23C228.839 110.447 228.876 110.761 229.092 110.933C229.309 111.104 229.623 111.067 229.795 110.85L229.01 110.23ZM113.637 229.531C113.51 229.776 113.605 230.078 113.85 230.205C114.095 230.333 114.397 230.237 114.524 229.992L113.637 229.531ZM114.892 204.883C114.915 204.608 114.71 204.367 114.435 204.344C114.16 204.321 113.918 204.526 113.896 204.801L114.892 204.883ZM187.458 214.957C193.445 207.341 198.959 199.477 200.57 187.012L199.578 186.884C198.003 199.074 192.629 206.762 186.672 214.339L187.458 214.957ZM174.798 233.09C176.601 229.625 178.686 226.315 181.034 223.195L180.235 222.593C177.854 225.758 175.739 229.115 173.911 232.629L174.798 233.09ZM172.614 51.271L184.249 52.369L184.343 51.3734L172.708 50.2754L172.614 51.271ZM148.034 165.161C151.948 173.202 154.102 188.735 148.833 204.192L149.78 204.515C155.13 188.819 152.968 173.012 148.933 164.723L148.034 165.161ZM152.803 125.146C154.69 123.953 156.115 123.043 156.843 122.557L156.287 121.725C155.572 122.203 154.158 123.107 152.269 124.301L152.803 125.146ZM156.25 122.529C156.559 122.781 156.845 123.282 157.041 124.078C157.233 124.862 157.323 125.87 157.295 127.053C157.239 129.417 156.714 132.414 155.678 135.577C153.603 141.912 149.516 148.802 143.198 152.59L143.712 153.447C150.311 149.491 154.511 142.352 156.628 135.888C157.689 132.651 158.236 129.557 158.295 127.077C158.324 125.838 158.232 124.736 158.012 123.84C157.795 122.956 157.437 122.206 156.88 121.753L156.25 122.529ZM142.957 152.972L142.534 157.46L143.53 157.554L143.953 153.065L142.957 152.972ZM121.429 144.586C127.381 140.959 137.096 134.959 144.936 130.082L144.408 129.233C136.569 134.109 126.857 140.107 120.909 143.732L121.429 144.586ZM199.177 185.515C196.361 187.526 193.888 189.143 192.26 190.23L192.815 191.062C194.436 189.98 196.926 188.351 199.758 186.329L199.177 185.515ZM192.817 190.231C192.359 189.923 191.988 189.116 191.946 187.668C191.904 186.259 192.181 184.389 192.832 182.184C194.135 177.781 196.91 172.124 201.475 166.3L200.688 165.684C196.055 171.594 193.216 177.362 191.873 181.901C191.203 184.167 190.9 186.148 190.946 187.697C190.99 189.207 191.373 190.466 192.259 191.061L192.817 190.231ZM215.287 151.17C217.562 153.023 218.919 154.969 219.577 156.949C220.235 158.929 220.208 160.982 219.651 163.071C218.531 167.272 215.281 171.577 211.268 175.559L211.973 176.269C216.02 172.253 219.427 167.793 220.617 163.329C221.215 161.085 221.256 158.83 220.526 156.634C219.797 154.439 218.311 152.343 215.919 150.395L215.287 151.17ZM214.398 124.591C215.285 125.053 217.73 126.865 219.931 128.95C221.026 129.988 222.04 131.073 222.758 132.07C223.118 132.569 223.394 133.033 223.572 133.448C223.752 133.868 223.815 134.204 223.791 134.46L224.787 134.554C224.832 134.069 224.706 133.557 224.492 133.055C224.275 132.55 223.955 132.02 223.57 131.485C222.799 130.417 221.736 129.283 220.619 128.224C218.394 126.117 215.87 124.23 214.86 123.704L214.398 124.591ZM223.791 134.46C223.501 137.536 221.62 141.452 218.769 145.664L219.597 146.225C222.468 141.985 224.472 137.893 224.787 134.554L223.791 134.46ZM207.856 158.777C203.799 162.968 199.553 166.815 195.879 169.739C194.042 171.202 192.353 172.429 190.906 173.353C189.449 174.283 188.27 174.883 187.445 175.119L187.721 176.081C188.69 175.803 189.969 175.137 191.444 174.196C192.929 173.248 194.647 171.998 196.502 170.522C200.212 167.568 204.49 163.692 208.575 159.473L207.856 158.777ZM187.88 175.197C187.859 175.182 187.783 175.103 187.707 174.864C187.634 174.636 187.579 174.319 187.552 173.91C187.498 173.093 187.561 171.978 187.768 170.633C188.182 167.946 189.16 164.402 190.842 160.601C194.209 152.995 200.368 144.42 210.389 139.595L209.956 138.694C199.656 143.652 193.357 152.448 189.928 160.196C188.213 164.071 187.208 167.7 186.78 170.481C186.566 171.869 186.493 173.062 186.554 173.976C186.584 174.432 186.648 174.836 186.754 175.168C186.856 175.487 187.017 175.804 187.287 176.002L187.88 175.197ZM222.672 116.993C218.891 120.426 214.844 123.554 210.569 126.347L211.116 127.184C215.436 124.362 219.525 121.202 223.345 117.733L222.672 116.993ZM212.897 108.192C215.039 106.879 219.885 103.206 224.38 99.6522C226.633 97.8711 228.807 96.1127 230.523 94.6839C232.225 93.2676 233.511 92.1469 233.956 91.6563L233.215 90.9842C232.828 91.4109 231.607 92.4809 229.884 93.9154C228.175 95.3376 226.008 97.0905 223.76 98.8677C219.252 102.431 214.455 106.063 212.374 107.339L212.897 108.192ZM233.687 91.8098C233.936 91.7582 234.373 91.9038 234.781 92.6918C235.173 93.4494 235.444 94.6675 235.36 96.3042C235.192 99.5671 233.617 104.397 229.01 110.23L229.795 110.85C234.494 104.9 236.177 99.8778 236.358 96.3555C236.449 94.5996 236.166 93.1918 235.669 92.2323C235.189 91.3031 234.402 90.6402 233.484 90.8307L233.687 91.8098ZM134.102 130.64L141.034 57.1603L140.039 57.0664L133.107 130.546L134.102 130.64ZM211.964 103.013L215.626 64.1992L214.63 64.1052L210.968 102.919L211.964 103.013ZM116.821 181.582C118.931 167.064 119.027 166.55 119.092 154.147L118.092 154.142C118.028 166.486 117.937 166.952 115.831 181.438L116.821 181.582ZM114.524 229.992C114.79 229.482 114.968 228.772 115.094 227.952C115.221 227.123 115.299 226.14 115.342 225.058C115.427 222.896 115.374 220.302 115.276 217.688C115.178 215.081 115.034 212.417 114.94 210.152C114.845 207.867 114.801 205.989 114.892 204.883L113.896 204.801C113.798 205.98 113.847 207.924 113.941 210.194C114.036 212.485 114.178 215.111 114.276 217.726C114.374 220.334 114.426 222.896 114.342 225.019C114.3 226.08 114.224 227.022 114.105 227.801C113.985 228.589 113.825 229.169 113.637 229.531L114.524 229.992Z" fill="#171D28"/>
<path fill-rule="evenodd" clip-rule="evenodd" d="M116.633 99.3691C116.235 94.7311 120.849 94.1224 122.164 97.5946C123.488 102.614 117.769 103.809 116.633 99.3691ZM115.357 102.084C121.86 108.231 126.431 100.662 123.635 96.6188C120.561 92.2874 110.125 92.352 115.357 102.084Z" fill="#8D9CAF"/>
<path fill-rule="evenodd" clip-rule="evenodd" d="M270.352 31.0884C269.493 31.7244 268.858 31.1972 268.047 30.7581C267.56 30.4941 266.034 29.2868 265.499 29.4177C264.88 29.5691 264.473 30.8081 264.181 31.313C263.673 32.1923 263.162 33.0756 262.537 33.8774C262.26 34.2332 261.513 35.57 261.095 35.7619C260.856 35.8718 260.682 35.8935 260.44 35.7216C260.014 35.4197 260.323 35.1828 260.528 34.7096C261.465 32.5475 262.526 30.4317 263.937 28.5413C262.727 27.675 261.47 26.8924 260.206 26.1088C259.835 25.8793 258.953 25.5483 259.005 24.9844C259.068 24.2969 259.953 24.4746 260.421 24.6201C261.103 24.8322 261.768 25.3561 262.381 25.7169C262.886 26.0147 263.884 26.8951 264.461 26.9347C264.858 26.9623 264.882 26.7174 265.124 26.3233C265.352 25.9509 265.58 25.5781 265.81 25.2063C266.178 24.6102 266.547 24.0169 266.955 23.4473C267.179 23.1347 267.508 22.451 267.875 22.2678C268.087 22.1615 268.777 22.1388 268.919 22.3598C269.254 22.8768 267.51 25.476 267.23 26.0272C267.044 26.3928 266.883 26.7655 266.668 27.1128C266.586 27.2442 266.34 27.3685 266.3 27.5207C266.129 28.1674 266.613 28.3238 267.1 28.6386C268.233 29.37 269.381 30.147 270.352 31.0884Z" fill="#8D9CAF"/>
<path fill-rule="evenodd" clip-rule="evenodd" d="M240.107 69.8878C239.557 70.2968 239.15 69.9584 238.63 69.6765C238.319 69.5071 237.341 68.7321 236.998 68.8164C236.602 68.9139 236.341 69.7101 236.154 70.0347C235.827 70.5998 235.5 71.1675 235.099 71.6829C234.921 71.9116 234.442 72.7708 234.175 72.8943C234.021 72.965 233.91 72.979 233.755 72.8687C233.482 72.6749 233.68 72.5225 233.812 72.2184C234.413 70.8289 235.094 69.4691 235.999 68.2539C235.224 67.6978 234.418 67.1955 233.609 66.6926C233.371 66.5452 232.807 66.3329 232.84 65.9706C232.88 65.5289 233.448 65.6427 233.747 65.736C234.184 65.872 234.61 66.2083 235.002 66.4398C235.326 66.631 235.965 67.1963 236.335 67.2215C236.589 67.239 236.604 67.0817 236.76 66.8284C236.906 66.589 237.052 66.3494 237.199 66.1104C237.436 65.7273 237.672 65.346 237.934 64.9798C238.078 64.7789 238.289 64.3395 238.524 64.2216C238.66 64.1532 239.102 64.1383 239.193 64.2803C239.407 64.6124 238.288 66.283 238.109 66.6373C237.99 66.8722 237.886 67.1118 237.748 67.335C237.696 67.4195 237.539 67.4994 237.513 67.5972C237.403 68.0128 237.713 68.1131 238.025 68.3151C238.75 68.7846 239.486 69.2834 240.107 69.8878Z" fill="#8D9CAF"/>
<path fill-rule="evenodd" clip-rule="evenodd" d="M275.869 70.8733C276.226 68.1191 278.993 68.3505 279.318 70.5416C279.452 73.6355 275.967 73.6059 275.869 70.8733ZM274.78 72.2938C277.79 76.7033 281.416 72.8717 280.3 70.1597C279.058 67.2441 272.966 65.956 274.78 72.2938Z" fill="#8D9CAF"/>
<circle cx="78.6267" cy="42.9595" r="38.5" transform="rotate(-7 78.6267 42.9595)" fill="#8D9CAF"/>
<g clip-path="url(#clip0_10350_54255)">
<path d="M101.929 53.8744L91.9235 48.6519L90.2966 35.4026L98.741 27.9061C100.383 26.457 102.988 27.4189 103.25 29.5569L105.905 51.1817C106.169 53.3282 103.865 54.8842 101.929 53.8744Z" fill="white"/>
<path d="M57.5959 58.4652L54.6151 34.1889C54.4841 33.1218 54.7824 32.0463 55.4443 31.1991C56.1062 30.3518 57.0776 29.8023 58.1447 29.6712L82.4211 26.6905C82.9494 26.6256 83.4854 26.6654 83.9984 26.8077C84.5114 26.95 84.9914 27.1919 85.4109 27.5196C85.8304 27.8474 86.1812 28.2546 86.4434 28.7179C86.7055 29.1812 86.8738 29.6917 86.9387 30.2201L89.9195 54.4964C89.9843 55.0248 89.9445 55.5608 89.8022 56.0738C89.66 56.5868 89.4181 57.0667 89.0903 57.4862C88.7626 57.9057 88.3554 58.2566 87.8921 58.5187C87.4287 58.7809 86.9183 58.9492 86.3899 59.014L62.1135 61.9948C61.0464 62.1258 59.9709 61.8276 59.1237 61.1657C58.2765 60.5037 57.7269 59.5324 57.5959 58.4652V58.4652Z" fill="white"/>
</g>
<circle cx="149.189" cy="30.2358" r="23.5" transform="rotate(5 149.189 30.2358)" fill="#8D9CAF"/>
<path d="M143.445 29.6866L144.296 19.9608C144.432 18.4132 145.176 16.9827 146.366 15.984C147.556 14.9854 149.094 14.5004 150.641 14.6358C152.188 14.7712 153.619 15.5158 154.617 16.7059C155.615 17.896 156.1 19.4341 155.965 20.9817L155.114 30.7075C154.979 32.2552 154.234 33.6857 153.044 34.6843C151.854 35.683 150.316 36.1679 148.769 36.0326C147.222 35.8972 145.791 35.1525 144.793 33.9625C143.795 32.7724 143.31 31.2343 143.445 29.6866Z" fill="white"/>
<path d="M159.978 31.1363C159.505 36.5402 155.085 40.6598 149.814 40.9189L149.634 42.9717L153.038 43.2694C153.296 43.292 153.534 43.4161 153.7 43.6144C153.867 43.8128 153.948 44.0691 153.925 44.3271L153.84 45.2997C153.817 45.5576 153.693 45.796 153.495 45.9625C153.297 46.1289 153.04 46.2097 152.782 46.1872L143.058 45.3364C142.8 45.3139 142.562 45.1898 142.396 44.9914C142.229 44.7931 142.149 44.5367 142.171 44.2788L142.256 43.3062C142.279 43.0483 142.403 42.8098 142.601 42.6434C142.799 42.477 143.056 42.3961 143.314 42.4187L146.717 42.7165L146.899 40.6406C141.615 39.4348 138.15 34.237 138.627 28.7881L138.841 26.347C138.863 26.089 138.987 25.8506 139.186 25.6842C139.384 25.5177 139.64 25.4369 139.898 25.4595L140.871 25.5445C141.128 25.5671 141.367 25.6912 141.533 25.8896C141.7 26.0879 141.78 26.3442 141.758 26.6022L141.533 29.1734C141.178 33.2346 143.82 37.1274 147.827 37.8755C148.899 38.0773 150.002 38.0525 151.064 37.8026C152.126 37.5527 153.124 37.0832 153.993 36.4245C154.863 35.7657 155.585 34.9321 156.114 33.9774C156.642 33.0227 156.965 31.968 157.061 30.8811L157.316 27.9634C157.339 27.7054 157.463 27.467 157.661 27.3006C157.86 27.1341 158.116 27.0533 158.374 27.0759L159.346 27.1609C159.604 27.1835 159.842 27.3076 160.009 27.506C160.175 27.7043 160.256 27.9606 160.233 28.2186L159.978 31.1363Z" fill="white"/>
<circle cx="139.503" cy="75.5202" r="20" transform="rotate(5 139.503 75.5202)" fill="#8D9CAF"/>
<g clip-path="url(#clip1_10350_54255)">
<path d="M151.258 67.6C148.559 64.8615 144.185 64.9285 141.268 67.4549L140.126 68.443L139.173 67.2716C136.744 64.2775 132.443 63.4515 129.31 65.6799C125.722 68.2387 125.098 73.3407 127.817 76.692L137.18 88.2192C137.321 88.3956 137.497 88.5415 137.696 88.6481C137.895 88.7548 138.114 88.8199 138.339 88.8396C138.564 88.8593 138.791 88.8331 139.006 88.7627C139.22 88.6923 139.419 88.5791 139.588 88.4299L150.81 78.7036C154.076 75.8759 154.347 70.7431 151.258 67.6ZM147.588 77.1944L139.307 84.1798C139.225 84.2493 139.13 84.3019 139.027 84.3344C138.925 84.367 138.817 84.3789 138.709 84.3695C138.602 84.3602 138.498 84.3296 138.402 84.2797C138.307 84.2298 138.222 84.1616 138.153 84.0788L131.362 75.9393C129.986 74.2903 129.914 71.7929 131.411 70.25C131.809 69.8361 132.289 69.5109 132.821 69.2954C133.354 69.0799 133.925 68.9791 134.499 68.9996C135.072 69.02 135.635 69.1613 136.151 69.4141C136.666 69.6669 137.122 70.0255 137.49 70.4667L139.697 73.1091L142.148 71.0415C143.791 69.6566 146.277 69.5804 147.81 71.0839C148.222 71.4863 148.545 71.9702 148.759 72.5048C148.973 73.0394 149.072 73.6127 149.051 74.188C149.031 74.7634 148.89 75.328 148.638 75.8456C148.386 76.3632 148.028 76.8225 147.588 77.1938L147.588 77.1944Z" fill="white"/>
<path d="M138.152 84.0789L131.361 75.9394C129.984 74.2904 129.913 71.7929 131.41 70.2501C131.808 69.8363 132.289 69.511 132.821 69.2955C133.353 69.0801 133.924 68.9793 134.498 68.9997C135.072 69.0202 135.634 69.1614 136.15 69.4142C136.665 69.667 137.121 70.0256 137.489 70.4668L139.695 73.1092L142.147 71.0416C143.789 69.6572 146.276 69.5805 147.809 71.084C148.221 71.4862 148.545 71.9701 148.758 72.5046C148.972 73.0391 149.072 73.6124 149.051 74.1877C149.031 74.7631 148.89 75.3278 148.638 75.8455C148.386 76.3632 148.029 76.8226 147.589 77.1941L139.306 84.1798C139.224 84.2493 139.128 84.3019 139.026 84.3344C138.923 84.367 138.815 84.3789 138.708 84.3696C138.601 84.3602 138.496 84.3297 138.401 84.2798C138.306 84.2299 138.221 84.1616 138.152 84.0789Z" fill="white"/>
</g>
<circle cx="178.722" cy="68.7248" r="13.5" transform="rotate(5 178.722 68.7248)" fill="#8D9CAF"/>
<path d="M187.84 64.4951L183.121 66.2293L182.196 75.8104L186.953 74.3101C187.154 74.2464 187.334 74.1232 187.469 73.9563C187.603 73.7893 187.686 73.5864 187.706 73.3736L188.51 65.0454C188.518 64.9584 188.505 64.8712 188.473 64.7913C188.44 64.7113 188.388 64.6412 188.322 64.5869C188.256 64.5326 188.177 64.4958 188.093 64.4798C188.009 64.4638 187.922 64.469 187.84 64.4951ZM170.194 64.9414C169.993 65.0049 169.813 65.1279 169.679 65.2945C169.545 65.4611 169.462 65.6637 169.441 65.8761L168.637 74.2044C168.629 74.2914 168.642 74.3787 168.674 74.4587C168.707 74.5387 168.759 74.609 168.825 74.6634C168.891 74.7177 168.969 74.7546 169.054 74.7706C169.138 74.7866 169.225 74.7814 169.307 74.7554L174.026 73.0205L174.774 65.2665C174.548 64.7509 174.365 64.2159 174.228 63.6673L170.194 64.9414ZM178.498 70.4123C178.27 70.3942 178.05 70.3258 177.853 70.2118C177.656 70.0979 177.487 69.9411 177.358 69.7526C176.789 68.9313 176.189 67.9984 175.657 67.0484L175.073 73.1031L181.149 75.7278L181.939 67.5439C181.233 68.3963 180.465 69.2216 179.746 69.9427C179.583 70.1078 179.386 70.2353 179.17 70.3164C178.955 70.3975 178.725 70.4303 178.498 70.4123Z" fill="white"/>
<path d="M179.674 58.5553C178.589 58.4699 177.507 58.826 176.665 59.5454C175.823 60.2647 175.29 61.2883 175.183 62.391C175.004 64.2475 177.349 67.8416 178.254 69.1497C178.297 69.2119 178.352 69.2637 178.417 69.3013C178.482 69.3389 178.554 69.3614 178.629 69.3673C178.704 69.3732 178.779 69.3623 178.85 69.3354C178.921 69.3085 178.986 69.2662 179.04 69.2116C180.182 68.0647 183.181 64.8915 183.361 63.035C183.467 61.9323 183.139 60.8408 182.447 60.0007C181.756 59.1606 180.758 58.6407 179.674 58.5553V58.5553ZM179.138 64.0989C178.868 64.0777 178.613 63.9757 178.403 63.8057C178.194 63.6358 178.04 63.4056 177.962 63.1442C177.883 62.8829 177.883 62.6021 177.961 62.3374C178.04 62.0727 178.194 61.8359 178.403 61.6571C178.612 61.4783 178.868 61.3654 179.137 61.3328C179.407 61.3001 179.678 61.3492 179.917 61.4737C180.156 61.5982 180.352 61.7926 180.48 62.0323C180.607 62.272 180.661 62.5462 180.635 62.8203C180.599 63.1879 180.422 63.5291 180.141 63.7689C179.86 64.0087 179.5 64.1274 179.138 64.0989Z" fill="white"/>
<circle cx="190.982" cy="99.0515" r="10" transform="rotate(5 190.982 99.0515)" fill="#8D9CAF"/>
<path d="M192.306 100.551L187.878 100.164L185.819 101.446C185.783 101.469 185.741 101.48 185.699 101.48C185.657 101.48 185.615 101.469 185.58 101.446C185.544 101.424 185.515 101.392 185.496 101.355C185.477 101.317 185.469 101.274 185.473 101.232L185.584 99.9654C185.188 99.9303 184.822 99.7394 184.566 99.4344C184.311 99.1294 184.186 98.7353 184.221 98.3386L184.548 94.5986C184.583 94.2019 184.774 93.8354 185.078 93.5794C185.383 93.3235 185.776 93.199 186.173 93.2332L192.895 93.8214C193.291 93.8564 193.657 94.0473 193.912 94.3523C194.168 94.6573 194.292 95.0514 194.258 95.4481L193.931 99.1881C193.913 99.3845 193.858 99.5755 193.767 99.7503C193.676 99.9251 193.551 100.08 193.4 100.207C193.249 100.333 193.075 100.429 192.887 100.488C192.7 100.547 192.502 100.569 192.306 100.551Z" fill="white"/>
<path d="M197.702 99.5484L197.375 103.287C197.34 103.684 197.148 104.05 196.842 104.306C196.535 104.562 196.139 104.686 195.74 104.651L194.988 104.586L194.877 105.855C194.874 105.897 194.858 105.937 194.833 105.971C194.808 106.005 194.773 106.031 194.734 106.047C194.694 106.062 194.651 106.067 194.609 106.059C194.568 106.052 194.529 106.033 194.497 106.005L192.678 104.384L189.724 104.125C189.325 104.09 188.957 103.899 188.699 103.594C188.442 103.289 188.316 102.894 188.351 102.498L188.481 101.002L192.242 101.331C192.84 101.383 193.434 101.196 193.894 100.813C194.353 100.429 194.641 99.8799 194.694 99.2853L194.825 97.7897L196.329 97.9213C196.728 97.9565 197.096 98.1477 197.354 98.4527C197.611 98.7578 197.737 99.1519 197.702 99.5484Z" fill="white"/>
</g>
<defs>
<clipPath id="clip0_10350_54255">
<rect width="48.8495" height="43.4217" fill="white" transform="translate(53.4561 24.7786) rotate(-7)"/>
</clipPath>
<clipPath id="clip1_10350_54255">
<rect width="27.3371" height="27.3371" fill="white" transform="translate(126.957 62.1173) rotate(5)"/>
</clipPath>
</defs>
</svg>
