<svg width="47" height="38" viewBox="0 0 47 38" fill="none" xmlns="http://www.w3.org/2000/svg">
<g opacity="0.5">
<path d="M14.1 23.75C15.98 25.175 19.74 28.5 23.5 28.5C27.26 28.5 31.02 25.175 32.9 23.75C42.3 17.1 45.12 14.725 47 13.3V33.25C47 35.8729 44.8953 38 42.3 38H4.7C2.10472 38 0 35.8729 0 33.25V13.3C1.88 14.725 4.7 17.1 14.1 23.75Z" fill="#0F1938"/>
<path d="M4.7 0H42.3C44.8953 0 47 2.12711 47 4.75V7.6C43.24 10.45 43.71 10.45 30.08 20.425C28.67 20.9 25.85 23.75 23.5 23.75C21.15 23.75 18.33 20.9 16.92 19.95C3.29 9.975 3.76 9.975 0 7.125V4.75C0 2.12711 2.10472 0 4.7 0Z" fill="#0F1938"/>
</g>
</svg>
