<svg width="328" height="200" viewBox="0 0 328 200" fill="none" xmlns="http://www.w3.org/2000/svg">
<mask id="mask0_10350_54164" style="mask-type:alpha" maskUnits="userSpaceOnUse" x="0" y="0" width="328" height="200">
<rect width="328" height="200" fill="#C4C4C4"/>
</mask>
<g mask="url(#mask0_10350_54164)">
<path d="M165.947 99.833C153.096 99.833 142.678 89.4457 142.678 76.6323C142.678 63.8188 153.096 53.4311 165.947 53.4311C166.725 53.4311 167.494 53.4728 168.253 53.5472C168.253 53.5079 168.246 53.4704 168.246 53.4311C168.246 37.6175 181.103 24.7978 196.963 24.7978C200.323 24.7978 203.535 25.4034 206.532 26.4605C212.34 15.1241 224.158 7.35742 237.802 7.35742C257.088 7.35742 272.735 22.8663 272.898 42.0582C274.452 41.8029 276.036 41.6369 277.662 41.6369C293.779 41.6369 306.845 54.6648 306.845 70.7347C306.845 86.8055 293.779 99.833 277.662 99.833H165.947Z" fill="#CBD5E0"/>
<path d="M161.667 103.495C147.81 103.495 136.576 90.7592 136.576 76.9308C136.576 64.5047 145.468 53.2265 157.326 51.0669M164.649 49.017C164.649 31.9508 178.01 20.9906 195.112 20.9906M238.494 4C259.29 4 276.817 18.9061 276.992 39.6182M281.597 103.495H263.32M168.006 103.495H185.765" stroke="#8D9CAF"/>
<path fill-rule="evenodd" clip-rule="evenodd" d="M99.6422 66.8967C99.4337 67.4944 98.9474 67.4465 98.4042 67.5003C98.0781 67.5324 96.9295 67.4465 96.711 67.6887C96.4585 67.9687 96.6717 68.7125 96.6967 69.0576C96.7402 69.6587 96.7839 70.2624 96.745 70.8639C96.7276 71.1309 96.8066 72.0359 96.666 72.269C96.5854 72.4026 96.5075 72.471 96.3318 72.4671C96.0232 72.4601 96.0956 72.241 96.0385 71.9404C95.7778 70.5668 95.5933 69.1748 95.6553 67.7769C94.7747 67.7536 93.8988 67.787 93.0194 67.8221C92.7617 67.8324 92.2199 67.9629 92.0575 67.6688C91.8596 67.3101 92.3523 67.103 92.6295 67.0192C93.0342 66.8965 93.5338 66.933 93.9536 66.9067C94.3001 66.885 95.0813 66.9861 95.3771 66.8136C95.5808 66.6951 95.5109 66.567 95.4981 66.293C95.486 66.0342 95.4734 65.7754 95.4622 65.5163C95.4444 65.1009 95.4275 64.6869 95.4378 64.2714C95.4435 64.0434 95.3771 63.5981 95.4956 63.3863C95.5642 63.2635 95.8941 63.0231 96.0376 63.0843C96.3733 63.2271 96.3841 65.0838 96.4306 65.4475C96.4613 65.6889 96.5063 65.9256 96.5164 66.1678C96.5201 66.2596 96.4413 66.4022 96.4722 66.4904C96.6037 66.8649 96.8924 66.7811 97.2356 66.7737C98.0334 66.7567 98.8542 66.7566 99.6422 66.8967Z" fill="#8D9CAF"/>
<path fill-rule="evenodd" clip-rule="evenodd" d="M143.69 134.666C143.392 133.143 142.722 131.754 141.053 131.51C139.537 131.288 138.134 132.347 137.424 133.648C136.656 135.055 136.528 136.818 137.379 138.22C138.275 139.696 140.071 140.03 141.48 139.132C143.052 138.13 143.516 136.451 143.69 134.666ZM144.418 135.644C144.159 137.458 142.9 139.141 141.205 139.752C139.458 140.381 137.537 139.803 136.58 138.136C134.645 134.767 137.869 130.264 141.576 131.077C142.517 131.283 143.245 131.87 143.796 132.666C144.405 133.545 144.421 134.609 144.418 135.644Z" fill="#8D9CAF"/>
<path fill-rule="evenodd" clip-rule="evenodd" d="M202.223 98.4665C201.925 96.9438 201.256 95.5543 199.587 95.3104C198.07 95.0887 196.667 96.148 195.957 97.4489C195.189 98.8558 195.061 100.619 195.912 102.021C196.809 103.496 198.604 103.831 200.013 102.933C201.585 101.931 202.049 100.252 202.223 98.4665ZM202.951 99.4451C202.692 101.258 201.433 102.942 199.738 103.552C197.991 104.182 196.07 103.603 195.113 101.936C193.178 98.5673 196.403 94.0645 200.109 94.8776C201.05 95.0841 201.779 95.6704 202.33 96.4669C202.938 97.3462 202.954 98.4096 202.951 99.4451Z" fill="#8D9CAF"/>
<path fill-rule="evenodd" clip-rule="evenodd" d="M200.38 133.055C199.818 133.655 199.238 133.367 198.535 133.17C198.114 133.052 196.73 132.404 196.336 132.583C195.88 132.79 195.768 133.761 195.624 134.177C195.373 134.901 195.121 135.628 194.768 136.313C194.611 136.617 194.25 137.713 193.957 137.918C193.789 138.036 193.658 138.079 193.441 137.99C193.061 137.835 193.262 137.613 193.344 137.234C193.717 135.504 194.193 133.787 194.979 132.182C193.897 131.734 192.791 131.355 191.681 130.977C191.355 130.866 190.616 130.76 190.563 130.338C190.499 129.824 191.216 129.817 191.603 129.852C192.168 129.901 192.771 130.182 193.306 130.352C193.747 130.492 194.667 130.983 195.122 130.923C195.435 130.881 195.413 130.698 195.536 130.371C195.652 130.063 195.768 129.754 195.885 129.446C196.074 128.951 196.263 128.459 196.486 127.978C196.609 127.714 196.752 127.162 197.007 126.971C197.154 126.86 197.686 126.736 197.834 126.876C198.178 127.203 197.25 129.38 197.124 129.828C197.039 130.124 196.975 130.423 196.865 130.711C196.823 130.82 196.653 130.949 196.647 131.067C196.62 131.568 197.021 131.608 197.452 131.763C198.452 132.124 199.472 132.515 200.38 133.055Z" fill="#8D9CAF"/>
<path fill-rule="evenodd" clip-rule="evenodd" d="M168.793 123.642C168.639 121.79 170.569 121.559 171.11 122.948C171.65 124.954 169.257 125.417 168.793 123.642ZM168.253 124.722C170.956 127.191 172.886 124.182 171.728 122.562C170.454 120.826 166.091 120.826 168.253 124.722Z" fill="#8D9CAF"/>
<path fill-rule="evenodd" clip-rule="evenodd" d="M256.045 114.828C255.747 115.16 255.439 115.001 255.066 114.892C254.843 114.827 254.108 114.468 253.899 114.567C253.657 114.681 253.598 115.219 253.521 115.449C253.388 115.85 253.255 116.252 253.067 116.631C252.984 116.8 252.792 117.407 252.637 117.52C252.548 117.586 252.478 117.609 252.363 117.56C252.162 117.474 252.268 117.351 252.312 117.142C252.509 116.184 252.762 115.234 253.179 114.345C252.605 114.097 252.018 113.887 251.429 113.678C251.256 113.616 250.864 113.558 250.836 113.324C250.802 113.04 251.183 113.036 251.388 113.055C251.688 113.082 252.007 113.238 252.291 113.332C252.526 113.409 253.013 113.681 253.255 113.648C253.421 113.625 253.409 113.523 253.475 113.343C253.536 113.172 253.598 113.001 253.66 112.83C253.76 112.557 253.86 112.284 253.979 112.018C254.044 111.872 254.12 111.566 254.255 111.46C254.333 111.399 254.616 111.33 254.694 111.408C254.877 111.589 254.384 112.794 254.317 113.042C254.272 113.206 254.238 113.371 254.18 113.531C254.158 113.591 254.067 113.662 254.064 113.728C254.05 114.005 254.263 114.027 254.491 114.113C255.022 114.313 255.563 114.529 256.045 114.828Z" fill="#8D9CAF"/>
<path fill-rule="evenodd" clip-rule="evenodd" d="M195.209 56.7789C194.681 57.3784 194.137 57.0903 193.477 56.8941C193.082 56.7759 191.783 56.1273 191.412 56.3063C190.984 56.5132 190.879 57.485 190.744 57.9005C190.509 58.6243 190.272 59.3513 189.94 60.0362C189.793 60.3401 189.454 61.4364 189.179 61.6419C189.022 61.7596 188.898 61.8025 188.695 61.714C188.339 61.5586 188.527 61.3369 188.604 60.9581C188.954 59.2271 189.401 57.5109 190.139 55.9056C189.123 55.458 188.085 55.079 187.042 54.7004C186.737 54.5895 186.042 54.4835 185.993 54.062C185.933 53.548 186.606 53.541 186.97 53.5753C187.5 53.6249 188.066 53.906 188.568 54.0757C188.982 54.2157 189.846 54.7067 190.273 54.6461C190.567 54.6048 190.546 54.4215 190.662 54.095C190.771 53.7865 190.879 53.4778 190.99 53.1694C191.167 52.6751 191.344 52.1828 191.554 51.7017C191.669 51.4377 191.804 50.8853 192.043 50.6941C192.181 50.5832 192.68 50.4596 192.819 50.5996C193.142 50.9269 192.271 53.1036 192.152 53.5512C192.073 53.8481 192.013 54.1465 191.909 54.4346C191.87 54.5437 191.71 54.6728 191.704 54.7907C191.679 55.2915 192.056 55.3312 192.46 55.4865C193.399 55.8473 194.356 56.2389 195.209 56.7789Z" fill="#8D9CAF"/>
<path fill-rule="evenodd" clip-rule="evenodd" d="M220 105.471C220.734 106.285 221.492 105.894 222.409 105.627C222.96 105.467 224.767 104.587 225.282 104.83C225.878 105.11 226.024 106.429 226.212 106.993C226.54 107.975 226.869 108.962 227.33 109.892C227.535 110.304 228.006 111.792 228.389 112.071C228.608 112.231 228.78 112.289 229.063 112.169C229.559 111.958 229.296 111.657 229.19 111.143C228.703 108.794 228.081 106.464 227.054 104.286C228.468 103.678 229.912 103.164 231.362 102.65C231.788 102.5 232.753 102.356 232.822 101.784C232.906 101.086 231.969 101.077 231.464 101.123C230.726 101.191 229.939 101.572 229.24 101.802C228.663 101.992 227.462 102.659 226.868 102.577C226.459 102.52 226.487 102.272 226.326 101.829C226.175 101.41 226.024 100.991 225.87 100.572C225.624 99.9016 225.377 99.2335 225.085 98.5806C224.925 98.2223 224.738 97.4725 224.406 97.2131C224.213 97.0626 223.518 96.8948 223.326 97.0848C222.875 97.5289 224.088 100.483 224.253 101.091C224.363 101.493 224.447 101.898 224.591 102.289C224.646 102.437 224.868 102.613 224.876 102.773C224.911 103.452 224.387 103.506 223.825 103.717C222.519 104.207 221.186 104.738 220 105.471Z" fill="#8D9CAF"/>
<path d="M58.7771 172.525C58.6842 174.58 55.2114 206.693 53.3604 212.247C59.5604 211.428 126.363 256.474 103.983 175.479C103.175 169.983 61.7467 171.954 58.7771 172.525Z" fill="#171D28"/>
<path d="M157.584 145.555C163.026 144.014 162.098 140.525 159.999 140.922C159.297 141.056 159.198 140.81 157.584 140.922C156.914 140.358 153.33 138.748 152.952 138.73C151.48 138.658 147.475 145.416 146.774 145.555C146.073 145.694 122.582 151.805 121.522 151.91C114.758 152.582 111.615 139.012 112.285 137.318C97.7135 134.237 104.708 142.333 103.534 141.812C102.9 142.727 109.776 151.734 106.199 154.482C105.799 155.966 106.136 161.86 107.461 163.048C110.011 165.338 113.604 166.791 114.758 166.939C119.567 167.568 148.015 151.704 149.347 151.91C152.014 152.316 155.806 153.963 158.355 151.91C159.999 154.484 162.149 151.204 159.998 143.928" fill="white"/>
<path d="M107.632 78.4592C108.286 78.1519 109.236 76.0828 109.236 73.0167C109.236 65.3944 103.447 61.8209 94.188 61.8209C87.7235 61.8209 80.1048 64.2366 75.2483 73.3062C71.6212 80.0459 70.1453 94.9261 67.1186 100.279C65.2032 103.663 61.14 110.517 58.0204 116.964C56.8482 118.601 50.9555 131.087 59.9536 135.189C68.9518 139.291 110.737 137.605 111.848 135.843C112.96 134.081 106.713 121.499 104.658 118.951C102.604 116.403 99.6555 113.162 101.335 100.629C103.015 88.097 101.496 80.7106 102.936 80.1138C104.376 79.517 106.124 79.4813 107.632 78.4592Z" fill="#171D28"/>
<path d="M98.126 115.181C108.193 111.893 117.352 134.749 116.637 136.593C115.922 138.437 105.759 143.948 103.543 143.655C101.328 143.362 94.2165 116.449 98.126 115.174" fill="#CBD5E0"/>
<path d="M86.0086 109.467C114.5 110.135 107.303 173.769 105.995 176.042C104.234 179.1 67.7586 181.877 59.0606 173.343C57.0487 171.371 58.9605 108.834 86.0086 109.467Z" fill="#CBD5E0"/>
<mask id="mask1_10350_54164" style="mask-type:alpha" maskUnits="userSpaceOnUse" x="58" y="109" width="50" height="71">
<path d="M86.0086 109.467C114.5 110.135 107.303 173.769 105.995 176.042C104.234 179.1 67.7586 181.877 59.0606 173.343C57.0487 171.371 58.9605 108.834 86.0086 109.467Z" fill="#E2E8F0"/>
</mask>
<g mask="url(#mask1_10350_54164)">
</g>
<path d="M71.3035 111.4C82.335 114.827 75.7311 141.55 73.6227 142.604C71.5143 143.659 50.8522 137.755 50.4305 135.436C50.0088 133.117 57.2488 107.03 71.3035 111.4Z" fill="#CBD5E0"/>
<path d="M116.646 174.897C116.089 170.608 114.799 166.056 105.683 166.449C104.45 165.459 80.5071 158.669 66.07 154.924C67.7496 151.454 69.1551 143.828 69.2552 142.863C68.1831 142.663 52.3631 137.796 52.3631 137.796C52.3631 137.796 46.3012 162.507 47.7378 164.819C56.5894 170.458 89.7947 174.521 104.786 173.467C105.836 174.293 105.693 174.811 107.183 175.022C108.674 175.233 116.646 174.897 116.646 174.897Z" fill="white"/>
<path d="M84.4068 87.2288C84.4068 87.9999 84.1782 88.7537 83.7498 89.3948C83.3214 90.036 82.7125 90.5357 82.0001 90.8308C81.2877 91.1258 80.5038 91.203 79.7475 91.0526C78.9912 90.9022 78.2965 90.5309 77.7513 89.9856C77.206 89.4404 76.8347 88.7457 76.6843 87.9894C76.5339 87.2331 76.6111 86.4492 76.9061 85.7368C77.2012 85.0244 77.7009 84.4155 78.3421 83.9871C78.9832 83.5587 79.737 83.3301 80.5081 83.3301C81.5418 83.331 82.5329 83.7421 83.2639 84.473C83.9948 85.204 84.4059 86.1951 84.4068 87.2288Z" fill="white"/>
<path d="M105.233 71.4194C105.291 74.9572 80.6296 78.3056 80.4938 83.33C80.358 88.3544 80.2758 91.2561 80.2758 91.2561C81.1585 95.941 79.2466 112.504 78.707 114.234C80.7761 116.16 91.1536 116.021 92.2864 114.856C92.1399 113.691 92.1614 105.757 92.458 104.85C92.8939 104.908 93.3332 104.938 93.773 104.939C101.71 104.939 108.146 95.5729 108.146 84.0161C108.146 77.9768 108.046 76.3795 105.24 71.4087" fill="white"/>
<path d="M93.1074 81.3573C93.1074 82.1828 92.75 82.8546 92.2926 82.8546C91.8352 82.8546 91.4814 82.1828 91.4814 81.3573C91.4814 80.5318 91.8388 79.8564 92.2926 79.8564C92.7465 79.8564 93.1074 80.5283 93.1074 81.3573Z" fill="#171D28"/>
<path d="M103.312 81.9101C103.312 82.7355 102.954 83.4074 102.497 83.4074C102.039 83.4074 101.686 82.7355 101.686 81.9101C101.686 81.0846 102.043 80.4092 102.497 80.4092C102.951 80.4092 103.312 81.081 103.312 81.9101Z" fill="#171D28"/>
<path d="M57.6676 171.786C57.5747 173.841 56.0595 188.546 54.2084 194.1M97.0265 114.442C107.093 111.154 116.252 134.014 115.537 135.855M92.8438 110.938C93.8303 111.523 94.7502 112.214 95.6075 113M73.0498 112.241C74.2272 111.333 75.4806 110.581 76.8141 110.007M57.496 170.408C57.5979 171.642 57.757 172.413 57.9535 172.605C62.609 177.172 75.2221 178.5 86.2108 178.278M106.461 146.6C106.838 153.648 106.61 160.418 106.211 165.618M76.4001 124.434C76.3108 132.556 73.7021 141.272 72.5157 141.865C70.4073 142.92 49.7452 137.016 49.3235 134.697C49.1984 134.014 49.7345 131.284 50.9137 127.875M56.7242 116.475C60.1047 111.994 64.6145 108.924 70.1964 110.661C70.6482 110.8 71.0842 110.985 71.4971 111.215M113.061 138.077C113.693 139.789 115.687 149.22 115.759 148.934M120.765 164.629C119.808 165.286 116.163 166.605 112.736 166.605C110.949 166.605 107.15 163.031 106.461 161.67M103.816 96.5243C101.179 101.216 97.1731 104.211 92.6848 104.211C89.8259 104.211 87.1494 102.989 84.9052 100.884M104.134 70.6806C106.088 74.592 107.081 78.9126 107.032 83.2845C107.039 85.4901 106.799 87.6895 106.318 89.8419M81.5996 89.6846C81.0431 90.068 80.3963 90.2998 79.7229 90.3573C79.0496 90.4147 78.3728 90.2958 77.7594 90.0123C77.1459 89.7288 76.6169 89.2904 76.2243 88.7403C75.8318 88.1902 75.5892 87.5474 75.5206 86.8751C75.4519 86.2028 75.5596 85.5242 75.8328 84.9061C76.1061 84.288 76.5357 83.7518 77.0792 83.3501C77.6226 82.9485 78.2614 82.6953 78.9324 82.6154C79.6035 82.5356 80.2838 82.632 80.9063 82.8949M100.9 89.0949C101.037 89.364 101.205 89.6159 101.401 89.8453M100.103 84.4852C100.027 85.5828 100.127 86.6856 100.4 87.7514M91.4868 92.2381C91.6441 93.2887 92.8019 94.6538 94.4278 95.1791M91.1803 114.117C91.0338 112.952 91.0552 105.019 91.3518 104.111M78.6015 106.466C78.2441 109.986 77.8153 112.83 77.608 113.495C78.4299 114.26 80.5562 114.696 82.8968 114.874M79.1768 90.5208C79.5341 92.3398 79.4412 95.949 79.1768 99.787M100.668 62.1327C105.385 63.705 108.129 67.0391 108.129 72.2779C108.129 75.344 107.179 77.4131 106.521 77.7204M68.6277 91.7823C70.2429 85.2677 71.7045 77.0772 74.1345 72.5495C78.6907 64.0481 85.6698 61.3966 91.852 61.1143M56.9136 116.225C59.0577 111.79 61.6521 107.159 63.7033 103.603M99.9961 111.215C100.15 112.627 100.382 113.81 100.711 114.453M100.075 101.22C99.8138 102.124 99.6852 105.037 99.7781 107.949M105.096 68.3506C105.096 75.7586 79.3948 76.4268 79.3948 82.5912M90.4619 170.811L103.714 173.172M88.3213 163.099C96.8549 165.543 103.798 167.677 104.445 168.206C113.568 167.813 114.855 172.347 115.412 176.654M68.574 141.687C68.4704 142.637 66.5121 153.211 64.8361 156.695C69.8605 157.993 76.0391 159.661 82.0105 161.341M107.518 172.623C107.932 174.092 108.083 175.622 107.965 177.143M110.27 172.623C110.687 174.091 110.838 175.622 110.717 177.143M112.489 172.623C112.903 174.091 113.053 175.622 112.932 177.143M46.5035 158.616C45.8782 162.469 45.6137 165.349 46.1462 165.678C54.2438 170.822 73.0567 173.126 87.1321 173.981M51.682 136.619C51.5462 137.098 50.2704 142.458 48.9875 148.523" stroke="#171D28" stroke-linecap="round" stroke-linejoin="round"/>
<path d="M167.202 146.942L161.702 140.184L142.553 145.875L148.053 152.628L167.202 146.942Z" fill="#CBD5E0"/>
<path d="M118.628 153.21C124.474 151.759 141.584 147.859 142.514 147.481M142.897 155.551C141.71 156.088 132.677 159.743 123.759 163.021M146.319 152.579L141.855 146.59L152.883 143.02M162.392 148.488L168.447 146.526L163.242 139.666L159.939 140.736M142.897 155.552C144.192 154.889 147.561 153.282 148.169 153.088M146.788 144.285C148.484 142.841 152.481 137.753 153.884 138.521C155.287 139.289 161.532 142.504 159.15 143.312C156.768 144.12 156.15 144.098 154.868 143.761M151.44 151.82C154.911 153.272 160.997 152.065 155.306 148.68M157.589 151.443C160.645 151.679 163.399 150.37 158.954 147.724" stroke="#171D28" stroke-linecap="round" stroke-linejoin="round"/>
</g>
</svg>
