<svg width="328" height="169" viewBox="0 0 328 169" fill="none" xmlns="http://www.w3.org/2000/svg">
<mask id="mask0" mask-type="alpha" maskUnits="userSpaceOnUse" x="0" y="0" width="328" height="169">
<rect width="328" height="169" fill="#C4C4C4"/>
</mask>
<g mask="url(#mask0)">
<rect opacity="0.5" width="328" height="169" fill="url(#paint0_linear)"/>
<path d="M55.878 139.47L52.7551 144.35L48.9995 147.519L59.4811 159.325L57.2664 148.68L61.3839 144.858L55.878 139.47Z" fill="#A9B6C6"/>
<path d="M96.1509 154.306C96.0553 155.073 95.9734 156.987 95.8687 158.292C95.3065 159.371 94.9833 160.356 94.5463 161.173C95.4567 162.25 102.526 168.714 103.034 168.912C103.542 169.11 110.197 168.912 110.197 168.912C110.197 168.405 106.555 166.051 104.866 164.465C104.231 163.672 103.177 155.148 103.177 153.437L96.1509 154.306Z" fill="#A9B6C6"/>
<path d="M72.7049 89.9598C72.4636 91.717 71.4894 114.874 71.4894 118.594C70.0873 120.298 56.9837 137.242 56.9837 139.252C58.5314 141 60.6391 142.893 61.9206 144.066C62.7309 144.81 82.7631 123.353 83.1296 122.249C83.496 121.145 86.2979 114.581 86.2979 113.047C86.2979 111.513 80.0818 91.1685 80.0818 91.1685L72.7049 89.9598Z" fill="#172553"/>
<path d="M72.9459 113.249C72.8868 115.095 72.8526 116.516 72.8526 117.228C71.4505 118.933 58.3468 135.876 58.3468 137.886C59.626 139.186 62.2914 141.598 63.2838 142.7C64.3808 142.641 84.1263 121.987 84.4927 120.883C84.8592 119.779 87.6611 113.215 87.6611 111.681C87.6611 110.147 81.445 89.8029 81.445 89.8029L74.0681 88.5942C73.9224 89.6572 73.5059 98.5705 73.2009 106.259" stroke="#172553" stroke-linecap="round" stroke-linejoin="round"/>
<path d="M95.8577 91.1986C96.215 93.1766 103.282 152.941 103.282 154.835C102.456 155.9 97.6854 156.052 96.8569 155.545C96.0284 155.037 88.6173 120.037 88.0005 117.989C85.6879 116.448 76.2078 94.9633 76.2101 91.7039" fill="#172553"/>
<path d="M83.8572 53.4601C72.0213 53.4601 72.4288 87.6021 73.1025 90.0876C73.7762 92.5732 96.1733 92.9032 96.2211 90.9708C96.6877 72.7845 97.9373 53.4601 83.8572 53.4601Z" fill="#F7FAFC"/>
<path d="M92.7099 133.675C90.98 125.659 89.3412 117.829 89.0476 116.853C86.7373 115.312 77.255 93.8273 77.2572 90.5679" stroke="#172553" stroke-linecap="round" stroke-linejoin="round"/>
<path d="M99.7552 113.245C101.763 130.031 104.08 149.945 104.08 151.051C102.616 151.422 98.1095 151.795 97.083 151.923C96.7666 151.729 95.6126 146.881 94.2697 140.845" stroke="#172553" stroke-linecap="round" stroke-linejoin="round"/>
<path d="M96.906 90.0604C96.9902 90.5156 97.4158 93.9139 98.0258 98.8918" stroke="#172553" stroke-linecap="round" stroke-linejoin="round"/>
<path d="M99.3397 163.986C101.452 165.928 103.664 167.89 103.947 167.994C104.454 168.186 111.11 167.994 111.11 167.994C111.11 167.487 107.468 165.133 105.779 163.547C105.515 163.217 105.178 161.555 104.868 159.605" stroke="#172553" stroke-linecap="round" stroke-linejoin="round"/>
<path d="M104.366 155.824C104.195 154.338 104.086 153.072 104.086 152.519L97.0597 153.395C96.9641 154.163 96.8821 156.077 96.7774 157.381C96.2152 158.46 95.892 159.445 95.455 160.263C95.6986 160.547 96.3655 161.205 97.2327 162.027" stroke="#172553" stroke-linecap="round" stroke-linejoin="round"/>
<path d="M81.3419 91.0573C88.077 91.5967 96.8742 91.269 96.9038 90.0603C97.0472 84.4838 97.2634 78.798 97.0882 73.5994" stroke="#172553" stroke-linecap="round" stroke-linejoin="round"/>
<path d="M96.6909 67.8449C95.6712 58.9475 92.6439 52.5493 84.5432 52.5493C72.7073 52.5493 73.1147 86.6913 73.7885 89.1768C73.9114 89.632 74.7308 90.0008 75.994 90.3149" stroke="#172553" stroke-linecap="round" stroke-linejoin="round"/>
<path d="M82.0283 55.2332C82.0283 56.3553 87.2202 56.2552 87.1291 54.7575L86.6534 46.8661L82.0283 46.8661L82.0283 55.2332Z" fill="#A9B6C6" stroke="#172553" stroke-linecap="round" stroke-linejoin="round"/>
<path d="M75.3498 42.1544C74.3435 37.4582 76.0783 33.1047 79.2247 32.4305C82.371 31.7563 85.7374 35.0167 86.7437 39.7128C87.7501 44.4089 86.0152 48.7624 82.8689 49.4367C79.7225 50.1109 76.3561 46.8505 75.3498 42.1544Z" fill="#A9B6C6"/>
<path d="M88.7313 42.0542C88.761 41.0508 88.6709 40.0476 88.4627 39.0656C88.103 37.2455 87.3114 35.5383 86.1547 34.0877" stroke="#172553" stroke-linecap="round" stroke-linejoin="round"/>
<path d="M83.0259 48.7737C83.5333 48.864 84.0533 48.8563 84.5577 48.7509C86.2626 48.3936 87.5577 46.9528 88.2269 44.9612" stroke="#172553" stroke-linecap="round" stroke-linejoin="round"/>
<path d="M80.0151 31.6384C75.0076 31.6384 72.5039 36.9145 71.3658 42.5638C70.4554 47.1161 68.1793 50.9855 68.1793 54.8549C68.1793 60.6523 71.9736 65.7804 75.9181 65.7804C82.0295 65.7804 84.3398 59.8146 84.3398 57.1311C84.3398 53.3368 83.2017 50.8626 83.2017 46.2057C83.2017 42.5183 85.4778 39.7756 85.4778 34.3698C85.4778 32.995 83.2837 31.6384 80.0151 31.6384Z" fill="#172553"/>
<path d="M84.9355 57.4503C84.9908 57.1216 85.0197 56.7889 85.022 56.4556C85.022 52.6613 83.8839 50.1871 83.8839 45.5302C83.8839 41.8429 86.16 39.1001 86.16 33.6943C86.16 32.3286 83.9704 30.963 80.6973 30.963C77.966 30.963 75.9607 32.5562 74.5313 34.9075" stroke="#172553" stroke-linecap="round" stroke-linejoin="round"/>
<path d="M71.815 62.5257C73.1807 64.119 74.8764 65.0977 76.5949 65.0977C77.7225 65.1204 78.8414 64.8958 79.8728 64.4396C80.9043 63.9834 81.8233 63.3068 82.5652 62.4574" stroke="#172553" stroke-linecap="round" stroke-linejoin="round"/>
<path d="M71.7419 43.2082C70.7109 47.196 68.8604 50.6853 68.8604 54.1723C68.8614 56.1312 69.2878 58.0664 70.11 59.8444" stroke="#172553" stroke-linecap="round" stroke-linejoin="round"/>
<path d="M105.219 150.908L95.4547 152.126" stroke="#172553" stroke-linecap="round" stroke-linejoin="round"/>
<path d="M105.532 152.34L95.7701 153.557" stroke="#172553" stroke-linecap="round" stroke-linejoin="round"/>
<path d="M64.1716 143.604L56.8379 136.395" stroke="#172553" stroke-linecap="round" stroke-linejoin="round"/>
<path d="M63.4924 144.902L56.1587 137.695" stroke="#172553" stroke-linecap="round" stroke-linejoin="round"/>
<path d="M58.453 155.972L60.6199 158.414L58.4052 147.769L62.5228 143.947L57.0168 138.56L53.894 143.44L50.1383 146.608L55.3006 152.421" stroke="#172553" stroke-linecap="round" stroke-linejoin="round"/>
<path d="M97.9528 52.8229C99.5621 52.3992 101.148 51.8924 102.705 51.3047C103.161 50.2918 109.001 28.8347 109.989 24.6945C110.617 24.7468 111.421 25.7642 110.842 27.9175C111.946 28.812 113.747 30.6124 110.952 33.4553C110.829 34.2337 107.335 55.3061 106.996 55.7613C105.894 57.2522 101.597 59.3417 100.655 59.7173C100.356 58.9001 100.812 57.5549 97.9528 52.8229Z" fill="white"/>
<path d="M85.9387 62.458C84.9827 59.7267 93.887 52.0675 96.4749 51.8604C97.9908 52.6388 101.628 58.666 100.8 61.6272C97.9408 63.4367 87.5206 66.9716 85.9387 62.458Z" fill="#F7FAFC"/>
<path d="M108.067 33.0431C109.157 28.9916 110.09 25.4431 110.432 24C111.06 24.0524 111.9 24.6828 111.324 26.8361" stroke="#172553" stroke-linecap="round" stroke-linejoin="round"/>
<path d="M98.4058 52.1398C100.015 51.7161 101.601 51.2093 103.158 50.6216C103.386 50.0958 105.079 44.055 106.787 37.7911" stroke="#172553" stroke-linecap="round" stroke-linejoin="round"/>
<path d="M108.537 50.5013C109.652 44.5219 111.097 34.6595 111.396 32.7612C112.418 31.9031 113.722 29.4357 112.511 28.366" stroke="#172553" stroke-linecap="round" stroke-linejoin="round"/>
<path d="M101.554 59.0432C102.439 58.9044 106.602 56.2504 107.44 55.0873C107.607 54.7523 107.729 54.3963 107.802 54.0289" stroke="#172553" stroke-linecap="round" stroke-linejoin="round"/>
<path d="M90.9663 63.7454C88.8859 63.7454 87.1879 63.1559 86.6212 61.5376C86.0157 59.81 89.3525 56.109 92.5505 53.5711" stroke="#172553" stroke-linecap="round" stroke-linejoin="round"/>
<path d="M97.1541 50.9404C98.67 51.7188 102.307 57.746 101.479 60.7072C100.247 61.4267 98.9422 62.0134 97.5865 62.4576" stroke="#172553" stroke-linecap="round" stroke-linejoin="round"/>
<circle cx="204.999" cy="-10.0003" r="123.29" transform="rotate(-165 204.999 -10.0003)" fill="url(#paint1_linear)"/>
<path d="M97.9532 52.8227C99.5625 52.399 101.149 51.8923 102.706 51.3046C103.161 50.2917 109.002 28.8346 109.989 24.6943C110.618 24.7467 111.421 25.7641 110.843 27.9173C111.947 28.8119 113.747 30.6123 110.952 33.4552C110.829 34.2336 107.335 55.306 106.996 55.7612C105.895 57.2521 101.597 59.3416 100.655 59.7171C100.357 58.9 100.812 57.5548 97.9532 52.8227Z" fill="#A9B6C6"/>
<path d="M101.554 59.0436C102.439 58.9048 106.602 56.2508 107.44 55.0877C107.607 54.7527 107.729 54.3967 107.802 54.0293" stroke="#172553" stroke-linecap="round" stroke-linejoin="round"/>
<path d="M108.067 33.0431C109.157 28.9916 110.09 25.4431 110.432 24C111.06 24.0524 111.9 24.6828 111.324 26.8361" stroke="#172553" stroke-linecap="round" stroke-linejoin="round"/>
<path d="M98.4054 52.1397C100.015 51.716 101.601 51.2093 103.158 50.6216C103.386 50.0958 105.079 44.0549 106.786 37.791" stroke="#172553" stroke-linecap="round" stroke-linejoin="round"/>
<path d="M108.537 50.5016C109.652 44.5222 111.097 34.6597 111.396 32.7614C112.418 31.9033 113.722 29.436 112.511 28.3662" stroke="#172553" stroke-linecap="round" stroke-linejoin="round"/>
</g>
<defs>
<linearGradient id="paint0_linear" x1="164" y1="0" x2="164" y2="169" gradientUnits="userSpaceOnUse">
<stop stop-color="#7EE8A2"/>
<stop offset="1" stop-color="#7EE8A2" stop-opacity="0"/>
</linearGradient>
<linearGradient id="paint1_linear" x1="204.999" y1="-133.291" x2="200.397" y2="-60.0137" gradientUnits="userSpaceOnUse">
<stop stop-color="#7EE8A2"/>
<stop offset="1" stop-color="#7EE8A2" stop-opacity="0"/>
</linearGradient>
</defs>
</svg>
