<svg width="328" height="220" viewBox="0 0 328 220" fill="none" xmlns="http://www.w3.org/2000/svg">
<g clip-path="url(#clip0_1028_7426)">
<path fill-rule="evenodd" clip-rule="evenodd" d="M246.981 152.46C246.511 153.249 245.832 153.041 245.043 152.961C244.57 152.913 242.959 152.462 242.578 152.743C242.137 153.068 242.225 154.185 242.161 154.683C242.049 155.549 241.936 156.419 241.706 157.262C241.604 157.636 241.455 158.944 241.187 159.234C241.034 159.401 240.903 159.476 240.654 159.42C240.216 159.321 240.383 159.031 240.389 158.587C240.415 156.562 240.556 154.532 241.049 152.565C239.802 152.279 238.545 152.075 237.283 151.872C236.913 151.813 236.104 151.842 235.958 151.378C235.78 150.812 236.541 150.659 236.96 150.62C237.572 150.562 238.273 150.757 238.878 150.84C239.378 150.909 240.461 151.277 240.932 151.117C241.256 151.007 241.194 150.805 241.255 150.412C241.313 150.041 241.37 149.67 241.429 149.299C241.524 148.704 241.62 148.111 241.755 147.524C241.829 147.202 241.863 146.551 242.093 146.284C242.226 146.129 242.766 145.883 242.952 146.011C243.389 146.31 242.867 148.95 242.828 149.48C242.801 149.831 242.797 150.18 242.741 150.527C242.72 150.658 242.566 150.838 242.585 150.972C242.664 151.542 243.099 151.506 243.59 151.594C244.731 151.799 245.899 152.035 246.981 152.46Z" fill="#3A4DB2"/>
<path fill-rule="evenodd" clip-rule="evenodd" d="M77.1932 102.112C76.7232 102.901 76.0446 102.694 75.2556 102.614C74.782 102.566 73.1713 102.114 72.7901 102.395C72.3494 102.72 72.4377 103.838 72.3733 104.335C72.2612 105.201 72.1485 106.071 71.9188 106.914C71.8167 107.288 71.6671 108.596 71.3995 108.887C71.246 109.053 71.1153 109.128 70.8662 109.072C70.4288 108.973 70.5954 108.683 70.6011 108.24C70.6278 106.214 70.7682 104.185 71.2613 102.217C70.0143 101.931 68.7575 101.727 67.4952 101.524C67.1253 101.465 66.316 101.495 66.1699 101.031C65.992 100.464 66.7535 100.312 67.1725 100.272C67.7842 100.214 68.4851 100.41 69.0904 100.493C69.5901 100.562 70.6731 100.929 71.1443 100.769C71.4686 100.66 71.4062 100.458 71.4674 100.065C71.5251 99.6938 71.5821 99.3227 71.6412 98.9516C71.7361 98.3566 71.832 97.7638 71.967 97.1767C72.0411 96.8545 72.0756 96.2031 72.3056 95.9364C72.4389 95.7816 72.9783 95.5351 73.1648 95.6631C73.6015 95.9624 73.0791 98.6021 73.0399 99.132C73.0138 99.4835 73.0093 99.8327 72.9536 100.18C72.9322 100.311 72.7787 100.491 72.7972 100.625C72.876 101.194 73.3112 101.158 73.8022 101.247C74.943 101.451 76.1118 101.687 77.1932 102.112Z" fill="#3A4DB2"/>
<path fill-rule="evenodd" clip-rule="evenodd" d="M259.007 187.859C258.546 188.636 257.879 188.431 257.103 188.352C256.638 188.305 255.055 187.858 254.681 188.135C254.248 188.455 254.335 189.557 254.272 190.047C254.163 190.9 254.052 191.757 253.827 192.588C253.727 192.956 253.581 194.245 253.318 194.531C253.167 194.695 253.039 194.769 252.794 194.714C252.364 194.616 252.528 194.33 252.533 193.893C252.558 191.898 252.695 189.897 253.179 187.959C251.953 187.677 250.718 187.475 249.478 187.274C249.114 187.216 248.319 187.244 248.175 186.787C248 186.229 248.748 186.079 249.16 186.04C249.761 185.983 250.45 186.176 251.045 186.259C251.536 186.327 252.6 186.69 253.063 186.532C253.381 186.424 253.32 186.225 253.38 185.838C253.436 185.473 253.492 185.107 253.55 184.741C253.643 184.155 253.737 183.571 253.869 182.993C253.942 182.675 253.975 182.033 254.201 181.771C254.332 181.618 254.862 181.375 255.045 181.502C255.474 181.797 254.963 184.398 254.924 184.92C254.899 185.266 254.895 185.61 254.84 185.952C254.819 186.082 254.668 186.259 254.687 186.391C254.764 186.952 255.192 186.917 255.674 187.004C256.796 187.206 257.944 187.439 259.007 187.859Z" fill="#3A4DB2"/>
<path fill-rule="evenodd" clip-rule="evenodd" d="M37.5777 48.3772C37.1163 49.1544 36.4495 48.9494 35.6742 48.8705C35.2088 48.8229 33.6259 48.3767 33.2515 48.6536C32.8187 48.9737 32.9061 50.0749 32.8431 50.5649C32.7334 51.4182 32.6232 52.2754 32.398 53.106C32.2979 53.4746 32.1516 54.7634 31.8888 55.0496C31.7381 55.2136 31.6096 55.2872 31.3649 55.2318C30.9351 55.1345 31.0986 54.8485 31.104 54.4117C31.1291 52.4158 31.2659 50.4157 31.7493 48.4774C30.5239 48.1948 29.2888 47.993 28.0485 47.7926C27.685 47.7338 26.8898 47.7627 26.746 47.3051C26.5709 46.747 27.3191 46.5972 27.7307 46.5585C28.3317 46.5017 29.0205 46.6945 29.6153 46.7769C30.1063 46.8449 31.1706 47.208 31.6335 47.0506C31.9521 46.9426 31.8907 46.7435 31.9506 46.3565C32.007 45.9909 32.0629 45.6252 32.1208 45.2595C32.2136 44.6733 32.3075 44.0892 32.4399 43.5108C32.5125 43.1933 32.5461 42.5514 32.7719 42.2888C32.9028 42.1364 33.4326 41.8937 33.616 42.02C34.0452 42.3151 33.5334 44.916 33.4952 45.4381C33.4697 45.7845 33.4654 46.1286 33.4109 46.4703C33.39 46.5998 33.2393 46.7769 33.2575 46.9091C33.3352 47.4704 33.7629 47.4351 34.2453 47.5222C35.3663 47.7247 36.5149 47.9576 37.5777 48.3772Z" fill="#3A4DB2"/>
<path fill-rule="evenodd" clip-rule="evenodd" d="M290.964 191.729C290.335 189.426 292.606 188.693 293.59 190.323C294.722 192.733 291.948 193.864 290.964 191.729ZM290.571 193.217C294.42 195.717 296.027 191.476 294.243 189.695C292.291 187.794 287.032 188.79 290.571 193.217Z" fill="#3A4DB2"/>
<path fill-rule="evenodd" clip-rule="evenodd" d="M86.8896 123.517C86.2602 121.214 88.5318 120.48 89.5157 122.111C90.6475 124.52 87.8728 125.652 86.8896 123.517ZM86.4966 125.004C90.3453 127.505 91.952 123.264 90.168 121.482C88.2167 119.581 82.9577 120.578 86.4966 125.004Z" fill="#3A4DB2"/>
<path fill-rule="evenodd" clip-rule="evenodd" d="M106.553 71.2431C105.924 68.94 108.195 68.2066 109.179 69.837C110.311 72.2467 107.536 73.3783 106.553 71.2431ZM106.16 72.7307C110.009 75.2311 111.615 70.9901 109.831 69.2086C107.88 67.3075 102.621 68.3043 106.16 72.7307Z" fill="#3A4DB2"/>
<path fill-rule="evenodd" clip-rule="evenodd" d="M64.8007 57.322C64.1713 55.0189 66.4429 54.2855 67.4269 55.9158C68.5586 58.3256 65.784 59.4571 64.8007 57.322ZM64.4077 58.8096C68.2565 61.31 69.8632 57.069 68.0792 55.2875C66.1278 53.3863 60.8689 54.3831 64.4077 58.8096Z" fill="#3A4DB2"/>
<path d="M240.182 30.4699L141.19 12.9637L109.995 189.36L208.987 206.866L240.182 30.4699Z" fill="white"/>
<path d="M212.201 188.698L113.209 171.191L109.997 189.357L208.989 206.863L212.201 188.698Z" fill="#172553"/>
<path d="M240.668 29.9419L142.13 12.5161L138.932 30.598L237.47 48.0238L240.668 29.9419Z" fill="#172553"/>
<path d="M181.789 29.1004C181.565 29.0609 181.352 29.21 181.313 29.4336C181.273 29.6571 181.422 29.8703 181.646 29.9099L181.789 29.1004ZM196.355 32.5113C196.578 32.5508 196.792 32.4017 196.831 32.1781C196.871 31.9546 196.722 31.7414 196.498 31.7019L196.355 32.5113ZM181.646 29.9099L196.355 32.5113L196.498 31.7019L181.789 29.1004L181.646 29.9099ZM124.114 127.228L140.541 34.3333L139.732 34.1902L123.305 127.085L124.114 127.228ZM226.163 100.08L234.84 51.0107L234.031 50.8676L225.354 99.937L226.163 100.08Z" fill="#172553"/>
<line x1="223.035" y1="113.706" x2="211.34" y2="179.252" stroke="#172553" stroke-width="0.904188"/>
<rect x="145.218" y="60.5775" width="19.7277" height="19.7277" rx="3.28795" transform="rotate(10.1166 145.218 60.5775)" fill="#475ABB"/>
<rect x="140.598" y="86.4722" width="19.7277" height="19.7277" rx="3.28795" transform="rotate(10.1166 140.598 86.4722)" fill="#D8DCF9"/>
<rect x="135.978" y="112.367" width="19.7277" height="19.7277" rx="3.28795" transform="rotate(10.1166 135.978 112.367)" fill="#475ABB"/>
<rect x="131.357" y="138.262" width="19.7277" height="19.7277" rx="3.28795" transform="rotate(10.1166 131.357 138.262)" fill="#737FDB"/>
<rect x="172.731" y="65.4865" width="19.7277" height="19.7277" rx="3.28795" transform="rotate(10.1166 172.731 65.4865)" fill="#737FDB"/>
<rect x="168.111" y="91.3812" width="19.7277" height="19.7277" rx="3.28795" transform="rotate(10.1166 168.111 91.3812)" fill="#B9C0F2"/>
<rect x="163.49" y="117.276" width="19.7277" height="19.7277" rx="3.28795" transform="rotate(10.1166 163.49 117.276)" fill="#737FDB"/>
<rect x="158.87" y="143.171" width="19.7277" height="19.7277" rx="3.28795" transform="rotate(10.1166 158.87 143.171)" fill="#D8DCF9"/>
<rect x="200.244" y="70.3955" width="19.7277" height="19.7277" rx="3.28795" transform="rotate(10.1166 200.244 70.3955)" fill="#D8DCF9"/>
<rect x="195.624" y="96.2902" width="19.7277" height="19.7277" rx="3.28795" transform="rotate(10.1166 195.624 96.2902)" fill="#FB8A89"/>
<rect x="191.004" y="122.185" width="19.7277" height="19.7277" rx="3.28795" transform="rotate(10.1166 191.004 122.185)" fill="#B9C0F2"/>
<rect x="186.383" y="148.08" width="19.7277" height="19.7277" rx="3.28795" transform="rotate(10.1166 186.383 148.08)" fill="#475ABB"/>
<path d="M161.665 195.447C165.016 196.04 168.213 193.804 168.806 190.453C169.398 187.102 167.162 183.905 163.811 183.313C160.461 182.72 157.264 184.956 156.671 188.307C156.079 191.658 158.315 194.855 161.665 195.447Z" fill="white"/>
<path d="M198.651 111.646C196.807 111.33 195.569 109.579 195.884 107.736C196.134 106.28 197.277 105.202 198.654 104.967C198.662 104.904 198.671 104.841 198.681 104.779C199.032 102.73 200.976 101.354 203.026 101.705C204.4 101.94 205.471 102.893 205.923 104.115C206.319 103.918 206.766 103.872 207.222 103.951C208.451 104.161 209.281 105.308 209.067 106.557C209.018 106.84 208.919 107.1 208.781 107.334C210.088 107.839 210.903 109.212 210.657 110.647C210.376 112.286 208.821 113.387 207.182 113.106L198.651 111.646ZM202.686 110.239C202.863 110.513 203.215 110.573 203.453 110.371L205.625 108.834C205.895 108.677 205.956 108.325 205.756 108.066C205.596 107.817 205.244 107.757 204.989 107.935L203.93 108.686L204.462 105.578C204.515 105.27 204.309 104.979 204.001 104.926C203.693 104.873 203.402 105.079 203.349 105.387L202.817 108.496L202.047 107.431C201.887 107.182 201.535 107.122 201.28 107.3C201.027 107.481 200.967 107.833 201.149 108.067L202.686 110.239Z" fill="white"/>
<path d="M162.099 46.215C161.987 46.2089 161.874 46.1967 161.757 46.175C161.032 46.0407 160.444 45.6 160.093 45.0225C159.558 45.4358 158.851 45.6368 158.123 45.502C157.396 45.3672 156.808 44.9265 156.456 44.349C155.921 44.7623 155.218 44.9638 154.487 44.8285C153.762 44.6942 153.174 44.2535 152.823 43.676C152.288 44.0893 151.581 44.2903 150.852 44.1553C150.739 44.1343 150.626 44.1048 150.518 44.0702C149.014 43.5762 148.624 41.6059 149.693 40.4414L151.765 38.1855C151.949 37.9824 152.229 37.8893 152.501 37.9396L162.451 39.7824C162.721 39.8325 162.949 40.0196 163.049 40.2754L164.174 43.1234C164.758 44.5969 163.685 46.2933 162.099 46.215ZM162.05 47.1289C162.148 47.1324 162.289 47.1352 162.405 47.1277L161.387 52.6275C161.203 53.621 160.253 54.2806 159.268 54.0983L150.345 52.4455C149.359 52.263 148.71 51.3071 148.894 50.3136L149.912 44.8138C150.015 44.8619 150.122 44.9051 150.234 44.9404L150.237 44.941C150.38 44.9879 150.531 45.0274 150.685 45.056C151.032 45.1202 151.377 45.1287 151.707 45.0881L151.012 48.8428L159.936 50.4956L160.631 46.7437C160.925 46.8972 161.247 47.0121 161.59 47.0757C161.746 47.1046 161.899 47.1212 162.05 47.1289Z" fill="#172553"/>
</g>
<defs>
<clipPath id="clip0_1028_7426">
<rect width="328" height="220" fill="white"/>
</clipPath>
</defs>
</svg>
