<svg width="328" height="246" viewBox="0 0 328 246" fill="none" xmlns="http://www.w3.org/2000/svg">
<g clip-path="url(#clip0_1028_7376)">
<path fill-rule="evenodd" clip-rule="evenodd" d="M271.78 160.033C271.31 160.822 270.632 160.614 269.843 160.535C269.369 160.486 267.758 160.035 267.377 160.316C266.937 160.641 267.025 161.758 266.96 162.256C266.848 163.122 266.736 163.992 266.506 164.835C266.404 165.209 266.254 166.517 265.987 166.807C265.833 166.974 265.702 167.049 265.453 166.993C265.016 166.894 265.183 166.604 265.188 166.161C265.215 164.135 265.355 162.105 265.848 160.138C264.601 159.852 263.345 159.648 262.082 159.445C261.712 159.386 260.903 159.415 260.757 158.951C260.579 158.385 261.341 158.232 261.76 158.193C262.371 158.135 263.072 158.33 263.678 158.413C264.177 158.482 265.26 158.85 265.731 158.69C266.056 158.58 265.993 158.378 266.055 157.985C266.112 157.614 266.169 157.243 266.228 156.872C266.323 156.277 266.419 155.684 266.554 155.097C266.628 154.775 266.663 154.124 266.893 153.857C267.026 153.702 267.565 153.456 267.752 153.584C268.189 153.883 267.666 156.523 267.627 157.053C267.601 157.404 267.596 157.753 267.541 158.1C267.519 158.232 267.366 158.411 267.384 158.546C267.463 159.115 267.898 159.079 268.389 159.167C269.53 159.372 270.699 159.608 271.78 160.033Z" fill="#3A4DB2"/>
<path fill-rule="evenodd" clip-rule="evenodd" d="M61.7803 147.033C61.3103 147.822 60.6318 147.614 59.8428 147.535C59.3692 147.487 57.7585 147.035 57.3773 147.316C56.9366 147.641 57.0249 148.758 56.9605 149.256C56.8484 150.122 56.7357 150.992 56.506 151.835C56.4039 152.209 56.2543 153.517 55.9866 153.807C55.8331 153.974 55.7024 154.049 55.4533 153.993C55.016 153.894 55.1825 153.604 55.1883 153.161C55.215 151.135 55.3553 149.105 55.8485 147.138C54.6015 146.852 53.3446 146.648 52.0824 146.445C51.7124 146.386 50.9032 146.415 50.7571 145.951C50.5792 145.385 51.3407 145.232 51.7597 145.193C52.3714 145.135 53.0723 145.33 53.6776 145.413C54.1773 145.482 55.2603 145.85 55.7314 145.69C56.0557 145.58 55.9934 145.378 56.0545 144.985C56.1122 144.614 56.1692 144.243 56.2284 143.872C56.3232 143.277 56.4191 142.684 56.5541 142.097C56.6283 141.775 56.6628 141.124 56.8927 140.857C57.0261 140.702 57.5655 140.456 57.752 140.584C58.1887 140.883 57.6663 143.523 57.6271 144.053C57.601 144.404 57.5964 144.753 57.5407 145.1C57.5194 145.232 57.3659 145.411 57.3843 145.546C57.4631 146.115 57.8984 146.079 58.3893 146.167C59.5301 146.372 60.6989 146.608 61.7803 147.033Z" fill="#3A4DB2"/>
<path fill-rule="evenodd" clip-rule="evenodd" d="M275.578 186.931C275.116 187.708 274.449 187.503 273.674 187.424C273.209 187.377 271.626 186.93 271.252 187.207C270.819 187.527 270.906 188.629 270.843 189.119C270.733 189.972 270.623 190.829 270.398 191.66C270.298 192.028 270.152 193.317 269.889 193.603C269.738 193.767 269.61 193.841 269.365 193.786C268.935 193.688 269.099 193.402 269.104 192.965C269.129 190.97 269.266 188.969 269.749 187.031C268.524 186.749 267.289 186.547 266.048 186.346C265.685 186.288 264.89 186.316 264.746 185.859C264.571 185.301 265.319 185.151 265.731 185.112C266.332 185.055 267.021 185.248 267.615 185.331C268.106 185.399 269.171 185.762 269.633 185.604C269.952 185.496 269.891 185.297 269.951 184.91C270.007 184.545 270.063 184.179 270.121 183.813C270.214 183.227 270.308 182.643 270.44 182.065C270.513 181.747 270.546 181.105 270.772 180.843C270.903 180.69 271.433 180.447 271.616 180.574C272.045 180.869 271.533 183.47 271.495 183.992C271.47 184.338 271.465 184.682 271.411 185.024C271.39 185.154 271.239 185.331 271.257 185.463C271.335 186.024 271.763 185.989 272.245 186.076C273.366 186.278 274.515 186.511 275.578 186.931Z" fill="#3A4DB2"/>
<path fill-rule="evenodd" clip-rule="evenodd" d="M70.5777 27.931C70.1163 28.7081 69.4495 28.5031 68.6742 28.4243C68.2088 28.3766 66.6259 27.9304 66.2515 28.2073C65.8187 28.5274 65.9061 29.6287 65.8431 30.1187C65.7334 30.972 65.6232 31.8292 65.398 32.6597C65.2979 33.0283 65.1516 34.3171 64.8888 34.6033C64.7381 34.7673 64.6096 34.8409 64.3649 34.7856C63.9351 34.6882 64.0986 34.4022 64.104 33.9655C64.1291 31.9695 64.2659 29.9694 64.7493 28.0312C63.5239 27.7486 62.2888 27.5467 61.0485 27.3463C60.685 27.2876 59.8898 27.3164 59.746 26.8589C59.5709 26.3008 60.3191 26.1509 60.7307 26.1122C61.3317 26.0555 62.0205 26.2483 62.6153 26.3306C63.1063 26.3986 64.1706 26.7617 64.6335 26.6043C64.9521 26.4963 64.8907 26.2972 64.9506 25.9102C65.007 25.5446 65.0629 25.1789 65.1208 24.8133C65.2136 24.2271 65.3075 23.643 65.4399 23.0645C65.5125 22.747 65.5461 22.1052 65.7719 21.8425C65.9028 21.6901 66.4326 21.4474 66.616 21.5737C67.0452 21.8688 66.5334 24.4698 66.4952 24.9919C66.4697 25.3383 66.4654 25.6823 66.4109 26.0241C66.39 26.1535 66.2393 26.3307 66.2575 26.4629C66.3352 27.0242 66.7629 26.9888 67.2453 27.076C68.3663 27.2785 69.5149 27.5113 70.5777 27.931Z" fill="#3A4DB2"/>
<path fill-rule="evenodd" clip-rule="evenodd" d="M290.964 211.729C290.335 209.426 292.606 208.693 293.59 210.323C294.722 212.733 291.947 213.864 290.964 211.729ZM290.571 213.217C294.42 215.717 296.027 211.476 294.242 209.695C292.291 207.794 287.032 208.79 290.571 213.217Z" fill="#3A4DB2"/>
<path fill-rule="evenodd" clip-rule="evenodd" d="M70.8896 128.517C70.2602 126.214 72.5318 125.48 73.5157 127.11C74.6475 129.52 71.8728 130.652 70.8896 128.517ZM70.4966 130.004C74.3453 132.505 75.952 128.264 74.168 126.482C72.2167 124.581 66.9577 125.578 70.4966 130.004Z" fill="#3A4DB2"/>
<path fill-rule="evenodd" clip-rule="evenodd" d="M56.8896 107.517C56.2602 105.214 58.5318 104.48 59.5157 106.11C60.6475 108.52 57.8728 109.652 56.8896 107.517ZM56.4966 109.004C60.3453 111.505 61.952 107.264 60.168 105.482C58.2167 103.581 52.9577 104.578 56.4966 109.004Z" fill="#3A4DB2"/>
<path fill-rule="evenodd" clip-rule="evenodd" d="M95.8896 38.5167C95.2602 36.2135 97.5318 35.4802 98.5157 37.1105C99.6475 39.5203 96.8728 40.6518 95.8896 38.5167ZM95.4966 40.0043C99.3453 42.5047 100.952 38.2636 99.168 36.4822C97.2167 34.581 91.9577 35.5778 95.4966 40.0043Z" fill="#3A4DB2"/>
<rect x="118.36" y="22.9815" width="36.82" height="36.82" rx="3.52449" transform="rotate(10.1166 118.36 22.9815)" fill="#475ABB"/>
<rect x="117.466" y="82.5203" width="31.632" height="31.632" rx="3.52449" transform="rotate(10.1166 117.466 82.5203)" fill="#B9C0F2"/>
<rect x="96.0171" y="120" width="39.949" height="39.949" rx="3.52449" transform="rotate(10.1166 96.0171 120)" fill="#475ABB"/>
<rect x="65.5618" y="173" width="43.0493" height="43.0493" rx="3.52449" transform="rotate(10.1166 65.5618 173)" fill="#737FDB"/>
<rect x="168.989" y="48.8713" width="31.632" height="31.632" rx="3.52449" transform="rotate(10.1166 168.989 48.8713)" fill="#737FDB"/>
<rect x="161.581" y="90.3915" width="31.632" height="31.632" rx="3.52449" transform="rotate(10.1166 161.581 90.3915)" fill="#D8DCF9"/>
<rect x="154.173" y="131.912" width="31.632" height="31.632" rx="3.52449" transform="rotate(10.1166 154.173 131.912)" fill="#737FDB"/>
<rect x="146.764" y="173.432" width="31.632" height="31.632" rx="3.52449" transform="rotate(10.1166 146.764 173.432)" fill="#D8DCF9"/>
<rect x="225.795" y="45" width="38.6868" height="38.6868" rx="3.52449" transform="rotate(10.1166 225.795 45)" fill="#D8DCF9"/>
<rect x="205.696" y="98.2628" width="31.632" height="31.632" rx="3.52449" transform="rotate(10.1166 205.696 98.2628)" fill="#475ABB"/>
<rect x="198.288" y="139.783" width="31.632" height="31.632" rx="3.52449" transform="rotate(10.1166 198.288 139.783)" fill="#B9C0F2"/>
<rect x="189.106" y="181" width="40.4564" height="40.4564" rx="3.52449" transform="rotate(10.1166 189.106 181)" fill="#475ABB"/>
<g clip-path="url(#clip1_1028_7376)">
<path d="M191.794 190.258C191.924 189.564 192.591 189.105 193.284 189.235L197.046 189.94C197.647 190.052 198.084 190.579 198.088 191.194L198.129 208.377L214.228 211.394C214.923 211.524 215.377 212.19 215.246 212.887C215.116 213.585 214.452 214.041 213.757 213.911L196.571 210.69C196.017 210.587 195.58 210.06 195.576 209.446L195.537 192.262L192.812 191.752C192.12 191.622 191.664 190.953 191.794 190.258ZM199.176 215.52C198.916 216.909 197.581 217.826 196.196 217.567C194.812 217.307 193.9 215.97 194.16 214.58C194.42 213.191 195.755 212.274 197.14 212.534C198.524 212.793 199.436 214.131 199.176 215.52ZM209.209 217.4C209.469 216.011 210.804 215.094 212.188 215.353C213.573 215.613 214.485 216.95 214.225 218.34C213.964 219.729 212.63 220.646 211.245 220.386C209.86 220.127 208.948 218.789 209.209 217.4Z" fill="white"/>
<path opacity="0.4" d="M198.043 191.863L220.026 195.982C221.087 196.181 221.734 197.401 221.236 198.416L216.528 207.955C216.188 208.641 215.436 209.015 214.689 208.875L198.12 205.771L198.043 191.863Z" fill="white"/>
</g>
<g clip-path="url(#clip2_1028_7376)">
<path d="M225.2 116.499C225.647 116.886 225.861 117.474 225.766 118.055C225.672 118.635 225.281 119.124 224.74 119.318L213.733 123.801C213.161 124.061 212.514 123.969 212.036 123.588C211.558 123.207 211.323 122.598 211.422 121.993L213.419 109.759C213.518 109.156 213.934 108.652 214.509 108.443C215.083 108.234 215.726 108.351 216.19 108.75L225.2 116.499Z" fill="white"/>
</g>
<g clip-path="url(#clip3_1028_7376)">
<path d="M87.3603 193.209C88.5616 192.996 89.6089 194.044 89.3876 195.249L88.1143 202.182C87.8959 203.371 86.5627 204.121 85.1373 203.86C83.7119 203.598 82.7323 202.423 82.9506 201.234C83.1689 200.045 84.5022 199.295 85.9276 199.557C86.2288 199.612 86.4629 199.699 86.7655 199.838L87.3503 196.654L81.831 197.642L80.9133 202.639C80.695 203.828 79.3617 204.578 77.9363 204.316C76.5109 204.055 75.5313 202.879 75.7497 201.691C75.968 200.502 77.3012 199.752 78.7266 200.013C79.0278 200.069 79.262 200.156 79.5645 200.295L80.4259 195.605C80.5583 194.884 81.1223 194.326 81.8411 194.197L87.3603 193.209Z" fill="white"/>
<path opacity="0.4" d="M72.0615 207.241C67.7837 206.455 64.9532 202.349 65.7386 198.073C66.359 194.695 69.0471 192.219 72.2555 191.713C72.2752 191.567 72.2981 191.421 72.3247 191.276C73.198 186.521 77.7565 183.377 82.5114 184.25C85.701 184.836 88.1633 187.081 89.1795 189.934C90.1067 189.487 91.1468 189.395 92.2064 189.589C95.0572 190.113 96.9542 192.802 96.4217 195.701C96.3012 196.357 96.0629 196.959 95.7357 197.499C98.7603 198.711 100.616 201.926 100.005 205.256C99.3063 209.058 95.6582 211.574 91.8554 210.876L72.0615 207.241ZM89.3877 195.249C89.609 194.044 88.5616 192.996 87.3604 193.209L81.8411 194.197C81.1224 194.326 80.5584 194.884 80.426 195.605L79.5646 200.295C79.262 200.156 79.0279 200.069 78.7267 200.013C77.3013 199.752 75.968 200.502 75.7497 201.691C75.5314 202.879 76.511 204.055 77.9364 204.316C79.3618 204.578 80.695 203.828 80.9134 202.639L81.8311 197.642L87.3504 196.654L86.7655 199.838C86.463 199.699 86.2289 199.612 85.9277 199.557C84.5023 199.295 83.169 200.045 82.9507 201.234C82.7324 202.423 83.712 203.598 85.1374 203.86C86.5627 204.121 87.896 203.371 88.1143 202.182L89.3877 195.249Z" fill="white"/>
</g>
<g clip-path="url(#clip4_1028_7376)">
<path d="M127.551 38.9692C127.868 39.0934 128.346 39.2908 128.554 39.3938C129.059 39.6382 129.27 40.2547 129.022 40.7611C128.778 41.2736 128.168 41.4902 127.668 41.2416C127.484 41.1535 126.837 40.8921 126.633 40.769C126.036 40.6008 125.482 40.5772 125.175 40.6694C124.834 40.7498 124.727 40.9017 124.687 40.9987C124.624 41.1643 124.643 41.2306 124.649 41.2527C124.654 41.2798 124.682 41.3481 124.794 41.4639C125.056 41.7346 125.505 41.9785 126.125 42.3237L126.208 42.3502C126.775 42.6536 127.534 43.052 128.05 43.6175C128.337 43.9242 128.586 44.3178 128.692 44.8093C128.803 45.3067 128.745 45.8187 128.553 46.3257C128.203 47.2519 127.449 47.7857 126.596 47.971C126.346 47.9852 126.063 48.056 125.79 48.0553L125.736 48.3326C125.627 48.8923 125.091 49.2592 124.494 49.1434C123.986 49.0449 123.625 48.5043 123.734 47.9446L123.796 47.6219C123.345 47.4192 122.724 47.0791 122.402 46.8755C122.322 46.8286 122.252 46.7889 122.205 46.7117C121.708 46.4794 121.536 45.8549 121.813 45.3592C122.089 44.8635 122.709 44.6854 123.196 44.9629C123.288 45.0175 123.391 45.074 123.493 45.1356C123.935 45.3886 124.432 45.6734 124.721 45.7818C125.339 46.0062 125.845 46.0362 126.174 45.9639C126.471 45.9011 126.595 45.7681 126.659 45.5975C126.733 45.4025 126.72 45.306 126.708 45.2618C126.702 45.2135 126.671 45.1342 126.564 45.0193C126.312 44.7456 125.874 44.4985 125.219 44.1466L125.116 44.0951C124.567 43.8057 123.85 43.426 123.351 42.9159C123.02 42.6164 122.8 42.2495 122.68 41.7657C122.556 41.276 122.605 40.7678 122.793 40.2704C123.13 39.3783 123.9 38.8684 124.71 38.6697C124.936 38.5984 125.261 38.5725 125.552 38.566L125.61 38.2635C125.719 37.7038 126.255 37.3369 126.763 37.4354C127.361 37.5512 127.721 38.0919 127.612 38.6515L127.551 38.9692ZM143.783 43.4601C144.266 43.5537 144.51 43.9776 144.424 44.4213C144.338 44.865 143.954 45.1672 143.471 45.0736L132.315 42.9114C131.922 42.8351 131.589 42.3939 131.675 41.9502C131.761 41.5065 132.235 41.2216 132.628 41.2979L143.783 43.4601Z" fill="white"/>
<path opacity="0.4" d="M145.876 37.1692C147.634 37.5099 148.783 39.2315 148.438 41.014L145.936 53.9221C145.591 55.702 143.881 56.8721 142.123 56.5313L119.813 52.2069C118.052 51.8657 116.906 50.142 117.251 48.3621L119.753 35.454C120.098 33.6716 121.805 32.5036 123.566 32.8448L145.876 37.1692ZM132.673 41.3066C132.235 41.2216 131.806 41.5152 131.72 41.9589C131.634 42.4026 131.922 42.8352 132.36 42.9201L143.515 45.0823C143.954 45.1672 144.383 44.8737 144.469 44.43C144.555 43.9863 144.266 43.5537 143.828 43.4688L132.673 41.3066ZM131.422 47.7606L142.577 49.9228C143.015 50.0078 143.444 49.7142 143.53 49.2705C143.616 48.8268 143.328 48.3943 142.89 48.3093L131.735 46.1471C131.296 46.0622 130.868 46.3557 130.782 46.7994C130.696 47.2432 130.984 47.6757 131.422 47.7606ZM127.612 38.6516C127.721 38.0919 127.361 37.5512 126.763 37.4354C126.255 37.3369 125.719 37.7038 125.61 38.2635L125.552 38.5661C125.261 38.5725 124.936 38.5984 124.71 38.6697C123.9 38.8684 123.13 39.3783 122.793 40.2705C122.606 40.7678 122.556 41.276 122.68 41.7657C122.8 42.2495 123.065 42.6251 123.351 42.916C123.85 43.426 124.567 43.8057 125.116 44.0951L125.219 44.1466C125.874 44.4985 126.312 44.7456 126.564 45.0193C126.671 45.1342 126.702 45.2135 126.708 45.2618C126.72 45.306 126.733 45.4025 126.659 45.5975C126.595 45.7682 126.471 45.9011 126.174 45.964C125.845 46.0362 125.339 46.0062 124.721 45.7818C124.432 45.6734 123.935 45.3886 123.493 45.1356C123.391 45.074 123.289 45.0175 123.196 44.9629C122.709 44.6854 122.089 44.8635 121.813 45.3592C121.536 45.855 121.708 46.4795 122.205 46.7117C122.252 46.7889 122.322 46.8286 122.402 46.8755C122.724 47.0791 123.345 47.4193 123.796 47.6219L123.734 47.9446C123.625 48.5043 123.986 49.0449 124.494 49.1434C125.091 49.2592 125.627 48.8923 125.736 48.3326L125.79 48.0553C126.063 48.056 126.346 47.9852 126.596 47.971C127.449 47.7857 128.203 47.2519 128.553 46.3257C128.745 45.8187 128.803 45.3067 128.692 44.8093C128.586 44.3178 128.337 43.9242 128.05 43.6175C127.534 43.052 126.775 42.6536 126.208 42.3502L126.125 42.3237C125.505 41.9785 125.056 41.7346 124.794 41.4639C124.682 41.3481 124.654 41.2799 124.649 41.2527C124.643 41.2306 124.624 41.1643 124.688 40.9987C124.727 40.9017 124.834 40.7498 125.175 40.6694C125.482 40.5772 126.036 40.6008 126.634 40.769C126.837 40.8921 127.484 41.1536 127.668 41.2416C128.168 41.4902 128.778 41.2736 129.022 40.7611C129.27 40.2547 129.059 39.6382 128.554 39.3938C128.346 39.2908 127.868 39.0934 127.551 38.9692L127.612 38.6516Z" fill="white"/>
</g>
<g clip-path="url(#clip5_1028_7376)">
<path d="M173.046 145.671L173.289 144.227C173.404 143.546 174.06 143.089 174.757 143.207L176.017 143.419C176.714 143.537 177.184 144.183 177.069 144.864L176.28 149.544L178.07 151.684C178.517 152.223 178.437 153.01 177.894 153.445C177.347 153.88 176.543 153.796 176.095 153.26L168.181 143.782L157.595 150.142C156.996 150.5 156.209 150.316 155.837 149.726C155.465 149.137 155.649 148.368 156.249 148.005L167.782 141.077C168.292 140.745 169.036 140.87 169.444 141.357L173.046 145.671Z" fill="white"/>
<path opacity="0.4" d="M168.181 143.782L175.731 152.823L174.44 160.579C174.3 161.431 173.479 162.006 172.605 161.858L169.435 161.324C168.565 161.177 167.976 160.369 168.12 159.518L168.693 156.116C168.808 155.435 168.338 154.789 167.641 154.671L165.121 154.246C164.424 154.129 163.768 154.585 163.653 155.267L163.08 158.668C162.936 159.519 162.115 160.09 161.245 159.943L158.099 159.413C157.228 159.266 156.64 158.458 156.783 157.606L158.089 149.844L168.181 143.782Z" fill="white"/>
</g>
</g>
<defs>
<clipPath id="clip0_1028_7376">
<rect width="328" height="246" fill="white"/>
</clipPath>
<clipPath id="clip1_1028_7376">
<rect width="30.6211" height="27.3107" fill="white" transform="translate(192.03 189) rotate(10.6126)"/>
</clipPath>
<clipPath id="clip2_1028_7376">
<rect width="13.5226" height="18.0302" fill="white" transform="translate(213.873 106.979) rotate(9.27181)"/>
</clipPath>
<clipPath id="clip3_1028_7376">
<rect width="35" height="28" fill="white" transform="translate(69.0579 180) rotate(10.407)"/>
</clipPath>
<clipPath id="clip4_1028_7376">
<rect width="29.2185" height="26.2967" fill="white" transform="translate(121.004 29) rotate(10.9696)"/>
</clipPath>
<clipPath id="clip5_1028_7376">
<rect width="23" height="20" fill="white" transform="translate(157.325 139) rotate(9.56923)"/>
</clipPath>
</defs>
</svg>
