<svg width="328" height="228" viewBox="0 0 328 228" fill="none" xmlns="http://www.w3.org/2000/svg">
<path d="M281.19 97.1482C266.565 124.032 237.611 142.221 204.458 142.221C171.305 142.221 142.342 124.019 127.725 97.1456C127.108 95.9959 126.787 94.7257 126.787 93.4374C126.787 92.1492 127.108 90.879 127.725 89.7293C142.351 62.8459 171.305 44.6569 204.458 44.6569C237.611 44.6569 266.573 62.8586 281.19 89.7318C281.807 90.8815 282.128 92.1517 282.128 93.44C282.128 94.7282 281.807 95.9985 281.19 97.1482ZM204.458 56.8523C196.777 56.8523 189.268 58.9981 182.882 63.0183C176.495 67.0384 171.518 72.7524 168.578 79.4377C165.639 86.123 164.87 93.4793 166.368 100.576C167.867 107.673 171.566 114.192 176.997 119.309C182.428 124.426 189.348 127.91 196.881 129.322C204.415 130.734 212.223 130.009 219.319 127.24C226.416 124.471 232.481 119.782 236.748 113.765C241.015 107.748 243.293 100.675 243.293 93.4387C243.296 88.6335 242.293 83.8749 240.342 79.4349C238.391 74.995 235.531 70.9609 231.924 67.563C228.317 64.1652 224.035 61.4704 219.322 59.6326C214.609 57.7947 209.558 56.85 204.458 56.8523ZM204.458 117.83C202.147 117.799 199.851 117.475 197.632 116.867C199.461 114.525 200.339 111.643 200.106 108.744C199.873 105.845 198.545 103.121 196.363 101.065C194.181 99.0088 191.289 97.7578 188.211 97.5385C185.134 97.3192 182.075 98.1461 179.589 99.8693C178.174 94.9566 178.43 89.7494 180.32 84.9807C182.21 80.2119 185.641 76.1217 190.128 73.2858C194.615 70.4499 199.933 69.0111 205.334 69.1718C210.735 69.3325 215.946 71.0847 220.234 74.1818C224.522 77.2789 227.672 81.5649 229.239 86.4365C230.806 91.3082 230.712 96.5201 228.971 101.339C227.229 106.158 223.927 110.34 219.53 113.299C215.132 116.257 209.861 117.842 204.458 117.83Z" fill="#FFF5F5"/>
<path d="M204.634 145.603C187.436 145.67 170.578 141.141 155.94 132.489C141.66 124.016 129.929 112.02 122.064 97.7257C121.403 96.497 121.04 95.147 121.035 93.7656C121.03 92.3842 121.382 91.0315 122.033 89.7977L122.571 90.0959C121.949 91.2395 121.656 92.5019 121.661 93.7632C121.666 95.0245 121.999 96.3145 122.599 97.4233C130.434 111.627 142.075 123.534 156.236 131.918C170.785 140.51 187.523 145.039 204.632 144.973C238.997 144.839 270.281 126.368 286.291 96.7849C286.912 95.6413 287.205 94.3789 287.2 93.1176C287.196 91.8563 286.863 90.5663 286.262 89.4575C285.632 88.2888 284.942 87.1202 284.252 86.0118L284.757 85.7095C285.447 86.848 286.137 88.0165 286.768 89.1852C287.428 90.4139 287.791 91.7639 287.797 93.1453C287.802 94.5267 287.45 95.8795 286.799 97.1133C270.7 126.877 239.208 145.468 204.634 145.603ZM238.086 117.484L237.637 117.095C238.171 116.433 238.705 115.74 239.179 115.047C243.744 108.573 246.159 101.056 246.129 93.3078C246.119 90.7552 245.84 88.1737 245.294 85.6832C244.748 83.1928 243.933 80.7034 242.881 78.3651L243.417 78.1228C244.499 80.521 245.314 83.0104 245.86 85.5609C246.406 88.1114 246.685 90.723 246.695 93.3056C246.726 101.204 244.282 108.841 239.628 115.406C239.154 116.098 238.65 116.791 238.086 117.484ZM228.387 106.681L227.879 106.352C228.827 104.847 229.595 103.222 230.215 101.568C232.043 96.516 232.111 91.1402 230.422 86.0415C228.763 80.9427 225.467 76.511 220.924 73.2854C216.381 70.0298 210.949 68.2491 205.226 68.0912C199.503 67.9334 193.995 69.4564 189.237 72.448L188.907 71.9388C193.754 68.8567 199.381 67.3332 205.224 67.4906C211.066 67.648 216.587 69.4584 221.25 72.7736C225.883 76.089 229.269 80.6104 230.958 85.8292C232.677 91.0479 232.58 96.574 230.722 101.747C230.163 103.49 229.364 105.145 228.387 106.681ZM233.8 65.6674C229.882 62.0189 225.34 59.1837 220.236 57.2516C215.161 55.2894 209.792 54.3193 204.278 54.3408C204.278 54.3408 204.278 54.3408 204.248 54.3409L204.246 53.7403C204.246 53.7403 204.246 53.7403 204.276 53.7402C209.85 53.7184 215.278 54.7183 220.442 56.6802C225.606 58.6722 230.237 61.5371 234.186 65.2155L233.8 65.6674ZM176.301 64.6003L175.911 64.1514C177.456 62.824 179.091 61.6164 180.815 60.5286C184.264 58.3529 188.043 56.6564 192.003 55.4998L192.154 56.0698C188.224 57.1963 184.505 58.8625 181.115 61.0079C179.45 62.0955 177.816 63.3031 176.301 64.6003ZM170.961 48.0441L170.75 47.4743C181.434 43.4386 192.693 41.3526 204.227 41.3076C212.096 41.2769 219.939 42.2073 227.517 44.0697L227.37 44.6409C219.852 42.8083 212.069 41.8776 204.23 41.9082C192.755 41.9529 181.556 44.0087 170.961 48.0441Z" fill="#172553"/>
<path d="M122.064 97.7257C129.929 112.02 141.66 124.016 155.94 132.489C170.578 141.141 187.436 145.67 204.634 145.603C239.208 145.468 270.7 126.877 286.799 97.1133C287.45 95.8795 287.802 94.5267 287.797 93.1453C287.791 91.7639 287.428 90.4139 286.768 89.1853C286.137 88.0165 285.447 86.848 284.757 85.7095L284.252 86.0118C284.942 87.1202 285.632 88.2888 286.262 89.4575C286.863 90.5663 287.196 91.8563 287.2 93.1176C287.205 94.3789 286.912 95.6413 286.291 96.7849C270.281 126.368 238.997 144.839 204.632 144.973C187.523 145.039 170.785 140.51 156.236 131.918C142.075 123.534 130.434 111.627 122.599 97.4233C121.999 96.3145 121.666 95.0245 121.661 93.7632C121.656 92.5019 121.949 91.2395 122.571 90.0959L122.033 89.7977C121.382 91.0315 121.03 92.3842 121.035 93.7656C121.04 95.147 121.403 96.497 122.064 97.7257ZM122.064 97.7257L122.332 97.5745M181.115 61.0079C184.505 58.8625 188.224 57.1963 192.154 56.0698L192.003 55.4998C188.043 56.6564 184.264 58.3529 180.815 60.5286C179.091 61.6164 177.456 62.824 175.911 64.1514L176.301 64.6003C177.816 63.3031 179.45 62.0955 181.115 61.0079ZM181.115 61.0079L180.785 60.4986M238.086 117.484L237.637 117.095C238.171 116.433 238.705 115.74 239.179 115.047C243.744 108.573 246.159 101.056 246.129 93.3078C246.119 90.7552 245.84 88.1737 245.294 85.6832C244.748 83.1928 243.933 80.7034 242.881 78.3651L243.417 78.1228C244.499 80.521 245.314 83.0104 245.86 85.5609C246.406 88.1114 246.685 90.723 246.695 93.3056C246.726 101.204 244.282 108.841 239.628 115.406C239.154 116.098 238.65 116.791 238.086 117.484ZM228.387 106.681L227.879 106.352C228.827 104.847 229.595 103.222 230.215 101.568C232.043 96.516 232.111 91.1402 230.422 86.0415C228.763 80.9428 225.467 76.511 220.924 73.2854C216.381 70.0298 210.949 68.2491 205.226 68.0912C199.503 67.9334 193.995 69.4564 189.237 72.448L188.907 71.9388C193.754 68.8567 199.381 67.3332 205.224 67.4906C211.066 67.648 216.587 69.4584 221.25 72.7736C225.883 76.089 229.269 80.6104 230.958 85.8292C232.677 91.0479 232.58 96.574 230.722 101.747C230.163 103.49 229.364 105.145 228.387 106.681ZM233.8 65.6674C229.882 62.0189 225.34 59.1837 220.236 57.2516C215.161 55.2894 209.792 54.3193 204.278 54.3408C204.278 54.3408 204.278 54.3408 204.248 54.3409L204.246 53.7403C204.246 53.7403 204.246 53.7403 204.276 53.7402C209.85 53.7184 215.278 54.7183 220.442 56.6802C225.606 58.6721 230.237 61.5371 234.186 65.2155L233.8 65.6674ZM170.961 48.0441L170.75 47.4743C181.434 43.4386 192.693 41.3526 204.227 41.3076C212.096 41.2769 219.939 42.2073 227.517 44.0697L227.37 44.6409C219.852 42.8083 212.069 41.8776 204.23 41.9082C192.755 41.9529 181.556 44.0087 170.961 48.0441Z" stroke="#172553" stroke-width="0.452555"/>
<path fill-rule="evenodd" clip-rule="evenodd" d="M206.612 35.7338C206.38 35.9842 206.14 35.8639 205.85 35.7819C205.676 35.7326 205.105 35.4616 204.942 35.5364C204.754 35.6229 204.708 36.0287 204.648 36.2023C204.545 36.5046 204.441 36.8083 204.295 37.0944C204.23 37.2213 204.081 37.6792 203.96 37.765C203.891 37.8142 203.837 37.8321 203.747 37.7951C203.59 37.7302 203.673 37.6376 203.707 37.4794C203.861 36.7564 204.058 36.0396 204.382 35.369C203.935 35.1821 203.479 35.0238 203.02 34.8657C202.886 34.8193 202.581 34.7751 202.559 34.599C202.532 34.3843 202.829 34.3814 202.988 34.3957C203.222 34.4164 203.47 34.5339 203.691 34.6047C203.874 34.6632 204.253 34.8683 204.441 34.843C204.57 34.8257 204.561 34.7492 204.612 34.6128C204.66 34.4839 204.708 34.355 204.756 34.2262C204.834 34.0197 204.912 33.8141 205.004 33.6132C205.055 33.5029 205.114 33.2721 205.219 33.1923C205.28 33.146 205.5 33.0943 205.561 33.1528C205.703 33.2895 205.32 34.1987 205.267 34.3856C205.233 34.5097 205.206 34.6343 205.161 34.7546C205.143 34.8002 205.073 34.8541 205.071 34.9034C205.06 35.1126 205.225 35.1291 205.403 35.194C205.816 35.3447 206.237 35.5083 206.612 35.7338Z" fill="#FB8A89"/>
<path fill-rule="evenodd" clip-rule="evenodd" d="M129.701 125.64C129.361 126.019 129.009 125.837 128.583 125.713C128.327 125.638 127.488 125.228 127.249 125.341C126.973 125.472 126.905 126.086 126.817 126.349C126.665 126.807 126.513 127.266 126.298 127.699C126.203 127.891 125.984 128.584 125.807 128.714C125.705 128.789 125.625 128.816 125.494 128.76C125.264 128.662 125.386 128.522 125.435 128.282C125.661 127.188 125.95 126.103 126.426 125.088C125.77 124.805 125.1 124.565 124.426 124.326C124.229 124.256 123.781 124.189 123.749 123.923C123.71 123.598 124.145 123.593 124.379 123.615C124.722 123.646 125.087 123.824 125.412 123.931C125.68 124.02 126.237 124.33 126.513 124.292C126.703 124.266 126.69 124.15 126.764 123.943C126.835 123.748 126.905 123.553 126.976 123.358C127.09 123.046 127.205 122.735 127.34 122.43C127.415 122.264 127.502 121.914 127.656 121.793C127.746 121.723 128.068 121.645 128.157 121.734C128.367 121.941 127.804 123.317 127.727 123.6C127.676 123.787 127.637 123.976 127.57 124.158C127.545 124.227 127.441 124.309 127.438 124.383C127.422 124.7 127.665 124.725 127.926 124.823C128.532 125.051 129.151 125.299 129.701 125.64Z" fill="#FB8A89"/>
<path fill-rule="evenodd" clip-rule="evenodd" d="M280.735 38.3551C280.27 38.8695 279.791 38.6223 279.212 38.4539C278.864 38.3526 277.721 37.7961 277.395 37.9496C277.019 38.1272 276.926 38.9609 276.808 39.3174C276.6 39.9384 276.393 40.5621 276.101 41.1498C275.971 41.4105 275.673 42.351 275.431 42.5273C275.293 42.6284 275.184 42.6651 275.005 42.5892C274.692 42.4558 274.858 42.2656 274.925 41.9407C275.233 40.4556 275.626 38.9832 276.275 37.6059C275.381 37.2219 274.469 36.8967 273.552 36.5719C273.283 36.4767 272.672 36.3858 272.629 36.0242C272.576 35.5832 273.168 35.5772 273.488 35.6066C273.954 35.6492 274.452 35.8904 274.893 36.0359C275.258 36.156 276.017 36.5773 276.393 36.5253C276.652 36.4898 276.634 36.3326 276.735 36.0525C276.831 35.7878 276.927 35.5229 277.024 35.2584C277.179 34.8343 277.335 34.4119 277.52 33.9992C277.621 33.7727 277.739 33.2987 277.95 33.1347C278.071 33.0396 278.511 32.9335 278.632 33.0536C278.917 33.3344 278.151 35.2019 278.046 35.5859C277.976 35.8406 277.923 36.0967 277.832 36.3438C277.798 36.4374 277.657 36.5482 277.652 36.6494C277.63 37.079 277.961 37.1131 278.317 37.2463C279.142 37.5558 279.985 37.8919 280.735 38.3551Z" fill="#FB8A89"/>
<path fill-rule="evenodd" clip-rule="evenodd" d="M282.128 63.0628C281.664 63.5771 281.185 63.33 280.605 63.1616C280.257 63.0602 279.115 62.5037 278.789 62.6573C278.413 62.8349 278.32 63.6685 278.201 64.0251C277.994 64.646 277.786 65.2698 277.494 65.8574C277.365 66.1181 277.067 67.0587 276.825 67.235C276.687 67.336 276.578 67.3728 276.399 67.2969C276.086 67.1635 276.252 66.9733 276.319 66.6483C276.627 65.1632 277.02 63.6908 277.669 62.3135C276.775 61.9295 275.862 61.6044 274.945 61.2795C274.677 61.1844 274.066 61.0935 274.023 60.7319C273.97 60.2909 274.562 60.2849 274.881 60.3142C275.348 60.3568 275.845 60.598 276.287 60.7435C276.652 60.8636 277.411 61.2849 277.787 61.233C278.045 61.1975 278.027 61.0403 278.129 60.7601C278.225 60.4954 278.32 60.2306 278.417 59.966C278.573 59.5419 278.729 59.1196 278.914 58.7068C279.015 58.4803 279.133 58.0064 279.343 57.8424C279.465 57.7472 279.904 57.6411 280.026 57.7612C280.311 58.042 279.544 59.9095 279.44 60.2935C279.37 60.5483 279.317 60.8043 279.226 61.0515C279.192 61.1451 279.051 61.2559 279.046 61.357C279.024 61.7867 279.355 61.8208 279.711 61.954C280.536 62.2635 281.379 62.5995 282.128 63.0628Z" fill="#FB8A89"/>
<path fill-rule="evenodd" clip-rule="evenodd" d="M250.519 66.3153C250.535 66.9134 250.094 67.0366 249.637 67.2688C249.362 67.4081 248.33 67.7231 248.219 68.011C248.091 68.3439 248.524 68.9273 248.66 69.2231C248.897 69.7384 249.135 70.256 249.3 70.7997C249.373 71.0411 249.742 71.8124 249.696 72.0658C249.67 72.211 249.624 72.2978 249.469 72.3541C249.197 72.4529 249.188 72.2351 249.039 71.9894C248.356 70.8667 247.734 69.7018 247.325 68.448C246.548 68.7269 245.793 69.0543 245.036 69.3845C244.814 69.4812 244.384 69.7806 244.144 69.5765C243.853 69.3275 244.215 68.9773 244.429 68.809C244.742 68.5632 245.191 68.4254 245.55 68.2594C245.845 68.1224 246.562 67.9458 246.763 67.693C246.902 67.5192 246.798 67.43 246.696 67.1927C246.6 66.9686 246.503 66.7446 246.408 66.5199C246.255 66.1597 246.103 65.8003 245.974 65.4304C245.904 65.2273 245.698 64.8572 245.732 64.6302C245.751 64.4985 245.96 64.1742 246.106 64.1794C246.446 64.1911 247.071 65.8249 247.232 66.1299C247.338 66.3322 247.456 66.5258 247.545 66.7359C247.579 66.8156 247.557 66.9681 247.613 67.0354C247.852 67.3209 248.077 67.1488 248.375 67.0256C249.066 66.7392 249.784 66.4598 250.519 66.3153Z" fill="#FB8A89"/>
<path fill-rule="evenodd" clip-rule="evenodd" d="M137.704 139.177C137.598 137.895 138.929 137.734 139.302 138.696C139.675 140.085 138.024 140.405 137.704 139.177ZM137.331 139.925C139.195 141.634 140.527 139.551 139.728 138.429C138.849 137.227 135.84 137.227 137.331 139.925Z" fill="#FB8A89"/>
<path fill-rule="evenodd" clip-rule="evenodd" d="M247.146 143.86C247.044 142.689 248.319 142.543 248.677 143.421C249.034 144.689 247.452 144.981 247.146 143.86ZM246.788 144.542C248.574 146.103 249.85 144.201 249.085 143.177C248.243 142.079 245.359 142.079 246.788 144.542Z" fill="#FB8A89"/>
<path fill-rule="evenodd" clip-rule="evenodd" d="M208.178 81.7632C208.103 80.8155 209.046 80.6971 209.31 81.4078C209.574 82.4344 208.405 82.6713 208.178 81.7632ZM207.914 82.316C209.235 83.5795 210.178 82.0396 209.612 81.2104C208.989 80.322 206.858 80.322 207.914 82.316Z" fill="#FB8A89"/>
<path fill-rule="evenodd" clip-rule="evenodd" d="M254.212 81.5307C254.097 80.1371 255.539 79.9629 255.943 81.0081C256.347 82.5178 254.558 82.8662 254.212 81.5307ZM253.808 82.3436C255.827 84.2018 257.27 81.9372 256.404 80.7178C255.453 79.4113 252.193 79.4113 253.808 82.3436Z" fill="#FB8A89"/>
<path fill-rule="evenodd" clip-rule="evenodd" d="M249.046 56.3058C248.944 55.1352 250.22 54.9888 250.577 55.8668C250.935 57.135 249.353 57.4276 249.046 56.3058ZM248.689 56.9886C250.475 58.5495 251.751 56.6472 250.986 55.6229C250.144 54.5255 247.26 54.5255 248.689 56.9886Z" fill="#FB8A89"/>
<path fill-rule="evenodd" clip-rule="evenodd" d="M248.286 102.041C248.184 100.982 249.46 100.85 249.817 101.644C250.174 102.792 248.592 103.056 248.286 102.041ZM247.929 102.659C249.715 104.071 250.991 102.35 250.225 101.424C249.383 100.431 246.5 100.431 247.929 102.659Z" fill="#FB8A89"/>
<path fill-rule="evenodd" clip-rule="evenodd" d="M142.422 95.838C142.328 94.6674 143.493 94.5211 143.819 95.399C144.146 96.6672 142.701 96.9598 142.422 95.838ZM142.095 96.5209C143.726 98.0817 144.891 96.1794 144.192 95.1552C143.423 94.0577 140.791 94.0577 142.095 96.5209Z" fill="#FB8A89"/>
<g clip-path="url(#clip0_1028_7505)">
<path d="M204.361 111.799V160.876C204.361 169.929 196.977 177.081 187.925 177.081H179.707V191.011C179.707 193.065 177.363 194.252 175.726 193.033L154.475 177.079L121.949 177.543C113.115 177.543 105.744 170.378 105.744 161.107V152.894L130.399 152.894C143.979 152.894 155.053 141.82 155.053 128.242V95.5941H187.925C196.99 95.5941 204.361 102.965 204.361 111.799Z" fill="#172553"/>
<path d="M130.398 62.722H56.4361C47.3834 62.722 40 70.1054 40 78.9269V128.466C40 137.506 47.3834 144.902 56.4361 144.902L64.6541 144.905V158.837C64.6541 160.891 66.9975 162.078 68.6347 160.859L89.8861 144.906L130.398 144.877C139.451 144.909 146.835 137.511 146.835 128.461V78.9269C146.835 70.1054 139.464 62.722 130.398 62.722Z" fill="white"/>
<path opacity="0.4" d="M130.398 62.722H56.4361C47.3834 62.722 40 70.1054 40 78.9269V128.466C40 137.506 47.3834 144.902 56.4361 144.902L64.6541 144.905V158.837C64.6541 160.891 66.9975 162.078 68.6347 160.859L89.8861 144.906L130.398 144.877C139.451 144.909 146.835 137.511 146.835 128.461V78.9269C146.835 70.1054 139.464 62.722 130.398 62.722Z" fill="#172553"/>
<circle cx="68.7632" cy="102.443" r="8.21804" fill="white"/>
<circle cx="93.4175" cy="102.443" r="8.21804" fill="white"/>
<circle cx="118.072" cy="102.443" r="8.21804" fill="white"/>
</g>
<defs>
<clipPath id="clip0_1028_7505">
<rect width="164.361" height="131.489" fill="white" transform="translate(40 62.722)"/>
</clipPath>
</defs>
</svg>
