<svg width="20" height="20" viewBox="0 0 20 20" fill="none" xmlns="http://www.w3.org/2000/svg">
<path d="M17.6059 7.5H15.7621L15.2309 6.21875C14.6996 4.875 13.4184 4 11.9809 4H8.01211C6.57461 4 5.29336 4.875 4.76211 6.21875L4.23086 7.5H2.38711C2.13711 7.5 1.94961 7.75 2.01211 7.96875L2.19961 8.71875C2.23086 8.90625 2.38711 9 2.57461 9H3.19961C2.76211 9.375 2.51211 9.90625 2.51211 10.5V12C2.51211 12.5312 2.69961 12.9688 3.01211 13.3125V15C3.01211 15.5625 3.44961 16 4.01211 16H5.01211C5.54336 16 6.01211 15.5625 6.01211 15V14H14.0121V15C14.0121 15.5625 14.4496 16 15.0121 16H16.0121C16.5434 16 17.0121 15.5625 17.0121 15V13.3125C17.2934 12.9688 17.5121 12.5312 17.5121 12V10.5C17.5121 9.90625 17.2309 9.375 16.7934 9H17.4496C17.6059 9 17.7621 8.90625 17.7934 8.71875L17.9809 7.96875C18.0434 7.75 17.8559 7.5 17.6059 7.5ZM6.60586 6.96875C6.85586 6.375 7.38711 6 8.01211 6H11.9809C12.6059 6 13.1371 6.375 13.3871 6.96875L14.0121 8.5H6.01211L6.60586 6.96875ZM5.01211 12C4.38711 12 4.01211 11.625 4.01211 11C4.01211 10.4062 4.38711 10 5.01211 10C5.60586 10 6.51211 10.9062 6.51211 11.5C6.51211 12.0938 5.60586 12 5.01211 12ZM15.0121 12C14.3871 12 13.5121 12.0938 13.5121 11.5C13.5121 10.9062 14.3871 10 15.0121 10C15.6059 10 16.0121 10.4062 16.0121 11C16.0121 11.625 15.6059 12 15.0121 12Z" fill="#A9B6C6"/>
</svg>
