<svg width="20" height="20" viewBox="0 0 20 20" fill="none" xmlns="http://www.w3.org/2000/svg">
<path d="M16.6748 14.625L13.0186 8.71875V4H13.2686C13.6748 4 14.0186 3.6875 14.0186 3.25V2.75C14.0186 2.34375 13.6748 2 13.2686 2H6.76856C6.33106 2 6.01856 2.34375 6.01856 2.75V3.25C6.01856 3.6875 6.33106 4 6.76856 4H7.01856V8.71875L3.33106 14.625C2.42481 16.0938 3.48731 18 5.20606 18H14.7998C16.5186 18 17.5811 16.0938 16.6748 14.625ZM7.29981 12L8.83106 9.59375C8.92481 9.4375 8.98731 9.21875 8.98731 9V4H10.9873V9C10.9873 9.21875 11.0811 9.4375 11.1748 9.59375L12.6748 12H7.29981Z" fill="#A9B6C6"/>
</svg>
