<svg width="20" height="20" viewBox="0 0 20 20" fill="none" xmlns="http://www.w3.org/2000/svg">
<path d="M15.4375 11.2578L16.7227 5.57031C16.8047 5.16016 16.5039 4.75 16.0664 4.75H5.34766L5.10156 3.54688C5.01953 3.24609 4.74609 3 4.44531 3H1.65625C1.27344 3 1 3.30078 1 3.65625V4.09375C1 4.47656 1.27344 4.75 1.65625 4.75H3.54297L5.48438 14.1562C5.01953 14.4297 4.71875 14.9219 4.71875 15.4688C4.71875 16.3164 5.40234 17 6.25 17C7.07031 17 7.78125 16.3164 7.78125 15.4688C7.78125 15.0586 7.58984 14.6758 7.31641 14.375H13.0312C12.7578 14.6758 12.5938 15.0586 12.5938 15.4688C12.5938 16.3164 13.2773 17 14.125 17C14.9453 17 15.6562 16.3164 15.6562 15.4688C15.6562 14.8672 15.3008 14.3477 14.7812 14.1016L14.918 13.4453C15.0273 13.0352 14.6992 12.625 14.2891 12.625H6.96094L6.76953 11.75H14.7812C15.082 11.75 15.3555 11.5586 15.4375 11.2578Z" fill="#A9B6C6"/>
</svg>
