<svg width="20" height="20" viewBox="0 0 20 20" fill="none" xmlns="http://www.w3.org/2000/svg">
<path d="M9.84212 3C7.65462 3 6.23275 3.90234 5.11165 5.51562C4.92025 5.78906 4.97493 6.19922 5.27572 6.39062L6.4515 7.29297C6.72493 7.51172 7.13509 7.45703 7.35384 7.18359C8.03743 6.33594 8.55697 5.84375 9.62337 5.84375C10.471 5.84375 11.5101 6.36328 11.5101 7.18359C11.5101 7.8125 10.9906 8.11328 10.1702 8.57812C9.18587 9.125 7.90072 9.80859 7.90072 11.5039V11.75C7.90072 12.1328 8.2015 12.4062 8.55697 12.4062H10.5531C10.9085 12.4062 11.2093 12.1328 11.2093 11.75V11.6133C11.2093 10.4375 14.6273 10.3828 14.6273 7.21094C14.6273 4.83203 12.139 3 9.84212 3ZM9.56869 13.2266C8.50228 13.2266 7.65462 14.0742 7.65462 15.1133C7.65462 16.1523 8.50228 17 9.56869 17C10.6077 17 11.4554 16.1523 11.4554 15.1133C11.4554 14.0742 10.6077 13.2266 9.56869 13.2266Z" fill="#A9B6C6"/>
</svg>
