<svg width="14" height="15" viewBox="0 0 14 15" fill="none" xmlns="http://www.w3.org/2000/svg">
<path d="M7 8.625C9.16016 8.625 10.9375 6.875 10.9375 4.6875C10.9375 2.52734 9.16016 0.75 7 0.75C4.8125 0.75 3.0625 2.52734 3.0625 4.6875C3.0625 6.875 4.8125 8.625 7 8.625ZM10.5 9.5H8.96875C8.36719 9.80078 7.71094 9.9375 7 9.9375C6.28906 9.9375 5.60547 9.80078 5.00391 9.5H3.5C1.55859 9.5 0 11.0859 0 13V13.4375C0 14.1758 0.574219 14.75 1.3125 14.75H12.6875C13.3984 14.75 14 14.1758 14 13.4375V13C14 11.0859 12.4141 9.5 10.5 9.5Z" fill="#F7FAFC"/>
</svg>
