<svg width="328" height="280" viewBox="0 0 328 280" fill="none" xmlns="http://www.w3.org/2000/svg">
<g id="pictures-ministory">
<rect id="Background" width="328" height="280" fill="#0F1938"/>
<path id="Window" d="M237.6 46.6387H30.7637V210.86H237.6V46.6387Z" fill="#172553"/>
<rect id="Rectangle 963" x="84.4365" y="60.9766" width="35.0182" height="149.558" fill="#525E72"/>
<rect id="Rectangle 965" x="179.673" y="69.123" width="35.3455" height="141.412" fill="#525E72"/>
<rect id="Rectangle 962" x="46.1455" y="118.324" width="44.5091" height="92.2114" fill="#6A798E"/>
<rect id="Rectangle 964" x="113.236" y="76.291" width="51.3818" height="134.244" fill="#6A798E"/>
<rect id="Rectangle 966" x="195.382" y="95.1895" width="42.2182" height="115.346" fill="#6A798E"/>
<rect id="Rectangle 967" opacity="0.5" x="118.801" y="82.4805" width="3.27273" height="4.88753" fill="#F7FAFC"/>
<rect id="Rectangle 968" opacity="0.5" x="137.455" y="110.502" width="3.27273" height="4.88753" fill="#F7FAFC"/>
<rect id="Rectangle 970" opacity="0.5" x="147.273" y="110.502" width="3.27273" height="4.88753" fill="#F7FAFC"/>
<rect id="Rectangle 973" opacity="0.5" x="125.019" y="137.547" width="3.27273" height="4.88753" fill="#F7FAFC"/>
<rect id="Rectangle 974" opacity="0.5" x="184.255" y="73.6836" width="3.27273" height="4.88753" fill="#F7FAFC"/>
<rect id="Rectangle 975" opacity="0.5" x="189.164" y="73.6836" width="3.27273" height="4.88753" fill="#F7FAFC"/>
<rect id="Rectangle 976" opacity="0.5" x="182.618" y="104.312" width="3.27273" height="4.88753" fill="#F7FAFC"/>
<rect id="Rectangle 977" opacity="0.5" x="112.582" y="66.1895" width="3.27273" height="4.88753" fill="#F7FAFC"/>
<rect id="Rectangle 978" opacity="0.5" x="88.0371" y="88.6719" width="3.27273" height="4.88753" fill="#F7FAFC"/>
<rect id="Rectangle 981" opacity="0.5" x="54.6553" y="127.119" width="3.27273" height="4.88753" fill="#F7FAFC"/>
<rect id="Rectangle 979" opacity="0.5" x="92.6191" y="88.6719" width="3.27273" height="4.88753" fill="#F7FAFC"/>
<rect id="Rectangle 980" opacity="0.5" x="97.2002" y="88.6719" width="3.27273" height="4.88753" fill="#F7FAFC"/>
<rect id="Rectangle 971" opacity="0.5" x="152.183" y="110.502" width="3.27273" height="4.88753" fill="#F7FAFC"/>
<rect id="Rectangle 972" opacity="0.5" x="157.092" y="99.0996" width="3.27273" height="4.88753" fill="#F7FAFC"/>
<rect id="Rectangle 985" opacity="0.5" x="209.455" y="155.469" width="3.27273" height="4.88753" fill="#F7FAFC"/>
<rect id="Rectangle 986" opacity="0.5" x="198.328" y="155.469" width="3.27273" height="4.88753" fill="#F7FAFC"/>
<rect id="Rectangle 987" opacity="0.5" x="212.729" y="134.287" width="3.27273" height="4.88753" fill="#F7FAFC"/>
<rect id="Rectangle 988" opacity="0.5" x="224.51" y="174.041" width="3.27273" height="4.88753" fill="#F7FAFC"/>
<rect id="Rectangle 982" opacity="0.5" x="204.546" y="120.604" width="3.27273" height="4.88753" fill="#F7FAFC"/>
<rect id="Rectangle 983" opacity="0.5" x="217.965" y="120.604" width="3.27273" height="4.88753" fill="#F7FAFC"/>
<rect id="Rectangle 984" opacity="0.5" x="221.892" y="120.604" width="3.27273" height="4.88753" fill="#F7FAFC"/>
<path id="Window_2" d="M32.7637 208.86V48.6387H235.6V208.86H32.7637Z" stroke="black" stroke-width="4"/>
<line id="Line 389" x1="12.7211" y1="135.585" x2="201.721" y2="8.58499" stroke="#FB8A89" stroke-dasharray="6 3"/>
<path id="Vector 12" d="M144 209.575L220.161 66.5977H258L328 165.18V271.598H240.044V209.575H144Z" fill="url(#paint0_linear)" fill-opacity="0.5"/>
<path id="Vector" d="M180.049 185.77H162V209.689H180.049V185.77Z" fill="#F7FAFC"/>
<path id="Vector_2" d="M169.092 194.633H164.556V199.149H169.092V194.633Z" fill="#8D9CAF"/>
<g id="Vector_3">
<path d="M166.824 194.632V185.77V194.632Z" fill="#D7E0FF"/>
<path d="M166.824 194.632V185.77" stroke="#0F1938" stroke-width="1.5" stroke-miterlimit="10"/>
</g>
<path id="Vector_4" d="M179.781 204.095C183.204 204.095 185.979 201.332 185.979 197.923C185.979 194.515 183.204 191.752 179.781 191.752C176.357 191.752 173.582 194.515 173.582 197.923C173.582 201.332 176.357 204.095 179.781 204.095Z" stroke="#F7FAFC" stroke-width="3" stroke-miterlimit="10"/>
<path id="hairs" d="M61.1486 123.489C60.4941 119.752 57.6436 112.004 57.6436 105.243C57.6436 95.0733 63.9436 89.3223 75.8039 89.3223C84.1657 89.3223 87.4777 94.7735 88.7475 97.4681C89.8079 99.7197 89.1763 102.189 90.3643 104.529C95.0835 113.845 98.9552 112.89 105.821 124.444C107.481 127.236 108.459 137.028 107.913 140.107C104.967 140.231 101.04 141.573 101.04 141.573C99.5927 143.079 98.792 145.087 98.8079 147.171C97.4366 146.047 90.2497 140.26 81.9599 140.26C79.7279 140.26 69.0981 142.192 66.3261 144.278C65.8417 143.61 63.5803 142.401 62.6934 142.401C61.1323 142.59 59.8363 142.727 58.6123 143.147C57.2279 138.429 61.273 132.101 61.273 124.741C61.2633 124.319 61.2173 123.9 61.1355 123.486" fill="#475ABB"/>
<path id="Vector_5" d="M17.3467 160.788C18.1828 163.453 31.1503 198.638 35.1317 201.857C39.1131 205.075 51.6187 203.235 52.1761 202.5C52.7335 201.766 56.6194 167.774 56.6194 167.774L42.7282 166.857C41.06 170.988 39.4834 176.335 39.0215 177.788C37.8271 174.574 26.4203 156.756 25.9545 155.469" fill="#E2E8F0"/>
<path id="Vector_6" d="M25.2827 148.95C25.3516 146.474 27.2727 139.457 25.2827 138.784C23.2928 138.112 14.6439 134.975 15.8192 137.598C16.9946 140.22 17.5417 140.738 18.9805 141.609" fill="#E2E8F0"/>
<path id="Vector_7" d="M13.4189 150.58C8.96354 148.588 5.06716 142.444 13.4189 145.002V150.58Z" fill="#E2E8F0"/>
<path id="Vector_8" d="M8.91203 144.716C6.26222 142.149 5.3575 138.727 11.4558 140.785L8.91203 144.716Z" fill="#E2E8F0"/>
<path id="Vector_9" d="M86.1854 121.985C86.1854 121.985 85.5014 126.142 85.4491 127.446C85.2854 129.625 86.2116 142.854 86.5454 145.116C85.2363 146.566 75.7749 147.898 74.7145 147.071C74.7309 145.252 73.8014 135.865 73.4447 134.562C66.356 133.649 60.7989 125.165 60.7989 114.832C60.7946 112.763 61.024 110.699 61.4829 108.681C63.6167 107.996 66.7193 104.657 67.1905 103.435L66.6996 102.232C68.7058 108.681 80.8476 114.614 85.3083 115.129L84.824 115.891C85.4556 114.63 86.5814 113.793 87.8709 113.793C89.8345 113.793 91.4513 115.774 91.4513 118.224C91.4513 120.675 89.8476 122.656 87.8709 122.656C87.3922 122.645 86.9217 122.53 86.4933 122.317C86.065 122.104 85.6893 121.799 85.3934 121.424" fill="#E2E8F0"/>
<path id="Vector_10" d="M132.867 255.01C131.519 255.01 130.743 267.391 131.558 268.77C133.889 269.672 143.065 271.034 144.437 271.034C145.808 271.034 153.803 269.672 153.803 261.911C153.803 256.727 145.736 255.023 132.858 255.023" fill="#E2E8F0"/>
<path id="Vector_11" d="M53.8936 256.713C52.0445 256.713 32.6602 259.971 32.6602 265.986C32.6602 272.874 36.8394 275.67 39.1696 275.67C41.4998 275.67 55.8114 272.535 57.114 270.352C58.4165 268.169 53.8936 256.713 53.8936 256.713Z" fill="#E2E8F0"/>
<path id="Vector_12" d="M27.4912 189.501C29.8439 194.809 31.9622 198.928 33.2061 199.948C37.1803 203.165 50.2196 195.837 50.776 195.102C51.3324 194.367 54.6548 165.835 54.6548 165.835L40.7889 164.918C39.6403 167.764 38.5395 171.178 37.8122 173.51" stroke="#0F1938" stroke-width="1.5" stroke-linecap="round" stroke-linejoin="round"/>
<path id="Vector_13" d="M63.151 142.73C45.9463 142.73 40.1143 166.034 40.1143 168.387C40.1143 170.739 53.3295 178.931 55.1753 178.931C57.0212 178.931 68.0961 151.782 68.0961 150.019C68.0961 148.257 66.5448 142.74 63.151 142.74" fill="#737FDB"/>
<path id="Vector_14" d="M80.1165 140.683C122.024 137.937 116.146 227.03 112.926 230.539C109.705 234.048 73.4173 244.612 69.0711 242.347C64.7249 240.083 26.4602 144.199 80.1133 140.687" fill="#737FDB"/>
<path id="Vector_15" d="M98.7746 142.589C116.009 137.738 130.006 167.646 128.422 171.764C126.838 175.883 106.842 182.54 103.461 180.823C100.08 179.106 87.5557 145.747 98.7746 142.589Z" fill="#737FDB"/>
<path id="Vector_16" d="M125.523 175.018C125.523 175.018 135.286 202.968 135.286 206.096C135.286 209.224 106.064 230.286 106.064 230.286L91.1367 231.527L117.044 205.04L107.32 180.928L125.523 175.018Z" fill="#E2E8F0"/>
<path id="Vector_17" d="M48.46 220.652C65.7662 220.652 129.332 252.506 129.332 254.494C129.332 256.481 129.679 268.772 127.473 268.772C60.0553 268.772 29.8447 255.869 29.8447 233.969C29.8447 225.253 38.8742 220.652 48.46 220.652Z" fill="#3749A9"/>
<path id="Vector_18" d="M139.399 208.297C148.563 208.297 153.799 217.42 153.799 222.849C153.799 253.803 64.3064 268.772 62.1627 268.772C60.0191 268.772 57.5449 256.967 57.5449 256.064C57.5449 255.162 120.165 208.297 139.399 208.297Z" fill="#3749A9"/>
<path id="phone" d="M27.4919 155.152L16.0295 155.47L5.2373 132.324L16.6957 132.01L27.4919 155.152Z" fill="#FB8A89"/>
<path id="Vector_19" d="M35.6734 173.064C32.2572 167.006 24.2819 154.581 23.8916 153.514" stroke="#0F1938" stroke-width="1.5" stroke-linecap="round" stroke-linejoin="round"/>
<path id="Vector_20" d="M15.3826 158.728C14.963 157.168 13.742 153.189 13.4189 152.537" stroke="#0F1938" stroke-width="1.5" stroke-linecap="round" stroke-linejoin="round"/>
<path id="Vector_21" d="M131.041 253.193C130.569 253.193 130.167 254.718 129.879 256.751" stroke="#0F1938" stroke-width="1.5" stroke-linecap="round" stroke-linejoin="round"/>
<path id="Vector_22" d="M15.3828 158.729C15.8157 160.134 19.5465 170.529 23.5646 180.559" stroke="#0F1938" stroke-width="1.5" stroke-linecap="round" stroke-linejoin="round"/>
<path id="Vector_23" d="M25.2007 153.197L13.9069 153.515L3.27344 130.369L14.5633 130.055L25.2007 153.197Z" stroke="#0F1938" stroke-width="1.5" stroke-linecap="round" stroke-linejoin="round"/>
<path id="Vector_24" d="M23.646 147.325C23.7149 144.849 25.636 137.832 23.646 137.159C21.6561 136.487 13.0072 133.35 14.1825 135.973C15.3579 138.595 15.905 139.113 17.3438 139.984" stroke="#0F1938" stroke-width="1.5" stroke-linecap="round" stroke-linejoin="round"/>
<path id="Vector_25" d="M11.7821 148.953C7.32682 146.961 3.43044 140.817 11.7821 143.375" stroke="#0F1938" stroke-width="1.5" stroke-linecap="round" stroke-linejoin="round"/>
<path id="Vector_26" d="M7.27531 143.087C4.6255 140.703 3.72078 137.526 9.81912 139.437" stroke="#0F1938" stroke-width="1.5" stroke-linecap="round" stroke-linejoin="round"/>
<path id="Vector_27" d="M51.0556 144.166C41.7153 150.663 38.292 164.765 38.292 166.567C38.292 168.92 51.5073 177.105 53.3465 177.105C55.1858 177.105 66.2673 149.956 66.2673 148.19C66.2673 146.424 64.7193 140.914 61.3222 140.914" stroke="#0F1938" stroke-width="1.5" stroke-linecap="round" stroke-linejoin="round"/>
<path id="Vector_28" d="M64.6898 128.923C61.296 125.309 59.0967 119.539 59.0967 113.038C59.0926 110.969 59.3221 108.905 59.7807 106.887" stroke="#0F1938" stroke-width="1.5" stroke-linecap="round" stroke-linejoin="round"/>
<path id="Vector_29" d="M80.8076 129.451C78.5822 131.598 75.8985 132.853 73.0087 132.853C71.7657 132.851 70.5338 132.619 69.376 132.169" stroke="#0F1938" stroke-width="1.5" stroke-linecap="round" stroke-linejoin="round"/>
<path id="Vector_30" d="M83.1182 114.088C83.7498 112.827 84.8789 111.986 86.1651 111.986C88.1451 111.986 89.7454 113.971 89.7454 116.418C89.7454 118.865 88.1451 120.849 86.1651 120.849C85.6865 120.838 85.2162 120.722 84.7878 120.509C84.3595 120.296 83.9838 119.992 83.6876 119.617" stroke="#0F1938" stroke-width="1.5" stroke-linecap="round" stroke-linejoin="round"/>
<path id="Vector_31" d="M73.0088 108.875C76.9557 111.355 81.3019 113.062 83.6026 113.326" stroke="#0F1938" stroke-width="1.5" stroke-linecap="round" stroke-linejoin="round"/>
<path id="Vector_32" d="M64.9941 100.441C65.5178 102.116 66.7221 103.758 68.3029 105.277" stroke="#0F1938" stroke-width="1.5" stroke-linecap="round" stroke-linejoin="round"/>
<path id="Vector_33" d="M65.4879 101.645C65.0232 102.863 61.9141 106.206 59.7803 106.887" stroke="#0F1938" stroke-width="1.5" stroke-linecap="round" stroke-linejoin="round"/>
<path id="Vector_34" d="M90.8945 106.66C94.6647 112.036 98.2974 113.011 103.985 122.6C105.645 125.392 106.646 135.05 106.1 138.126" stroke="#0F1938" stroke-width="1.5" stroke-linecap="round" stroke-linejoin="round"/>
<path id="Vector_35" d="M73.4536 87.4766H73.9772C82.3391 87.4766 85.6543 92.931 86.9241 95.6224C87.5198 96.8834 87.5787 98.2291 87.7292 99.5553" stroke="#0F1938" stroke-width="1.5" stroke-linecap="round" stroke-linejoin="round"/>
<path id="Vector_36" d="M56.8021 141.302C55.4145 136.583 59.4596 130.256 59.4596 122.895C59.4596 119.963 55.8203 111.045 55.8203 103.394C55.8203 96.4699 58.7396 91.5954 64.349 89.1875" stroke="#0F1938" stroke-width="1.5" stroke-linecap="round" stroke-linejoin="round"/>
<path id="Vector_37" d="M84.0345 133.313C83.8185 129.853 83.6712 126.621 83.7465 125.637" stroke="#0F1938" stroke-width="1.5" stroke-linecap="round" stroke-linejoin="round"/>
<path id="Vector_38" d="M79.3838 145.042C81.858 144.622 84.234 143.974 84.8427 143.299C84.7216 142.488 84.5154 140.272 84.3322 137.662" stroke="#0F1938" stroke-width="1.5" stroke-linecap="round" stroke-linejoin="round"/>
<path id="Vector_39" d="M71.7549 132.771C72.1116 134.075 73.0443 143.459 73.0247 145.277" stroke="#0F1938" stroke-width="1.5" stroke-linecap="round" stroke-linejoin="round"/>
<path id="Vector_40" d="M57.9277 148.159C61.4034 144.044 66.1848 141.046 72.5961 139.648" stroke="#0F1938" stroke-width="1.5" stroke-linecap="round" stroke-linejoin="round"/>
<path id="Vector_41" d="M84.4473 139.158C88.996 139.943 93.2057 142.062 96.5367 145.245" stroke="#0F1938" stroke-width="1.5" stroke-linecap="round" stroke-linejoin="round"/>
<path id="Vector_42" d="M70.528 112.254C70.528 113.339 70.1058 114.209 69.5855 114.209C69.0651 114.209 68.6396 113.329 68.6396 112.254C68.6396 111.179 69.0618 110.299 69.5855 110.299C70.1091 110.299 70.528 111.179 70.528 112.254Z" fill="#0F1938"/>
<path id="Vector_43" d="M65.4882 114.219C65.3704 115.102 64.6864 118.719 63.1973 120.169" stroke="#0F1938" stroke-width="1.5" stroke-linecap="round" stroke-linejoin="round"/>
<path id="Vector_44" d="M68.2266 124.914C68.8386 125.022 71.3193 124.214 71.8953 122.549" stroke="#0F1938" stroke-width="1.5" stroke-linecap="round" stroke-linejoin="round"/>
<path id="Vector_45" d="M105.494 179.102C106.053 180.506 115.22 203.213 115.22 203.213L89.7354 229.433" stroke="#0F1938" stroke-width="1.5" stroke-linecap="round" stroke-linejoin="round"/>
<path id="Vector_46" d="M131.338 196.85C132.575 200.883 133.459 203.901 133.459 204.272C133.459 205.51 128.763 209.368 128.763 209.368" stroke="#0F1938" stroke-width="1.5" stroke-linecap="round" stroke-linejoin="round"/>
<path id="Vector_47" d="M123.7 172.645C123.7 172.645 125.242 177.447 127.101 183.312" stroke="#0F1938" stroke-width="1.5" stroke-linecap="round" stroke-linejoin="round"/>
<path id="Vector_48" d="M105.494 179.102C103.713 179.359 102.329 179.356 101.638 179.007C100.594 178.476 98.6928 174.925 96.8535 170.174" stroke="#0F1938" stroke-width="1.5" stroke-linecap="round" stroke-linejoin="round"/>
<path id="Vector_49" d="M126.083 165.814C126.675 167.753 126.868 169.236 126.593 169.946C125.759 172.113 119.825 174.983 113.898 176.968" stroke="#0F1938" stroke-width="1.5" stroke-linecap="round" stroke-linejoin="round"/>
<path id="Vector_50" d="M92.6088 153.761C91.879 147.362 92.7528 141.953 96.9484 140.77C106.469 138.092 115.004 146.019 120.466 154.348" stroke="#0F1938" stroke-width="1.5" stroke-linecap="round" stroke-linejoin="round"/>
<path id="Vector_51" d="M67.5 224.175C92.6215 233.334 127.525 251.203 127.525 252.679C127.525 254.67 127.852 266.957 125.663 266.957C58.2447 266.957 28.0342 254.051 28.0342 232.155C28.0342 223.439 37.0669 218.838 46.6495 218.838C48.1998 218.869 49.7442 219.039 51.264 219.346" stroke="#0F1938" stroke-width="1.5" stroke-linecap="round" stroke-linejoin="round"/>
<path id="Vector_52" d="M129.879 256.753C129.345 260.526 129.205 266.062 129.738 266.954C132.068 267.854 141.245 269.235 142.616 269.235C143.987 269.235 151.986 267.87 151.986 260.112C151.986 256.036 146.998 254.11 138.607 253.475" stroke="#0F1938" stroke-width="1.5" stroke-linecap="round" stroke-linejoin="round"/>
<path id="Vector_53" d="M72.9102 241.31C83.2683 233.975 96.824 224.891 109.257 217.85" stroke="#0F1938" stroke-width="1.5" stroke-linecap="round" stroke-linejoin="round"/>
<path id="Vector_54" d="M112.426 253.692C88.1615 262.59 61.5085 266.956 60.3565 266.956C58.2161 266.956 55.7354 255.151 55.7354 254.249C55.7354 254.056 58.6546 251.717 63.4263 248.172" stroke="#0F1938" stroke-width="1.5" stroke-linecap="round" stroke-linejoin="round"/>
<path id="Vector_55" d="M119.479 212.411C126.878 208.797 133.299 206.48 137.577 206.48C146.74 206.48 151.977 215.604 151.977 221.032C151.977 228.582 146.655 235.18 138.575 240.843" stroke="#0F1938" stroke-width="1.5" stroke-linecap="round" stroke-linejoin="round"/>
<path id="Vector_56" d="M48.742 271.468C51.9755 270.527 54.7475 269.458 55.2875 268.555C56.5965 266.372 52.0704 254.916 52.0704 254.916C50.2213 254.916 30.8369 258.191 30.8369 264.189C30.8369 271.077 35.0162 273.873 37.3431 273.873C38.1555 273.828 38.9637 273.725 39.7616 273.567" stroke="#0F1938" stroke-width="1.5" stroke-linecap="round" stroke-linejoin="round"/>
<path id="Vector_57" d="M312.604 262.965H282.515V271.397H312.604V262.965Z" fill="#8D9CAF"/>
<path id="Vector_58" d="M261.87 66.2981C262.811 62.9479 262.96 59.4264 262.306 56.0093C261.652 52.5921 260.213 49.3719 258.101 46.6007C255.989 43.8295 253.261 41.5825 250.132 40.0356C247.003 38.4886 243.556 37.6836 240.062 37.6836C236.568 37.6836 233.121 38.4886 229.992 40.0356C226.863 41.5825 224.135 43.8295 222.023 46.6007C219.911 49.3719 218.472 52.5921 217.818 56.0093C217.164 59.4264 217.313 62.9479 218.254 66.2981H261.87Z" fill="#283881"/>
<path id="Vector_59" d="M259.314 63.7551C260.255 60.4049 260.404 56.8835 259.75 53.4663C259.096 50.0491 257.657 46.8289 255.545 44.0578C253.433 41.2866 250.706 39.0396 247.576 37.4926C244.447 35.9456 241 35.1406 237.506 35.1406C234.012 35.1406 230.566 35.9456 227.436 37.4926C224.307 39.0396 221.579 41.2866 219.467 44.0578C217.355 46.8289 215.916 50.0491 215.262 53.4663C214.608 56.8835 214.758 60.4049 215.698 63.7551H259.314Z" stroke="#6A798E" stroke-width="2" stroke-linecap="round" stroke-linejoin="round"/>
<path id="Vector_60" d="M310.415 260.787H280.325V269.22H310.415V260.787Z" stroke="#6A798E" stroke-width="2" stroke-linecap="round" stroke-linejoin="round"/>
<path id="Vector_61" d="M295.366 260.785V23.3164H237.504V35.1475" stroke="#6A798E" stroke-width="2" stroke-linecap="round" stroke-linejoin="round"/>
<path id="Vector_62" d="M227.641 164.458C227.641 163.865 226.361 161.262 223.105 161.262C221.21 161.262 218.284 163.044 218.284 163.295C220.575 163.797 222.696 166.755 224.11 166.755C225.582 166.755 227.641 165.928 227.641 164.458Z" fill="#A8D556"/>
<path id="Vector_63" d="M261.621 207.848H199.963V216.701H261.621V207.848Z" fill="#283881"/>
<path id="Vector_64" d="M271.033 200.705H209.375V208.056H271.033V200.705Z" fill="#B9C0F2"/>
<path id="Vector_65" d="M263.955 193.355H202.297V200.706H263.955V193.355Z" fill="#283881"/>
<path id="Vector_66" d="M237.14 156.826C235.645 156.705 233.583 150.922 235.465 148.028C239.422 141.945 249.682 139.967 253.481 131.355C253.452 134.317 256.476 158.4 237.14 156.82" fill="#A8D556"/>
<path id="Vector_67" d="M230.792 177.997C230.792 167.427 238.755 150.581 243.811 147.092" stroke="#2E5019" stroke-linecap="round" stroke-linejoin="round"/>
<path id="Vector_68" d="M239.275 152.48C238.921 151.731 238.355 149.31 238.568 147.941" stroke="#2E5019" stroke-linecap="round" stroke-linejoin="round"/>
<path id="Vector_69" d="M241.939 148.816C242.568 148.982 245.405 148.79 247.006 148.314" stroke="#2E5019" stroke-linecap="round" stroke-linejoin="round"/>
<path id="Vector_70" d="M231.848 170.198C231.803 169.192 230.242 163.802 224.275 164.5" stroke="#2E5019" stroke-linecap="round" stroke-linejoin="round"/>
<path id="Vector_71" d="M226.007 164.459C225.794 163.993 224.934 163.044 224.485 162.904" stroke="#2E5019" stroke-linecap="round" stroke-linejoin="round"/>
<path id="Vector_72" d="M238.162 193.356L241.34 177.996H221.18L224.351 193.356H238.162Z" fill="#0F1938"/>
<path id="part-background" d="M193.388 94.1578C193.657 95.5092 193.841 96.8914 193.932 98.2985L192.934 98.3634C192.978 99.0328 193 99.7081 193 100.389C193 101.069 192.978 101.745 192.934 102.414L193.932 102.479C193.841 103.886 193.657 105.268 193.388 106.62L192.408 106.424C192.142 107.759 191.789 109.063 191.356 110.33L192.303 110.654C191.85 111.98 191.311 113.267 190.694 114.508L189.799 114.063C189.196 115.275 188.515 116.442 187.763 117.558L188.592 118.117C187.812 119.275 186.958 120.378 186.036 121.421L185.287 120.759C184.393 121.771 183.434 122.724 182.416 123.612L183.073 124.365C182.024 125.279 180.915 126.127 179.753 126.9L179.199 126.067C178.079 126.812 176.907 127.487 175.691 128.084L176.131 128.981C174.887 129.592 173.598 130.124 172.27 130.572L171.95 129.625C170.681 130.052 169.376 130.4 168.039 130.663L168.232 131.644C166.88 131.91 165.498 132.091 164.09 132.181L164.026 131.183C163.357 131.226 162.681 131.248 162 131.248C161.319 131.248 160.643 131.226 159.974 131.183L159.91 132.181C158.502 132.091 157.12 131.91 155.768 131.644L155.961 130.663C154.624 130.4 153.319 130.052 152.05 129.625L151.73 130.572C150.402 130.124 149.113 129.592 147.869 128.981L148.309 128.084C147.093 127.487 145.921 126.812 144.801 126.067L144.247 126.9C143.085 126.127 141.976 125.279 140.927 124.365L141.584 123.612C140.566 122.724 139.607 121.771 138.713 120.759L137.964 121.421C137.042 120.378 136.188 119.275 135.408 118.117L136.237 117.558C135.485 116.442 134.804 115.275 134.201 114.063L133.306 114.508C132.689 113.267 132.15 111.98 131.697 110.654L132.644 110.33C132.211 109.063 131.858 107.759 131.592 106.424L130.612 106.62C130.343 105.268 130.159 103.886 130.068 102.479L131.066 102.414C131.022 101.745 131 101.069 131 100.389C131 99.7081 131.022 99.0328 131.066 98.3634L130.068 98.2985C130.159 96.8914 130.343 95.5092 130.612 94.1578L131.592 94.3531C131.858 93.0181 132.211 91.7141 132.644 90.4472L131.697 90.1239C132.15 88.7977 132.689 87.5107 133.306 86.2696L134.201 86.7149C134.804 85.5025 135.485 84.3351 136.237 83.2191L135.408 82.6602C136.188 81.5029 137.042 80.3992 137.964 79.3561L138.713 80.0182C139.607 79.0066 140.566 78.0537 141.584 77.166L140.927 76.4122C141.976 75.498 143.085 74.6509 144.247 73.8776L144.801 74.7102C145.921 73.9652 147.093 73.291 148.309 72.6939L147.869 71.7962C149.113 71.1857 150.402 70.6533 151.73 70.2054L152.05 71.153C153.319 70.7252 154.624 70.377 155.961 70.1144L155.768 69.1331C157.12 68.8674 158.502 68.6865 159.91 68.5962L159.974 69.5941C160.643 69.5511 161.319 69.5293 162 69.5293C162.681 69.5293 163.357 69.5511 164.026 69.5941L164.09 68.5962C165.498 68.6865 166.88 68.8674 168.232 69.1331L168.039 70.1144C169.376 70.377 170.681 70.7252 171.95 71.153L172.27 70.2054C173.598 70.6533 174.887 71.1857 176.131 71.7962L175.691 72.6939C176.907 73.291 178.079 73.9652 179.199 74.7102L179.753 73.8776C180.915 74.6509 182.024 75.498 183.073 76.4122L182.416 77.166C183.434 78.0537 184.393 79.0066 185.287 80.0182L186.036 79.3561C186.958 80.3992 187.812 81.5029 188.592 82.6602L187.763 83.2191C188.515 84.3351 189.196 85.5025 189.799 86.7149L190.694 86.2696C191.311 87.5107 191.85 88.7977 192.303 90.1239L191.356 90.4472C191.789 91.7141 192.142 93.0181 192.408 94.3531L193.388 94.1578Z" stroke="#F7FAFC" stroke-width="2" stroke-dasharray="4 4"/>
<path id="part-lamp" d="M280.56 47.5906C280.754 48.9035 280.886 50.2367 280.951 51.5871L279.952 51.6357C279.984 52.2849 280 52.9382 280 53.5953C280 54.2524 279.984 54.9057 279.952 55.5549L280.951 55.6035C280.886 56.9539 280.754 58.2871 280.56 59.6L279.57 59.4535C279.378 60.7553 279.121 62.0366 278.805 63.294L279.775 63.5378C279.447 64.844 279.055 66.1253 278.604 67.3782L277.663 67.0393C277.219 68.2731 276.715 69.4788 276.155 70.6529L277.057 71.0834C276.479 72.2955 275.843 73.4748 275.152 74.6176L274.296 74.1002C273.619 75.2199 272.888 76.3038 272.107 77.3484L272.908 77.9472C272.106 79.0204 271.251 80.053 270.349 81.0414L269.611 80.3672C268.73 81.3319 267.802 82.2535 266.831 83.1283L267.501 83.8712C266.507 84.7666 265.469 85.6141 264.39 86.4101L263.796 85.6055C262.747 86.3797 261.659 87.104 260.534 87.7749L261.047 88.6336C259.901 89.3177 258.718 89.9475 257.502 90.5196L257.076 89.6148C255.9 90.1687 254.691 90.6671 253.455 91.1067L253.79 92.0489C252.535 92.4949 251.253 92.8817 249.945 93.2061L249.704 92.2355C248.446 92.5477 247.164 92.8006 245.861 92.991L246.005 93.9805C244.692 94.1723 243.359 94.3023 242.008 94.3671L241.96 93.3683C241.311 93.3994 240.657 93.4152 240 93.4152C239.343 93.4152 238.689 93.3994 238.04 93.3683L237.992 94.3671C236.641 94.3023 235.308 94.1723 233.995 93.9805L234.139 92.991C232.836 92.8006 231.554 92.5477 230.296 92.2355L230.055 93.2061C228.747 92.8817 227.465 92.4949 226.21 92.0489L226.545 91.1067C225.309 90.6671 224.1 90.1687 222.924 89.6148L222.498 90.5196C221.282 89.9475 220.099 89.3177 218.953 88.6336L219.466 87.7749C218.341 87.104 217.253 86.3797 216.204 85.6055L215.61 86.4101C214.531 85.6141 213.493 84.7666 212.499 83.8713L213.169 83.1283C212.198 82.2535 211.27 81.332 210.389 80.3672L209.651 81.0414C208.749 80.053 207.894 79.0204 207.092 77.9473L207.893 77.3484C207.112 76.3038 206.381 75.2199 205.704 74.1002L204.848 74.6176C204.157 73.4748 203.521 72.2955 202.943 71.0834L203.845 70.653C203.285 69.4788 202.781 68.2731 202.337 67.0393L201.396 67.3782C200.945 66.1253 200.553 64.844 200.225 63.5378L201.195 63.294C200.879 62.0366 200.622 60.7553 200.43 59.4535L199.44 59.6C199.246 58.2871 199.114 56.9539 199.049 55.6035L200.048 55.5549C200.016 54.9057 200 54.2524 200 53.5953C200 52.9382 200.016 52.2849 200.048 51.6357L199.049 51.5871C199.114 50.2367 199.246 48.9035 199.44 47.5906L200.43 47.7371C200.622 46.4353 200.879 45.154 201.195 43.8966L200.225 43.6528C200.553 42.3466 200.945 41.0653 201.396 39.8124L202.337 40.1513C202.781 38.9175 203.285 37.7118 203.845 36.5377L202.943 36.1072C203.521 34.8951 204.157 33.7158 204.848 32.573L205.704 33.0904C206.381 31.9707 207.112 30.8868 207.893 29.8422L207.092 29.2434C207.894 28.1702 208.749 27.1376 209.651 26.1492L210.389 26.8234C211.27 25.8587 212.198 24.9371 213.169 24.0623L212.499 23.3194C213.493 22.424 214.531 21.5765 215.61 20.7805L216.204 21.5851C217.253 20.8109 218.341 20.0866 219.466 19.4157L218.953 18.557C220.099 17.873 221.282 17.2431 222.498 16.671L222.924 17.5758C224.1 17.0219 225.309 16.5235 226.545 16.0839L226.21 15.1417C227.465 14.6957 228.747 14.3089 230.055 13.9845L230.296 14.9551C231.554 14.6429 232.836 14.39 234.139 14.1996L233.995 13.2101C235.308 13.0183 236.641 12.8884 237.992 12.8235L238.04 13.8223C238.689 13.7912 239.343 13.7754 240 13.7754C240.657 13.7754 241.311 13.7912 241.96 13.8223L242.008 12.8235C243.359 12.8884 244.692 13.0183 246.005 13.2101L245.861 14.1996C247.164 14.39 248.446 14.6429 249.704 14.9551L249.945 13.9845C251.253 14.3089 252.535 14.6957 253.79 15.1417L253.455 16.0839C254.691 16.5235 255.9 17.0219 257.076 17.5758L257.502 16.671C258.718 17.2431 259.901 17.8729 261.047 18.557L260.534 19.4157C261.659 20.0866 262.747 20.8109 263.796 21.5851L264.39 20.7805C265.469 21.5765 266.507 22.424 267.501 23.3194L266.831 24.0623C267.802 24.9371 268.73 25.8587 269.611 26.8234L270.349 26.1492C271.251 27.1376 272.106 28.1702 272.908 29.2434L272.107 29.8422C272.888 30.8868 273.619 31.9707 274.296 33.0904L275.152 32.573C275.843 33.7158 276.479 34.8951 277.057 36.1072L276.155 36.5377C276.715 37.7118 277.219 38.9175 277.663 40.1513L278.604 39.8124C279.055 41.0653 279.447 42.3466 279.775 43.6528L278.805 43.8966C279.121 45.154 279.378 46.4353 279.57 47.7371L280.56 47.5906Z" stroke="#F7FAFC" stroke-width="2" stroke-dasharray="4 4"/>
<path id="part-person" d="M101.427 116.451C101.679 117.718 101.851 119.013 101.936 120.332L100.939 120.397C100.979 121.024 101 121.655 101 122.292C101 122.929 100.979 123.561 100.939 124.187L101.936 124.252C101.851 125.571 101.679 126.867 101.427 128.134L100.446 127.938C100.197 129.187 99.8674 130.407 99.4625 131.592L100.409 131.915C99.9841 133.159 99.4793 134.365 98.9006 135.529L98.0052 135.083C97.4411 136.218 96.8043 137.31 96.1007 138.354L96.93 138.913C96.1988 139.998 95.398 141.032 94.534 142.01L93.7846 141.348C92.9485 142.294 92.0512 143.186 91.0988 144.016L91.7559 144.77C90.773 145.627 89.7332 146.421 88.6432 147.146L88.0894 146.314C87.0415 147.011 85.9455 147.641 84.8075 148.2L85.2481 149.098C84.082 149.67 82.8732 150.169 81.6277 150.589L81.3083 149.641C80.1214 150.042 78.9 150.367 77.6497 150.613L77.8425 151.594C76.5751 151.843 75.279 152.013 73.9597 152.098L73.8956 151.1C73.2691 151.14 72.637 151.16 72 151.16C71.363 151.16 70.7309 151.14 70.1044 151.1L70.0403 152.098C68.721 152.013 67.4249 151.843 66.1575 151.594L66.3503 150.613C65.1 150.367 63.8786 150.042 62.6917 149.641L62.3723 150.589C61.1268 150.169 59.918 149.67 58.7519 149.098L59.1925 148.2C58.0545 147.641 56.9585 147.011 55.9106 146.314L55.3568 147.146C54.2668 146.421 53.227 145.627 52.2441 144.77L52.9012 144.016C51.9488 143.186 51.0515 142.294 50.2154 141.348L49.466 142.01C48.602 141.032 47.8012 139.998 47.07 138.913L47.8993 138.354C47.1957 137.31 46.5589 136.218 45.9948 135.083L45.0994 135.529C44.5207 134.365 44.0159 133.159 43.5912 131.915L44.5375 131.592C44.1326 130.407 43.8029 129.187 43.5542 127.938L42.5735 128.134C42.3212 126.867 42.1493 125.571 42.0635 124.252L43.0614 124.187C43.0207 123.561 43 122.929 43 122.292C43 121.655 43.0207 121.024 43.0614 120.397L42.0635 120.332C42.1493 119.013 42.3212 117.718 42.5735 116.451L43.5542 116.646C43.8029 115.397 44.1326 114.177 44.5375 112.992L43.5912 112.669C44.0159 111.425 44.5207 110.219 45.0994 109.055L45.9948 109.501C46.5589 108.367 47.1957 107.274 47.8993 106.23L47.07 105.672C47.8012 104.587 48.602 103.552 49.466 102.574L50.2154 103.236C51.0515 102.29 51.9488 101.398 52.9012 100.568L52.2441 99.8141C53.227 98.957 54.2668 98.1628 55.3568 97.4378L55.9106 98.2705C56.9585 97.5735 58.0545 96.9428 59.1925 96.3842L58.7519 95.4865C59.918 94.9142 61.1268 94.415 62.3723 93.9951L62.6917 94.9427C63.8786 94.5426 65.1 94.2169 66.3503 93.9711L66.1575 92.9899C67.4249 92.7408 68.721 92.5712 70.0403 92.4865L70.1044 93.4845C70.7309 93.4443 71.363 93.4238 72 93.4238C72.637 93.4238 73.2691 93.4443 73.8956 93.4845L73.9597 92.4865C75.279 92.5712 76.5751 92.7408 77.8425 92.9899L77.6497 93.9711C78.9 94.2169 80.1214 94.5426 81.3083 94.9427L81.6277 93.9951C82.8732 94.415 84.082 94.9142 85.2481 95.4865L84.8075 96.3842C85.9455 96.9428 87.0415 97.5735 88.0894 98.2705L88.6432 97.4378C89.7332 98.1628 90.7729 98.957 91.7559 99.8141L91.0988 100.568C92.0512 101.398 92.9485 102.29 93.7846 103.236L94.534 102.574C95.398 103.552 96.1988 104.587 96.93 105.672L96.1007 106.23C96.8043 107.274 97.4411 108.367 98.0052 109.501L98.9006 109.055C99.4793 110.219 99.9841 111.425 100.409 112.669L99.4625 112.992C99.8674 114.177 100.197 115.397 100.446 116.646L101.427 116.451Z" stroke="#F7FAFC" stroke-width="2" stroke-dasharray="4 4"/>
<path id="part-plant" d="M269 166.344C269 165.659 268.981 164.978 268.943 164.301L267.945 164.357C267.87 163.019 267.721 161.702 267.501 160.408L268.487 160.241C268.257 158.886 267.952 157.557 267.576 156.258L266.615 156.536C266.245 155.256 265.803 154.005 265.296 152.789L266.218 152.404C265.691 151.141 265.095 149.915 264.434 148.729L263.56 149.216C262.913 148.056 262.203 146.936 261.434 145.86L262.247 145.278C261.453 144.169 260.599 143.106 259.688 142.095L258.945 142.764C258.058 141.779 257.117 140.844 256.126 139.964L256.791 139.216C255.774 138.313 254.705 137.465 253.591 136.678L253.014 137.495C251.935 136.733 250.81 136.029 249.646 135.388L250.128 134.512C248.939 133.858 247.71 133.268 246.444 132.747L246.064 133.671C244.846 133.17 243.594 132.734 242.312 132.367L242.586 131.406C241.286 131.034 239.957 130.733 238.602 130.506L238.437 131.492C237.143 131.275 235.825 131.128 234.487 131.054L234.542 130.056C233.866 130.019 233.185 130 232.5 130C231.815 130 231.134 130.019 230.458 130.056L230.513 131.054C229.175 131.128 227.857 131.275 226.563 131.492L226.398 130.506C225.043 130.733 223.714 131.034 222.414 131.406L222.688 132.367C221.406 132.734 220.154 133.17 218.936 133.671L218.556 132.747C217.29 133.268 216.061 133.858 214.872 134.512L215.354 135.388C214.19 136.029 213.065 136.733 211.986 137.495L211.409 136.678C210.295 137.465 209.226 138.313 208.209 139.216L208.874 139.964C207.883 140.844 206.942 141.779 206.055 142.764L205.312 142.095C204.401 143.106 203.547 144.169 202.753 145.278L203.566 145.86C202.797 146.936 202.087 148.056 201.44 149.216L200.566 148.729C199.905 149.915 199.309 151.141 198.782 152.404L199.704 152.789C199.197 154.005 198.755 155.256 198.385 156.536L197.424 156.258C197.048 157.557 196.743 158.886 196.513 160.241L197.499 160.408C197.279 161.702 197.13 163.019 197.055 164.357L196.057 164.301C196.019 164.978 196 165.659 196 166.344C196 167.03 196.019 167.711 196.057 168.387L197.055 168.331C197.13 169.669 197.279 170.986 197.499 172.28L196.513 172.448C196.743 173.802 197.048 175.131 197.424 176.431L198.385 176.152C198.755 177.433 199.197 178.683 199.704 179.899L198.782 180.284C199.309 181.547 199.905 182.773 200.566 183.959L201.44 183.472C202.087 184.633 202.797 185.753 203.566 186.828L202.753 187.41C203.547 188.519 204.401 189.582 205.312 190.593L206.055 189.924C206.942 190.909 207.883 191.844 208.874 192.724L208.209 193.472C209.226 194.375 210.295 195.223 211.409 196.01L211.986 195.193C213.065 195.955 214.19 196.659 215.354 197.3L214.872 198.176C216.061 198.83 217.29 199.42 218.556 199.941L218.936 199.017C220.154 199.518 221.406 199.955 222.688 200.321L222.414 201.282C223.714 201.654 225.043 201.955 226.398 202.182L226.563 201.196C227.857 201.413 229.175 201.56 230.513 201.634L230.458 202.632C231.134 202.669 231.815 202.688 232.5 202.688C233.185 202.688 233.866 202.669 234.542 202.632L234.487 201.634C235.825 201.56 237.143 201.413 238.437 201.196L238.602 202.182C239.957 201.955 241.286 201.654 242.586 201.282L242.312 200.321C243.594 199.955 244.846 199.518 246.064 199.017L246.444 199.941C247.71 199.42 248.939 198.83 250.128 198.176L249.646 197.3C250.81 196.659 251.935 195.955 253.014 195.193L253.591 196.01C254.705 195.223 255.774 194.375 256.791 193.472L256.126 192.724C257.117 191.844 258.058 190.909 258.945 189.924L259.688 190.593C260.599 189.582 261.453 188.519 262.247 187.41L261.434 186.828C262.203 185.753 262.913 184.633 263.56 183.472L264.434 183.959C265.095 182.773 265.691 181.547 266.218 180.284L265.296 179.899C265.803 178.683 266.245 177.433 266.615 176.152L267.576 176.431C267.952 175.131 268.257 173.802 268.487 172.448L267.501 172.28C267.721 170.986 267.87 169.669 267.945 168.331L268.943 168.387C268.981 167.711 269 167.03 269 166.344Z" stroke="#F7FAFC" stroke-width="2" stroke-dasharray="4 4"/>
<line id="Line 390" x1="28.2357" y1="145.559" x2="260.236" y2="269.559" stroke="#FB8A89" stroke-dasharray="6 3"/>
</g>
<defs>
<linearGradient id="paint0_linear" x1="236" y1="66.5977" x2="236" y2="271.598" gradientUnits="userSpaceOnUse">
<stop stop-color="#FCF79E"/>
<stop offset="1" stop-color="#FCF79E" stop-opacity="0"/>
</linearGradient>
</defs>
</svg>
