<svg width="328" height="280" viewBox="0 0 328 280" fill="none" xmlns="http://www.w3.org/2000/svg">
<g id="pictures-ministory">
<rect id="Background" width="328" height="280" fill="#0F1938"/>
<path id="Window" d="M237.6 46.6387H30.7637V210.86H237.6V46.6387Z" fill="#172553"/>
<rect id="Rectangle 963" x="84.4365" y="60.9766" width="35.0182" height="149.558" fill="#525E72"/>
<rect id="Rectangle 965" x="179.673" y="69.123" width="35.3455" height="141.412" fill="#525E72"/>
<rect id="Rectangle 962" x="46.1455" y="118.324" width="44.5091" height="92.2114" fill="#6A798E"/>
<rect id="Rectangle 964" x="113.236" y="76.291" width="51.3818" height="134.244" fill="#6A798E"/>
<rect id="Rectangle 966" x="195.382" y="95.1895" width="42.2182" height="115.346" fill="#6A798E"/>
<rect id="Rectangle 967" opacity="0.5" x="118.801" y="82.4805" width="3.27273" height="4.88753" fill="#F7FAFC"/>
<rect id="Rectangle 968" opacity="0.5" x="137.455" y="110.502" width="3.27273" height="4.88753" fill="#F7FAFC"/>
<rect id="Rectangle 970" opacity="0.5" x="147.273" y="110.502" width="3.27273" height="4.88753" fill="#F7FAFC"/>
<rect id="Rectangle 973" opacity="0.5" x="125.019" y="137.547" width="3.27273" height="4.88753" fill="#F7FAFC"/>
<rect id="Rectangle 974" opacity="0.5" x="184.255" y="73.6836" width="3.27273" height="4.88753" fill="#F7FAFC"/>
<rect id="Rectangle 975" opacity="0.5" x="189.164" y="73.6836" width="3.27273" height="4.88753" fill="#F7FAFC"/>
<rect id="Rectangle 976" opacity="0.5" x="182.618" y="104.312" width="3.27273" height="4.88753" fill="#F7FAFC"/>
<rect id="Rectangle 977" opacity="0.5" x="112.582" y="66.1895" width="3.27273" height="4.88753" fill="#F7FAFC"/>
<rect id="Rectangle 978" opacity="0.5" x="88.0371" y="88.6719" width="3.27273" height="4.88753" fill="#F7FAFC"/>
<rect id="Rectangle 981" opacity="0.5" x="54.6553" y="127.119" width="3.27273" height="4.88753" fill="#F7FAFC"/>
<rect id="Rectangle 979" opacity="0.5" x="92.6191" y="88.6719" width="3.27273" height="4.88753" fill="#F7FAFC"/>
<rect id="Rectangle 980" opacity="0.5" x="97.2002" y="88.6719" width="3.27273" height="4.88753" fill="#F7FAFC"/>
<rect id="Rectangle 971" opacity="0.5" x="152.183" y="110.502" width="3.27273" height="4.88753" fill="#F7FAFC"/>
<rect id="Rectangle 972" opacity="0.5" x="157.092" y="99.0996" width="3.27273" height="4.88753" fill="#F7FAFC"/>
<rect id="Rectangle 985" opacity="0.5" x="209.455" y="155.469" width="3.27273" height="4.88753" fill="#F7FAFC"/>
<rect id="Rectangle 986" opacity="0.5" x="198.328" y="155.469" width="3.27273" height="4.88753" fill="#F7FAFC"/>
<rect id="Rectangle 987" opacity="0.5" x="212.729" y="134.287" width="3.27273" height="4.88753" fill="#F7FAFC"/>
<rect id="Rectangle 988" opacity="0.5" x="224.51" y="174.041" width="3.27273" height="4.88753" fill="#F7FAFC"/>
<rect id="Rectangle 982" opacity="0.5" x="204.546" y="120.604" width="3.27273" height="4.88753" fill="#F7FAFC"/>
<rect id="Rectangle 983" opacity="0.5" x="217.965" y="120.604" width="3.27273" height="4.88753" fill="#F7FAFC"/>
<rect id="Rectangle 984" opacity="0.5" x="221.892" y="120.604" width="3.27273" height="4.88753" fill="#F7FAFC"/>
<path id="Window_2" d="M32.7637 208.86V48.6387H235.6V208.86H32.7637Z" stroke="black" stroke-width="4"/>
<line id="Line 389" x1="12.7211" y1="135.585" x2="201.721" y2="8.58499" stroke="#FB8A89" stroke-dasharray="6 3"/>
<path id="Vector 12" d="M144 209.575L220.161 66.5977H258L328 165.18V271.598H240.044V209.575H144Z" fill="url(#paint0_linear)" fill-opacity="0.5"/>
<path id="Vector" d="M180.049 185.77H162V209.689H180.049V185.77Z" fill="#F7FAFC"/>
<path id="Vector_2" d="M169.092 194.633H164.556V199.149H169.092V194.633Z" fill="#8D9CAF"/>
<g id="Vector_3">
<path d="M166.824 194.632V185.77V194.632Z" fill="#D7E0FF"/>
<path d="M166.824 194.632V185.77" stroke="#0F1938" stroke-width="1.5" stroke-miterlimit="10"/>
</g>
<path id="Vector_4" d="M179.781 204.095C183.204 204.095 185.979 201.332 185.979 197.923C185.979 194.515 183.204 191.752 179.781 191.752C176.357 191.752 173.582 194.515 173.582 197.923C173.582 201.332 176.357 204.095 179.781 204.095Z" stroke="#F7FAFC" stroke-width="3" stroke-miterlimit="10"/>
<path id="hairs" d="M61.1486 123.489C60.4941 119.752 57.6436 112.004 57.6436 105.243C57.6436 95.0733 63.9436 89.3223 75.8039 89.3223C84.1657 89.3223 87.4777 94.7735 88.7475 97.4681C89.8079 99.7197 89.1763 102.189 90.3643 104.529C95.0835 113.845 98.9552 112.89 105.821 124.444C107.481 127.236 108.459 137.028 107.913 140.107C104.967 140.231 101.04 141.573 101.04 141.573C99.5927 143.079 98.792 145.087 98.8079 147.171C97.4366 146.047 90.2497 140.26 81.9599 140.26C79.7279 140.26 69.0981 142.192 66.3261 144.278C65.8417 143.61 63.5803 142.401 62.6934 142.401C61.1323 142.59 59.8363 142.727 58.6123 143.147C57.2279 138.429 61.273 132.101 61.273 124.741C61.2633 124.319 61.2173 123.9 61.1355 123.486" fill="#475ABB"/>
<path id="Vector_5" d="M17.3467 160.788C18.1828 163.453 31.1503 198.638 35.1317 201.857C39.1131 205.075 51.6187 203.235 52.1761 202.5C52.7335 201.766 56.6194 167.774 56.6194 167.774L42.7282 166.857C41.06 170.988 39.4834 176.335 39.0215 177.788C37.8271 174.574 26.4203 156.756 25.9545 155.469" fill="#E2E8F0"/>
<path id="Vector_6" d="M25.2827 148.95C25.3516 146.474 27.2727 139.457 25.2827 138.784C23.2928 138.112 14.6439 134.975 15.8192 137.598C16.9946 140.22 17.5417 140.738 18.9805 141.609" fill="#E2E8F0"/>
<path id="Vector_7" d="M13.4189 150.58C8.96354 148.588 5.06716 142.444 13.4189 145.002V150.58Z" fill="#E2E8F0"/>
<path id="Vector_8" d="M8.91203 144.716C6.26222 142.149 5.3575 138.727 11.4558 140.785L8.91203 144.716Z" fill="#E2E8F0"/>
<path id="Vector_9" d="M86.1854 121.985C86.1854 121.985 85.5014 126.142 85.4491 127.446C85.2854 129.625 86.2116 142.854 86.5454 145.116C85.2363 146.566 75.7749 147.898 74.7145 147.071C74.7309 145.252 73.8014 135.865 73.4447 134.562C66.356 133.649 60.7989 125.165 60.7989 114.832C60.7946 112.763 61.024 110.699 61.4829 108.681C63.6167 107.996 66.7193 104.657 67.1905 103.435L66.6996 102.232C68.7058 108.681 80.8476 114.614 85.3083 115.129L84.824 115.891C85.4556 114.63 86.5814 113.793 87.8709 113.793C89.8345 113.793 91.4513 115.774 91.4513 118.224C91.4513 120.675 89.8476 122.656 87.8709 122.656C87.3922 122.645 86.9217 122.53 86.4933 122.317C86.065 122.104 85.6893 121.799 85.3934 121.424" fill="#E2E8F0"/>
<path id="Vector_10" d="M132.867 255.01C131.519 255.01 130.743 267.391 131.558 268.77C133.889 269.672 143.065 271.034 144.437 271.034C145.808 271.034 153.803 269.672 153.803 261.911C153.803 256.727 145.736 255.023 132.858 255.023" fill="#E2E8F0"/>
<path id="Vector_11" d="M53.8936 256.713C52.0445 256.713 32.6602 259.971 32.6602 265.986C32.6602 272.874 36.8394 275.67 39.1696 275.67C41.4998 275.67 55.8114 272.535 57.114 270.352C58.4165 268.169 53.8936 256.713 53.8936 256.713Z" fill="#E2E8F0"/>
<path id="Vector_12" d="M27.4912 189.501C29.8439 194.809 31.9622 198.928 33.2061 199.948C37.1803 203.165 50.2196 195.837 50.776 195.102C51.3324 194.367 54.6548 165.835 54.6548 165.835L40.7889 164.918C39.6403 167.764 38.5395 171.178 37.8122 173.51" stroke="#0F1938" stroke-width="1.5" stroke-linecap="round" stroke-linejoin="round"/>
<path id="Vector_13" d="M63.151 142.73C45.9463 142.73 40.1143 166.034 40.1143 168.387C40.1143 170.739 53.3295 178.931 55.1753 178.931C57.0212 178.931 68.0961 151.782 68.0961 150.019C68.0961 148.257 66.5448 142.74 63.151 142.74" fill="#737FDB"/>
<path id="Vector_14" d="M80.1165 140.683C122.024 137.937 116.146 227.03 112.926 230.539C109.705 234.048 73.4173 244.612 69.0711 242.347C64.7249 240.083 26.4602 144.199 80.1133 140.687" fill="#737FDB"/>
<path id="Vector_15" d="M98.7746 142.589C116.009 137.738 130.006 167.646 128.422 171.764C126.838 175.883 106.842 182.54 103.461 180.823C100.08 179.106 87.5557 145.747 98.7746 142.589Z" fill="#737FDB"/>
<path id="Vector_16" d="M125.523 175.018C125.523 175.018 135.286 202.968 135.286 206.096C135.286 209.224 106.064 230.286 106.064 230.286L91.1367 231.527L117.044 205.04L107.32 180.928L125.523 175.018Z" fill="#E2E8F0"/>
<path id="Vector_17" d="M48.46 220.652C65.7662 220.652 129.332 252.506 129.332 254.494C129.332 256.481 129.679 268.772 127.473 268.772C60.0553 268.772 29.8447 255.869 29.8447 233.969C29.8447 225.253 38.8742 220.652 48.46 220.652Z" fill="#3749A9"/>
<path id="Vector_18" d="M139.399 208.297C148.563 208.297 153.799 217.42 153.799 222.849C153.799 253.803 64.3064 268.772 62.1627 268.772C60.0191 268.772 57.5449 256.967 57.5449 256.064C57.5449 255.162 120.165 208.297 139.399 208.297Z" fill="#3749A9"/>
<path id="phone" d="M27.4919 155.152L16.0295 155.47L5.2373 132.324L16.6957 132.01L27.4919 155.152Z" fill="#FB8A89"/>
<path id="Vector_19" d="M35.6734 173.064C32.2572 167.006 24.2819 154.581 23.8916 153.514" stroke="#0F1938" stroke-width="1.5" stroke-linecap="round" stroke-linejoin="round"/>
<path id="Vector_20" d="M15.3826 158.728C14.963 157.168 13.742 153.189 13.4189 152.537" stroke="#0F1938" stroke-width="1.5" stroke-linecap="round" stroke-linejoin="round"/>
<path id="Vector_21" d="M131.041 253.193C130.569 253.193 130.167 254.718 129.879 256.751" stroke="#0F1938" stroke-width="1.5" stroke-linecap="round" stroke-linejoin="round"/>
<path id="Vector_22" d="M15.3828 158.729C15.8157 160.134 19.5465 170.529 23.5646 180.559" stroke="#0F1938" stroke-width="1.5" stroke-linecap="round" stroke-linejoin="round"/>
<path id="Vector_23" d="M25.2007 153.197L13.9069 153.515L3.27344 130.369L14.5633 130.055L25.2007 153.197Z" stroke="#0F1938" stroke-width="1.5" stroke-linecap="round" stroke-linejoin="round"/>
<path id="Vector_24" d="M23.646 147.325C23.7149 144.849 25.636 137.832 23.646 137.159C21.6561 136.487 13.0072 133.35 14.1825 135.973C15.3579 138.595 15.905 139.113 17.3438 139.984" stroke="#0F1938" stroke-width="1.5" stroke-linecap="round" stroke-linejoin="round"/>
<path id="Vector_25" d="M11.7821 148.953C7.32682 146.961 3.43044 140.817 11.7821 143.375" stroke="#0F1938" stroke-width="1.5" stroke-linecap="round" stroke-linejoin="round"/>
<path id="Vector_26" d="M7.27531 143.087C4.6255 140.703 3.72078 137.526 9.81912 139.437" stroke="#0F1938" stroke-width="1.5" stroke-linecap="round" stroke-linejoin="round"/>
<path id="Vector_27" d="M51.0556 144.166C41.7153 150.663 38.292 164.765 38.292 166.567C38.292 168.92 51.5073 177.105 53.3465 177.105C55.1858 177.105 66.2673 149.956 66.2673 148.19C66.2673 146.424 64.7193 140.914 61.3222 140.914" stroke="#0F1938" stroke-width="1.5" stroke-linecap="round" stroke-linejoin="round"/>
<path id="Vector_28" d="M64.6898 128.923C61.296 125.309 59.0967 119.539 59.0967 113.038C59.0926 110.969 59.3221 108.905 59.7807 106.887" stroke="#0F1938" stroke-width="1.5" stroke-linecap="round" stroke-linejoin="round"/>
<path id="Vector_29" d="M80.8076 129.451C78.5822 131.598 75.8985 132.853 73.0087 132.853C71.7657 132.851 70.5338 132.619 69.376 132.169" stroke="#0F1938" stroke-width="1.5" stroke-linecap="round" stroke-linejoin="round"/>
<path id="Vector_30" d="M83.1182 114.088C83.7498 112.827 84.8789 111.986 86.1651 111.986C88.1451 111.986 89.7454 113.971 89.7454 116.418C89.7454 118.865 88.1451 120.849 86.1651 120.849C85.6865 120.838 85.2162 120.722 84.7878 120.509C84.3595 120.296 83.9838 119.992 83.6876 119.617" stroke="#0F1938" stroke-width="1.5" stroke-linecap="round" stroke-linejoin="round"/>
<path id="Vector_31" d="M73.0088 108.875C76.9557 111.355 81.3019 113.062 83.6026 113.326" stroke="#0F1938" stroke-width="1.5" stroke-linecap="round" stroke-linejoin="round"/>
<path id="Vector_32" d="M64.9941 100.441C65.5178 102.116 66.7221 103.758 68.3029 105.277" stroke="#0F1938" stroke-width="1.5" stroke-linecap="round" stroke-linejoin="round"/>
<path id="Vector_33" d="M65.4879 101.645C65.0232 102.863 61.9141 106.206 59.7803 106.887" stroke="#0F1938" stroke-width="1.5" stroke-linecap="round" stroke-linejoin="round"/>
<path id="Vector_34" d="M90.8945 106.66C94.6647 112.036 98.2974 113.011 103.985 122.6C105.645 125.392 106.646 135.05 106.1 138.126" stroke="#0F1938" stroke-width="1.5" stroke-linecap="round" stroke-linejoin="round"/>
<path id="Vector_35" d="M73.4536 87.4766H73.9772C82.3391 87.4766 85.6543 92.931 86.9241 95.6224C87.5198 96.8834 87.5787 98.2291 87.7292 99.5553" stroke="#0F1938" stroke-width="1.5" stroke-linecap="round" stroke-linejoin="round"/>
<path id="Vector_36" d="M56.8021 141.302C55.4145 136.583 59.4596 130.256 59.4596 122.895C59.4596 119.963 55.8203 111.045 55.8203 103.394C55.8203 96.4699 58.7396 91.5954 64.349 89.1875" stroke="#0F1938" stroke-width="1.5" stroke-linecap="round" stroke-linejoin="round"/>
<path id="Vector_37" d="M84.0345 133.313C83.8185 129.853 83.6712 126.621 83.7465 125.637" stroke="#0F1938" stroke-width="1.5" stroke-linecap="round" stroke-linejoin="round"/>
<path id="Vector_38" d="M79.3838 145.042C81.858 144.622 84.234 143.974 84.8427 143.299C84.7216 142.488 84.5154 140.272 84.3322 137.662" stroke="#0F1938" stroke-width="1.5" stroke-linecap="round" stroke-linejoin="round"/>
<path id="Vector_39" d="M71.7549 132.771C72.1116 134.075 73.0443 143.459 73.0247 145.277" stroke="#0F1938" stroke-width="1.5" stroke-linecap="round" stroke-linejoin="round"/>
<path id="Vector_40" d="M57.9277 148.159C61.4034 144.044 66.1848 141.046 72.5961 139.648" stroke="#0F1938" stroke-width="1.5" stroke-linecap="round" stroke-linejoin="round"/>
<path id="Vector_41" d="M84.4473 139.158C88.996 139.943 93.2057 142.062 96.5367 145.245" stroke="#0F1938" stroke-width="1.5" stroke-linecap="round" stroke-linejoin="round"/>
<path id="Vector_42" d="M70.528 112.254C70.528 113.339 70.1058 114.209 69.5855 114.209C69.0651 114.209 68.6396 113.329 68.6396 112.254C68.6396 111.179 69.0618 110.299 69.5855 110.299C70.1091 110.299 70.528 111.179 70.528 112.254Z" fill="#0F1938"/>
<path id="Vector_43" d="M65.4882 114.219C65.3704 115.102 64.6864 118.719 63.1973 120.169" stroke="#0F1938" stroke-width="1.5" stroke-linecap="round" stroke-linejoin="round"/>
<path id="Vector_44" d="M68.2266 124.914C68.8386 125.022 71.3193 124.214 71.8953 122.549" stroke="#0F1938" stroke-width="1.5" stroke-linecap="round" stroke-linejoin="round"/>
<path id="Vector_45" d="M105.494 179.102C106.053 180.506 115.22 203.213 115.22 203.213L89.7354 229.433" stroke="#0F1938" stroke-width="1.5" stroke-linecap="round" stroke-linejoin="round"/>
<path id="Vector_46" d="M131.338 196.85C132.575 200.883 133.459 203.901 133.459 204.272C133.459 205.51 128.763 209.368 128.763 209.368" stroke="#0F1938" stroke-width="1.5" stroke-linecap="round" stroke-linejoin="round"/>
<path id="Vector_47" d="M123.7 172.645C123.7 172.645 125.242 177.447 127.101 183.312" stroke="#0F1938" stroke-width="1.5" stroke-linecap="round" stroke-linejoin="round"/>
<path id="Vector_48" d="M105.494 179.102C103.713 179.359 102.329 179.356 101.638 179.007C100.594 178.476 98.6928 174.925 96.8535 170.174" stroke="#0F1938" stroke-width="1.5" stroke-linecap="round" stroke-linejoin="round"/>
<path id="Vector_49" d="M126.083 165.814C126.675 167.753 126.868 169.236 126.593 169.946C125.759 172.113 119.825 174.983 113.898 176.968" stroke="#0F1938" stroke-width="1.5" stroke-linecap="round" stroke-linejoin="round"/>
<path id="Vector_50" d="M92.6088 153.761C91.879 147.362 92.7528 141.953 96.9484 140.77C106.469 138.092 115.004 146.019 120.466 154.348" stroke="#0F1938" stroke-width="1.5" stroke-linecap="round" stroke-linejoin="round"/>
<path id="Vector_51" d="M67.5 224.175C92.6215 233.334 127.525 251.203 127.525 252.679C127.525 254.67 127.852 266.957 125.663 266.957C58.2447 266.957 28.0342 254.051 28.0342 232.155C28.0342 223.439 37.0669 218.838 46.6495 218.838C48.1998 218.869 49.7442 219.039 51.264 219.346" stroke="#0F1938" stroke-width="1.5" stroke-linecap="round" stroke-linejoin="round"/>
<path id="Vector_52" d="M129.879 256.753C129.345 260.526 129.205 266.062 129.738 266.954C132.068 267.854 141.245 269.235 142.616 269.235C143.987 269.235 151.986 267.87 151.986 260.112C151.986 256.036 146.998 254.11 138.607 253.475" stroke="#0F1938" stroke-width="1.5" stroke-linecap="round" stroke-linejoin="round"/>
<path id="Vector_53" d="M72.9102 241.31C83.2683 233.975 96.824 224.891 109.257 217.85" stroke="#0F1938" stroke-width="1.5" stroke-linecap="round" stroke-linejoin="round"/>
<path id="Vector_54" d="M112.426 253.692C88.1615 262.59 61.5085 266.956 60.3565 266.956C58.2161 266.956 55.7354 255.151 55.7354 254.249C55.7354 254.056 58.6546 251.717 63.4263 248.172" stroke="#0F1938" stroke-width="1.5" stroke-linecap="round" stroke-linejoin="round"/>
<path id="Vector_55" d="M119.479 212.411C126.878 208.797 133.299 206.48 137.577 206.48C146.74 206.48 151.977 215.604 151.977 221.032C151.977 228.582 146.655 235.18 138.575 240.843" stroke="#0F1938" stroke-width="1.5" stroke-linecap="round" stroke-linejoin="round"/>
<path id="Vector_56" d="M48.742 271.468C51.9755 270.527 54.7475 269.458 55.2875 268.555C56.5965 266.372 52.0704 254.916 52.0704 254.916C50.2213 254.916 30.8369 258.191 30.8369 264.189C30.8369 271.077 35.0162 273.873 37.3431 273.873C38.1555 273.828 38.9637 273.725 39.7616 273.567" stroke="#0F1938" stroke-width="1.5" stroke-linecap="round" stroke-linejoin="round"/>
<path id="Vector_57" d="M312.604 262.965H282.515V271.397H312.604V262.965Z" fill="#8D9CAF"/>
<path id="Vector_58" d="M261.87 66.2981C262.811 62.9479 262.96 59.4264 262.306 56.0093C261.652 52.5921 260.213 49.3719 258.101 46.6007C255.989 43.8295 253.261 41.5825 250.132 40.0356C247.003 38.4886 243.556 37.6836 240.062 37.6836C236.568 37.6836 233.121 38.4886 229.992 40.0356C226.863 41.5825 224.135 43.8295 222.023 46.6007C219.911 49.3719 218.472 52.5921 217.818 56.0093C217.164 59.4264 217.313 62.9479 218.254 66.2981H261.87Z" fill="#283881"/>
<path id="Vector_59" d="M259.314 63.7551C260.255 60.4049 260.404 56.8835 259.75 53.4663C259.096 50.0491 257.657 46.8289 255.545 44.0578C253.433 41.2866 250.706 39.0396 247.576 37.4926C244.447 35.9456 241 35.1406 237.506 35.1406C234.012 35.1406 230.566 35.9456 227.436 37.4926C224.307 39.0396 221.579 41.2866 219.467 44.0578C217.355 46.8289 215.916 50.0491 215.262 53.4663C214.608 56.8835 214.758 60.4049 215.698 63.7551H259.314Z" stroke="#6A798E" stroke-width="2" stroke-linecap="round" stroke-linejoin="round"/>
<path id="Vector_60" d="M310.415 260.787H280.325V269.22H310.415V260.787Z" stroke="#6A798E" stroke-width="2" stroke-linecap="round" stroke-linejoin="round"/>
<path id="Vector_61" d="M295.366 260.785V23.3164H237.504V35.1475" stroke="#6A798E" stroke-width="2" stroke-linecap="round" stroke-linejoin="round"/>
<path id="Vector_62" d="M227.641 164.458C227.641 163.865 226.361 161.262 223.105 161.262C221.21 161.262 218.284 163.044 218.284 163.295C220.575 163.797 222.696 166.755 224.11 166.755C225.582 166.755 227.641 165.928 227.641 164.458Z" fill="#A8D556"/>
<path id="Vector_63" d="M261.621 207.848H199.963V216.701H261.621V207.848Z" fill="#283881"/>
<path id="Vector_64" d="M271.033 200.705H209.375V208.056H271.033V200.705Z" fill="#B9C0F2"/>
<path id="Vector_65" d="M263.955 193.355H202.297V200.706H263.955V193.355Z" fill="#283881"/>
<path id="Vector_66" d="M237.14 156.826C235.645 156.705 233.583 150.922 235.465 148.028C239.422 141.945 249.682 139.967 253.481 131.355C253.452 134.317 256.476 158.4 237.14 156.82" fill="#A8D556"/>
<path id="Vector_67" d="M230.792 177.997C230.792 167.427 238.755 150.581 243.811 147.092" stroke="#2E5019" stroke-linecap="round" stroke-linejoin="round"/>
<path id="Vector_68" d="M239.275 152.48C238.921 151.731 238.355 149.31 238.568 147.941" stroke="#2E5019" stroke-linecap="round" stroke-linejoin="round"/>
<path id="Vector_69" d="M241.939 148.816C242.568 148.982 245.405 148.79 247.006 148.314" stroke="#2E5019" stroke-linecap="round" stroke-linejoin="round"/>
<path id="Vector_70" d="M231.848 170.198C231.803 169.192 230.242 163.802 224.275 164.5" stroke="#2E5019" stroke-linecap="round" stroke-linejoin="round"/>
<path id="Vector_71" d="M226.007 164.459C225.794 163.993 224.934 163.044 224.485 162.904" stroke="#2E5019" stroke-linecap="round" stroke-linejoin="round"/>
<path id="Vector_72" d="M238.162 193.356L241.34 177.996H221.18L224.351 193.356H238.162Z" fill="#0F1938"/>
<path id="part-background" d="M193 100.389C193 117.428 179.125 131.248 162 131.248C144.875 131.248 131 117.428 131 100.389C131 83.3497 144.875 69.5293 162 69.5293C179.125 69.5293 193 83.3497 193 100.389Z" stroke="#F7FAFC" stroke-width="2"/>
<path id="part-lamp" d="M280 53.5953C280 75.5831 262.096 93.4152 240 93.4152C217.904 93.4152 200 75.5831 200 53.5953C200 31.6075 217.904 13.7754 240 13.7754C262.096 13.7754 280 31.6075 280 53.5953Z" stroke="#F7FAFC" stroke-width="2"/>
<path id="part-person" d="M101 122.292C101 138.231 88.0204 151.16 72 151.16C55.9796 151.16 43 138.231 43 122.292C43 106.353 55.9796 93.4238 72 93.4238C88.0204 93.4238 101 106.353 101 122.292Z" stroke="#F7FAFC" stroke-width="2"/>
<path id="part-plant" d="M232.5 202.688C252.654 202.688 269 186.42 269 166.344C269 146.268 252.654 130 232.5 130C212.346 130 196 146.268 196 166.344C196 186.42 212.346 202.688 232.5 202.688Z" stroke="#F7FAFC" stroke-width="2"/>
<line id="Line 390" x1="28.2357" y1="145.559" x2="260.236" y2="269.559" stroke="#FB8A89" stroke-dasharray="6 3"/>
</g>
<defs>
<linearGradient id="paint0_linear" x1="236" y1="66.5977" x2="236" y2="271.598" gradientUnits="userSpaceOnUse">
<stop stop-color="#FCF79E"/>
<stop offset="1" stop-color="#FCF79E" stop-opacity="0"/>
</linearGradient>
</defs>
</svg>
