<svg width="193" height="105" viewBox="0 0 193 105" fill="none" xmlns="http://www.w3.org/2000/svg">
<g id="companyDataTypes">
<g id="Label">
<rect y="84.9805" width="76" height="18" rx="2" fill="#F7FAFC" fill-opacity="0.7"/>
<text id="boldLabel1" fill="#0F1938" xml:space="preserve" style="white-space: pre" font-family="Jost*" font-size="13" letter-spacing="-0.01em"><tspan x="4.01871" y="98.498">8 data types</tspan></text>
</g>
<g id="Label_2">
<rect x="103" y="85.1211" width="90" height="19" rx="2" fill="#F7FAFC" fill-opacity="0.7"/>
<text id="boldLabel2" fill="#0F1938" xml:space="preserve" style="white-space: pre" font-family="Jost*" font-size="14" letter-spacing="-0.01em"><tspan x="107.12" y="99.4861">30 data types</tspan></text>
</g>
<g id="A">
<g id="A_2">
<path id="p 297.5666769078914" d="M32.469 51.0123C31.4594 51.0123 30.4911 50.6112 29.7771 49.8972C29.0632 49.1833 28.6621 48.215 28.6621 47.2054C28.6621 46.1957 29.0632 45.2274 29.7771 44.5135C30.4911 43.7995 31.4594 43.3984 32.469 43.3984C33.4787 43.3984 34.447 43.7995 35.1609 44.5135C35.8749 45.2274 36.2759 46.1957 36.2759 47.2054C36.2759 48.215 35.8749 49.1833 35.1609 49.8972C34.447 50.6112 33.4787 51.0123 32.469 51.0123Z" fill="#3749A9"/>
</g>
<g id="B">
<path id="p 305.19641827888114" d="M41.9456 51.0123C40.9359 51.0123 39.9676 50.6112 39.2537 49.8972C38.5398 49.1833 38.1387 48.215 38.1387 47.2054C38.1387 46.1957 38.5398 45.2274 39.2537 44.5135C39.9676 43.7995 40.9359 43.3984 41.9456 43.3984C42.9552 43.3984 43.9235 43.7995 44.6375 44.5135C45.3514 45.2274 45.7525 46.1957 45.7525 47.2054C45.7525 48.215 45.3514 49.1833 44.6375 49.8972C43.9235 50.6112 42.9552 51.0123 41.9456 51.0123Z" fill="#3749A9"/>
</g>
<g id="C">
<path id="p 307.9890974449685" d="M37.2093 59.2193C36.1996 59.2193 35.2313 58.8182 34.5174 58.1043C33.8034 57.3903 33.4023 56.422 33.4023 55.4124C33.4023 54.4027 33.8034 53.4344 34.5174 52.7205C35.2313 52.0066 36.1996 51.6055 37.2093 51.6055C38.2189 51.6055 39.1872 52.0066 39.9012 52.7205C40.6151 53.4344 41.0162 54.4027 41.0162 55.4124C41.0162 56.422 40.6151 57.3903 39.9012 58.1043C39.1872 58.8182 38.2189 59.2193 37.2093 59.2193Z" fill="#3749A9"/>
</g>
<g id="D">
<path id="p 294.773997741804" d="M37.2093 42.8052C36.1996 42.8052 35.2313 42.4042 34.5174 41.6902C33.8034 40.9763 33.4023 40.008 33.4023 38.9983C33.4023 37.9887 33.8034 37.0204 34.5174 36.3064C35.2313 35.5925 36.1996 35.1914 37.2093 35.1914C38.2189 35.1914 39.1872 35.5925 39.9012 36.3064C40.6151 37.0204 41.0162 37.9887 41.0162 38.9983C41.0162 40.008 40.6151 40.9763 39.9012 41.6902C39.1872 42.4042 38.2189 42.8052 37.2093 42.8052Z" fill="#3749A9"/>
</g>
<g id="E">
<path id="p 287.14425637081433" d="M27.7288 42.8052C26.7191 42.8052 25.7508 42.4042 25.0369 41.6902C24.323 40.9763 23.9219 40.008 23.9219 38.9983C23.9219 37.9887 24.323 37.0204 25.0369 36.3064C25.7508 35.5925 26.7191 35.1914 27.7288 35.1914C28.7384 35.1914 29.7068 35.5925 30.4207 36.3064C31.1346 37.0204 31.5357 37.9887 31.5357 38.9983C31.5357 40.008 31.1346 40.9763 30.4207 41.6902C29.7068 42.4042 28.7384 42.8052 27.7288 42.8052Z" fill="#3749A9"/>
</g>
<g id="F">
<path id="p 302.4037391127938" d="M46.6839 42.8052C45.6742 42.8052 44.7059 42.4042 43.992 41.6902C43.278 40.9763 42.877 40.008 42.877 38.9983C42.877 37.9887 43.278 37.0204 43.992 36.3064C44.7059 35.5925 45.6742 35.1914 46.6839 35.1914C47.6935 35.1914 48.6618 35.5925 49.3758 36.3064C50.0897 37.0204 50.4908 37.9887 50.4908 38.9983C50.4908 40.008 50.0897 40.9763 49.3758 41.6902C48.6618 42.4042 47.6935 42.8052 46.6839 42.8052Z" fill="#3749A9"/>
</g>
<g id="G">
<path id="p 315.61883881595827" d="M46.6839 59.2193C45.6742 59.2193 44.7059 58.8182 43.992 58.1043C43.278 57.3903 42.877 56.422 42.877 55.4124C42.877 54.4027 43.278 53.4344 43.992 52.7205C44.7059 52.0066 45.6742 51.6055 46.6839 51.6055C47.6935 51.6055 48.6618 52.0066 49.3758 52.7205C50.0897 53.4344 50.4908 54.4027 50.4908 55.4124C50.4908 56.422 50.0897 57.3903 49.3758 58.1043C48.6618 58.8182 47.6935 59.2193 46.6839 59.2193Z" fill="#3749A9"/>
</g>
<g id="H">
<path id="p 300.3593560739788" d="M27.7288 59.2193C26.7191 59.2193 25.7508 58.8182 25.0369 58.1043C24.323 57.3903 23.9219 56.422 23.9219 55.4124C23.9219 54.4027 24.323 53.4344 25.0369 52.7205C25.7508 52.0066 26.7191 51.6055 27.7288 51.6055C28.7384 51.6055 29.7068 52.0066 30.4207 52.7205C31.1346 53.4344 31.5357 54.4027 31.5357 55.4124C31.5357 56.422 31.1346 57.3903 30.4207 58.1043C29.7068 58.8182 28.7384 59.2193 27.7288 59.2193Z" fill="#3749A9"/>
</g>
</g>
<text id="text" fill="#0F1938" xml:space="preserve" style="white-space: pre" font-family="Jost*" font-size="12" letter-spacing="-0.01em"><tspan x="35" y="11.17">one data type</tspan></text>
<g id="B_2">
<g id="A_3">
<path id="p 178.66491167466936" d="M143.524 51.0689C142.514 51.0689 141.546 50.6678 140.832 49.9539C140.118 49.24 139.717 48.2717 139.717 47.262C139.717 46.2523 140.118 45.284 140.832 44.5701C141.546 43.8562 142.514 43.4551 143.524 43.4551C144.533 43.4551 145.502 43.8562 146.216 44.5701C146.93 45.284 147.331 46.2523 147.331 47.262C147.331 48.2717 146.93 49.24 146.216 49.9539C145.502 50.6678 144.533 51.0689 143.524 51.0689Z" fill="#3749A9"/>
</g>
<g id="B_3">
<path id="p 186.2946530456591" d="M153 51.0689C151.991 51.0689 151.022 50.6678 150.308 49.9539C149.594 49.24 149.193 48.2717 149.193 47.262C149.193 46.2523 149.594 45.284 150.308 44.5701C151.022 43.8562 151.991 43.4551 153 43.4551C154.01 43.4551 154.978 43.8562 155.692 44.5701C156.406 45.284 156.807 46.2523 156.807 47.262C156.807 48.2717 156.406 49.24 155.692 49.9539C154.978 50.6678 154.01 51.0689 153 51.0689Z" fill="#3749A9"/>
</g>
<g id="C_2">
<path id="p 189.08733221174646" d="M148.262 59.2759C147.252 59.2759 146.284 58.8749 145.57 58.1609C144.856 57.447 144.455 56.4787 144.455 55.469C144.455 54.4594 144.856 53.4911 145.57 52.7771C146.284 52.0632 147.252 51.6621 148.262 51.6621C149.272 51.6621 150.24 52.0632 150.954 52.7771C151.668 53.4911 152.069 54.4594 152.069 55.469C152.069 56.4787 151.668 57.447 150.954 58.1609C150.24 58.8749 149.272 59.2759 148.262 59.2759Z" fill="#3749A9"/>
</g>
<g id="D_2">
<path id="p 175.872232508582" d="M148.262 42.8619C147.252 42.8619 146.284 42.4608 145.57 41.7469C144.856 41.0329 144.455 40.0646 144.455 39.055C144.455 38.0453 144.856 37.077 145.57 36.3631C146.284 35.6491 147.252 35.248 148.262 35.248C149.272 35.248 150.24 35.6491 150.954 36.3631C151.668 37.077 152.069 38.0453 152.069 39.055C152.069 40.0646 151.668 41.0329 150.954 41.7469C150.24 42.4608 149.272 42.8619 148.262 42.8619Z" fill="#3749A9"/>
</g>
<g id="E_2">
<path id="p 168.24249113759225" d="M138.785 42.8619C137.776 42.8619 136.807 42.4608 136.094 41.7469C135.38 41.0329 134.979 40.0646 134.979 39.055C134.979 38.0453 135.38 37.077 136.094 36.3631C136.807 35.6491 137.776 35.248 138.785 35.248C139.795 35.248 140.763 35.6491 141.477 36.3631C142.191 37.077 142.592 38.0453 142.592 39.055C142.592 40.0646 142.191 41.0329 141.477 41.7469C140.763 42.4608 139.795 42.8619 138.785 42.8619Z" fill="#3749A9"/>
</g>
<g id="F_2">
<path id="p 183.50197387957172" d="M157.739 42.8619C156.729 42.8619 155.761 42.4608 155.047 41.7469C154.333 41.0329 153.932 40.0646 153.932 39.055C153.932 38.0453 154.333 37.077 155.047 36.3631C155.761 35.6491 156.729 35.248 157.739 35.248C158.748 35.248 159.717 35.6491 160.43 36.3631C161.144 37.077 161.545 38.0453 161.545 39.055C161.545 40.0646 161.144 41.0329 160.43 41.7469C159.717 42.4608 158.748 42.8619 157.739 42.8619Z" fill="#3749A9"/>
</g>
<g id="G_2">
<path id="p 196.7170735827362" d="M157.739 59.2759C156.729 59.2759 155.761 58.8749 155.047 58.1609C154.333 57.447 153.932 56.4787 153.932 55.469C153.932 54.4594 154.333 53.4911 155.047 52.7771C155.761 52.0632 156.729 51.6621 157.739 51.6621C158.748 51.6621 159.717 52.0632 160.43 52.7771C161.144 53.4911 161.545 54.4594 161.545 55.469C161.545 56.4787 161.144 57.447 160.43 58.1609C159.717 58.8749 158.748 59.2759 157.739 59.2759Z" fill="#3749A9"/>
</g>
<g id="H_2">
<path id="p 181.45759084075672" d="M138.785 59.2759C137.776 59.2759 136.807 58.8749 136.094 58.1609C135.38 57.447 134.979 56.4787 134.979 55.469C134.979 54.4594 135.38 53.4911 136.094 52.7771C136.807 52.0632 137.776 51.6621 138.785 51.6621C139.795 51.6621 140.763 52.0632 141.477 52.7771C142.191 53.4911 142.592 54.4594 142.592 55.469C142.592 56.4787 142.191 57.447 141.477 58.1609C140.763 58.8749 139.795 59.2759 138.785 59.2759Z" fill="#3749A9"/>
</g>
<g id="I">
<path id="p 171.0351703036796" d="M134.047 51.0689C133.037 51.0689 132.069 50.6678 131.355 49.9539C130.641 49.24 130.24 48.2717 130.24 47.262C130.24 46.2523 130.641 45.284 131.355 44.5701C132.069 43.8562 133.037 43.4551 134.047 43.4551C135.057 43.4551 136.025 43.8562 136.739 44.5701C137.453 45.284 137.854 46.2523 137.854 47.262C137.854 48.2717 137.453 49.24 136.739 49.9539C136.025 50.6678 135.057 51.0689 134.047 51.0689Z" fill="#3749A9"/>
</g>
<g id="J">
<path id="p 193.92439441664885" d="M162.477 51.0689C161.467 51.0689 160.499 50.6678 159.785 49.9539C159.071 49.24 158.67 48.2717 158.67 47.262C158.67 46.2523 159.071 45.284 159.785 44.5701C160.499 43.8562 161.467 43.4551 162.477 43.4551C163.486 43.4551 164.455 43.8562 165.169 44.5701C165.883 45.284 166.284 46.2523 166.284 47.262C166.284 48.2717 165.883 49.24 165.169 49.9539C164.455 50.6678 163.486 51.0689 162.477 51.0689Z" fill="#3749A9"/>
</g>
<g id="K">
<path id="p 204.34681495372595" d="M167.215 59.2759C166.205 59.2759 165.237 58.8749 164.523 58.1609C163.809 57.447 163.408 56.4787 163.408 55.469C163.408 54.4594 163.809 53.4911 164.523 52.7771C165.237 52.0632 166.205 51.6621 167.215 51.6621C168.225 51.6621 169.193 52.0632 169.907 52.7771C170.621 53.4911 171.022 54.4594 171.022 55.469C171.022 56.4787 170.621 57.447 169.907 58.1609C169.193 58.8749 168.225 59.2759 167.215 59.2759Z" fill="#3749A9"/>
</g>
<g id="L">
<path id="p 173.82784946976696" d="M129.309 59.2759C128.299 59.2759 127.331 58.8749 126.617 58.1609C125.903 57.447 125.502 56.4787 125.502 55.469C125.502 54.4594 125.903 53.4911 126.617 52.7771C127.331 52.0632 128.299 51.6621 129.309 51.6621C130.319 51.6621 131.287 52.0632 132.001 52.7771C132.715 53.4911 133.116 54.4594 133.116 55.469C133.116 56.4787 132.715 57.447 132.001 58.1609C131.287 58.8749 130.319 59.2759 129.309 59.2759Z" fill="#3749A9"/>
</g>
<g id="M">
<path id="p 173.07955334249465" d="M153 34.6548C151.991 34.6548 151.022 34.2538 150.308 33.5398C149.594 32.8259 149.193 31.8576 149.193 30.8479C149.193 29.8383 149.594 28.87 150.308 28.156C151.022 27.4421 151.991 27.041 153 27.041C154.01 27.041 154.978 27.4421 155.692 28.156C156.406 28.87 156.807 29.8383 156.807 30.8479C156.807 31.8576 156.406 32.8259 155.692 33.5398C154.978 34.2538 154.01 34.6548 153 34.6548Z" fill="#3749A9"/>
</g>
<g id="N">
<path id="p 191.88001137783382" d="M143.524 67.481C142.514 67.481 141.546 67.0799 140.832 66.366C140.118 65.6521 139.717 64.6838 139.717 63.6741C139.717 62.6644 140.118 61.6961 140.832 60.9822C141.546 60.2683 142.514 59.8672 143.524 59.8672C144.533 59.8672 145.502 60.2683 146.216 60.9822C146.93 61.6961 147.331 62.6644 147.331 63.6741C147.331 64.6838 146.93 65.6521 146.216 66.366C145.502 67.0799 144.533 67.481 143.524 67.481Z" fill="#3749A9"/>
</g>
<g id="O">
<path id="p 165.4498119715049" d="M143.524 34.6548C142.514 34.6548 141.546 34.2538 140.832 33.5398C140.118 32.8259 139.717 31.8576 139.717 30.8479C139.717 29.8383 140.118 28.87 140.832 28.156C141.546 27.4421 142.514 27.041 143.524 27.041C144.533 27.041 145.502 27.4421 146.216 28.156C146.93 28.87 147.331 29.8383 147.331 30.8479C147.331 31.8576 146.93 32.8259 146.216 33.5398C145.502 34.2538 144.533 34.6548 143.524 34.6548Z" fill="#3749A9"/>
</g>
<g id="P">
<path id="p 199.50975274882356" d="M153 67.481C151.991 67.481 151.022 67.0799 150.308 66.366C149.594 65.6521 149.193 64.6838 149.193 63.6741C149.193 62.6644 149.594 61.6961 150.308 60.9822C151.022 60.2683 151.991 59.8672 153 59.8672C154.01 59.8672 154.978 60.2683 155.692 60.9822C156.406 61.6961 156.807 62.6644 156.807 63.6741C156.807 64.6838 156.406 65.6521 155.692 66.366C154.978 67.0799 154.01 67.481 153 67.481Z" fill="#3749A9"/>
</g>
<g id="Q">
<path id="p 202.30243191491093" d="M148.262 75.69C147.252 75.69 146.284 75.2889 145.57 74.575C144.856 73.861 144.455 72.8927 144.455 71.8831C144.455 70.8734 144.856 69.9051 145.57 69.1912C146.284 68.4773 147.252 68.0762 148.262 68.0762C149.272 68.0762 150.24 68.4773 150.954 69.1912C151.668 69.9051 152.069 70.8734 152.069 71.8831C152.069 72.8927 151.668 73.861 150.954 74.575C150.24 75.2889 149.272 75.69 148.262 75.69Z" fill="#3749A9"/>
</g>
<g id="R">
<path id="p 162.65713280541752" d="M148.262 26.4459C147.252 26.4459 146.284 26.0448 145.57 25.3308C144.856 24.6169 144.455 23.6486 144.455 22.6389C144.455 21.6293 144.856 20.661 145.57 19.9471C146.284 19.2331 147.252 18.832 148.262 18.832C149.272 18.832 150.24 19.2331 150.954 19.9471C151.668 20.661 152.069 21.6293 152.069 22.6389C152.069 23.6486 151.668 24.6169 150.954 25.3308C150.24 26.0448 149.272 26.4459 148.262 26.4459Z" fill="#3749A9"/>
</g>
<g id="S">
<path id="p 191.13171525056148" d="M167.215 42.8619C166.205 42.8619 165.237 42.4608 164.523 41.7469C163.809 41.0329 163.408 40.0646 163.408 39.055C163.408 38.0453 163.809 37.077 164.523 36.3631C165.237 35.6491 166.205 35.248 167.215 35.248C168.225 35.248 169.193 35.6491 169.907 36.3631C170.621 37.077 171.022 38.0453 171.022 39.055C171.022 40.0646 170.621 41.0329 169.907 41.7469C169.193 42.4608 168.225 42.8619 167.215 42.8619Z" fill="#3749A9"/>
</g>
<g id="T">
<path id="p 160.6127497666025" d="M129.309 42.8619C128.299 42.8619 127.331 42.4608 126.617 41.7469C125.903 41.0329 125.502 40.0646 125.502 39.055C125.502 38.0453 125.903 37.077 126.617 36.3631C127.331 35.6491 128.299 35.248 129.309 35.248C130.319 35.248 131.287 35.6491 132.001 36.3631C132.715 37.077 133.116 38.0453 133.116 39.055C133.116 40.0646 132.715 41.0329 132.001 41.7469C131.287 42.4608 130.319 42.8619 129.309 42.8619Z" fill="#3749A9"/>
</g>
<g id="U">
<path id="p 157.82007060051512" d="M134.047 34.6548C133.037 34.6548 132.069 34.2538 131.355 33.5398C130.641 32.8259 130.24 31.8576 130.24 30.8479C130.24 29.8383 130.641 28.87 131.355 28.156C132.069 27.4421 133.037 27.041 134.047 27.041C135.057 27.041 136.025 27.4421 136.739 28.156C137.453 28.87 137.854 29.8383 137.854 30.8479C137.854 31.8576 137.453 32.8259 136.739 33.5398C136.025 34.2538 135.057 34.6548 134.047 34.6548Z" fill="#3749A9"/>
</g>
<g id="V">
<path id="p 207.13949411981332" d="M162.477 67.481C161.467 67.481 160.499 67.0799 159.785 66.366C159.071 65.6521 158.67 64.6838 158.67 63.6741C158.67 62.6644 159.071 61.6961 159.785 60.9822C160.499 60.2683 161.467 59.8672 162.477 59.8672C163.486 59.8672 164.455 60.2683 165.169 60.9822C165.883 61.6961 166.284 62.6644 166.284 63.6741C166.284 64.6838 165.883 65.6521 165.169 66.366C164.455 67.0799 163.486 67.481 162.477 67.481Z" fill="#3749A9"/>
</g>
<g id="W">
<path id="p 184.25027000684406" d="M134.047 67.481C133.037 67.481 132.069 67.0799 131.355 66.366C130.641 65.6521 130.24 64.6838 130.24 63.6741C130.24 62.6644 130.641 61.6961 131.355 60.9822C132.069 60.2683 133.037 59.8672 134.047 59.8672C135.057 59.8672 136.025 60.2683 136.739 60.9822C137.453 61.6961 137.854 62.6644 137.854 63.6741C137.854 64.6838 137.453 65.6521 136.739 66.366C136.025 67.0799 135.057 67.481 134.047 67.481Z" fill="#3749A9"/>
</g>
<g id="X">
<path id="p 180.70929471348438" d="M162.477 34.6548C161.467 34.6548 160.499 34.2538 159.785 33.5398C159.071 32.8259 158.67 31.8576 158.67 30.8479C158.67 29.8383 159.071 28.87 159.785 28.156C160.499 27.4421 161.467 27.041 162.477 27.041C163.486 27.041 164.455 27.4421 165.169 28.156C165.883 28.87 166.284 29.8383 166.284 30.8479C166.284 31.8576 165.883 32.8259 165.169 33.5398C164.455 34.2538 163.486 34.6548 162.477 34.6548Z" fill="#3749A9"/>
</g>
<g id="CC">
<path id="p 163.40542893268986" d="M124.571 51.0689C123.561 51.0689 122.593 50.6678 121.879 49.9539C121.165 49.24 120.764 48.2717 120.764 47.262C120.764 46.2523 121.165 45.284 121.879 44.5701C122.593 43.8562 123.561 43.4551 124.571 43.4551C125.58 43.4551 126.549 43.8562 127.262 44.5701C127.976 45.284 128.378 46.2523 128.378 47.262C128.378 48.2717 127.976 49.24 127.262 49.9539C126.549 50.6678 125.58 51.0689 124.571 51.0689Z" fill="#3749A9"/>
</g>
<g id="EE">
<path id="p 201.5541357876386" d="M171.955 51.0689C170.946 51.0689 169.977 50.6678 169.263 49.9539C168.55 49.24 168.148 48.2717 168.148 47.262C168.148 46.2523 168.55 45.284 169.263 44.5701C169.977 43.8562 170.946 43.4551 171.955 43.4551C172.965 43.4551 173.933 43.8562 174.647 44.5701C175.361 45.284 175.762 46.2523 175.762 47.262C175.762 48.2717 175.361 49.24 174.647 49.9539C173.933 50.6678 172.965 51.0689 171.955 51.0689Z" fill="#3749A9"/>
</g>
<g id="GG">
<path id="p 194.6726905439212" d="M138.785 75.69C137.776 75.69 136.807 75.2889 136.094 74.575C135.38 73.861 134.979 72.8927 134.979 71.8831C134.979 70.8734 135.38 69.9051 136.094 69.1912C136.807 68.4773 137.776 68.0762 138.785 68.0762C139.795 68.0762 140.763 68.4773 141.477 69.1912C142.191 69.9051 142.592 70.8734 142.592 71.8831C142.592 72.8927 142.191 73.861 141.477 74.575C140.763 75.2889 139.795 75.69 138.785 75.69Z" fill="#3749A9"/>
</g>
<g id="HH">
<path id="p 170.28687417640728" d="M157.739 26.4459C156.729 26.4459 155.761 26.0448 155.047 25.3308C154.333 24.6169 153.932 23.6486 153.932 22.6389C153.932 21.6293 154.333 20.661 155.047 19.9471C155.761 19.2331 156.729 18.832 157.739 18.832C158.748 18.832 159.717 19.2331 160.43 19.9471C161.144 20.661 161.545 21.6293 161.545 22.6389C161.545 23.6486 161.144 24.6169 160.43 25.3308C159.717 26.0448 158.748 26.4459 157.739 26.4459Z" fill="#3749A9"/>
</g>
<g id="II">
<path id="p 209.93217328590066" d="M157.739 75.69C156.729 75.69 155.761 75.2889 155.047 74.575C154.333 73.861 153.932 72.8927 153.932 71.8831C153.932 70.8734 154.333 69.9051 155.047 69.1912C155.761 68.4773 156.729 68.0762 157.739 68.0762C158.748 68.0762 159.717 68.4773 160.43 69.1912C161.144 69.9051 161.545 70.8734 161.545 71.8831C161.545 72.8927 161.144 73.861 160.43 74.575C159.717 75.2889 158.748 75.69 157.739 75.69Z" fill="#3749A9"/>
</g>
<g id="JJ">
<path id="p 155.02739143442778" d="M138.785 26.4459C137.776 26.4459 136.807 26.0448 136.094 25.3308C135.38 24.6169 134.979 23.6486 134.979 22.6389C134.979 21.6293 135.38 20.661 136.094 19.9471C136.807 19.2331 137.776 18.832 138.785 18.832C139.795 18.832 140.763 19.2331 141.477 19.9471C142.191 20.661 142.592 21.6293 142.592 22.6389C142.592 23.6486 142.191 24.6169 141.477 25.3308C140.763 26.0448 139.795 26.4459 138.785 26.4459Z" fill="#3749A9"/>
</g>
</g>
<line id="Line 272" x1="37.5" y1="34" x2="37.5" y2="14" stroke="#0F1938"/>
</g>
</svg>
