<svg width="308" height="217" viewBox="0 0 308 217" fill="none" xmlns="http://www.w3.org/2000/svg">
<g id="featuredCompany">
<g id="Bar">
<text id="115" fill="#3749A9" xml:space="preserve" style="white-space: pre" font-family="Jost*" font-size="12" letter-spacing="-0.01em"><tspan x="260.128" y="112.17">115</tspan></text>
<text id="30" opacity="0.7" fill="#3749A9" xml:space="preserve" style="white-space: pre" font-family="Jost*" font-size="12" letter-spacing="-0.01em"><tspan x="89.567" y="112.17">30</tspan></text>
<rect id="Rectangle 693" x="15.2207" y="88.5" width="264.88" height="11" rx="5.5" stroke="#3749A9"/>
<path id="Rectangle 692" d="M14.7207 94C14.7207 90.6863 17.407 88 20.7207 88H81.8807V100H20.7207C17.407 100 14.7207 97.3137 14.7207 94Z" fill="#3749A9"/>
<line id="Line 164" opacity="0.7" x1="96.5" y1="88" x2="96.5" y2="100" stroke="#3749A9"/>
<text id="highlighted1" fill="#3749A9" xml:space="preserve" style="white-space: pre" font-family="Jost*" font-size="24" letter-spacing="-0.01em"><tspan x="14.7207" y="78.84">25 Dateneinträge</tspan></text>
</g>
<text id="text2" fill="#0F1938" xml:space="preserve" style="white-space: pre" font-family="Jost*" font-size="12" letter-spacing="-0.01em"><tspan x="0" y="158.17">Durchschnittlicher Wert </tspan><tspan x="0" y="172.17">aller derzeit verf&#xfc;gbaren </tspan><tspan x="0" y="186.17">Firmeninformationen in </tspan><tspan x="0" y="200.17">dieser Kategorie.</tspan></text>
<text id="text1" fill="#0F1938" xml:space="preserve" style="white-space: pre" font-family="Jost*" font-size="12" letter-spacing="-0.01em"><tspan x="15" y="11.17">Maximale Anzahl </tspan><tspan x="15" y="25.17">f&#xfc;r diese Firma.</tspan></text>
<line id="Line 163" x1="96.5" y1="143" x2="96.5" y2="118" stroke="#0F1938"/>
<line id="Line 166" x1="47.5" y1="56" x2="47.5" y2="31" stroke="#0F1938"/>
<line id="Line 165" x1="271.5" y1="143" x2="271.5" y2="118" stroke="#0F1938"/>
<text id="text3" fill="#0F1938" xml:space="preserve" style="white-space: pre" font-family="Jost*" font-size="12" letter-spacing="-0.01em"><tspan x="166" y="158.17">Wert der Firma, die in </tspan><tspan x="166" y="172.17">dieser Kategorie von allen </tspan><tspan x="166" y="186.17">derzeit verf&#xfc;gbaren </tspan><tspan x="166" y="200.17">Firmeninformationen, den </tspan><tspan x="166" y="214.17">h&#xf6;chsten Wert aufweist. </tspan></text>
</g>
</svg>
