<svg width="235" height="249" viewBox="0 0 235 249" fill="none" xmlns="http://www.w3.org/2000/svg">
<g id="packedCircleInfo">
<g id="viz">
<g id="nodes">
<g id="1">
<path id="p 276.0756693618554" d="M88.4091 171.283C71.6176 171.283 55.5138 164.613 43.6404 152.739C31.7671 140.866 25.0967 124.762 25.0967 107.971C25.0967 91.1791 31.7671 75.0753 43.6404 63.202C55.5138 51.3286 71.6176 44.6582 88.4091 44.6582C105.201 44.6582 121.304 51.3286 133.178 63.202C145.051 75.0753 151.721 91.1791 151.721 107.971C151.721 124.762 145.051 140.866 133.178 152.739C121.304 164.613 105.201 171.283 88.4091 171.283V171.283Z" stroke="#0F1938"/>
</g>
<g id="2">
<path id="p 364.6432178263151" d="M193.544 148.229C188.257 148.229 183.022 147.187 178.138 145.164C173.253 143.141 168.815 140.176 165.077 136.437C161.338 132.699 158.373 128.261 156.35 123.376C154.326 118.492 153.285 113.257 153.285 107.97C153.285 102.683 154.326 97.4478 156.35 92.5634C158.373 87.679 161.338 83.2409 165.077 79.5025C168.815 75.7641 173.253 72.7987 178.138 70.7755C183.022 68.7523 188.257 67.7109 193.544 67.7109C198.831 67.7109 204.066 68.7523 208.95 70.7755C213.835 72.7987 218.273 75.7641 222.011 79.5025C225.75 83.2409 228.715 87.679 230.738 92.5634C232.762 97.4478 233.803 102.683 233.803 107.97C233.803 113.257 232.762 118.492 230.738 123.376C228.715 128.261 225.75 132.699 222.011 136.437C218.273 140.176 213.835 143.141 208.95 145.164C204.066 147.187 198.831 148.229 193.544 148.229V148.229Z" stroke="#0F1938"/>
</g>
<g id="4">
<path id="p 389.05799704985026" d="M159.615 204.787C151.221 204.787 143.172 201.452 137.236 195.517C131.301 189.582 127.967 181.532 127.967 173.138C127.967 164.745 131.301 156.695 137.236 150.76C143.172 144.825 151.221 141.49 159.615 141.49C168.009 141.49 176.058 144.825 181.994 150.76C187.929 156.695 191.263 164.745 191.263 173.138C191.263 181.532 187.929 189.582 181.994 195.517C176.058 201.452 168.009 204.787 159.615 204.787V204.787Z" stroke="#0F1938"/>
</g>
<g id="3">
<path id="p 248.7823620420906" d="M158.266 76.1302C154.918 76.1302 151.602 75.4707 148.508 74.1893C145.415 72.9078 142.604 71.0296 140.236 68.6618C137.868 66.2941 135.99 63.4831 134.709 60.3895C133.427 57.2958 132.768 53.9801 132.768 50.6315C132.768 47.283 133.427 43.9672 134.709 40.8736C135.99 37.7799 137.868 34.969 140.236 32.6012C142.604 30.2334 145.415 28.3552 148.508 27.0738C151.602 25.7924 154.918 25.1328 158.266 25.1328C161.615 25.1328 164.931 25.7924 168.024 27.0738C171.118 28.3552 173.929 30.2334 176.297 32.6012C178.664 34.969 180.543 37.7799 181.824 40.8736C183.105 43.9672 183.765 47.283 183.765 50.6315C183.765 53.9801 183.105 57.2958 181.824 60.3895C180.543 63.4831 178.664 66.2941 176.297 68.6618C173.929 71.0296 171.118 72.9078 168.024 74.1893C164.931 75.4707 161.615 76.1302 158.266 76.1302V76.1302Z" stroke="#0F1938"/>
</g>
<g id="6">
<path id="p 171.64889820962088" d="M115.536 47.3759C109.386 47.3759 103.488 44.9329 99.1392 40.5843C94.7907 36.2357 92.3477 30.3378 92.3477 24.1879C92.3477 18.0381 94.7907 12.1402 99.1392 7.79159C103.488 3.44301 109.386 1 115.536 1C121.685 1 127.583 3.44301 131.932 7.79159C136.281 12.1402 138.724 18.0381 138.724 24.1879C138.724 30.3378 136.281 36.2357 131.932 40.5843C127.583 44.9329 121.685 47.3759 115.536 47.3759V47.3759Z" stroke="#0F1938"/>
</g>
<g id="8">
<path id="p 339.1640296898168" d="M71.1171 44.8494C66.0397 44.8494 61.1702 42.8324 57.5799 39.2421C53.9897 35.6519 51.9727 30.7824 51.9727 25.705C51.9727 20.6276 53.9897 15.7581 57.5799 12.1678C61.1702 8.57754 66.0397 6.56055 71.1171 6.56055C76.1945 6.56055 81.064 8.57754 84.6542 12.1678C88.2445 15.7581 90.2615 20.6276 90.2615 25.705C90.2615 30.7824 88.2445 35.6519 84.6542 39.2421C81.064 42.8324 76.1945 44.8494 71.1171 44.8494V44.8494Z" stroke="#0F1938"/>
</g>
<g id="12">
<path id="p 417.1657226672997" d="M208.971 181.482C204.495 181.482 200.203 179.704 197.038 176.54C193.874 173.375 192.096 169.083 192.096 164.607C192.096 160.132 193.874 155.84 197.038 152.675C200.203 149.51 204.495 147.732 208.971 147.732C213.446 147.732 217.738 149.51 220.903 152.675C224.067 155.84 225.845 160.132 225.845 164.607C225.845 169.083 224.067 173.375 220.903 176.54C217.738 179.704 213.446 181.482 208.971 181.482V181.482Z" stroke="#0F1938"/>
</g>
<g id="14">
<path id="p 123.6271336634113" d="M37.3367 60.6988C32.8612 60.6988 28.5691 58.921 25.4044 55.7563C22.2398 52.5917 20.4619 48.2995 20.4619 43.824C20.4619 39.3485 22.2398 35.0564 25.4044 31.8917C28.5691 28.7271 32.8612 26.9492 37.3367 26.9492C41.8122 26.9492 46.1044 28.7271 49.269 31.8917C52.4336 35.0564 54.2115 39.3485 54.2115 43.824C54.2115 48.2995 52.4336 52.5917 49.269 55.7563C46.1044 58.921 41.8122 60.6988 37.3367 60.6988V60.6988Z" stroke="#0F1938"/>
</g>
<g id="16">
<path id="p 293.99684964797603" d="M16.7194 87.1185C12.5504 87.1185 8.55207 85.4624 5.60411 82.5144C2.65615 79.5665 1 75.5682 1 71.3991C1 67.2301 2.65615 63.2318 5.60411 60.2838C8.55207 57.3358 12.5504 55.6797 16.7194 55.6797C20.8885 55.6797 24.8868 57.3358 27.8347 60.2838C30.7827 63.2318 32.4388 67.2301 32.4388 71.3991C32.4388 75.5682 30.7827 79.5665 27.8347 82.5144C24.8868 85.4624 20.8885 87.1185 16.7194 87.1185V87.1185Z" stroke="#0F1938"/>
</g>
<g id="18">
<path id="p 182.43457073282195" d="M147.73 25.1776C145.542 25.1776 143.443 24.3083 141.896 22.7609C140.349 21.2136 139.479 19.1149 139.479 16.9267C139.479 14.7384 140.349 12.6398 141.896 11.0924C143.443 9.54507 145.542 8.67578 147.73 8.67578C149.919 8.67578 152.017 9.54507 153.565 11.0924C155.112 12.6398 155.981 14.7384 155.981 16.9267C155.981 19.1149 155.112 21.2136 153.565 22.7609C152.017 24.3083 149.919 25.1776 147.73 25.1776V25.1776Z" stroke="#0F1938"/>
</g>
<g id="Bass Drum">
<path id="p 201.98097686517303" d="M76.0456 114.976C72.9742 114.976 70.0286 113.756 67.8568 111.584C65.685 109.412 64.4648 106.467 64.4648 103.395C64.4648 100.324 65.685 97.3782 67.8568 95.2064C70.0286 93.0346 72.9742 91.8145 76.0456 91.8145C79.117 91.8145 82.0626 93.0346 84.2345 95.2064C86.4063 97.3782 87.6264 100.324 87.6264 103.395C87.6264 106.467 86.4063 109.412 84.2345 111.584C82.0626 113.756 79.117 114.976 76.0456 114.976Z" fill="#3749A9"/>
</g>
<g id="Cymbals">
<path id="p 228.6607807484013" d="M100.771 114.976C97.6998 114.976 94.7542 113.756 92.5824 111.584C90.4105 109.412 89.1904 106.467 89.1904 103.395C89.1904 100.324 90.4105 97.3782 92.5824 95.2064C94.7542 93.0346 97.6998 91.8145 100.771 91.8145C103.843 91.8145 106.788 93.0346 108.96 95.2064C111.132 97.3782 112.352 100.324 112.352 103.395C112.352 106.467 111.132 109.412 108.96 111.584C106.788 113.756 103.843 114.976 100.771 114.976Z" fill="#3749A9"/>
</g>
<g id="Glockenspiel">
<path id="p 238.42626673764954" d="M88.4079 136.39C85.3365 136.39 82.3909 135.17 80.2191 132.998C78.0473 130.826 76.8271 127.881 76.8271 124.809C76.8271 121.738 78.0473 118.792 80.2191 116.62C82.3909 114.449 85.3365 113.229 88.4079 113.229C91.4793 113.229 94.4249 114.449 96.5968 116.62C98.7686 118.792 99.9887 121.738 99.9887 124.809C99.9887 127.881 98.7686 130.826 96.5968 132.998C94.4249 135.17 91.4793 136.39 88.4079 136.39Z" fill="#3749A9"/>
</g>
<g id="Snare Drum">
<path id="p 192.2154908759248" d="M88.4079 93.5639C85.3365 93.5639 82.3909 92.3438 80.2191 90.172C78.0473 88.0001 76.8271 85.0545 76.8271 81.9831C76.8271 78.9117 78.0473 75.9661 80.2191 73.7943C82.3909 71.6225 85.3365 70.4023 88.4079 70.4023C91.4793 70.4023 94.4249 71.6225 96.5968 73.7943C98.7686 75.9661 99.9887 78.9117 99.9887 81.9831C99.9887 85.0545 98.7686 88.0001 96.5968 90.172C94.4249 92.3438 91.4793 93.5639 88.4079 93.5639Z" fill="#3749A9"/>
</g>
<g id="Tambourine">
<path id="p 165.53568699269653" d="M63.6823 93.5639C60.6109 93.5639 57.6653 92.3438 55.4935 90.172C53.3217 88.0001 52.1016 85.0545 52.1016 81.9831C52.1016 78.9117 53.3217 75.9661 55.4935 73.7943C57.6653 71.6225 60.6109 70.4023 63.6823 70.4023C66.7537 70.4023 69.6994 71.6225 71.8712 73.7943C74.043 75.9661 75.2631 78.9117 75.2631 81.9831C75.2631 85.0545 74.043 88.0001 71.8712 90.172C69.6994 92.3438 66.7537 93.5639 63.6823 93.5639Z" fill="#3749A9"/>
</g>
<g id="Triangle">
<path id="p 218.89529475915305" d="M113.134 93.5639C110.063 93.5639 107.117 92.3438 104.946 90.172C102.774 88.0001 101.554 85.0545 101.554 81.9831C101.554 78.9117 102.774 75.9661 104.946 73.7943C107.117 71.6225 110.063 70.4023 113.134 70.4023C116.206 70.4023 119.152 71.6225 121.323 73.7943C123.495 75.9661 124.715 78.9117 124.715 81.9831C124.715 85.0545 123.495 88.0001 121.323 90.172C119.152 92.3438 116.206 93.5639 113.134 93.5639Z" fill="#3749A9"/>
</g>
<g id="Bass Clarinet">
<path id="p 259.13761011359105" d="M110.975 133.019C108.467 133.019 106.062 132.023 104.289 130.249C102.516 128.476 101.52 126.071 101.52 123.563C101.52 121.055 102.516 118.65 104.289 116.877C106.062 115.104 108.467 114.107 110.975 114.107C113.483 114.107 115.888 115.104 117.661 116.877C119.435 118.65 120.431 121.055 120.431 123.563C120.431 126.071 119.435 128.476 117.661 130.249C115.888 132.023 113.483 133.019 110.975 133.019Z" fill="#3749A9"/>
</g>
<g id="Celesta">
<path id="p 210.43828942853816" d="M65.8414 133.019C63.3336 133.019 60.9285 132.023 59.1552 130.249C57.382 128.476 56.3857 126.071 56.3857 123.563C56.3857 121.055 57.382 118.65 59.1552 116.877C60.9285 115.104 63.3336 114.107 65.8414 114.107C68.3492 114.107 70.7543 115.104 72.5276 116.877C74.3008 118.65 75.2971 121.055 75.2971 123.563C75.2971 126.071 74.3008 128.476 72.5276 130.249C70.7543 132.023 68.3492 133.019 65.8414 133.019Z" fill="#3749A9"/>
</g>
<g id="Contrabassoon">
<path id="p 254.37200561939915" d="M123.076 116.501C120.568 116.501 118.163 115.505 116.39 113.732C114.616 111.958 113.62 109.553 113.62 107.046C113.62 104.538 114.616 102.133 116.39 100.359C118.163 98.5861 120.568 97.5898 123.076 97.5898C125.584 97.5898 127.989 98.5861 129.762 100.359C131.535 102.133 132.531 104.538 132.531 107.046C132.531 109.553 131.535 111.958 129.762 113.732C127.989 115.505 125.584 116.501 123.076 116.501Z" fill="#3749A9"/>
</g>
<g id="English Horn">
<path id="p 179.55852346677727" d="M53.7408 116.501C51.233 116.501 48.8279 115.505 47.0547 113.732C45.2814 111.958 44.2852 109.553 44.2852 107.046C44.2852 104.538 45.2814 102.133 47.0547 100.359C48.8279 98.5861 51.233 97.5898 53.7408 97.5898C56.2486 97.5898 58.6537 98.5861 60.427 100.359C62.2003 102.133 63.1965 104.538 63.1965 107.046C63.1965 109.553 62.2003 111.958 60.427 113.732C58.6537 115.505 56.2486 116.501 53.7408 116.501Z" fill="#3749A9"/>
</g>
<g id="Piano">
<path id="p 148.97012538972498" d="M42.5201 99.3742C40.0123 99.3742 37.6072 98.378 35.834 96.6047C34.0607 94.8314 33.0645 92.4263 33.0645 89.9185C33.0645 87.4108 34.0607 85.0057 35.834 83.2324C37.6072 81.4591 40.0123 80.4629 42.5201 80.4629C45.0279 80.4629 47.433 81.4591 49.2063 83.2324C50.9795 85.0057 51.9758 87.4108 51.9758 89.9185C51.9758 92.4263 50.9795 94.8314 49.2063 96.6047C47.433 98.378 45.0279 99.3742 42.5201 99.3742Z" fill="#3749A9"/>
</g>
<g id="Piccolo">
<path id="p 247.99855795522444" d="M134.296 99.3742C131.789 99.3742 129.384 98.378 127.61 96.6047C125.837 94.8314 124.841 92.4263 124.841 89.9185C124.841 87.4108 125.837 85.0057 127.61 83.2324C129.384 81.4591 131.789 80.4629 134.296 80.4629C136.804 80.4629 139.209 81.4591 140.983 83.2324C142.756 85.0057 143.752 87.4108 143.752 89.9185C143.752 92.4263 142.756 94.8314 140.983 96.6047C139.209 98.378 136.804 99.3742 134.296 99.3742Z" fill="#3749A9"/>
</g>
<g id="Tam tam">
<path id="p 270.450358538112" d="M102.721 151.757C100.213 151.757 97.8084 150.761 96.0351 148.988C94.2618 147.214 93.2656 144.809 93.2656 142.301C93.2656 139.794 94.2618 137.388 96.0351 135.615C97.8084 133.842 100.213 132.846 102.721 132.846C105.229 132.846 107.634 133.842 109.407 135.615C111.181 137.388 112.177 139.794 112.177 142.301C112.177 144.809 111.181 147.214 109.407 148.988C107.634 150.761 105.229 151.757 102.721 151.757Z" fill="#3749A9"/>
</g>
<g id="Xylophone">
<path id="p 239.56375346143705" d="M74.0953 151.757C71.5875 151.757 69.1824 150.761 67.4091 148.988C65.6359 147.214 64.6396 144.809 64.6396 142.301C64.6396 139.794 65.6359 137.388 67.4091 135.615C69.1824 133.842 71.5875 132.846 74.0953 132.846C76.6031 132.846 79.0082 133.842 80.7815 135.615C82.5547 137.388 83.551 139.794 83.551 142.301C83.551 144.809 82.5547 147.214 80.7815 148.988C79.0082 150.761 76.6031 151.757 74.0953 151.757Z" fill="#3749A9"/>
</g>
<g id="Baritone horn">
<path id="p 156.86279609115257" d="M76.0455 73.1614C74.2723 73.1614 72.5716 72.4569 71.3177 71.2031C70.0638 69.9492 69.3594 68.2485 69.3594 66.4752C69.3594 64.7019 70.0638 63.0013 71.3177 61.7474C72.5716 60.4935 74.2723 59.7891 76.0455 59.7891C77.8188 59.7891 79.5195 60.4935 80.7734 61.7474C82.0273 63.0013 82.7317 64.7019 82.7317 66.4752C82.7317 68.2485 82.0273 69.9492 80.7734 71.2031C79.5195 72.4569 77.8188 73.1614 76.0455 73.1614Z" fill="#3749A9"/>
</g>
<g id="Chimes">
<path id="p 183.5425999743808" d="M100.771 73.1614C98.9978 73.1614 97.2972 72.4569 96.0433 71.2031C94.7894 69.9492 94.085 68.2485 94.085 66.4752C94.085 64.7019 94.7894 63.0013 96.0433 61.7474C97.2972 60.4935 98.9978 59.7891 100.771 59.7891C102.544 59.7891 104.245 60.4935 105.499 61.7474C106.753 63.0013 107.457 64.7019 107.457 66.4752C107.457 68.2485 106.753 69.9492 105.499 71.2031C104.245 72.4569 102.544 73.1614 100.771 73.1614Z" fill="#3749A9"/>
</g>
<g id="Double basses">
<path id="p 188.64778794285107" d="M48.1364 130.529C46.3631 130.529 44.6624 129.824 43.4085 128.57C42.1546 127.316 41.4502 125.616 41.4502 123.842C41.4502 122.069 42.1546 120.368 43.4085 119.115C44.6624 117.861 46.3631 117.156 48.1364 117.156C49.9096 117.156 51.6103 117.861 52.8642 119.115C54.1181 120.368 54.8225 122.069 54.8225 123.842C54.8225 125.616 54.1181 127.316 52.8642 128.57C51.6103 129.824 49.9096 130.529 48.1364 130.529Z" fill="#3749A9"/>
</g>
<g id="Harps">
<path id="p 275.55333239478136" d="M128.679 130.529C126.906 130.529 125.205 129.824 123.951 128.57C122.698 127.316 121.993 125.616 121.993 123.842C121.993 122.069 122.698 120.368 123.951 119.115C125.205 117.861 126.906 117.156 128.679 117.156C130.453 117.156 132.153 117.861 133.407 119.115C134.661 120.368 135.365 122.069 135.365 123.842C135.365 125.616 134.661 127.316 133.407 128.57C132.153 129.824 130.453 130.529 128.679 130.529Z" fill="#3749A9"/>
</g>
<g id="Marimba">
<path id="p 263.2670315343752" d="M88.4078 159.411C86.6346 159.411 84.9339 158.707 83.68 157.453C82.4261 156.199 81.7217 154.499 81.7217 152.725C81.7217 150.952 82.4261 149.251 83.68 147.997C84.9339 146.743 86.6346 146.039 88.4078 146.039C90.1811 146.039 91.8818 146.743 93.1357 147.997C94.3896 149.251 95.094 150.952 95.094 152.725C95.094 154.499 94.3896 156.199 93.1357 157.453C91.8818 158.707 90.1811 159.411 88.4078 159.411Z" fill="#3749A9"/>
</g>
<g id="Pipe organ">
<path id="p 161.15778971879382" d="M88.4078 64.7786C86.6346 64.7786 84.9339 64.0741 83.68 62.8202C82.4261 61.5663 81.7217 59.8657 81.7217 58.0924C81.7217 56.3191 82.4261 54.6185 83.68 53.3646C84.9339 52.1107 86.6346 51.4062 88.4078 51.4062C90.1811 51.4062 91.8818 52.1107 93.1357 53.3646C94.3896 54.6185 95.094 56.3191 95.094 58.0924C95.094 59.8657 94.3896 61.5663 93.1357 62.8202C91.8818 64.0741 90.1811 64.7786 88.4078 64.7786Z" fill="#3749A9"/>
</g>
<g id="Tenor drum">
<path id="p 214.03114784320957" d="M56.7477 145.443C54.9744 145.443 53.2738 144.738 52.0199 143.484C50.766 142.23 50.0615 140.53 50.0615 138.756C50.0615 136.983 50.766 135.283 52.0199 134.029C53.2738 132.775 54.9744 132.07 56.7477 132.07C58.521 132.07 60.2216 132.775 61.4755 134.029C62.7294 135.283 63.4338 136.983 63.4338 138.756C63.4338 140.53 62.7294 142.23 61.4755 143.484C60.2216 144.738 58.521 145.443 56.7477 145.443Z" fill="#3749A9"/>
</g>
<g id="Timpani">
<path id="p 282.354783181271" d="M120.069 145.443C118.296 145.443 116.595 144.738 115.341 143.484C114.087 142.23 113.383 140.53 113.383 138.756C113.383 136.983 114.087 135.283 115.341 134.029C116.595 132.775 118.296 132.07 120.069 132.07C121.842 132.07 123.543 132.775 124.797 134.029C126.051 135.283 126.755 136.983 126.755 138.756C126.755 140.53 126.051 142.23 124.797 143.484C123.543 144.738 121.842 145.443 120.069 145.443Z" fill="#3749A9"/>
</g>
<g id="Tubas">
<path id="p 136.84279856976963" d="M61.7203 68.9348C59.9471 68.9348 58.2464 68.2304 56.9925 66.9765C55.7386 65.7226 55.0342 64.0219 55.0342 62.2487C55.0342 60.4754 55.7386 58.7747 56.9925 57.5208C58.2464 56.2669 59.9471 55.5625 61.7203 55.5625C63.4936 55.5625 65.1943 56.2669 66.4482 57.5208C67.7021 58.7747 68.4065 60.4754 68.4065 62.2487C68.4065 64.0219 67.7021 65.7226 66.4482 66.9765C65.1943 68.2304 63.4936 68.9348 61.7203 68.9348Z" fill="#3749A9"/>
</g>
<g id="Tubular bells">
<path id="p 194.43876442265952" d="M115.098 68.9348C113.325 68.9348 111.624 68.2304 110.37 66.9765C109.117 65.7226 108.412 64.0219 108.412 62.2487C108.412 60.4754 109.117 58.7747 110.37 57.5208C111.624 56.2669 113.325 55.5625 115.098 55.5625C116.872 55.5625 118.572 56.2669 119.826 57.5208C121.08 58.7747 121.784 60.4754 121.784 62.2487C121.784 64.0219 121.08 65.7226 119.826 66.9765C118.572 68.2304 116.872 68.9348 115.098 68.9348Z" fill="#3749A9"/>
</g>
<g id="Vibraphone">
<path id="p 296.9442292859579" d="M134.944 144.087C133.171 144.087 131.47 143.383 130.216 142.129C128.962 140.875 128.258 139.174 128.258 137.401C128.258 135.628 128.962 133.927 130.216 132.673C131.47 131.419 133.171 130.715 134.944 130.715C136.717 130.715 138.418 131.419 139.672 132.673C140.926 133.927 141.63 135.628 141.63 137.401C141.63 139.174 140.926 140.875 139.672 142.129C138.418 143.383 136.717 144.087 134.944 144.087Z" fill="#3749A9"/>
</g>
<g id="Wagner Tuba">
<path id="p 196.5190159684621" d="M41.8717 144.087C40.0984 144.087 38.3978 143.383 37.1439 142.129C35.89 140.875 35.1855 139.174 35.1855 137.401C35.1855 135.628 35.89 133.927 37.1439 132.673C38.3978 131.419 40.0984 130.715 41.8717 130.715C43.645 130.715 45.3456 131.419 46.5995 132.673C47.8534 133.927 48.5579 135.628 48.5579 137.401C48.5579 139.174 47.8534 140.875 46.5995 142.129C45.3456 143.383 43.645 144.087 41.8717 144.087Z" fill="#3749A9"/>
</g>
<g id="Wood block">
<path id="p 222.34207470836296" d="M130.607 79.2864C128.834 79.2864 127.133 78.5819 125.879 77.3281C124.625 76.0742 123.921 74.3735 123.921 72.6002C123.921 70.8269 124.625 69.1263 125.879 67.8724C127.133 66.6185 128.834 65.9141 130.607 65.9141C132.38 65.9141 134.081 66.6185 135.335 67.8724C136.589 69.1263 137.293 70.8269 137.293 72.6002C137.293 74.3735 136.589 76.0742 135.335 77.3281C134.081 78.5819 132.38 79.2864 130.607 79.2864Z" fill="#3749A9"/>
</g>
<g id="Bassoons">
<path id="p 323.34966875561946" d="M186.079 117.427C183.571 117.427 181.166 116.431 179.393 114.657C177.619 112.884 176.623 110.479 176.623 107.971C176.623 105.463 177.619 103.058 179.393 101.285C181.166 99.5118 183.571 98.5156 186.079 98.5156C188.587 98.5156 190.992 99.5118 192.765 101.285C194.538 103.058 195.534 105.463 195.534 107.971C195.534 110.479 194.538 112.884 192.765 114.657C190.992 116.431 188.587 117.427 186.079 117.427Z" fill="#3749A9"/>
</g>
<g id="Clarinets">
<path id="p 345.4434567066272" d="M206.554 117.427C204.046 117.427 201.641 116.431 199.868 114.657C198.095 112.884 197.099 110.479 197.099 107.971C197.099 105.463 198.095 103.058 199.868 101.285C201.641 99.5118 204.046 98.5156 206.554 98.5156C209.062 98.5156 211.467 99.5118 213.24 101.285C215.014 103.058 216.01 105.463 216.01 107.971C216.01 110.479 215.014 112.884 213.24 114.657C211.467 116.431 209.062 117.427 206.554 117.427Z" fill="#3749A9"/>
</g>
<g id="Flutes">
<path id="p 353.53034436252256" d="M196.316 135.159C193.808 135.159 191.403 134.163 189.63 132.39C187.857 130.617 186.86 128.212 186.86 125.704C186.86 123.196 187.857 120.791 189.63 119.018C191.403 117.244 193.808 116.248 196.316 116.248C198.824 116.248 201.229 117.244 203.002 119.018C204.775 120.791 205.772 123.196 205.772 125.704C205.772 128.212 204.775 130.617 203.002 132.39C201.229 134.163 198.824 135.159 196.316 135.159Z" fill="#3749A9"/>
</g>
<g id="Harps_2">
<path id="p 315.26278109972407" d="M196.316 99.6945C193.808 99.6945 191.403 98.6983 189.63 96.925C187.857 95.1517 186.86 92.7467 186.86 90.2389C186.86 87.7311 187.857 85.326 189.63 83.5527C191.403 81.7794 193.808 80.7832 196.316 80.7832C198.824 80.7832 201.229 81.7794 203.002 83.5527C204.775 85.326 205.772 87.7311 205.772 90.2389C205.772 92.7467 204.775 95.1517 203.002 96.925C201.229 98.6983 198.824 99.6945 196.316 99.6945Z" fill="#3749A9"/>
</g>
<g id="Oboes">
<path id="p 293.16899314871637" d="M175.84 99.6945C173.333 99.6945 170.928 98.6983 169.154 96.925C167.381 95.1517 166.385 92.7467 166.385 90.2389C166.385 87.7311 167.381 85.326 169.154 83.5527C170.928 81.7794 173.333 80.7832 175.84 80.7832C178.348 80.7832 180.753 81.7794 182.527 83.5527C184.3 85.326 185.296 87.7311 185.296 90.2389C185.296 92.7467 184.3 95.1517 182.527 96.925C180.753 98.6983 178.348 99.6945 175.84 99.6945Z" fill="#3749A9"/>
</g>
<g id="Trumpets">
<path id="p 337.3565690507318" d="M216.793 99.6945C214.285 99.6945 211.88 98.6983 210.106 96.925C208.333 95.1517 207.337 92.7467 207.337 90.2389C207.337 87.7311 208.333 85.326 210.106 83.5527C211.88 81.7794 214.285 80.7832 216.793 80.7832C219.3 80.7832 221.705 81.7794 223.479 83.5527C225.252 85.326 226.248 87.7311 226.248 90.2389C226.248 92.7467 225.252 95.1517 223.479 96.925C221.705 98.6983 219.3 99.6945 216.793 99.6945Z" fill="#3749A9"/>
</g>
<g id="Tubas_2">
<path id="p 375.62413231353025" d="M216.793 135.159C214.285 135.159 211.88 134.163 210.106 132.39C208.333 130.617 207.337 128.212 207.337 125.704C207.337 123.196 208.333 120.791 210.106 119.018C211.88 117.244 214.285 116.248 216.793 116.248C219.3 116.248 221.705 117.244 223.479 119.018C225.252 120.791 226.248 123.196 226.248 125.704C226.248 128.212 225.252 130.617 223.479 132.39C221.705 134.163 219.3 135.159 216.793 135.159Z" fill="#3749A9"/>
</g>
<g id="Cellos">
<path id="p 329.7460984708303" d="M178.686 130.747C176.913 130.747 175.212 130.043 173.958 128.789C172.704 127.535 172 125.834 172 124.061C172 122.288 172.704 120.587 173.958 119.333C175.212 118.079 176.913 117.375 178.686 117.375C180.459 117.375 182.16 118.079 183.414 119.333C184.668 120.587 185.372 122.288 185.372 124.061C185.372 125.834 184.668 127.535 183.414 128.789C182.16 130.043 180.459 130.747 178.686 130.747Z" fill="#3749A9"/>
</g>
<g id="Cornet">
<path id="p 299.56542286392715" d="M168.448 113.013C166.675 113.013 164.974 112.309 163.72 111.055C162.466 109.801 161.762 108.1 161.762 106.327C161.762 104.554 162.466 102.853 163.72 101.599C164.974 100.345 166.675 99.6406 168.448 99.6406C170.221 99.6406 171.922 100.345 173.176 101.599C174.43 102.853 175.134 104.554 175.134 106.327C175.134 108.1 174.43 109.801 173.176 111.055C171.922 112.309 170.221 113.013 168.448 113.013Z" fill="#3749A9"/>
</g>
<g id="Timpani_2">
<path id="p 310.360152215999" d="M164.147 127.32C162.374 127.32 160.673 126.615 159.419 125.361C158.165 124.107 157.461 122.407 157.461 120.633C157.461 118.86 158.165 117.159 159.419 115.906C160.673 114.652 162.374 113.947 164.147 113.947C165.92 113.947 167.621 114.652 168.875 115.906C170.129 117.159 170.833 118.86 170.833 120.633C170.833 122.407 170.129 124.107 168.875 125.361C167.621 126.615 165.92 127.32 164.147 127.32Z" fill="#3749A9"/>
</g>
<g id="French Horns">
<path id="p 358.27391706876114" d="M153.277 182.595C150.769 182.595 148.364 181.599 146.591 179.825C144.818 178.052 143.821 175.647 143.821 173.139C143.821 170.631 144.818 168.226 146.591 166.453C148.364 164.68 150.769 163.684 153.277 163.684C155.785 163.684 158.19 164.68 159.963 166.453C161.736 168.226 162.733 170.631 162.733 173.139C162.733 175.647 161.736 178.052 159.963 179.825C158.19 181.599 155.785 182.595 153.277 182.595Z" fill="#3749A9"/>
</g>
<g id="Bassoons_2">
<path id="p 374.3910926966451" d="M170.984 179.825C169.211 179.825 167.51 179.121 166.256 177.867C165.002 176.613 164.298 174.913 164.298 173.139C164.298 171.366 165.002 169.665 166.256 168.411C167.51 167.158 169.211 166.453 170.984 166.453C172.757 166.453 174.458 167.158 175.712 168.411C176.966 169.665 177.67 171.366 177.67 173.139C177.67 174.913 176.966 176.613 175.712 177.867C174.458 179.121 172.757 179.825 170.984 179.825Z" fill="#3749A9"/>
</g>
<g id="Clarinets_2">
<path id="p 382.2062612933267" d="M164.683 193.368C162.91 193.368 161.209 192.664 159.955 191.41C158.702 190.156 157.997 188.456 157.997 186.682C157.997 184.909 158.702 183.208 159.955 181.954C161.209 180.701 162.91 179.996 164.683 179.996C166.457 179.996 168.157 180.701 169.411 181.954C170.665 183.208 171.369 184.909 171.369 186.682C171.369 188.456 170.665 190.156 169.411 191.41C168.157 192.664 166.457 193.368 164.683 193.368Z" fill="#3749A9"/>
</g>
<g id="Flutes_2">
<path id="p 352.9796508898551" d="M164.683 166.282C162.91 166.282 161.209 165.578 159.955 164.324C158.702 163.07 157.997 161.37 157.997 159.596C157.997 157.823 158.702 156.122 159.955 154.868C161.209 153.615 162.91 152.91 164.683 152.91C166.457 152.91 168.157 153.615 169.411 154.868C170.665 156.122 171.369 157.823 171.369 159.596C171.369 161.37 170.665 163.07 169.411 164.324C168.157 165.578 166.457 166.282 164.683 166.282Z" fill="#3749A9"/>
</g>
<g id="Oboes_2">
<path id="p 333.2092282812681" d="M150.265 162.376C148.492 162.376 146.791 161.672 145.537 160.418C144.284 159.164 143.579 157.463 143.579 155.69C143.579 153.917 144.284 152.216 145.537 150.962C146.791 149.708 148.492 149.004 150.265 149.004C152.039 149.004 153.739 149.708 154.993 150.962C156.247 152.216 156.951 153.917 156.951 155.69C156.951 157.463 156.247 159.164 154.993 160.418C153.739 161.672 152.039 162.376 150.265 162.376Z" fill="#3749A9"/>
</g>
<g id="Timpani_3">
<path id="p 370.8635504040383" d="M150.265 197.273C148.492 197.273 146.791 196.568 145.537 195.314C144.284 194.06 143.579 192.36 143.579 190.587C143.579 188.813 144.284 187.113 145.537 185.859C146.791 184.605 148.492 183.9 150.265 183.9C152.039 183.9 153.739 184.605 154.993 185.859C156.247 187.113 156.951 188.813 156.951 190.587C156.951 192.36 156.247 194.06 154.993 195.314C153.739 196.568 152.039 197.273 150.265 197.273Z" fill="#3749A9"/>
</g>
<g id="Trombones">
<path id="p 370.45350633283476" d="M179.562 167.597C177.789 167.597 176.088 166.892 174.834 165.639C173.58 164.385 172.876 162.684 172.876 160.911C172.876 159.137 173.58 157.437 174.834 156.183C176.088 154.929 177.789 154.225 179.562 154.225C181.335 154.225 183.036 154.929 184.29 156.183C185.544 157.437 186.248 159.137 186.248 160.911C186.248 162.684 185.544 164.385 184.29 165.639C183.036 166.892 181.335 167.597 179.562 167.597Z" fill="#3749A9"/>
</g>
<g id="Trumpets_2">
<path id="p 396.8415295313182" d="M179.562 192.054C177.789 192.054 176.088 191.35 174.834 190.096C173.58 188.842 172.876 187.141 172.876 185.368C172.876 183.595 173.58 181.894 174.834 180.64C176.088 179.386 177.789 178.682 179.562 178.682C181.335 178.682 183.036 179.386 184.29 180.64C185.544 181.894 186.248 183.595 186.248 185.368C186.248 187.141 185.544 188.842 184.29 190.096C183.036 191.35 181.335 192.054 179.562 192.054Z" fill="#3749A9"/>
</g>
<g id="Violas">
<path id="p 348.4349153918333" d="M137.991 188.761C136.218 188.761 134.517 188.057 133.263 186.803C132.009 185.549 131.305 183.848 131.305 182.075C131.305 180.302 132.009 178.601 133.263 177.347C134.517 176.093 136.218 175.389 137.991 175.389C139.764 175.389 141.465 176.093 142.719 177.347C143.973 178.601 144.677 180.302 144.677 182.075C144.677 183.848 143.973 185.549 142.719 186.803C141.465 188.057 139.764 188.761 137.991 188.761Z" fill="#3749A9"/>
</g>
<g id="Bassoons_3">
<path id="p 225.07753359679344" d="M150.797 61.6301C149.024 61.6301 147.324 60.9257 146.07 59.6718C144.816 58.4179 144.111 56.7173 144.111 54.944C144.111 53.1707 144.816 51.47 146.07 50.2161C147.324 48.9622 149.024 48.2578 150.797 48.2578C152.571 48.2578 154.271 48.9622 155.525 50.2161C156.779 51.47 157.484 53.1707 157.484 54.944C157.484 56.7173 156.779 58.4179 155.525 59.6718C154.271 60.9257 152.571 61.6301 150.797 61.6301Z" fill="#3749A9"/>
</g>
<g id="Clarinets_3">
<path id="p 241.19470922467735" d="M165.734 61.6301C163.961 61.6301 162.26 60.9257 161.006 59.6718C159.752 58.4179 159.048 56.7173 159.048 54.944C159.048 53.1707 159.752 51.47 161.006 50.2161C162.26 48.9622 163.961 48.2578 165.734 48.2578C167.507 48.2578 169.208 48.9622 170.462 50.2161C171.716 51.47 172.42 53.1707 172.42 54.944C172.42 56.7173 171.716 58.4179 170.462 59.6718C169.208 60.9257 167.507 61.6301 165.734 61.6301Z" fill="#3749A9"/>
</g>
<g id="Flutes_3">
<path id="p 247.0940049417383" d="M158.266 74.5657C156.493 74.5657 154.792 73.8612 153.538 72.6073C152.285 71.3534 151.58 69.6528 151.58 67.8795C151.58 66.1062 152.285 64.4056 153.538 63.1517C154.792 61.8978 156.493 61.1934 158.266 61.1934C160.04 61.1934 161.74 61.8978 162.994 63.1517C164.248 64.4056 164.952 66.1062 164.952 67.8795C164.952 69.6528 164.248 71.3534 162.994 72.6073C161.74 73.8612 160.04 74.5657 158.266 74.5657Z" fill="#3749A9"/>
</g>
<g id="Oboes_3">
<path id="p 219.1782378797325" d="M158.266 48.6946C156.493 48.6946 154.792 47.9902 153.538 46.7363C152.285 45.4824 151.58 43.7817 151.58 42.0084C151.58 40.2351 152.285 38.5345 153.538 37.2806C154.792 36.0267 156.493 35.3223 158.266 35.3223C160.04 35.3223 161.74 36.0267 162.994 37.2806C164.248 38.5345 164.952 40.2351 164.952 42.0084C164.952 43.7817 164.248 45.4824 162.994 46.7363C161.74 47.9902 160.04 48.6946 158.266 48.6946Z" fill="#3749A9"/>
</g>
<g id="Timpani_4">
<path id="p 203.06106225184857" d="M143.329 48.6946C141.555 48.6946 139.855 47.9902 138.601 46.7363C137.347 45.4824 136.643 43.7817 136.643 42.0084C136.643 40.2351 137.347 38.5345 138.601 37.2806C139.855 36.0267 141.555 35.3223 143.329 35.3223C145.102 35.3223 146.803 36.0267 148.057 37.2806C149.31 38.5345 150.015 40.2351 150.015 42.0084C150.015 43.7817 149.31 45.4824 148.057 46.7363C146.803 47.9902 145.102 48.6946 143.329 48.6946Z" fill="#3749A9"/>
</g>
<g id="Trombones_2">
<path id="p 235.29541350761644" d="M173.203 48.6946C171.429 48.6946 169.729 47.9902 168.475 46.7363C167.221 45.4824 166.517 43.7817 166.517 42.0084C166.517 40.2351 167.221 38.5345 168.475 37.2806C169.729 36.0267 171.429 35.3223 173.203 35.3223C174.976 35.3223 176.677 36.0267 177.931 37.2806C179.184 38.5345 179.889 40.2351 179.889 42.0084C179.889 43.7817 179.184 45.4824 177.931 46.7363C176.677 47.9902 174.976 48.6946 173.203 48.6946Z" fill="#3749A9"/>
</g>
<g id="Double basses_2">
<path id="p 153.84336548138467" d="M115.537 30.8743C113.763 30.8743 112.063 30.1698 110.809 28.9159C109.555 27.662 108.851 25.9614 108.851 24.1881C108.851 22.4148 109.555 20.7142 110.809 19.4603C112.063 18.2064 113.763 17.502 115.537 17.502C117.31 17.502 119.011 18.2064 120.265 19.4603C121.518 20.7142 122.223 22.4148 122.223 24.1881C122.223 25.9614 121.518 27.662 120.265 28.9159C119.011 30.1698 117.31 30.8743 115.537 30.8743Z" fill="#3749A9"/>
</g>
<g id="Trombones_3">
<path id="p 169.9605411092686" d="M130.473 30.8743C128.7 30.8743 126.999 30.1698 125.745 28.9159C124.492 27.662 123.787 25.9614 123.787 24.1881C123.787 22.4148 124.492 20.7142 125.745 19.4603C126.999 18.2064 128.7 17.502 130.473 17.502C132.247 17.502 133.947 18.2064 135.201 19.4603C136.455 20.7142 137.159 22.4148 137.159 24.1881C137.159 25.9614 136.455 27.662 135.201 28.9159C133.947 30.1698 132.247 30.8743 130.473 30.8743Z" fill="#3749A9"/>
</g>
<g id="Trumpets_3">
<path id="p 175.85983682632954" d="M123.005 43.8098C121.231 43.8098 119.531 43.1054 118.277 41.8515C117.023 40.5976 116.318 38.8969 116.318 37.1237C116.318 35.3504 117.023 33.6497 118.277 32.3958C119.531 31.1419 121.231 30.4375 123.005 30.4375C124.778 30.4375 126.478 31.1419 127.732 32.3958C128.986 33.6497 129.691 35.3504 129.691 37.1237C129.691 38.8969 128.986 40.5976 127.732 41.8515C126.478 43.1054 124.778 43.8098 123.005 43.8098Z" fill="#3749A9"/>
</g>
<g id="Violins 1">
<path id="p 147.94406976432376" d="M123.005 17.9387C121.231 17.9387 119.531 17.2343 118.277 15.9804C117.023 14.7265 116.318 13.0258 116.318 11.2526C116.318 9.47929 117.023 7.77864 118.277 6.52474C119.531 5.27084 121.231 4.56641 123.005 4.56641C124.778 4.56641 126.478 5.27084 127.732 6.52474C128.986 7.77864 129.691 9.47929 129.691 11.2526C129.691 13.0258 128.986 14.7265 127.732 15.9804C126.478 17.2343 124.778 17.9387 123.005 17.9387Z" fill="#3749A9"/>
</g>
<g id="Violins 2">
<path id="p 131.82689413643982" d="M108.068 17.9387C106.295 17.9387 104.594 17.2343 103.34 15.9804C102.086 14.7265 101.382 13.0258 101.382 11.2526C101.382 9.47929 102.086 7.77864 103.34 6.52474C104.594 5.27084 106.295 4.56641 108.068 4.56641C109.841 4.56641 111.542 5.27084 112.796 6.52474C114.05 7.77864 114.754 9.47929 114.754 11.2526C114.754 13.0258 114.05 14.7265 112.796 15.9804C111.542 17.2343 109.841 17.9387 108.068 17.9387Z" fill="#3749A9"/>
</g>
<g id="French Horns_2">
<path id="p 317.06441937526137" d="M63.7506 31.7336C61.2428 31.7336 58.8377 30.7374 57.0644 28.9641C55.2911 27.1908 54.2949 24.7857 54.2949 22.2779C54.2949 19.7701 55.2911 17.365 57.0644 15.5918C58.8377 13.8185 61.2428 12.8223 63.7506 12.8223C66.2584 12.8223 68.6635 13.8185 70.4367 15.5918C72.21 17.365 73.2062 19.7701 73.2062 22.2779C73.2062 24.7857 72.21 27.1908 70.4367 28.9641C68.6635 30.7374 66.2584 31.7336 63.7506 31.7336Z" fill="#3749A9"/>
</g>
<g id="Cellos_2">
<path id="p 333.18159500314533" d="M81.4576 28.9641C79.6844 28.9641 77.9837 28.2597 76.7298 27.0058C75.4759 25.7519 74.7715 24.0512 74.7715 22.278C74.7715 20.5047 75.4759 18.804 76.7298 17.5501C77.9837 16.2962 79.6844 15.5918 81.4576 15.5918C83.2309 15.5918 84.9316 16.2962 86.1855 17.5501C87.4394 18.804 88.1438 20.5047 88.1438 22.278C88.1438 24.0512 87.4394 25.7519 86.1855 27.0058C84.9316 28.2597 83.2309 28.9641 81.4576 28.9641Z" fill="#3749A9"/>
</g>
<g id="Double basses_3">
<path id="p 340.9967635998269" d="M75.1559 42.5071C73.3826 42.5071 71.682 41.8027 70.4281 40.5488C69.1742 39.2949 68.4697 37.5942 68.4697 35.8209C68.4697 34.0476 69.1742 32.347 70.4281 31.0931C71.682 29.8392 73.3826 29.1348 75.1559 29.1348C76.9292 29.1348 78.6298 29.8392 79.8837 31.0931C81.1376 32.347 81.842 34.0476 81.842 35.8209C81.842 37.5942 81.1376 39.2949 79.8837 40.5488C78.6298 41.8027 76.9292 42.5071 75.1559 42.5071Z" fill="#3749A9"/>
</g>
<g id="Cellos_3">
<path id="p 393.46089422200254" d="M201.503 166.98C199.729 166.98 198.029 166.275 196.775 165.021C195.521 163.768 194.816 162.067 194.816 160.294C194.816 158.52 195.521 156.82 196.775 155.566C198.029 154.312 199.729 153.607 201.503 153.607C203.276 153.607 204.976 154.312 206.23 155.566C207.484 156.82 208.189 158.52 208.189 160.294C208.189 162.067 207.484 163.768 206.23 165.021C204.976 166.275 203.276 166.98 201.503 166.98Z" fill="#3749A9"/>
</g>
<g id="Violas_2">
<path id="p 409.5780698498865" d="M216.439 166.98C214.666 166.98 212.965 166.275 211.711 165.021C210.457 163.768 209.753 162.067 209.753 160.294C209.753 158.52 210.457 156.82 211.711 155.566C212.965 154.312 214.666 153.607 216.439 153.607C218.212 153.607 219.913 154.312 221.167 155.566C222.421 156.82 223.125 158.52 223.125 160.294C223.125 162.067 222.421 163.768 221.167 165.021C219.913 166.275 218.212 166.98 216.439 166.98Z" fill="#3749A9"/>
</g>
<g id="Violins 2_2">
<path id="p 415.4773655669474" d="M208.971 179.917C207.198 179.917 205.497 179.213 204.243 177.959C202.99 176.705 202.285 175.004 202.285 173.231C202.285 171.458 202.99 169.757 204.243 168.503C205.497 167.249 207.198 166.545 208.971 166.545C210.745 166.545 212.445 167.249 213.699 168.503C214.953 169.757 215.657 171.458 215.657 173.231C215.657 175.004 214.953 176.705 213.699 177.959C212.445 179.213 210.745 179.917 208.971 179.917Z" fill="#3749A9"/>
</g>
<g id="Violas_3">
<path id="p 99.92230521811416" d="M29.8688 46.1985C28.0955 46.1985 26.3948 45.4941 25.1409 44.2402C23.887 42.9863 23.1826 41.2856 23.1826 39.5123C23.1826 37.7391 23.887 36.0384 25.1409 34.7845C26.3948 33.5306 28.0955 32.8262 29.8688 32.8262C31.6421 32.8262 33.3427 33.5306 34.5966 34.7845C35.8505 36.0384 36.5549 37.7391 36.5549 39.5123C36.5549 41.2856 35.8505 42.9863 34.5966 44.2402C33.3427 45.4941 31.6421 46.1985 29.8688 46.1985Z" fill="#3749A9"/>
</g>
<g id="Violins 1_2">
<path id="p 116.03948084599809" d="M44.8063 46.1985C43.033 46.1985 41.3323 45.4941 40.0784 44.2402C38.8245 42.9863 38.1201 41.2856 38.1201 39.5123C38.1201 37.7391 38.8245 36.0384 40.0784 34.7845C41.3323 33.5306 43.033 32.8262 44.8063 32.8262C46.5796 32.8262 48.2802 33.5306 49.5341 34.7845C50.788 36.0384 51.4924 37.7391 51.4924 39.5123C51.4924 41.2856 50.788 42.9863 49.5341 44.2402C48.2802 45.4941 46.5796 46.1985 44.8063 46.1985Z" fill="#3749A9"/>
</g>
<g id="Violins 2_3">
<path id="p 121.93877656305901" d="M37.3375 59.134C35.5642 59.134 33.8636 58.4296 32.6097 57.1757C31.3558 55.9218 30.6514 54.2212 30.6514 52.4479C30.6514 50.6746 31.3558 48.9739 32.6097 47.72C33.8636 46.4662 35.5642 45.7617 37.3375 45.7617C39.1108 45.7617 40.8115 46.4662 42.0654 47.72C43.3193 48.9739 44.0237 50.6746 44.0237 52.4479C44.0237 54.2212 43.3193 55.9218 42.0654 57.1757C40.8115 58.4296 39.1108 59.134 37.3375 59.134Z" fill="#3749A9"/>
</g>
<g id="Violins 1_3">
<path id="p 276.1913169197399" d="M9.24964 78.0852C7.47636 78.0852 5.77571 77.3808 4.52181 76.1269C3.26791 74.873 2.56348 73.1723 2.56348 71.3991C2.56348 69.6258 3.26791 67.9251 4.52181 66.6712C5.77571 65.4173 7.47636 64.7129 9.24964 64.7129C11.0229 64.7129 12.7236 65.4173 13.9775 66.6712C15.2314 67.9251 15.9358 69.6258 15.9358 71.3991C15.9358 73.1723 15.2314 74.873 13.9775 76.1269C12.7236 77.3808 11.0229 78.0852 9.24964 78.0852Z" fill="#3749A9"/>
</g>
<g id="Violins 2_4">
<path id="p 292.3084925476238" d="M24.1871 78.0852C22.4139 78.0852 20.7132 77.3808 19.4593 76.1269C18.2054 74.873 17.501 73.1723 17.501 71.3991C17.501 69.6258 18.2054 67.9251 19.4593 66.6712C20.7132 65.4173 22.4139 64.7129 24.1871 64.7129C25.9604 64.7129 27.6611 65.4173 28.915 66.6712C30.1689 67.9251 30.8733 69.6258 30.8733 71.3991C30.8733 73.1723 30.1689 74.873 28.915 76.1269C27.6611 77.3808 25.9604 78.0852 24.1871 78.0852Z" fill="#3749A9"/>
</g>
<g id="Violins 1_4">
<path id="p 180.74621363246965" d="M147.731 23.6126C145.958 23.6126 144.257 22.9081 143.003 21.6542C141.749 20.4003 141.045 18.6997 141.045 16.9264C141.045 15.1531 141.749 13.4525 143.003 12.1986C144.257 10.9447 145.958 10.2402 147.731 10.2402C149.504 10.2402 151.205 10.9447 152.459 12.1986C153.713 13.4525 154.417 15.1531 154.417 16.9264C154.417 18.6997 153.713 20.4003 152.459 21.6542C151.205 22.9081 149.504 23.6126 147.731 23.6126Z" fill="#3749A9"/>
</g>
</g>
</g>
<line id="Line 272" x1="164.5" y1="213" x2="164.5" y2="193" stroke="#0F1938"/>
<line id="Line 273" x1="89.5" y1="191" x2="89.5" y2="171" stroke="#0F1938"/>
<g id="Label">
<rect x="116" y="213" width="95" height="36" rx="2" fill="#F7FAFC" fill-opacity="0.7"/>
<text id="textLabel2" fill="#0F1938" xml:space="preserve" style="white-space: pre" font-family="Jost*" font-size="14" letter-spacing="-0.01em"><tspan x="120.086" y="227.365">Data receiving&#10;</tspan><tspan x="136.289" y="244.365">company</tspan></text>
</g>
<g id="Label_2">
<rect x="59" y="191" width="57" height="19" rx="2" fill="#F7FAFC" fill-opacity="0.7"/>
<text id="textLabel1" fill="#0F1938" xml:space="preserve" style="white-space: pre" font-family="Jost*" font-size="14" letter-spacing="-0.01em"><tspan x="63.3464" y="205.365">Industry</tspan></text>
</g>
</g>
</svg>
