<svg width="316" height="183" viewBox="0 0 316 183" fill="none" xmlns="http://www.w3.org/2000/svg">
<g id="purpose">
<g id="Purpose Bar 1">
<rect id="Rectangle 789" x="10" y="74" width="265" height="12" fill="#3BA6FF"/>
<text id="632" fill="#0F1938" xml:space="preserve" style="white-space: pre" font-family="Jost" font-size="8" font-weight="500" letter-spacing="-0.02em"><tspan x="257.984" y="83.28">632</tspan></text>
<text id="bold2" fill="#0F1938" xml:space="preserve" style="white-space: pre" font-family="Jost" font-size="12" font-weight="500" letter-spacing="-0.01em"><tspan x="10" y="66.67">Name of the purpose</tspan></text>
</g>
<text id="text2" fill="#0F1938" xml:space="preserve" style="white-space: pre" font-family="Jost*" font-size="12" letter-spacing="-0.01em"><tspan x="238" y="124.17">Number of </tspan><tspan x="238" y="138.17">times this </tspan><tspan x="238" y="152.17">purpose is </tspan><tspan x="238" y="166.17">mentioned.</tspan></text>
<text id="text1" fill="#0F1938" xml:space="preserve" style="white-space: pre" font-family="Jost*" font-size="12" letter-spacing="-0.01em"><tspan x="119" y="124.17">Representation </tspan><tspan x="119" y="138.17">of the number </tspan><tspan x="119" y="152.17">of times this </tspan><tspan x="119" y="166.17">purpose &#10;</tspan><tspan x="119" y="180.17">is mentioned.</tspan></text>
<g id="Legend">
<text id="bold1" fill="#0F1938" xml:space="preserve" style="white-space: pre" font-family="Jost" font-size="12" font-weight="500" letter-spacing="-0.01em"><tspan x="10" y="11.17">Number of mentions</tspan></text>
<g id="Scale">
<line id="Line 101" x1="11.5" y1="33" x2="11.5" y2="43" stroke="#0F1938"/>
<line id="Line 105" x1="53.5" y1="33" x2="53.5" y2="43" stroke="#0F1938"/>
<line id="Line 131" x1="32.5" y1="39" x2="32.5" y2="43" stroke="#0F1938"/>
<line id="Line 109" x1="95.5" y1="33" x2="95.5" y2="43" stroke="#0F1938"/>
<line id="Line 132" x1="74.5" y1="39" x2="74.5" y2="43" stroke="#0F1938"/>
<line id="Line 113" x1="137.5" y1="33" x2="137.5" y2="43" stroke="#0F1938"/>
<line id="Line 133" x1="116.5" y1="39" x2="116.5" y2="43" stroke="#0F1938"/>
<line id="Line 117" x1="179.5" y1="33" x2="179.5" y2="43" stroke="#0F1938"/>
<line id="Line 134" x1="158.5" y1="39" x2="158.5" y2="43" stroke="#0F1938"/>
<line id="Line 121" x1="221.5" y1="33" x2="221.5" y2="43" stroke="#0F1938"/>
<line id="Line 135" x1="200.5" y1="39" x2="200.5" y2="43" stroke="#0F1938"/>
<path id="Line 125" d="M263 33V43" stroke="#0F1938"/>
<path id="Line 136" d="M242 39V43" stroke="#0F1938"/>
<path id="Line 129" d="M305 33V43" stroke="#0F1938"/>
<path id="Line 137" d="M284 39V43" stroke="#0F1938"/>
<text id="0" fill="#0F1938" xml:space="preserve" style="white-space: pre" font-family="Jost*" font-size="8" letter-spacing="-0.02em"><tspan x="8.60156" y="29.28">0</tspan></text>
<text id="100" fill="#0F1938" xml:space="preserve" style="white-space: pre" font-family="Jost*" font-size="8" letter-spacing="-0.02em"><tspan x="46.5623" y="29.28">100</tspan></text>
<text id="200" fill="#0F1938" xml:space="preserve" style="white-space: pre" font-family="Jost*" font-size="8" letter-spacing="-0.02em"><tspan x="88.0858" y="29.28">200</tspan></text>
<text id="300" fill="#0F1938" xml:space="preserve" style="white-space: pre" font-family="Jost*" font-size="8" letter-spacing="-0.02em"><tspan x="131.18" y="29.28">300</tspan></text>
<text id="400" fill="#0F1938" xml:space="preserve" style="white-space: pre" font-family="Jost*" font-size="8" letter-spacing="-0.02em"><tspan x="172.031" y="29.28">400</tspan></text>
<text id="500" fill="#0F1938" xml:space="preserve" style="white-space: pre" font-family="Jost*" font-size="8" letter-spacing="-0.02em"><tspan x="214.105" y="29.28">500</tspan></text>
<text id="600" fill="#0F1938" xml:space="preserve" style="white-space: pre" font-family="Jost*" font-size="8" letter-spacing="-0.02em"><tspan x="256.058" y="29.28">600</tspan></text>
<text id="700" fill="#0F1938" xml:space="preserve" style="white-space: pre" font-family="Jost*" font-size="8" letter-spacing="-0.02em"><tspan x="298.262" y="29.28">700</tspan></text>
</g>
</g>
<path id="Line 163" d="M265.5 111L265.5 85" stroke="#0F1938"/>
<path id="Line 164" d="M155.5 111L155.5 88" stroke="#0F1938"/>
</g>
</svg>
