<svg width="218" height="159" viewBox="0 0 218 159" fill="none" xmlns="http://www.w3.org/2000/svg">
<g id="sharesDataTypes">
<text id="text" fill="#0F1938" xml:space="preserve" style="white-space: pre" font-family="Jost*" font-size="12" letter-spacing="-0.01em"><tspan x="51" y="11.17">one data type, </tspan><tspan x="51" y="25.17">shared 20 times</tspan></text>
<g id="A 2">
<g id="Group 2605">
<g id="Bassoons">
<path id="p 927.5401647572719" d="M41.4586 94.7042C38.4165 94.7042 35.4989 93.4958 33.3479 91.3447C31.1968 89.1936 29.9883 86.2761 29.9883 83.234C29.9883 80.1919 31.1968 77.2743 33.3479 75.1232C35.4989 72.9721 38.4165 71.7637 41.4586 71.7637C44.5007 71.7637 47.4182 72.9721 49.5693 75.1232C51.7204 77.2743 52.9289 80.1919 52.9289 83.234C52.9289 86.2761 51.7204 89.1936 49.5693 91.3447C47.4182 93.4958 44.5007 94.7042 41.4586 94.7042Z" fill="#3749A9"/>
</g>
<g id="Clarinets">
<path id="p 992.3448066312294" d="M65.9566 94.7042C62.9145 94.7042 59.997 93.4958 57.8459 91.3447C55.6948 89.1936 54.4863 86.2761 54.4863 83.234C54.4863 80.1919 55.6948 77.2743 57.8459 75.1232C59.997 72.9721 62.9145 71.7637 65.9566 71.7637C68.9987 71.7637 71.9162 72.9721 74.0673 75.1232C76.2184 77.2743 77.4269 80.1919 77.4269 83.234C77.4269 86.2761 76.2184 89.1936 74.0673 91.3447C71.9162 93.4958 68.9987 94.7042 65.9566 94.7042Z" fill="#3749A9"/>
</g>
<g id="Flutes">
<path id="p 1016.0649518402506" d="M54.1383 116.036C51.0961 116.036 48.1786 114.828 46.0275 112.677C43.8764 110.526 42.668 107.608 42.668 104.566C42.668 101.524 43.8764 98.6064 46.0275 96.4553C48.1786 94.3042 51.0961 93.0957 54.1383 93.0957C57.1804 93.0957 60.0979 94.3042 62.249 96.4553C64.4001 98.6064 65.6085 101.524 65.6085 104.566C65.6085 107.608 64.4001 110.526 62.249 112.677C60.0979 114.828 57.1804 116.036 54.1383 116.036Z" fill="#3749A9"/>
</g>
<g id="Oboes">
<path id="p 903.8200195482506" d="M54.1383 73.3703C51.0961 73.3703 48.1786 72.1618 46.0275 70.0107C43.8764 67.8596 42.668 64.9421 42.668 61.9C42.668 58.8579 43.8764 55.9404 46.0275 53.7893C48.1786 51.6382 51.0961 50.4297 54.1383 50.4297C57.1804 50.4297 60.0979 51.6382 62.249 53.7893C64.4001 55.9404 65.6085 58.8579 65.6085 61.9C65.6085 64.9421 64.4001 67.8596 62.249 70.0107C60.0979 72.1618 57.1804 73.3703 54.1383 73.3703Z" fill="#3749A9"/>
</g>
<g id="Bass Clarinet">
<path id="p 851.5761269661585" d="M36.7152 70.8756C35.418 70.8756 34.174 70.3604 33.2567 69.4431C32.3395 68.5259 31.8242 67.2819 31.8242 65.9847C31.8242 64.6875 32.3395 63.4435 33.2567 62.5263C34.174 61.609 35.418 61.0938 36.7152 61.0938C38.0123 61.0938 39.2564 61.609 40.1736 62.5263C41.0908 63.4435 41.6061 64.6875 41.6061 65.9847C41.6061 67.2819 41.0908 68.5259 40.1736 69.4431C39.2564 70.3604 38.0123 70.8756 36.7152 70.8756Z" fill="#3749A9"/>
</g>
<g id="Contrabassoon">
<path id="p 942.387957497467" d="M71.5628 70.8756C70.2657 70.8756 69.0216 70.3604 68.1044 69.4431C67.1872 68.5259 66.6719 67.2819 66.6719 65.9847C66.6719 64.6875 67.1872 63.4435 68.1044 62.5263C69.0216 61.609 70.2657 61.0938 71.5628 61.0938C72.86 61.0938 74.104 61.609 75.0212 62.5263C75.9385 63.4435 76.4538 64.6875 76.4538 65.9847C76.4538 67.2819 75.9385 68.5259 75.0212 69.4431C74.104 70.3604 72.86 70.8756 71.5628 70.8756Z" fill="#3749A9"/>
</g>
<g id="English Horn">
<path id="p 1032.2331697309874" d="M71.5628 105.372C70.2657 105.372 69.0216 104.856 68.1044 103.939C67.1872 103.022 66.6719 101.778 66.6719 100.481C66.6719 99.1836 67.1872 97.9396 68.1044 97.0224C69.0216 96.1051 70.2657 95.5898 71.5628 95.5898C72.86 95.5898 74.104 96.1051 75.0212 97.0224C75.9385 97.9396 76.4538 99.1836 76.4538 100.481C76.4538 101.778 75.9385 103.022 75.0212 103.939C74.104 104.856 72.86 105.372 71.5628 105.372Z" fill="#3749A9"/>
</g>
<g id="Piccolo">
<path id="p 941.4213391996789" d="M36.7152 105.372C35.418 105.372 34.174 104.856 33.2567 103.939C32.3395 103.022 31.8242 101.778 31.8242 100.481C31.8242 99.1836 32.3395 97.9396 33.2567 97.0224C34.174 96.1051 35.418 95.5898 36.7152 95.5898C38.0123 95.5898 39.2564 96.1051 40.1736 97.0224C41.0908 97.9396 41.6061 99.1836 41.6061 100.481C41.6061 101.778 41.0908 103.022 40.1736 103.939C39.2564 104.856 38.0123 105.372 36.7152 105.372Z" fill="#3749A9"/>
</g>
</g>
</g>
<g id="B 2">
<g id="Group 2595">
<g id="1">
<path id="p 205.59309900353608" d="M153.608 94.5496C152.165 94.5496 150.736 94.2655 149.403 93.7133C148.07 93.1612 146.859 92.3519 145.839 91.3317C144.819 90.3115 144.01 89.1003 143.457 87.7673C142.905 86.4344 142.621 85.0057 142.621 83.5629C142.621 82.1201 142.905 80.6914 143.457 79.3585C144.01 78.0255 144.819 76.8143 145.839 75.7941C146.859 74.7739 148.07 73.9646 149.403 73.4125C150.736 72.8604 152.165 72.5762 153.608 72.5762C155.051 72.5762 156.479 72.8604 157.812 73.4125C159.145 73.9646 160.356 74.7739 161.377 75.7941C162.397 76.8143 163.206 78.0255 163.758 79.3585C164.31 80.6914 164.595 82.1201 164.595 83.5629C164.595 85.0057 164.31 86.4344 163.758 87.7673C163.206 89.1003 162.397 90.3115 161.377 91.3317C160.356 92.3519 159.145 93.1612 157.812 93.7133C156.479 94.2655 155.051 94.5496 153.608 94.5496Z" fill="#3749A9"/>
</g>
<g id="2013">
<path id="p 216.50911032969074" d="M175.21 91.8043C173.024 91.8043 170.928 90.9362 169.383 89.3909C167.838 87.8456 166.97 85.7497 166.97 83.5643C166.97 81.3789 167.838 79.283 169.383 77.7377C170.928 76.1924 173.024 75.3242 175.21 75.3242C177.395 75.3242 179.491 76.1924 181.036 77.7377C182.582 79.283 183.45 81.3789 183.45 83.5643C183.45 85.7497 182.582 87.8456 181.036 89.3909C179.491 90.9362 177.395 91.8043 175.21 91.8043Z" fill="#3749A9"/>
</g>
<g id="4">
<path id="p 220.26416287060275" d="M166.856 106.643C164.929 106.643 163.08 105.878 161.717 104.515C160.354 103.152 159.589 101.304 159.589 99.3764C159.589 97.4491 160.354 95.6007 161.717 94.2378C163.08 92.875 164.929 92.1094 166.856 92.1094C168.783 92.1094 170.632 92.875 171.994 94.2378C173.357 95.6007 174.123 97.4491 174.123 99.3764C174.123 101.304 173.357 103.152 171.994 104.515C170.632 105.878 168.783 106.643 166.856 106.643Z" fill="#3749A9"/>
</g>
<g id="2014">
<path id="p 201.9561635746254" d="M166.856 75.0185C164.929 75.0185 163.08 74.2528 161.717 72.89C160.354 71.5272 159.589 69.6788 159.589 67.7514C159.589 65.8241 160.354 63.9757 161.717 62.6128C163.08 61.25 164.929 60.4844 166.856 60.4844C168.783 60.4844 170.632 61.25 171.994 62.6128C173.357 63.9757 174.123 65.8241 174.123 67.7514C174.123 69.6788 173.357 71.5272 171.994 72.89C170.632 74.2528 168.783 75.0185 166.856 75.0185Z" fill="#3749A9"/>
</g>
<g id="5">
<path id="p 190.33408718065695" d="M151.482 70.3167C149.853 70.3167 148.291 69.6697 147.139 68.5179C145.987 67.3661 145.34 65.8039 145.34 64.175C145.34 62.5461 145.987 60.9839 147.139 59.8321C148.291 58.6803 149.853 58.0332 151.482 58.0332C153.111 58.0332 154.673 58.6803 155.825 59.8321C156.976 60.9839 157.623 62.5461 157.623 64.175C157.623 65.8039 156.976 67.3661 155.825 68.5179C154.673 69.6697 153.111 70.3167 151.482 70.3167Z" fill="#3749A9"/>
</g>
<g id="10">
<path id="p 211.9009265469597" d="M152.635 106.417C151.374 106.417 150.164 105.916 149.271 105.024C148.379 104.132 147.878 102.921 147.878 101.66C147.878 100.398 148.379 99.1879 149.271 98.2958C150.164 97.4036 151.374 96.9023 152.635 96.9023C153.897 96.9023 155.107 97.4036 155.999 98.2958C156.891 99.1879 157.393 100.398 157.393 101.66C157.393 102.921 156.891 104.132 155.999 105.024C155.107 105.916 153.897 106.417 152.635 106.417Z" fill="#3749A9"/>
</g>
<g id="16">
<path id="p 209.734587740127" d="M181.167 74.1476C179.905 74.1476 178.695 73.6464 177.803 72.7542C176.91 71.862 176.409 70.6519 176.409 69.3902C176.409 68.1285 176.91 66.9184 177.803 66.0262C178.695 65.134 179.905 64.6328 181.167 64.6328C182.428 64.6328 183.638 65.134 184.531 66.0262C185.423 66.9184 185.924 68.1285 185.924 69.3902C185.924 70.6519 185.423 71.862 184.531 72.7542C183.638 73.6464 182.428 74.1476 181.167 74.1476Z" fill="#3749A9"/>
</g>
<g id="26">
<path id="p 226.14540755007863" d="M181.167 102.495C179.905 102.495 178.695 101.994 177.803 101.102C176.91 100.21 176.409 98.9996 176.409 97.7379C176.409 96.4761 176.91 95.2661 177.803 94.3739C178.695 93.4817 179.905 92.9805 181.167 92.9805C182.428 92.9805 183.638 93.4817 184.531 94.3739C185.423 95.2661 185.924 96.4761 185.924 97.7379C185.924 98.9996 185.423 100.21 184.531 101.102C183.638 101.994 182.428 102.495 181.167 102.495Z" fill="#3749A9"/>
</g>
<g id="6">
<path id="p 202.92481514432887" d="M141.628 101.921C140.367 101.921 139.157 101.42 138.265 100.528C137.372 99.6354 136.871 98.4254 136.871 97.1636C136.871 95.9019 137.372 94.6918 138.265 93.7997C139.157 92.9075 140.367 92.4062 141.628 92.4062C142.89 92.4062 144.1 92.9075 144.992 93.7997C145.885 94.6918 146.386 95.9019 146.386 97.1636C146.386 98.4254 145.885 99.6354 144.992 100.528C144.1 101.42 142.89 101.921 141.628 101.921Z" fill="#3749A9"/>
</g>
<g id="15">
<path id="p 187.36137538748656" d="M141.39 75.2707C140.36 75.2707 139.372 74.8615 138.644 74.133C137.915 73.4046 137.506 72.4166 137.506 71.3863C137.506 70.3561 137.915 69.3681 138.644 68.6397C139.372 67.9112 140.36 67.502 141.39 67.502C142.42 67.502 143.408 67.9112 144.137 68.6397C144.865 69.3681 145.275 70.3561 145.275 71.3863C145.275 72.4166 144.865 73.4046 144.137 74.133C143.408 74.8615 142.42 75.2707 141.39 75.2707Z" fill="#3749A9"/>
</g>
<g id="7">
<path id="p 220.3163901029635" d="M159.186 114.406C158.156 114.406 157.168 113.996 156.439 113.268C155.711 112.539 155.302 111.551 155.302 110.521C155.302 109.491 155.711 108.503 156.439 107.774C157.168 107.046 158.156 106.637 159.186 106.637C160.216 106.637 161.204 107.046 161.933 107.774C162.661 108.503 163.071 109.491 163.071 110.521C163.071 111.551 162.661 112.539 161.933 113.268C161.204 113.996 160.216 114.406 159.186 114.406Z" fill="#3749A9"/>
</g>
<g id="25">
<path id="p 218.23224177552564" d="M188.454 81.5364C187.424 81.5364 186.436 81.1271 185.707 80.3987C184.979 79.6702 184.569 78.6822 184.569 77.652C184.569 76.6218 184.979 75.6338 185.707 74.9053C186.436 74.1768 187.424 73.7676 188.454 73.7676C189.484 73.7676 190.472 74.1768 191.2 74.9053C191.929 75.6338 192.338 76.6218 192.338 77.652C192.338 78.6822 191.929 79.6702 191.2 80.3987C190.472 81.1271 189.484 81.5364 188.454 81.5364Z" fill="#3749A9"/>
</g>
<g id="12">
<path id="p 225.07485221122357" d="M188.454 93.3606C187.424 93.3606 186.436 92.9513 185.707 92.2229C184.979 91.4944 184.569 90.5064 184.569 89.4762C184.569 88.446 184.979 87.458 185.707 86.7295C186.436 86.001 187.424 85.5918 188.454 85.5918C189.484 85.5918 190.472 86.001 191.2 86.7295C191.929 87.458 192.338 88.446 192.338 89.4762C192.338 90.5064 191.929 91.4944 191.2 92.2229C190.472 92.9513 189.484 93.3606 188.454 93.3606Z" fill="#3749A9"/>
</g>
<g id="20">
<path id="p 189.46603226696678" d="M160.339 59.9582C159.611 59.9582 158.912 59.6688 158.397 59.1537C157.882 58.6386 157.593 57.94 157.593 57.2115C157.593 56.4831 157.882 55.7844 158.397 55.2693C158.912 54.7542 159.611 54.4648 160.339 54.4648C161.068 54.4648 161.767 54.7542 162.282 55.2693C162.797 55.7844 163.086 56.4831 163.086 57.2115C163.086 57.94 162.797 58.6386 162.282 59.1537C161.767 59.6688 161.068 59.9582 160.339 59.9582Z" fill="#3749A9"/>
</g>
<g id="114">
<path id="p 200.93916465445517" d="M176.891 63.2258C176.163 63.2258 175.464 62.9364 174.949 62.4213C174.434 61.9062 174.145 61.2076 174.145 60.4791C174.145 59.7506 174.434 59.052 174.949 58.5369C175.464 58.0218 176.163 57.7324 176.891 57.7324C177.62 57.7324 178.318 58.0218 178.833 58.5369C179.349 59.052 179.638 59.7506 179.638 60.4791C179.638 61.2076 179.349 61.9062 178.833 62.4213C178.318 62.9364 177.62 63.2258 176.891 63.2258Z" fill="#3749A9"/>
</g>
<g id="21">
<path id="p 227.66438034640876" d="M176.891 109.394C176.163 109.394 175.464 109.104 174.949 108.589C174.434 108.074 174.145 107.376 174.145 106.647C174.145 105.919 174.434 105.22 174.949 104.705C175.464 104.19 176.163 103.9 176.891 103.9C177.62 103.9 178.318 104.19 178.833 104.705C179.349 105.22 179.638 105.919 179.638 106.647C179.638 107.376 179.349 108.074 178.833 108.589C178.318 109.104 177.62 109.394 176.891 109.394Z" fill="#3749A9"/>
</g>
<g id="59">
<path id="p 194.37524382875694" d="M138.099 90.6789C137.371 90.6789 136.672 90.3895 136.157 89.8744C135.642 89.3593 135.353 88.6607 135.353 87.9322C135.353 87.2038 135.642 86.5051 136.157 85.99C136.672 85.4749 137.371 85.1855 138.099 85.1855C138.828 85.1855 139.526 85.4749 140.041 85.99C140.557 86.5051 140.846 87.2038 140.846 87.9322C140.846 88.6607 140.557 89.3593 140.041 89.8744C139.526 90.3895 138.828 90.6789 138.099 90.6789Z" fill="#3749A9"/>
</g>
<g id="57">
<path id="p 189.54012764793683" d="M137.964 82.4641C137.236 82.4641 136.537 82.1747 136.022 81.6596C135.507 81.1445 135.218 80.4459 135.218 79.7174C135.218 78.9889 135.507 78.2903 136.022 77.7752C136.537 77.2601 137.236 76.9707 137.964 76.9707C138.693 76.9707 139.392 77.2601 139.907 77.7752C140.422 78.2903 140.711 78.9889 140.711 79.7174C140.711 80.4459 140.422 81.1445 139.907 81.6596C139.392 82.1747 138.693 82.4641 137.964 82.4641Z" fill="#3749A9"/>
</g>
<g id="128">
<path id="p 224.9303702003714" d="M195.254 86.3098C194.525 86.3098 193.826 86.0204 193.311 85.5053C192.796 84.9902 192.507 84.2916 192.507 83.5631C192.507 82.8346 192.796 82.136 193.311 81.6209C193.826 81.1058 194.525 80.8164 195.254 80.8164C195.982 80.8164 196.681 81.1058 197.196 81.6209C197.711 82.136 198 82.8346 198 83.5631C198 84.2916 197.711 84.9902 197.196 85.5053C196.681 86.0204 195.982 86.3098 195.254 86.3098Z" fill="#3749A9"/>
</g>
<g id="35">
<path id="p 208.75041441545662" d="M144.148 109.464C143.42 109.464 142.721 109.175 142.206 108.66C141.691 108.144 141.401 107.446 141.401 106.717C141.401 105.989 141.691 105.29 142.206 104.775C142.721 104.26 143.42 103.971 144.148 103.971C144.877 103.971 145.575 104.26 146.09 104.775C146.605 105.29 146.895 105.989 146.895 106.717C146.895 107.446 146.605 108.144 146.09 108.66C145.575 109.175 144.877 109.464 144.148 109.464Z" fill="#3749A9"/>
</g>
<g id="82">
<path id="p 225.51214563093228" d="M168.115 114.452C167.386 114.452 166.688 114.163 166.173 113.648C165.658 113.133 165.368 112.434 165.368 111.706C165.368 110.977 165.658 110.279 166.173 109.763C166.688 109.248 167.386 108.959 168.115 108.959C168.843 108.959 169.542 109.248 170.057 109.763C170.572 110.279 170.862 110.977 170.862 111.706C170.862 112.434 170.572 113.133 170.057 113.648C169.542 114.163 168.843 114.452 168.115 114.452Z" fill="#3749A9"/>
</g>
<g id="94">
<path id="p 192.85922213987493" d="M168 58.1594C167.271 58.1594 166.573 57.87 166.057 57.3549C165.542 56.8398 165.253 56.1412 165.253 55.4127C165.253 54.6842 165.542 53.9856 166.057 53.4705C166.573 52.9554 167.271 52.666 168 52.666C168.728 52.666 169.427 52.9554 169.942 53.4705C170.457 53.9856 170.746 54.6842 170.746 55.4127C170.746 56.1412 170.457 56.8398 169.942 57.3549C169.427 57.87 168.728 58.1594 168 58.1594Z" fill="#3749A9"/>
</g>
<g id="126">
<path id="p 180.9206545896412" d="M140.353 65.1867C139.625 65.1867 138.926 64.8973 138.411 64.3822C137.896 63.8671 137.606 63.1685 137.606 62.44C137.606 61.7116 137.896 61.0129 138.411 60.4978C138.926 59.9827 139.625 59.6934 140.353 59.6934C141.082 59.6934 141.78 59.9827 142.295 60.4978C142.81 61.0129 143.1 61.7116 143.1 62.44C143.1 63.1685 142.81 63.8671 142.295 64.3822C141.78 64.8973 141.082 65.1867 140.353 65.1867Z" fill="#3749A9"/>
</g>
<g id="84">
<path id="p 215.1599486358369" d="M150.254 114.431C149.525 114.431 148.826 114.141 148.311 113.626C147.796 113.111 147.507 112.413 147.507 111.684C147.507 110.956 147.796 110.257 148.311 109.742C148.826 109.227 149.525 108.938 150.254 108.938C150.982 108.938 151.681 109.227 152.196 109.742C152.711 110.257 153 110.956 153 111.684C153 112.413 152.711 113.111 152.196 113.626C151.681 114.141 150.982 114.431 150.254 114.431Z" fill="#3749A9"/>
</g>
<g id="14">
<path id="p 214.07577104780782" d="M191.043 71.7707C190.314 71.7707 189.615 71.4813 189.1 70.9662C188.585 70.4511 188.296 69.7525 188.296 69.024C188.296 68.2956 188.585 67.5969 189.1 67.0818C189.615 66.5667 190.314 66.2773 191.043 66.2773C191.771 66.2773 192.47 66.5667 192.985 67.0818C193.5 67.5969 193.789 68.2956 193.789 69.024C193.789 69.7525 193.5 70.4511 192.985 70.9662C192.47 71.4813 191.771 71.7707 191.043 71.7707Z" fill="#3749A9"/>
</g>
<g id="17">
<path id="p 183.20375558785682" d="M153.619 55.8606C152.89 55.8606 152.192 55.5712 151.677 55.0561C151.161 54.541 150.872 53.8423 150.872 53.1139C150.872 52.3854 151.161 51.6868 151.677 51.1717C152.192 50.6566 152.89 50.3672 153.619 50.3672C154.347 50.3672 155.046 50.6566 155.561 51.1717C156.076 51.6868 156.365 52.3854 156.365 53.1139C156.365 53.8423 156.076 54.541 155.561 55.0561C155.046 55.5712 154.347 55.8606 153.619 55.8606Z" fill="#3749A9"/>
</g>
<g id="130">
<path id="p 183.10738099564006" d="M132.725 76.5891C131.997 76.5891 131.298 76.2997 130.783 75.7846C130.268 75.2695 129.979 74.5709 129.979 73.8424C129.979 73.1139 130.268 72.4153 130.783 71.9002C131.298 71.3851 131.997 71.0957 132.725 71.0957C133.454 71.0957 134.152 71.3851 134.667 71.9002C135.183 72.4153 135.472 73.1139 135.472 73.8424C135.472 74.5709 135.183 75.2695 134.667 75.7846C134.152 76.2997 133.454 76.5891 132.725 76.5891Z" fill="#3749A9"/>
</g>
<g id="9">
<path id="p 194.30703424648078" d="M132.476 96.1848C131.748 96.1848 131.049 95.8954 130.534 95.3803C130.019 94.8652 129.729 94.1666 129.729 93.4381C129.729 92.7096 130.019 92.011 130.534 91.4959C131.049 90.9808 131.748 90.6914 132.476 90.6914C133.205 90.6914 133.903 90.9808 134.418 91.4959C134.933 92.011 135.223 92.7096 135.223 93.4381C135.223 94.1666 134.933 94.8652 134.418 95.3803C133.903 95.8954 133.205 96.1848 132.476 96.1848Z" fill="#3749A9"/>
</g>
<g id="63">
<path id="p 205.32019714762495" d="M184.757 62.9309C184.029 62.9309 183.33 62.6415 182.815 62.1264C182.3 61.6113 182.011 60.9126 182.011 60.1842C182.011 59.4557 182.3 58.7571 182.815 58.242C183.33 57.7269 184.029 57.4375 184.757 57.4375C185.486 57.4375 186.185 57.7269 186.7 58.242C187.215 58.7571 187.504 59.4557 187.504 60.1842C187.504 60.9126 187.215 61.6113 186.7 62.1264C186.185 62.6415 185.486 62.9309 184.757 62.9309Z" fill="#3749A9"/>
</g>
<g id="65">
<path id="p 232.38903004148466" d="M184.757 109.691C184.029 109.691 183.33 109.401 182.815 108.886C182.3 108.371 182.011 107.672 182.011 106.944C182.011 106.215 182.3 105.517 182.815 105.002C183.33 104.487 184.029 104.197 184.757 104.197C185.486 104.197 186.185 104.487 186.7 105.002C187.215 105.517 187.504 106.215 187.504 106.944C187.504 107.672 187.215 108.371 186.7 108.886C186.185 109.401 185.486 109.691 184.757 109.691Z" fill="#3749A9"/>
</g>
</g>
</g>
<g id="Label">
<rect x="0.5" y="125" width="105" height="34" rx="2" fill="#F7FAFC" fill-opacity="0.7"/>
<text id="boldLabel1" fill="#0F1938" xml:space="preserve" style="white-space: pre" font-family="Jost*" font-size="13" letter-spacing="-0.01em"><tspan x="19.0187" y="138.517">8 data types&#10;</tspan><tspan x="4.79336" y="154.517">shared 100 times</tspan></text>
</g>
<g id="Label_2">
<rect x="112.5" y="125" width="105" height="34" rx="2" fill="#F7FAFC" fill-opacity="0.7"/>
<text id="boldLabel2" fill="#0F1938" xml:space="preserve" style="white-space: pre" font-family="Jost*" font-size="13" letter-spacing="-0.01em"><tspan x="127.04" y="138.517">30 data types&#10;</tspan><tspan x="116.793" y="154.517">shared 100 times</tspan></text>
</g>
<line id="Line 273" x1="54.5" y1="49" x2="54.5" y2="29" stroke="#0F1938"/>
</g>
</svg>
