<svg width="223" height="268" viewBox="0 0 223 268" fill="none" xmlns="http://www.w3.org/2000/svg">
<g id="typesDataTypes">
<g id="viz">
<g id="nodes">
<g id="1">
<path id="p 237.91960400752305" d="M83.0168 148.141C72.7637 148.141 62.9305 144.068 55.6805 136.818C48.4304 129.568 44.3574 119.735 44.3574 109.482C44.3574 99.2285 48.4304 89.3954 55.6805 82.1453C62.9305 74.8953 72.7637 70.8223 83.0168 70.8223C93.2699 70.8223 103.103 74.8953 110.353 82.1453C117.603 89.3954 121.676 99.2285 121.676 109.482C121.676 119.735 117.603 129.568 110.353 136.818C103.103 144.068 93.2699 148.141 83.0168 148.141V148.141Z" fill="#3749A9"/>
</g>
<g id="2">
<path id="p 296.18138803194887" d="M151.714 137.706C144.229 137.706 137.05 134.732 131.757 129.439C126.464 124.146 123.49 116.967 123.49 109.482C123.49 101.996 126.464 94.8174 131.757 89.5244C137.05 84.2314 144.229 81.2578 151.714 81.2578C159.2 81.2578 166.378 84.2314 171.671 89.5244C176.964 94.8174 179.938 101.996 179.938 109.482C179.938 116.967 176.964 124.146 171.671 129.439C166.378 134.732 159.2 137.706 151.714 137.706V137.706Z" fill="#3749A9"/>
</g>
<g id="3">
<path id="p 316.19788970376584" d="M126.487 182.95C119.912 182.95 113.607 180.338 108.958 175.689C104.309 171.04 101.697 164.735 101.697 158.16C101.697 151.586 104.309 145.281 108.958 140.632C113.607 135.983 119.912 133.371 126.487 133.371C133.061 133.371 139.366 135.983 144.015 140.632C148.664 145.281 151.276 151.586 151.276 158.16C151.276 164.735 148.664 171.04 144.015 175.689C139.366 180.338 133.061 182.95 126.487 182.95V182.95Z" fill="#3749A9"/>
</g>
<g id="5">
<path id="p 219.17685971404282" d="M125.824 86.5921C120.407 86.5921 115.211 84.44 111.38 80.6092C107.55 76.7784 105.397 71.5828 105.397 66.1652C105.397 60.7476 107.55 55.552 111.38 51.7212C115.211 47.8904 120.407 45.7383 125.824 45.7383C131.242 45.7383 136.438 47.8904 140.268 51.7212C144.099 55.552 146.251 60.7476 146.251 66.1652C146.251 71.5828 144.099 76.7784 140.268 80.6092C136.438 84.44 131.242 86.5921 125.824 86.5921V86.5921Z" fill="#3749A9"/>
</g>
<g id="4">
<path id="p 163.43064135804394" d="M87.4939 69.1772C82.3284 69.1772 77.3746 67.1253 73.7221 63.4727C70.0695 59.8202 68.0176 54.8664 68.0176 49.7009C68.0176 44.5355 70.0695 39.5816 73.7221 35.9291C77.3746 32.2766 82.3284 30.2246 87.4939 30.2246C92.6593 30.2246 97.6132 32.2766 101.266 35.9291C104.918 39.5816 106.97 44.5355 106.97 49.7009C106.97 54.8664 104.918 59.8202 101.266 63.4727C97.6132 67.1253 92.6593 69.1772 87.4939 69.1772V69.1772Z" fill="#3749A9"/>
</g>
<g id="6">
<path id="p 276.0132303589247" d="M82.7567 186.496C77.9111 186.496 73.264 184.571 69.8376 181.145C66.4112 177.718 64.4863 173.071 64.4863 168.225C64.4863 163.38 66.4112 158.733 69.8376 155.306C73.264 151.88 77.9111 149.955 82.7567 149.955C87.6023 149.955 92.2495 151.88 95.6758 155.306C99.1022 158.733 101.027 163.38 101.027 168.225C101.027 173.071 99.1022 177.718 95.6758 181.145C92.2495 184.571 87.6023 186.496 82.7567 186.496V186.496Z" fill="#3749A9"/>
</g>
<g id="7">
<path id="p 251.43099449882112" d="M163.64 81.0312C159.507 81.0312 155.544 79.3897 152.622 76.4676C149.7 73.5456 148.059 69.5825 148.059 65.4502C148.059 61.3178 149.7 57.3547 152.622 54.4327C155.544 51.5107 159.507 49.8691 163.64 49.8691C167.772 49.8691 171.735 51.5107 174.657 54.4327C177.579 57.3547 179.221 61.3178 179.221 65.4502C179.221 69.5825 177.579 73.5456 174.657 76.4676C171.735 79.3897 167.772 81.0312 163.64 81.0312V81.0312Z" fill="#3749A9"/>
</g>
<g id="12">
<path id="p 335.97549132357364" d="M165.547 163.667C162.044 163.667 158.684 162.275 156.207 159.798C153.73 157.321 152.338 153.961 152.338 150.458C152.338 146.954 153.73 143.594 156.207 141.117C158.684 138.64 162.044 137.248 165.547 137.248C169.051 137.248 172.411 138.64 174.888 141.117C177.365 143.594 178.757 146.954 178.757 150.458C178.757 153.961 177.365 157.321 174.888 159.798C172.411 162.275 169.051 163.667 165.547 163.667V163.667Z" fill="#3749A9"/>
</g>
<g id="8">
<path id="p 139.1626192409191" d="M56.1271 76.2738C52.7008 76.2738 49.4147 74.9127 46.9919 72.4899C44.5691 70.0671 43.208 66.781 43.208 63.3547C43.208 59.9283 44.5691 56.6423 46.9919 54.2195C49.4147 51.7967 52.7008 50.4355 56.1271 50.4355C59.5535 50.4355 62.8395 51.7967 65.2623 54.2195C67.6851 56.6423 69.0462 59.9283 69.0462 63.3547C69.0462 66.781 67.6851 70.0671 65.2623 72.4899C62.8395 74.9127 59.5535 76.2738 56.1271 76.2738V76.2738Z" fill="#3749A9"/>
</g>
<g id="10">
<path id="p 226.4920222772485" d="M53.4951 166.236C51.8376 166.236 50.1963 165.91 48.6649 165.276C47.1335 164.641 45.742 163.712 44.57 162.539C43.3979 161.367 42.4682 159.976 41.8338 158.445C41.1995 156.913 40.873 155.272 40.873 153.614C40.873 151.957 41.1995 150.315 41.8338 148.784C42.4682 147.253 43.3979 145.861 44.57 144.689C45.742 143.517 47.1335 142.587 48.6649 141.953C50.1963 141.319 51.8376 140.992 53.4951 140.992C55.1527 140.992 56.794 141.319 58.3254 141.953C59.8568 142.587 61.2482 143.517 62.4203 144.689C63.5924 145.861 64.5221 147.253 65.1564 148.784C65.7907 150.315 66.1172 151.957 66.1172 153.614C66.1172 155.272 65.7907 156.913 65.1564 158.445C64.5221 159.976 63.5924 161.367 62.4203 162.539C61.2482 163.712 59.8568 164.641 58.3254 165.276C56.794 165.91 55.1527 166.236 53.4951 166.236V166.236Z" fill="#3749A9"/>
</g>
<g id="9">
<path id="p 168.5249901354289" d="M116.582 45.1827C114.964 45.1827 113.362 44.8641 111.868 44.245C110.373 43.626 109.015 42.7187 107.872 41.5748C106.728 40.431 105.82 39.0731 105.201 37.5786C104.582 36.0842 104.264 34.4824 104.264 32.8648C104.264 31.2472 104.582 29.6454 105.201 28.1509C105.82 26.6564 106.728 25.2985 107.872 24.1547C109.015 23.0109 110.373 22.1036 111.868 21.4845C113.362 20.8655 114.964 20.5469 116.582 20.5469C118.199 20.5469 119.801 20.8655 121.295 21.4845C122.79 22.1036 124.148 23.0109 125.292 24.1547C126.435 25.2985 127.343 26.6564 127.962 28.1509C128.581 29.6454 128.899 31.2472 128.899 32.8648C128.899 34.4824 128.581 36.0842 127.962 37.5786C127.343 39.0731 126.435 40.431 125.292 41.5748C124.148 42.7187 122.79 43.626 121.295 44.245C119.801 44.8641 118.199 45.1827 116.582 45.1827V45.1827Z" fill="#3749A9"/>
</g>
<g id="15">
<path id="p 290.07124142230373" d="M186.159 97.1514C184.541 97.1514 182.939 96.8328 181.445 96.2138C179.95 95.5947 178.592 94.6874 177.449 93.5436C176.305 92.3998 175.397 91.0419 174.778 89.5474C174.159 88.0529 173.841 86.4511 173.841 84.8335C173.841 83.2159 174.159 81.6141 174.778 80.1197C175.397 78.6252 176.305 77.2673 177.449 76.1235C178.592 74.9796 179.95 74.0723 181.445 73.4533C182.939 72.8342 184.541 72.5156 186.159 72.5156C187.776 72.5156 189.378 72.8342 190.873 73.4533C192.367 74.0723 193.725 74.9796 194.869 76.1235C196.013 77.2673 196.92 78.6252 197.539 80.1197C198.158 81.6141 198.477 83.2159 198.477 84.8335C198.477 86.4511 198.158 88.0529 197.539 89.5474C196.92 91.0419 196.013 92.3998 194.869 93.5436C193.725 94.6874 192.367 95.5947 190.873 96.2138C189.378 96.8328 187.776 97.1514 186.159 97.1514V97.1514Z" fill="#3749A9"/>
</g>
<g id="20">
<path id="p 315.1292538777545" d="M105.679 202.69C104.102 202.69 102.541 202.379 101.084 201.776C99.6277 201.172 98.3042 200.288 97.1893 199.173C96.0745 198.058 95.1901 196.735 94.5868 195.278C93.9834 193.822 93.6729 192.26 93.6729 190.684C93.6729 189.107 93.9834 187.546 94.5868 186.089C95.1901 184.633 96.0745 183.309 97.1893 182.194C98.3042 181.079 99.6277 180.195 101.084 179.592C102.541 178.988 104.102 178.678 105.679 178.678C107.256 178.678 108.817 178.988 110.273 179.592C111.73 180.195 113.054 181.079 114.168 182.194C115.283 183.309 116.168 184.633 116.771 186.089C117.374 187.546 117.685 189.107 117.685 190.684C117.685 192.26 117.374 193.822 116.771 195.278C116.168 196.735 115.283 198.058 114.168 199.173C113.054 200.288 111.73 201.172 110.273 201.776C108.817 202.379 107.256 202.69 105.679 202.69V202.69Z" fill="#3749A9"/>
</g>
<g id="14">
<path id="p 207.44513344165455" d="M148.328 52.3558C146.752 52.3558 145.19 52.0452 143.734 51.4418C142.277 50.8385 140.954 49.9541 139.839 48.8393C138.724 47.7244 137.84 46.4009 137.236 44.9442C136.633 43.4876 136.322 41.9264 136.322 40.3498C136.322 38.7731 136.633 37.2119 137.236 35.7553C137.84 34.2986 138.724 32.9751 139.839 31.8602C140.954 30.7454 142.277 29.861 143.734 29.2577C145.19 28.6543 146.752 28.3437 148.328 28.3438C149.905 28.3437 151.466 28.6543 152.923 29.2577C154.379 29.861 155.703 30.7454 156.818 31.8602C157.933 32.9751 158.817 34.2986 159.42 35.7553C160.024 37.2119 160.334 38.7731 160.334 40.3498C160.334 41.9264 160.024 43.4876 159.42 44.9442C158.817 46.4009 157.933 47.7244 156.818 48.8393C155.703 49.9541 154.379 50.8385 152.923 51.4418C151.466 52.0452 149.905 52.3558 148.328 52.3558V52.3558Z" fill="#3749A9"/>
</g>
<g id="16">
<path id="p 337.70971496346493" d="M185.992 144.956C184.458 144.956 182.938 144.653 181.52 144.066C180.103 143.479 178.814 142.618 177.729 141.533C176.644 140.448 175.783 139.16 175.196 137.742C174.609 136.324 174.307 134.804 174.307 133.27C174.307 131.735 174.609 130.216 175.196 128.798C175.783 127.38 176.644 126.092 177.729 125.007C178.814 123.922 180.103 123.061 181.52 122.474C182.938 121.886 184.458 121.584 185.992 121.584C187.527 121.584 189.047 121.886 190.464 122.474C191.882 123.061 193.17 123.922 194.256 125.007C195.341 126.092 196.201 127.38 196.789 128.798C197.376 130.216 197.678 131.735 197.678 133.27C197.678 134.804 197.376 136.324 196.789 137.742C196.201 139.16 195.341 140.448 194.256 141.533C193.17 142.618 191.882 143.479 190.464 144.066C189.047 144.653 187.527 144.956 185.992 144.956V144.956Z" fill="#3749A9"/>
</g>
<g id="13">
<path id="p 352.37453187682837" d="M159.515 186.099C156.686 186.099 153.973 184.975 151.972 182.974C149.972 180.974 148.848 178.261 148.848 175.431C148.848 172.602 149.972 169.889 151.972 167.888C153.973 165.888 156.686 164.764 159.515 164.764C162.344 164.764 165.058 165.888 167.058 167.888C169.059 169.889 170.183 172.602 170.183 175.431C170.183 178.261 169.059 180.974 167.058 182.974C165.058 184.975 162.344 186.099 159.515 186.099V186.099Z" fill="#3749A9"/>
</g>
<g id="29">
<path id="p 139.5316279628746" d="M39.5241 93.2454C36.6948 93.2454 33.9815 92.1215 31.9809 90.1209C29.9804 88.1203 28.8564 85.407 28.8564 82.5778C28.8564 79.7485 29.9804 77.0352 31.9809 75.0346C33.9815 73.0341 36.6948 71.9102 39.5241 71.9102C42.3533 71.9102 45.0666 73.0341 47.0672 75.0346C49.0678 77.0352 50.1917 79.7485 50.1917 82.5778C50.1917 85.407 49.0678 88.1203 47.0672 90.1209C45.0666 92.1215 42.3533 93.2454 39.5241 93.2454V93.2454Z" fill="#3749A9"/>
</g>
<g id="22">
<path id="p 189.9477893403161" d="M39.5033 143.682C36.9728 143.682 34.5459 142.677 32.7565 140.888C30.9672 139.098 29.9619 136.672 29.9619 134.141C29.9619 131.61 30.9672 129.184 32.7565 127.394C34.5459 125.605 36.9728 124.6 39.5033 124.6C42.0339 124.6 44.4607 125.605 46.2501 127.394C48.0395 129.184 49.0447 131.61 49.0447 134.141C49.0447 136.672 48.0395 139.098 46.2501 140.888C44.4607 142.677 42.0339 143.682 39.5033 143.682V143.682Z" fill="#3749A9"/>
</g>
<g id="18">
<path id="p 173.0320674312967" d="M136.562 29.7098C134.031 29.7098 131.604 28.7045 129.815 26.9151C128.026 25.1258 127.021 22.6989 127.021 20.1684C127.021 17.6378 128.026 15.2109 129.815 13.4216C131.604 11.6322 134.031 10.627 136.562 10.627C139.092 10.627 141.519 11.6322 143.309 13.4216C145.098 15.2109 146.103 17.6378 146.103 20.1684C146.103 22.6989 145.098 25.1258 143.309 26.9151C141.519 28.7045 139.092 29.7098 136.562 29.7098V29.7098Z" fill="#3749A9"/>
</g>
<g id="26">
<path id="p 315.5160450766354" d="M191.264 117.491C188.734 117.491 186.307 116.486 184.517 114.696C182.728 112.907 181.723 110.48 181.723 107.95C181.723 105.419 182.728 102.992 184.517 101.203C186.307 99.4135 188.734 98.4082 191.264 98.4082C193.795 98.4082 196.221 99.4135 198.011 101.203C199.8 102.992 200.805 105.419 200.805 107.95C200.805 110.48 199.8 112.907 198.011 114.696C196.221 116.486 193.795 117.491 191.264 117.491V117.491Z" fill="#3749A9"/>
</g>
<g id="17">
<path id="p 345.06306520874" d="M206.327 131.975C203.796 131.975 201.369 130.97 199.58 129.181C197.79 127.391 196.785 124.965 196.785 122.434C196.785 119.903 197.79 117.477 199.58 115.687C201.369 113.898 203.796 112.893 206.327 112.893C208.857 112.893 211.284 113.898 213.073 115.687C214.863 117.477 215.868 119.903 215.868 122.434C215.868 124.965 214.863 127.391 213.073 129.181C211.284 130.97 208.857 131.975 206.327 131.975V131.975Z" fill="#3749A9"/>
</g>
<g id="11">
<path id="p 153.0948374091832" d="M33.7807 112.554C31.3579 112.554 29.0343 111.591 27.3211 109.878C25.608 108.165 24.6455 105.841 24.6455 103.418C24.6455 100.996 25.608 98.672 27.3211 96.9588C29.0343 95.2457 31.3579 94.2832 33.7807 94.2832C36.2035 94.2832 38.5271 95.2457 40.2403 96.9588C41.9534 98.672 42.9159 100.996 42.9159 103.418C42.9159 105.841 41.9534 108.165 40.2403 109.878C38.5271 111.591 36.2035 112.554 33.7807 112.554V112.554Z" fill="#3749A9"/>
</g>
<g id="31">
<path id="p 160.78416783100795" d="M24.5411 129.483C22.2311 129.483 20.0156 128.565 18.3822 126.932C16.7487 125.298 15.8311 123.083 15.8311 120.773C15.8311 118.463 16.7487 116.247 18.3822 114.614C20.0156 112.98 22.2311 112.062 24.5411 112.062C26.8512 112.062 29.0666 112.98 30.7001 114.614C32.3335 116.247 33.2512 118.463 33.2512 120.773C33.2512 123.083 32.3335 125.298 30.7001 126.932C29.0666 128.565 26.8512 129.483 24.5411 129.483V129.483Z" fill="#3749A9"/>
</g>
<g id="24">
<path id="p 114.63971611773478" d="M59.0714 48.8069C56.7613 48.8069 54.5459 47.8892 52.9124 46.2557C51.279 44.6223 50.3613 42.4068 50.3613 40.0968C50.3613 37.7867 51.279 35.5713 52.9124 33.9378C54.5459 32.3044 56.7613 31.3867 59.0714 31.3867C61.3815 31.3867 63.5969 32.3044 65.2303 33.9378C66.8638 35.5713 67.7815 37.7867 67.7815 40.0968C67.7815 42.4068 66.8638 44.6223 65.2303 46.2557C63.5969 47.8892 61.3815 48.8069 59.0714 48.8069V48.8069Z" fill="#3749A9"/>
</g>
<g id="23">
<path id="p 247.401004941022" d="M55.2355 185.405C52.9254 185.405 50.71 184.487 49.0765 182.853C47.4431 181.22 46.5254 179.004 46.5254 176.694C46.5254 174.384 47.4431 172.169 49.0765 170.535C50.71 168.902 52.9254 167.984 55.2355 167.984C57.5455 167.984 59.761 168.902 61.3944 170.535C63.0279 172.169 63.9455 174.384 63.9455 176.694C63.9455 179.004 63.0279 181.22 61.3944 182.853C59.761 184.487 57.5455 185.405 55.2355 185.405V185.405Z" fill="#3749A9"/>
</g>
<g id="19">
<path id="p 335.6716909664244" d="M127.639 201.272C125.448 201.272 123.346 200.402 121.796 198.852C120.247 197.302 119.376 195.201 119.376 193.009C119.376 190.818 120.247 188.716 121.796 187.166C123.346 185.617 125.448 184.746 127.639 184.746C129.831 184.746 131.932 185.617 133.482 187.166C135.032 188.716 135.902 190.818 135.902 193.009C135.902 195.201 135.032 197.302 133.482 198.852C131.932 200.402 129.831 201.272 127.639 201.272V201.272Z" fill="#3749A9"/>
</g>
<g id="21">
<path id="p 133.91840088398163" d="M97.1322 30.0262C94.9407 30.0262 92.839 29.1556 91.2893 27.606C89.7397 26.0564 88.8691 23.9546 88.8691 21.7631C88.8691 19.5716 89.7397 17.4698 91.2893 15.9202C92.839 14.3706 94.9407 13.5 97.1322 13.5C99.3237 13.5 101.425 14.3706 102.975 15.9202C104.525 17.4698 105.395 19.5716 105.395 21.7631C105.395 23.9546 104.525 26.0564 102.975 27.606C101.425 29.1556 99.3237 30.0262 97.1322 30.0262V30.0262Z" fill="#3749A9"/>
</g>
<g id="51">
<path id="p 349.5700906794492" d="M145.217 197.593C143.151 197.593 141.17 196.772 139.709 195.311C138.248 193.85 137.427 191.868 137.427 189.802C137.427 187.736 138.248 185.755 139.709 184.294C141.17 182.833 143.151 182.012 145.217 182.012C147.283 182.012 149.265 182.833 150.726 184.294C152.187 185.755 153.008 187.736 153.008 189.802C153.008 191.868 152.187 193.85 150.726 195.311C149.265 196.772 147.283 197.593 145.217 197.593V197.593Z" fill="#3749A9"/>
</g>
<g id="25">
<path id="p 357.0236901791582" d="M188.006 162.257C185.94 162.257 183.959 161.436 182.498 159.975C181.037 158.514 180.216 156.532 180.216 154.466C180.216 152.4 181.037 150.419 182.498 148.958C183.959 147.497 185.94 146.676 188.006 146.676C190.073 146.676 192.054 147.497 193.515 148.958C194.976 150.419 195.797 152.4 195.797 154.466C195.797 156.532 194.976 158.514 193.515 159.975C192.054 161.436 190.073 162.257 188.006 162.257V162.257Z" fill="#3749A9"/>
</g>
<g id="32">
<path id="p 266.3228353921027" d="M188.711 70.8506C186.645 70.8506 184.664 70.0298 183.203 68.5688C181.742 67.1078 180.921 65.1262 180.921 63.0601C180.921 60.9939 181.742 59.0123 183.203 57.5513C184.664 56.0903 186.645 55.2695 188.711 55.2695C190.778 55.2695 192.759 56.0903 194.22 57.5513C195.681 59.0123 196.502 60.9939 196.502 63.0601C196.502 65.1262 195.681 67.1078 194.22 68.5688C192.759 70.0298 190.778 70.8506 188.711 70.8506V70.8506Z" fill="#3749A9"/>
</g>
<g id="40">
<path id="p 224.90585584123565" d="M169.407 48.7368C167.475 48.7368 165.621 47.9691 164.255 46.6024C162.888 45.2358 162.12 43.3822 162.12 41.4495C162.12 39.5167 162.888 37.6632 164.255 36.2965C165.621 34.9299 167.475 34.1621 169.407 34.1621C171.34 34.1621 173.194 34.9299 174.56 36.2965C175.927 37.6632 176.695 39.5167 176.695 41.4495C176.695 43.3822 175.927 45.2358 174.56 46.6024C173.194 47.9691 171.34 48.7368 169.407 48.7368V48.7368Z" fill="#3749A9"/>
</g>
<g id="34">
<path id="p 294.6699747705656" d="M85.1272 202.782C83.1945 202.782 81.3409 202.014 79.9743 200.647C78.6076 199.281 77.8398 197.427 77.8398 195.494C77.8398 193.562 78.6076 191.708 79.9743 190.341C81.3409 188.975 83.1945 188.207 85.1272 188.207C87.0599 188.207 88.9135 188.975 90.2802 190.341C91.6468 191.708 92.4146 193.562 92.4146 195.494C92.4146 197.427 91.6468 199.281 90.2802 200.647C88.9135 202.014 87.0599 202.782 85.1272 202.782V202.782Z" fill="#3749A9"/>
</g>
<g id="55">
<path id="p 359.6638145877447" d="M177.508 175.396C175.718 175.396 174.002 174.685 172.737 173.42C171.472 172.155 170.761 170.438 170.761 168.649C170.761 166.86 171.472 165.144 172.737 163.878C174.002 162.613 175.718 161.902 177.508 161.902C179.297 161.902 181.013 162.613 182.278 163.878C183.544 165.144 184.254 166.86 184.254 168.649C184.254 170.438 183.544 172.155 182.278 173.42C181.013 174.685 179.297 175.396 177.508 175.396V175.396Z" fill="#3749A9"/>
</g>
<g id="49">
<path id="p 112.14070400439059" d="M34.656 70.724C32.8666 70.724 31.1505 70.0132 29.8853 68.748C28.62 67.4827 27.9092 65.7666 27.9092 63.9773C27.9092 62.1879 28.62 60.4718 29.8853 59.2066C31.1505 57.9413 32.8666 57.2305 34.656 57.2305C36.4453 57.2305 38.1614 57.9413 39.4267 59.2066C40.6919 60.4718 41.4028 62.1879 41.4028 63.9773C41.4028 65.7666 40.6919 67.4827 39.4267 68.748C38.1614 70.0132 36.4453 70.724 34.656 70.724V70.724Z" fill="#3749A9"/>
</g>
<g id="42">
<path id="p 196.83562705068456" d="M32.4958 157.58C30.7065 157.58 28.9904 156.869 27.7251 155.603C26.4598 154.338 25.749 152.622 25.749 150.833C25.749 149.043 26.4598 147.327 27.7251 146.062C28.9904 144.797 30.7065 144.086 32.4958 144.086C34.2852 144.086 36.0012 144.797 37.2665 146.062C38.5318 147.327 39.2426 149.043 39.2426 150.833C39.2426 152.622 38.5318 154.338 37.2665 155.603C36.0012 156.869 34.2852 157.58 32.4958 157.58V157.58Z" fill="#3749A9"/>
</g>
<g id="53">
<path id="p 125.71195711841784" d="M21.9109 97.0405C20.1215 97.0405 18.4054 96.3296 17.1402 95.0644C15.8749 93.7991 15.1641 92.083 15.1641 90.2937C15.1641 88.5043 15.8749 86.7882 17.1402 85.523C18.4054 84.2577 20.1215 83.5469 21.9109 83.5469C23.7002 83.5469 25.4163 84.2577 26.6816 85.523C27.9468 86.7882 28.6576 88.5043 28.6576 90.2937C28.6576 92.083 27.9468 93.7991 26.6816 95.0644C25.4163 96.3296 23.7002 97.0405 21.9109 97.0405V97.0405Z" fill="#3749A9"/>
</g>
<g id="57">
<path id="p 313.0357999763551" d="M204.22 102.054C202.431 102.054 200.715 101.343 199.45 100.078C198.184 98.8128 197.474 97.0967 197.474 95.3073C197.474 93.518 198.184 91.8019 199.45 90.5366C200.715 89.2714 202.431 88.5605 204.22 88.5605C206.01 88.5605 207.726 89.2714 208.991 90.5366C210.256 91.8019 210.967 93.518 210.967 95.3073C210.967 97.0967 210.256 98.8128 208.991 100.078C207.726 101.343 206.01 102.054 204.22 102.054V102.054Z" fill="#3749A9"/>
</g>
<g id="52">
<path id="p 111.58804748796166" d="M70.615 34.2124C69.8062 34.2124 69.0053 34.0531 68.2581 33.7436C67.5108 33.4341 66.8319 32.9804 66.26 32.4085C65.6881 31.8366 65.2344 31.1576 64.9249 30.4104C64.6154 29.6632 64.4561 28.8623 64.4561 28.0535C64.4561 27.2447 64.6154 26.4438 64.9249 25.6966C65.2344 24.9493 65.6881 24.2704 66.26 23.6984C66.8319 23.1265 67.5108 22.6729 68.2581 22.3634C69.0053 22.0538 69.8062 21.8945 70.615 21.8945C71.4238 21.8945 72.2247 22.0538 72.9719 22.3634C73.7192 22.6729 74.3981 23.1265 74.97 23.6984C75.5419 24.2704 75.9956 24.9493 76.3051 25.6966C76.6146 26.4438 76.774 27.2447 76.774 28.0535C76.774 28.8623 76.6146 29.6632 76.3051 30.4104C75.9956 31.1576 75.5419 31.8366 74.97 32.4085C74.3981 32.9804 73.7192 33.4341 72.9719 33.7436C72.2247 34.0531 71.4238 34.2124 70.615 34.2124V34.2124Z" fill="#3749A9"/>
</g>
<g id="35">
<path id="p 374.7757216086679" d="M192.192 175.822C191.383 175.822 190.582 175.662 189.835 175.353C189.088 175.043 188.409 174.59 187.837 174.018C187.265 173.446 186.812 172.767 186.502 172.02C186.193 171.273 186.033 170.472 186.033 169.663C186.033 168.854 186.193 168.053 186.502 167.306C186.812 166.559 187.265 165.88 187.837 165.308C188.409 164.736 189.088 164.282 189.835 163.973C190.582 163.663 191.383 163.504 192.192 163.504C193.001 163.504 193.802 163.663 194.549 163.973C195.296 164.282 195.975 164.736 196.547 165.308C197.119 165.88 197.573 166.559 197.882 167.306C198.192 168.053 198.351 168.854 198.351 169.663C198.351 170.472 198.192 171.273 197.882 172.02C197.573 172.767 197.119 173.446 196.547 174.018C195.975 174.59 195.296 175.043 194.549 175.353C193.802 175.662 193.001 175.822 192.192 175.822V175.822Z" fill="#3749A9"/>
</g>
<g id="44">
<path id="p 268.4281577679854" d="M66.6013 195.066C65.7925 195.066 64.9916 194.907 64.2444 194.597C63.4972 194.288 62.8182 193.834 62.2463 193.262C61.6744 192.69 61.2207 192.011 60.9112 191.264C60.6017 190.517 60.4424 189.716 60.4424 188.907C60.4424 188.098 60.6017 187.297 60.9112 186.55C61.2207 185.803 61.6744 185.124 62.2463 184.552C62.8182 183.98 63.4972 183.526 64.2444 183.217C64.9916 182.907 65.7925 182.748 66.6013 182.748C67.4101 182.748 68.211 182.907 68.9583 183.217C69.7055 183.526 70.3845 183.98 70.9564 184.552C71.5283 185.124 71.9819 185.803 72.2915 186.55C72.601 187.297 72.7603 188.098 72.7603 188.907C72.7603 189.716 72.601 190.517 72.2915 191.264C71.9819 192.011 71.5283 192.69 70.9564 193.262C70.3845 193.834 69.7055 194.288 68.9583 194.597C68.211 194.907 67.4101 195.066 66.6013 195.066V195.066Z" fill="#3749A9"/>
</g>
<g id="63">
<path id="p 103.17919004474321" d="M43.6931 52.7241C42.8843 52.7241 42.0834 52.5648 41.3362 52.2553C40.589 51.9458 39.91 51.4921 39.3381 50.9202C38.7662 50.3483 38.3125 49.6694 38.003 48.9221C37.6935 48.1749 37.5342 47.374 37.5342 46.5652C37.5342 45.7564 37.6935 44.9555 38.003 44.2083C38.3125 43.461 38.7662 42.7821 39.3381 42.2102C39.91 41.6383 40.589 41.1846 41.3362 40.8751C42.0834 40.5656 42.8843 40.4062 43.6931 40.4062C44.5019 40.4062 45.3028 40.5656 46.0501 40.8751C46.7973 41.1846 47.4763 41.6383 48.0482 42.2102C48.6201 42.7821 49.0737 43.461 49.3833 44.2083C49.6928 44.9555 49.8521 45.7564 49.8521 46.5652C49.8521 47.374 49.6928 48.1749 49.3833 48.9221C49.0737 49.6694 48.6201 50.3483 48.0482 50.9202C47.4763 51.4921 46.7973 51.9458 46.0501 52.2553C45.3028 52.5648 44.5019 52.7241 43.6931 52.7241V52.7241Z" fill="#3749A9"/>
</g>
<g id="65">
<path id="p 112.7907871895344" d="M81.1912 24.8394C80.3824 24.8394 79.5815 24.6801 78.8342 24.3706C78.087 24.061 77.4081 23.6074 76.8361 23.0355C76.2642 22.4636 75.8106 21.7846 75.501 21.0374C75.1915 20.2901 75.0322 19.4892 75.0322 18.6804C75.0322 17.8716 75.1915 17.0707 75.501 16.3235C75.8106 15.5763 76.2642 14.8973 76.8361 14.3254C77.4081 13.7535 78.087 13.2998 78.8342 12.9903C79.5815 12.6808 80.3824 12.5215 81.1912 12.5215C82 12.5215 82.8009 12.6808 83.5481 12.9903C84.2953 13.2998 84.9743 13.7535 85.5462 14.3254C86.1181 14.8973 86.5718 15.5763 86.8813 16.3235C87.1908 17.0707 87.3501 17.8716 87.3501 18.6804C87.3501 19.4892 87.1908 20.2901 86.8813 21.0374C86.5718 21.7846 86.1181 22.4636 85.5462 23.0355C84.9743 23.6074 84.2953 24.061 83.5481 24.3706C82.8009 24.6801 82 24.8394 81.1912 24.8394V24.8394Z" fill="#3749A9"/>
</g>
<g id="37">
<path id="p 222.5403308975108" d="M40.242 175.537C39.4332 175.537 38.6323 175.377 37.885 175.068C37.1378 174.758 36.4588 174.305 35.8869 173.733C35.315 173.161 34.8613 172.482 34.5518 171.735C34.2423 170.987 34.083 170.187 34.083 169.378C34.083 168.569 34.2423 167.768 34.5518 167.021C34.8613 166.274 35.315 165.595 35.8869 165.023C36.4588 164.451 37.1378 163.997 37.885 163.688C38.6323 163.378 39.4332 163.219 40.242 163.219C41.0508 163.219 41.8516 163.378 42.5989 163.688C43.3461 163.997 44.0251 164.451 44.597 165.023C45.1689 165.595 45.6226 166.274 45.9321 167.021C46.2416 167.768 46.4009 168.569 46.4009 169.378C46.4009 170.187 46.2416 170.987 45.9321 171.735C45.6226 172.482 45.1689 173.161 44.597 173.733C44.0251 174.305 43.3461 174.758 42.5989 175.068C41.8516 175.377 41.0508 175.537 40.242 175.537V175.537Z" fill="#3749A9"/>
</g>
<g id="50">
<path id="p 244.29484922116106" d="M183.012 54.521C182.204 54.521 181.403 54.3617 180.656 54.0522C179.908 53.7427 179.229 53.289 178.657 52.7171C178.086 52.1452 177.632 51.4662 177.322 50.719C177.013 49.9718 176.854 49.1709 176.854 48.3621C176.854 47.5533 177.013 46.7524 177.322 46.0051C177.632 45.2579 178.086 44.579 178.657 44.007C179.229 43.4351 179.908 42.9815 180.656 42.6719C181.403 42.3624 182.204 42.2031 183.012 42.2031C183.821 42.2031 184.622 42.3624 185.369 42.6719C186.117 42.9815 186.796 43.4351 187.367 44.007C187.939 44.579 188.393 45.2579 188.703 46.0051C189.012 46.7524 189.171 47.5533 189.171 48.3621C189.171 49.1709 189.012 49.9718 188.703 50.719C188.393 51.4662 187.939 52.1452 187.367 52.7171C186.796 53.289 186.117 53.7427 185.369 54.0522C184.622 54.3617 183.821 54.521 183.012 54.521V54.521Z" fill="#3749A9"/>
</g>
<g id="43">
<path id="p 172.49658132826372" d="M22.2761 143.459C21.4673 143.459 20.6664 143.299 19.9192 142.99C19.172 142.68 18.493 142.227 17.9211 141.655C17.3492 141.083 16.8955 140.404 16.586 139.657C16.2765 138.909 16.1172 138.108 16.1172 137.3C16.1172 136.491 16.2765 135.69 16.586 134.943C16.8955 134.195 17.3492 133.516 17.9211 132.945C18.493 132.373 19.172 131.919 19.9192 131.609C20.6664 131.3 21.4673 131.141 22.2761 131.141C23.0849 131.141 23.8858 131.3 24.6331 131.609C25.3803 131.919 26.0593 132.373 26.6312 132.945C27.2031 133.516 27.6567 134.195 27.9663 134.943C28.2758 135.69 28.4351 136.491 28.4351 137.3C28.4351 138.108 28.2758 138.909 27.9663 139.657C27.6567 140.404 27.2031 141.083 26.6312 141.655C26.0593 142.227 25.3803 142.68 24.6331 142.99C23.8858 143.299 23.0849 143.459 22.2761 143.459V143.459Z" fill="#3749A9"/>
</g>
<g id="33">
<path id="p 285.38616756089505" d="M71.749 206.877C70.288 206.877 68.8868 206.296 67.8537 205.263C66.8206 204.23 66.2402 202.829 66.2402 201.368C66.2402 199.907 66.8206 198.506 67.8537 197.473C68.8868 196.44 70.288 195.859 71.749 195.859C73.21 195.859 74.6111 196.44 75.6442 197.473C76.6773 198.506 77.2577 199.907 77.2577 201.368C77.2577 202.829 76.6773 204.23 75.6442 205.263C74.6111 206.296 73.21 206.877 71.749 206.877V206.877Z" fill="#3749A9"/>
</g>
<g id="39">
<path id="p 335.87786391264" d="M118.198 210.918C116.737 210.918 115.336 210.337 114.303 209.304C113.27 208.271 112.689 206.87 112.689 205.409C112.689 203.948 113.27 202.547 114.303 201.514C115.336 200.481 116.737 199.9 118.198 199.9C119.659 199.9 121.06 200.481 122.093 201.514C123.127 202.547 123.707 203.948 123.707 205.409C123.707 206.87 123.127 208.271 122.093 209.304C121.06 210.337 119.659 210.918 118.198 210.918V210.918Z" fill="#3749A9"/>
</g>
<g id="84">
<path id="p 136.1794488402756" d="M17.582 111.838C16.121 111.838 14.7198 111.257 13.6867 110.224C12.6536 109.191 12.0732 107.79 12.0732 106.329C12.0732 104.868 12.6536 103.467 13.6867 102.434C14.7198 101.401 16.121 100.82 17.582 100.82C19.043 100.82 20.4441 101.401 21.4772 102.434C22.5103 103.467 23.0907 104.868 23.0907 106.329C23.0907 107.79 22.5103 109.191 21.4772 110.224C20.4441 111.257 19.043 111.838 17.582 111.838V111.838Z" fill="#3749A9"/>
</g>
<g id="30">
<path id="p 358.34861488106577" d="M200.344 151.244C198.883 151.244 197.482 150.664 196.448 149.631C195.415 148.597 194.835 147.196 194.835 145.735C194.835 144.274 195.415 142.873 196.448 141.84C197.482 140.807 198.883 140.227 200.344 140.227C201.805 140.227 203.206 140.807 204.239 141.84C205.272 142.873 205.852 144.274 205.852 145.735C205.852 147.196 205.272 148.597 204.239 149.631C203.206 150.664 201.805 151.244 200.344 151.244V151.244Z" fill="#3749A9"/>
</g>
<g id="76">
<path id="p 137.1059798610871" d="M110.716 19.6288C109.255 19.6288 107.854 19.0484 106.821 18.0153C105.787 16.9822 105.207 15.5811 105.207 14.1201C105.207 12.6591 105.787 11.2579 106.821 10.2248C107.854 9.19171 109.255 8.61133 110.716 8.61133C112.177 8.61133 113.578 9.19171 114.611 10.2248C115.644 11.2579 116.224 12.6591 116.224 14.1201C116.224 15.5811 115.644 16.9822 114.611 18.0153C113.578 19.0484 112.177 19.6288 110.716 19.6288V19.6288Z" fill="#3749A9"/>
</g>
<g id="48">
<path id="p 93.50348752524673" d="M30.7831 55.9589C29.3221 55.9589 27.921 55.3785 26.8879 54.3454C25.8548 53.3123 25.2744 51.9111 25.2744 50.4501C25.2744 48.9891 25.8548 47.588 26.8879 46.5549C27.921 45.5218 29.3221 44.9414 30.7831 44.9414C32.2442 44.9414 33.6453 45.5218 34.6784 46.5549C35.7115 47.588 36.2919 48.9891 36.2919 50.4501C36.2919 51.9111 35.7115 53.3123 34.6784 54.3454C33.6453 55.3785 32.2442 55.9589 30.7831 55.9589V55.9589Z" fill="#3749A9"/>
</g>
<g id="38">
<path id="p 204.21034164123304" d="M27.8339 169.615C26.3729 169.615 24.9718 169.035 23.9387 168.002C22.9056 166.969 22.3252 165.567 22.3252 164.106C22.3252 162.645 22.9056 161.244 23.9387 160.211C24.9718 159.178 26.3729 158.598 27.8339 158.598C29.2949 158.598 30.6961 159.178 31.7292 160.211C32.7623 161.244 33.3427 162.645 33.3427 164.106C33.3427 165.567 32.7623 166.969 31.7292 168.002C30.6961 169.035 29.2949 169.615 27.8339 169.615V169.615Z" fill="#3749A9"/>
</g>
<g id="66">
<path id="p 365.5783798992755" d="M159.892 198.926C158.431 198.926 157.029 198.345 155.996 197.312C154.963 196.279 154.383 194.878 154.383 193.417C154.383 191.956 154.963 190.555 155.996 189.522C157.029 188.489 158.431 187.908 159.892 187.908C161.353 187.908 162.754 188.489 163.787 189.522C164.82 190.555 165.4 191.956 165.4 193.417C165.4 194.878 164.82 196.279 163.787 197.312C162.754 198.345 161.353 198.926 159.892 198.926V198.926Z" fill="#3749A9"/>
</g>
<g id="36">
<path id="p 180.93309083724546" d="M18.4394 155.732C16.9784 155.732 15.5772 155.152 14.5441 154.119C13.511 153.086 12.9307 151.685 12.9307 150.224C12.9307 148.763 13.511 147.361 14.5441 146.328C15.5772 145.295 16.9784 144.715 18.4394 144.715C19.9004 144.715 21.3016 145.295 22.3347 146.328C23.3677 147.361 23.9481 148.763 23.9481 150.224C23.9481 151.685 23.3677 153.086 22.3347 154.119C21.3016 155.152 19.9004 155.732 18.4394 155.732V155.732Z" fill="#3749A9"/>
</g>
<g id="71">
<path id="p 203.76462318741574" d="M163.332 33.6718C161.871 33.6718 160.47 33.0914 159.437 32.0583C158.404 31.0252 157.823 29.624 157.823 28.163C157.823 26.702 158.404 25.3009 159.437 24.2678C160.47 23.2347 161.871 22.6543 163.332 22.6543C164.793 22.6543 166.194 23.2347 167.227 24.2678C168.26 25.3009 168.841 26.702 168.841 28.163C168.841 29.624 168.26 31.0252 167.227 32.0583C166.194 33.0914 164.793 33.6718 163.332 33.6718V33.6718Z" fill="#3749A9"/>
</g>
<g id="28">
<path id="p 285.1445463396266" d="M200.956 77.4276C199.495 77.4276 198.094 76.8472 197.061 75.8141C196.028 74.7811 195.447 73.3799 195.447 71.9189C195.447 70.4579 196.028 69.0567 197.061 68.0236C198.094 66.9905 199.495 66.4102 200.956 66.4102C202.417 66.4102 203.818 66.9905 204.851 68.0236C205.884 69.0567 206.465 70.4579 206.465 71.9189C206.465 73.3799 205.884 74.7811 204.851 75.8141C203.818 76.8472 202.417 77.4276 200.956 77.4276V77.4276Z" fill="#3749A9"/>
</g>
<g id="47">
<path id="p 109.67888576445975" d="M24.1142 78.8026C22.6532 78.8026 21.252 78.2222 20.2189 77.1891C19.1859 76.1561 18.6055 74.7549 18.6055 73.2939C18.6055 71.8329 19.1859 70.4317 20.2189 69.3986C21.252 68.3655 22.6532 67.7852 24.1142 67.7852C25.5752 67.7852 26.9764 68.3655 28.0095 69.3986C29.0425 70.4317 29.6229 71.8329 29.6229 73.2939C29.6229 74.7549 29.0425 76.1561 28.0095 77.1891C26.9764 78.2222 25.5752 78.8026 24.1142 78.8026V78.8026Z" fill="#3749A9"/>
</g>
<g id="73">
<path id="p 370.9058867992112" d="M175.999 188.146C174.538 188.146 173.137 187.566 172.104 186.533C171.071 185.5 170.49 184.099 170.49 182.638C170.49 181.177 171.071 179.775 172.104 178.742C173.137 177.709 174.538 177.129 175.999 177.129C177.46 177.129 178.861 177.709 179.894 178.742C180.927 179.775 181.508 181.177 181.508 182.638C181.508 184.099 180.927 185.5 179.894 186.533C178.861 187.566 177.46 188.146 175.999 188.146V188.146Z" fill="#3749A9"/>
</g>
<g id="46">
<path id="p 145.43477449611015" d="M122.941 15.7323C121.48 15.7323 120.079 15.1519 119.046 14.1188C118.013 13.0857 117.433 11.6846 117.433 10.2236C117.433 8.76257 118.013 7.3614 119.046 6.32831C120.079 5.29523 121.48 4.71484 122.941 4.71484C124.402 4.71484 125.804 5.29523 126.837 6.32831C127.87 7.3614 128.45 8.76257 128.45 10.2236C128.45 11.6846 127.87 13.0857 126.837 14.1188C125.804 15.1519 124.402 15.7323 122.941 15.7323V15.7323Z" fill="#3749A9"/>
</g>
<g id="27">
<path id="p 354.9435550290088" d="M139.066 209.115C137.605 209.115 136.204 208.535 135.171 207.502C134.138 206.469 133.558 205.067 133.558 203.606C133.558 202.145 134.138 200.744 135.171 199.711C136.204 198.678 137.605 198.098 139.066 198.098C140.527 198.098 141.929 198.678 142.962 199.711C143.995 200.744 144.575 202.145 144.575 203.606C144.575 205.067 143.995 206.469 142.962 207.502C141.929 208.535 140.527 209.115 139.066 209.115V209.115Z" fill="#3749A9"/>
</g>
<g id="94">
<path id="p 185.7027345693694" d="M153.425 25.5175C151.964 25.5175 150.563 24.9371 149.529 23.904C148.496 22.8709 147.916 21.4697 147.916 20.0087C147.916 18.5477 148.496 17.1466 149.529 16.1135C150.563 15.0804 151.964 14.5 153.425 14.5C154.886 14.5 156.287 15.0804 157.32 16.1135C158.353 17.1466 158.933 18.5477 158.933 20.0087C158.933 21.4697 158.353 22.8709 157.32 23.904C156.287 24.9371 154.886 25.5175 153.425 25.5175V25.5175Z" fill="#3749A9"/>
</g>
<g id="67">
<path id="p 105.05490203742855" d="M13.8439 84.4496C12.5787 84.4496 11.3652 83.947 10.4705 83.0523C9.57587 82.1576 9.07324 80.9442 9.07324 79.6789C9.07324 78.4136 9.57587 77.2002 10.4705 76.3055C11.3652 75.4108 12.5787 74.9082 13.8439 74.9082C15.1092 74.9082 16.3227 75.4108 17.2173 76.3055C18.112 77.2002 18.6146 78.4136 18.6146 79.6789C18.6146 80.9442 18.112 82.1576 17.2173 83.0523C16.3227 83.947 15.1092 84.4496 13.8439 84.4496V84.4496Z" fill="#3749A9"/>
</g>
<g id="101">
<path id="p 118.48808296582675" d="M10.2326 101.495C8.96735 101.495 7.7539 100.992 6.85922 100.097C5.96454 99.2025 5.46191 97.9891 5.46191 96.7238C5.46191 95.4586 5.96454 94.2451 6.85922 93.3504C7.7539 92.4558 8.96735 91.9531 10.2326 91.9531C11.4979 91.9531 12.7113 92.4558 13.606 93.3504C14.5007 94.2451 15.0033 95.4586 15.0033 96.7238C15.0033 97.9891 14.5007 99.2025 13.606 100.097C12.7113 100.992 11.4979 101.495 10.2326 101.495V101.495Z" fill="#3749A9"/>
</g>
<g id="188">
<path id="p 311.76097947389957" d="M94.6096 210.391C93.3443 210.391 92.1309 209.888 91.2362 208.994C90.3415 208.099 89.8389 206.886 89.8389 205.62C89.8389 204.355 90.3415 203.142 91.2362 202.247C92.1309 201.352 93.3443 200.85 94.6096 200.85C95.8748 200.85 97.0883 201.352 97.983 202.247C98.8776 203.142 99.3803 204.355 99.3803 205.62C99.3803 206.886 98.8776 208.099 97.983 208.994C97.0883 209.888 95.8748 210.391 94.6096 210.391V210.391Z" fill="#3749A9"/>
</g>
<g id="75">
<path id="p 359.50567343953554" d="M209.789 142.955C208.524 142.955 207.311 142.453 206.416 141.558C205.521 140.663 205.019 139.45 205.019 138.185C205.019 136.919 205.521 135.706 206.416 134.811C207.311 133.917 208.524 133.414 209.789 133.414C211.055 133.414 212.268 133.917 213.163 134.811C214.057 135.706 214.56 136.919 214.56 138.185C214.56 139.45 214.057 140.663 213.163 141.558C212.268 142.453 211.055 142.955 209.789 142.955V142.955Z" fill="#3749A9"/>
</g>
<g id="72">
<path id="p 329.2143926306128" d="M210.755 111.7C209.49 111.7 208.276 111.197 207.382 110.302C206.487 109.408 205.984 108.194 205.984 106.929C205.984 105.664 206.487 104.45 207.382 103.556C208.276 102.661 209.49 102.158 210.755 102.158C212.02 102.158 213.234 102.661 214.128 103.556C215.023 104.45 215.526 105.664 215.526 106.929C215.526 108.194 215.023 109.408 214.128 110.302C213.234 111.197 212.02 111.7 210.755 111.7V111.7Z" fill="#3749A9"/>
</g>
<g id="77">
<path id="p 300.98900379974646" d="M207.154 87.0746C205.889 87.0746 204.676 86.572 203.781 85.6773C202.886 84.7826 202.384 83.5692 202.384 82.3039C202.384 81.0386 202.886 79.8252 203.781 78.9305C204.676 78.0358 205.889 77.5332 207.154 77.5332C208.42 77.5332 209.633 78.0358 210.528 78.9305C211.423 79.8252 211.925 81.0386 211.925 82.3039C211.925 83.5692 211.423 84.7826 210.528 85.6773C209.633 86.572 208.42 87.0746 207.154 87.0746V87.0746Z" fill="#3749A9"/>
</g>
<g id="68">
<path id="p 94.64188719569114" d="M58.2873 29.5941C57.022 29.5941 55.8086 29.0915 54.9139 28.1968C54.0192 27.3022 53.5166 26.0887 53.5166 24.8234C53.5166 23.5582 54.0192 22.3447 54.9139 21.45C55.8086 20.5554 57.022 20.0527 58.2873 20.0527C59.5526 20.0527 60.766 20.5554 61.6607 21.45C62.5554 22.3447 63.058 23.5582 63.058 24.8234C63.058 26.0887 62.5554 27.3022 61.6607 28.1968C60.766 29.0915 59.5526 29.5941 58.2873 29.5941V29.5941Z" fill="#3749A9"/>
</g>
<g id="56">
<path id="p 257.71538712976536" d="M54.2277 196.727C52.9625 196.727 51.749 196.224 50.8543 195.33C49.9597 194.435 49.457 193.222 49.457 191.956C49.457 190.691 49.9597 189.478 50.8543 188.583C51.749 187.688 52.9625 187.186 54.2277 187.186C55.493 187.186 56.7064 187.688 57.6011 188.583C58.4958 189.478 58.9984 190.691 58.9984 191.956C58.9984 193.222 58.4958 194.435 57.6011 195.33C56.7064 196.224 55.493 196.727 54.2277 196.727V196.727Z" fill="#3749A9"/>
</g>
<g id="61">
<path id="p 90.51931378200919" d="M45.0891 38.6703C43.8238 38.6703 42.6103 38.1677 41.7157 37.273C40.821 36.3783 40.3184 35.1649 40.3184 33.8996C40.3184 32.6343 40.821 31.4209 41.7157 30.5262C42.6103 29.6315 43.8238 29.1289 45.0891 29.1289C46.3543 29.1289 47.5678 29.6315 48.4625 30.5262C49.3571 31.4209 49.8598 32.6343 49.8598 33.8996C49.8598 35.1649 49.3571 36.3783 48.4625 37.273C47.5678 38.1677 46.3543 38.6703 45.0891 38.6703V38.6703Z" fill="#3749A9"/>
</g>
<g id="45">
<path id="p 234.56405542345584" d="M40.9289 186.873C39.6636 186.873 38.4502 186.371 37.5555 185.476C36.6608 184.581 36.1582 183.368 36.1582 182.103C36.1582 180.837 36.6608 179.624 37.5555 178.729C38.4502 177.835 39.6636 177.332 40.9289 177.332C42.1942 177.332 43.4076 177.835 44.3023 178.729C45.197 179.624 45.6996 180.837 45.6996 182.103C45.6996 183.368 45.197 184.581 44.3023 185.476C43.4076 186.371 42.1942 186.873 40.9289 186.873V186.873Z" fill="#3749A9"/>
</g>
<g id="64">
<path id="p 377.53957280395684" d="M171.969 198.809C170.704 198.809 169.49 198.306 168.596 197.412C167.701 196.517 167.198 195.304 167.198 194.038C167.198 192.773 167.701 191.56 168.596 190.665C169.49 189.77 170.704 189.268 171.969 189.268C173.234 189.268 174.448 189.77 175.342 190.665C176.237 191.56 176.74 192.773 176.74 194.038C176.74 195.304 176.237 196.517 175.342 197.412C174.448 198.306 173.234 198.809 171.969 198.809V198.809Z" fill="#3749A9"/>
</g>
<g id="149">
<path id="p 327.5053612628544" d="M106.729 214.016C105.463 214.016 104.25 213.513 103.355 212.619C102.461 211.724 101.958 210.511 101.958 209.245C101.958 207.98 102.461 206.767 103.355 205.872C104.25 204.977 105.463 204.475 106.729 204.475C107.994 204.475 109.207 204.977 110.102 205.872C110.997 206.767 111.499 207.98 111.499 209.245C111.499 210.511 110.997 211.724 110.102 212.619C109.207 213.513 107.994 214.016 106.729 214.016V214.016Z" fill="#3749A9"/>
</g>
<g id="78">
<path id="p 228.71525872697813" d="M181.463 40.4917C180.951 40.4917 180.445 40.3909 179.972 40.1952C179.499 39.9994 179.07 39.7125 178.708 39.3508C178.347 38.9891 178.06 38.5597 177.864 38.0871C177.668 37.6145 177.567 37.108 177.567 36.5964C177.567 36.0849 177.668 35.5784 177.864 35.1058C178.06 34.6332 178.347 34.2038 178.708 33.8421C179.07 33.4804 179.499 33.1934 179.972 32.9977C180.445 32.8019 180.951 32.7012 181.463 32.7012C181.974 32.7012 182.481 32.8019 182.953 32.9977C183.426 33.1934 183.855 33.4804 184.217 33.8421C184.579 34.2038 184.866 34.6332 185.061 35.1058C185.257 35.5784 185.358 36.0849 185.358 36.5964C185.358 37.108 185.257 37.6145 185.061 38.0871C184.866 38.5597 184.579 38.9891 184.217 39.3508C183.855 39.7125 183.426 39.9994 182.953 40.1952C182.481 40.3909 181.974 40.4917 181.463 40.4917V40.4917Z" fill="#3749A9"/>
</g>
<g id="141">
<path id="p 153.51131306859855" d="M13.1912 133.56C12.6796 133.56 12.1731 133.459 11.7005 133.264C11.2279 133.068 10.7985 132.781 10.4368 132.419C10.0751 132.057 9.78816 131.628 9.59241 131.155C9.39665 130.683 9.2959 130.176 9.2959 129.665C9.2959 129.153 9.39665 128.647 9.59241 128.174C9.78816 127.702 10.0751 127.272 10.4368 126.91C10.7985 126.549 11.2279 126.262 11.7005 126.066C12.1731 125.87 12.6796 125.77 13.1912 125.77C13.7027 125.77 14.2092 125.87 14.6818 126.066C15.1544 126.262 15.5838 126.549 15.9455 126.91C16.3072 127.272 16.5942 127.702 16.7899 128.174C16.9857 128.647 17.0864 129.153 17.0864 129.665C17.0864 130.176 16.9857 130.683 16.7899 131.155C16.5942 131.628 16.3072 132.057 15.9455 132.419C15.5838 132.781 15.1544 133.068 14.6818 133.264C14.2092 133.459 13.7027 133.56 13.1912 133.56V133.56Z" fill="#3749A9"/>
</g>
<g id="193">
<path id="p 348.1485044938429" d="M128.978 212.41C128.467 212.41 127.96 212.309 127.488 212.113C127.015 211.917 126.586 211.63 126.224 211.269C125.862 210.907 125.575 210.478 125.38 210.005C125.184 209.532 125.083 209.026 125.083 208.514C125.083 208.003 125.184 207.496 125.38 207.024C125.575 206.551 125.862 206.122 126.224 205.76C126.586 205.398 127.015 205.111 127.488 204.916C127.96 204.72 128.467 204.619 128.978 204.619C129.49 204.619 129.996 204.72 130.469 204.916C130.942 205.111 131.371 205.398 131.733 205.76C132.094 206.122 132.381 206.551 132.577 207.024C132.773 207.496 132.874 208.003 132.874 208.514C132.874 209.026 132.773 209.532 132.577 210.005C132.381 210.478 132.094 210.907 131.733 211.269C131.371 211.63 130.942 211.917 130.469 212.113C129.996 212.309 129.49 212.41 128.978 212.41V212.41Z" fill="#3749A9"/>
</g>
<g id="198">
<path id="p 256.1729941877975" d="M194.603 54.8081C194.092 54.8081 193.585 54.7073 193.113 54.5116C192.64 54.3158 192.211 54.0289 191.849 53.6672C191.487 53.3055 191.2 52.8761 191.005 52.4035C190.809 51.9309 190.708 51.4244 190.708 50.9128C190.708 50.4013 190.809 49.8948 191.005 49.4222C191.2 48.9496 191.487 48.5202 191.849 48.1585C192.211 47.7968 192.64 47.5098 193.113 47.3141C193.585 47.1183 194.092 47.0176 194.603 47.0176C195.115 47.0176 195.621 47.1183 196.094 47.3141C196.567 47.5098 196.996 47.7968 197.358 48.1585C197.719 48.5202 198.006 48.9496 198.202 49.4222C198.398 49.8948 198.499 50.4013 198.499 50.9128C198.499 51.4244 198.398 51.9309 198.202 52.4035C198.006 52.8761 197.719 53.3055 197.358 53.6672C196.996 54.0289 196.567 54.3158 196.094 54.5116C195.621 54.7073 195.115 54.8081 194.603 54.8081V54.8081Z" fill="#3749A9"/>
</g>
<g id="70">
<path id="p 137.27585899600055" d="M11.1208 119.394C10.6093 119.394 10.1028 119.293 9.6302 119.098C9.1576 118.902 8.72819 118.615 8.36648 118.253C8.00477 117.891 7.71785 117.462 7.52209 116.989C7.32634 116.517 7.22559 116.01 7.22559 115.499C7.22559 114.987 7.32634 114.481 7.52209 114.008C7.71785 113.536 8.00477 113.106 8.36648 112.744C8.72819 112.383 9.1576 112.096 9.6302 111.9C10.1028 111.704 10.6093 111.604 11.1208 111.604C11.6324 111.604 12.1389 111.704 12.6115 111.9C13.0841 112.096 13.5135 112.383 13.8752 112.744C14.2369 113.106 14.5238 113.536 14.7196 114.008C14.9154 114.481 15.0161 114.987 15.0161 115.499C15.0161 116.01 14.9154 116.517 14.7196 116.989C14.5238 117.462 14.2369 117.891 13.8752 118.253C13.5135 118.615 13.0841 118.902 12.6115 119.098C12.1389 119.293 11.6324 119.394 11.1208 119.394V119.394Z" fill="#3749A9"/>
</g>
<g id="148">
<path id="p 368.85295603688763" d="M201.283 160.81C200.771 160.81 200.265 160.709 199.792 160.514C199.32 160.318 198.89 160.031 198.529 159.669C198.167 159.307 197.88 158.878 197.684 158.405C197.488 157.933 197.388 157.426 197.388 156.915C197.388 156.403 197.488 155.897 197.684 155.424C197.88 154.952 198.167 154.522 198.529 154.16C198.89 153.799 199.32 153.512 199.792 153.316C200.265 153.12 200.771 153.02 201.283 153.02C201.794 153.02 202.301 153.12 202.774 153.316C203.246 153.512 203.676 153.799 204.037 154.16C204.399 154.522 204.686 154.952 204.882 155.424C205.077 155.897 205.178 156.403 205.178 156.915C205.178 157.426 205.077 157.933 204.882 158.405C204.686 158.878 204.399 159.307 204.037 159.669C203.676 160.031 203.246 160.318 202.774 160.514C202.301 160.709 201.794 160.81 201.283 160.81V160.81Z" fill="#3749A9"/>
</g>
<g id="130">
<path id="p 364.15204056882465" d="M152.053 205.337C151.542 205.337 151.035 205.237 150.563 205.041C150.09 204.845 149.661 204.558 149.299 204.197C148.937 203.835 148.65 203.405 148.455 202.933C148.259 202.46 148.158 201.954 148.158 201.442C148.158 200.931 148.259 200.424 148.455 199.951C148.65 199.479 148.937 199.049 149.299 198.688C149.661 198.326 150.09 198.039 150.563 197.843C151.035 197.648 151.542 197.547 152.053 197.547C152.565 197.547 153.072 197.648 153.544 197.843C154.017 198.039 154.446 198.326 154.808 198.688C155.17 199.049 155.456 199.479 155.652 199.951C155.848 200.424 155.949 200.931 155.949 201.442C155.949 201.954 155.848 202.46 155.652 202.933C155.456 203.405 155.17 203.835 154.808 204.197C154.446 204.558 154.017 204.845 153.544 205.041C153.072 205.237 152.565 205.337 152.053 205.337V205.337Z" fill="#3749A9"/>
</g>
<g id="169">
<path id="p 120.10666292666399" d="M101.089 12.2573C100.577 12.2573 100.071 12.1566 99.598 11.9608C99.1254 11.7651 98.696 11.4781 98.3343 11.1164C97.9725 10.7547 97.6856 10.3253 97.4899 9.85271C97.2941 9.38011 97.1934 8.87359 97.1934 8.36206C97.1934 7.85052 97.2941 7.344 97.4899 6.87141C97.6856 6.39881 97.9725 5.9694 98.3343 5.60769C98.696 5.24598 99.1254 4.95906 99.598 4.76331C100.071 4.56755 100.577 4.4668 101.089 4.4668C101.6 4.4668 102.107 4.56755 102.579 4.76331C103.052 4.95906 103.481 5.24598 103.843 5.60769C104.205 5.9694 104.492 6.39881 104.687 6.87141C104.883 7.344 104.984 7.85052 104.984 8.36206C104.984 8.87359 104.883 9.38011 104.687 9.85271C104.492 10.3253 104.205 10.7547 103.843 11.1164C103.481 11.4781 103.052 11.7651 102.579 11.9608C102.107 12.1566 101.6 12.2573 101.089 12.2573V12.2573Z" fill="#3749A9"/>
</g>
<g id="174">
<path id="p 95.20112439897214" d="M22.3249 66.1147C21.8134 66.1147 21.3069 66.014 20.8343 65.8182C20.3617 65.6225 19.9323 65.3356 19.5706 64.9738C19.2089 64.6121 18.922 64.1827 18.7262 63.7101C18.5304 63.2375 18.4297 62.731 18.4297 62.2195C18.4297 61.7079 18.5304 61.2014 18.7262 60.7288C18.922 60.2562 19.2089 59.8268 19.5706 59.4651C19.9323 59.1034 20.3617 58.8165 20.8343 58.6207C21.3069 58.425 21.8134 58.3242 22.3249 58.3242C22.8365 58.3242 23.343 58.425 23.8156 58.6207C24.2882 58.8165 24.7176 59.1034 25.0793 59.4651C25.441 59.8268 25.7279 60.2562 25.9237 60.7288C26.1195 61.2014 26.2202 61.7079 26.2202 62.2195C26.2202 62.731 26.1195 63.2375 25.9237 63.7101C25.7279 64.1827 25.441 64.6121 25.0793 64.9738C24.7176 65.3356 24.2882 65.6225 23.8156 65.8182C23.343 66.014 22.8365 66.1147 22.3249 66.1147V66.1147Z" fill="#3749A9"/>
</g>
<g id="81">
<path id="p 110.18380830633805" d="M89.4099 14.0132C88.8984 14.0132 88.3919 13.9124 87.9193 13.7167C87.4467 13.5209 87.0173 13.234 86.6555 12.8723C86.2938 12.5106 86.0069 12.0812 85.8112 11.6086C85.6154 11.136 85.5146 10.6295 85.5146 10.1179C85.5146 9.60638 85.6154 9.09986 85.8112 8.62727C86.0069 8.15467 86.2938 7.72526 86.6555 7.36355C87.0173 7.00184 87.4467 6.71492 87.9193 6.51917C88.3919 6.32341 88.8984 6.22266 89.4099 6.22266C89.9214 6.22266 90.428 6.32341 90.9006 6.51917C91.3732 6.71492 91.8026 7.00184 92.1643 7.36355C92.526 7.72526 92.8129 8.15467 93.0087 8.62727C93.2044 9.09986 93.3052 9.60638 93.3052 10.1179C93.3052 10.6295 93.2044 11.136 93.0087 11.6086C92.8129 12.0812 92.526 12.5106 92.1643 12.8723C91.8026 13.234 91.3732 13.5209 90.9006 13.7167C90.428 13.9124 89.9214 14.0132 89.4099 14.0132V14.0132Z" fill="#3749A9"/>
</g>
<g id="155">
<path id="p 324.3690157127962" d="M98.2751 219.333C97.7636 219.333 97.2571 219.233 96.7845 219.037C96.3119 218.841 95.8825 218.554 95.5208 218.193C95.1591 217.831 94.8721 217.401 94.6764 216.929C94.4806 216.456 94.3799 215.95 94.3799 215.438C94.3799 214.927 94.4806 214.42 94.6764 213.948C94.8721 213.475 95.1591 213.046 95.5208 212.684C95.8825 212.322 96.3119 212.035 96.7845 211.839C97.2571 211.644 97.7636 211.543 98.2751 211.543C98.7867 211.543 99.2932 211.644 99.7658 211.839C100.238 212.035 100.668 212.322 101.03 212.684C101.391 213.046 101.678 213.475 101.874 213.948C102.07 214.42 102.17 214.927 102.17 215.438C102.17 215.95 102.07 216.456 101.874 216.929C101.678 217.401 101.391 217.831 101.03 218.193C100.668 218.554 100.238 218.841 99.7658 219.037C99.2932 219.233 98.7867 219.333 98.2751 219.333V219.333Z" fill="#3749A9"/>
</g>
<g id="192">
<path id="p 214.6093667520507" d="M174.471 33.3765C173.96 33.3765 173.453 33.2757 172.981 33.08C172.508 32.8842 172.079 32.5973 171.717 32.2356C171.355 31.8739 171.068 31.4444 170.873 30.9719C170.677 30.4993 170.576 29.9927 170.576 29.4812C170.576 28.9697 170.677 28.4631 170.873 27.9905C171.068 27.518 171.355 27.0885 171.717 26.7268C172.079 26.3651 172.508 26.0782 172.981 25.8824C173.453 25.6867 173.96 25.5859 174.471 25.5859C174.983 25.5859 175.489 25.6867 175.962 25.8824C176.435 26.0782 176.864 26.3651 177.226 26.7268C177.588 27.0885 177.874 27.518 178.07 27.9905C178.266 28.4631 178.367 28.9697 178.367 29.4812C178.367 29.9927 178.266 30.4993 178.07 30.9719C177.874 31.4444 177.588 31.8739 177.226 32.2356C176.864 32.5973 176.435 32.8842 175.962 33.08C175.489 33.2757 174.983 33.3765 174.471 33.3765V33.3765Z" fill="#3749A9"/>
</g>
<g id="41">
<path id="p 377.9564985271211" d="M186.976 184.218C186.465 184.218 185.958 184.118 185.486 183.922C185.013 183.726 184.584 183.439 184.222 183.077C183.86 182.716 183.573 182.286 183.378 181.814C183.182 181.341 183.081 180.835 183.081 180.323C183.081 179.811 183.182 179.305 183.378 178.832C183.573 178.36 183.86 177.93 184.222 177.569C184.584 177.207 185.013 176.92 185.486 176.724C185.958 176.528 186.465 176.428 186.976 176.428C187.488 176.428 187.994 176.528 188.467 176.724C188.94 176.92 189.369 177.207 189.731 177.569C190.092 177.93 190.379 178.36 190.575 178.832C190.771 179.305 190.872 179.811 190.872 180.323C190.872 180.835 190.771 181.341 190.575 181.814C190.379 182.286 190.092 182.716 189.731 183.077C189.369 183.439 188.94 183.726 188.467 183.922C187.994 184.118 187.488 184.218 186.976 184.218V184.218Z" fill="#3749A9"/>
</g>
<g id="260">
<path id="p 369.00243662801705" d="M148.135 214.107C147.623 214.107 147.116 214.006 146.644 213.81C146.171 213.615 145.742 213.328 145.38 212.966C145.018 212.604 144.732 212.175 144.536 211.702C144.34 211.23 144.239 210.723 144.239 210.212C144.239 209.7 144.34 209.194 144.536 208.721C144.732 208.248 145.018 207.819 145.38 207.457C145.742 207.096 146.171 206.809 146.644 206.613C147.116 206.417 147.623 206.316 148.135 206.316C148.646 206.316 149.153 206.417 149.625 206.613C150.098 206.809 150.527 207.096 150.889 207.457C151.251 207.819 151.538 208.248 151.733 208.721C151.929 209.194 152.03 209.7 152.03 210.212C152.03 210.723 151.929 211.23 151.733 211.702C151.538 212.175 151.251 212.604 150.889 212.966C150.527 213.328 150.098 213.615 149.625 213.81C149.153 214.006 148.646 214.107 148.135 214.107V214.107Z" fill="#3749A9"/>
</g>
<g id="157">
<path id="p 273.41859380431833" d="M202.012 64.646C201.501 64.646 200.994 64.5452 200.522 64.3495C200.049 64.1537 199.62 63.8668 199.258 63.5051C198.896 63.1434 198.609 62.714 198.414 62.2414C198.218 61.7688 198.117 61.2623 198.117 60.7507C198.117 60.2392 198.218 59.7327 198.414 59.2601C198.609 58.7875 198.896 58.3581 199.258 57.9964C199.62 57.6347 200.049 57.3477 200.522 57.152C200.994 56.9562 201.501 56.8555 202.012 56.8555C202.524 56.8555 203.031 56.9562 203.503 57.152C203.976 57.3477 204.405 57.6347 204.767 57.9964C205.129 58.3581 205.415 58.7875 205.611 59.2601C205.807 59.7327 205.908 60.2392 205.908 60.7507C205.908 61.2623 205.807 61.7688 205.611 62.2414C205.415 62.714 205.129 63.1434 204.767 63.5051C204.405 63.8668 203.976 64.1537 203.503 64.3495C203.031 64.5452 202.524 64.646 202.012 64.646V64.646Z" fill="#3749A9"/>
</g>
<g id="79">
<path id="p 96.46475400710253" d="M69.5789 20.1245C69.0673 20.1245 68.5608 20.0238 68.0882 19.828C67.6156 19.6322 67.1862 19.3453 66.8245 18.9836C66.4628 18.6219 66.1759 18.1925 65.9801 17.7199C65.7843 17.2473 65.6836 16.7408 65.6836 16.2292C65.6836 15.7177 65.7843 15.2112 65.9801 14.7386C66.1759 14.266 66.4628 13.8366 66.8245 13.4749C67.1862 13.1132 67.6156 12.8262 68.0882 12.6305C68.5608 12.4347 69.0673 12.334 69.5789 12.334C70.0904 12.334 70.5969 12.4347 71.0695 12.6305C71.5421 12.8262 71.9715 13.1132 72.3332 13.4749C72.6949 13.8366 72.9819 14.266 73.1776 14.7386C73.3734 15.2112 73.4741 15.7177 73.4741 16.2292C73.4741 16.7408 73.3734 17.2473 73.1776 17.7199C72.9819 18.1925 72.6949 18.6219 72.3332 18.9836C71.9715 19.3453 71.5421 19.6322 71.0695 19.828C70.5969 20.0238 70.0904 20.1245 69.5789 20.1245V20.1245Z" fill="#3749A9"/>
</g>
<g id="69">
<path id="p 303.66046993426266" d="M84.5271 212.373C84.0156 212.373 83.509 212.272 83.0364 212.076C82.5639 211.88 82.1344 211.593 81.7727 211.232C81.411 210.87 81.1241 210.441 80.9283 209.968C80.7326 209.495 80.6318 208.989 80.6318 208.477C80.6318 207.966 80.7326 207.459 80.9283 206.987C81.1241 206.514 81.411 206.085 81.7727 205.723C82.1344 205.361 82.5639 205.074 83.0364 204.879C83.509 204.683 84.0156 204.582 84.5271 204.582C85.0386 204.582 85.5452 204.683 86.0177 204.879C86.4903 205.074 86.9198 205.361 87.2815 205.723C87.6432 206.085 87.9301 206.514 88.1258 206.987C88.3216 207.459 88.4224 207.966 88.4224 208.477C88.4224 208.989 88.3216 209.495 88.1258 209.968C87.9301 210.441 87.6432 210.87 87.2815 211.232C86.9198 211.593 86.4903 211.88 86.0177 212.076C85.5452 212.272 85.0386 212.373 84.5271 212.373V212.373Z" fill="#3749A9"/>
</g>
<g id="185">
<path id="p 376.8746974684328" d="M202.013 168.101C201.283 168.101 200.582 167.81 200.066 167.294C199.549 166.777 199.259 166.077 199.259 165.346C199.259 164.616 199.549 163.915 200.066 163.399C200.582 162.882 201.283 162.592 202.013 162.592C202.744 162.592 203.444 162.882 203.961 163.399C204.477 163.915 204.768 164.616 204.768 165.346C204.768 166.077 204.477 166.777 203.961 167.294C203.444 167.81 202.744 168.101 202.013 168.101V168.101Z" fill="#3749A9"/>
</g>
<g id="394">
<path id="p 83.88464262973429" d="M48.9663 28.1572C48.2358 28.1572 47.5352 27.867 47.0186 27.3504C46.5021 26.8339 46.2119 26.1333 46.2119 25.4028C46.2119 24.6723 46.5021 23.9717 47.0186 23.4552C47.5352 22.9386 48.2358 22.6484 48.9663 22.6484C49.6968 22.6484 50.3974 22.9386 50.9139 23.4552C51.4305 23.9717 51.7206 24.6723 51.7206 25.4028C51.7206 26.1333 51.4305 26.8339 50.9139 27.3504C50.3974 27.867 49.6968 28.1572 48.9663 28.1572V28.1572Z" fill="#3749A9"/>
</g>
<g id="347">
<path id="p 188.31928308006036" d="M18.5024 163.056C17.7719 163.056 17.0713 162.765 16.5548 162.249C16.0382 161.732 15.748 161.032 15.748 160.301C15.748 159.571 16.0382 158.87 16.5548 158.354C17.0713 157.837 17.7719 157.547 18.5024 157.547C19.2329 157.547 19.9335 157.837 20.45 158.354C20.9666 158.87 21.2568 159.571 21.2568 160.301C21.2568 161.032 20.9666 161.732 20.45 162.249C19.9335 162.765 19.2329 163.056 18.5024 163.056V163.056Z" fill="#3749A9"/>
</g>
<g id="98">
<path id="p 84.62196492345635" d="M21.2866 56.5751C20.5561 56.5751 19.8555 56.2849 19.339 55.7684C18.8224 55.2519 18.5322 54.5513 18.5322 53.8208C18.5322 53.0903 18.8224 52.3897 19.339 51.8731C19.8555 51.3566 20.5561 51.0664 21.2866 51.0664C22.0171 51.0664 22.7177 51.3566 23.2342 51.8731C23.7508 52.3897 24.041 53.0903 24.041 53.8208C24.041 54.5513 23.7508 55.2519 23.2342 55.7684C22.7177 56.2849 22.0171 56.5751 21.2866 56.5751V56.5751Z" fill="#3749A9"/>
</g>
<g id="160">
<path id="p 296.16251390091156" d="M76.2778 213.124C75.5473 213.124 74.8467 212.834 74.3302 212.317C73.8136 211.801 73.5234 211.1 73.5234 210.37C73.5234 209.639 73.8136 208.939 74.3302 208.422C74.8467 207.905 75.5473 207.615 76.2778 207.615C77.0083 207.615 77.7089 207.905 78.2254 208.422C78.742 208.939 79.0322 209.639 79.0322 210.37C79.0322 211.1 78.742 211.801 78.2254 212.317C77.7089 212.834 77.0083 213.124 76.2778 213.124V213.124Z" fill="#3749A9"/>
</g>
<g id="173">
<path id="p 168.96387426350995" d="M147.805 14.3974C147.075 14.3974 146.374 14.1072 145.858 13.5907C145.341 13.0741 145.051 12.3735 145.051 11.643C145.051 10.9125 145.341 10.212 145.858 9.69541C146.374 9.17886 147.075 8.88867 147.805 8.88867C148.536 8.88867 149.236 9.17886 149.753 9.69541C150.269 10.212 150.56 10.9125 150.56 11.643C150.56 12.3735 150.269 13.0741 149.753 13.5907C149.236 14.1072 148.536 14.3974 147.805 14.3974V14.3974Z" fill="#3749A9"/>
</g>
<g id="107">
<path id="p 245.02463693792637" d="M45.0014 193.263C44.2709 193.263 43.5703 192.972 43.0538 192.456C42.5373 191.939 42.2471 191.239 42.2471 190.508C42.2471 189.778 42.5373 189.077 43.0538 188.561C43.5703 188.044 44.2709 187.754 45.0014 187.754C45.7319 187.754 46.4325 188.044 46.9491 188.561C47.4656 189.077 47.7558 189.778 47.7558 190.508C47.7558 191.239 47.4656 191.939 46.9491 192.456C46.4325 192.972 45.7319 193.263 45.0014 193.263V193.263Z" fill="#3749A9"/>
</g>
<g id="146">
<path id="p 270.19095873639026" d="M62.0532 201.378C61.3227 201.378 60.6221 201.088 60.1056 200.571C59.589 200.055 59.2988 199.354 59.2988 198.624C59.2988 197.893 59.589 197.192 60.1056 196.676C60.6221 196.159 61.3227 195.869 62.0532 195.869C62.7837 195.869 63.4843 196.159 64.0008 196.676C64.5174 197.192 64.8076 197.893 64.8076 198.624C64.8076 199.354 64.5174 200.055 64.0008 200.571C63.4843 201.088 62.7837 201.378 62.0532 201.378V201.378Z" fill="#3749A9"/>
</g>
<g id="122">
<path id="p 323.18137911588786" d="M215.038 101.384C214.307 101.384 213.606 101.094 213.09 100.577C212.573 100.06 212.283 99.3599 212.283 98.6294C212.283 97.8989 212.573 97.1983 213.09 96.6817C213.606 96.1652 214.307 95.875 215.038 95.875C215.768 95.875 216.469 96.1652 216.985 96.6817C217.502 97.1983 217.792 97.8989 217.792 98.6294C217.792 99.3599 217.502 100.06 216.985 100.577C216.469 101.094 215.768 101.384 215.038 101.384V101.384Z" fill="#3749A9"/>
</g>
<g id="80">
<path id="p 312.17792654371715" d="M213.633 91.7841C212.903 91.7841 212.202 91.4939 211.686 90.9774C211.169 90.4608 210.879 89.7603 210.879 89.0298C210.879 88.2993 211.169 87.5987 211.686 87.0821C212.202 86.5656 212.903 86.2754 213.633 86.2754C214.364 86.2754 215.064 86.5656 215.581 87.0821C216.097 87.5987 216.388 88.2993 216.388 89.0298C216.388 89.7603 216.097 90.4608 215.581 90.9774C215.064 91.4939 214.364 91.7841 213.633 91.7841V91.7841Z" fill="#3749A9"/>
</g>
<g id="181">
<path id="p 220.60606289028843" d="M182.845 31.0009C182.115 31.0009 181.414 30.7107 180.898 30.1942C180.381 29.6776 180.091 28.9771 180.091 28.2466C180.091 27.516 180.381 26.8155 180.898 26.2989C181.414 25.7824 182.115 25.4922 182.845 25.4922C183.576 25.4922 184.276 25.7824 184.793 26.2989C185.309 26.8155 185.6 27.516 185.6 28.2466C185.6 28.9771 185.309 29.6776 184.793 30.1942C184.276 30.7107 183.576 31.0009 182.845 31.0009V31.0009Z" fill="#3749A9"/>
</g>
<g id="210">
<path id="p 86.55902587821984" d="M61.1206 18.6787C60.3901 18.6787 59.6895 18.3885 59.1729 17.8719C58.6564 17.3554 58.3662 16.6548 58.3662 15.9243C58.3662 15.1938 58.6564 14.4932 59.1729 13.9767C59.6895 13.4601 60.3901 13.1699 61.1206 13.1699C61.8511 13.1699 62.5517 13.4601 63.0682 13.9767C63.5848 14.4932 63.8749 15.1938 63.8749 15.9243C63.8749 16.6548 63.5848 17.3554 63.0682 17.8719C62.5517 18.3885 61.8511 18.6787 61.1206 18.6787V18.6787Z" fill="#3749A9"/>
</g>
<g id="92">
<path id="p 265.9733613528143" d="M55.2153 203.997C54.4848 203.997 53.7842 203.707 53.2677 203.19C52.7511 202.674 52.4609 201.973 52.4609 201.243C52.4609 200.512 52.7511 199.812 53.2677 199.295C53.7842 198.778 54.4848 198.488 55.2153 198.488C55.9458 198.488 56.6464 198.778 57.1629 199.295C57.6795 199.812 57.9697 200.512 57.9697 201.243C57.9697 201.973 57.6795 202.674 57.1629 203.19C56.6464 203.707 55.9458 203.997 55.2153 203.997V203.997Z" fill="#3749A9"/>
</g>
<g id="60">
<path id="p 140.4367544988985" d="M7.68698 125.989C6.95648 125.989 6.2559 125.699 5.73935 125.182C5.22281 124.666 4.93262 123.965 4.93262 123.235C4.93262 122.504 5.22281 121.804 5.73935 121.287C6.2559 120.771 6.95648 120.48 7.68698 120.48C8.41749 120.48 9.11807 120.771 9.63461 121.287C10.1512 121.804 10.4413 122.504 10.4413 123.235C10.4413 123.965 10.1512 124.666 9.63461 125.182C9.11807 125.699 8.41749 125.989 7.68698 125.989V125.989Z" fill="#3749A9"/>
</g>
<g id="117">
<path id="p 85.06807368385542" d="M34.478 43.829C33.7475 43.829 33.0469 43.5389 32.5304 43.0223C32.0138 42.5058 31.7236 41.8052 31.7236 41.0747C31.7236 40.3442 32.0138 39.6436 32.5304 39.127C33.0469 38.6105 33.7475 38.3203 34.478 38.3203C35.2085 38.3203 35.9091 38.6105 36.4256 39.127C36.9422 39.6436 37.2324 40.3442 37.2324 41.0747C37.2324 41.8052 36.9422 42.5058 36.4256 43.0223C35.9091 43.5389 35.2085 43.829 34.478 43.829V43.829Z" fill="#3749A9"/>
</g>
<g id="175">
<path id="p 148.58706406351322" d="M132.379 9.44623C131.649 9.44623 130.948 9.15604 130.432 8.6395C129.915 8.12295 129.625 7.42237 129.625 6.69187C129.625 5.96136 129.915 5.26078 130.432 4.74423C130.948 4.22769 131.649 3.9375 132.379 3.9375C133.11 3.9375 133.81 4.22769 134.327 4.74423C134.844 5.26078 135.134 5.96136 135.134 6.69187C135.134 7.42237 134.844 8.12295 134.327 8.6395C133.81 9.15604 133.11 9.44623 132.379 9.44623V9.44623Z" fill="#3749A9"/>
</g>
<g id="88">
<path id="p 264.7995990573203" d="M202.946 55.0927C202.215 55.0927 201.515 54.8025 200.998 54.286C200.482 53.7694 200.191 53.0689 200.191 52.3383C200.191 51.6078 200.482 50.9073 200.998 50.3907C201.515 49.8742 202.215 49.584 202.946 49.584C203.676 49.584 204.377 49.8742 204.893 50.3907C205.41 50.9073 205.7 51.6078 205.7 52.3383C205.7 53.0689 205.41 53.7694 204.893 54.286C204.377 54.8025 203.676 55.0927 202.946 55.0927V55.0927Z" fill="#3749A9"/>
</g>
<g id="200">
<path id="p 213.82737127554353" d="M30.4819 176.585C29.7514 176.585 29.0508 176.295 28.5343 175.778C28.0177 175.262 27.7275 174.561 27.7275 173.831C27.7275 173.1 28.0177 172.399 28.5343 171.883C29.0508 171.366 29.7514 171.076 30.4819 171.076C31.2124 171.076 31.913 171.366 32.4295 171.883C32.9461 172.399 33.2363 173.1 33.2363 173.831C33.2363 174.561 32.9461 175.262 32.4295 175.778C31.913 176.295 31.2124 176.585 30.4819 176.585V176.585Z" fill="#3749A9"/>
</g>
<g id="265">
<path id="p 340.40528142684815" d="M217.311 116.333C216.581 116.333 215.88 116.043 215.363 115.526C214.847 115.01 214.557 114.309 214.557 113.579C214.557 112.848 214.847 112.147 215.363 111.631C215.88 111.114 216.581 110.824 217.311 110.824C218.042 110.824 218.742 111.114 219.259 111.631C219.775 112.147 220.065 112.848 220.065 113.579C220.065 114.309 219.775 115.01 219.259 115.526C218.742 116.043 218.042 116.333 217.311 116.333V116.333Z" fill="#3749A9"/>
</g>
<g id="211">
<path id="p 190.91896318559662" d="M163.318 20.8408C162.587 20.8408 161.887 20.5506 161.37 20.034C160.854 19.5175 160.563 18.8169 160.563 18.0864C160.563 17.3559 160.854 16.6553 161.37 16.1388C161.887 15.6222 162.587 15.332 163.318 15.332C164.048 15.332 164.749 15.6222 165.265 16.1388C165.782 16.6553 166.072 17.3559 166.072 18.0864C166.072 18.8169 165.782 19.5175 165.265 20.034C164.749 20.5506 164.048 20.8408 163.318 20.8408V20.8408Z" fill="#3749A9"/>
</g>
<g id="96">
<path id="p 107.10676304520896" d="M94.3481 5.99897C93.6176 5.99897 92.917 5.70877 92.4005 5.19223C91.8839 4.67569 91.5938 3.9751 91.5938 3.2446C91.5938 2.5141 91.8839 1.81351 92.4005 1.29697C92.917 0.780426 93.6176 0.490234 94.3481 0.490234C95.0786 0.490234 95.7792 0.780426 96.2957 1.29697C96.8123 1.81351 97.1025 2.5141 97.1025 3.2446C97.1025 3.9751 96.8123 4.67569 96.2957 5.19223C95.7792 5.70877 95.0786 5.99897 94.3481 5.99897V5.99897Z" fill="#3749A9"/>
</g>
<g id="285">
<path id="p 79.12848650674138" d="M35.7495 36.6181C35.019 36.6181 34.3184 36.3279 33.8019 35.8114C33.2853 35.2948 32.9951 34.5942 32.9951 33.8637C32.9951 33.1332 33.2853 32.4327 33.8019 31.9161C34.3184 31.3996 35.019 31.1094 35.7495 31.1094C36.48 31.1094 37.1806 31.3996 37.6971 31.9161C38.2137 32.4327 38.5038 33.1332 38.5038 33.8637C38.5038 34.5942 38.2137 35.2948 37.6971 35.8114C37.1806 36.3279 36.48 36.6181 35.7495 36.6181V36.6181Z" fill="#3749A9"/>
</g>
<g id="442">
<path id="p 128.75215629250494" d="M114.468 7.5224C113.738 7.5224 113.037 7.23221 112.521 6.71567C112.004 6.19912 111.714 5.49854 111.714 4.76804C111.714 4.03753 112.004 3.33695 112.521 2.82041C113.037 2.30386 113.738 2.01367 114.468 2.01367C115.199 2.01367 115.899 2.30386 116.416 2.82041C116.932 3.33695 117.223 4.03753 117.223 4.76804C117.223 5.49854 116.932 6.19912 116.416 6.71567C115.899 7.23221 115.199 7.5224 114.468 7.5224V7.5224Z" fill="#3749A9"/>
</g>
<g id="86">
<path id="p 294.11820081164666" d="M210.869 76.4892C210.138 76.4892 209.438 76.199 208.921 75.6825C208.404 75.1659 208.114 74.4653 208.114 73.7348C208.114 73.0043 208.404 72.3037 208.921 71.7872C209.438 71.2707 210.138 70.9805 210.869 70.9805C211.599 70.9805 212.3 71.2707 212.816 71.7872C213.333 72.3037 213.623 73.0043 213.623 73.7348C213.623 74.4653 213.333 75.1659 212.816 75.6825C212.3 76.199 211.599 76.4892 210.869 76.4892V76.4892Z" fill="#3749A9"/>
</g>
<g id="106">
<path id="p 238.55153217817042" d="M189.337 42.4521C188.607 42.4521 187.906 42.1619 187.39 41.6454C186.873 41.1288 186.583 40.4282 186.583 39.6977C186.583 38.9672 186.873 38.2666 187.39 37.7501C187.906 37.2336 188.607 36.9434 189.337 36.9434C190.068 36.9434 190.768 37.2336 191.285 37.7501C191.802 38.2666 192.092 38.9672 192.092 39.6977C192.092 40.4282 191.802 41.1288 191.285 41.6454C190.768 42.1619 190.068 42.4521 189.337 42.4521V42.4521Z" fill="#3749A9"/>
</g>
<g id="333">
<path id="p 338.5258733970585" d="M114.306 217.46C113.576 217.46 112.875 217.17 112.358 216.653C111.842 216.137 111.552 215.436 111.552 214.706C111.552 213.975 111.842 213.274 112.358 212.758C112.875 212.241 113.576 211.951 114.306 211.951C115.037 211.951 115.737 212.241 116.254 212.758C116.77 213.274 117.06 213.975 117.06 214.706C117.06 215.436 116.77 216.137 116.254 216.653C115.737 217.17 115.037 217.46 114.306 217.46V217.46Z" fill="#3749A9"/>
</g>
<g id="87">
<path id="p 222.2229678086602" d="M31.6479 183.813C30.9174 183.813 30.2168 183.523 29.7003 183.007C29.1837 182.49 28.8936 181.79 28.8936 181.059C28.8936 180.329 29.1837 179.628 29.7003 179.111C30.2168 178.595 30.9174 178.305 31.6479 178.305C32.3784 178.305 33.079 178.595 33.5956 179.111C34.1121 179.628 34.4023 180.329 34.4023 181.059C34.4023 181.79 34.1121 182.49 33.5956 183.007C33.079 183.523 32.3784 183.813 31.6479 183.813V183.813Z" fill="#3749A9"/>
</g>
<g id="294">
<path id="p 248.16393981809622" d="M196.071 45.3329C195.34 45.3329 194.64 45.0428 194.123 44.5262C193.607 44.0097 193.316 43.3091 193.316 42.5786C193.316 41.8481 193.607 41.1475 194.123 40.631C194.64 40.1144 195.34 39.8242 196.071 39.8242C196.801 39.8242 197.502 40.1144 198.018 40.631C198.535 41.1475 198.825 41.8481 198.825 42.5786C198.825 43.3091 198.535 44.0097 198.018 44.5262C197.502 45.0428 196.801 45.3329 196.071 45.3329V45.3329Z" fill="#3749A9"/>
</g>
<g id="113">
<path id="p 159.05677858165282" d="M11.5698 140.726C10.8393 140.726 10.1387 140.435 9.62216 139.919C9.10562 139.402 8.81543 138.702 8.81543 137.971C8.81543 137.241 9.10562 136.54 9.62216 136.024C10.1387 135.507 10.8393 135.217 11.5698 135.217C12.3003 135.217 13.0009 135.507 13.5174 136.024C14.034 136.54 14.3242 137.241 14.3242 137.971C14.3242 138.702 14.034 139.402 13.5174 139.919C13.0009 140.435 12.3003 140.726 11.5698 140.726V140.726Z" fill="#3749A9"/>
</g>
<g id="83">
<path id="p 105.76367807013828" d="M8.7446 90.2587C8.0141 90.2587 7.31351 89.9685 6.79697 89.452C6.28043 88.9355 5.99023 88.2349 5.99023 87.5044C5.99023 86.7739 6.28043 86.0733 6.79697 85.5567C7.31351 85.0402 8.0141 84.75 8.7446 84.75C9.4751 84.75 10.1757 85.0402 10.6922 85.5567C11.2088 86.0733 11.499 86.7739 11.499 87.5044C11.499 88.2349 11.2088 88.9355 10.6922 89.452C10.1757 89.9685 9.4751 90.2587 8.7446 90.2587V90.2587Z" fill="#3749A9"/>
</g>
<g id="223">
<path id="p 164.36585421599895" d="M9.77878 147.825C9.04828 147.825 8.34769 147.535 7.83115 147.018C7.31461 146.502 7.02441 145.801 7.02441 145.071C7.02441 144.34 7.31461 143.64 7.83115 143.123C8.34769 142.607 9.04828 142.316 9.77878 142.316C10.5093 142.316 11.2099 142.607 11.7264 143.123C12.243 143.64 12.5331 144.34 12.5331 145.071C12.5331 145.801 12.243 146.502 11.7264 147.018C11.2099 147.535 10.5093 147.825 9.77878 147.825V147.825Z" fill="#3749A9"/>
</g>
<g id="224">
<path id="p 124.92406957766165" d="M7.61179 110.552C6.88128 110.552 6.1807 110.262 5.66416 109.745C5.14761 109.228 4.85742 108.528 4.85742 107.797C4.85742 107.067 5.14761 106.366 5.66416 105.85C6.1807 105.333 6.88128 105.043 7.61179 105.043C8.34229 105.043 9.04287 105.333 9.55942 105.85C10.076 106.366 10.3662 107.067 10.3662 107.797C10.3662 108.528 10.076 109.228 9.55942 109.745C9.04287 110.262 8.34229 110.552 7.61179 110.552V110.552Z" fill="#3749A9"/>
</g>
<g id="132">
<path id="p 369.7606389304782" d="M208.204 154.796C207.473 154.796 206.772 154.506 206.256 153.989C205.739 153.473 205.449 152.772 205.449 152.041C205.449 151.311 205.739 150.61 206.256 150.094C206.772 149.577 207.473 149.287 208.204 149.287C208.934 149.287 209.635 149.577 210.151 150.094C210.668 150.61 210.958 151.311 210.958 152.041C210.958 152.772 210.668 153.473 210.151 153.989C209.635 154.506 208.934 154.796 208.204 154.796V154.796Z" fill="#3749A9"/>
</g>
<g id="110">
<path id="p 346.7138175309274" d="M122.849 217.104C122.119 217.104 121.418 216.814 120.901 216.298C120.385 215.781 120.095 215.081 120.095 214.35C120.095 213.62 120.385 212.919 120.901 212.402C121.418 211.886 122.119 211.596 122.849 211.596C123.58 211.596 124.28 211.886 124.797 212.402C125.313 212.919 125.603 213.62 125.603 214.35C125.603 215.081 125.313 215.781 124.797 216.298C124.28 216.814 123.58 217.104 122.849 217.104V217.104Z" fill="#3749A9"/>
</g>
<g id="124">
<path id="p 373.2689546905553" d="M160.266 206.241C159.536 206.241 158.835 205.951 158.318 205.434C157.802 204.918 157.512 204.217 157.512 203.487C157.512 202.756 157.802 202.056 158.318 201.539C158.835 201.023 159.536 200.732 160.266 200.732C160.997 200.732 161.697 201.023 162.214 201.539C162.73 202.056 163.02 202.756 163.02 203.487C163.02 204.217 162.73 204.918 162.214 205.434C161.697 205.951 160.997 206.241 160.266 206.241V206.241Z" fill="#3749A9"/>
</g>
<g id="115">
<path id="p 369.6773104516047" d="M213.339 149.577C212.609 149.577 211.908 149.287 211.392 148.77C210.875 148.254 210.585 147.553 210.585 146.823C210.585 146.092 210.875 145.392 211.392 144.875C211.908 144.359 212.609 144.068 213.339 144.068C214.07 144.068 214.77 144.359 215.287 144.875C215.804 145.392 216.094 146.092 216.094 146.823C216.094 147.553 215.804 148.254 215.287 148.77C214.77 149.287 214.07 149.577 213.339 149.577V149.577Z" fill="#3749A9"/>
</g>
<g id="183">
<path id="p 92.91809182340884" d="M15.7964 70.3603C15.0659 70.3603 14.3653 70.0701 13.8487 69.5536C13.3322 69.037 13.042 68.3364 13.042 67.6059C13.042 66.8754 13.3322 66.1748 13.8487 65.6583C14.3653 65.1418 15.0659 64.8516 15.7964 64.8516C16.5269 64.8516 17.2274 65.1418 17.744 65.6583C18.2605 66.1748 18.5507 66.8754 18.5507 67.6059C18.5507 68.3364 18.2605 69.037 17.744 69.5536C17.2274 70.0701 16.5269 70.3603 15.7964 70.3603V70.3603Z" fill="#3749A9"/>
</g>
<g id="119">
<path id="p 114.58674277135793" d="M2.75437 105.071C2.02386 105.071 1.32328 104.781 0.806735 104.264C0.290191 103.748 0 103.047 0 102.317C0 101.586 0.290191 100.886 0.806735 100.369C1.32328 99.8527 2.02386 99.5625 2.75437 99.5625C3.48487 99.5625 4.18545 99.8527 4.702 100.369C5.21854 100.886 5.50873 101.586 5.50873 102.317C5.50873 103.047 5.21854 103.748 4.702 104.264C4.18545 104.781 3.48487 105.071 2.75437 105.071V105.071Z" fill="#3749A9"/>
</g>
<g id="248">
<path id="p 119.69790455123668" d="M107.428 5.50873C106.698 5.50873 105.997 5.21854 105.481 4.702C104.964 4.18545 104.674 3.48487 104.674 2.75437C104.674 2.02386 104.964 1.32328 105.481 0.806735C105.997 0.290191 106.698 0 107.428 0C108.159 0 108.859 0.290191 109.376 0.806735C109.892 1.32328 110.183 2.02386 110.183 2.75437C110.183 3.48487 109.892 4.18545 109.376 4.702C108.859 5.21854 108.159 5.50873 107.428 5.50873V5.50873Z" fill="#3749A9"/>
</g>
<g id="102">
<path id="p 202.32442206572898" d="M171.083 24.4794C170.353 24.4794 169.652 24.1892 169.136 23.6727C168.619 23.1562 168.329 22.4556 168.329 21.7251C168.329 20.9946 168.619 20.294 169.136 19.7774C169.652 19.2609 170.353 18.9707 171.083 18.9707C171.814 18.9707 172.515 19.2609 173.031 19.7774C173.548 20.294 173.838 20.9946 173.838 21.7251C173.838 22.4556 173.548 23.1562 173.031 23.6727C172.515 24.1892 171.814 24.4794 171.083 24.4794V24.4794Z" fill="#3749A9"/>
</g>
<g id="264">
<path id="p 90.44162836884935" d="M9.52976 74.1513C8.79925 74.1513 8.09867 73.8611 7.58213 73.3446C7.06558 72.828 6.77539 72.1274 6.77539 71.3969C6.77539 70.6664 7.06558 69.9659 7.58213 69.4493C8.09867 68.9328 8.79925 68.6426 9.52976 68.6426C10.2603 68.6426 10.9608 68.9328 11.4774 69.4493C11.9939 69.9659 12.2841 70.6664 12.2841 71.3969C12.2841 72.1274 11.9939 72.828 11.4774 73.3446C10.9608 73.8611 10.2603 74.1513 9.52976 74.1513V74.1513Z" fill="#3749A9"/>
</g>
<g id="184">
<path id="p 358.2100071209122" d="M216.744 134.706C216.013 134.706 215.313 134.416 214.796 133.899C214.279 133.383 213.989 132.682 213.989 131.952C213.989 131.221 214.279 130.521 214.796 130.004C215.313 129.487 216.013 129.197 216.744 129.197C217.474 129.197 218.175 129.487 218.691 130.004C219.208 130.521 219.498 131.221 219.498 131.952C219.498 132.682 219.208 133.383 218.691 133.899C218.175 134.416 217.474 134.706 216.744 134.706V134.706Z" fill="#3749A9"/>
</g>
<g id="62">
<path id="p 358.74588890886747" d="M136.018 215.966C135.288 215.966 134.587 215.676 134.07 215.159C133.554 214.642 133.264 213.942 133.264 213.211C133.264 212.481 133.554 211.78 134.07 211.264C134.587 210.747 135.288 210.457 136.018 210.457C136.749 210.457 137.449 210.747 137.966 211.264C138.482 211.78 138.772 212.481 138.772 213.211C138.772 213.942 138.482 214.642 137.966 215.159C137.449 215.676 136.749 215.966 136.018 215.966V215.966Z" fill="#3749A9"/>
</g>
<g id="143">
<path id="p 98.69556558581685" d="M81.228 10.706C80.4975 10.706 79.7969 10.4158 79.2804 9.89926C78.7638 9.38272 78.4736 8.68213 78.4736 7.95163C78.4736 7.22113 78.7638 6.52054 79.2804 6.004C79.7969 5.48746 80.4975 5.19727 81.228 5.19727C81.9585 5.19727 82.6591 5.48746 83.1756 6.004C83.6922 6.52054 83.9824 7.22113 83.9824 7.95163C83.9824 8.68213 83.6922 9.38272 83.1756 9.89926C82.6591 10.4158 81.9585 10.706 81.228 10.706V10.706Z" fill="#3749A9"/>
</g>
<g id="315">
<path id="p 284.0913406628752" d="M208.881 68.4482C208.151 68.4482 207.45 68.158 206.934 67.6414C206.417 67.1249 206.127 66.4243 206.127 65.6938C206.127 64.9633 206.417 64.2627 206.934 63.7462C207.45 63.2296 208.151 62.9395 208.881 62.9395C209.612 62.9395 210.312 63.2296 210.829 63.7462C211.345 64.2627 211.636 64.9633 211.636 65.6938C211.636 66.4243 211.345 67.1249 210.829 67.6414C210.312 68.158 209.612 68.4482 208.881 68.4482V68.4482Z" fill="#3749A9"/>
</g>
<g id="114">
<path id="p 92.49720709400921" d="M73.9809 11.7548C73.2504 11.7548 72.5498 11.4646 72.0333 10.9481C71.5168 10.4315 71.2266 9.73096 71.2266 9.00046C71.2266 8.26996 71.5168 7.56937 72.0333 7.05283C72.5498 6.53628 73.2504 6.24609 73.9809 6.24609C74.7114 6.24609 75.412 6.53628 75.9286 7.05283C76.4451 7.56937 76.7353 8.26996 76.7353 9.00046C76.7353 9.73096 76.4451 10.4315 75.9286 10.9481C75.412 11.4646 74.7114 11.7548 73.9809 11.7548V11.7548Z" fill="#3749A9"/>
</g>
<g id="59">
<path id="p 322.3139648468886" d="M219.763 95.79C219.033 95.79 218.332 95.4998 217.816 94.9832C217.299 94.4667 217.009 93.7661 217.009 93.0356C217.009 92.3051 217.299 91.6045 217.816 91.088C218.332 90.5714 219.033 90.2812 219.763 90.2812C220.494 90.2812 221.194 90.5714 221.711 91.088C222.227 91.6045 222.518 92.3051 222.518 93.0356C222.518 93.7661 222.227 94.4667 221.711 94.9832C221.194 95.4998 220.494 95.79 219.763 95.79V95.79Z" fill="#3749A9"/>
</g>
<g id="128">
<path id="p 379.2237471731938" d="M167.48 204.983C166.749 204.983 166.049 204.693 165.532 204.177C165.016 203.66 164.726 202.959 164.726 202.229C164.726 201.498 165.016 200.798 165.532 200.281C166.049 199.765 166.749 199.475 167.48 199.475C168.21 199.475 168.911 199.765 169.428 200.281C169.944 200.798 170.234 201.498 170.234 202.229C170.234 202.959 169.944 203.66 169.428 204.177C168.911 204.693 168.21 204.983 167.48 204.983V204.983Z" fill="#3749A9"/>
</g>
<g id="82">
<path id="p 314.4167907508489" d="M89.8188 217.837C89.0883 217.837 88.3877 217.547 87.8712 217.03C87.3546 216.514 87.0645 215.813 87.0645 215.082C87.0645 214.352 87.3546 213.651 87.8712 213.135C88.3877 212.618 89.0883 212.328 89.8188 212.328C90.5493 212.328 91.2499 212.618 91.7664 213.135C92.283 213.651 92.5732 214.352 92.5732 215.082C92.5732 215.813 92.283 216.514 91.7664 217.03C91.2499 217.547 90.5493 217.837 89.8188 217.837V217.837Z" fill="#3749A9"/>
</g>
<g id="126">
<path id="p 382.16672958932884" d="M184.298 191.106C183.568 191.106 182.867 190.816 182.351 190.3C181.834 189.783 181.544 189.083 181.544 188.352C181.544 187.622 181.834 186.921 182.351 186.404C182.867 185.888 183.568 185.598 184.298 185.598C185.029 185.598 185.729 185.888 186.246 186.404C186.762 186.921 187.053 187.622 187.053 188.352C187.053 189.083 186.762 189.783 186.246 190.3C185.729 190.816 185.029 191.106 184.298 191.106V191.106Z" fill="#3749A9"/>
</g>
<g id="250">
<path id="p 385.7864536234179" d="M181.257 197.768C180.527 197.768 179.826 197.478 179.31 196.962C178.793 196.445 178.503 195.745 178.503 195.014C178.503 194.284 178.793 193.583 179.31 193.067C179.826 192.55 180.527 192.26 181.257 192.26C181.988 192.26 182.688 192.55 183.205 193.067C183.721 193.583 184.012 194.284 184.012 195.014C184.012 195.745 183.721 196.445 183.205 196.962C182.688 197.478 181.988 197.768 181.257 197.768V197.768Z" fill="#3749A9"/>
</g>
</g>
</g>
<g id="Label">
<rect x="53" y="231.5" width="120" height="36" rx="2" fill="#F7FAFC" fill-opacity="0.7"/>
<text id="boldLabel" fill="#0F1938" xml:space="preserve" style="white-space: pre" font-family="Jost*" font-size="14" letter-spacing="-0.01em"><tspan x="65.8071" y="245.865">205 data types &#10;</tspan><tspan x="57.286" y="262.865">shared 1543 times</tspan></text>
</g>
<g id="Label_2">
<rect x="49.5" y="44" width="68" height="19" rx="2" fill="#F7FAFC" fill-opacity="0.7"/>
<text id="textLabel" fill="#0F1938" xml:space="preserve" style="white-space: pre" font-family="Jost*" font-size="14" letter-spacing="-0.01em"><tspan x="53.6059" y="58.365">Data Type</tspan></text>
</g>
<path id="Line 56" d="M83 71L83 63" stroke="#0F1938"/>
</g>
</svg>
