<svg width="228" height="165" viewBox="0 0 228 165" fill="none" xmlns="http://www.w3.org/2000/svg">
<path d="M112.847 85.0405C121.705 85.0405 128.886 77.8597 128.886 69.0017C128.886 60.1437 121.705 52.9629 112.847 52.9629C103.989 52.9629 96.8086 60.1437 96.8086 69.0017C96.8086 77.8597 103.989 85.0405 112.847 85.0405Z" fill="#3749A9"/>
<path d="M148.317 44.8833C153.431 44.8833 157.577 40.7375 157.577 35.6233C157.577 30.5091 153.431 26.3633 148.317 26.3633C143.202 26.3633 139.057 30.5091 139.057 35.6233C139.057 40.7375 143.202 44.8833 148.317 44.8833Z" fill="#3749A9"/>
<path d="M185.57 140.297C205.377 140.297 221.434 124.24 221.434 104.433C221.434 84.6261 205.377 68.5693 185.57 68.5693C165.763 68.5693 149.706 84.6261 149.706 104.433C149.706 124.24 165.763 140.297 185.57 140.297Z" fill="#3749A9"/>
<rect x="143" y="146" width="85" height="19" rx="2" fill="#F7FAFC"/>
<path d="M149.587 155.1C149.587 153.014 151.141 151.642 152.933 151.642C154.319 151.642 155.327 152.244 155.999 153.042V151.068C155.187 150.396 154.305 150.032 152.877 150.032C149.993 150.032 147.795 152.118 147.795 155.1C147.795 158.082 149.993 160.168 152.877 160.168C154.305 160.168 155.187 159.804 155.999 159.132V157.158C155.327 157.956 154.319 158.558 152.933 158.558C151.141 158.558 149.587 157.186 149.587 155.1ZM157.278 156.78C157.278 158.754 158.776 160.14 160.75 160.14C162.724 160.14 164.222 158.754 164.222 156.78C164.222 154.806 162.724 153.42 160.75 153.42C158.776 153.42 157.278 154.806 157.278 156.78ZM158.832 156.78C158.832 155.576 159.658 154.75 160.75 154.75C161.842 154.75 162.668 155.576 162.668 156.78C162.668 157.984 161.842 158.81 160.75 158.81C159.658 158.81 158.832 157.984 158.832 156.78ZM165.027 156.78C165.027 158.754 166.525 160.14 168.499 160.14C170.473 160.14 171.971 158.754 171.971 156.78C171.971 154.806 170.473 153.42 168.499 153.42C166.525 153.42 165.027 154.806 165.027 156.78ZM166.581 156.78C166.581 155.576 167.407 154.75 168.499 154.75C169.591 154.75 170.417 155.576 170.417 156.78C170.417 157.984 169.591 158.81 168.499 158.81C167.407 158.81 166.581 157.984 166.581 156.78ZM177.06 153.56L174.694 155.828V149.08H173.21V160H174.694V156.724L177.354 160H179.188L176.136 156.22L178.908 153.56H177.06ZM179.987 150.998C179.987 151.516 180.407 151.922 180.939 151.922C181.471 151.922 181.891 151.516 181.891 150.998C181.891 150.48 181.471 150.074 180.939 150.074C180.407 150.074 179.987 150.48 179.987 150.998ZM180.197 153.56V160H181.681V153.56H180.197ZM186.422 160.14C187.906 160.14 188.984 159.552 189.656 158.39L188.34 157.872C187.92 158.572 187.304 158.894 186.492 158.894C185.442 158.894 184.798 158.25 184.686 157.13H189.698C189.698 157.06 189.712 156.878 189.712 156.71C189.712 154.652 188.522 153.42 186.492 153.42C184.448 153.42 183.132 154.75 183.132 156.78C183.132 158.796 184.434 160.14 186.422 160.14ZM186.478 154.568C187.374 154.568 187.99 155.156 188.06 156.08H184.728C184.91 155.1 185.526 154.568 186.478 154.568ZM190.525 156.78C190.525 158.894 191.981 160.14 193.661 160.14C194.599 160.14 195.369 159.706 195.859 158.936V160H197.385V149.08H195.859V154.624C195.369 153.854 194.599 153.42 193.661 153.42C191.981 153.42 190.525 154.666 190.525 156.78ZM192.093 156.78C192.093 155.492 192.975 154.736 194.025 154.736C194.893 154.736 195.859 155.464 195.859 156.78C195.859 158.096 194.893 158.824 194.025 158.824C192.975 158.824 192.093 158.068 192.093 156.78ZM199.582 155.24C199.862 155.044 200.618 154.638 201.542 154.638C202.34 154.638 202.914 154.918 202.914 155.702V156.486C202.508 156.262 201.892 156.038 201.052 156.038C199.456 156.038 198.532 156.836 198.532 158.082C198.532 159.398 199.568 160.14 200.786 160.14C201.612 160.14 202.508 159.804 202.914 159.118V160H204.398V155.408C204.398 154.134 203.264 153.406 201.682 153.406C200.478 153.406 199.554 153.826 198.966 154.176L199.582 155.24ZM200.058 157.998C200.058 157.396 200.464 157.032 201.416 157.032C201.962 157.032 202.452 157.13 202.914 157.354V157.452C202.914 158.432 202.158 159.006 201.262 159.006C200.562 159.006 200.058 158.642 200.058 157.998ZM205.125 153.56V154.89H206.203V160H207.701V154.89H208.779V153.56H207.701V151.32H206.203V153.56H205.125ZM212.481 160.14C213.965 160.14 215.043 159.552 215.715 158.39L214.399 157.872C213.979 158.572 213.363 158.894 212.551 158.894C211.501 158.894 210.857 158.25 210.745 157.13H215.757C215.757 157.06 215.771 156.878 215.771 156.71C215.771 154.652 214.581 153.42 212.551 153.42C210.507 153.42 209.191 154.75 209.191 156.78C209.191 158.796 210.493 160.14 212.481 160.14ZM212.537 154.568C213.433 154.568 214.049 155.156 214.119 156.08H210.787C210.969 155.1 211.585 154.568 212.537 154.568ZM221.219 156.08V160H222.773V155.912C222.773 154.358 221.989 153.42 220.533 153.42C219.651 153.42 218.993 153.798 218.587 154.554V153.56H217.075V160H218.587V156.08C218.587 155.212 219.175 154.638 220.029 154.638C220.841 154.638 221.219 155.142 221.219 156.08Z" fill="#0F1938"/>
<rect x="102" width="91" height="19" rx="2" fill="#F7FAFC"/>
<path d="M113.795 11.172C113.795 9.8 112.913 9.016 111.709 8.694C112.661 8.344 113.235 7.644 113.235 6.664C113.235 4.998 111.961 4.2 110.099 4.2H107.145V14H110.267C112.325 14 113.795 13.118 113.795 11.172ZM109.987 5.558C110.897 5.558 111.541 6.034 111.541 6.846C111.541 7.658 110.897 8.134 109.987 8.134H108.797V5.558H109.987ZM108.797 12.642V9.422H110.169C111.289 9.422 112.101 9.94 112.101 11.004C112.101 12.096 111.289 12.642 110.169 12.642H108.797ZM118.073 14.14C119.557 14.14 120.635 13.552 121.307 12.39L119.991 11.872C119.571 12.572 118.955 12.894 118.143 12.894C117.093 12.894 116.449 12.25 116.337 11.13H121.349C121.349 11.06 121.363 10.878 121.363 10.71C121.363 8.652 120.173 7.42 118.143 7.42C116.099 7.42 114.783 8.75 114.783 10.78C114.783 12.796 116.085 14.14 118.073 14.14ZM118.129 8.568C119.025 8.568 119.641 9.156 119.711 10.08H116.379C116.561 9.1 117.177 8.568 118.129 8.568ZM121.771 7.56V8.89H122.849V14H124.347V8.89H125.425V7.56H124.347V5.32H122.849V7.56H121.771ZM129.743 9.184L130.485 7.896C130.191 7.56 129.757 7.42 129.295 7.42C128.749 7.42 128.203 7.77 127.825 8.344V7.56H126.327V14H127.825V10.374C127.825 9.45 128.133 8.834 128.889 8.834C129.253 8.834 129.463 8.96 129.743 9.184ZM131.313 4.998C131.313 5.516 131.733 5.922 132.265 5.922C132.797 5.922 133.217 5.516 133.217 4.998C133.217 4.48 132.797 4.074 132.265 4.074C131.733 4.074 131.313 4.48 131.313 4.998ZM131.523 7.56V14H133.007V7.56H131.523ZM137.748 14.14C139.232 14.14 140.31 13.552 140.982 12.39L139.666 11.872C139.246 12.572 138.63 12.894 137.818 12.894C136.768 12.894 136.124 12.25 136.012 11.13H141.024C141.024 11.06 141.038 10.878 141.038 10.71C141.038 8.652 139.848 7.42 137.818 7.42C135.774 7.42 134.458 8.75 134.458 10.78C134.458 12.796 135.76 14.14 137.748 14.14ZM137.804 8.568C138.7 8.568 139.316 9.156 139.386 10.08H136.054C136.236 9.1 136.852 8.568 137.804 8.568ZM149.145 10.78C149.145 8.666 147.689 7.42 146.009 7.42C145.071 7.42 144.301 7.854 143.811 8.624V3.08H142.285V14H143.811V12.936C144.301 13.706 145.071 14.14 146.009 14.14C147.689 14.14 149.145 12.894 149.145 10.78ZM147.577 10.78C147.577 12.068 146.695 12.824 145.645 12.824C144.777 12.824 143.811 12.096 143.811 10.78C143.811 9.464 144.777 8.736 145.645 8.736C146.695 8.736 147.577 9.492 147.577 10.78ZM150.725 11.886L149.843 12.768C150.403 13.51 151.397 14.196 152.727 14.196C154.127 14.196 155.023 13.398 155.023 12.18C155.023 11.018 154.113 10.598 153.049 10.164C152.251 9.856 151.649 9.632 151.649 9.142C151.649 8.792 151.957 8.596 152.391 8.596C153.021 8.596 153.665 8.96 154.085 9.45L154.925 8.554C154.393 7.91 153.483 7.42 152.433 7.42C151.243 7.42 150.221 8.008 150.221 9.17C150.221 10.346 151.173 10.808 152.055 11.13C152.909 11.438 153.497 11.704 153.497 12.264C153.497 12.684 153.175 12.95 152.629 12.95C151.971 12.95 151.355 12.572 150.725 11.886ZM155.735 10.78C155.735 12.894 157.191 14.14 158.871 14.14C159.809 14.14 160.579 13.706 161.069 12.936V14H162.595V3.08H161.069V8.624C160.579 7.854 159.809 7.42 158.871 7.42C157.191 7.42 155.735 8.666 155.735 10.78ZM157.303 10.78C157.303 9.492 158.185 8.736 159.235 8.736C160.103 8.736 161.069 9.464 161.069 10.78C161.069 12.096 160.103 12.824 159.235 12.824C158.185 12.824 157.303 12.068 157.303 10.78ZM164.792 9.24C165.072 9.044 165.828 8.638 166.752 8.638C167.55 8.638 168.124 8.918 168.124 9.702V10.486C167.718 10.262 167.102 10.038 166.262 10.038C164.666 10.038 163.742 10.836 163.742 12.082C163.742 13.398 164.778 14.14 165.996 14.14C166.822 14.14 167.718 13.804 168.124 13.118V14H169.608V9.408C169.608 8.134 168.474 7.406 166.892 7.406C165.688 7.406 164.764 7.826 164.176 8.176L164.792 9.24ZM165.268 11.998C165.268 11.396 165.674 11.032 166.626 11.032C167.172 11.032 167.662 11.13 168.124 11.354V11.452C168.124 12.432 167.368 13.006 166.472 13.006C165.772 13.006 165.268 12.642 165.268 11.998ZM170.334 7.56V8.89H171.412V14H172.91V8.89H173.988V7.56H172.91V5.32H171.412V7.56H170.334ZM177.691 14.14C179.175 14.14 180.253 13.552 180.925 12.39L179.609 11.872C179.189 12.572 178.573 12.894 177.761 12.894C176.711 12.894 176.067 12.25 175.955 11.13H180.967C180.967 11.06 180.981 10.878 180.981 10.71C180.981 8.652 179.791 7.42 177.761 7.42C175.717 7.42 174.401 8.75 174.401 10.78C174.401 12.796 175.703 14.14 177.691 14.14ZM177.747 8.568C178.643 8.568 179.259 9.156 179.329 10.08H175.997C176.179 9.1 176.795 8.568 177.747 8.568ZM186.428 10.08V14H187.982V9.912C187.982 8.358 187.198 7.42 185.742 7.42C184.86 7.42 184.202 7.798 183.796 8.554V7.56H182.284V14H183.796V10.08C183.796 9.212 184.384 8.638 185.238 8.638C186.05 8.638 186.428 9.142 186.428 10.08Z" fill="#0F1938"/>
<rect y="59" width="91" height="19" rx="2" fill="#F7FAFC"/>
<path d="M12.053 70.172C12.053 68.8 11.171 68.016 9.96702 67.694C10.919 67.344 11.493 66.644 11.493 65.664C11.493 63.998 10.219 63.2 8.35702 63.2H5.40302V73H8.52502C10.583 73 12.053 72.118 12.053 70.172ZM8.24502 64.558C9.15502 64.558 9.79902 65.034 9.79902 65.846C9.79902 66.658 9.15502 67.134 8.24502 67.134H7.05502V64.558H8.24502ZM7.05502 71.642V68.422H8.42702C9.54702 68.422 10.359 68.94 10.359 70.004C10.359 71.096 9.54702 71.642 8.42702 71.642H7.05502ZM16.9475 68.184L17.6895 66.896C17.3955 66.56 16.9615 66.42 16.4995 66.42C15.9535 66.42 15.4075 66.77 15.0295 67.344V66.56H13.5315V73H15.0295V69.374C15.0295 68.45 15.3375 67.834 16.0935 67.834C16.4575 67.834 16.6675 67.96 16.9475 68.184ZM17.8781 69.78C17.8781 71.754 19.3761 73.14 21.3501 73.14C23.3241 73.14 24.8221 71.754 24.8221 69.78C24.8221 67.806 23.3241 66.42 21.3501 66.42C19.3761 66.42 17.8781 67.806 17.8781 69.78ZM19.4321 69.78C19.4321 68.576 20.2581 67.75 21.3501 67.75C22.4421 67.75 23.2681 68.576 23.2681 69.78C23.2681 70.984 22.4421 71.81 21.3501 71.81C20.2581 71.81 19.4321 70.984 19.4321 69.78ZM24.9457 66.56L27.9557 73.462L29.8877 69.108L31.9037 73.462L34.9277 66.56H33.2757L31.7637 70.41L29.8877 66.07L28.0957 70.382L26.5837 66.56H24.9457ZM36.0325 70.886L35.1505 71.768C35.7105 72.51 36.7045 73.196 38.0345 73.196C39.4345 73.196 40.3305 72.398 40.3305 71.18C40.3305 70.018 39.4205 69.598 38.3565 69.164C37.5585 68.856 36.9565 68.632 36.9565 68.142C36.9565 67.792 37.2645 67.596 37.6985 67.596C38.3285 67.596 38.9725 67.96 39.3925 68.45L40.2325 67.554C39.7005 66.91 38.7905 66.42 37.7405 66.42C36.5505 66.42 35.5285 67.008 35.5285 68.17C35.5285 69.346 36.4805 69.808 37.3625 70.13C38.2165 70.438 38.8045 70.704 38.8045 71.264C38.8045 71.684 38.4825 71.95 37.9365 71.95C37.2785 71.95 36.6625 71.572 36.0325 70.886ZM44.3321 73.14C45.8161 73.14 46.8941 72.552 47.5661 71.39L46.2501 70.872C45.8301 71.572 45.2141 71.894 44.4021 71.894C43.3521 71.894 42.7081 71.25 42.5961 70.13H47.6081C47.6081 70.06 47.6221 69.878 47.6221 69.71C47.6221 67.652 46.4321 66.42 44.4021 66.42C42.3581 66.42 41.0421 67.75 41.0421 69.78C41.0421 71.796 42.3441 73.14 44.3321 73.14ZM44.3881 67.568C45.2841 67.568 45.9001 68.156 45.9701 69.08H42.6381C42.8201 68.1 43.4361 67.568 44.3881 67.568ZM52.3413 68.184L53.0833 66.896C52.7893 66.56 52.3553 66.42 51.8933 66.42C51.3473 66.42 50.8013 66.77 50.4233 67.344V66.56H48.9253V73H50.4233V69.374C50.4233 68.45 50.7313 67.834 51.4873 67.834C51.8513 67.834 52.0613 67.96 52.3413 68.184ZM53.4769 69.78C53.4769 71.894 54.9329 73.14 56.6129 73.14C57.5509 73.14 58.3209 72.706 58.8109 71.936V73H60.3369V62.08H58.8109V67.624C58.3209 66.854 57.5509 66.42 56.6129 66.42C54.9329 66.42 53.4769 67.666 53.4769 69.78ZM55.0449 69.78C55.0449 68.492 55.9269 67.736 56.9769 67.736C57.8449 67.736 58.8109 68.464 58.8109 69.78C58.8109 71.096 57.8449 71.824 56.9769 71.824C55.9269 71.824 55.0449 71.068 55.0449 69.78ZM62.5334 68.24C62.8134 68.044 63.5694 67.638 64.4934 67.638C65.2914 67.638 65.8654 67.918 65.8654 68.702V69.486C65.4594 69.262 64.8434 69.038 64.0034 69.038C62.4074 69.038 61.4834 69.836 61.4834 71.082C61.4834 72.398 62.5194 73.14 63.7374 73.14C64.5634 73.14 65.4594 72.804 65.8654 72.118V73H67.3494V68.408C67.3494 67.134 66.2154 66.406 64.6334 66.406C63.4294 66.406 62.5054 66.826 61.9174 67.176L62.5334 68.24ZM63.0094 70.998C63.0094 70.396 63.4154 70.032 64.3674 70.032C64.9134 70.032 65.4034 70.13 65.8654 70.354V70.452C65.8654 71.432 65.1094 72.006 64.2134 72.006C63.5134 72.006 63.0094 71.642 63.0094 70.998ZM68.0761 66.56V67.89H69.1541V73H70.6521V67.89H71.7301V66.56H70.6521V64.32H69.1541V66.56H68.0761ZM75.4329 73.14C76.9169 73.14 77.9949 72.552 78.6669 71.39L77.3509 70.872C76.9309 71.572 76.3149 71.894 75.5029 71.894C74.4529 71.894 73.8089 71.25 73.6969 70.13H78.7089C78.7089 70.06 78.7229 69.878 78.7229 69.71C78.7229 67.652 77.5329 66.42 75.5029 66.42C73.4589 66.42 72.1429 67.75 72.1429 69.78C72.1429 71.796 73.4449 73.14 75.4329 73.14ZM75.4889 67.568C76.3849 67.568 77.0009 68.156 77.0709 69.08H73.7389C73.9209 68.1 74.5369 67.568 75.4889 67.568ZM84.1701 69.08V73H85.7241V68.912C85.7241 67.358 84.9401 66.42 83.4841 66.42C82.6021 66.42 81.9441 66.798 81.5381 67.554V66.56H80.0261V73H81.5381V69.08C81.5381 68.212 82.1261 67.638 82.9801 67.638C83.7921 67.638 84.1701 68.142 84.1701 69.08Z" fill="#0F1938"/>
</svg>
