<svg width="316" height="169" viewBox="0 0 316 169" fill="none" xmlns="http://www.w3.org/2000/svg">
<rect x="10" y="74" width="265" height="12" fill="#3BA6FF"/>
<path d="M260.632 77.408L258.856 79.792C258.576 80.152 258.384 80.592 258.384 81.112C258.384 82.352 259.288 83.096 260.44 83.096C261.592 83.096 262.496 82.352 262.496 81.112C262.496 80.04 261.688 79.296 260.808 79.296C260.576 79.296 260.392 79.32 260.224 79.4L261.832 77.408H260.632ZM259.304 81.112C259.304 80.424 259.792 79.936 260.44 79.936C261.088 79.936 261.568 80.424 261.568 81.112C261.568 81.8 261.088 82.272 260.44 82.272C259.792 82.272 259.304 81.8 259.304 81.112ZM265.106 83.096C266.258 83.096 267.026 82.464 267.026 81.504C267.026 80.744 266.578 80.28 265.906 80.064C266.49 79.832 266.866 79.392 266.866 78.824C266.866 78 266.226 77.312 265.146 77.312C264.114 77.312 263.41 77.968 263.41 78.888H264.298C264.298 78.44 264.674 78.112 265.154 78.112C265.658 78.112 265.914 78.424 265.914 78.872C265.914 79.352 265.506 79.752 264.826 79.752V80.464C265.586 80.464 266.074 80.8 266.074 81.4C266.074 81.96 265.69 82.28 265.122 82.28C264.554 82.28 264.122 81.936 264.122 81.4H263.17C263.17 82.32 263.914 83.096 265.106 83.096ZM267.34 83H271.612V82.12H269.188L270.772 80.56C271.228 80.128 271.54 79.568 271.54 78.984C271.54 78.24 270.924 77.304 269.628 77.304C268.348 77.304 267.644 78.192 267.644 79.384H268.58C268.58 78.632 268.972 78.152 269.612 78.152C270.228 78.152 270.564 78.592 270.564 79.032C270.564 79.48 270.324 79.848 269.924 80.272L267.34 83Z" fill="#0F1938"/>
<path d="M17.068 58.6V64.24L10.936 58.18V67H12.328V61.36L18.46 67.42V58.6H17.068ZM20.5027 62.92C20.7427 62.752 21.3907 62.404 22.1827 62.404C22.8667 62.404 23.3587 62.644 23.3587 63.316V63.988C23.0107 63.796 22.4827 63.604 21.7627 63.604C20.3947 63.604 19.6027 64.288 19.6027 65.356C19.6027 66.484 20.4907 67.12 21.5347 67.12C22.2427 67.12 23.0107 66.832 23.3587 66.244V67H24.6307V63.064C24.6307 61.972 23.6587 61.348 22.3027 61.348C21.2707 61.348 20.4787 61.708 19.9747 62.008L20.5027 62.92ZM20.9107 65.284C20.9107 64.768 21.2587 64.456 22.0747 64.456C22.5427 64.456 22.9627 64.54 23.3587 64.732V64.816C23.3587 65.656 22.7107 66.148 21.9427 66.148C21.3427 66.148 20.9107 65.836 20.9107 65.284ZM33.9176 63.496C33.9176 62.14 33.3536 61.36 32.1656 61.36C31.4216 61.36 30.8216 61.708 30.4376 62.344C30.1976 61.708 29.6456 61.36 28.8416 61.36C28.1336 61.36 27.6176 61.672 27.2936 62.284V61.48H26.0216V67H27.2936V63.64C27.2936 62.848 27.7136 62.404 28.3856 62.404C29.0096 62.404 29.2976 62.812 29.2976 63.64V67H30.6056V63.64C30.6056 62.848 31.0376 62.404 31.7096 62.404C32.3336 62.404 32.6216 62.812 32.6216 63.64V67H33.9176V63.496ZM37.8524 67.12C39.1244 67.12 40.0484 66.616 40.6244 65.62L39.4964 65.176C39.1364 65.776 38.6084 66.052 37.9124 66.052C37.0124 66.052 36.4604 65.5 36.3644 64.54H40.6604C40.6604 64.48 40.6724 64.324 40.6724 64.18C40.6724 62.416 39.6524 61.36 37.9124 61.36C36.1604 61.36 35.0324 62.5 35.0324 64.24C35.0324 65.968 36.1484 67.12 37.8524 67.12ZM37.9004 62.344C38.6684 62.344 39.1964 62.848 39.2564 63.64H36.4004C36.5564 62.8 37.0844 62.344 37.9004 62.344ZM44.8471 64.24C44.8471 66.052 46.0951 67.12 47.5351 67.12C48.3391 67.12 48.9991 66.748 49.4191 66.088V67H50.7271V57.64H49.4191V62.392C48.9991 61.732 48.3391 61.36 47.5351 61.36C46.0951 61.36 44.8471 62.428 44.8471 64.24ZM46.1911 64.24C46.1911 63.136 46.9471 62.488 47.8471 62.488C48.5911 62.488 49.4191 63.112 49.4191 64.24C49.4191 65.368 48.5911 65.992 47.8471 65.992C46.9471 65.992 46.1911 65.344 46.1911 64.24ZM54.6017 67.12C55.8737 67.12 56.7977 66.616 57.3737 65.62L56.2457 65.176C55.8857 65.776 55.3577 66.052 54.6617 66.052C53.7617 66.052 53.2097 65.5 53.1137 64.54H57.4097C57.4097 64.48 57.4217 64.324 57.4217 64.18C57.4217 62.416 56.4017 61.36 54.6617 61.36C52.9097 61.36 51.7817 62.5 51.7817 64.24C51.7817 65.968 52.8977 67.12 54.6017 67.12ZM54.6497 62.344C55.4177 62.344 55.9457 62.848 56.0057 63.64H53.1497C53.3057 62.8 53.8337 62.344 54.6497 62.344ZM58.7908 65.188L58.0348 65.944C58.5148 66.58 59.3668 67.168 60.5068 67.168C61.7068 67.168 62.4748 66.484 62.4748 65.44C62.4748 64.444 61.6948 64.084 60.7828 63.712C60.0988 63.448 59.5828 63.256 59.5828 62.836C59.5828 62.536 59.8468 62.368 60.2188 62.368C60.7588 62.368 61.3108 62.68 61.6708 63.1L62.3908 62.332C61.9348 61.78 61.1548 61.36 60.2548 61.36C59.2348 61.36 58.3588 61.864 58.3588 62.86C58.3588 63.868 59.1748 64.264 59.9308 64.54C60.6628 64.804 61.1668 65.032 61.1668 65.512C61.1668 65.872 60.8908 66.1 60.4228 66.1C59.8588 66.1 59.3308 65.776 58.7908 65.188ZM66.6824 59.908H70.5224L66.3104 67H72.5264V65.728H68.6144L72.8384 58.6H66.6824V59.908ZM72.3391 61.48L74.9191 67.396L76.5751 63.664L78.3031 67.396L80.8951 61.48H79.4791L78.1831 64.78L76.5751 61.06L75.0391 64.756L73.7431 61.48H72.3391ZM83.8143 67.12C85.0863 67.12 86.0103 66.616 86.5863 65.62L85.4583 65.176C85.0983 65.776 84.5703 66.052 83.8743 66.052C82.9743 66.052 82.4223 65.5 82.3263 64.54H86.6223C86.6223 64.48 86.6343 64.324 86.6343 64.18C86.6343 62.416 85.6143 61.36 83.8743 61.36C82.1223 61.36 80.9943 62.5 80.9943 64.24C80.9943 65.968 82.1103 67.12 83.8143 67.12ZM83.8623 62.344C84.6303 62.344 85.1583 62.848 85.2183 63.64H82.3623C82.5183 62.8 83.0463 62.344 83.8623 62.344ZM88.6153 64.24C88.6153 63.22 89.3593 62.476 90.3313 62.476C91.0993 62.476 91.8553 62.872 92.1313 63.412V61.972C91.7473 61.6 91.0513 61.36 90.2713 61.36C88.5553 61.36 87.2833 62.548 87.2833 64.24C87.2833 65.932 88.5553 67.12 90.2713 67.12C91.0513 67.12 91.7473 66.892 92.1313 66.496V65.068C91.8553 65.608 91.1233 66.004 90.3313 66.004C89.3593 66.004 88.6153 65.284 88.6153 64.24ZM96.6958 61.48L94.6678 63.424V57.64H93.3958V67H94.6678V64.192L96.9478 67H98.5198L95.9038 63.76L98.2798 61.48H96.6958ZM99.5055 65.188L98.7495 65.944C99.2295 66.58 100.081 67.168 101.221 67.168C102.421 67.168 103.189 66.484 103.189 65.44C103.189 64.444 102.409 64.084 101.497 63.712C100.813 63.448 100.297 63.256 100.297 62.836C100.297 62.536 100.561 62.368 100.933 62.368C101.473 62.368 102.025 62.68 102.385 63.1L103.105 62.332C102.649 61.78 101.869 61.36 100.969 61.36C99.9495 61.36 99.0735 61.864 99.0735 62.86C99.0735 63.868 99.8895 64.264 100.645 64.54C101.377 64.804 101.881 65.032 101.881 65.512C101.881 65.872 101.605 66.1 101.137 66.1C100.573 66.1 100.045 65.776 99.5055 65.188Z" fill="#0F1938"/>
<path d="M115.5 65.8359C115.031 65.8359 114.68 66.2168 114.68 66.6562C114.68 67.125 115.031 67.4766 115.5 67.4766C115.939 67.4766 116.32 67.125 116.32 66.6562C116.32 66.2168 115.939 65.8359 115.5 65.8359ZM115.705 65.1328C115.91 65.1328 116.057 64.9863 116.057 64.7812C116.057 63.5215 118.342 63.6094 118.342 61.6465C118.342 60.1523 116.994 59.2734 115.471 59.2734C114.152 59.2734 113.42 59.8008 112.805 60.5918C112.688 60.7676 112.717 60.9727 112.893 61.0898L113.273 61.3828C113.42 61.4707 113.625 61.4414 113.742 61.2949C114.182 60.7383 114.621 60.4453 115.471 60.4453C116.643 60.4453 117.17 61.0605 117.17 61.6465C117.17 62.9062 114.885 62.7305 114.885 64.7812C114.885 64.9863 115.061 65.1328 115.236 65.1328H115.705ZM115.5 57.0469C118.957 57.0469 121.828 59.8887 121.828 63.375C121.828 66.8906 118.986 69.7031 115.5 69.7031C111.984 69.7031 109.172 66.8906 109.172 63.375C109.172 59.8887 111.984 57.0469 115.5 57.0469ZM115.5 56.1094C111.486 56.1094 108.234 59.3906 108.234 63.375C108.234 67.3887 111.486 70.6406 115.5 70.6406C119.484 70.6406 122.766 67.3887 122.766 63.375C122.766 59.3906 119.484 56.1094 115.5 56.1094Z" fill="#0F1938"/>
<path d="M235.72 124H236.86L232.96 115.18L229.06 124H230.2L231.268 121.48H234.652L235.72 124ZM232.96 117.496L234.244 120.52H231.676L232.96 117.496ZM241.242 120.64V124H242.202V120.52C242.202 119.188 241.47 118.36 240.306 118.36C239.586 118.36 239.034 118.672 238.662 119.344V118.48H237.702V124H238.662V120.64C238.662 119.824 239.226 119.26 240.066 119.26C240.834 119.26 241.242 119.728 241.242 120.64ZM246.587 119.38L243.167 124H248.087V123.1H244.907L248.327 118.48H243.527V119.38H246.587ZM249.574 119.752C249.826 119.56 250.402 119.2 251.23 119.2C251.914 119.2 252.478 119.416 252.478 120.172V120.976C252.154 120.772 251.638 120.568 250.906 120.568C249.55 120.568 248.746 121.276 248.746 122.344C248.746 123.472 249.634 124.12 250.654 124.12C251.326 124.12 252.118 123.844 252.478 123.256V124H253.438V120.04C253.438 118.972 252.562 118.36 251.278 118.36C250.258 118.36 249.526 118.744 249.106 119.044L249.574 119.752ZM249.718 122.296C249.718 121.696 250.126 121.324 251.062 121.324C251.578 121.324 252.034 121.42 252.478 121.636V121.84C252.478 122.716 251.782 123.292 250.906 123.292C250.198 123.292 249.718 122.932 249.718 122.296ZM258.483 120.64V124H259.443V120.52C259.443 119.092 258.687 118.36 257.547 118.36C256.827 118.36 256.239 118.744 255.903 119.356V114.64H254.943V124H255.903V120.64C255.903 119.848 256.467 119.26 257.307 119.26C258.087 119.26 258.483 119.728 258.483 120.64ZM261.128 114.64V124H262.088V114.64H261.128ZM266.771 121.24C266.771 123.028 268.007 124.12 269.507 124.12C270.323 124.12 270.983 123.736 271.391 123.052V124H272.351V114.64H271.391V119.428C270.983 118.744 270.323 118.36 269.507 118.36C268.007 118.36 266.771 119.452 266.771 121.24ZM267.743 121.24C267.743 119.968 268.607 119.26 269.627 119.26C270.467 119.26 271.391 119.968 271.391 121.24C271.391 122.512 270.467 123.22 269.627 123.22C268.607 123.22 267.743 122.512 267.743 121.24ZM276.111 124.12C277.287 124.12 278.163 123.652 278.739 122.716L277.959 122.224C277.551 122.896 276.975 123.22 276.231 123.22C275.199 123.22 274.563 122.596 274.479 121.48H278.823C278.823 121.456 278.835 121.312 278.835 121.192C278.835 119.44 277.851 118.36 276.231 118.36C274.599 118.36 273.495 119.524 273.495 121.24C273.495 122.944 274.563 124.12 276.111 124.12ZM276.231 119.2C277.119 119.2 277.719 119.776 277.791 120.664H274.515C274.683 119.728 275.283 119.2 276.231 119.2ZM282.659 119.536L283.187 118.744C282.899 118.444 282.551 118.36 282.155 118.36C281.735 118.36 281.303 118.648 280.991 119.116V118.48H280.031V124H280.991V120.64C280.991 119.848 281.195 119.26 281.915 119.26C282.227 119.26 282.395 119.344 282.659 119.536ZM236.32 129.6V135.852L229.96 129.18V138H230.98V131.748L237.34 138.42V129.6H236.32ZM241.221 138.12C242.397 138.12 243.273 137.652 243.849 136.716L243.069 136.224C242.661 136.896 242.085 137.22 241.341 137.22C240.309 137.22 239.673 136.596 239.589 135.48H243.933C243.933 135.456 243.945 135.312 243.945 135.192C243.945 133.44 242.961 132.36 241.341 132.36C239.709 132.36 238.605 133.524 238.605 135.24C238.605 136.944 239.673 138.12 241.221 138.12ZM241.341 133.2C242.229 133.2 242.829 133.776 242.901 134.664H239.625C239.793 133.728 240.393 133.2 241.341 133.2ZM248.68 134.64V138H249.64V134.52C249.64 133.188 248.908 132.36 247.744 132.36C247.024 132.36 246.472 132.672 246.1 133.344V132.48H245.14V138H246.1V134.64C246.1 133.824 246.664 133.26 247.504 133.26C248.272 133.26 248.68 133.728 248.68 134.64ZM254.865 134.64V138H255.825V134.52C255.825 133.188 255.093 132.36 253.929 132.36C253.209 132.36 252.657 132.672 252.285 133.344V132.48H251.325V138H252.285V134.64C252.285 133.824 252.849 133.26 253.689 133.26C254.457 133.26 254.865 133.728 254.865 134.64ZM258.47 135.84V132.48H257.51V135.96C257.51 137.28 258.254 138.12 259.406 138.12C260.138 138.12 260.678 137.796 261.05 137.136V138H262.01V132.48H261.05V135.84C261.05 136.656 260.486 137.22 259.646 137.22C258.878 137.22 258.47 136.728 258.47 135.84ZM267.235 134.64V138H268.195V134.52C268.195 133.188 267.463 132.36 266.299 132.36C265.579 132.36 265.027 132.672 264.655 133.344V132.48H263.695V138H264.655V134.64C264.655 133.824 265.219 133.26 266.059 133.26C266.827 133.26 267.235 133.728 267.235 134.64ZM269.507 138.36C269.507 139.788 270.623 140.76 272.243 140.76C273.623 140.76 274.979 139.788 274.979 137.88V132.48H274.019V133.428C273.611 132.744 272.951 132.36 272.135 132.36C270.635 132.36 269.399 133.452 269.399 135.24C269.399 137.028 270.635 138.12 272.135 138.12C272.951 138.12 273.611 137.736 274.019 137.052V137.88C274.019 139.272 273.083 139.86 272.243 139.86C271.163 139.86 270.479 139.152 270.479 138.36H269.507ZM270.371 135.24C270.371 133.968 271.235 133.26 272.255 133.26C273.095 133.26 274.019 133.968 274.019 135.24C274.019 136.512 273.095 137.22 272.255 137.22C271.235 137.22 270.371 136.512 270.371 135.24ZM278.739 138.12C279.915 138.12 280.791 137.652 281.367 136.716L280.587 136.224C280.179 136.896 279.603 137.22 278.859 137.22C277.827 137.22 277.191 136.596 277.107 135.48H281.451C281.451 135.456 281.463 135.312 281.463 135.192C281.463 133.44 280.479 132.36 278.859 132.36C277.227 132.36 276.123 133.524 276.123 135.24C276.123 136.944 277.191 138.12 278.739 138.12ZM278.859 133.2C279.747 133.2 280.347 133.776 280.419 134.664H277.143C277.311 133.728 277.911 133.2 278.859 133.2ZM286.199 134.64V138H287.159V134.52C287.159 133.188 286.427 132.36 285.263 132.36C284.543 132.36 283.991 132.672 283.619 133.344V132.48H282.659V138H283.619V134.64C283.619 133.824 284.183 133.26 285.023 133.26C285.791 133.26 286.199 133.728 286.199 134.64ZM229.42 149.24C229.42 151.028 230.656 152.12 232.156 152.12C232.972 152.12 233.632 151.736 234.04 151.052V152H235V142.64H234.04V147.428C233.632 146.744 232.972 146.36 232.156 146.36C230.656 146.36 229.42 147.452 229.42 149.24ZM230.392 149.24C230.392 147.968 231.256 147.26 232.276 147.26C233.116 147.26 234.04 147.968 234.04 149.24C234.04 150.512 233.116 151.22 232.276 151.22C231.256 151.22 230.392 150.512 230.392 149.24ZM236.624 144.2C236.624 144.56 236.924 144.86 237.284 144.86C237.644 144.86 237.944 144.56 237.944 144.2C237.944 143.84 237.644 143.54 237.284 143.54C236.924 143.54 236.624 143.84 236.624 144.2ZM236.804 146.48V152H237.764V146.48H236.804ZM241.757 152.12C242.933 152.12 243.809 151.652 244.385 150.716L243.605 150.224C243.197 150.896 242.621 151.22 241.877 151.22C240.845 151.22 240.209 150.596 240.125 149.48H244.469C244.469 149.456 244.481 149.312 244.481 149.192C244.481 147.44 243.497 146.36 241.877 146.36C240.245 146.36 239.141 147.524 239.141 149.24C239.141 150.944 240.209 152.12 241.757 152.12ZM241.877 147.2C242.765 147.2 243.365 147.776 243.437 148.664H240.161C240.329 147.728 240.929 147.2 241.877 147.2ZM245.905 150.308L245.149 150.776C245.449 151.436 246.253 152.12 247.357 152.12C248.485 152.12 249.253 151.4 249.253 150.44C249.253 149.456 248.473 149.084 247.513 148.688C246.925 148.448 246.361 148.196 246.361 147.752C246.361 147.38 246.697 147.212 247.093 147.212C247.669 147.212 248.137 147.524 248.437 147.932L249.205 147.44C248.869 146.828 248.089 146.36 247.213 146.36C246.313 146.36 245.425 146.828 245.425 147.812C245.425 148.784 246.277 149.192 247.009 149.468C247.645 149.708 248.281 149.972 248.281 150.548C248.281 150.98 247.945 151.244 247.405 151.244C246.721 151.244 246.241 150.824 245.905 150.308ZM252.533 152.12C253.709 152.12 254.585 151.652 255.161 150.716L254.381 150.224C253.973 150.896 253.397 151.22 252.653 151.22C251.621 151.22 250.985 150.596 250.901 149.48H255.245C255.245 149.456 255.257 149.312 255.257 149.192C255.257 147.44 254.273 146.36 252.653 146.36C251.021 146.36 249.917 147.524 249.917 149.24C249.917 150.944 250.985 152.12 252.533 152.12ZM252.653 147.2C253.541 147.2 254.141 147.776 254.213 148.664H250.937C251.105 147.728 251.705 147.2 252.653 147.2ZM256.68 150.308L255.924 150.776C256.224 151.436 257.028 152.12 258.132 152.12C259.26 152.12 260.028 151.4 260.028 150.44C260.028 149.456 259.248 149.084 258.288 148.688C257.7 148.448 257.136 148.196 257.136 147.752C257.136 147.38 257.472 147.212 257.868 147.212C258.444 147.212 258.912 147.524 259.212 147.932L259.98 147.44C259.644 146.828 258.864 146.36 257.988 146.36C257.088 146.36 256.2 146.828 256.2 147.812C256.2 148.784 257.052 149.192 257.784 149.468C258.42 149.708 259.056 149.972 259.056 150.548C259.056 150.98 258.72 151.244 258.18 151.244C257.496 151.244 257.016 150.824 256.68 150.308ZM264.17 144.56H268.346L263.93 152H269.81V151.04H265.634L270.05 143.6H264.17V144.56ZM269.631 146.48L272.031 152.42L273.603 148.4L275.271 152.42L277.671 146.48H276.591L275.199 150.092L273.591 146.06L272.091 150.068L270.711 146.48H269.631ZM280.468 152.12C281.644 152.12 282.52 151.652 283.096 150.716L282.316 150.224C281.908 150.896 281.332 151.22 280.588 151.22C279.556 151.22 278.92 150.596 278.836 149.48H283.18C283.18 149.456 283.192 149.312 283.192 149.192C283.192 147.44 282.208 146.36 280.588 146.36C278.956 146.36 277.852 147.524 277.852 149.24C277.852 150.944 278.92 152.12 280.468 152.12ZM280.588 147.2C281.476 147.2 282.076 147.776 282.148 148.664H278.872C279.04 147.728 279.64 147.2 280.588 147.2ZM284.819 149.24C284.819 148.088 285.623 147.26 286.703 147.26C287.591 147.26 288.371 147.728 288.623 148.268V147.068C288.239 146.624 287.459 146.36 286.703 146.36C285.083 146.36 283.847 147.572 283.847 149.24C283.847 150.908 285.083 152.12 286.703 152.12C287.459 152.12 288.239 151.868 288.623 151.412V150.212C288.371 150.752 287.591 151.22 286.703 151.22C285.623 151.22 284.819 150.392 284.819 149.24ZM292.938 146.48L290.898 148.412V142.64H289.938V152H290.898V149.204L293.178 152H294.378L291.738 148.76L294.138 146.48H292.938ZM295.391 150.308L294.635 150.776C294.935 151.436 295.739 152.12 296.843 152.12C297.971 152.12 298.739 151.4 298.739 150.44C298.739 149.456 297.959 149.084 296.999 148.688C296.411 148.448 295.847 148.196 295.847 147.752C295.847 147.38 296.183 147.212 296.579 147.212C297.155 147.212 297.623 147.524 297.923 147.932L298.691 147.44C298.355 146.828 297.575 146.36 296.699 146.36C295.799 146.36 294.911 146.828 294.911 147.812C294.911 148.784 295.763 149.192 296.495 149.468C297.131 149.708 297.767 149.972 297.767 150.548C297.767 150.98 297.431 151.244 296.891 151.244C296.207 151.244 295.727 150.824 295.391 150.308ZM300.123 151.52C300.123 151.88 300.423 152.18 300.783 152.18C301.143 152.18 301.443 151.88 301.443 151.52C301.443 151.16 301.143 150.86 300.783 150.86C300.423 150.86 300.123 151.16 300.123 151.52Z" fill="#0F1938"/>
<path d="M122.48 124C124.928 124 126.68 122.308 126.68 119.8C126.68 117.292 124.928 115.6 122.48 115.6H119.96V124H122.48ZM122.48 116.62C124.376 116.62 125.66 117.844 125.66 119.8C125.66 121.756 124.376 122.98 122.48 122.98H120.98V116.62H122.48ZM128.224 119.752C128.476 119.56 129.052 119.2 129.88 119.2C130.564 119.2 131.128 119.416 131.128 120.172V120.976C130.804 120.772 130.288 120.568 129.556 120.568C128.2 120.568 127.396 121.276 127.396 122.344C127.396 123.472 128.284 124.12 129.304 124.12C129.976 124.12 130.768 123.844 131.128 123.256V124H132.088V120.04C132.088 118.972 131.212 118.36 129.928 118.36C128.908 118.36 128.176 118.744 127.756 119.044L128.224 119.752ZM128.368 122.296C128.368 121.696 128.776 121.324 129.712 121.324C130.228 121.324 130.684 121.42 131.128 121.636V121.84C131.128 122.716 130.432 123.292 129.556 123.292C128.848 123.292 128.368 122.932 128.368 122.296ZM136.222 119.536L136.75 118.744C136.462 118.444 136.114 118.36 135.718 118.36C135.298 118.36 134.866 118.648 134.554 119.116V118.48H133.594V124H134.554V120.64C134.554 119.848 134.758 119.26 135.478 119.26C135.79 119.26 135.958 119.344 136.222 119.536ZM137.815 122.308L137.059 122.776C137.359 123.436 138.163 124.12 139.267 124.12C140.395 124.12 141.163 123.4 141.163 122.44C141.163 121.456 140.383 121.084 139.423 120.688C138.835 120.448 138.271 120.196 138.271 119.752C138.271 119.38 138.607 119.212 139.003 119.212C139.579 119.212 140.047 119.524 140.347 119.932L141.115 119.44C140.779 118.828 139.999 118.36 139.123 118.36C138.223 118.36 137.335 118.828 137.335 119.812C137.335 120.784 138.187 121.192 138.919 121.468C139.555 121.708 140.191 121.972 140.191 122.548C140.191 122.98 139.855 123.244 139.315 123.244C138.631 123.244 138.151 122.824 137.815 122.308ZM141.467 118.48V119.38H142.367V124H143.327V119.38H144.227V118.48H143.327V116.56H142.367V118.48H141.467ZM147.206 124.12C148.382 124.12 149.258 123.652 149.834 122.716L149.054 122.224C148.646 122.896 148.07 123.22 147.326 123.22C146.294 123.22 145.658 122.596 145.574 121.48H149.918C149.918 121.456 149.93 121.312 149.93 121.192C149.93 119.44 148.946 118.36 147.326 118.36C145.694 118.36 144.59 119.524 144.59 121.24C144.59 122.944 145.658 124.12 147.206 124.12ZM147.326 119.2C148.214 119.2 148.814 119.776 148.886 120.664H145.61C145.778 119.728 146.378 119.2 147.326 119.2ZM151.125 114.64V124H152.085V114.64H151.125ZM153.771 114.64V124H154.731V114.64H153.771ZM157.377 121.84V118.48H156.417V121.96C156.417 123.28 157.161 124.12 158.313 124.12C159.045 124.12 159.585 123.796 159.957 123.136V124H160.917V118.48H159.957V121.84C159.957 122.656 159.393 123.22 158.553 123.22C157.785 123.22 157.377 122.728 157.377 121.84ZM166.141 120.64V124H167.101V120.52C167.101 119.188 166.369 118.36 165.205 118.36C164.485 118.36 163.933 118.672 163.561 119.344V118.48H162.601V124H163.561V120.64C163.561 119.824 164.125 119.26 164.965 119.26C165.733 119.26 166.141 119.728 166.141 120.64ZM168.414 124.36C168.414 125.788 169.53 126.76 171.15 126.76C172.53 126.76 173.886 125.788 173.886 123.88V118.48H172.926V119.428C172.518 118.744 171.858 118.36 171.042 118.36C169.542 118.36 168.306 119.452 168.306 121.24C168.306 123.028 169.542 124.12 171.042 124.12C171.858 124.12 172.518 123.736 172.926 123.052V123.88C172.926 125.272 171.99 125.86 171.15 125.86C170.07 125.86 169.386 125.152 169.386 124.36H168.414ZM169.278 121.24C169.278 119.968 170.142 119.26 171.162 119.26C172.002 119.26 172.926 119.968 172.926 121.24C172.926 122.512 172.002 123.22 171.162 123.22C170.142 123.22 169.278 122.512 169.278 121.24ZM178.507 121.24C178.507 123.028 179.743 124.12 181.243 124.12C182.059 124.12 182.719 123.736 183.127 123.052V124H184.087V114.64H183.127V119.428C182.719 118.744 182.059 118.36 181.243 118.36C179.743 118.36 178.507 119.452 178.507 121.24ZM179.479 121.24C179.479 119.968 180.343 119.26 181.363 119.26C182.203 119.26 183.127 119.968 183.127 121.24C183.127 122.512 182.203 123.22 181.363 123.22C180.343 123.22 179.479 122.512 179.479 121.24ZM187.847 124.12C189.023 124.12 189.899 123.652 190.475 122.716L189.695 122.224C189.287 122.896 188.711 123.22 187.967 123.22C186.935 123.22 186.299 122.596 186.215 121.48H190.559C190.559 121.456 190.571 121.312 190.571 121.192C190.571 119.44 189.587 118.36 187.967 118.36C186.335 118.36 185.231 119.524 185.231 121.24C185.231 122.944 186.299 124.12 187.847 124.12ZM187.967 119.2C188.855 119.2 189.455 119.776 189.527 120.664H186.251C186.419 119.728 187.019 119.2 187.967 119.2ZM194.395 119.536L194.923 118.744C194.635 118.444 194.287 118.36 193.891 118.36C193.471 118.36 193.039 118.648 192.727 119.116V118.48H191.767V124H192.727V120.64C192.727 119.848 192.931 119.26 193.651 119.26C193.963 119.26 194.131 119.344 194.395 119.536ZM125.72 138H126.86L122.96 129.18L119.06 138H120.2L121.268 135.48H124.652L125.72 138ZM122.96 131.496L124.244 134.52H121.676L122.96 131.496ZM131.242 134.64V138H132.202V134.52C132.202 133.188 131.47 132.36 130.306 132.36C129.586 132.36 129.034 132.672 128.662 133.344V132.48H127.702V138H128.662V134.64C128.662 133.824 129.226 133.26 130.066 133.26C130.834 133.26 131.242 133.728 131.242 134.64ZM136.587 133.38L133.167 138H138.087V137.1H134.907L138.327 132.48H133.527V133.38H136.587ZM139.574 133.752C139.826 133.56 140.402 133.2 141.23 133.2C141.914 133.2 142.478 133.416 142.478 134.172V134.976C142.154 134.772 141.638 134.568 140.906 134.568C139.55 134.568 138.746 135.276 138.746 136.344C138.746 137.472 139.634 138.12 140.654 138.12C141.326 138.12 142.118 137.844 142.478 137.256V138H143.438V134.04C143.438 132.972 142.562 132.36 141.278 132.36C140.258 132.36 139.526 132.744 139.106 133.044L139.574 133.752ZM139.718 136.296C139.718 135.696 140.126 135.324 141.062 135.324C141.578 135.324 142.034 135.42 142.478 135.636V135.84C142.478 136.716 141.782 137.292 140.906 137.292C140.198 137.292 139.718 136.932 139.718 136.296ZM148.483 134.64V138H149.443V134.52C149.443 133.092 148.687 132.36 147.547 132.36C146.827 132.36 146.239 132.744 145.903 133.356V128.64H144.943V138H145.903V134.64C145.903 133.848 146.467 133.26 147.307 133.26C148.087 133.26 148.483 133.728 148.483 134.64ZM151.128 128.64V138H152.088V128.64H151.128ZM156.771 135.24C156.771 137.028 158.007 138.12 159.507 138.12C160.323 138.12 160.983 137.736 161.391 137.052V138H162.351V128.64H161.391V133.428C160.983 132.744 160.323 132.36 159.507 132.36C158.007 132.36 156.771 133.452 156.771 135.24ZM157.743 135.24C157.743 133.968 158.607 133.26 159.627 133.26C160.467 133.26 161.391 133.968 161.391 135.24C161.391 136.512 160.467 137.22 159.627 137.22C158.607 137.22 157.743 136.512 157.743 135.24ZM166.111 138.12C167.287 138.12 168.163 137.652 168.739 136.716L167.959 136.224C167.551 136.896 166.975 137.22 166.231 137.22C165.199 137.22 164.563 136.596 164.479 135.48H168.823C168.823 135.456 168.835 135.312 168.835 135.192C168.835 133.44 167.851 132.36 166.231 132.36C164.599 132.36 163.495 133.524 163.495 135.24C163.495 136.944 164.563 138.12 166.111 138.12ZM166.231 133.2C167.119 133.2 167.719 133.776 167.791 134.664H164.515C164.683 133.728 165.283 133.2 166.231 133.2ZM172.659 133.536L173.187 132.744C172.899 132.444 172.551 132.36 172.155 132.36C171.735 132.36 171.303 132.648 170.991 133.116V132.48H170.031V138H170.991V134.64C170.991 133.848 171.195 133.26 171.915 133.26C172.227 133.26 172.395 133.344 172.659 133.536ZM126.32 143.6V149.852L119.96 143.18V152H120.98V145.748L127.34 152.42V143.6H126.32ZM131.221 152.12C132.397 152.12 133.273 151.652 133.849 150.716L133.069 150.224C132.661 150.896 132.085 151.22 131.341 151.22C130.309 151.22 129.673 150.596 129.589 149.48H133.933C133.933 149.456 133.945 149.312 133.945 149.192C133.945 147.44 132.961 146.36 131.341 146.36C129.709 146.36 128.605 147.524 128.605 149.24C128.605 150.944 129.673 152.12 131.221 152.12ZM131.341 147.2C132.229 147.2 132.829 147.776 132.901 148.664H129.625C129.793 147.728 130.393 147.2 131.341 147.2ZM138.68 148.64V152H139.64V148.52C139.64 147.188 138.908 146.36 137.744 146.36C137.024 146.36 136.472 146.672 136.1 147.344V146.48H135.14V152H136.1V148.64C136.1 147.824 136.664 147.26 137.504 147.26C138.272 147.26 138.68 147.728 138.68 148.64ZM144.865 148.64V152H145.825V148.52C145.825 147.188 145.093 146.36 143.929 146.36C143.209 146.36 142.657 146.672 142.285 147.344V146.48H141.325V152H142.285V148.64C142.285 147.824 142.849 147.26 143.689 147.26C144.457 147.26 144.865 147.728 144.865 148.64ZM148.47 149.84V146.48H147.51V149.96C147.51 151.28 148.254 152.12 149.406 152.12C150.138 152.12 150.678 151.796 151.05 151.136V152H152.01V146.48H151.05V149.84C151.05 150.656 150.486 151.22 149.646 151.22C148.878 151.22 148.47 150.728 148.47 149.84ZM157.235 148.64V152H158.195V148.52C158.195 147.188 157.463 146.36 156.299 146.36C155.579 146.36 155.027 146.672 154.655 147.344V146.48H153.695V152H154.655V148.64C154.655 147.824 155.219 147.26 156.059 147.26C156.827 147.26 157.235 147.728 157.235 148.64ZM159.507 152.36C159.507 153.788 160.623 154.76 162.243 154.76C163.623 154.76 164.979 153.788 164.979 151.88V146.48H164.019V147.428C163.611 146.744 162.951 146.36 162.135 146.36C160.635 146.36 159.399 147.452 159.399 149.24C159.399 151.028 160.635 152.12 162.135 152.12C162.951 152.12 163.611 151.736 164.019 151.052V151.88C164.019 153.272 163.083 153.86 162.243 153.86C161.163 153.86 160.479 153.152 160.479 152.36H159.507ZM160.371 149.24C160.371 147.968 161.235 147.26 162.255 147.26C163.095 147.26 164.019 147.968 164.019 149.24C164.019 150.512 163.095 151.22 162.255 151.22C161.235 151.22 160.371 150.512 160.371 149.24ZM168.739 152.12C169.915 152.12 170.791 151.652 171.367 150.716L170.587 150.224C170.179 150.896 169.603 151.22 168.859 151.22C167.827 151.22 167.191 150.596 167.107 149.48H171.451C171.451 149.456 171.463 149.312 171.463 149.192C171.463 147.44 170.479 146.36 168.859 146.36C167.227 146.36 166.123 147.524 166.123 149.24C166.123 150.944 167.191 152.12 168.739 152.12ZM168.859 147.2C169.747 147.2 170.347 147.776 170.419 148.664H167.143C167.311 147.728 167.911 147.2 168.859 147.2ZM176.199 148.64V152H177.159V148.52C177.159 147.188 176.427 146.36 175.263 146.36C174.543 146.36 173.991 146.672 173.619 147.344V146.48H172.659V152H173.619V148.64C173.619 147.824 174.183 147.26 175.023 147.26C175.791 147.26 176.199 147.728 176.199 148.64ZM119.42 163.24C119.42 165.028 120.656 166.12 122.156 166.12C122.972 166.12 123.632 165.736 124.04 165.052V166H125V156.64H124.04V161.428C123.632 160.744 122.972 160.36 122.156 160.36C120.656 160.36 119.42 161.452 119.42 163.24ZM120.392 163.24C120.392 161.968 121.256 161.26 122.276 161.26C123.116 161.26 124.04 161.968 124.04 163.24C124.04 164.512 123.116 165.22 122.276 165.22C121.256 165.22 120.392 164.512 120.392 163.24ZM126.624 158.2C126.624 158.56 126.924 158.86 127.284 158.86C127.644 158.86 127.944 158.56 127.944 158.2C127.944 157.84 127.644 157.54 127.284 157.54C126.924 157.54 126.624 157.84 126.624 158.2ZM126.804 160.48V166H127.764V160.48H126.804ZM131.757 166.12C132.933 166.12 133.809 165.652 134.385 164.716L133.605 164.224C133.197 164.896 132.621 165.22 131.877 165.22C130.845 165.22 130.209 164.596 130.125 163.48H134.469C134.469 163.456 134.481 163.312 134.481 163.192C134.481 161.44 133.497 160.36 131.877 160.36C130.245 160.36 129.141 161.524 129.141 163.24C129.141 164.944 130.209 166.12 131.757 166.12ZM131.877 161.2C132.765 161.2 133.365 161.776 133.437 162.664H130.161C130.329 161.728 130.929 161.2 131.877 161.2ZM135.905 164.308L135.149 164.776C135.449 165.436 136.253 166.12 137.357 166.12C138.485 166.12 139.253 165.4 139.253 164.44C139.253 163.456 138.473 163.084 137.513 162.688C136.925 162.448 136.361 162.196 136.361 161.752C136.361 161.38 136.697 161.212 137.093 161.212C137.669 161.212 138.137 161.524 138.437 161.932L139.205 161.44C138.869 160.828 138.089 160.36 137.213 160.36C136.313 160.36 135.425 160.828 135.425 161.812C135.425 162.784 136.277 163.192 137.009 163.468C137.645 163.708 138.281 163.972 138.281 164.548C138.281 164.98 137.945 165.244 137.405 165.244C136.721 165.244 136.241 164.824 135.905 164.308ZM142.533 166.12C143.709 166.12 144.585 165.652 145.161 164.716L144.381 164.224C143.973 164.896 143.397 165.22 142.653 165.22C141.621 165.22 140.985 164.596 140.901 163.48H145.245C145.245 163.456 145.257 163.312 145.257 163.192C145.257 161.44 144.273 160.36 142.653 160.36C141.021 160.36 139.917 161.524 139.917 163.24C139.917 164.944 140.985 166.12 142.533 166.12ZM142.653 161.2C143.541 161.2 144.141 161.776 144.213 162.664H140.937C141.105 161.728 141.705 161.2 142.653 161.2ZM146.68 164.308L145.924 164.776C146.224 165.436 147.028 166.12 148.132 166.12C149.26 166.12 150.028 165.4 150.028 164.44C150.028 163.456 149.248 163.084 148.288 162.688C147.7 162.448 147.136 162.196 147.136 161.752C147.136 161.38 147.472 161.212 147.868 161.212C148.444 161.212 148.912 161.524 149.212 161.932L149.98 161.44C149.644 160.828 148.864 160.36 147.988 160.36C147.088 160.36 146.2 160.828 146.2 161.812C146.2 162.784 147.052 163.192 147.784 163.468C148.42 163.708 149.056 163.972 149.056 164.548C149.056 164.98 148.72 165.244 148.18 165.244C147.496 165.244 147.016 164.824 146.68 164.308ZM154.17 158.56H158.346L153.93 166H159.81V165.04H155.634L160.05 157.6H154.17V158.56ZM159.631 160.48L162.031 166.42L163.603 162.4L165.271 166.42L167.671 160.48H166.591L165.199 164.092L163.591 160.06L162.091 164.068L160.711 160.48H159.631ZM170.468 166.12C171.644 166.12 172.52 165.652 173.096 164.716L172.316 164.224C171.908 164.896 171.332 165.22 170.588 165.22C169.556 165.22 168.92 164.596 168.836 163.48H173.18C173.18 163.456 173.192 163.312 173.192 163.192C173.192 161.44 172.208 160.36 170.588 160.36C168.956 160.36 167.852 161.524 167.852 163.24C167.852 164.944 168.92 166.12 170.468 166.12ZM170.588 161.2C171.476 161.2 172.076 161.776 172.148 162.664H168.872C169.04 161.728 169.64 161.2 170.588 161.2ZM174.819 163.24C174.819 162.088 175.623 161.26 176.703 161.26C177.591 161.26 178.371 161.728 178.623 162.268V161.068C178.239 160.624 177.459 160.36 176.703 160.36C175.083 160.36 173.847 161.572 173.847 163.24C173.847 164.908 175.083 166.12 176.703 166.12C177.459 166.12 178.239 165.868 178.623 165.412V164.212C178.371 164.752 177.591 165.22 176.703 165.22C175.623 165.22 174.819 164.392 174.819 163.24ZM182.938 160.48L180.898 162.412V156.64H179.938V166H180.898V163.204L183.178 166H184.378L181.738 162.76L184.138 160.48H182.938ZM185.391 164.308L184.635 164.776C184.935 165.436 185.739 166.12 186.843 166.12C187.971 166.12 188.739 165.4 188.739 164.44C188.739 163.456 187.959 163.084 186.999 162.688C186.411 162.448 185.847 162.196 185.847 161.752C185.847 161.38 186.183 161.212 186.579 161.212C187.155 161.212 187.623 161.524 187.923 161.932L188.691 161.44C188.355 160.828 187.575 160.36 186.699 160.36C185.799 160.36 184.911 160.828 184.911 161.812C184.911 162.784 185.763 163.192 186.495 163.468C187.131 163.708 187.767 163.972 187.767 164.548C187.767 164.98 187.431 165.244 186.891 165.244C186.207 165.244 185.727 164.824 185.391 164.308ZM190.123 165.52C190.123 165.88 190.423 166.18 190.783 166.18C191.143 166.18 191.443 165.88 191.443 165.52C191.443 165.16 191.143 164.86 190.783 164.86C190.423 164.86 190.123 165.16 190.123 165.52Z" fill="#0F1938"/>
<path d="M16.648 11H18.244L14.14 2.132L10.036 11H11.632L12.592 8.84H15.688L16.648 11ZM14.14 4.976L15.28 7.64H13L14.14 4.976ZM22.5452 7.64V11H23.8772V7.496C23.8772 6.164 23.2052 5.36 21.9572 5.36C21.2012 5.36 20.6372 5.684 20.2892 6.332V5.48H18.9932V11H20.2892V7.64C20.2892 6.896 20.7932 6.404 21.5252 6.404C22.2212 6.404 22.5452 6.836 22.5452 7.64ZM27.9682 6.68L24.7642 11H29.9242V9.8H27.0682L30.2242 5.48H25.1842V6.68H27.9682ZM31.5127 6.92C31.7527 6.752 32.4007 6.404 33.1927 6.404C33.8767 6.404 34.3687 6.644 34.3687 7.316V7.988C34.0207 7.796 33.4927 7.604 32.7727 7.604C31.4047 7.604 30.6127 8.288 30.6127 9.356C30.6127 10.484 31.5007 11.12 32.5447 11.12C33.2527 11.12 34.0207 10.832 34.3687 10.244V11H35.6407V7.064C35.6407 5.972 34.6687 5.348 33.3127 5.348C32.2807 5.348 31.4887 5.708 30.9847 6.008L31.5127 6.92ZM31.9207 9.284C31.9207 8.768 32.2687 8.456 33.0847 8.456C33.5527 8.456 33.9727 8.54 34.3687 8.732V8.816C34.3687 9.656 33.7207 10.148 32.9527 10.148C32.3527 10.148 31.9207 9.836 31.9207 9.284ZM40.5836 7.64V11H41.8916V7.46C41.8916 6.056 41.2316 5.324 39.9956 5.324C39.2276 5.324 38.6516 5.708 38.3276 6.308V1.64H37.0316V11H38.3276V7.64C38.3276 6.908 38.8316 6.404 39.5636 6.404C40.2716 6.404 40.5836 6.836 40.5836 7.64ZM43.4155 1.64V11H44.7115V1.64H43.4155ZM49.3063 8.24C49.3063 10.052 50.5543 11.12 51.9943 11.12C52.7983 11.12 53.4583 10.748 53.8783 10.088V11H55.1863V1.64H53.8783V6.392C53.4583 5.732 52.7983 5.36 51.9943 5.36C50.5543 5.36 49.3063 6.428 49.3063 8.24ZM50.6503 8.24C50.6503 7.136 51.4063 6.488 52.3063 6.488C53.0503 6.488 53.8783 7.112 53.8783 8.24C53.8783 9.368 53.0503 9.992 52.3063 9.992C51.4063 9.992 50.6503 9.344 50.6503 8.24ZM59.061 11.12C60.333 11.12 61.257 10.616 61.833 9.62L60.705 9.176C60.345 9.776 59.817 10.052 59.121 10.052C58.221 10.052 57.669 9.5 57.573 8.54H61.869C61.869 8.48 61.881 8.324 61.881 8.18C61.881 6.416 60.861 5.36 59.121 5.36C57.369 5.36 56.241 6.5 56.241 8.24C56.241 9.968 57.357 11.12 59.061 11.12ZM59.109 6.344C59.877 6.344 60.405 6.848 60.465 7.64H57.609C57.765 6.8 58.293 6.344 59.109 6.344ZM65.926 6.872L66.562 5.768C66.31 5.48 65.938 5.36 65.542 5.36C65.074 5.36 64.606 5.66 64.282 6.152V5.48H62.998V11H64.282V7.892C64.282 7.1 64.546 6.572 65.194 6.572C65.506 6.572 65.686 6.68 65.926 6.872ZM77.0371 2.6V8.24L70.9051 2.18V11H72.2971V5.36L78.4291 11.42V2.6H77.0371ZM82.4638 11.12C83.7358 11.12 84.6598 10.616 85.2358 9.62L84.1078 9.176C83.7478 9.776 83.2198 10.052 82.5238 10.052C81.6238 10.052 81.0718 9.5 80.9758 8.54H85.2718C85.2718 8.48 85.2838 8.324 85.2838 8.18C85.2838 6.416 84.2638 5.36 82.5238 5.36C80.7718 5.36 79.6438 6.5 79.6438 8.24C79.6438 9.968 80.7598 11.12 82.4638 11.12ZM82.5118 6.344C83.2798 6.344 83.8078 6.848 83.8678 7.64H81.0118C81.1678 6.8 81.6958 6.344 82.5118 6.344ZM89.9528 7.64V11H91.2848V7.496C91.2848 6.164 90.6128 5.36 89.3648 5.36C88.6088 5.36 88.0448 5.684 87.6968 6.332V5.48H86.4008V11H87.6968V7.64C87.6968 6.896 88.2008 6.404 88.9328 6.404C89.6288 6.404 89.9528 6.836 89.9528 7.64ZM96.3719 7.64V11H97.7039V7.496C97.7039 6.164 97.0319 5.36 95.7839 5.36C95.0279 5.36 94.4639 5.684 94.1159 6.332V5.48H92.8199V11H94.1159V7.64C94.1159 6.896 94.6199 6.404 95.3519 6.404C96.0479 6.404 96.3719 6.836 96.3719 7.64ZM100.571 8.84V5.48H99.2389V8.984C99.2389 10.304 99.9229 11.12 101.159 11.12C101.927 11.12 102.479 10.784 102.827 10.148V11H104.123V5.48H102.827V8.84C102.827 9.584 102.323 10.076 101.591 10.076C100.895 10.076 100.571 9.62 100.571 8.84ZM109.21 7.64V11H110.542V7.496C110.542 6.164 109.87 5.36 108.622 5.36C107.866 5.36 107.302 5.684 106.954 6.332V5.48H105.658V11H106.954V7.64C106.954 6.896 107.458 6.404 108.19 6.404C108.886 6.404 109.21 6.836 109.21 7.64ZM111.765 11.372C111.813 12.812 112.845 13.808 114.645 13.808C116.145 13.808 117.501 12.884 117.501 10.88V5.48H116.229V6.38C115.809 5.72 115.149 5.36 114.345 5.36C112.905 5.36 111.657 6.404 111.657 8.216C111.657 10.028 112.905 11.06 114.345 11.06C115.149 11.06 115.809 10.7 116.229 10.052V10.88C116.229 12.128 115.425 12.68 114.609 12.68C113.673 12.68 113.085 12.116 113.061 11.372H111.765ZM113.001 8.216C113.001 7.112 113.757 6.488 114.657 6.488C115.401 6.488 116.229 7.088 116.229 8.216C116.229 9.344 115.401 9.932 114.657 9.932C113.757 9.932 113.001 9.32 113.001 8.216ZM121.388 11.12C122.66 11.12 123.584 10.616 124.16 9.62L123.032 9.176C122.672 9.776 122.144 10.052 121.448 10.052C120.548 10.052 119.996 9.5 119.9 8.54H124.196C124.196 8.48 124.208 8.324 124.208 8.18C124.208 6.416 123.188 5.36 121.448 5.36C119.696 5.36 118.568 6.5 118.568 8.24C118.568 9.968 119.684 11.12 121.388 11.12ZM121.436 6.344C122.204 6.344 122.732 6.848 122.792 7.64H119.936C120.092 6.8 120.62 6.344 121.436 6.344ZM128.877 7.64V11H130.209V7.496C130.209 6.164 129.537 5.36 128.289 5.36C127.533 5.36 126.969 5.684 126.621 6.332V5.48H125.325V11H126.621V7.64C126.621 6.896 127.125 6.404 127.857 6.404C128.553 6.404 128.877 6.836 128.877 7.64Z" fill="#0F1938"/>
<line x1="11.5" y1="33" x2="11.5" y2="43" stroke="#0F1938"/>
<line x1="53.5" y1="33" x2="53.5" y2="43" stroke="#0F1938"/>
<line x1="32.5" y1="39" x2="32.5" y2="43" stroke="#0F1938"/>
<line x1="95.5" y1="33" x2="95.5" y2="43" stroke="#0F1938"/>
<line x1="74.5" y1="39" x2="74.5" y2="43" stroke="#0F1938"/>
<line x1="137.5" y1="33" x2="137.5" y2="43" stroke="#0F1938"/>
<line x1="116.5" y1="39" x2="116.5" y2="43" stroke="#0F1938"/>
<line x1="179.5" y1="33" x2="179.5" y2="43" stroke="#0F1938"/>
<line x1="158.5" y1="39" x2="158.5" y2="43" stroke="#0F1938"/>
<line x1="221.5" y1="33" x2="221.5" y2="43" stroke="#0F1938"/>
<line x1="200.5" y1="39" x2="200.5" y2="43" stroke="#0F1938"/>
<path d="M263 33V43" stroke="#0F1938"/>
<path d="M242 39V43" stroke="#0F1938"/>
<path d="M305 33V43" stroke="#0F1938"/>
<path d="M284 39V43" stroke="#0F1938"/>
<path d="M8.92156 26.2C8.92156 25.64 9.00956 25.144 9.18556 24.712C9.36156 24.28 9.60423 23.9413 9.91356 23.696C10.2282 23.4453 10.5909 23.32 11.0016 23.32C11.4122 23.32 11.7722 23.4453 12.0816 23.696C12.3962 23.9413 12.6416 24.28 12.8176 24.712C12.9936 25.144 13.0816 25.64 13.0816 26.2C13.0816 26.76 12.9936 27.256 12.8176 27.688C12.6416 28.12 12.3962 28.4613 12.0816 28.712C11.7722 28.9573 11.4122 29.08 11.0016 29.08C10.5909 29.08 10.2282 28.9573 9.91356 28.712C9.60423 28.4613 9.36156 28.12 9.18556 27.688C9.00956 27.256 8.92156 26.76 8.92156 26.2ZM9.60156 26.2C9.60156 26.632 9.65756 27.0187 9.76956 27.36C9.8869 27.696 10.0496 27.96 10.2576 28.152C10.4656 28.344 10.7136 28.44 11.0016 28.44C11.2896 28.44 11.5376 28.344 11.7456 28.152C11.9589 27.96 12.1216 27.696 12.2336 27.36C12.3456 27.0187 12.4016 26.632 12.4016 26.2C12.4016 25.7627 12.3456 25.376 12.2336 25.04C12.1216 24.704 11.9589 24.44 11.7456 24.248C11.5376 24.056 11.2896 23.96 11.0016 23.96C10.7136 23.96 10.4656 24.056 10.2576 24.248C10.0496 24.44 9.8869 24.704 9.76956 25.04C9.65756 25.376 9.60156 25.7627 9.60156 26.2Z" fill="#0F1938"/>
<path d="M47.2023 24.504V23.8L49.1223 23.32V29H48.4423V24.136L47.2023 24.504ZM50.3239 26.2C50.3239 25.64 50.4119 25.144 50.5879 24.712C50.7639 24.28 51.0066 23.9413 51.3159 23.696C51.6306 23.4453 51.9932 23.32 52.4039 23.32C52.8146 23.32 53.1746 23.4453 53.4839 23.696C53.7986 23.9413 54.0439 24.28 54.2199 24.712C54.3959 25.144 54.4839 25.64 54.4839 26.2C54.4839 26.76 54.3959 27.256 54.2199 27.688C54.0439 28.12 53.7986 28.4613 53.4839 28.712C53.1746 28.9573 52.8146 29.08 52.4039 29.08C51.9932 29.08 51.6306 28.9573 51.3159 28.712C51.0066 28.4613 50.7639 28.12 50.5879 27.688C50.4119 27.256 50.3239 26.76 50.3239 26.2ZM51.0039 26.2C51.0039 26.632 51.0599 27.0187 51.1719 27.36C51.2892 27.696 51.4519 27.96 51.6599 28.152C51.8679 28.344 52.1159 28.44 52.4039 28.44C52.6919 28.44 52.9399 28.344 53.1479 28.152C53.3612 27.96 53.5239 27.696 53.6359 27.36C53.7479 27.0187 53.8039 26.632 53.8039 26.2C53.8039 25.7627 53.7479 25.376 53.6359 25.04C53.5239 24.704 53.3612 24.44 53.1479 24.248C52.9399 24.056 52.6919 23.96 52.4039 23.96C52.1159 23.96 51.8679 24.056 51.6599 24.248C51.4519 24.44 51.2892 24.704 51.1719 25.04C51.0599 25.376 51.0039 25.7627 51.0039 26.2ZM54.9608 26.2C54.9608 25.64 55.0488 25.144 55.2248 24.712C55.4008 24.28 55.6434 23.9413 55.9528 23.696C56.2674 23.4453 56.6301 23.32 57.0408 23.32C57.4514 23.32 57.8114 23.4453 58.1208 23.696C58.4354 23.9413 58.6808 24.28 58.8568 24.712C59.0328 25.144 59.1208 25.64 59.1208 26.2C59.1208 26.76 59.0328 27.256 58.8568 27.688C58.6808 28.12 58.4354 28.4613 58.1208 28.712C57.8114 28.9573 57.4514 29.08 57.0408 29.08C56.6301 29.08 56.2674 28.9573 55.9528 28.712C55.6434 28.4613 55.4008 28.12 55.2248 27.688C55.0488 27.256 54.9608 26.76 54.9608 26.2ZM55.6408 26.2C55.6408 26.632 55.6968 27.0187 55.8088 27.36C55.9261 27.696 56.0888 27.96 56.2968 28.152C56.5048 28.344 56.7528 28.44 57.0408 28.44C57.3288 28.44 57.5768 28.344 57.7848 28.152C57.9981 27.96 58.1608 27.696 58.2728 27.36C58.3848 27.0187 58.4408 26.632 58.4408 26.2C58.4408 25.7627 58.3848 25.376 58.2728 25.04C58.1608 24.704 57.9981 24.44 57.7848 24.248C57.5768 24.056 57.3288 23.96 57.0408 23.96C56.7528 23.96 56.5048 24.056 56.2968 24.248C56.0888 24.44 55.9261 24.704 55.8088 25.04C55.6968 25.376 55.6408 25.7627 55.6408 26.2Z" fill="#0F1938"/>
<path d="M88.2458 29L90.8938 26.176C91.0804 25.9787 91.2244 25.7813 91.3258 25.584C91.4271 25.3867 91.4778 25.176 91.4778 24.952C91.4778 24.7867 91.4351 24.6293 91.3498 24.48C91.2644 24.3253 91.1418 24.2 90.9818 24.104C90.8218 24.0027 90.6271 23.952 90.3978 23.952C90.0404 23.952 89.7578 24.0747 89.5498 24.32C89.3471 24.56 89.2458 24.8933 89.2458 25.32H88.5658C88.5658 24.92 88.6378 24.5707 88.7818 24.272C88.9258 23.968 89.1338 23.7333 89.4058 23.568C89.6831 23.3973 90.0138 23.312 90.3978 23.312C90.7071 23.312 90.9738 23.3653 91.1978 23.472C91.4218 23.5733 91.6058 23.7067 91.7498 23.872C91.8938 24.032 92.0004 24.2053 92.0698 24.392C92.1391 24.5787 92.1738 24.7573 92.1738 24.928C92.1738 25.216 92.1044 25.5013 91.9658 25.784C91.8271 26.0667 91.6484 26.32 91.4298 26.544L89.6458 28.36H92.1978V29H88.2458ZM92.8005 26.2C92.8005 25.64 92.8885 25.144 93.0645 24.712C93.2405 24.28 93.4831 23.9413 93.7925 23.696C94.1071 23.4453 94.4698 23.32 94.8805 23.32C95.2911 23.32 95.6511 23.4453 95.9605 23.696C96.2751 23.9413 96.5205 24.28 96.6965 24.712C96.8725 25.144 96.9605 25.64 96.9605 26.2C96.9605 26.76 96.8725 27.256 96.6965 27.688C96.5205 28.12 96.2751 28.4613 95.9605 28.712C95.6511 28.9573 95.2911 29.08 94.8805 29.08C94.4698 29.08 94.1071 28.9573 93.7925 28.712C93.4831 28.4613 93.2405 28.12 93.0645 27.688C92.8885 27.256 92.8005 26.76 92.8005 26.2ZM93.4805 26.2C93.4805 26.632 93.5365 27.0187 93.6485 27.36C93.7658 27.696 93.9285 27.96 94.1365 28.152C94.3445 28.344 94.5925 28.44 94.8805 28.44C95.1685 28.44 95.4165 28.344 95.6245 28.152C95.8378 27.96 96.0005 27.696 96.1125 27.36C96.2245 27.0187 96.2805 26.632 96.2805 26.2C96.2805 25.7627 96.2245 25.376 96.1125 25.04C96.0005 24.704 95.8378 24.44 95.6245 24.248C95.4165 24.056 95.1685 23.96 94.8805 23.96C94.5925 23.96 94.3445 24.056 94.1365 24.248C93.9285 24.44 93.7658 24.704 93.6485 25.04C93.5365 25.376 93.4805 25.7627 93.4805 26.2ZM97.4373 26.2C97.4373 25.64 97.5253 25.144 97.7013 24.712C97.8773 24.28 98.12 23.9413 98.4293 23.696C98.744 23.4453 99.1067 23.32 99.5173 23.32C99.928 23.32 100.288 23.4453 100.597 23.696C100.912 23.9413 101.157 24.28 101.333 24.712C101.509 25.144 101.597 25.64 101.597 26.2C101.597 26.76 101.509 27.256 101.333 27.688C101.157 28.12 100.912 28.4613 100.597 28.712C100.288 28.9573 99.928 29.08 99.5173 29.08C99.1067 29.08 98.744 28.9573 98.4293 28.712C98.12 28.4613 97.8773 28.12 97.7013 27.688C97.5253 27.256 97.4373 26.76 97.4373 26.2ZM98.1173 26.2C98.1173 26.632 98.1733 27.0187 98.2853 27.36C98.4027 27.696 98.5653 27.96 98.7733 28.152C98.9813 28.344 99.2293 28.44 99.5173 28.44C99.8053 28.44 100.053 28.344 100.261 28.152C100.475 27.96 100.637 27.696 100.749 27.36C100.861 27.0187 100.917 26.632 100.917 26.2C100.917 25.7627 100.861 25.376 100.749 25.04C100.637 24.704 100.475 24.44 100.261 24.248C100.053 24.056 99.8053 23.96 99.5173 23.96C99.2293 23.96 98.9813 24.056 98.7733 24.248C98.5653 24.44 98.4027 24.704 98.2853 25.04C98.1733 25.376 98.1173 25.7627 98.1173 26.2Z" fill="#0F1938"/>
<path d="M133.444 29.08C133.086 29.08 132.772 29.0107 132.5 28.872C132.233 28.7333 132.025 28.5467 131.876 28.312C131.732 28.072 131.66 27.808 131.66 27.52H132.348C132.348 27.7813 132.449 28 132.652 28.176C132.86 28.352 133.124 28.44 133.444 28.44C133.764 28.44 134.017 28.3493 134.204 28.168C134.396 27.9867 134.492 27.744 134.492 27.44C134.492 27.0933 134.366 26.8347 134.116 26.664C133.87 26.488 133.566 26.4 133.204 26.4V25.8C133.566 25.8 133.844 25.704 134.036 25.512C134.233 25.32 134.332 25.0933 134.332 24.832C134.332 24.5653 134.26 24.3493 134.116 24.184C133.977 24.0187 133.766 23.936 133.484 23.936C133.222 23.936 133.001 24.0187 132.82 24.184C132.638 24.344 132.548 24.5467 132.548 24.792H131.9C131.9 24.4987 131.966 24.2427 132.1 24.024C132.238 23.8053 132.425 23.6347 132.66 23.512C132.9 23.384 133.172 23.32 133.476 23.32C133.796 23.32 134.07 23.3893 134.3 23.528C134.534 23.6667 134.713 23.848 134.836 24.072C134.964 24.296 135.028 24.5413 135.028 24.808C135.028 25.0853 134.942 25.336 134.772 25.56C134.601 25.784 134.369 25.9573 134.076 26.08C134.406 26.176 134.673 26.3413 134.876 26.576C135.084 26.8107 135.188 27.1253 135.188 27.52C135.188 27.8347 135.11 28.1093 134.956 28.344C134.806 28.5787 134.601 28.76 134.34 28.888C134.078 29.016 133.78 29.08 133.444 29.08ZM135.707 26.2C135.707 25.64 135.795 25.144 135.971 24.712C136.147 24.28 136.389 23.9413 136.699 23.696C137.013 23.4453 137.376 23.32 137.787 23.32C138.197 23.32 138.557 23.4453 138.867 23.696C139.181 23.9413 139.427 24.28 139.603 24.712C139.779 25.144 139.867 25.64 139.867 26.2C139.867 26.76 139.779 27.256 139.603 27.688C139.427 28.12 139.181 28.4613 138.867 28.712C138.557 28.9573 138.197 29.08 137.787 29.08C137.376 29.08 137.013 28.9573 136.699 28.712C136.389 28.4613 136.147 28.12 135.971 27.688C135.795 27.256 135.707 26.76 135.707 26.2ZM136.387 26.2C136.387 26.632 136.443 27.0187 136.555 27.36C136.672 27.696 136.835 27.96 137.043 28.152C137.251 28.344 137.499 28.44 137.787 28.44C138.075 28.44 138.323 28.344 138.531 28.152C138.744 27.96 138.907 27.696 139.019 27.36C139.131 27.0187 139.187 26.632 139.187 26.2C139.187 25.7627 139.131 25.376 139.019 25.04C138.907 24.704 138.744 24.44 138.531 24.248C138.323 24.056 138.075 23.96 137.787 23.96C137.499 23.96 137.251 24.056 137.043 24.248C136.835 24.44 136.672 24.704 136.555 25.04C136.443 25.376 136.387 25.7627 136.387 26.2ZM140.344 26.2C140.344 25.64 140.432 25.144 140.608 24.712C140.784 24.28 141.026 23.9413 141.336 23.696C141.65 23.4453 142.013 23.32 142.424 23.32C142.834 23.32 143.194 23.4453 143.504 23.696C143.818 23.9413 144.064 24.28 144.24 24.712C144.416 25.144 144.504 25.64 144.504 26.2C144.504 26.76 144.416 27.256 144.24 27.688C144.064 28.12 143.818 28.4613 143.504 28.712C143.194 28.9573 142.834 29.08 142.424 29.08C142.013 29.08 141.65 28.9573 141.336 28.712C141.026 28.4613 140.784 28.12 140.608 27.688C140.432 27.256 140.344 26.76 140.344 26.2ZM141.024 26.2C141.024 26.632 141.08 27.0187 141.192 27.36C141.309 27.696 141.472 27.96 141.68 28.152C141.888 28.344 142.136 28.44 142.424 28.44C142.712 28.44 142.96 28.344 143.168 28.152C143.381 27.96 143.544 27.696 143.656 27.36C143.768 27.0187 143.824 26.632 143.824 26.2C143.824 25.7627 143.768 25.376 143.656 25.04C143.544 24.704 143.381 24.44 143.168 24.248C142.96 24.056 142.712 23.96 142.424 23.96C142.136 23.96 141.888 24.056 141.68 24.248C141.472 24.44 141.309 24.704 141.192 25.04C141.08 25.376 141.024 25.7627 141.024 26.2Z" fill="#0F1938"/>
<path d="M172.191 27.88L175.295 23.4H175.575V27.28H176.455V27.88H175.575V29H174.895V27.88H172.191ZM173.311 27.28H174.895V24.912L173.311 27.28ZM176.855 26.2C176.855 25.64 176.943 25.144 177.119 24.712C177.295 24.28 177.538 23.9413 177.847 23.696C178.162 23.4453 178.524 23.32 178.935 23.32C179.346 23.32 179.706 23.4453 180.015 23.696C180.33 23.9413 180.575 24.28 180.751 24.712C180.927 25.144 181.015 25.64 181.015 26.2C181.015 26.76 180.927 27.256 180.751 27.688C180.575 28.12 180.33 28.4613 180.015 28.712C179.706 28.9573 179.346 29.08 178.935 29.08C178.524 29.08 178.162 28.9573 177.847 28.712C177.538 28.4613 177.295 28.12 177.119 27.688C176.943 27.256 176.855 26.76 176.855 26.2ZM177.535 26.2C177.535 26.632 177.591 27.0187 177.703 27.36C177.82 27.696 177.983 27.96 178.191 28.152C178.399 28.344 178.647 28.44 178.935 28.44C179.223 28.44 179.471 28.344 179.679 28.152C179.892 27.96 180.055 27.696 180.167 27.36C180.279 27.0187 180.335 26.632 180.335 26.2C180.335 25.7627 180.279 25.376 180.167 25.04C180.055 24.704 179.892 24.44 179.679 24.248C179.471 24.056 179.223 23.96 178.935 23.96C178.647 23.96 178.399 24.056 178.191 24.248C177.983 24.44 177.82 24.704 177.703 25.04C177.591 25.376 177.535 25.7627 177.535 26.2ZM181.492 26.2C181.492 25.64 181.58 25.144 181.756 24.712C181.932 24.28 182.175 23.9413 182.484 23.696C182.799 23.4453 183.161 23.32 183.572 23.32C183.983 23.32 184.343 23.4453 184.652 23.696C184.967 23.9413 185.212 24.28 185.388 24.712C185.564 25.144 185.652 25.64 185.652 26.2C185.652 26.76 185.564 27.256 185.388 27.688C185.212 28.12 184.967 28.4613 184.652 28.712C184.343 28.9573 183.983 29.08 183.572 29.08C183.161 29.08 182.799 28.9573 182.484 28.712C182.175 28.4613 181.932 28.12 181.756 27.688C181.58 27.256 181.492 26.76 181.492 26.2ZM182.172 26.2C182.172 26.632 182.228 27.0187 182.34 27.36C182.457 27.696 182.62 27.96 182.828 28.152C183.036 28.344 183.284 28.44 183.572 28.44C183.86 28.44 184.108 28.344 184.316 28.152C184.529 27.96 184.692 27.696 184.804 27.36C184.916 27.0187 184.972 26.632 184.972 26.2C184.972 25.7627 184.916 25.376 184.804 25.04C184.692 24.704 184.529 24.44 184.316 24.248C184.108 24.056 183.86 23.96 183.572 23.96C183.284 23.96 183.036 24.056 182.828 24.248C182.62 24.44 182.457 24.704 182.34 25.04C182.228 25.376 182.172 25.7627 182.172 26.2Z" fill="#0F1938"/>
<path d="M218.297 27.16C218.297 27.5813 218.209 27.936 218.033 28.224C217.857 28.5067 217.62 28.72 217.321 28.864C217.028 29.008 216.7 29.08 216.337 29.08C215.996 29.08 215.697 29.0267 215.441 28.92C215.191 28.8133 214.975 28.672 214.793 28.496C214.617 28.3147 214.468 28.1173 214.345 27.904L214.921 27.512C215.007 27.672 215.119 27.824 215.257 27.968C215.401 28.1067 215.567 28.2213 215.753 28.312C215.94 28.3973 216.135 28.44 216.337 28.44C216.737 28.44 217.047 28.3227 217.265 28.088C217.484 27.8533 217.593 27.544 217.593 27.16C217.593 26.904 217.537 26.68 217.425 26.488C217.319 26.296 217.169 26.1467 216.977 26.04C216.791 25.9333 216.577 25.88 216.337 25.88C216.161 25.88 215.999 25.896 215.849 25.928C215.705 25.9547 215.559 26.0053 215.409 26.08C215.265 26.1493 215.097 26.2507 214.905 26.384L215.641 23.4H218.281V24H216.169L215.793 25.48C216.06 25.3413 216.337 25.272 216.625 25.272C216.945 25.272 217.231 25.352 217.481 25.512C217.737 25.672 217.937 25.8933 218.081 26.176C218.225 26.4587 218.297 26.7867 218.297 27.16ZM218.781 26.2C218.781 25.64 218.869 25.144 219.045 24.712C219.221 24.28 219.464 23.9413 219.773 23.696C220.088 23.4453 220.45 23.32 220.861 23.32C221.272 23.32 221.632 23.4453 221.941 23.696C222.256 23.9413 222.501 24.28 222.677 24.712C222.853 25.144 222.941 25.64 222.941 26.2C222.941 26.76 222.853 27.256 222.677 27.688C222.501 28.12 222.256 28.4613 221.941 28.712C221.632 28.9573 221.272 29.08 220.861 29.08C220.45 29.08 220.088 28.9573 219.773 28.712C219.464 28.4613 219.221 28.12 219.045 27.688C218.869 27.256 218.781 26.76 218.781 26.2ZM219.461 26.2C219.461 26.632 219.517 27.0187 219.629 27.36C219.746 27.696 219.909 27.96 220.117 28.152C220.325 28.344 220.573 28.44 220.861 28.44C221.149 28.44 221.397 28.344 221.605 28.152C221.818 27.96 221.981 27.696 222.093 27.36C222.205 27.0187 222.261 26.632 222.261 26.2C222.261 25.7627 222.205 25.376 222.093 25.04C221.981 24.704 221.818 24.44 221.605 24.248C221.397 24.056 221.149 23.96 220.861 23.96C220.573 23.96 220.325 24.056 220.117 24.248C219.909 24.44 219.746 24.704 219.629 25.04C219.517 25.376 219.461 25.7627 219.461 26.2ZM223.418 26.2C223.418 25.64 223.506 25.144 223.682 24.712C223.858 24.28 224.1 23.9413 224.41 23.696C224.724 23.4453 225.087 23.32 225.498 23.32C225.908 23.32 226.268 23.4453 226.578 23.696C226.892 23.9413 227.138 24.28 227.314 24.712C227.49 25.144 227.578 25.64 227.578 26.2C227.578 26.76 227.49 27.256 227.314 27.688C227.138 28.12 226.892 28.4613 226.578 28.712C226.268 28.9573 225.908 29.08 225.498 29.08C225.087 29.08 224.724 28.9573 224.41 28.712C224.1 28.4613 223.858 28.12 223.682 27.688C223.506 27.256 223.418 26.76 223.418 26.2ZM224.098 26.2C224.098 26.632 224.154 27.0187 224.266 27.36C224.383 27.696 224.546 27.96 224.754 28.152C224.962 28.344 225.21 28.44 225.498 28.44C225.786 28.44 226.034 28.344 226.242 28.152C226.455 27.96 226.618 27.696 226.73 27.36C226.842 27.0187 226.898 26.632 226.898 26.2C226.898 25.7627 226.842 25.376 226.73 25.04C226.618 24.704 226.455 24.44 226.242 24.248C226.034 24.056 225.786 23.96 225.498 23.96C225.21 23.96 224.962 24.056 224.754 24.248C224.546 24.44 224.383 24.704 224.266 25.04C224.154 25.376 224.098 25.7627 224.098 26.2Z" fill="#0F1938"/>
<path d="M258.698 23.4H259.554L257.978 25.48C258.069 25.4267 258.165 25.392 258.266 25.376C258.373 25.3547 258.488 25.344 258.61 25.344C258.914 25.344 259.192 25.424 259.442 25.584C259.693 25.744 259.893 25.96 260.042 26.232C260.192 26.504 260.266 26.8133 260.266 27.16C260.266 27.544 260.181 27.88 260.01 28.168C259.845 28.456 259.618 28.68 259.33 28.84C259.048 29 258.725 29.08 258.362 29.08C258.005 29.08 257.682 29 257.394 28.84C257.106 28.68 256.877 28.456 256.706 28.168C256.541 27.88 256.458 27.544 256.458 27.16C256.458 26.9307 256.49 26.7173 256.554 26.52C256.618 26.3227 256.704 26.1493 256.81 26L258.698 23.4ZM257.106 27.16C257.106 27.416 257.16 27.6427 257.266 27.84C257.378 28.032 257.528 28.184 257.714 28.296C257.906 28.408 258.122 28.464 258.362 28.464C258.602 28.464 258.816 28.408 259.002 28.296C259.194 28.184 259.344 28.032 259.45 27.84C259.562 27.6427 259.618 27.416 259.618 27.16C259.618 26.904 259.562 26.6773 259.45 26.48C259.344 26.2773 259.194 26.12 259.002 26.008C258.816 25.896 258.602 25.84 258.362 25.84C258.122 25.84 257.906 25.896 257.714 26.008C257.528 26.12 257.378 26.2773 257.266 26.48C257.16 26.6773 257.106 26.904 257.106 27.16ZM260.828 26.2C260.828 25.64 260.916 25.144 261.092 24.712C261.268 24.28 261.51 23.9413 261.82 23.696C262.134 23.4453 262.497 23.32 262.908 23.32C263.318 23.32 263.678 23.4453 263.988 23.696C264.302 23.9413 264.548 24.28 264.724 24.712C264.9 25.144 264.988 25.64 264.988 26.2C264.988 26.76 264.9 27.256 264.724 27.688C264.548 28.12 264.302 28.4613 263.988 28.712C263.678 28.9573 263.318 29.08 262.908 29.08C262.497 29.08 262.134 28.9573 261.82 28.712C261.51 28.4613 261.268 28.12 261.092 27.688C260.916 27.256 260.828 26.76 260.828 26.2ZM261.508 26.2C261.508 26.632 261.564 27.0187 261.676 27.36C261.793 27.696 261.956 27.96 262.164 28.152C262.372 28.344 262.62 28.44 262.908 28.44C263.196 28.44 263.444 28.344 263.652 28.152C263.865 27.96 264.028 27.696 264.14 27.36C264.252 27.0187 264.308 26.632 264.308 26.2C264.308 25.7627 264.252 25.376 264.14 25.04C264.028 24.704 263.865 24.44 263.652 24.248C263.444 24.056 263.196 23.96 262.908 23.96C262.62 23.96 262.372 24.056 262.164 24.248C261.956 24.44 261.793 24.704 261.676 25.04C261.564 25.376 261.508 25.7627 261.508 26.2ZM265.465 26.2C265.465 25.64 265.553 25.144 265.729 24.712C265.905 24.28 266.147 23.9413 266.457 23.696C266.771 23.4453 267.134 23.32 267.545 23.32C267.955 23.32 268.315 23.4453 268.625 23.696C268.939 23.9413 269.185 24.28 269.361 24.712C269.537 25.144 269.625 25.64 269.625 26.2C269.625 26.76 269.537 27.256 269.361 27.688C269.185 28.12 268.939 28.4613 268.625 28.712C268.315 28.9573 267.955 29.08 267.545 29.08C267.134 29.08 266.771 28.9573 266.457 28.712C266.147 28.4613 265.905 28.12 265.729 27.688C265.553 27.256 265.465 26.76 265.465 26.2ZM266.145 26.2C266.145 26.632 266.201 27.0187 266.313 27.36C266.43 27.696 266.593 27.96 266.801 28.152C267.009 28.344 267.257 28.44 267.545 28.44C267.833 28.44 268.081 28.344 268.289 28.152C268.502 27.96 268.665 27.696 268.777 27.36C268.889 27.0187 268.945 26.632 268.945 26.2C268.945 25.7627 268.889 25.376 268.777 25.04C268.665 24.704 268.502 24.44 268.289 24.248C268.081 24.056 267.833 23.96 267.545 23.96C267.257 23.96 267.009 24.056 266.801 24.248C266.593 24.44 266.43 24.704 266.313 25.04C266.201 25.376 266.145 25.7627 266.145 26.2Z" fill="#0F1938"/>
<path d="M298.502 24.04V23.4H302.422L299.742 29H299.03L301.406 24.04H298.502ZM302.625 26.2C302.625 25.64 302.713 25.144 302.889 24.712C303.065 24.28 303.307 23.9413 303.617 23.696C303.931 23.4453 304.294 23.32 304.705 23.32C305.115 23.32 305.475 23.4453 305.785 23.696C306.099 23.9413 306.345 24.28 306.521 24.712C306.697 25.144 306.785 25.64 306.785 26.2C306.785 26.76 306.697 27.256 306.521 27.688C306.345 28.12 306.099 28.4613 305.785 28.712C305.475 28.9573 305.115 29.08 304.705 29.08C304.294 29.08 303.931 28.9573 303.617 28.712C303.307 28.4613 303.065 28.12 302.889 27.688C302.713 27.256 302.625 26.76 302.625 26.2ZM303.305 26.2C303.305 26.632 303.361 27.0187 303.473 27.36C303.59 27.696 303.753 27.96 303.961 28.152C304.169 28.344 304.417 28.44 304.705 28.44C304.993 28.44 305.241 28.344 305.449 28.152C305.662 27.96 305.825 27.696 305.937 27.36C306.049 27.0187 306.105 26.632 306.105 26.2C306.105 25.7627 306.049 25.376 305.937 25.04C305.825 24.704 305.662 24.44 305.449 24.248C305.241 24.056 304.993 23.96 304.705 23.96C304.417 23.96 304.169 24.056 303.961 24.248C303.753 24.44 303.59 24.704 303.473 25.04C303.361 25.376 303.305 25.7627 303.305 26.2ZM307.262 26.2C307.262 25.64 307.35 25.144 307.526 24.712C307.702 24.28 307.944 23.9413 308.254 23.696C308.568 23.4453 308.931 23.32 309.342 23.32C309.752 23.32 310.112 23.4453 310.422 23.696C310.736 23.9413 310.982 24.28 311.158 24.712C311.334 25.144 311.422 25.64 311.422 26.2C311.422 26.76 311.334 27.256 311.158 27.688C310.982 28.12 310.736 28.4613 310.422 28.712C310.112 28.9573 309.752 29.08 309.342 29.08C308.931 29.08 308.568 28.9573 308.254 28.712C307.944 28.4613 307.702 28.12 307.526 27.688C307.35 27.256 307.262 26.76 307.262 26.2ZM307.942 26.2C307.942 26.632 307.998 27.0187 308.11 27.36C308.227 27.696 308.39 27.96 308.598 28.152C308.806 28.344 309.054 28.44 309.342 28.44C309.63 28.44 309.878 28.344 310.086 28.152C310.299 27.96 310.462 27.696 310.574 27.36C310.686 27.0187 310.742 26.632 310.742 26.2C310.742 25.7627 310.686 25.376 310.574 25.04C310.462 24.704 310.299 24.44 310.086 24.248C309.878 24.056 309.63 23.96 309.342 23.96C309.054 23.96 308.806 24.056 308.598 24.248C308.39 24.44 308.227 24.704 308.11 25.04C307.998 25.376 307.942 25.7627 307.942 26.2Z" fill="#0F1938"/>
<path d="M265.5 111L265.5 85" stroke="#0F1938"/>
<path d="M155.5 111L155.5 88" stroke="#0F1938"/>
</svg>
