<svg width="316" height="183" viewBox="0 0 316 183" fill="none" xmlns="http://www.w3.org/2000/svg">
<rect x="10" y="74" width="265" height="12" fill="#3BA6FF"/>
<path d="M260.632 77.408L258.856 79.792C258.576 80.152 258.384 80.592 258.384 81.112C258.384 82.352 259.288 83.096 260.44 83.096C261.592 83.096 262.496 82.352 262.496 81.112C262.496 80.04 261.688 79.296 260.808 79.296C260.576 79.296 260.392 79.32 260.224 79.4L261.832 77.408H260.632ZM259.304 81.112C259.304 80.424 259.792 79.936 260.44 79.936C261.088 79.936 261.568 80.424 261.568 81.112C261.568 81.8 261.088 82.272 260.44 82.272C259.792 82.272 259.304 81.8 259.304 81.112ZM265.106 83.096C266.258 83.096 267.026 82.464 267.026 81.504C267.026 80.744 266.578 80.28 265.906 80.064C266.49 79.832 266.866 79.392 266.866 78.824C266.866 78 266.226 77.312 265.146 77.312C264.114 77.312 263.41 77.968 263.41 78.888H264.298C264.298 78.44 264.674 78.112 265.154 78.112C265.658 78.112 265.914 78.424 265.914 78.872C265.914 79.352 265.506 79.752 264.826 79.752V80.464C265.586 80.464 266.074 80.8 266.074 81.4C266.074 81.96 265.69 82.28 265.122 82.28C264.554 82.28 264.122 81.936 264.122 81.4H263.17C263.17 82.32 263.914 83.096 265.106 83.096ZM267.34 83H271.612V82.12H269.188L270.772 80.56C271.228 80.128 271.54 79.568 271.54 78.984C271.54 78.24 270.924 77.304 269.628 77.304C268.348 77.304 267.644 78.192 267.644 79.384H268.58C268.58 78.632 268.972 78.152 269.612 78.152C270.228 78.152 270.564 78.592 270.564 79.032C270.564 79.48 270.324 79.848 269.924 80.272L267.34 83Z" fill="#0F1938"/>
<path d="M17.068 58.6V64.24L10.936 58.18V67H12.328V61.36L18.46 67.42V58.6H17.068ZM20.5027 62.92C20.7427 62.752 21.3907 62.404 22.1827 62.404C22.8667 62.404 23.3587 62.644 23.3587 63.316V63.988C23.0107 63.796 22.4827 63.604 21.7627 63.604C20.3947 63.604 19.6027 64.288 19.6027 65.356C19.6027 66.484 20.4907 67.12 21.5347 67.12C22.2427 67.12 23.0107 66.832 23.3587 66.244V67H24.6307V63.064C24.6307 61.972 23.6587 61.348 22.3027 61.348C21.2707 61.348 20.4787 61.708 19.9747 62.008L20.5027 62.92ZM20.9107 65.284C20.9107 64.768 21.2587 64.456 22.0747 64.456C22.5427 64.456 22.9627 64.54 23.3587 64.732V64.816C23.3587 65.656 22.7107 66.148 21.9427 66.148C21.3427 66.148 20.9107 65.836 20.9107 65.284ZM33.9176 63.496C33.9176 62.14 33.3536 61.36 32.1656 61.36C31.4216 61.36 30.8216 61.708 30.4376 62.344C30.1976 61.708 29.6456 61.36 28.8416 61.36C28.1336 61.36 27.6176 61.672 27.2936 62.284V61.48H26.0216V67H27.2936V63.64C27.2936 62.848 27.7136 62.404 28.3856 62.404C29.0096 62.404 29.2976 62.812 29.2976 63.64V67H30.6056V63.64C30.6056 62.848 31.0376 62.404 31.7096 62.404C32.3336 62.404 32.6216 62.812 32.6216 63.64V67H33.9176V63.496ZM37.8524 67.12C39.1244 67.12 40.0484 66.616 40.6244 65.62L39.4964 65.176C39.1364 65.776 38.6084 66.052 37.9124 66.052C37.0124 66.052 36.4604 65.5 36.3644 64.54H40.6604C40.6604 64.48 40.6724 64.324 40.6724 64.18C40.6724 62.416 39.6524 61.36 37.9124 61.36C36.1604 61.36 35.0324 62.5 35.0324 64.24C35.0324 65.968 36.1484 67.12 37.8524 67.12ZM37.9004 62.344C38.6684 62.344 39.1964 62.848 39.2564 63.64H36.4004C36.5564 62.8 37.0844 62.344 37.9004 62.344ZM44.8471 64.24C44.8471 65.932 46.1311 67.12 47.8231 67.12C49.5151 67.12 50.7991 65.932 50.7991 64.24C50.7991 62.548 49.5151 61.36 47.8231 61.36C46.1311 61.36 44.8471 62.548 44.8471 64.24ZM46.1791 64.24C46.1791 63.208 46.8871 62.5 47.8231 62.5C48.7591 62.5 49.4671 63.208 49.4671 64.24C49.4671 65.272 48.7591 65.98 47.8231 65.98C46.8871 65.98 46.1791 65.272 46.1791 64.24ZM51.4528 61.48V62.62H52.0528V67H53.3248V62.62H54.6208V61.48H53.3248V59.692C53.3248 58.996 53.5408 58.72 53.9008 58.72C54.1048 58.72 54.3208 58.78 54.4888 59.032L55.0888 58.024C54.8848 57.784 54.4768 57.496 53.8408 57.496C52.6888 57.496 52.0528 58.156 52.0528 59.44V61.48H51.4528ZM58.2016 61.48V62.62H59.1256V67H60.4096V62.62H61.3336V61.48H60.4096V59.56H59.1256V61.48H58.2016ZM65.6594 63.64V67H66.9674V63.46C66.9674 62.056 66.3074 61.324 65.0714 61.324C64.3034 61.324 63.7274 61.708 63.4034 62.308V57.64H62.1074V67H63.4034V63.64C63.4034 62.908 63.9074 62.404 64.6394 62.404C65.3474 62.404 65.6594 62.836 65.6594 63.64ZM70.8913 67.12C72.1633 67.12 73.0873 66.616 73.6633 65.62L72.5353 65.176C72.1753 65.776 71.6473 66.052 70.9513 66.052C70.0513 66.052 69.4993 65.5 69.4033 64.54H73.6993C73.6993 64.48 73.7113 64.324 73.7113 64.18C73.7113 62.416 72.6913 61.36 70.9513 61.36C69.1993 61.36 68.0713 62.5 68.0713 64.24C68.0713 65.968 69.1873 67.12 70.8913 67.12ZM70.9393 62.344C71.7073 62.344 72.2353 62.848 72.2953 63.64H69.4393C69.5953 62.8 70.1233 62.344 70.9393 62.344ZM79.566 69.64V66.076C79.962 66.76 80.622 67.144 81.45 67.144C82.89 67.144 84.138 66.088 84.138 64.24C84.138 62.392 82.89 61.336 81.45 61.336C80.622 61.336 79.962 61.72 79.566 62.404V61.48H78.258V69.64H79.566ZM82.794 64.24C82.794 65.344 82.038 65.968 81.138 65.968C80.394 65.968 79.566 65.368 79.566 64.24C79.566 63.112 80.394 62.512 81.138 62.512C82.038 62.512 82.794 63.136 82.794 64.24ZM86.5727 64.84V61.48H85.2407V64.984C85.2407 66.304 85.9247 67.12 87.1607 67.12C87.9287 67.12 88.4807 66.784 88.8287 66.148V67H90.1247V61.48H88.8287V64.84C88.8287 65.584 88.3247 66.076 87.5927 66.076C86.8967 66.076 86.5727 65.62 86.5727 64.84ZM94.5877 62.872L95.2237 61.768C94.9717 61.48 94.5997 61.36 94.2037 61.36C93.7357 61.36 93.2677 61.66 92.9437 62.152V61.48H91.6597V67H92.9437V63.892C92.9437 63.1 93.2077 62.572 93.8557 62.572C94.1677 62.572 94.3477 62.68 94.5877 62.872ZM97.2411 69.64V66.076C97.6371 66.76 98.2971 67.144 99.1251 67.144C100.565 67.144 101.813 66.088 101.813 64.24C101.813 62.392 100.565 61.336 99.1251 61.336C98.2971 61.336 97.6371 61.72 97.2411 62.404V61.48H95.9331V69.64H97.2411ZM100.469 64.24C100.469 65.344 99.7131 65.968 98.8131 65.968C98.0691 65.968 97.2411 65.368 97.2411 64.24C97.2411 63.112 98.0691 62.512 98.8131 62.512C99.7131 62.512 100.469 63.136 100.469 64.24ZM102.496 64.24C102.496 65.932 103.78 67.12 105.472 67.12C107.164 67.12 108.448 65.932 108.448 64.24C108.448 62.548 107.164 61.36 105.472 61.36C103.78 61.36 102.496 62.548 102.496 64.24ZM103.828 64.24C103.828 63.208 104.536 62.5 105.472 62.5C106.408 62.5 107.116 63.208 107.116 64.24C107.116 65.272 106.408 65.98 105.472 65.98C104.536 65.98 103.828 65.272 103.828 64.24ZM109.81 65.188L109.054 65.944C109.534 66.58 110.386 67.168 111.526 67.168C112.726 67.168 113.494 66.484 113.494 65.44C113.494 64.444 112.714 64.084 111.802 63.712C111.118 63.448 110.602 63.256 110.602 62.836C110.602 62.536 110.866 62.368 111.238 62.368C111.778 62.368 112.33 62.68 112.69 63.1L113.41 62.332C112.954 61.78 112.174 61.36 111.274 61.36C110.254 61.36 109.378 61.864 109.378 62.86C109.378 63.868 110.194 64.264 110.95 64.54C111.682 64.804 112.186 65.032 112.186 65.512C112.186 65.872 111.91 66.1 111.442 66.1C110.878 66.1 110.35 65.776 109.81 65.188ZM116.923 67.12C118.195 67.12 119.119 66.616 119.695 65.62L118.567 65.176C118.207 65.776 117.679 66.052 116.983 66.052C116.083 66.052 115.531 65.5 115.435 64.54H119.731C119.731 64.48 119.743 64.324 119.743 64.18C119.743 62.416 118.723 61.36 116.983 61.36C115.231 61.36 114.103 62.5 114.103 64.24C114.103 65.968 115.219 67.12 116.923 67.12ZM116.971 62.344C117.739 62.344 118.267 62.848 118.327 63.64H115.471C115.627 62.8 116.155 62.344 116.971 62.344Z" fill="#0F1938"/>
<path d="M131.5 65.8359C131.031 65.8359 130.68 66.2168 130.68 66.6562C130.68 67.125 131.031 67.4766 131.5 67.4766C131.939 67.4766 132.32 67.125 132.32 66.6562C132.32 66.2168 131.939 65.8359 131.5 65.8359ZM131.705 65.1328C131.91 65.1328 132.057 64.9863 132.057 64.7812C132.057 63.5215 134.342 63.6094 134.342 61.6465C134.342 60.1523 132.994 59.2734 131.471 59.2734C130.152 59.2734 129.42 59.8008 128.805 60.5918C128.688 60.7676 128.717 60.9727 128.893 61.0898L129.273 61.3828C129.42 61.4707 129.625 61.4414 129.742 61.2949C130.182 60.7383 130.621 60.4453 131.471 60.4453C132.643 60.4453 133.17 61.0605 133.17 61.6465C133.17 62.9062 130.885 62.7305 130.885 64.7812C130.885 64.9863 131.061 65.1328 131.236 65.1328H131.705ZM131.5 57.0469C134.957 57.0469 137.828 59.8887 137.828 63.375C137.828 66.8906 134.986 69.7031 131.5 69.7031C127.984 69.7031 125.172 66.8906 125.172 63.375C125.172 59.8887 127.984 57.0469 131.5 57.0469ZM131.5 56.1094C127.486 56.1094 124.234 59.3906 124.234 63.375C124.234 67.3887 127.486 70.6406 131.5 70.6406C135.484 70.6406 138.766 67.3887 138.766 63.375C138.766 59.3906 135.484 56.1094 131.5 56.1094Z" fill="#0F1938"/>
<path d="M245.32 115.6V121.852L238.96 115.18V124H239.98V117.748L246.34 124.42V115.6H245.32ZM249.045 121.84V118.48H248.085V121.96C248.085 123.28 248.829 124.12 249.981 124.12C250.713 124.12 251.253 123.796 251.625 123.136V124H252.585V118.48H251.625V121.84C251.625 122.656 251.061 123.22 250.221 123.22C249.453 123.22 249.045 122.728 249.045 121.84ZM261.829 120.52C261.829 119.152 261.181 118.36 260.053 118.36C259.309 118.36 258.733 118.708 258.349 119.392C258.097 118.732 257.521 118.36 256.753 118.36C256.069 118.36 255.565 118.66 255.229 119.284V118.48H254.269V124H255.229V120.64C255.229 119.776 255.721 119.26 256.513 119.26C257.233 119.26 257.569 119.692 257.569 120.64V124H258.529V120.64C258.529 119.776 259.021 119.26 259.813 119.26C260.533 119.26 260.869 119.692 260.869 120.64V124H261.829V120.52ZM269.033 121.24C269.033 119.452 267.797 118.36 266.297 118.36C265.481 118.36 264.821 118.744 264.413 119.428V114.64H263.453V124H264.413V123.052C264.821 123.736 265.481 124.12 266.297 124.12C267.797 124.12 269.033 123.028 269.033 121.24ZM268.061 121.24C268.061 122.512 267.197 123.22 266.177 123.22C265.337 123.22 264.413 122.512 264.413 121.24C264.413 119.968 265.337 119.26 266.177 119.26C267.197 119.26 268.061 119.968 268.061 121.24ZM272.372 124.12C273.548 124.12 274.424 123.652 275 122.716L274.22 122.224C273.812 122.896 273.236 123.22 272.492 123.22C271.46 123.22 270.824 122.596 270.74 121.48H275.084C275.084 121.456 275.096 121.312 275.096 121.192C275.096 119.44 274.112 118.36 272.492 118.36C270.86 118.36 269.756 119.524 269.756 121.24C269.756 122.944 270.824 124.12 272.372 124.12ZM272.492 119.2C273.38 119.2 273.98 119.776 274.052 120.664H270.776C270.944 119.728 271.544 119.2 272.492 119.2ZM278.92 119.536L279.448 118.744C279.16 118.444 278.812 118.36 278.416 118.36C277.996 118.36 277.564 118.648 277.252 119.116V118.48H276.292V124H277.252V120.64C277.252 119.848 277.456 119.26 278.176 119.26C278.488 119.26 278.656 119.344 278.92 119.536ZM283.283 121.24C283.283 122.908 284.519 124.12 286.139 124.12C287.759 124.12 288.995 122.908 288.995 121.24C288.995 119.572 287.759 118.36 286.139 118.36C284.519 118.36 283.283 119.572 283.283 121.24ZM284.255 121.24C284.255 120.088 285.059 119.26 286.139 119.26C287.219 119.26 288.023 120.088 288.023 121.24C288.023 122.392 287.219 123.22 286.139 123.22C285.059 123.22 284.255 122.392 284.255 121.24ZM289.774 118.48V119.38H290.314V124H291.274V119.38H292.534V118.48H291.274V116.56C291.274 115.768 291.49 115.48 291.85 115.48C292.042 115.48 292.27 115.516 292.438 115.792L292.966 115C292.786 114.76 292.426 114.52 291.91 114.52C290.902 114.52 290.314 115.132 290.314 116.44V118.48H289.774ZM238.06 132.48V133.38H238.96V138H239.92V133.38H240.82V132.48H239.92V130.56H238.96V132.48H238.06ZM241.663 130.2C241.663 130.56 241.963 130.86 242.323 130.86C242.683 130.86 242.983 130.56 242.983 130.2C242.983 129.84 242.683 129.54 242.323 129.54C241.963 129.54 241.663 129.84 241.663 130.2ZM241.843 132.48V138H242.803V132.48H241.843ZM252.22 134.52C252.22 133.152 251.572 132.36 250.444 132.36C249.7 132.36 249.124 132.708 248.74 133.392C248.488 132.732 247.912 132.36 247.144 132.36C246.46 132.36 245.956 132.66 245.62 133.284V132.48H244.66V138H245.62V134.64C245.62 133.776 246.112 133.26 246.904 133.26C247.624 133.26 247.96 133.692 247.96 134.64V138H248.92V134.64C248.92 133.776 249.412 133.26 250.204 133.26C250.924 133.26 251.26 133.692 251.26 134.64V138H252.22V134.52ZM256.039 138.12C257.215 138.12 258.091 137.652 258.667 136.716L257.887 136.224C257.479 136.896 256.903 137.22 256.159 137.22C255.127 137.22 254.491 136.596 254.407 135.48H258.751C258.751 135.456 258.763 135.312 258.763 135.192C258.763 133.44 257.779 132.36 256.159 132.36C254.527 132.36 253.423 133.524 253.423 135.24C253.423 136.944 254.491 138.12 256.039 138.12ZM256.159 133.2C257.047 133.2 257.647 133.776 257.719 134.664H254.443C254.611 133.728 255.211 133.2 256.159 133.2ZM260.187 136.308L259.431 136.776C259.731 137.436 260.535 138.12 261.639 138.12C262.767 138.12 263.535 137.4 263.535 136.44C263.535 135.456 262.755 135.084 261.795 134.688C261.207 134.448 260.643 134.196 260.643 133.752C260.643 133.38 260.979 133.212 261.375 133.212C261.951 133.212 262.419 133.524 262.719 133.932L263.487 133.44C263.151 132.828 262.371 132.36 261.495 132.36C260.595 132.36 259.707 132.828 259.707 133.812C259.707 134.784 260.559 135.192 261.291 135.468C261.927 135.708 262.563 135.972 262.563 136.548C262.563 136.98 262.227 137.244 261.687 137.244C261.003 137.244 260.523 136.824 260.187 136.308ZM267.317 132.48V133.38H268.217V138H269.177V133.38H270.077V132.48H269.177V130.56H268.217V132.48H267.317ZM274.459 134.64V138H275.419V134.52C275.419 133.092 274.663 132.36 273.523 132.36C272.803 132.36 272.215 132.744 271.879 133.356V128.64H270.919V138H271.879V134.64C271.879 133.848 272.443 133.26 273.283 133.26C274.063 133.26 274.459 133.728 274.459 134.64ZM277.104 130.2C277.104 130.56 277.404 130.86 277.764 130.86C278.124 130.86 278.424 130.56 278.424 130.2C278.424 129.84 278.124 129.54 277.764 129.54C277.404 129.54 277.104 129.84 277.104 130.2ZM277.284 132.48V138H278.244V132.48H277.284ZM280.329 136.308L279.573 136.776C279.873 137.436 280.677 138.12 281.781 138.12C282.909 138.12 283.677 137.4 283.677 136.44C283.677 135.456 282.897 135.084 281.937 134.688C281.349 134.448 280.785 134.196 280.785 133.752C280.785 133.38 281.121 133.212 281.517 133.212C282.093 133.212 282.561 133.524 282.861 133.932L283.629 133.44C283.293 132.828 282.513 132.36 281.637 132.36C280.737 132.36 279.849 132.828 279.849 133.812C279.849 134.784 280.701 135.192 281.433 135.468C282.069 135.708 282.705 135.972 282.705 136.548C282.705 136.98 282.369 137.244 281.829 137.244C281.145 137.244 280.665 136.824 280.329 136.308ZM239.8 154.64V151.052C240.208 151.736 240.868 152.12 241.684 152.12C243.184 152.12 244.42 151.028 244.42 149.24C244.42 147.452 243.184 146.36 241.684 146.36C240.868 146.36 240.208 146.744 239.8 147.428V146.48H238.84V154.64H239.8ZM243.448 149.24C243.448 150.512 242.584 151.22 241.564 151.22C240.724 151.22 239.8 150.512 239.8 149.24C239.8 147.968 240.724 147.26 241.564 147.26C242.584 147.26 243.448 147.968 243.448 149.24ZM246.584 149.84V146.48H245.624V149.96C245.624 151.28 246.368 152.12 247.52 152.12C248.252 152.12 248.792 151.796 249.164 151.136V152H250.124V146.48H249.164V149.84C249.164 150.656 248.6 151.22 247.76 151.22C246.992 151.22 246.584 150.728 246.584 149.84ZM254.436 147.536L254.964 146.744C254.676 146.444 254.328 146.36 253.932 146.36C253.512 146.36 253.08 146.648 252.768 147.116V146.48H251.808V152H252.768V148.64C252.768 147.848 252.972 147.26 253.692 147.26C254.004 147.26 254.172 147.344 254.436 147.536ZM256.702 154.64V151.052C257.11 151.736 257.77 152.12 258.586 152.12C260.086 152.12 261.322 151.028 261.322 149.24C261.322 147.452 260.086 146.36 258.586 146.36C257.77 146.36 257.11 146.744 256.702 147.428V146.48H255.742V154.64H256.702ZM260.35 149.24C260.35 150.512 259.486 151.22 258.466 151.22C257.626 151.22 256.702 150.512 256.702 149.24C256.702 147.968 257.626 147.26 258.466 147.26C259.486 147.26 260.35 147.968 260.35 149.24ZM262.045 149.24C262.045 150.908 263.281 152.12 264.901 152.12C266.521 152.12 267.757 150.908 267.757 149.24C267.757 147.572 266.521 146.36 264.901 146.36C263.281 146.36 262.045 147.572 262.045 149.24ZM263.017 149.24C263.017 148.088 263.821 147.26 264.901 147.26C265.981 147.26 266.785 148.088 266.785 149.24C266.785 150.392 265.981 151.22 264.901 151.22C263.821 151.22 263.017 150.392 263.017 149.24ZM269.184 150.308L268.428 150.776C268.728 151.436 269.532 152.12 270.636 152.12C271.764 152.12 272.532 151.4 272.532 150.44C272.532 149.456 271.752 149.084 270.792 148.688C270.204 148.448 269.64 148.196 269.64 147.752C269.64 147.38 269.976 147.212 270.372 147.212C270.948 147.212 271.416 147.524 271.716 147.932L272.484 147.44C272.148 146.828 271.368 146.36 270.492 146.36C269.592 146.36 268.704 146.828 268.704 147.812C268.704 148.784 269.556 149.192 270.288 149.468C270.924 149.708 271.56 149.972 271.56 150.548C271.56 150.98 271.224 151.244 270.684 151.244C270 151.244 269.52 150.824 269.184 150.308ZM275.812 152.12C276.988 152.12 277.864 151.652 278.44 150.716L277.66 150.224C277.252 150.896 276.676 151.22 275.932 151.22C274.9 151.22 274.264 150.596 274.18 149.48H278.524C278.524 149.456 278.536 149.312 278.536 149.192C278.536 147.44 277.552 146.36 275.932 146.36C274.3 146.36 273.196 147.524 273.196 149.24C273.196 150.944 274.264 152.12 275.812 152.12ZM275.932 147.2C276.82 147.2 277.42 147.776 277.492 148.664H274.216C274.384 147.728 274.984 147.2 275.932 147.2ZM283.21 144.2C283.21 144.56 283.51 144.86 283.87 144.86C284.23 144.86 284.53 144.56 284.53 144.2C284.53 143.84 284.23 143.54 283.87 143.54C283.51 143.54 283.21 143.84 283.21 144.2ZM283.39 146.48V152H284.35V146.48H283.39ZM286.435 150.308L285.679 150.776C285.979 151.436 286.783 152.12 287.887 152.12C289.015 152.12 289.783 151.4 289.783 150.44C289.783 149.456 289.003 149.084 288.043 148.688C287.455 148.448 286.891 148.196 286.891 147.752C286.891 147.38 287.227 147.212 287.623 147.212C288.199 147.212 288.667 147.524 288.967 147.932L289.735 147.44C289.399 146.828 288.619 146.36 287.743 146.36C286.843 146.36 285.955 146.828 285.955 147.812C285.955 148.784 286.807 149.192 287.539 149.468C288.175 149.708 288.811 149.972 288.811 150.548C288.811 150.98 288.475 151.244 287.935 151.244C287.251 151.244 286.771 150.824 286.435 150.308ZM246.46 162.52C246.46 161.152 245.812 160.36 244.684 160.36C243.94 160.36 243.364 160.708 242.98 161.392C242.728 160.732 242.152 160.36 241.384 160.36C240.7 160.36 240.196 160.66 239.86 161.284V160.48H238.9V166H239.86V162.64C239.86 161.776 240.352 161.26 241.144 161.26C241.864 161.26 242.2 161.692 242.2 162.64V166H243.16V162.64C243.16 161.776 243.652 161.26 244.444 161.26C245.164 161.26 245.5 161.692 245.5 162.64V166H246.46V162.52ZM250.279 166.12C251.455 166.12 252.331 165.652 252.907 164.716L252.127 164.224C251.719 164.896 251.143 165.22 250.399 165.22C249.367 165.22 248.731 164.596 248.647 163.48H252.991C252.991 163.456 253.003 163.312 253.003 163.192C253.003 161.44 252.019 160.36 250.399 160.36C248.767 160.36 247.663 161.524 247.663 163.24C247.663 164.944 248.731 166.12 250.279 166.12ZM250.399 161.2C251.287 161.2 251.887 161.776 251.959 162.664H248.683C248.851 161.728 249.451 161.2 250.399 161.2ZM257.739 162.64V166H258.699V162.52C258.699 161.188 257.967 160.36 256.803 160.36C256.083 160.36 255.531 160.672 255.159 161.344V160.48H254.199V166H255.159V162.64C255.159 161.824 255.723 161.26 256.563 161.26C257.331 161.26 257.739 161.728 257.739 162.64ZM259.544 160.48V161.38H260.444V166H261.404V161.38H262.304V160.48H261.404V158.56H260.444V160.48H259.544ZM263.147 158.2C263.147 158.56 263.447 158.86 263.807 158.86C264.167 158.86 264.467 158.56 264.467 158.2C264.467 157.84 264.167 157.54 263.807 157.54C263.447 157.54 263.147 157.84 263.147 158.2ZM263.327 160.48V166H264.287V160.48H263.327ZM265.664 163.24C265.664 164.908 266.9 166.12 268.52 166.12C270.14 166.12 271.376 164.908 271.376 163.24C271.376 161.572 270.14 160.36 268.52 160.36C266.9 160.36 265.664 161.572 265.664 163.24ZM266.636 163.24C266.636 162.088 267.44 161.26 268.52 161.26C269.6 161.26 270.404 162.088 270.404 163.24C270.404 164.392 269.6 165.22 268.52 165.22C267.44 165.22 266.636 164.392 266.636 163.24ZM276.115 162.64V166H277.075V162.52C277.075 161.188 276.343 160.36 275.179 160.36C274.459 160.36 273.907 160.672 273.535 161.344V160.48H272.575V166H273.535V162.64C273.535 161.824 274.099 161.26 274.939 161.26C275.707 161.26 276.115 161.728 276.115 162.64ZM280.895 166.12C282.071 166.12 282.947 165.652 283.523 164.716L282.743 164.224C282.335 164.896 281.759 165.22 281.015 165.22C279.983 165.22 279.347 164.596 279.263 163.48H283.607C283.607 163.456 283.619 163.312 283.619 163.192C283.619 161.44 282.635 160.36 281.015 160.36C279.383 160.36 278.279 161.524 278.279 163.24C278.279 164.944 279.347 166.12 280.895 166.12ZM281.015 161.2C281.903 161.2 282.503 161.776 282.575 162.664H279.299C279.467 161.728 280.067 161.2 281.015 161.2ZM284.335 163.24C284.335 165.028 285.571 166.12 287.071 166.12C287.887 166.12 288.547 165.736 288.955 165.052V166H289.915V156.64H288.955V161.428C288.547 160.744 287.887 160.36 287.071 160.36C285.571 160.36 284.335 161.452 284.335 163.24ZM285.307 163.24C285.307 161.968 286.171 161.26 287.191 161.26C288.031 161.26 288.955 161.968 288.955 163.24C288.955 164.512 288.031 165.22 287.191 165.22C286.171 165.22 285.307 164.512 285.307 163.24ZM291.779 165.52C291.779 165.88 292.079 166.18 292.439 166.18C292.799 166.18 293.099 165.88 293.099 165.52C293.099 165.16 292.799 164.86 292.439 164.86C292.079 164.86 291.779 165.16 291.779 165.52Z" fill="#0F1938"/>
<path d="M119.96 115.6V124H120.98V120.64H122L124.34 124H125.6L123.092 120.544C124.28 120.256 125.096 119.38 125.096 118.12C125.096 116.572 123.86 115.6 122.24 115.6H119.96ZM122.24 116.5C123.32 116.5 124.076 117.088 124.076 118.12C124.076 119.152 123.32 119.74 122.24 119.74H120.98V116.5H122.24ZM128.631 124.12C129.807 124.12 130.683 123.652 131.259 122.716L130.479 122.224C130.071 122.896 129.495 123.22 128.751 123.22C127.719 123.22 127.083 122.596 126.999 121.48H131.343C131.343 121.456 131.355 121.312 131.355 121.192C131.355 119.44 130.371 118.36 128.751 118.36C127.119 118.36 126.015 119.524 126.015 121.24C126.015 122.944 127.083 124.12 128.631 124.12ZM128.751 119.2C129.639 119.2 130.239 119.776 130.311 120.664H127.035C127.203 119.728 127.803 119.2 128.751 119.2ZM133.451 126.64V123.052C133.859 123.736 134.519 124.12 135.335 124.12C136.835 124.12 138.071 123.028 138.071 121.24C138.071 119.452 136.835 118.36 135.335 118.36C134.519 118.36 133.859 118.744 133.451 119.428V118.48H132.491V126.64H133.451ZM137.099 121.24C137.099 122.512 136.235 123.22 135.215 123.22C134.375 123.22 133.451 122.512 133.451 121.24C133.451 119.968 134.375 119.26 135.215 119.26C136.235 119.26 137.099 119.968 137.099 121.24ZM141.902 119.536L142.43 118.744C142.142 118.444 141.794 118.36 141.398 118.36C140.978 118.36 140.546 118.648 140.234 119.116V118.48H139.274V124H140.234V120.64C140.234 119.848 140.438 119.26 141.158 119.26C141.47 119.26 141.638 119.344 141.902 119.536ZM145.228 124.12C146.404 124.12 147.28 123.652 147.856 122.716L147.076 122.224C146.668 122.896 146.092 123.22 145.348 123.22C144.316 123.22 143.68 122.596 143.596 121.48H147.94C147.94 121.456 147.952 121.312 147.952 121.192C147.952 119.44 146.968 118.36 145.348 118.36C143.716 118.36 142.612 119.524 142.612 121.24C142.612 122.944 143.68 124.12 145.228 124.12ZM145.348 119.2C146.236 119.2 146.836 119.776 146.908 120.664H143.632C143.8 119.728 144.4 119.2 145.348 119.2ZM149.376 122.308L148.62 122.776C148.92 123.436 149.724 124.12 150.828 124.12C151.956 124.12 152.724 123.4 152.724 122.44C152.724 121.456 151.944 121.084 150.984 120.688C150.396 120.448 149.832 120.196 149.832 119.752C149.832 119.38 150.168 119.212 150.564 119.212C151.14 119.212 151.608 119.524 151.908 119.932L152.676 119.44C152.34 118.828 151.56 118.36 150.684 118.36C149.784 118.36 148.896 118.828 148.896 119.812C148.896 120.784 149.748 121.192 150.48 121.468C151.116 121.708 151.752 121.972 151.752 122.548C151.752 122.98 151.416 123.244 150.876 123.244C150.192 123.244 149.712 122.824 149.376 122.308ZM156.003 124.12C157.179 124.12 158.055 123.652 158.631 122.716L157.851 122.224C157.443 122.896 156.867 123.22 156.123 123.22C155.091 123.22 154.455 122.596 154.371 121.48H158.715C158.715 121.456 158.727 121.312 158.727 121.192C158.727 119.44 157.743 118.36 156.123 118.36C154.491 118.36 153.387 119.524 153.387 121.24C153.387 122.944 154.455 124.12 156.003 124.12ZM156.123 119.2C157.011 119.2 157.611 119.776 157.683 120.664H154.407C154.575 119.728 155.175 119.2 156.123 119.2ZM163.463 120.64V124H164.423V120.52C164.423 119.188 163.691 118.36 162.527 118.36C161.807 118.36 161.255 118.672 160.883 119.344V118.48H159.923V124H160.883V120.64C160.883 119.824 161.447 119.26 162.287 119.26C163.055 119.26 163.463 119.728 163.463 120.64ZM165.268 118.48V119.38H166.168V124H167.128V119.38H168.028V118.48H167.128V116.56H166.168V118.48H165.268ZM169.159 119.752C169.411 119.56 169.987 119.2 170.815 119.2C171.499 119.2 172.063 119.416 172.063 120.172V120.976C171.739 120.772 171.223 120.568 170.491 120.568C169.135 120.568 168.331 121.276 168.331 122.344C168.331 123.472 169.219 124.12 170.239 124.12C170.911 124.12 171.703 123.844 172.063 123.256V124H173.023V120.04C173.023 118.972 172.147 118.36 170.863 118.36C169.843 118.36 169.111 118.744 168.691 119.044L169.159 119.752ZM169.303 122.296C169.303 121.696 169.711 121.324 170.647 121.324C171.163 121.324 171.619 121.42 172.063 121.636V121.84C172.063 122.716 171.367 123.292 170.491 123.292C169.783 123.292 169.303 122.932 169.303 122.296ZM173.688 118.48V119.38H174.588V124H175.548V119.38H176.448V118.48H175.548V116.56H174.588V118.48H173.688ZM177.291 116.2C177.291 116.56 177.591 116.86 177.951 116.86C178.311 116.86 178.611 116.56 178.611 116.2C178.611 115.84 178.311 115.54 177.951 115.54C177.591 115.54 177.291 115.84 177.291 116.2ZM177.471 118.48V124H178.431V118.48H177.471ZM179.808 121.24C179.808 122.908 181.044 124.12 182.664 124.12C184.284 124.12 185.52 122.908 185.52 121.24C185.52 119.572 184.284 118.36 182.664 118.36C181.044 118.36 179.808 119.572 179.808 121.24ZM180.78 121.24C180.78 120.088 181.584 119.26 182.664 119.26C183.744 119.26 184.548 120.088 184.548 121.24C184.548 122.392 183.744 123.22 182.664 123.22C181.584 123.22 180.78 122.392 180.78 121.24ZM190.259 120.64V124H191.219V120.52C191.219 119.188 190.487 118.36 189.323 118.36C188.603 118.36 188.051 118.672 187.679 119.344V118.48H186.719V124H187.679V120.64C187.679 119.824 188.243 119.26 189.083 119.26C189.851 119.26 190.259 119.728 190.259 120.64ZM119.42 135.24C119.42 136.908 120.656 138.12 122.276 138.12C123.896 138.12 125.132 136.908 125.132 135.24C125.132 133.572 123.896 132.36 122.276 132.36C120.656 132.36 119.42 133.572 119.42 135.24ZM120.392 135.24C120.392 134.088 121.196 133.26 122.276 133.26C123.356 133.26 124.16 134.088 124.16 135.24C124.16 136.392 123.356 137.22 122.276 137.22C121.196 137.22 120.392 136.392 120.392 135.24ZM125.911 132.48V133.38H126.451V138H127.411V133.38H128.671V132.48H127.411V130.56C127.411 129.768 127.627 129.48 127.987 129.48C128.179 129.48 128.407 129.516 128.575 129.792L129.103 129C128.923 128.76 128.563 128.52 128.047 128.52C127.039 128.52 126.451 129.132 126.451 130.44V132.48H125.911ZM132.282 132.48V133.38H133.182V138H134.142V133.38H135.042V132.48H134.142V130.56H133.182V132.48H132.282ZM139.425 134.64V138H140.385V134.52C140.385 133.092 139.629 132.36 138.489 132.36C137.769 132.36 137.181 132.744 136.845 133.356V128.64H135.885V138H136.845V134.64C136.845 133.848 137.409 133.26 138.249 133.26C139.029 133.26 139.425 133.728 139.425 134.64ZM144.206 138.12C145.382 138.12 146.258 137.652 146.834 136.716L146.054 136.224C145.646 136.896 145.07 137.22 144.326 137.22C143.294 137.22 142.658 136.596 142.574 135.48H146.918C146.918 135.456 146.93 135.312 146.93 135.192C146.93 133.44 145.946 132.36 144.326 132.36C142.694 132.36 141.59 133.524 141.59 135.24C141.59 136.944 142.658 138.12 144.206 138.12ZM144.326 133.2C145.214 133.2 145.814 133.776 145.886 134.664H142.61C142.778 133.728 143.378 133.2 144.326 133.2ZM155.143 134.64V138H156.103V134.52C156.103 133.188 155.371 132.36 154.207 132.36C153.487 132.36 152.935 132.672 152.563 133.344V132.48H151.603V138H152.563V134.64C152.563 133.824 153.127 133.26 153.967 133.26C154.735 133.26 155.143 133.728 155.143 134.64ZM158.748 135.84V132.48H157.788V135.96C157.788 137.28 158.532 138.12 159.684 138.12C160.416 138.12 160.956 137.796 161.328 137.136V138H162.288V132.48H161.328V135.84C161.328 136.656 160.764 137.22 159.924 137.22C159.156 137.22 158.748 136.728 158.748 135.84ZM171.532 134.52C171.532 133.152 170.884 132.36 169.756 132.36C169.012 132.36 168.436 132.708 168.052 133.392C167.8 132.732 167.224 132.36 166.456 132.36C165.772 132.36 165.268 132.66 164.932 133.284V132.48H163.972V138H164.932V134.64C164.932 133.776 165.424 133.26 166.216 133.26C166.936 133.26 167.272 133.692 167.272 134.64V138H168.232V134.64C168.232 133.776 168.724 133.26 169.516 133.26C170.236 133.26 170.572 133.692 170.572 134.64V138H171.532V134.52ZM178.736 135.24C178.736 133.452 177.5 132.36 176 132.36C175.184 132.36 174.524 132.744 174.116 133.428V128.64H173.156V138H174.116V137.052C174.524 137.736 175.184 138.12 176 138.12C177.5 138.12 178.736 137.028 178.736 135.24ZM177.764 135.24C177.764 136.512 176.9 137.22 175.88 137.22C175.04 137.22 174.116 136.512 174.116 135.24C174.116 133.968 175.04 133.26 175.88 133.26C176.9 133.26 177.764 133.968 177.764 135.24ZM182.075 138.12C183.251 138.12 184.127 137.652 184.703 136.716L183.923 136.224C183.515 136.896 182.939 137.22 182.195 137.22C181.163 137.22 180.527 136.596 180.443 135.48H184.787C184.787 135.456 184.799 135.312 184.799 135.192C184.799 133.44 183.815 132.36 182.195 132.36C180.563 132.36 179.459 133.524 179.459 135.24C179.459 136.944 180.527 138.12 182.075 138.12ZM182.195 133.2C183.083 133.2 183.683 133.776 183.755 134.664H180.479C180.647 133.728 181.247 133.2 182.195 133.2ZM188.623 133.536L189.151 132.744C188.863 132.444 188.515 132.36 188.119 132.36C187.699 132.36 187.267 132.648 186.955 133.116V132.48H185.995V138H186.955V134.64C186.955 133.848 187.159 133.26 187.879 133.26C188.191 133.26 188.359 133.344 188.623 133.536ZM119.42 149.24C119.42 150.908 120.656 152.12 122.276 152.12C123.896 152.12 125.132 150.908 125.132 149.24C125.132 147.572 123.896 146.36 122.276 146.36C120.656 146.36 119.42 147.572 119.42 149.24ZM120.392 149.24C120.392 148.088 121.196 147.26 122.276 147.26C123.356 147.26 124.16 148.088 124.16 149.24C124.16 150.392 123.356 151.22 122.276 151.22C121.196 151.22 120.392 150.392 120.392 149.24ZM125.911 146.48V147.38H126.451V152H127.411V147.38H128.671V146.48H127.411V144.56C127.411 143.768 127.627 143.48 127.987 143.48C128.179 143.48 128.407 143.516 128.575 143.792L129.103 143C128.923 142.76 128.563 142.52 128.047 142.52C127.039 142.52 126.451 143.132 126.451 144.44V146.48H125.911ZM132.282 146.48V147.38H133.182V152H134.142V147.38H135.042V146.48H134.142V144.56H133.182V146.48H132.282ZM135.885 144.2C135.885 144.56 136.185 144.86 136.545 144.86C136.905 144.86 137.205 144.56 137.205 144.2C137.205 143.84 136.905 143.54 136.545 143.54C136.185 143.54 135.885 143.84 135.885 144.2ZM136.065 146.48V152H137.025V146.48H136.065ZM146.442 148.52C146.442 147.152 145.794 146.36 144.666 146.36C143.922 146.36 143.346 146.708 142.962 147.392C142.71 146.732 142.134 146.36 141.366 146.36C140.682 146.36 140.178 146.66 139.842 147.284V146.48H138.882V152H139.842V148.64C139.842 147.776 140.334 147.26 141.126 147.26C141.846 147.26 142.182 147.692 142.182 148.64V152H143.142V148.64C143.142 147.776 143.634 147.26 144.426 147.26C145.146 147.26 145.482 147.692 145.482 148.64V152H146.442V148.52ZM150.261 152.12C151.437 152.12 152.313 151.652 152.889 150.716L152.109 150.224C151.701 150.896 151.125 151.22 150.381 151.22C149.349 151.22 148.713 150.596 148.629 149.48H152.973C152.973 149.456 152.985 149.312 152.985 149.192C152.985 147.44 152.001 146.36 150.381 146.36C148.749 146.36 147.645 147.524 147.645 149.24C147.645 150.944 148.713 152.12 150.261 152.12ZM150.381 147.2C151.269 147.2 151.869 147.776 151.941 148.664H148.665C148.833 147.728 149.433 147.2 150.381 147.2ZM154.409 150.308L153.653 150.776C153.953 151.436 154.757 152.12 155.861 152.12C156.989 152.12 157.757 151.4 157.757 150.44C157.757 149.456 156.977 149.084 156.017 148.688C155.429 148.448 154.865 148.196 154.865 147.752C154.865 147.38 155.201 147.212 155.597 147.212C156.173 147.212 156.641 147.524 156.941 147.932L157.709 147.44C157.373 146.828 156.593 146.36 155.717 146.36C154.817 146.36 153.929 146.828 153.929 147.812C153.929 148.784 154.781 149.192 155.513 149.468C156.149 149.708 156.785 149.972 156.785 150.548C156.785 150.98 156.449 151.244 155.909 151.244C155.225 151.244 154.745 150.824 154.409 150.308ZM161.539 146.48V147.38H162.439V152H163.399V147.38H164.299V146.48H163.399V144.56H162.439V146.48H161.539ZM168.681 148.64V152H169.641V148.52C169.641 147.092 168.885 146.36 167.745 146.36C167.025 146.36 166.437 146.744 166.101 147.356V142.64H165.141V152H166.101V148.64C166.101 147.848 166.665 147.26 167.505 147.26C168.285 147.26 168.681 147.728 168.681 148.64ZM171.326 144.2C171.326 144.56 171.626 144.86 171.986 144.86C172.346 144.86 172.646 144.56 172.646 144.2C172.646 143.84 172.346 143.54 171.986 143.54C171.626 143.54 171.326 143.84 171.326 144.2ZM171.506 146.48V152H172.466V146.48H171.506ZM174.551 150.308L173.795 150.776C174.095 151.436 174.899 152.12 176.003 152.12C177.131 152.12 177.899 151.4 177.899 150.44C177.899 149.456 177.119 149.084 176.159 148.688C175.571 148.448 175.007 148.196 175.007 147.752C175.007 147.38 175.343 147.212 175.739 147.212C176.315 147.212 176.783 147.524 177.083 147.932L177.851 147.44C177.515 146.828 176.735 146.36 175.859 146.36C174.959 146.36 174.071 146.828 174.071 147.812C174.071 148.784 174.923 149.192 175.655 149.468C176.291 149.708 176.927 149.972 176.927 150.548C176.927 150.98 176.591 151.244 176.051 151.244C175.367 151.244 174.887 150.824 174.551 150.308ZM120.8 168.64V165.052C121.208 165.736 121.868 166.12 122.684 166.12C124.184 166.12 125.42 165.028 125.42 163.24C125.42 161.452 124.184 160.36 122.684 160.36C121.868 160.36 121.208 160.744 120.8 161.428V160.48H119.84V168.64H120.8ZM124.448 163.24C124.448 164.512 123.584 165.22 122.564 165.22C121.724 165.22 120.8 164.512 120.8 163.24C120.8 161.968 121.724 161.26 122.564 161.26C123.584 161.26 124.448 161.968 124.448 163.24ZM127.584 163.84V160.48H126.624V163.96C126.624 165.28 127.368 166.12 128.52 166.12C129.252 166.12 129.792 165.796 130.164 165.136V166H131.124V160.48H130.164V163.84C130.164 164.656 129.6 165.22 128.76 165.22C127.992 165.22 127.584 164.728 127.584 163.84ZM135.436 161.536L135.964 160.744C135.676 160.444 135.328 160.36 134.932 160.36C134.512 160.36 134.08 160.648 133.768 161.116V160.48H132.808V166H133.768V162.64C133.768 161.848 133.972 161.26 134.692 161.26C135.004 161.26 135.172 161.344 135.436 161.536ZM137.702 168.64V165.052C138.11 165.736 138.77 166.12 139.586 166.12C141.086 166.12 142.322 165.028 142.322 163.24C142.322 161.452 141.086 160.36 139.586 160.36C138.77 160.36 138.11 160.744 137.702 161.428V160.48H136.742V168.64H137.702ZM141.35 163.24C141.35 164.512 140.486 165.22 139.466 165.22C138.626 165.22 137.702 164.512 137.702 163.24C137.702 161.968 138.626 161.26 139.466 161.26C140.486 161.26 141.35 161.968 141.35 163.24ZM143.045 163.24C143.045 164.908 144.281 166.12 145.901 166.12C147.521 166.12 148.757 164.908 148.757 163.24C148.757 161.572 147.521 160.36 145.901 160.36C144.281 160.36 143.045 161.572 143.045 163.24ZM144.017 163.24C144.017 162.088 144.821 161.26 145.901 161.26C146.981 161.26 147.785 162.088 147.785 163.24C147.785 164.392 146.981 165.22 145.901 165.22C144.821 165.22 144.017 164.392 144.017 163.24ZM150.184 164.308L149.428 164.776C149.728 165.436 150.532 166.12 151.636 166.12C152.764 166.12 153.532 165.4 153.532 164.44C153.532 163.456 152.752 163.084 151.792 162.688C151.204 162.448 150.64 162.196 150.64 161.752C150.64 161.38 150.976 161.212 151.372 161.212C151.948 161.212 152.416 161.524 152.716 161.932L153.484 161.44C153.148 160.828 152.368 160.36 151.492 160.36C150.592 160.36 149.704 160.828 149.704 161.812C149.704 162.784 150.556 163.192 151.288 163.468C151.924 163.708 152.56 163.972 152.56 164.548C152.56 164.98 152.224 165.244 151.684 165.244C151 165.244 150.52 164.824 150.184 164.308ZM156.812 166.12C157.988 166.12 158.864 165.652 159.44 164.716L158.66 164.224C158.252 164.896 157.676 165.22 156.932 165.22C155.9 165.22 155.264 164.596 155.18 163.48H159.524C159.524 163.456 159.536 163.312 159.536 163.192C159.536 161.44 158.552 160.36 156.932 160.36C155.3 160.36 154.196 161.524 154.196 163.24C154.196 164.944 155.264 166.12 156.812 166.12ZM156.932 161.2C157.82 161.2 158.42 161.776 158.492 162.664H155.216C155.384 161.728 155.984 161.2 156.932 161.2ZM119.9 172.2C119.9 172.56 120.2 172.86 120.56 172.86C120.92 172.86 121.22 172.56 121.22 172.2C121.22 171.84 120.92 171.54 120.56 171.54C120.2 171.54 119.9 171.84 119.9 172.2ZM120.08 174.48V180H121.04V174.48H120.08ZM123.125 178.308L122.369 178.776C122.669 179.436 123.473 180.12 124.577 180.12C125.705 180.12 126.473 179.4 126.473 178.44C126.473 177.456 125.693 177.084 124.733 176.688C124.145 176.448 123.581 176.196 123.581 175.752C123.581 175.38 123.917 175.212 124.313 175.212C124.889 175.212 125.357 175.524 125.657 175.932L126.425 175.44C126.089 174.828 125.309 174.36 124.433 174.36C123.533 174.36 122.645 174.828 122.645 175.812C122.645 176.784 123.497 177.192 124.229 177.468C124.865 177.708 125.501 177.972 125.501 178.548C125.501 178.98 125.165 179.244 124.625 179.244C123.941 179.244 123.461 178.824 123.125 178.308ZM138.655 176.52C138.655 175.152 138.007 174.36 136.879 174.36C136.135 174.36 135.559 174.708 135.175 175.392C134.923 174.732 134.347 174.36 133.579 174.36C132.895 174.36 132.391 174.66 132.055 175.284V174.48H131.095V180H132.055V176.64C132.055 175.776 132.547 175.26 133.339 175.26C134.059 175.26 134.395 175.692 134.395 176.64V180H135.355V176.64C135.355 175.776 135.847 175.26 136.639 175.26C137.359 175.26 137.695 175.692 137.695 176.64V180H138.655V176.52ZM142.474 180.12C143.65 180.12 144.526 179.652 145.102 178.716L144.322 178.224C143.914 178.896 143.338 179.22 142.594 179.22C141.562 179.22 140.926 178.596 140.842 177.48H145.186C145.186 177.456 145.198 177.312 145.198 177.192C145.198 175.44 144.214 174.36 142.594 174.36C140.962 174.36 139.858 175.524 139.858 177.24C139.858 178.944 140.926 180.12 142.474 180.12ZM142.594 175.2C143.482 175.2 144.082 175.776 144.154 176.664H140.878C141.046 175.728 141.646 175.2 142.594 175.2ZM149.934 176.64V180H150.894V176.52C150.894 175.188 150.162 174.36 148.998 174.36C148.278 174.36 147.726 174.672 147.354 175.344V174.48H146.394V180H147.354V176.64C147.354 175.824 147.918 175.26 148.758 175.26C149.526 175.26 149.934 175.728 149.934 176.64ZM151.738 174.48V175.38H152.638V180H153.598V175.38H154.498V174.48H153.598V172.56H152.638V174.48H151.738ZM155.341 172.2C155.341 172.56 155.641 172.86 156.001 172.86C156.361 172.86 156.661 172.56 156.661 172.2C156.661 171.84 156.361 171.54 156.001 171.54C155.641 171.54 155.341 171.84 155.341 172.2ZM155.521 174.48V180H156.481V174.48H155.521ZM157.858 177.24C157.858 178.908 159.094 180.12 160.714 180.12C162.334 180.12 163.57 178.908 163.57 177.24C163.57 175.572 162.334 174.36 160.714 174.36C159.094 174.36 157.858 175.572 157.858 177.24ZM158.83 177.24C158.83 176.088 159.634 175.26 160.714 175.26C161.794 175.26 162.598 176.088 162.598 177.24C162.598 178.392 161.794 179.22 160.714 179.22C159.634 179.22 158.83 178.392 158.83 177.24ZM168.309 176.64V180H169.269V176.52C169.269 175.188 168.537 174.36 167.373 174.36C166.653 174.36 166.101 174.672 165.729 175.344V174.48H164.769V180H165.729V176.64C165.729 175.824 166.293 175.26 167.133 175.26C167.901 175.26 168.309 175.728 168.309 176.64ZM173.09 180.12C174.266 180.12 175.142 179.652 175.718 178.716L174.938 178.224C174.53 178.896 173.954 179.22 173.21 179.22C172.178 179.22 171.542 178.596 171.458 177.48H175.802C175.802 177.456 175.814 177.312 175.814 177.192C175.814 175.44 174.83 174.36 173.21 174.36C171.578 174.36 170.474 175.524 170.474 177.24C170.474 178.944 171.542 180.12 173.09 180.12ZM173.21 175.2C174.098 175.2 174.698 175.776 174.77 176.664H171.494C171.662 175.728 172.262 175.2 173.21 175.2ZM176.53 177.24C176.53 179.028 177.766 180.12 179.266 180.12C180.082 180.12 180.742 179.736 181.15 179.052V180H182.11V170.64H181.15V175.428C180.742 174.744 180.082 174.36 179.266 174.36C177.766 174.36 176.53 175.452 176.53 177.24ZM177.502 177.24C177.502 175.968 178.366 175.26 179.386 175.26C180.226 175.26 181.15 175.968 181.15 177.24C181.15 178.512 180.226 179.22 179.386 179.22C178.366 179.22 177.502 178.512 177.502 177.24ZM183.973 179.52C183.973 179.88 184.273 180.18 184.633 180.18C184.993 180.18 185.293 179.88 185.293 179.52C185.293 179.16 184.993 178.86 184.633 178.86C184.273 178.86 183.973 179.16 183.973 179.52Z" fill="#0F1938"/>
<path d="M17.068 2.6V8.24L10.936 2.18V11H12.328V5.36L18.46 11.42V2.6H17.068ZM21.4267 8.84V5.48H20.0947V8.984C20.0947 10.304 20.7787 11.12 22.0147 11.12C22.7827 11.12 23.3347 10.784 23.6827 10.148V11H24.9787V5.48H23.6827V8.84C23.6827 9.584 23.1787 10.076 22.4467 10.076C21.7507 10.076 21.4267 9.62 21.4267 8.84ZM34.4098 7.496C34.4098 6.14 33.8458 5.36 32.6578 5.36C31.9138 5.36 31.3138 5.708 30.9298 6.344C30.6898 5.708 30.1378 5.36 29.3338 5.36C28.6258 5.36 28.1098 5.672 27.7858 6.284V5.48H26.5138V11H27.7858V7.64C27.7858 6.848 28.2058 6.404 28.8778 6.404C29.5018 6.404 29.7898 6.812 29.7898 7.64V11H31.0978V7.64C31.0978 6.848 31.5298 6.404 32.2018 6.404C32.8258 6.404 33.1138 6.812 33.1138 7.64V11H34.4098V7.496ZM41.7766 8.24C41.7766 6.428 40.5286 5.36 39.0886 5.36C38.2846 5.36 37.6246 5.732 37.2046 6.392V1.64H35.8966V11H37.2046V10.088C37.6246 10.748 38.2846 11.12 39.0886 11.12C40.5286 11.12 41.7766 10.052 41.7766 8.24ZM40.4326 8.24C40.4326 9.344 39.6766 9.992 38.7766 9.992C38.0326 9.992 37.2046 9.368 37.2046 8.24C37.2046 7.112 38.0326 6.488 38.7766 6.488C39.6766 6.488 40.4326 7.136 40.4326 8.24ZM45.2793 11.12C46.5513 11.12 47.4753 10.616 48.0513 9.62L46.9233 9.176C46.5633 9.776 46.0353 10.052 45.3393 10.052C44.4393 10.052 43.8873 9.5 43.7913 8.54H48.0873C48.0873 8.48 48.0993 8.324 48.0993 8.18C48.0993 6.416 47.0793 5.36 45.3393 5.36C43.5873 5.36 42.4593 6.5 42.4593 8.24C42.4593 9.968 43.5753 11.12 45.2793 11.12ZM45.3273 6.344C46.0953 6.344 46.6233 6.848 46.6833 7.64H43.8273C43.9833 6.8 44.5113 6.344 45.3273 6.344ZM52.1443 6.872L52.7803 5.768C52.5283 5.48 52.1563 5.36 51.7603 5.36C51.2923 5.36 50.8243 5.66 50.5003 6.152V5.48H49.2163V11H50.5003V7.892C50.5003 7.1 50.7643 6.572 51.4123 6.572C51.7243 6.572 51.9043 6.68 52.1443 6.872ZM56.5953 8.24C56.5953 9.932 57.8793 11.12 59.5713 11.12C61.2633 11.12 62.5473 9.932 62.5473 8.24C62.5473 6.548 61.2633 5.36 59.5713 5.36C57.8793 5.36 56.5953 6.548 56.5953 8.24ZM57.9273 8.24C57.9273 7.208 58.6353 6.5 59.5713 6.5C60.5073 6.5 61.2153 7.208 61.2153 8.24C61.2153 9.272 60.5073 9.98 59.5713 9.98C58.6353 9.98 57.9273 9.272 57.9273 8.24ZM63.2011 5.48V6.62H63.8011V11H65.0731V6.62H66.3691V5.48H65.0731V3.692C65.0731 2.996 65.2891 2.72 65.6491 2.72C65.8531 2.72 66.0691 2.78 66.2371 3.032L66.8371 2.024C66.6331 1.784 66.2251 1.496 65.5891 1.496C64.4371 1.496 63.8011 2.156 63.8011 3.44V5.48H63.2011ZM78.6138 7.496C78.6138 6.14 78.0498 5.36 76.8618 5.36C76.1178 5.36 75.5178 5.708 75.1338 6.344C74.8938 5.708 74.3418 5.36 73.5378 5.36C72.8298 5.36 72.3138 5.672 71.9898 6.284V5.48H70.7178V11H71.9898V7.64C71.9898 6.848 72.4098 6.404 73.0818 6.404C73.7058 6.404 73.9938 6.812 73.9938 7.64V11H75.3018V7.64C75.3018 6.848 75.7338 6.404 76.4058 6.404C77.0298 6.404 77.3178 6.812 77.3178 7.64V11H78.6138V7.496ZM82.5486 11.12C83.8206 11.12 84.7446 10.616 85.3206 9.62L84.1926 9.176C83.8326 9.776 83.3046 10.052 82.6086 10.052C81.7086 10.052 81.1566 9.5 81.0606 8.54H85.3566C85.3566 8.48 85.3686 8.324 85.3686 8.18C85.3686 6.416 84.3486 5.36 82.6086 5.36C80.8566 5.36 79.7286 6.5 79.7286 8.24C79.7286 9.968 80.8446 11.12 82.5486 11.12ZM82.5966 6.344C83.3646 6.344 83.8926 6.848 83.9526 7.64H81.0966C81.2526 6.8 81.7806 6.344 82.5966 6.344ZM90.0377 7.64V11H91.3697V7.496C91.3697 6.164 90.6977 5.36 89.4497 5.36C88.6937 5.36 88.1297 5.684 87.7817 6.332V5.48H86.4857V11H87.7817V7.64C87.7817 6.896 88.2857 6.404 89.0177 6.404C89.7137 6.404 90.0377 6.836 90.0377 7.64ZM92.1367 5.48V6.62H93.0607V11H94.3447V6.62H95.2687V5.48H94.3447V3.56H93.0607V5.48H92.1367ZM95.9945 3.284C95.9945 3.728 96.3545 4.076 96.8105 4.076C97.2665 4.076 97.6265 3.728 97.6265 3.284C97.6265 2.84 97.2665 2.492 96.8105 2.492C96.3545 2.492 95.9945 2.84 95.9945 3.284ZM96.1745 5.48V11H97.4465V5.48H96.1745ZM98.69 8.24C98.69 9.932 99.974 11.12 101.666 11.12C103.358 11.12 104.642 9.932 104.642 8.24C104.642 6.548 103.358 5.36 101.666 5.36C99.974 5.36 98.69 6.548 98.69 8.24ZM100.022 8.24C100.022 7.208 100.73 6.5 101.666 6.5C102.602 6.5 103.31 7.208 103.31 8.24C103.31 9.272 102.602 9.98 101.666 9.98C100.73 9.98 100.022 9.272 100.022 8.24ZM109.304 7.64V11H110.636V7.496C110.636 6.164 109.964 5.36 108.716 5.36C107.96 5.36 107.396 5.684 107.048 6.332V5.48H105.752V11H107.048V7.64C107.048 6.896 107.552 6.404 108.284 6.404C108.98 6.404 109.304 6.836 109.304 7.64ZM112.423 9.188L111.667 9.944C112.147 10.58 112.999 11.168 114.139 11.168C115.339 11.168 116.107 10.484 116.107 9.44C116.107 8.444 115.327 8.084 114.415 7.712C113.731 7.448 113.215 7.256 113.215 6.836C113.215 6.536 113.479 6.368 113.851 6.368C114.391 6.368 114.943 6.68 115.303 7.1L116.023 6.332C115.567 5.78 114.787 5.36 113.887 5.36C112.867 5.36 111.991 5.864 111.991 6.86C111.991 7.868 112.807 8.264 113.563 8.54C114.295 8.804 114.799 9.032 114.799 9.512C114.799 9.872 114.523 10.1 114.055 10.1C113.491 10.1 112.963 9.776 112.423 9.188Z" fill="#0F1938"/>
<line x1="11.5" y1="33" x2="11.5" y2="43" stroke="#0F1938"/>
<line x1="53.5" y1="33" x2="53.5" y2="43" stroke="#0F1938"/>
<line x1="32.5" y1="39" x2="32.5" y2="43" stroke="#0F1938"/>
<line x1="95.5" y1="33" x2="95.5" y2="43" stroke="#0F1938"/>
<line x1="74.5" y1="39" x2="74.5" y2="43" stroke="#0F1938"/>
<line x1="137.5" y1="33" x2="137.5" y2="43" stroke="#0F1938"/>
<line x1="116.5" y1="39" x2="116.5" y2="43" stroke="#0F1938"/>
<line x1="179.5" y1="33" x2="179.5" y2="43" stroke="#0F1938"/>
<line x1="158.5" y1="39" x2="158.5" y2="43" stroke="#0F1938"/>
<line x1="221.5" y1="33" x2="221.5" y2="43" stroke="#0F1938"/>
<line x1="200.5" y1="39" x2="200.5" y2="43" stroke="#0F1938"/>
<path d="M263 33V43" stroke="#0F1938"/>
<path d="M242 39V43" stroke="#0F1938"/>
<path d="M305 33V43" stroke="#0F1938"/>
<path d="M284 39V43" stroke="#0F1938"/>
<path d="M8.92156 26.2C8.92156 25.64 9.00956 25.144 9.18556 24.712C9.36156 24.28 9.60423 23.9413 9.91356 23.696C10.2282 23.4453 10.5909 23.32 11.0016 23.32C11.4122 23.32 11.7722 23.4453 12.0816 23.696C12.3962 23.9413 12.6416 24.28 12.8176 24.712C12.9936 25.144 13.0816 25.64 13.0816 26.2C13.0816 26.76 12.9936 27.256 12.8176 27.688C12.6416 28.12 12.3962 28.4613 12.0816 28.712C11.7722 28.9573 11.4122 29.08 11.0016 29.08C10.5909 29.08 10.2282 28.9573 9.91356 28.712C9.60423 28.4613 9.36156 28.12 9.18556 27.688C9.00956 27.256 8.92156 26.76 8.92156 26.2ZM9.60156 26.2C9.60156 26.632 9.65756 27.0187 9.76956 27.36C9.8869 27.696 10.0496 27.96 10.2576 28.152C10.4656 28.344 10.7136 28.44 11.0016 28.44C11.2896 28.44 11.5376 28.344 11.7456 28.152C11.9589 27.96 12.1216 27.696 12.2336 27.36C12.3456 27.0187 12.4016 26.632 12.4016 26.2C12.4016 25.7627 12.3456 25.376 12.2336 25.04C12.1216 24.704 11.9589 24.44 11.7456 24.248C11.5376 24.056 11.2896 23.96 11.0016 23.96C10.7136 23.96 10.4656 24.056 10.2576 24.248C10.0496 24.44 9.8869 24.704 9.76956 25.04C9.65756 25.376 9.60156 25.7627 9.60156 26.2Z" fill="#0F1938"/>
<path d="M47.2023 24.504V23.8L49.1223 23.32V29H48.4423V24.136L47.2023 24.504ZM50.3239 26.2C50.3239 25.64 50.4119 25.144 50.5879 24.712C50.7639 24.28 51.0066 23.9413 51.3159 23.696C51.6306 23.4453 51.9932 23.32 52.4039 23.32C52.8146 23.32 53.1746 23.4453 53.4839 23.696C53.7986 23.9413 54.0439 24.28 54.2199 24.712C54.3959 25.144 54.4839 25.64 54.4839 26.2C54.4839 26.76 54.3959 27.256 54.2199 27.688C54.0439 28.12 53.7986 28.4613 53.4839 28.712C53.1746 28.9573 52.8146 29.08 52.4039 29.08C51.9932 29.08 51.6306 28.9573 51.3159 28.712C51.0066 28.4613 50.7639 28.12 50.5879 27.688C50.4119 27.256 50.3239 26.76 50.3239 26.2ZM51.0039 26.2C51.0039 26.632 51.0599 27.0187 51.1719 27.36C51.2892 27.696 51.4519 27.96 51.6599 28.152C51.8679 28.344 52.1159 28.44 52.4039 28.44C52.6919 28.44 52.9399 28.344 53.1479 28.152C53.3612 27.96 53.5239 27.696 53.6359 27.36C53.7479 27.0187 53.8039 26.632 53.8039 26.2C53.8039 25.7627 53.7479 25.376 53.6359 25.04C53.5239 24.704 53.3612 24.44 53.1479 24.248C52.9399 24.056 52.6919 23.96 52.4039 23.96C52.1159 23.96 51.8679 24.056 51.6599 24.248C51.4519 24.44 51.2892 24.704 51.1719 25.04C51.0599 25.376 51.0039 25.7627 51.0039 26.2ZM54.9608 26.2C54.9608 25.64 55.0488 25.144 55.2248 24.712C55.4008 24.28 55.6434 23.9413 55.9528 23.696C56.2674 23.4453 56.6301 23.32 57.0408 23.32C57.4514 23.32 57.8114 23.4453 58.1208 23.696C58.4354 23.9413 58.6808 24.28 58.8568 24.712C59.0328 25.144 59.1208 25.64 59.1208 26.2C59.1208 26.76 59.0328 27.256 58.8568 27.688C58.6808 28.12 58.4354 28.4613 58.1208 28.712C57.8114 28.9573 57.4514 29.08 57.0408 29.08C56.6301 29.08 56.2674 28.9573 55.9528 28.712C55.6434 28.4613 55.4008 28.12 55.2248 27.688C55.0488 27.256 54.9608 26.76 54.9608 26.2ZM55.6408 26.2C55.6408 26.632 55.6968 27.0187 55.8088 27.36C55.9261 27.696 56.0888 27.96 56.2968 28.152C56.5048 28.344 56.7528 28.44 57.0408 28.44C57.3288 28.44 57.5768 28.344 57.7848 28.152C57.9981 27.96 58.1608 27.696 58.2728 27.36C58.3848 27.0187 58.4408 26.632 58.4408 26.2C58.4408 25.7627 58.3848 25.376 58.2728 25.04C58.1608 24.704 57.9981 24.44 57.7848 24.248C57.5768 24.056 57.3288 23.96 57.0408 23.96C56.7528 23.96 56.5048 24.056 56.2968 24.248C56.0888 24.44 55.9261 24.704 55.8088 25.04C55.6968 25.376 55.6408 25.7627 55.6408 26.2Z" fill="#0F1938"/>
<path d="M88.2458 29L90.8938 26.176C91.0804 25.9787 91.2244 25.7813 91.3258 25.584C91.4271 25.3867 91.4778 25.176 91.4778 24.952C91.4778 24.7867 91.4351 24.6293 91.3498 24.48C91.2644 24.3253 91.1418 24.2 90.9818 24.104C90.8218 24.0027 90.6271 23.952 90.3978 23.952C90.0404 23.952 89.7578 24.0747 89.5498 24.32C89.3471 24.56 89.2458 24.8933 89.2458 25.32H88.5658C88.5658 24.92 88.6378 24.5707 88.7818 24.272C88.9258 23.968 89.1338 23.7333 89.4058 23.568C89.6831 23.3973 90.0138 23.312 90.3978 23.312C90.7071 23.312 90.9738 23.3653 91.1978 23.472C91.4218 23.5733 91.6058 23.7067 91.7498 23.872C91.8938 24.032 92.0004 24.2053 92.0698 24.392C92.1391 24.5787 92.1738 24.7573 92.1738 24.928C92.1738 25.216 92.1044 25.5013 91.9658 25.784C91.8271 26.0667 91.6484 26.32 91.4298 26.544L89.6458 28.36H92.1978V29H88.2458ZM92.8005 26.2C92.8005 25.64 92.8885 25.144 93.0645 24.712C93.2405 24.28 93.4831 23.9413 93.7925 23.696C94.1071 23.4453 94.4698 23.32 94.8805 23.32C95.2911 23.32 95.6511 23.4453 95.9605 23.696C96.2751 23.9413 96.5205 24.28 96.6965 24.712C96.8725 25.144 96.9605 25.64 96.9605 26.2C96.9605 26.76 96.8725 27.256 96.6965 27.688C96.5205 28.12 96.2751 28.4613 95.9605 28.712C95.6511 28.9573 95.2911 29.08 94.8805 29.08C94.4698 29.08 94.1071 28.9573 93.7925 28.712C93.4831 28.4613 93.2405 28.12 93.0645 27.688C92.8885 27.256 92.8005 26.76 92.8005 26.2ZM93.4805 26.2C93.4805 26.632 93.5365 27.0187 93.6485 27.36C93.7658 27.696 93.9285 27.96 94.1365 28.152C94.3445 28.344 94.5925 28.44 94.8805 28.44C95.1685 28.44 95.4165 28.344 95.6245 28.152C95.8378 27.96 96.0005 27.696 96.1125 27.36C96.2245 27.0187 96.2805 26.632 96.2805 26.2C96.2805 25.7627 96.2245 25.376 96.1125 25.04C96.0005 24.704 95.8378 24.44 95.6245 24.248C95.4165 24.056 95.1685 23.96 94.8805 23.96C94.5925 23.96 94.3445 24.056 94.1365 24.248C93.9285 24.44 93.7658 24.704 93.6485 25.04C93.5365 25.376 93.4805 25.7627 93.4805 26.2ZM97.4373 26.2C97.4373 25.64 97.5253 25.144 97.7013 24.712C97.8773 24.28 98.12 23.9413 98.4293 23.696C98.744 23.4453 99.1067 23.32 99.5173 23.32C99.928 23.32 100.288 23.4453 100.597 23.696C100.912 23.9413 101.157 24.28 101.333 24.712C101.509 25.144 101.597 25.64 101.597 26.2C101.597 26.76 101.509 27.256 101.333 27.688C101.157 28.12 100.912 28.4613 100.597 28.712C100.288 28.9573 99.928 29.08 99.5173 29.08C99.1067 29.08 98.744 28.9573 98.4293 28.712C98.12 28.4613 97.8773 28.12 97.7013 27.688C97.5253 27.256 97.4373 26.76 97.4373 26.2ZM98.1173 26.2C98.1173 26.632 98.1733 27.0187 98.2853 27.36C98.4027 27.696 98.5653 27.96 98.7733 28.152C98.9813 28.344 99.2293 28.44 99.5173 28.44C99.8053 28.44 100.053 28.344 100.261 28.152C100.475 27.96 100.637 27.696 100.749 27.36C100.861 27.0187 100.917 26.632 100.917 26.2C100.917 25.7627 100.861 25.376 100.749 25.04C100.637 24.704 100.475 24.44 100.261 24.248C100.053 24.056 99.8053 23.96 99.5173 23.96C99.2293 23.96 98.9813 24.056 98.7733 24.248C98.5653 24.44 98.4027 24.704 98.2853 25.04C98.1733 25.376 98.1173 25.7627 98.1173 26.2Z" fill="#0F1938"/>
<path d="M133.444 29.08C133.086 29.08 132.772 29.0107 132.5 28.872C132.233 28.7333 132.025 28.5467 131.876 28.312C131.732 28.072 131.66 27.808 131.66 27.52H132.348C132.348 27.7813 132.449 28 132.652 28.176C132.86 28.352 133.124 28.44 133.444 28.44C133.764 28.44 134.017 28.3493 134.204 28.168C134.396 27.9867 134.492 27.744 134.492 27.44C134.492 27.0933 134.366 26.8347 134.116 26.664C133.87 26.488 133.566 26.4 133.204 26.4V25.8C133.566 25.8 133.844 25.704 134.036 25.512C134.233 25.32 134.332 25.0933 134.332 24.832C134.332 24.5653 134.26 24.3493 134.116 24.184C133.977 24.0187 133.766 23.936 133.484 23.936C133.222 23.936 133.001 24.0187 132.82 24.184C132.638 24.344 132.548 24.5467 132.548 24.792H131.9C131.9 24.4987 131.966 24.2427 132.1 24.024C132.238 23.8053 132.425 23.6347 132.66 23.512C132.9 23.384 133.172 23.32 133.476 23.32C133.796 23.32 134.07 23.3893 134.3 23.528C134.534 23.6667 134.713 23.848 134.836 24.072C134.964 24.296 135.028 24.5413 135.028 24.808C135.028 25.0853 134.942 25.336 134.772 25.56C134.601 25.784 134.369 25.9573 134.076 26.08C134.406 26.176 134.673 26.3413 134.876 26.576C135.084 26.8107 135.188 27.1253 135.188 27.52C135.188 27.8347 135.11 28.1093 134.956 28.344C134.806 28.5787 134.601 28.76 134.34 28.888C134.078 29.016 133.78 29.08 133.444 29.08ZM135.707 26.2C135.707 25.64 135.795 25.144 135.971 24.712C136.147 24.28 136.389 23.9413 136.699 23.696C137.013 23.4453 137.376 23.32 137.787 23.32C138.197 23.32 138.557 23.4453 138.867 23.696C139.181 23.9413 139.427 24.28 139.603 24.712C139.779 25.144 139.867 25.64 139.867 26.2C139.867 26.76 139.779 27.256 139.603 27.688C139.427 28.12 139.181 28.4613 138.867 28.712C138.557 28.9573 138.197 29.08 137.787 29.08C137.376 29.08 137.013 28.9573 136.699 28.712C136.389 28.4613 136.147 28.12 135.971 27.688C135.795 27.256 135.707 26.76 135.707 26.2ZM136.387 26.2C136.387 26.632 136.443 27.0187 136.555 27.36C136.672 27.696 136.835 27.96 137.043 28.152C137.251 28.344 137.499 28.44 137.787 28.44C138.075 28.44 138.323 28.344 138.531 28.152C138.744 27.96 138.907 27.696 139.019 27.36C139.131 27.0187 139.187 26.632 139.187 26.2C139.187 25.7627 139.131 25.376 139.019 25.04C138.907 24.704 138.744 24.44 138.531 24.248C138.323 24.056 138.075 23.96 137.787 23.96C137.499 23.96 137.251 24.056 137.043 24.248C136.835 24.44 136.672 24.704 136.555 25.04C136.443 25.376 136.387 25.7627 136.387 26.2ZM140.344 26.2C140.344 25.64 140.432 25.144 140.608 24.712C140.784 24.28 141.026 23.9413 141.336 23.696C141.65 23.4453 142.013 23.32 142.424 23.32C142.834 23.32 143.194 23.4453 143.504 23.696C143.818 23.9413 144.064 24.28 144.24 24.712C144.416 25.144 144.504 25.64 144.504 26.2C144.504 26.76 144.416 27.256 144.24 27.688C144.064 28.12 143.818 28.4613 143.504 28.712C143.194 28.9573 142.834 29.08 142.424 29.08C142.013 29.08 141.65 28.9573 141.336 28.712C141.026 28.4613 140.784 28.12 140.608 27.688C140.432 27.256 140.344 26.76 140.344 26.2ZM141.024 26.2C141.024 26.632 141.08 27.0187 141.192 27.36C141.309 27.696 141.472 27.96 141.68 28.152C141.888 28.344 142.136 28.44 142.424 28.44C142.712 28.44 142.96 28.344 143.168 28.152C143.381 27.96 143.544 27.696 143.656 27.36C143.768 27.0187 143.824 26.632 143.824 26.2C143.824 25.7627 143.768 25.376 143.656 25.04C143.544 24.704 143.381 24.44 143.168 24.248C142.96 24.056 142.712 23.96 142.424 23.96C142.136 23.96 141.888 24.056 141.68 24.248C141.472 24.44 141.309 24.704 141.192 25.04C141.08 25.376 141.024 25.7627 141.024 26.2Z" fill="#0F1938"/>
<path d="M172.191 27.88L175.295 23.4H175.575V27.28H176.455V27.88H175.575V29H174.895V27.88H172.191ZM173.311 27.28H174.895V24.912L173.311 27.28ZM176.855 26.2C176.855 25.64 176.943 25.144 177.119 24.712C177.295 24.28 177.538 23.9413 177.847 23.696C178.162 23.4453 178.524 23.32 178.935 23.32C179.346 23.32 179.706 23.4453 180.015 23.696C180.33 23.9413 180.575 24.28 180.751 24.712C180.927 25.144 181.015 25.64 181.015 26.2C181.015 26.76 180.927 27.256 180.751 27.688C180.575 28.12 180.33 28.4613 180.015 28.712C179.706 28.9573 179.346 29.08 178.935 29.08C178.524 29.08 178.162 28.9573 177.847 28.712C177.538 28.4613 177.295 28.12 177.119 27.688C176.943 27.256 176.855 26.76 176.855 26.2ZM177.535 26.2C177.535 26.632 177.591 27.0187 177.703 27.36C177.82 27.696 177.983 27.96 178.191 28.152C178.399 28.344 178.647 28.44 178.935 28.44C179.223 28.44 179.471 28.344 179.679 28.152C179.892 27.96 180.055 27.696 180.167 27.36C180.279 27.0187 180.335 26.632 180.335 26.2C180.335 25.7627 180.279 25.376 180.167 25.04C180.055 24.704 179.892 24.44 179.679 24.248C179.471 24.056 179.223 23.96 178.935 23.96C178.647 23.96 178.399 24.056 178.191 24.248C177.983 24.44 177.82 24.704 177.703 25.04C177.591 25.376 177.535 25.7627 177.535 26.2ZM181.492 26.2C181.492 25.64 181.58 25.144 181.756 24.712C181.932 24.28 182.175 23.9413 182.484 23.696C182.799 23.4453 183.161 23.32 183.572 23.32C183.983 23.32 184.343 23.4453 184.652 23.696C184.967 23.9413 185.212 24.28 185.388 24.712C185.564 25.144 185.652 25.64 185.652 26.2C185.652 26.76 185.564 27.256 185.388 27.688C185.212 28.12 184.967 28.4613 184.652 28.712C184.343 28.9573 183.983 29.08 183.572 29.08C183.161 29.08 182.799 28.9573 182.484 28.712C182.175 28.4613 181.932 28.12 181.756 27.688C181.58 27.256 181.492 26.76 181.492 26.2ZM182.172 26.2C182.172 26.632 182.228 27.0187 182.34 27.36C182.457 27.696 182.62 27.96 182.828 28.152C183.036 28.344 183.284 28.44 183.572 28.44C183.86 28.44 184.108 28.344 184.316 28.152C184.529 27.96 184.692 27.696 184.804 27.36C184.916 27.0187 184.972 26.632 184.972 26.2C184.972 25.7627 184.916 25.376 184.804 25.04C184.692 24.704 184.529 24.44 184.316 24.248C184.108 24.056 183.86 23.96 183.572 23.96C183.284 23.96 183.036 24.056 182.828 24.248C182.62 24.44 182.457 24.704 182.34 25.04C182.228 25.376 182.172 25.7627 182.172 26.2Z" fill="#0F1938"/>
<path d="M218.297 27.16C218.297 27.5813 218.209 27.936 218.033 28.224C217.857 28.5067 217.62 28.72 217.321 28.864C217.028 29.008 216.7 29.08 216.337 29.08C215.996 29.08 215.697 29.0267 215.441 28.92C215.191 28.8133 214.975 28.672 214.793 28.496C214.617 28.3147 214.468 28.1173 214.345 27.904L214.921 27.512C215.007 27.672 215.119 27.824 215.257 27.968C215.401 28.1067 215.567 28.2213 215.753 28.312C215.94 28.3973 216.135 28.44 216.337 28.44C216.737 28.44 217.047 28.3227 217.265 28.088C217.484 27.8533 217.593 27.544 217.593 27.16C217.593 26.904 217.537 26.68 217.425 26.488C217.319 26.296 217.169 26.1467 216.977 26.04C216.791 25.9333 216.577 25.88 216.337 25.88C216.161 25.88 215.999 25.896 215.849 25.928C215.705 25.9547 215.559 26.0053 215.409 26.08C215.265 26.1493 215.097 26.2507 214.905 26.384L215.641 23.4H218.281V24H216.169L215.793 25.48C216.06 25.3413 216.337 25.272 216.625 25.272C216.945 25.272 217.231 25.352 217.481 25.512C217.737 25.672 217.937 25.8933 218.081 26.176C218.225 26.4587 218.297 26.7867 218.297 27.16ZM218.781 26.2C218.781 25.64 218.869 25.144 219.045 24.712C219.221 24.28 219.464 23.9413 219.773 23.696C220.088 23.4453 220.45 23.32 220.861 23.32C221.272 23.32 221.632 23.4453 221.941 23.696C222.256 23.9413 222.501 24.28 222.677 24.712C222.853 25.144 222.941 25.64 222.941 26.2C222.941 26.76 222.853 27.256 222.677 27.688C222.501 28.12 222.256 28.4613 221.941 28.712C221.632 28.9573 221.272 29.08 220.861 29.08C220.45 29.08 220.088 28.9573 219.773 28.712C219.464 28.4613 219.221 28.12 219.045 27.688C218.869 27.256 218.781 26.76 218.781 26.2ZM219.461 26.2C219.461 26.632 219.517 27.0187 219.629 27.36C219.746 27.696 219.909 27.96 220.117 28.152C220.325 28.344 220.573 28.44 220.861 28.44C221.149 28.44 221.397 28.344 221.605 28.152C221.818 27.96 221.981 27.696 222.093 27.36C222.205 27.0187 222.261 26.632 222.261 26.2C222.261 25.7627 222.205 25.376 222.093 25.04C221.981 24.704 221.818 24.44 221.605 24.248C221.397 24.056 221.149 23.96 220.861 23.96C220.573 23.96 220.325 24.056 220.117 24.248C219.909 24.44 219.746 24.704 219.629 25.04C219.517 25.376 219.461 25.7627 219.461 26.2ZM223.418 26.2C223.418 25.64 223.506 25.144 223.682 24.712C223.858 24.28 224.1 23.9413 224.41 23.696C224.724 23.4453 225.087 23.32 225.498 23.32C225.908 23.32 226.268 23.4453 226.578 23.696C226.892 23.9413 227.138 24.28 227.314 24.712C227.49 25.144 227.578 25.64 227.578 26.2C227.578 26.76 227.49 27.256 227.314 27.688C227.138 28.12 226.892 28.4613 226.578 28.712C226.268 28.9573 225.908 29.08 225.498 29.08C225.087 29.08 224.724 28.9573 224.41 28.712C224.1 28.4613 223.858 28.12 223.682 27.688C223.506 27.256 223.418 26.76 223.418 26.2ZM224.098 26.2C224.098 26.632 224.154 27.0187 224.266 27.36C224.383 27.696 224.546 27.96 224.754 28.152C224.962 28.344 225.21 28.44 225.498 28.44C225.786 28.44 226.034 28.344 226.242 28.152C226.455 27.96 226.618 27.696 226.73 27.36C226.842 27.0187 226.898 26.632 226.898 26.2C226.898 25.7627 226.842 25.376 226.73 25.04C226.618 24.704 226.455 24.44 226.242 24.248C226.034 24.056 225.786 23.96 225.498 23.96C225.21 23.96 224.962 24.056 224.754 24.248C224.546 24.44 224.383 24.704 224.266 25.04C224.154 25.376 224.098 25.7627 224.098 26.2Z" fill="#0F1938"/>
<path d="M258.698 23.4H259.554L257.978 25.48C258.069 25.4267 258.165 25.392 258.266 25.376C258.373 25.3547 258.488 25.344 258.61 25.344C258.914 25.344 259.192 25.424 259.442 25.584C259.693 25.744 259.893 25.96 260.042 26.232C260.192 26.504 260.266 26.8133 260.266 27.16C260.266 27.544 260.181 27.88 260.01 28.168C259.845 28.456 259.618 28.68 259.33 28.84C259.048 29 258.725 29.08 258.362 29.08C258.005 29.08 257.682 29 257.394 28.84C257.106 28.68 256.877 28.456 256.706 28.168C256.541 27.88 256.458 27.544 256.458 27.16C256.458 26.9307 256.49 26.7173 256.554 26.52C256.618 26.3227 256.704 26.1493 256.81 26L258.698 23.4ZM257.106 27.16C257.106 27.416 257.16 27.6427 257.266 27.84C257.378 28.032 257.528 28.184 257.714 28.296C257.906 28.408 258.122 28.464 258.362 28.464C258.602 28.464 258.816 28.408 259.002 28.296C259.194 28.184 259.344 28.032 259.45 27.84C259.562 27.6427 259.618 27.416 259.618 27.16C259.618 26.904 259.562 26.6773 259.45 26.48C259.344 26.2773 259.194 26.12 259.002 26.008C258.816 25.896 258.602 25.84 258.362 25.84C258.122 25.84 257.906 25.896 257.714 26.008C257.528 26.12 257.378 26.2773 257.266 26.48C257.16 26.6773 257.106 26.904 257.106 27.16ZM260.828 26.2C260.828 25.64 260.916 25.144 261.092 24.712C261.268 24.28 261.51 23.9413 261.82 23.696C262.134 23.4453 262.497 23.32 262.908 23.32C263.318 23.32 263.678 23.4453 263.988 23.696C264.302 23.9413 264.548 24.28 264.724 24.712C264.9 25.144 264.988 25.64 264.988 26.2C264.988 26.76 264.9 27.256 264.724 27.688C264.548 28.12 264.302 28.4613 263.988 28.712C263.678 28.9573 263.318 29.08 262.908 29.08C262.497 29.08 262.134 28.9573 261.82 28.712C261.51 28.4613 261.268 28.12 261.092 27.688C260.916 27.256 260.828 26.76 260.828 26.2ZM261.508 26.2C261.508 26.632 261.564 27.0187 261.676 27.36C261.793 27.696 261.956 27.96 262.164 28.152C262.372 28.344 262.62 28.44 262.908 28.44C263.196 28.44 263.444 28.344 263.652 28.152C263.865 27.96 264.028 27.696 264.14 27.36C264.252 27.0187 264.308 26.632 264.308 26.2C264.308 25.7627 264.252 25.376 264.14 25.04C264.028 24.704 263.865 24.44 263.652 24.248C263.444 24.056 263.196 23.96 262.908 23.96C262.62 23.96 262.372 24.056 262.164 24.248C261.956 24.44 261.793 24.704 261.676 25.04C261.564 25.376 261.508 25.7627 261.508 26.2ZM265.465 26.2C265.465 25.64 265.553 25.144 265.729 24.712C265.905 24.28 266.147 23.9413 266.457 23.696C266.771 23.4453 267.134 23.32 267.545 23.32C267.955 23.32 268.315 23.4453 268.625 23.696C268.939 23.9413 269.185 24.28 269.361 24.712C269.537 25.144 269.625 25.64 269.625 26.2C269.625 26.76 269.537 27.256 269.361 27.688C269.185 28.12 268.939 28.4613 268.625 28.712C268.315 28.9573 267.955 29.08 267.545 29.08C267.134 29.08 266.771 28.9573 266.457 28.712C266.147 28.4613 265.905 28.12 265.729 27.688C265.553 27.256 265.465 26.76 265.465 26.2ZM266.145 26.2C266.145 26.632 266.201 27.0187 266.313 27.36C266.43 27.696 266.593 27.96 266.801 28.152C267.009 28.344 267.257 28.44 267.545 28.44C267.833 28.44 268.081 28.344 268.289 28.152C268.502 27.96 268.665 27.696 268.777 27.36C268.889 27.0187 268.945 26.632 268.945 26.2C268.945 25.7627 268.889 25.376 268.777 25.04C268.665 24.704 268.502 24.44 268.289 24.248C268.081 24.056 267.833 23.96 267.545 23.96C267.257 23.96 267.009 24.056 266.801 24.248C266.593 24.44 266.43 24.704 266.313 25.04C266.201 25.376 266.145 25.7627 266.145 26.2Z" fill="#0F1938"/>
<path d="M298.502 24.04V23.4H302.422L299.742 29H299.03L301.406 24.04H298.502ZM302.625 26.2C302.625 25.64 302.713 25.144 302.889 24.712C303.065 24.28 303.307 23.9413 303.617 23.696C303.931 23.4453 304.294 23.32 304.705 23.32C305.115 23.32 305.475 23.4453 305.785 23.696C306.099 23.9413 306.345 24.28 306.521 24.712C306.697 25.144 306.785 25.64 306.785 26.2C306.785 26.76 306.697 27.256 306.521 27.688C306.345 28.12 306.099 28.4613 305.785 28.712C305.475 28.9573 305.115 29.08 304.705 29.08C304.294 29.08 303.931 28.9573 303.617 28.712C303.307 28.4613 303.065 28.12 302.889 27.688C302.713 27.256 302.625 26.76 302.625 26.2ZM303.305 26.2C303.305 26.632 303.361 27.0187 303.473 27.36C303.59 27.696 303.753 27.96 303.961 28.152C304.169 28.344 304.417 28.44 304.705 28.44C304.993 28.44 305.241 28.344 305.449 28.152C305.662 27.96 305.825 27.696 305.937 27.36C306.049 27.0187 306.105 26.632 306.105 26.2C306.105 25.7627 306.049 25.376 305.937 25.04C305.825 24.704 305.662 24.44 305.449 24.248C305.241 24.056 304.993 23.96 304.705 23.96C304.417 23.96 304.169 24.056 303.961 24.248C303.753 24.44 303.59 24.704 303.473 25.04C303.361 25.376 303.305 25.7627 303.305 26.2ZM307.262 26.2C307.262 25.64 307.35 25.144 307.526 24.712C307.702 24.28 307.944 23.9413 308.254 23.696C308.568 23.4453 308.931 23.32 309.342 23.32C309.752 23.32 310.112 23.4453 310.422 23.696C310.736 23.9413 310.982 24.28 311.158 24.712C311.334 25.144 311.422 25.64 311.422 26.2C311.422 26.76 311.334 27.256 311.158 27.688C310.982 28.12 310.736 28.4613 310.422 28.712C310.112 28.9573 309.752 29.08 309.342 29.08C308.931 29.08 308.568 28.9573 308.254 28.712C307.944 28.4613 307.702 28.12 307.526 27.688C307.35 27.256 307.262 26.76 307.262 26.2ZM307.942 26.2C307.942 26.632 307.998 27.0187 308.11 27.36C308.227 27.696 308.39 27.96 308.598 28.152C308.806 28.344 309.054 28.44 309.342 28.44C309.63 28.44 309.878 28.344 310.086 28.152C310.299 27.96 310.462 27.696 310.574 27.36C310.686 27.0187 310.742 26.632 310.742 26.2C310.742 25.7627 310.686 25.376 310.574 25.04C310.462 24.704 310.299 24.44 310.086 24.248C309.878 24.056 309.63 23.96 309.342 23.96C309.054 23.96 308.806 24.056 308.598 24.248C308.39 24.44 308.227 24.704 308.11 25.04C307.998 25.376 307.942 25.7627 307.942 26.2Z" fill="#0F1938"/>
<path d="M265.5 111L265.5 85" stroke="#0F1938"/>
<path d="M155.5 111L155.5 88" stroke="#0F1938"/>
</svg>
