<svg width="20" height="20" viewBox="0 0 20 20" fill="none" xmlns="http://www.w3.org/2000/svg">
<path d="M17 9L13 8.5L11.5 8H10.75L7.09375 3.375H8.3125C8.6875 3.375 9 3.3125 9 3.1875C9 3.09375 8.6875 3 8.3125 3H4.75V3.375H5.25V8.5H3.75L1.65625 6H0.5625L0.25 6.34375V8.5H0.5V9H2V9.09375L0 9.34375V10.6875L2 10.9375V11H0.5V11.5H0.25V13.6875L0.5625 14H1.65625L3.75 11.5H5.25V16.625H4.75V17H8.3125C8.6875 17 9 16.9375 9 16.8125C9 16.7188 8.6875 16.625 8.3125 16.625H7.09375L10.75 12H11.5L13 11.5L17 11C20 10.3438 20 10.1875 20 10C20 9.84375 20 9.6875 17 9Z" fill="#A9B6C6"/>
</svg>
