<svg width="299" height="196" viewBox="0 0 299 196" fill="none" xmlns="http://www.w3.org/2000/svg">
<circle cx="67.5" cy="22.5" r="22.5" fill="#3749A9"/>
<circle opacity="0.3" cx="67.5" cy="78.5" r="22.5" fill="#3749A9"/>
<path d="M118.48 20C120.928 20 122.68 18.308 122.68 15.8C122.68 13.292 120.928 11.6 118.48 11.6H115.96V20H118.48ZM118.48 12.62C120.376 12.62 121.66 13.844 121.66 15.8C121.66 17.756 120.376 18.98 118.48 18.98H116.98V12.62H118.48ZM124.224 15.752C124.476 15.56 125.052 15.2 125.88 15.2C126.564 15.2 127.128 15.416 127.128 16.172V16.976C126.804 16.772 126.288 16.568 125.556 16.568C124.2 16.568 123.396 17.276 123.396 18.344C123.396 19.472 124.284 20.12 125.304 20.12C125.976 20.12 126.768 19.844 127.128 19.256V20H128.088V16.04C128.088 14.972 127.212 14.36 125.928 14.36C124.908 14.36 124.176 14.744 123.756 15.044L124.224 15.752ZM124.368 18.296C124.368 17.696 124.776 17.324 125.712 17.324C126.228 17.324 126.684 17.42 127.128 17.636V17.84C127.128 18.716 126.432 19.292 125.556 19.292C124.848 19.292 124.368 18.932 124.368 18.296ZM128.754 14.48V15.38H129.654V20H130.614V15.38H131.514V14.48H130.614V12.56H129.654V14.48H128.754ZM134.492 20.12C135.668 20.12 136.544 19.652 137.12 18.716L136.34 18.224C135.932 18.896 135.356 19.22 134.612 19.22C133.58 19.22 132.944 18.596 132.86 17.48H137.204C137.204 17.456 137.216 17.312 137.216 17.192C137.216 15.44 136.232 14.36 134.612 14.36C132.98 14.36 131.876 15.524 131.876 17.24C131.876 18.944 132.944 20.12 134.492 20.12ZM134.612 15.2C135.5 15.2 136.1 15.776 136.172 16.664H132.896C133.064 15.728 133.664 15.2 134.612 15.2ZM141.952 16.64V20H142.912V16.52C142.912 15.188 142.18 14.36 141.016 14.36C140.296 14.36 139.744 14.672 139.372 15.344V14.48H138.412V20H139.372V16.64C139.372 15.824 139.936 15.26 140.776 15.26C141.544 15.26 141.952 15.728 141.952 16.64ZM143.757 14.48V15.38H144.657V20H145.617V15.38H146.517V14.48H145.617V12.56H144.657V14.48H143.757ZM151.74 14.48H150.66L149.148 18.284L147.6 14.48H146.46L148.572 19.22L147.06 22.64H148.14L151.74 14.48ZM153.425 22.64V19.052C153.833 19.736 154.493 20.12 155.309 20.12C156.809 20.12 158.045 19.028 158.045 17.24C158.045 15.452 156.809 14.36 155.309 14.36C154.493 14.36 153.833 14.744 153.425 15.428V14.48H152.465V22.64H153.425ZM157.073 17.24C157.073 18.512 156.209 19.22 155.189 19.22C154.349 19.22 153.425 18.512 153.425 17.24C153.425 15.968 154.349 15.26 155.189 15.26C156.209 15.26 157.073 15.968 157.073 17.24ZM161.385 20.12C162.561 20.12 163.437 19.652 164.013 18.716L163.233 18.224C162.825 18.896 162.249 19.22 161.505 19.22C160.473 19.22 159.837 18.596 159.753 17.48H164.097C164.097 17.456 164.109 17.312 164.109 17.192C164.109 15.44 163.125 14.36 161.505 14.36C159.873 14.36 158.769 15.524 158.769 17.24C158.769 18.944 159.837 20.12 161.385 20.12ZM161.505 15.2C162.393 15.2 162.993 15.776 163.065 16.664H159.789C159.957 15.728 160.557 15.2 161.505 15.2ZM168.844 16.64V20H169.804V16.52C169.804 15.188 169.072 14.36 167.908 14.36C167.188 14.36 166.636 14.672 166.264 15.344V14.48H165.304V20H166.264V16.64C166.264 15.824 166.828 15.26 167.668 15.26C168.436 15.26 168.844 15.728 168.844 16.64ZM172.365 18.68L171.309 21.788L172.005 22.04L173.325 19.04L172.365 18.68ZM178.058 17.24C178.058 19.028 179.294 20.12 180.794 20.12C181.61 20.12 182.27 19.736 182.678 19.052V20H183.638V10.64H182.678V15.428C182.27 14.744 181.61 14.36 180.794 14.36C179.294 14.36 178.058 15.452 178.058 17.24ZM179.03 17.24C179.03 15.968 179.894 15.26 180.914 15.26C181.754 15.26 182.678 15.968 182.678 17.24C182.678 18.512 181.754 19.22 180.914 19.22C179.894 19.22 179.03 18.512 179.03 17.24ZM185.262 12.2C185.262 12.56 185.562 12.86 185.922 12.86C186.282 12.86 186.582 12.56 186.582 12.2C186.582 11.84 186.282 11.54 185.922 11.54C185.562 11.54 185.262 11.84 185.262 12.2ZM185.442 14.48V20H186.402V14.48H185.442ZM190.395 20.12C191.571 20.12 192.447 19.652 193.023 18.716L192.243 18.224C191.835 18.896 191.259 19.22 190.515 19.22C189.483 19.22 188.847 18.596 188.763 17.48H193.107C193.107 17.456 193.119 17.312 193.119 17.192C193.119 15.44 192.135 14.36 190.515 14.36C188.883 14.36 187.779 15.524 187.779 17.24C187.779 18.944 188.847 20.12 190.395 20.12ZM190.515 15.2C191.403 15.2 192.003 15.776 192.075 16.664H188.799C188.967 15.728 189.567 15.2 190.515 15.2ZM200.493 15.38L197.073 20H201.993V19.1H198.813L202.233 14.48H197.433V15.38H200.493ZM204.035 17.84V14.48H203.075V17.96C203.075 19.28 203.819 20.12 204.971 20.12C205.703 20.12 206.243 19.796 206.615 19.136V20H207.575V14.48H206.615V17.84C206.615 18.656 206.051 19.22 205.211 19.22C204.443 19.22 204.035 18.728 204.035 17.84ZM212.257 17.24C212.257 19.028 213.493 20.12 214.993 20.12C215.809 20.12 216.469 19.736 216.877 19.052V20H217.837V10.64H216.877V15.428C216.469 14.744 215.809 14.36 214.993 14.36C213.493 14.36 212.257 15.452 212.257 17.24ZM213.229 17.24C213.229 15.968 214.093 15.26 215.113 15.26C215.953 15.26 216.877 15.968 216.877 17.24C216.877 18.512 215.953 19.22 215.113 19.22C214.093 19.22 213.229 18.512 213.229 17.24ZM219.461 12.2C219.461 12.56 219.761 12.86 220.121 12.86C220.481 12.86 220.781 12.56 220.781 12.2C220.781 11.84 220.481 11.54 220.121 11.54C219.761 11.54 219.461 11.84 219.461 12.2ZM219.641 14.48V20H220.601V14.48H219.641ZM224.594 20.12C225.77 20.12 226.646 19.652 227.222 18.716L226.442 18.224C226.034 18.896 225.458 19.22 224.714 19.22C223.682 19.22 223.046 18.596 222.962 17.48H227.306C227.306 17.456 227.318 17.312 227.318 17.192C227.318 15.44 226.334 14.36 224.714 14.36C223.082 14.36 221.978 15.524 221.978 17.24C221.978 18.944 223.046 20.12 224.594 20.12ZM224.714 15.2C225.602 15.2 226.202 15.776 226.274 16.664H222.998C223.166 15.728 223.766 15.2 224.714 15.2ZM228.742 18.308L227.986 18.776C228.286 19.436 229.09 20.12 230.194 20.12C231.322 20.12 232.09 19.4 232.09 18.44C232.09 17.456 231.31 17.084 230.35 16.688C229.762 16.448 229.198 16.196 229.198 15.752C229.198 15.38 229.534 15.212 229.93 15.212C230.506 15.212 230.974 15.524 231.274 15.932L232.042 15.44C231.706 14.828 230.926 14.36 230.05 14.36C229.15 14.36 228.262 14.828 228.262 15.812C228.262 16.784 229.114 17.192 229.846 17.468C230.482 17.708 231.118 17.972 231.118 18.548C231.118 18.98 230.782 19.244 230.242 19.244C229.558 19.244 229.078 18.824 228.742 18.308ZM235.37 20.12C236.546 20.12 237.422 19.652 237.998 18.716L237.218 18.224C236.81 18.896 236.234 19.22 235.49 19.22C234.458 19.22 233.822 18.596 233.738 17.48H238.082C238.082 17.456 238.094 17.312 238.094 17.192C238.094 15.44 237.11 14.36 235.49 14.36C233.858 14.36 232.754 15.524 232.754 17.24C232.754 18.944 233.822 20.12 235.37 20.12ZM235.49 15.2C236.378 15.2 236.978 15.776 237.05 16.664H233.774C233.942 15.728 234.542 15.2 235.49 15.2ZM241.918 15.536L242.446 14.744C242.158 14.444 241.81 14.36 241.414 14.36C240.994 14.36 240.562 14.648 240.25 15.116V14.48H239.29V20H240.25V16.64C240.25 15.848 240.454 15.26 241.174 15.26C241.486 15.26 241.654 15.344 241.918 15.536ZM246.82 11.6V20H247.84V15.92L251.32 20H252.58L248.764 15.536L252.4 11.6H251.14L247.84 15.212V11.6H246.82ZM253.714 15.752C253.966 15.56 254.542 15.2 255.37 15.2C256.054 15.2 256.618 15.416 256.618 16.172V16.976C256.294 16.772 255.778 16.568 255.046 16.568C253.69 16.568 252.886 17.276 252.886 18.344C252.886 19.472 253.774 20.12 254.794 20.12C255.466 20.12 256.258 19.844 256.618 19.256V20H257.578V16.04C257.578 14.972 256.702 14.36 255.418 14.36C254.398 14.36 253.666 14.744 253.246 15.044L253.714 15.752ZM253.858 18.296C253.858 17.696 254.266 17.324 255.202 17.324C255.718 17.324 256.174 17.42 256.618 17.636V17.84C256.618 18.716 255.922 19.292 255.046 19.292C254.338 19.292 253.858 18.932 253.858 18.296ZM258.243 14.48V15.38H259.143V20H260.103V15.38H261.003V14.48H260.103V12.56H259.143V14.48H258.243ZM263.982 20.12C265.158 20.12 266.034 19.652 266.61 18.716L265.83 18.224C265.422 18.896 264.846 19.22 264.102 19.22C263.07 19.22 262.434 18.596 262.35 17.48H266.694C266.694 17.456 266.706 17.312 266.706 17.192C266.706 15.44 265.722 14.36 264.102 14.36C262.47 14.36 261.366 15.524 261.366 17.24C261.366 18.944 262.434 20.12 263.982 20.12ZM264.102 15.2C264.99 15.2 265.59 15.776 265.662 16.664H262.386C262.554 15.728 263.154 15.2 264.102 15.2ZM267.53 20.36C267.53 21.788 268.646 22.76 270.266 22.76C271.646 22.76 273.002 21.788 273.002 19.88V14.48H272.042V15.428C271.634 14.744 270.974 14.36 270.158 14.36C268.658 14.36 267.422 15.452 267.422 17.24C267.422 19.028 268.658 20.12 270.158 20.12C270.974 20.12 271.634 19.736 272.042 19.052V19.88C272.042 21.272 271.106 21.86 270.266 21.86C269.186 21.86 268.502 21.152 268.502 20.36H267.53ZM268.394 17.24C268.394 15.968 269.258 15.26 270.278 15.26C271.118 15.26 272.042 15.968 272.042 17.24C272.042 18.512 271.118 19.22 270.278 19.22C269.258 19.22 268.394 18.512 268.394 17.24ZM274.145 17.24C274.145 18.908 275.381 20.12 277.001 20.12C278.621 20.12 279.857 18.908 279.857 17.24C279.857 15.572 278.621 14.36 277.001 14.36C275.381 14.36 274.145 15.572 274.145 17.24ZM275.117 17.24C275.117 16.088 275.921 15.26 277.001 15.26C278.081 15.26 278.885 16.088 278.885 17.24C278.885 18.392 278.081 19.22 277.001 19.22C275.921 19.22 275.117 18.392 275.117 17.24ZM283.684 15.536L284.212 14.744C283.924 14.444 283.576 14.36 283.18 14.36C282.76 14.36 282.328 14.648 282.016 15.116V14.48H281.056V20H282.016V16.64C282.016 15.848 282.22 15.26 282.94 15.26C283.252 15.26 283.42 15.344 283.684 15.536ZM285.049 12.2C285.049 12.56 285.349 12.86 285.709 12.86C286.069 12.86 286.369 12.56 286.369 12.2C286.369 11.84 286.069 11.54 285.709 11.54C285.349 11.54 285.049 11.84 285.049 12.2ZM285.229 14.48V20H286.189V14.48H285.229ZM290.183 20.12C291.359 20.12 292.235 19.652 292.811 18.716L292.031 18.224C291.623 18.896 291.047 19.22 290.303 19.22C289.271 19.22 288.635 18.596 288.551 17.48H292.895C292.895 17.456 292.907 17.312 292.907 17.192C292.907 15.44 291.923 14.36 290.303 14.36C288.671 14.36 287.567 15.524 287.567 17.24C287.567 18.944 288.635 20.12 290.183 20.12ZM290.303 15.2C291.191 15.2 291.791 15.776 291.863 16.664H288.587C288.755 15.728 289.355 15.2 290.303 15.2ZM118.6 29.38L115.18 34H120.1V33.1H116.92L120.34 28.48H115.54V29.38H118.6ZM123.916 26.98C123.916 27.34 124.216 27.64 124.576 27.64C124.936 27.64 125.236 27.34 125.236 26.98C125.236 26.62 124.936 26.32 124.576 26.32C124.216 26.32 123.916 26.62 123.916 26.98ZM121.516 26.98C121.516 27.34 121.816 27.64 122.176 27.64C122.536 27.64 122.836 27.34 122.836 26.98C122.836 26.62 122.536 26.32 122.176 26.32C121.816 26.32 121.516 26.62 121.516 26.98ZM121.732 29.776C121.996 29.584 122.584 29.2 123.376 29.2C123.976 29.2 124.54 29.488 124.54 30.04V30.964C124.228 30.76 123.76 30.568 123.112 30.568C121.78 30.568 120.76 31.216 120.76 32.5C120.76 33.508 121.516 34.12 122.656 34.12C123.484 34.12 124.204 33.796 124.54 33.208V34H125.5V30.04C125.5 28.972 124.636 28.36 123.376 28.36C122.38 28.36 121.672 28.744 121.264 29.044L121.732 29.776ZM121.732 32.38C121.732 31.708 122.188 31.3 123.16 31.3C123.688 31.3 124.12 31.408 124.54 31.624V31.84C124.54 32.872 123.856 33.268 122.896 33.268C122.128 33.268 121.732 32.968 121.732 32.38ZM130.544 30.64V34H131.504V30.52C131.504 29.092 130.748 28.36 129.608 28.36C128.888 28.36 128.3 28.744 127.964 29.356V24.64H127.004V34H127.964V30.64C127.964 29.848 128.528 29.26 129.368 29.26C130.148 29.26 130.544 29.728 130.544 30.64ZM133.188 24.64V34H134.148V24.64H133.188ZM137.97 34.12C139.146 34.12 140.022 33.652 140.598 32.716L139.818 32.224C139.41 32.896 138.834 33.22 138.09 33.22C137.058 33.22 136.422 32.596 136.338 31.48H140.682C140.682 31.456 140.694 31.312 140.694 31.192C140.694 29.44 139.71 28.36 138.09 28.36C136.458 28.36 135.354 29.524 135.354 31.24C135.354 32.944 136.422 34.12 137.97 34.12ZM138.09 29.2C138.978 29.2 139.578 29.776 139.65 30.664H136.374C136.542 29.728 137.142 29.2 138.09 29.2ZM145.43 30.64V34H146.39V30.52C146.39 29.188 145.658 28.36 144.494 28.36C143.774 28.36 143.222 28.672 142.85 29.344V28.48H141.89V34H142.85V30.64C142.85 29.824 143.414 29.26 144.254 29.26C145.022 29.26 145.43 29.728 145.43 30.64ZM148.315 33.52C148.315 33.88 148.615 34.18 148.975 34.18C149.335 34.18 149.635 33.88 149.635 33.52C149.635 33.16 149.335 32.86 148.975 32.86C148.615 32.86 148.315 33.16 148.315 33.52Z" fill="#0F1938"/>
<path d="M118.48 133C120.928 133 122.68 131.308 122.68 128.8C122.68 126.292 120.928 124.6 118.48 124.6H115.96V133H118.48ZM118.48 125.62C120.376 125.62 121.66 126.844 121.66 128.8C121.66 130.756 120.376 131.98 118.48 131.98H116.98V125.62H118.48ZM123.936 125.2C123.936 125.56 124.236 125.86 124.596 125.86C124.956 125.86 125.256 125.56 125.256 125.2C125.256 124.84 124.956 124.54 124.596 124.54C124.236 124.54 123.936 124.84 123.936 125.2ZM124.116 127.48V133H125.076V127.48H124.116ZM129.069 133.12C130.245 133.12 131.121 132.652 131.697 131.716L130.917 131.224C130.509 131.896 129.933 132.22 129.189 132.22C128.157 132.22 127.521 131.596 127.437 130.48H131.781C131.781 130.456 131.793 130.312 131.793 130.192C131.793 128.44 130.809 127.36 129.189 127.36C127.557 127.36 126.453 128.524 126.453 130.24C126.453 131.944 127.521 133.12 129.069 133.12ZM129.189 128.2C130.077 128.2 130.677 128.776 130.749 129.664H127.473C127.641 128.728 128.241 128.2 129.189 128.2ZM140.427 129.7H143.223C142.947 131.008 141.975 132.1 140.307 132.1C138.531 132.1 137.127 130.756 137.127 128.8C137.127 126.844 138.531 125.5 140.307 125.5C141.591 125.5 142.551 126.04 143.079 126.928L143.799 126.268C143.079 125.104 141.855 124.48 140.307 124.48C137.859 124.48 136.047 126.292 136.047 128.8C136.047 131.308 137.859 133.12 140.307 133.12C142.875 133.12 144.327 131.068 144.327 128.74H140.427V129.7ZM148.28 128.536L148.808 127.744C148.52 127.444 148.172 127.36 147.776 127.36C147.356 127.36 146.924 127.648 146.612 128.116V127.48H145.652V133H146.612V129.64C146.612 128.848 146.816 128.26 147.536 128.26C147.848 128.26 148.016 128.344 148.28 128.536ZM152.385 125.62C152.385 125.98 152.685 126.28 153.045 126.28C153.405 126.28 153.705 125.98 153.705 125.62C153.705 125.26 153.405 124.96 153.045 124.96C152.685 124.96 152.385 125.26 152.385 125.62ZM149.985 125.62C149.985 125.98 150.285 126.28 150.645 126.28C151.005 126.28 151.305 125.98 151.305 125.62C151.305 125.26 151.005 124.96 150.645 124.96C150.285 124.96 149.985 125.26 149.985 125.62ZM148.989 130.24C148.989 131.908 150.225 133.12 151.845 133.12C153.465 133.12 154.701 131.908 154.701 130.24C154.701 128.572 153.465 127.36 151.845 127.36C150.225 127.36 148.989 128.572 148.989 130.24ZM149.961 130.24C149.961 129.088 150.765 128.26 151.845 128.26C152.925 128.26 153.729 129.088 153.729 130.24C153.729 131.392 152.925 132.22 151.845 132.22C150.765 132.22 149.961 131.392 149.961 130.24ZM159.104 133.144C160.412 133.144 161.432 132.112 161.432 130.816C161.432 129.088 159.44 129.016 159.44 128.176C159.44 127.168 160.76 126.928 160.76 125.296C160.76 124.024 159.848 123.472 158.552 123.472C156.92 123.472 155.864 124.408 155.864 125.704V133.024H156.836L156.824 125.944C156.824 124.816 157.484 124.348 158.396 124.348C159.104 124.348 159.752 124.6 159.752 125.38C159.752 126.628 158.384 127.048 158.384 128.176C158.384 129.544 160.424 129.604 160.424 130.948C160.424 131.644 159.896 132.232 159.176 132.232C158.708 132.232 158.288 131.98 157.928 131.608L157.34 132.328C157.772 132.808 158.36 133.144 159.104 133.144ZM164.701 133.12C165.877 133.12 166.753 132.652 167.329 131.716L166.549 131.224C166.141 131.896 165.565 132.22 164.821 132.22C163.789 132.22 163.153 131.596 163.069 130.48H167.413C167.413 130.456 167.425 130.312 167.425 130.192C167.425 128.44 166.441 127.36 164.821 127.36C163.189 127.36 162.085 128.524 162.085 130.24C162.085 131.944 163.153 133.12 164.701 133.12ZM164.821 128.2C165.709 128.2 166.309 128.776 166.381 129.664H163.105C163.273 128.728 163.873 128.2 164.821 128.2ZM171.618 130.24C171.618 132.028 172.854 133.12 174.354 133.12C175.17 133.12 175.83 132.736 176.238 132.052V133H177.198V123.64H176.238V128.428C175.83 127.744 175.17 127.36 174.354 127.36C172.854 127.36 171.618 128.452 171.618 130.24ZM172.59 130.24C172.59 128.968 173.454 128.26 174.474 128.26C175.314 128.26 176.238 128.968 176.238 130.24C176.238 131.512 175.314 132.22 174.474 132.22C173.454 132.22 172.59 131.512 172.59 130.24ZM180.958 133.12C182.134 133.12 183.01 132.652 183.586 131.716L182.806 131.224C182.398 131.896 181.822 132.22 181.078 132.22C180.046 132.22 179.41 131.596 179.326 130.48H183.67C183.67 130.456 183.682 130.312 183.682 130.192C183.682 128.44 182.698 127.36 181.078 127.36C179.446 127.36 178.342 128.524 178.342 130.24C178.342 131.944 179.41 133.12 180.958 133.12ZM181.078 128.2C181.966 128.2 182.566 128.776 182.638 129.664H179.362C179.53 128.728 180.13 128.2 181.078 128.2ZM187.506 128.536L188.034 127.744C187.746 127.444 187.398 127.36 187.002 127.36C186.582 127.36 186.15 127.648 185.838 128.116V127.48H184.878V133H185.838V129.64C185.838 128.848 186.042 128.26 186.762 128.26C187.074 128.26 187.242 128.344 187.506 128.536ZM192.409 124.6V133H193.429V128.92L196.909 133H198.169L194.353 128.536L197.989 124.6H196.729L193.429 128.212V124.6H192.409ZM201.642 128.536L202.17 127.744C201.882 127.444 201.534 127.36 201.138 127.36C200.718 127.36 200.286 127.648 199.974 128.116V127.48H199.014V133H199.974V129.64C199.974 128.848 200.178 128.26 200.898 128.26C201.21 128.26 201.378 128.344 201.642 128.536ZM204.968 133.12C206.144 133.12 207.02 132.652 207.596 131.716L206.816 131.224C206.408 131.896 205.832 132.22 205.088 132.22C204.056 132.22 203.42 131.596 203.336 130.48H207.68C207.68 130.456 207.692 130.312 207.692 130.192C207.692 128.44 206.708 127.36 205.088 127.36C203.456 127.36 202.352 128.524 202.352 130.24C202.352 131.944 203.42 133.12 204.968 133.12ZM205.088 128.2C205.976 128.2 206.576 128.776 206.648 129.664H203.372C203.54 128.728 204.14 128.2 205.088 128.2ZM208.887 125.2C208.887 125.56 209.187 125.86 209.547 125.86C209.907 125.86 210.207 125.56 210.207 125.2C210.207 124.84 209.907 124.54 209.547 124.54C209.187 124.54 208.887 124.84 208.887 125.2ZM209.067 127.48V133H210.027V127.48H209.067ZM212.113 131.308L211.357 131.776C211.657 132.436 212.461 133.12 213.565 133.12C214.693 133.12 215.461 132.4 215.461 131.44C215.461 130.456 214.681 130.084 213.721 129.688C213.133 129.448 212.569 129.196 212.569 128.752C212.569 128.38 212.905 128.212 213.301 128.212C213.877 128.212 214.345 128.524 214.645 128.932L215.413 128.44C215.077 127.828 214.297 127.36 213.421 127.36C212.521 127.36 211.633 127.828 211.633 128.812C211.633 129.784 212.485 130.192 213.217 130.468C213.853 130.708 214.489 130.972 214.489 131.548C214.489 131.98 214.153 132.244 213.613 132.244C212.929 132.244 212.449 131.824 212.113 131.308ZM218.74 133.12C219.916 133.12 220.792 132.652 221.368 131.716L220.588 131.224C220.18 131.896 219.604 132.22 218.86 132.22C217.828 132.22 217.192 131.596 217.108 130.48H221.452C221.452 130.456 221.464 130.312 221.464 130.192C221.464 128.44 220.48 127.36 218.86 127.36C217.228 127.36 216.124 128.524 216.124 130.24C216.124 131.944 217.192 133.12 218.74 133.12ZM218.86 128.2C219.748 128.2 220.348 128.776 220.42 129.664H217.144C217.312 128.728 217.912 128.2 218.86 128.2ZM228.766 128.536L229.294 127.744C229.006 127.444 228.658 127.36 228.262 127.36C227.842 127.36 227.41 127.648 227.098 128.116V127.48H226.138V133H227.098V129.64C227.098 128.848 227.302 128.26 228.022 128.26C228.334 128.26 228.502 128.344 228.766 128.536ZM232.091 133.12C233.267 133.12 234.143 132.652 234.719 131.716L233.939 131.224C233.531 131.896 232.955 132.22 232.211 132.22C231.179 132.22 230.543 131.596 230.459 130.48H234.803C234.803 130.456 234.815 130.312 234.815 130.192C234.815 128.44 233.831 127.36 232.211 127.36C230.579 127.36 229.475 128.524 229.475 130.24C229.475 131.944 230.543 133.12 232.091 133.12ZM232.211 128.2C233.099 128.2 233.699 128.776 233.771 129.664H230.495C230.663 128.728 231.263 128.2 232.211 128.2ZM236.911 135.64V132.052C237.319 132.736 237.979 133.12 238.795 133.12C240.295 133.12 241.531 132.028 241.531 130.24C241.531 128.452 240.295 127.36 238.795 127.36C237.979 127.36 237.319 127.744 236.911 128.428V127.48H235.951V135.64H236.911ZM240.559 130.24C240.559 131.512 239.695 132.22 238.675 132.22C237.835 132.22 236.911 131.512 236.911 130.24C236.911 128.968 237.835 128.26 238.675 128.26C239.695 128.26 240.559 128.968 240.559 130.24ZM245.363 128.536L245.891 127.744C245.603 127.444 245.255 127.36 244.859 127.36C244.439 127.36 244.007 127.648 243.695 128.116V127.48H242.735V133H243.695V129.64C243.695 128.848 243.899 128.26 244.619 128.26C244.931 128.26 245.099 128.344 245.363 128.536ZM249.344 125.98C249.344 126.34 249.644 126.64 250.004 126.64C250.364 126.64 250.664 126.34 250.664 125.98C250.664 125.62 250.364 125.32 250.004 125.32C249.644 125.32 249.344 125.62 249.344 125.98ZM246.944 125.98C246.944 126.34 247.244 126.64 247.604 126.64C247.964 126.64 248.264 126.34 248.264 125.98C248.264 125.62 247.964 125.32 247.604 125.32C247.244 125.32 246.944 125.62 246.944 125.98ZM247.16 128.776C247.424 128.584 248.012 128.2 248.804 128.2C249.404 128.2 249.968 128.488 249.968 129.04V129.964C249.656 129.76 249.188 129.568 248.54 129.568C247.208 129.568 246.188 130.216 246.188 131.5C246.188 132.508 246.944 133.12 248.084 133.12C248.912 133.12 249.632 132.796 249.968 132.208V133H250.928V129.04C250.928 127.972 250.064 127.36 248.804 127.36C247.808 127.36 247.1 127.744 246.692 128.044L247.16 128.776ZM247.16 131.38C247.16 130.708 247.616 130.3 248.588 130.3C249.116 130.3 249.548 130.408 249.968 130.624V130.84C249.968 131.872 249.284 132.268 248.324 132.268C247.556 132.268 247.16 131.968 247.16 131.38ZM252.66 131.308L251.904 131.776C252.204 132.436 253.008 133.12 254.112 133.12C255.24 133.12 256.008 132.4 256.008 131.44C256.008 130.456 255.228 130.084 254.268 129.688C253.68 129.448 253.116 129.196 253.116 128.752C253.116 128.38 253.452 128.212 253.848 128.212C254.424 128.212 254.892 128.524 255.192 128.932L255.96 128.44C255.624 127.828 254.844 127.36 253.968 127.36C253.068 127.36 252.18 127.828 252.18 128.812C252.18 129.784 253.032 130.192 253.764 130.468C254.4 130.708 255.036 130.972 255.036 131.548C255.036 131.98 254.7 132.244 254.16 132.244C253.476 132.244 252.996 131.824 252.66 131.308ZM259.288 133.12C260.464 133.12 261.34 132.652 261.916 131.716L261.136 131.224C260.728 131.896 260.152 132.22 259.408 132.22C258.376 132.22 257.74 131.596 257.656 130.48H262C262 130.456 262.012 130.312 262.012 130.192C262.012 128.44 261.028 127.36 259.408 127.36C257.776 127.36 256.672 128.524 256.672 130.24C256.672 131.944 257.74 133.12 259.288 133.12ZM259.408 128.2C260.296 128.2 260.896 128.776 260.968 129.664H257.692C257.86 128.728 258.46 128.2 259.408 128.2ZM266.748 129.64V133H267.708V129.52C267.708 128.188 266.976 127.36 265.812 127.36C265.092 127.36 264.54 127.672 264.168 128.344V127.48H263.208V133H264.168V129.64C264.168 128.824 264.732 128.26 265.572 128.26C266.34 128.26 266.748 128.728 266.748 129.64ZM268.553 127.48V128.38H269.453V133H270.413V128.38H271.313V127.48H270.413V125.56H269.453V127.48H268.553ZM272.155 125.2C272.155 125.56 272.455 125.86 272.815 125.86C273.175 125.86 273.475 125.56 273.475 125.2C273.475 124.84 273.175 124.54 272.815 124.54C272.455 124.54 272.155 124.84 272.155 125.2ZM272.335 127.48V133H273.295V127.48H272.335ZM277.289 133.12C278.465 133.12 279.341 132.652 279.917 131.716L279.137 131.224C278.729 131.896 278.153 132.22 277.409 132.22C276.377 132.22 275.741 131.596 275.657 130.48H280.001C280.001 130.456 280.013 130.312 280.013 130.192C280.013 128.44 279.029 127.36 277.409 127.36C275.777 127.36 274.673 128.524 274.673 130.24C274.673 131.944 275.741 133.12 277.289 133.12ZM277.409 128.2C278.297 128.2 278.897 128.776 278.969 129.664H275.693C275.861 128.728 276.461 128.2 277.409 128.2ZM283.836 128.536L284.364 127.744C284.076 127.444 283.728 127.36 283.332 127.36C282.912 127.36 282.48 127.648 282.168 128.116V127.48H281.208V133H282.168V129.64C282.168 128.848 282.372 128.26 283.092 128.26C283.404 128.26 283.572 128.344 283.836 128.536ZM284.362 127.48V128.38H285.262V133H286.222V128.38H287.122V127.48H286.222V125.56H285.262V127.48H284.362ZM288.841 131.68L287.785 134.788L288.481 135.04L289.801 132.04L288.841 131.68ZM115.06 141.48L117.46 147.42L119.032 143.4L120.7 147.42L123.1 141.48H122.02L120.628 145.092L119.02 141.06L117.52 145.068L116.14 141.48H115.06ZM123.936 139.2C123.936 139.56 124.236 139.86 124.596 139.86C124.956 139.86 125.256 139.56 125.256 139.2C125.256 138.84 124.956 138.54 124.596 138.54C124.236 138.54 123.936 138.84 123.936 139.2ZM124.116 141.48V147H125.076V141.48H124.116ZM129.069 147.12C130.245 147.12 131.121 146.652 131.697 145.716L130.917 145.224C130.509 145.896 129.933 146.22 129.189 146.22C128.157 146.22 127.521 145.596 127.437 144.48H131.781C131.781 144.456 131.793 144.312 131.793 144.192C131.793 142.44 130.809 141.36 129.189 141.36C127.557 141.36 126.453 142.524 126.453 144.24C126.453 145.944 127.521 147.12 129.069 147.12ZM129.189 142.2C130.077 142.2 130.677 142.776 130.749 143.664H127.473C127.641 142.728 128.241 142.2 129.189 142.2ZM135.987 144.24C135.987 145.908 137.223 147.12 138.843 147.12C140.463 147.12 141.699 145.908 141.699 144.24C141.699 142.572 140.463 141.36 138.843 141.36C137.223 141.36 135.987 142.572 135.987 144.24ZM136.959 144.24C136.959 143.088 137.763 142.26 138.843 142.26C139.923 142.26 140.727 143.088 140.727 144.24C140.727 145.392 139.923 146.22 138.843 146.22C137.763 146.22 136.959 145.392 136.959 144.24ZM142.478 141.48V142.38H143.018V147H143.978V142.38H145.238V141.48H143.978V139.56C143.978 138.768 144.194 138.48 144.554 138.48C144.746 138.48 144.974 138.516 145.142 138.792L145.67 138C145.49 137.76 145.13 137.52 144.614 137.52C143.606 137.52 143.018 138.132 143.018 139.44V141.48H142.478ZM145.371 141.48V142.38H146.271V147H147.231V142.38H148.131V141.48H147.231V139.56H146.271V141.48H145.371ZM151.972 144.24C151.972 146.028 153.208 147.12 154.708 147.12C155.524 147.12 156.184 146.736 156.592 146.052V147H157.552V137.64H156.592V142.428C156.184 141.744 155.524 141.36 154.708 141.36C153.208 141.36 151.972 142.452 151.972 144.24ZM152.944 144.24C152.944 142.968 153.808 142.26 154.828 142.26C155.668 142.26 156.592 142.968 156.592 144.24C156.592 145.512 155.668 146.22 154.828 146.22C153.808 146.22 152.944 145.512 152.944 144.24ZM159.175 139.2C159.175 139.56 159.475 139.86 159.835 139.86C160.195 139.86 160.495 139.56 160.495 139.2C160.495 138.84 160.195 138.54 159.835 138.54C159.475 138.54 159.175 138.84 159.175 139.2ZM159.355 141.48V147H160.315V141.48H159.355ZM164.309 147.12C165.485 147.12 166.361 146.652 166.937 145.716L166.157 145.224C165.749 145.896 165.173 146.22 164.429 146.22C163.397 146.22 162.761 145.596 162.677 144.48H167.021C167.021 144.456 167.033 144.312 167.033 144.192C167.033 142.44 166.049 141.36 164.429 141.36C162.797 141.36 161.693 142.524 161.693 144.24C161.693 145.944 162.761 147.12 164.309 147.12ZM164.429 142.2C165.317 142.2 165.917 142.776 165.989 143.664H162.713C162.881 142.728 163.481 142.2 164.429 142.2ZM168.456 145.308L167.7 145.776C168 146.436 168.804 147.12 169.908 147.12C171.036 147.12 171.804 146.4 171.804 145.44C171.804 144.456 171.024 144.084 170.064 143.688C169.476 143.448 168.912 143.196 168.912 142.752C168.912 142.38 169.248 142.212 169.644 142.212C170.22 142.212 170.688 142.524 170.988 142.932L171.756 142.44C171.42 141.828 170.64 141.36 169.764 141.36C168.864 141.36 167.976 141.828 167.976 142.812C167.976 143.784 168.828 144.192 169.56 144.468C170.196 144.708 170.832 144.972 170.832 145.548C170.832 145.98 170.496 146.244 169.956 146.244C169.272 146.244 168.792 145.824 168.456 145.308ZM175.084 147.12C176.26 147.12 177.136 146.652 177.712 145.716L176.932 145.224C176.524 145.896 175.948 146.22 175.204 146.22C174.172 146.22 173.536 145.596 173.452 144.48H177.796C177.796 144.456 177.808 144.312 177.808 144.192C177.808 142.44 176.824 141.36 175.204 141.36C173.572 141.36 172.468 142.524 172.468 144.24C172.468 145.944 173.536 147.12 175.084 147.12ZM175.204 142.2C176.092 142.2 176.692 142.776 176.764 143.664H173.488C173.656 142.728 174.256 142.2 175.204 142.2ZM181.632 142.536L182.16 141.744C181.872 141.444 181.524 141.36 181.128 141.36C180.708 141.36 180.276 141.648 179.964 142.116V141.48H179.004V147H179.964V143.64C179.964 142.848 180.168 142.26 180.888 142.26C181.2 142.26 181.368 142.344 181.632 142.536ZM189.055 147C191.503 147 193.255 145.308 193.255 142.8C193.255 140.292 191.503 138.6 189.055 138.6H186.535V147H189.055ZM189.055 139.62C190.951 139.62 192.235 140.844 192.235 142.8C192.235 144.756 190.951 145.98 189.055 145.98H187.555V139.62H189.055ZM194.799 142.752C195.051 142.56 195.627 142.2 196.455 142.2C197.139 142.2 197.703 142.416 197.703 143.172V143.976C197.379 143.772 196.863 143.568 196.131 143.568C194.775 143.568 193.971 144.276 193.971 145.344C193.971 146.472 194.859 147.12 195.879 147.12C196.551 147.12 197.343 146.844 197.703 146.256V147H198.663V143.04C198.663 141.972 197.787 141.36 196.503 141.36C195.483 141.36 194.751 141.744 194.331 142.044L194.799 142.752ZM194.943 145.296C194.943 144.696 195.351 144.324 196.287 144.324C196.803 144.324 197.259 144.42 197.703 144.636V144.84C197.703 145.716 197.007 146.292 196.131 146.292C195.423 146.292 194.943 145.932 194.943 145.296ZM199.329 141.48V142.38H200.229V147H201.189V142.38H202.089V141.48H201.189V139.56H200.229V141.48H199.329ZM205.067 147.12C206.243 147.12 207.119 146.652 207.695 145.716L206.915 145.224C206.507 145.896 205.931 146.22 205.187 146.22C204.155 146.22 203.519 145.596 203.435 144.48H207.779C207.779 144.456 207.791 144.312 207.791 144.192C207.791 142.44 206.807 141.36 205.187 141.36C203.555 141.36 202.451 142.524 202.451 144.24C202.451 145.944 203.519 147.12 205.067 147.12ZM205.187 142.2C206.075 142.2 206.675 142.776 206.747 143.664H203.471C203.639 142.728 204.239 142.2 205.187 142.2ZM212.527 143.64V147H213.487V143.52C213.487 142.188 212.755 141.36 211.591 141.36C210.871 141.36 210.319 141.672 209.947 142.344V141.48H208.987V147H209.947V143.64C209.947 142.824 210.511 142.26 211.351 142.26C212.119 142.26 212.527 142.728 212.527 143.64ZM214.332 141.48V142.38H215.232V147H216.192V142.38H217.092V141.48H216.192V139.56H215.232V141.48H214.332ZM222.315 141.48H221.235L219.723 145.284L218.175 141.48H217.035L219.147 146.22L217.635 149.64H218.715L222.315 141.48ZM224 149.64V146.052C224.408 146.736 225.068 147.12 225.884 147.12C227.384 147.12 228.62 146.028 228.62 144.24C228.62 142.452 227.384 141.36 225.884 141.36C225.068 141.36 224.408 141.744 224 142.428V141.48H223.04V149.64H224ZM227.648 144.24C227.648 145.512 226.784 146.22 225.764 146.22C224.924 146.22 224 145.512 224 144.24C224 142.968 224.924 142.26 225.764 142.26C226.784 142.26 227.648 142.968 227.648 144.24ZM236.841 143.64V147H237.801V143.52C237.801 142.188 237.069 141.36 235.905 141.36C235.185 141.36 234.633 141.672 234.261 142.344V141.48H233.301V147H234.261V143.64C234.261 142.824 234.825 142.26 235.665 142.26C236.433 142.26 236.841 142.728 236.841 143.64ZM239.774 142.752C240.026 142.56 240.602 142.2 241.43 142.2C242.114 142.2 242.678 142.416 242.678 143.172V143.976C242.354 143.772 241.838 143.568 241.106 143.568C239.75 143.568 238.946 144.276 238.946 145.344C238.946 146.472 239.834 147.12 240.854 147.12C241.526 147.12 242.318 146.844 242.678 146.256V147H243.638V143.04C243.638 141.972 242.762 141.36 241.478 141.36C240.458 141.36 239.726 141.744 239.306 142.044L239.774 142.752ZM239.918 145.296C239.918 144.696 240.326 144.324 241.262 144.324C241.778 144.324 242.234 144.42 242.678 144.636V144.84C242.678 145.716 241.982 146.292 241.106 146.292C240.398 146.292 239.918 145.932 239.918 145.296ZM245.575 144.24C245.575 143.088 246.379 142.26 247.459 142.26C248.347 142.26 249.127 142.728 249.379 143.268V142.068C248.995 141.624 248.215 141.36 247.459 141.36C245.839 141.36 244.603 142.572 244.603 144.24C244.603 145.908 245.839 147.12 247.459 147.12C248.215 147.12 248.995 146.868 249.379 146.412V145.212C249.127 145.752 248.347 146.22 247.459 146.22C246.379 146.22 245.575 145.392 245.575 144.24ZM254.294 143.64V147H255.254V143.52C255.254 142.092 254.498 141.36 253.358 141.36C252.638 141.36 252.05 141.744 251.714 142.356V137.64H250.754V147H251.714V143.64C251.714 142.848 252.278 142.26 253.118 142.26C253.898 142.26 254.294 142.728 254.294 143.64ZM266.236 147H267.376L263.476 138.18L259.576 147H260.716L261.784 144.48H265.168L266.236 147ZM263.476 140.496L264.76 143.52H262.192L263.476 140.496ZM271.758 143.64V147H272.718V143.52C272.718 142.188 271.986 141.36 270.822 141.36C270.102 141.36 269.55 141.672 269.178 142.344V141.48H268.218V147H269.178V143.64C269.178 142.824 269.742 142.26 270.582 142.26C271.35 142.26 271.758 142.728 271.758 143.64ZM274.031 147.36C274.031 148.788 275.147 149.76 276.767 149.76C278.147 149.76 279.503 148.788 279.503 146.88V141.48H278.543V142.428C278.135 141.744 277.475 141.36 276.659 141.36C275.159 141.36 273.923 142.452 273.923 144.24C273.923 146.028 275.159 147.12 276.659 147.12C277.475 147.12 278.135 146.736 278.543 146.052V146.88C278.543 148.272 277.607 148.86 276.767 148.86C275.687 148.86 275.003 148.152 275.003 147.36H274.031ZM274.895 144.24C274.895 142.968 275.759 142.26 276.779 142.26C277.619 142.26 278.543 142.968 278.543 144.24C278.543 145.512 277.619 146.22 276.779 146.22C275.759 146.22 274.895 145.512 274.895 144.24ZM281.414 142.752C281.666 142.56 282.242 142.2 283.07 142.2C283.754 142.2 284.318 142.416 284.318 143.172V143.976C283.994 143.772 283.478 143.568 282.746 143.568C281.39 143.568 280.586 144.276 280.586 145.344C280.586 146.472 281.474 147.12 282.494 147.12C283.166 147.12 283.958 146.844 284.318 146.256V147H285.278V143.04C285.278 141.972 284.402 141.36 283.118 141.36C282.098 141.36 281.366 141.744 280.946 142.044L281.414 142.752ZM281.558 145.296C281.558 144.696 281.966 144.324 282.902 144.324C283.418 144.324 283.874 144.42 284.318 144.636V144.84C284.318 145.716 283.622 146.292 282.746 146.292C282.038 146.292 281.558 145.932 281.558 145.296ZM292.304 144.24C292.304 142.452 291.068 141.36 289.568 141.36C288.752 141.36 288.092 141.744 287.684 142.428V137.64H286.724V147H287.684V146.052C288.092 146.736 288.752 147.12 289.568 147.12C291.068 147.12 292.304 146.028 292.304 144.24ZM291.332 144.24C291.332 145.512 290.468 146.22 289.448 146.22C288.608 146.22 287.684 145.512 287.684 144.24C287.684 142.968 288.608 142.26 289.448 142.26C290.468 142.26 291.332 142.968 291.332 144.24ZM295.643 147.12C296.819 147.12 297.695 146.652 298.271 145.716L297.491 145.224C297.083 145.896 296.507 146.22 295.763 146.22C294.731 146.22 294.095 145.596 294.011 144.48H298.355C298.355 144.456 298.367 144.312 298.367 144.192C298.367 142.44 297.383 141.36 295.763 141.36C294.131 141.36 293.027 142.524 293.027 144.24C293.027 145.944 294.095 147.12 295.643 147.12ZM295.763 142.2C296.651 142.2 297.251 142.776 297.323 143.664H294.047C294.215 142.728 294.815 142.2 295.763 142.2ZM115.9 153.2C115.9 153.56 116.2 153.86 116.56 153.86C116.92 153.86 117.22 153.56 117.22 153.2C117.22 152.84 116.92 152.54 116.56 152.54C116.2 152.54 115.9 152.84 115.9 153.2ZM116.08 155.48V161H117.04V155.48H116.08ZM122.437 157.64V161H123.397V157.52C123.397 156.188 122.665 155.36 121.501 155.36C120.781 155.36 120.229 155.672 119.857 156.344V155.48H118.897V161H119.857V157.64C119.857 156.824 120.421 156.26 121.261 156.26C122.029 156.26 122.437 156.728 122.437 157.64ZM128.08 158.24C128.08 160.028 129.316 161.12 130.816 161.12C131.632 161.12 132.292 160.736 132.7 160.052V161H133.66V151.64H132.7V156.428C132.292 155.744 131.632 155.36 130.816 155.36C129.316 155.36 128.08 156.452 128.08 158.24ZM129.052 158.24C129.052 156.968 129.916 156.26 130.936 156.26C131.776 156.26 132.7 156.968 132.7 158.24C132.7 159.512 131.776 160.22 130.936 160.22C129.916 160.22 129.052 159.512 129.052 158.24ZM137.419 161.12C138.595 161.12 139.471 160.652 140.047 159.716L139.267 159.224C138.859 159.896 138.283 160.22 137.539 160.22C136.507 160.22 135.871 159.596 135.787 158.48H140.131C140.131 158.456 140.143 158.312 140.143 158.192C140.143 156.44 139.159 155.36 137.539 155.36C135.907 155.36 134.803 156.524 134.803 158.24C134.803 159.944 135.871 161.12 137.419 161.12ZM137.539 156.2C138.427 156.2 139.027 156.776 139.099 157.664H135.823C135.991 156.728 136.591 156.2 137.539 156.2ZM144.879 157.64V161H145.839V157.52C145.839 156.188 145.107 155.36 143.943 155.36C143.223 155.36 142.671 155.672 142.299 156.344V155.48H141.339V161H142.299V157.64C142.299 156.824 142.863 156.26 143.703 156.26C144.471 156.26 144.879 156.728 144.879 157.64ZM153.581 161C156.029 161 157.781 159.308 157.781 156.8C157.781 154.292 156.029 152.6 153.581 152.6H151.061V161H153.581ZM153.581 153.62C155.477 153.62 156.761 154.844 156.761 156.8C156.761 158.756 155.477 159.98 153.581 159.98H152.081V153.62H153.581ZM159.326 156.752C159.578 156.56 160.154 156.2 160.982 156.2C161.666 156.2 162.23 156.416 162.23 157.172V157.976C161.906 157.772 161.39 157.568 160.658 157.568C159.302 157.568 158.498 158.276 158.498 159.344C158.498 160.472 159.386 161.12 160.406 161.12C161.078 161.12 161.87 160.844 162.23 160.256V161H163.19V157.04C163.19 155.972 162.314 155.36 161.03 155.36C160.01 155.36 159.278 155.744 158.858 156.044L159.326 156.752ZM159.47 159.296C159.47 158.696 159.878 158.324 160.814 158.324C161.33 158.324 161.786 158.42 162.23 158.636V158.84C162.23 159.716 161.534 160.292 160.658 160.292C159.95 160.292 159.47 159.932 159.47 159.296ZM163.855 155.48V156.38H164.755V161H165.715V156.38H166.615V155.48H165.715V153.56H164.755V155.48H163.855ZM169.594 161.12C170.77 161.12 171.646 160.652 172.222 159.716L171.442 159.224C171.034 159.896 170.458 160.22 169.714 160.22C168.682 160.22 168.046 159.596 167.962 158.48H172.306C172.306 158.456 172.318 158.312 172.318 158.192C172.318 156.44 171.334 155.36 169.714 155.36C168.082 155.36 166.978 156.524 166.978 158.24C166.978 159.944 168.046 161.12 169.594 161.12ZM169.714 156.2C170.602 156.2 171.202 156.776 171.274 157.664H167.998C168.166 156.728 168.766 156.2 169.714 156.2ZM177.054 157.64V161H178.014V157.52C178.014 156.188 177.282 155.36 176.118 155.36C175.398 155.36 174.846 155.672 174.474 156.344V155.48H173.514V161H174.474V157.64C174.474 156.824 175.038 156.26 175.878 156.26C176.646 156.26 177.054 156.728 177.054 157.64ZM179.926 159.308L179.17 159.776C179.47 160.436 180.274 161.12 181.378 161.12C182.506 161.12 183.274 160.4 183.274 159.44C183.274 158.456 182.494 158.084 181.534 157.688C180.946 157.448 180.382 157.196 180.382 156.752C180.382 156.38 180.718 156.212 181.114 156.212C181.69 156.212 182.158 156.524 182.458 156.932L183.226 156.44C182.89 155.828 182.11 155.36 181.234 155.36C180.334 155.36 179.446 155.828 179.446 156.812C179.446 157.784 180.298 158.192 181.03 158.468C181.666 158.708 182.302 158.972 182.302 159.548C182.302 159.98 181.966 160.244 181.426 160.244C180.742 160.244 180.262 159.824 179.926 159.308ZM184.85 158.24C184.85 157.088 185.654 156.26 186.734 156.26C187.622 156.26 188.402 156.728 188.654 157.268V156.068C188.27 155.624 187.49 155.36 186.734 155.36C185.114 155.36 183.878 156.572 183.878 158.24C183.878 159.908 185.114 161.12 186.734 161.12C187.49 161.12 188.27 160.868 188.654 160.412V159.212C188.402 159.752 187.622 160.22 186.734 160.22C185.654 160.22 184.85 159.392 184.85 158.24ZM193.569 157.64V161H194.529V157.52C194.529 156.092 193.773 155.36 192.633 155.36C191.913 155.36 191.325 155.744 190.989 156.356V151.64H190.029V161H190.989V157.64C190.989 156.848 191.553 156.26 192.393 156.26C193.173 156.26 193.569 156.728 193.569 157.64ZM197.173 158.84V155.48H196.213V158.96C196.213 160.28 196.957 161.12 198.109 161.12C198.841 161.12 199.381 160.796 199.753 160.136V161H200.713V155.48H199.753V158.84C199.753 159.656 199.189 160.22 198.349 160.22C197.581 160.22 197.173 159.728 197.173 158.84ZM201.558 155.48V156.38H202.458V161H203.418V156.38H204.318V155.48H203.418V153.56H202.458V155.48H201.558ZM207.861 156.38L204.441 161H209.361V160.1H206.181L209.601 155.48H204.801V156.38H207.861ZM216.08 158.24C216.08 156.452 214.844 155.36 213.344 155.36C212.528 155.36 211.868 155.744 211.46 156.428V151.64H210.5V161H211.46V160.052C211.868 160.736 212.528 161.12 213.344 161.12C214.844 161.12 216.08 160.028 216.08 158.24ZM215.108 158.24C215.108 159.512 214.244 160.22 213.224 160.22C212.384 160.22 211.46 159.512 211.46 158.24C211.46 156.968 212.384 156.26 213.224 156.26C214.244 156.26 215.108 156.968 215.108 158.24ZM219.42 161.12C220.596 161.12 221.472 160.652 222.048 159.716L221.268 159.224C220.86 159.896 220.284 160.22 219.54 160.22C218.508 160.22 217.872 159.596 217.788 158.48H222.132C222.132 158.456 222.144 158.312 222.144 158.192C222.144 156.44 221.16 155.36 219.54 155.36C217.908 155.36 216.804 156.524 216.804 158.24C216.804 159.944 217.872 161.12 219.42 161.12ZM219.54 156.2C220.428 156.2 221.028 156.776 221.1 157.664H217.824C217.992 156.728 218.592 156.2 219.54 156.2ZM223.568 159.308L222.812 159.776C223.112 160.436 223.916 161.12 225.02 161.12C226.148 161.12 226.916 160.4 226.916 159.44C226.916 158.456 226.136 158.084 225.176 157.688C224.588 157.448 224.024 157.196 224.024 156.752C224.024 156.38 224.36 156.212 224.756 156.212C225.332 156.212 225.8 156.524 226.1 156.932L226.868 156.44C226.532 155.828 225.752 155.36 224.876 155.36C223.976 155.36 223.088 155.828 223.088 156.812C223.088 157.784 223.94 158.192 224.672 158.468C225.308 158.708 225.944 158.972 225.944 159.548C225.944 159.98 225.608 160.244 225.068 160.244C224.384 160.244 223.904 159.824 223.568 159.308ZM227.22 155.48V156.38H228.12V161H229.08V156.38H229.98V155.48H229.08V153.56H228.12V155.48H227.22ZM230.823 153.2C230.823 153.56 231.123 153.86 231.483 153.86C231.843 153.86 232.143 153.56 232.143 153.2C232.143 152.84 231.843 152.54 231.483 152.54C231.123 152.54 230.823 152.84 230.823 153.2ZM231.003 155.48V161H231.963V155.48H231.003ZM241.38 157.52C241.38 156.152 240.732 155.36 239.604 155.36C238.86 155.36 238.284 155.708 237.9 156.392C237.648 155.732 237.072 155.36 236.304 155.36C235.62 155.36 235.116 155.66 234.78 156.284V155.48H233.82V161H234.78V157.64C234.78 156.776 235.272 156.26 236.064 156.26C236.784 156.26 237.12 156.692 237.12 157.64V161H238.08V157.64C238.08 156.776 238.572 156.26 239.364 156.26C240.084 156.26 240.42 156.692 240.42 157.64V161H241.38V157.52ZM250.623 157.52C250.623 156.152 249.975 155.36 248.847 155.36C248.103 155.36 247.527 155.708 247.143 156.392C246.891 155.732 246.315 155.36 245.547 155.36C244.863 155.36 244.359 155.66 244.023 156.284V155.48H243.063V161H244.023V157.64C244.023 156.776 244.515 156.26 245.307 156.26C246.027 156.26 246.363 156.692 246.363 157.64V161H247.323V157.64C247.323 156.776 247.815 156.26 248.607 156.26C249.327 156.26 249.663 156.692 249.663 157.64V161H250.623V157.52ZM253.266 158.84V155.48H252.306V158.96C252.306 160.28 253.05 161.12 254.202 161.12C254.934 161.12 255.474 160.796 255.846 160.136V161H256.806V155.48H255.846V158.84C255.846 159.656 255.282 160.22 254.442 160.22C253.674 160.22 253.266 159.728 253.266 158.84ZM262.031 157.64V161H262.991V157.52C262.991 156.188 262.259 155.36 261.095 155.36C260.375 155.36 259.823 155.672 259.451 156.344V155.48H258.491V161H259.451V157.64C259.451 156.824 260.015 156.26 260.855 156.26C261.623 156.26 262.031 156.728 262.031 157.64ZM264.304 161.36C264.304 162.788 265.42 163.76 267.04 163.76C268.42 163.76 269.776 162.788 269.776 160.88V155.48H268.816V156.428C268.408 155.744 267.748 155.36 266.932 155.36C265.432 155.36 264.196 156.452 264.196 158.24C264.196 160.028 265.432 161.12 266.932 161.12C267.748 161.12 268.408 160.736 268.816 160.052V160.88C268.816 162.272 267.88 162.86 267.04 162.86C265.96 162.86 265.276 162.152 265.276 161.36H264.304ZM265.168 158.24C265.168 156.968 266.032 156.26 267.052 156.26C267.892 156.26 268.816 156.968 268.816 158.24C268.816 159.512 267.892 160.22 267.052 160.22C266.032 160.22 265.168 159.512 265.168 158.24ZM273.535 161.12C274.711 161.12 275.587 160.652 276.163 159.716L275.383 159.224C274.975 159.896 274.399 160.22 273.655 160.22C272.623 160.22 271.987 159.596 271.903 158.48H276.247C276.247 158.456 276.259 158.312 276.259 158.192C276.259 156.44 275.275 155.36 273.655 155.36C272.023 155.36 270.919 156.524 270.919 158.24C270.919 159.944 271.987 161.12 273.535 161.12ZM273.655 156.2C274.543 156.2 275.143 156.776 275.215 157.664H271.939C272.107 156.728 272.707 156.2 273.655 156.2ZM280.995 157.64V161H281.955V157.52C281.955 156.188 281.223 155.36 280.059 155.36C279.339 155.36 278.787 155.672 278.415 156.344V155.48H277.455V161H278.415V157.64C278.415 156.824 278.979 156.26 279.819 156.26C280.587 156.26 280.995 156.728 280.995 157.64ZM123.46 171.52C123.46 170.152 122.812 169.36 121.684 169.36C120.94 169.36 120.364 169.708 119.98 170.392C119.728 169.732 119.152 169.36 118.384 169.36C117.7 169.36 117.196 169.66 116.86 170.284V169.48H115.9V175H116.86V171.64C116.86 170.776 117.352 170.26 118.144 170.26C118.864 170.26 119.2 170.692 119.2 171.64V175H120.16V171.64C120.16 170.776 120.652 170.26 121.444 170.26C122.164 170.26 122.5 170.692 122.5 171.64V175H123.46V171.52ZM125.143 167.2C125.143 167.56 125.443 167.86 125.803 167.86C126.163 167.86 126.463 167.56 126.463 167.2C126.463 166.84 126.163 166.54 125.803 166.54C125.443 166.54 125.143 166.84 125.143 167.2ZM125.323 169.48V175H126.283V169.48H125.323ZM127.3 169.48V170.38H128.2V175H129.16V170.38H130.06V169.48H129.16V167.56H128.2V169.48H127.3ZM134.669 170.752C134.921 170.56 135.497 170.2 136.325 170.2C137.009 170.2 137.573 170.416 137.573 171.172V171.976C137.249 171.772 136.733 171.568 136.001 171.568C134.645 171.568 133.841 172.276 133.841 173.344C133.841 174.472 134.729 175.12 135.749 175.12C136.421 175.12 137.213 174.844 137.573 174.256V175H138.533V171.04C138.533 169.972 137.657 169.36 136.373 169.36C135.353 169.36 134.621 169.744 134.201 170.044L134.669 170.752ZM134.813 173.296C134.813 172.696 135.221 172.324 136.157 172.324C136.673 172.324 137.129 172.42 137.573 172.636V172.84C137.573 173.716 136.877 174.292 136.001 174.292C135.293 174.292 134.813 173.932 134.813 173.296ZM143.578 171.64V175H144.538V171.52C144.538 170.188 143.806 169.36 142.642 169.36C141.922 169.36 141.37 169.672 140.998 170.344V169.48H140.038V175H140.998V171.64C140.998 170.824 141.562 170.26 142.402 170.26C143.17 170.26 143.578 170.728 143.578 171.64ZM145.743 172.24C145.743 174.028 146.979 175.12 148.479 175.12C149.295 175.12 149.955 174.736 150.363 174.052V175H151.323V165.64H150.363V170.428C149.955 169.744 149.295 169.36 148.479 169.36C146.979 169.36 145.743 170.452 145.743 172.24ZM146.715 172.24C146.715 170.968 147.579 170.26 148.599 170.26C149.439 170.26 150.363 170.968 150.363 172.24C150.363 173.512 149.439 174.22 148.599 174.22C147.579 174.22 146.715 173.512 146.715 172.24ZM155.083 175.12C156.259 175.12 157.135 174.652 157.711 173.716L156.931 173.224C156.523 173.896 155.947 174.22 155.203 174.22C154.171 174.22 153.535 173.596 153.451 172.48H157.795C157.795 172.456 157.807 172.312 157.807 172.192C157.807 170.44 156.823 169.36 155.203 169.36C153.571 169.36 152.467 170.524 152.467 172.24C152.467 173.944 153.535 175.12 155.083 175.12ZM155.203 170.2C156.091 170.2 156.691 170.776 156.763 171.664H153.487C153.655 170.728 154.255 170.2 155.203 170.2ZM161.631 170.536L162.159 169.744C161.871 169.444 161.523 169.36 161.127 169.36C160.707 169.36 160.275 169.648 159.963 170.116V169.48H159.003V175H159.963V171.64C159.963 170.848 160.167 170.26 160.887 170.26C161.199 170.26 161.367 170.344 161.631 170.536ZM164.956 175.12C166.132 175.12 167.008 174.652 167.584 173.716L166.804 173.224C166.396 173.896 165.82 174.22 165.076 174.22C164.044 174.22 163.408 173.596 163.324 172.48H167.668C167.668 172.456 167.68 172.312 167.68 172.192C167.68 170.44 166.696 169.36 165.076 169.36C163.444 169.36 162.34 170.524 162.34 172.24C162.34 173.944 163.408 175.12 164.956 175.12ZM165.076 170.2C165.964 170.2 166.564 170.776 166.636 171.664H163.36C163.528 170.728 164.128 170.2 165.076 170.2ZM172.416 171.64V175H173.376V171.52C173.376 170.188 172.644 169.36 171.48 169.36C170.76 169.36 170.208 169.672 169.836 170.344V169.48H168.876V175H169.836V171.64C169.836 170.824 170.4 170.26 171.24 170.26C172.008 170.26 172.416 170.728 172.416 171.64ZM178.598 166.6V175H179.618V170.92H182.798V169.96H179.618V167.56H182.918V166.6H178.598ZM184.418 167.2C184.418 167.56 184.718 167.86 185.078 167.86C185.438 167.86 185.738 167.56 185.738 167.2C185.738 166.84 185.438 166.54 185.078 166.54C184.718 166.54 184.418 166.84 184.418 167.2ZM184.598 169.48V175H185.558V169.48H184.598ZM190.043 170.536L190.571 169.744C190.283 169.444 189.935 169.36 189.539 169.36C189.119 169.36 188.687 169.648 188.375 170.116V169.48H187.415V175H188.375V171.64C188.375 170.848 188.579 170.26 189.299 170.26C189.611 170.26 189.779 170.344 190.043 170.536ZM198.969 171.52C198.969 170.152 198.321 169.36 197.193 169.36C196.449 169.36 195.873 169.708 195.489 170.392C195.237 169.732 194.661 169.36 193.893 169.36C193.209 169.36 192.705 169.66 192.369 170.284V169.48H191.409V175H192.369V171.64C192.369 170.776 192.861 170.26 193.653 170.26C194.373 170.26 194.709 170.692 194.709 171.64V175H195.669V171.64C195.669 170.776 196.161 170.26 196.953 170.26C197.673 170.26 198.009 170.692 198.009 171.64V175H198.969V171.52ZM202.788 175.12C203.964 175.12 204.84 174.652 205.416 173.716L204.636 173.224C204.228 173.896 203.652 174.22 202.908 174.22C201.876 174.22 201.24 173.596 201.156 172.48H205.5C205.5 172.456 205.512 172.312 205.512 172.192C205.512 170.44 204.528 169.36 202.908 169.36C201.276 169.36 200.172 170.524 200.172 172.24C200.172 173.944 201.24 175.12 202.788 175.12ZM202.908 170.2C203.796 170.2 204.396 170.776 204.468 171.664H201.192C201.36 170.728 201.96 170.2 202.908 170.2ZM210.248 171.64V175H211.208V171.52C211.208 170.188 210.476 169.36 209.312 169.36C208.592 169.36 208.04 169.672 207.668 170.344V169.48H206.708V175H207.668V171.64C207.668 170.824 208.232 170.26 209.072 170.26C209.84 170.26 210.248 170.728 210.248 171.64ZM215.998 175.36C215.998 176.788 217.114 177.76 218.734 177.76C220.114 177.76 221.47 176.788 221.47 174.88V169.48H220.51V170.428C220.102 169.744 219.442 169.36 218.626 169.36C217.126 169.36 215.89 170.452 215.89 172.24C215.89 174.028 217.126 175.12 218.626 175.12C219.442 175.12 220.102 174.736 220.51 174.052V174.88C220.51 176.272 219.574 176.86 218.734 176.86C217.654 176.86 216.97 176.152 216.97 175.36H215.998ZM216.862 172.24C216.862 170.968 217.726 170.26 218.746 170.26C219.586 170.26 220.51 170.968 220.51 172.24C220.51 173.512 219.586 174.22 218.746 174.22C217.726 174.22 216.862 173.512 216.862 172.24ZM225.23 175.12C226.406 175.12 227.282 174.652 227.858 173.716L227.078 173.224C226.67 173.896 226.094 174.22 225.35 174.22C224.318 174.22 223.682 173.596 223.598 172.48H227.942C227.942 172.456 227.954 172.312 227.954 172.192C227.954 170.44 226.97 169.36 225.35 169.36C223.718 169.36 222.614 170.524 222.614 172.24C222.614 173.944 223.682 175.12 225.23 175.12ZM225.35 170.2C226.238 170.2 226.838 170.776 226.91 171.664H223.634C223.802 170.728 224.402 170.2 225.35 170.2ZM228.31 169.48V170.38H229.21V175H230.17V170.38H231.07V169.48H230.17V167.56H229.21V169.48H228.31ZM234.048 175.12C235.224 175.12 236.1 174.652 236.676 173.716L235.896 173.224C235.488 173.896 234.912 174.22 234.168 174.22C233.136 174.22 232.5 173.596 232.416 172.48H236.76C236.76 172.456 236.772 172.312 236.772 172.192C236.772 170.44 235.788 169.36 234.168 169.36C232.536 169.36 231.432 170.524 231.432 172.24C231.432 173.944 232.5 175.12 234.048 175.12ZM234.168 170.2C235.056 170.2 235.656 170.776 235.728 171.664H232.452C232.62 170.728 233.22 170.2 234.168 170.2ZM237.968 167.2C237.968 167.56 238.268 167.86 238.628 167.86C238.988 167.86 239.288 167.56 239.288 167.2C239.288 166.84 238.988 166.54 238.628 166.54C238.268 166.54 237.968 166.84 237.968 167.2ZM238.148 169.48V175H239.108V169.48H238.148ZM240.965 165.64V175H241.925V165.64H240.965ZM242.771 169.48V170.38H243.671V175H244.631V170.38H245.531V169.48H244.631V167.56H243.671V169.48H242.771ZM249.011 169.48L251.411 175.42L252.983 171.4L254.651 175.42L257.051 169.48H255.971L254.579 173.092L252.971 169.06L251.471 173.068L250.091 169.48H249.011ZM257.888 167.2C257.888 167.56 258.188 167.86 258.548 167.86C258.908 167.86 259.208 167.56 259.208 167.2C259.208 166.84 258.908 166.54 258.548 166.54C258.188 166.54 257.888 166.84 257.888 167.2ZM258.068 169.48V175H259.028V169.48H258.068ZM263.513 170.536L264.041 169.744C263.753 169.444 263.405 169.36 263.009 169.36C262.589 169.36 262.157 169.648 261.845 170.116V169.48H260.885V175H261.845V171.64C261.845 170.848 262.049 170.26 262.769 170.26C263.081 170.26 263.249 170.344 263.513 170.536ZM264.398 172.24C264.398 174.028 265.634 175.12 267.134 175.12C267.95 175.12 268.61 174.736 269.018 174.052V175H269.978V165.64H269.018V170.428C268.61 169.744 267.95 169.36 267.134 169.36C265.634 169.36 264.398 170.452 264.398 172.24ZM265.37 172.24C265.37 170.968 266.234 170.26 267.254 170.26C268.094 170.26 269.018 170.968 269.018 172.24C269.018 173.512 268.094 174.22 267.254 174.22C266.234 174.22 265.37 173.512 265.37 172.24ZM271.842 174.52C271.842 174.88 272.142 175.18 272.502 175.18C272.862 175.18 273.162 174.88 273.162 174.52C273.162 174.16 272.862 173.86 272.502 173.86C272.142 173.86 271.842 174.16 271.842 174.52Z" fill="#0F1938"/>
<path d="M118.48 76C120.928 76 122.68 74.308 122.68 71.8C122.68 69.292 120.928 67.6 118.48 67.6H115.96V76H118.48ZM118.48 68.62C120.376 68.62 121.66 69.844 121.66 71.8C121.66 73.756 120.376 74.98 118.48 74.98H116.98V68.62H118.48ZM124.224 71.752C124.476 71.56 125.052 71.2 125.88 71.2C126.564 71.2 127.128 71.416 127.128 72.172V72.976C126.804 72.772 126.288 72.568 125.556 72.568C124.2 72.568 123.396 73.276 123.396 74.344C123.396 75.472 124.284 76.12 125.304 76.12C125.976 76.12 126.768 75.844 127.128 75.256V76H128.088V72.04C128.088 70.972 127.212 70.36 125.928 70.36C124.908 70.36 124.176 70.744 123.756 71.044L124.224 71.752ZM124.368 74.296C124.368 73.696 124.776 73.324 125.712 73.324C126.228 73.324 126.684 73.42 127.128 73.636V73.84C127.128 74.716 126.432 75.292 125.556 75.292C124.848 75.292 124.368 74.932 124.368 74.296ZM128.754 70.48V71.38H129.654V76H130.614V71.38H131.514V70.48H130.614V68.56H129.654V70.48H128.754ZM134.492 76.12C135.668 76.12 136.544 75.652 137.12 74.716L136.34 74.224C135.932 74.896 135.356 75.22 134.612 75.22C133.58 75.22 132.944 74.596 132.86 73.48H137.204C137.204 73.456 137.216 73.312 137.216 73.192C137.216 71.44 136.232 70.36 134.612 70.36C132.98 70.36 131.876 71.524 131.876 73.24C131.876 74.944 132.944 76.12 134.492 76.12ZM134.612 71.2C135.5 71.2 136.1 71.776 136.172 72.664H132.896C133.064 71.728 133.664 71.2 134.612 71.2ZM141.952 72.64V76H142.912V72.52C142.912 71.188 142.18 70.36 141.016 70.36C140.296 70.36 139.744 70.672 139.372 71.344V70.48H138.412V76H139.372V72.64C139.372 71.824 139.936 71.26 140.776 71.26C141.544 71.26 141.952 71.728 141.952 72.64ZM143.757 70.48V71.38H144.657V76H145.617V71.38H146.517V70.48H145.617V68.56H144.657V70.48H143.757ZM151.74 70.48H150.66L149.148 74.284L147.6 70.48H146.46L148.572 75.22L147.06 78.64H148.14L151.74 70.48ZM153.425 78.64V75.052C153.833 75.736 154.493 76.12 155.309 76.12C156.809 76.12 158.045 75.028 158.045 73.24C158.045 71.452 156.809 70.36 155.309 70.36C154.493 70.36 153.833 70.744 153.425 71.428V70.48H152.465V78.64H153.425ZM157.073 73.24C157.073 74.512 156.209 75.22 155.189 75.22C154.349 75.22 153.425 74.512 153.425 73.24C153.425 71.968 154.349 71.26 155.189 71.26C156.209 71.26 157.073 71.968 157.073 73.24ZM161.385 76.12C162.561 76.12 163.437 75.652 164.013 74.716L163.233 74.224C162.825 74.896 162.249 75.22 161.505 75.22C160.473 75.22 159.837 74.596 159.753 73.48H164.097C164.097 73.456 164.109 73.312 164.109 73.192C164.109 71.44 163.125 70.36 161.505 70.36C159.873 70.36 158.769 71.524 158.769 73.24C158.769 74.944 159.837 76.12 161.385 76.12ZM161.505 71.2C162.393 71.2 162.993 71.776 163.065 72.664H159.789C159.957 71.728 160.557 71.2 161.505 71.2ZM168.844 72.64V76H169.804V72.52C169.804 71.188 169.072 70.36 167.908 70.36C167.188 70.36 166.636 70.672 166.264 71.344V70.48H165.304V76H166.264V72.64C166.264 71.824 166.828 71.26 167.668 71.26C168.436 71.26 168.844 71.728 168.844 72.64ZM172.365 74.68L171.309 77.788L172.005 78.04L173.325 75.04L172.365 74.68ZM178.058 73.24C178.058 75.028 179.294 76.12 180.794 76.12C181.61 76.12 182.27 75.736 182.678 75.052V76H183.638V66.64H182.678V71.428C182.27 70.744 181.61 70.36 180.794 70.36C179.294 70.36 178.058 71.452 178.058 73.24ZM179.03 73.24C179.03 71.968 179.894 71.26 180.914 71.26C181.754 71.26 182.678 71.968 182.678 73.24C182.678 74.512 181.754 75.22 180.914 75.22C179.894 75.22 179.03 74.512 179.03 73.24ZM185.262 68.2C185.262 68.56 185.562 68.86 185.922 68.86C186.282 68.86 186.582 68.56 186.582 68.2C186.582 67.84 186.282 67.54 185.922 67.54C185.562 67.54 185.262 67.84 185.262 68.2ZM185.442 70.48V76H186.402V70.48H185.442ZM190.395 76.12C191.571 76.12 192.447 75.652 193.023 74.716L192.243 74.224C191.835 74.896 191.259 75.22 190.515 75.22C189.483 75.22 188.847 74.596 188.763 73.48H193.107C193.107 73.456 193.119 73.312 193.119 73.192C193.119 71.44 192.135 70.36 190.515 70.36C188.883 70.36 187.779 71.524 187.779 73.24C187.779 74.944 188.847 76.12 190.395 76.12ZM190.515 71.2C191.403 71.2 192.003 71.776 192.075 72.664H188.799C188.967 71.728 189.567 71.2 190.515 71.2ZM201.333 72.64V76H202.293V72.52C202.293 71.188 201.561 70.36 200.397 70.36C199.677 70.36 199.125 70.672 198.753 71.344V70.48H197.793V76H198.753V72.64C198.753 71.824 199.317 71.26 200.157 71.26C200.925 71.26 201.333 71.728 201.333 72.64ZM203.977 68.2C203.977 68.56 204.277 68.86 204.637 68.86C204.997 68.86 205.297 68.56 205.297 68.2C205.297 67.84 204.997 67.54 204.637 67.54C204.277 67.54 203.977 67.84 203.977 68.2ZM204.157 70.48V76H205.117V70.48H204.157ZM207.406 73.24C207.406 72.088 208.21 71.26 209.29 71.26C210.178 71.26 210.958 71.728 211.21 72.268V71.068C210.826 70.624 210.046 70.36 209.29 70.36C207.67 70.36 206.434 71.572 206.434 73.24C206.434 74.908 207.67 76.12 209.29 76.12C210.046 76.12 210.826 75.868 211.21 75.412V74.212C210.958 74.752 210.178 75.22 209.29 75.22C208.21 75.22 207.406 74.392 207.406 73.24ZM216.125 72.64V76H217.085V72.52C217.085 71.092 216.329 70.36 215.189 70.36C214.469 70.36 213.881 70.744 213.545 71.356V66.64H212.585V76H213.545V72.64C213.545 71.848 214.109 71.26 214.949 71.26C215.729 71.26 216.125 71.728 216.125 72.64ZM217.93 70.48V71.38H218.83V76H219.79V71.38H220.69V70.48H219.79V68.56H218.83V70.48H217.93ZM227.71 71.38L224.29 76H229.21V75.1H226.03L229.45 70.48H224.65V71.38H227.71ZM231.252 73.84V70.48H230.292V73.96C230.292 75.28 231.036 76.12 232.188 76.12C232.92 76.12 233.46 75.796 233.832 75.136V76H234.792V70.48H233.832V73.84C233.832 74.656 233.268 75.22 232.428 75.22C231.66 75.22 231.252 74.728 231.252 73.84ZM239.475 73.24C239.475 75.028 240.711 76.12 242.211 76.12C243.027 76.12 243.687 75.736 244.095 75.052V76H245.055V66.64H244.095V71.428C243.687 70.744 243.027 70.36 242.211 70.36C240.711 70.36 239.475 71.452 239.475 73.24ZM240.447 73.24C240.447 71.968 241.311 71.26 242.331 71.26C243.171 71.26 244.095 71.968 244.095 73.24C244.095 74.512 243.171 75.22 242.331 75.22C241.311 75.22 240.447 74.512 240.447 73.24ZM246.678 68.2C246.678 68.56 246.978 68.86 247.338 68.86C247.698 68.86 247.998 68.56 247.998 68.2C247.998 67.84 247.698 67.54 247.338 67.54C246.978 67.54 246.678 67.84 246.678 68.2ZM246.858 70.48V76H247.818V70.48H246.858ZM251.812 76.12C252.988 76.12 253.864 75.652 254.44 74.716L253.66 74.224C253.252 74.896 252.676 75.22 251.932 75.22C250.9 75.22 250.264 74.596 250.18 73.48H254.524C254.524 73.456 254.536 73.312 254.536 73.192C254.536 71.44 253.552 70.36 251.932 70.36C250.3 70.36 249.196 71.524 249.196 73.24C249.196 74.944 250.264 76.12 251.812 76.12ZM251.932 71.2C252.82 71.2 253.42 71.776 253.492 72.664H250.216C250.384 71.728 250.984 71.2 251.932 71.2ZM255.959 74.308L255.203 74.776C255.503 75.436 256.307 76.12 257.411 76.12C258.539 76.12 259.307 75.4 259.307 74.44C259.307 73.456 258.527 73.084 257.567 72.688C256.979 72.448 256.415 72.196 256.415 71.752C256.415 71.38 256.751 71.212 257.147 71.212C257.723 71.212 258.191 71.524 258.491 71.932L259.259 71.44C258.923 70.828 258.143 70.36 257.267 70.36C256.367 70.36 255.479 70.828 255.479 71.812C255.479 72.784 256.331 73.192 257.063 73.468C257.699 73.708 258.335 73.972 258.335 74.548C258.335 74.98 257.999 75.244 257.459 75.244C256.775 75.244 256.295 74.824 255.959 74.308ZM262.587 76.12C263.763 76.12 264.639 75.652 265.215 74.716L264.435 74.224C264.027 74.896 263.451 75.22 262.707 75.22C261.675 75.22 261.039 74.596 260.955 73.48H265.299C265.299 73.456 265.311 73.312 265.311 73.192C265.311 71.44 264.327 70.36 262.707 70.36C261.075 70.36 259.971 71.524 259.971 73.24C259.971 74.944 261.039 76.12 262.587 76.12ZM262.707 71.2C263.595 71.2 264.195 71.776 264.267 72.664H260.991C261.159 71.728 261.759 71.2 262.707 71.2ZM269.135 71.536L269.663 70.744C269.375 70.444 269.027 70.36 268.631 70.36C268.211 70.36 267.779 70.648 267.467 71.116V70.48H266.507V76H267.467V72.64C267.467 71.848 267.671 71.26 268.391 71.26C268.703 71.26 268.871 71.344 269.135 71.536ZM115.96 81.6V90H116.98V85.92L120.46 90H121.72L117.904 85.536L121.54 81.6H120.28L116.98 85.212V81.6H115.96ZM122.853 85.752C123.105 85.56 123.681 85.2 124.509 85.2C125.193 85.2 125.757 85.416 125.757 86.172V86.976C125.433 86.772 124.917 86.568 124.185 86.568C122.829 86.568 122.025 87.276 122.025 88.344C122.025 89.472 122.913 90.12 123.933 90.12C124.605 90.12 125.397 89.844 125.757 89.256V90H126.717V86.04C126.717 84.972 125.841 84.36 124.557 84.36C123.537 84.36 122.805 84.744 122.385 85.044L122.853 85.752ZM122.997 88.296C122.997 87.696 123.405 87.324 124.341 87.324C124.857 87.324 125.313 87.42 125.757 87.636V87.84C125.757 88.716 125.061 89.292 124.185 89.292C123.477 89.292 122.997 88.932 122.997 88.296ZM127.383 84.48V85.38H128.283V90H129.243V85.38H130.143V84.48H129.243V82.56H128.283V84.48H127.383ZM133.121 90.12C134.297 90.12 135.173 89.652 135.749 88.716L134.969 88.224C134.561 88.896 133.985 89.22 133.241 89.22C132.209 89.22 131.573 88.596 131.489 87.48H135.833C135.833 87.456 135.845 87.312 135.845 87.192C135.845 85.44 134.861 84.36 133.241 84.36C131.609 84.36 130.505 85.524 130.505 87.24C130.505 88.944 131.573 90.12 133.121 90.12ZM133.241 85.2C134.129 85.2 134.729 85.776 134.801 86.664H131.525C131.693 85.728 132.293 85.2 133.241 85.2ZM136.669 90.36C136.669 91.788 137.785 92.76 139.405 92.76C140.785 92.76 142.141 91.788 142.141 89.88V84.48H141.181V85.428C140.773 84.744 140.113 84.36 139.297 84.36C137.797 84.36 136.561 85.452 136.561 87.24C136.561 89.028 137.797 90.12 139.297 90.12C140.113 90.12 140.773 89.736 141.181 89.052V89.88C141.181 91.272 140.245 91.86 139.405 91.86C138.325 91.86 137.641 91.152 137.641 90.36H136.669ZM137.533 87.24C137.533 85.968 138.397 85.26 139.417 85.26C140.257 85.26 141.181 85.968 141.181 87.24C141.181 88.512 140.257 89.22 139.417 89.22C138.397 89.22 137.533 88.512 137.533 87.24ZM143.285 87.24C143.285 88.908 144.521 90.12 146.141 90.12C147.761 90.12 148.997 88.908 148.997 87.24C148.997 85.572 147.761 84.36 146.141 84.36C144.521 84.36 143.285 85.572 143.285 87.24ZM144.257 87.24C144.257 86.088 145.061 85.26 146.141 85.26C147.221 85.26 148.025 86.088 148.025 87.24C148.025 88.392 147.221 89.22 146.141 89.22C145.061 89.22 144.257 88.392 144.257 87.24ZM152.824 85.536L153.352 84.744C153.064 84.444 152.716 84.36 152.32 84.36C151.9 84.36 151.468 84.648 151.156 85.116V84.48H150.196V90H151.156V86.64C151.156 85.848 151.36 85.26 152.08 85.26C152.392 85.26 152.56 85.344 152.824 85.536ZM154.189 82.2C154.189 82.56 154.489 82.86 154.849 82.86C155.209 82.86 155.509 82.56 155.509 82.2C155.509 81.84 155.209 81.54 154.849 81.54C154.489 81.54 154.189 81.84 154.189 82.2ZM154.369 84.48V90H155.329V84.48H154.369ZM159.322 90.12C160.498 90.12 161.374 89.652 161.95 88.716L161.17 88.224C160.762 88.896 160.186 89.22 159.442 89.22C158.41 89.22 157.774 88.596 157.69 87.48H162.034C162.034 87.456 162.046 87.312 162.046 87.192C162.046 85.44 161.062 84.36 159.442 84.36C157.81 84.36 156.706 85.524 156.706 87.24C156.706 88.944 157.774 90.12 159.322 90.12ZM159.442 85.2C160.33 85.2 160.93 85.776 161.002 86.664H157.726C157.894 85.728 158.494 85.2 159.442 85.2ZM169.42 85.38L166 90H170.92V89.1H167.74L171.16 84.48H166.36V85.38H169.42ZM174.735 82.98C174.735 83.34 175.035 83.64 175.395 83.64C175.755 83.64 176.055 83.34 176.055 82.98C176.055 82.62 175.755 82.32 175.395 82.32C175.035 82.32 174.735 82.62 174.735 82.98ZM172.335 82.98C172.335 83.34 172.635 83.64 172.995 83.64C173.355 83.64 173.655 83.34 173.655 82.98C173.655 82.62 173.355 82.32 172.995 82.32C172.635 82.32 172.335 82.62 172.335 82.98ZM172.551 85.776C172.815 85.584 173.403 85.2 174.195 85.2C174.795 85.2 175.359 85.488 175.359 86.04V86.964C175.047 86.76 174.579 86.568 173.931 86.568C172.599 86.568 171.579 87.216 171.579 88.5C171.579 89.508 172.335 90.12 173.475 90.12C174.303 90.12 175.023 89.796 175.359 89.208V90H176.319V86.04C176.319 84.972 175.455 84.36 174.195 84.36C173.199 84.36 172.491 84.744 172.083 85.044L172.551 85.776ZM172.551 88.38C172.551 87.708 173.007 87.3 173.979 87.3C174.507 87.3 174.939 87.408 175.359 87.624V87.84C175.359 88.872 174.675 89.268 173.715 89.268C172.947 89.268 172.551 88.968 172.551 88.38ZM181.363 86.64V90H182.323V86.52C182.323 85.092 181.567 84.36 180.427 84.36C179.707 84.36 179.119 84.744 178.783 85.356V80.64H177.823V90H178.783V86.64C178.783 85.848 179.347 85.26 180.187 85.26C180.967 85.26 181.363 85.728 181.363 86.64ZM184.008 80.64V90H184.968V80.64H184.008ZM188.79 90.12C189.966 90.12 190.842 89.652 191.418 88.716L190.638 88.224C190.23 88.896 189.654 89.22 188.91 89.22C187.878 89.22 187.242 88.596 187.158 87.48H191.502C191.502 87.456 191.514 87.312 191.514 87.192C191.514 85.44 190.53 84.36 188.91 84.36C187.278 84.36 186.174 85.524 186.174 87.24C186.174 88.944 187.242 90.12 188.79 90.12ZM188.91 85.2C189.798 85.2 190.398 85.776 190.47 86.664H187.194C187.362 85.728 187.962 85.2 188.91 85.2ZM196.249 86.64V90H197.209V86.52C197.209 85.188 196.477 84.36 195.313 84.36C194.593 84.36 194.041 84.672 193.669 85.344V84.48H192.709V90H193.669V86.64C193.669 85.824 194.233 85.26 195.073 85.26C195.841 85.26 196.249 85.728 196.249 86.64ZM199.134 89.52C199.134 89.88 199.434 90.18 199.794 90.18C200.154 90.18 200.454 89.88 200.454 89.52C200.454 89.16 200.154 88.86 199.794 88.86C199.434 88.86 199.134 89.16 199.134 89.52Z" fill="#0F1938"/>
<circle cx="67.5" cy="182.5" r="9" stroke="#3749A9"/>
<path d="M82.5 176.5C82.5 184.769 75.5755 191.5 67 191.5C58.4245 191.5 51.5 184.769 51.5 176.5C51.5 168.231 58.4245 161.5 67 161.5C75.5755 161.5 82.5 168.231 82.5 176.5Z" stroke="#3749A9"/>
<path d="M88.5 169.5C88.5 181.661 78.8636 191.5 67 191.5C55.1364 191.5 45.5 181.661 45.5 169.5C45.5 157.339 55.1364 147.5 67 147.5C78.8636 147.5 88.5 157.339 88.5 169.5Z" stroke="#3749A9"/>
<path d="M95.5 164.5C95.5 179.395 82.981 191.5 67.5 191.5C52.019 191.5 39.5 179.395 39.5 164.5C39.5 149.605 52.019 137.5 67.5 137.5C82.981 137.5 95.5 149.605 95.5 164.5Z" stroke="#3749A9"/>
<circle cx="67" cy="160" r="31.5" stroke="#3749A9"/>
<circle cx="67" cy="156" r="35.5" stroke="#3749A9"/>
<circle cx="67" cy="153" r="38.5" stroke="#3749A9"/>
<path d="M15.4688 191.5H44.5312" stroke="#0F1938" stroke-linecap="square"/>
<path d="M15 173.5H25" stroke="#0F1938" stroke-linecap="square"/>
<path d="M15.0781 147.5H19.9219" stroke="#0F1938" stroke-linecap="square"/>
<path d="M15.0781 161.5H19.9219" stroke="#0F1938" stroke-linecap="square"/>
<path d="M15.0781 137.5H19.9219" stroke="#0F1938" stroke-linecap="square"/>
<path d="M15.0781 128.5H19.9219" stroke="#0F1938" stroke-linecap="square"/>
<path d="M15.1562 120.5H24.8438" stroke="#0F1938" stroke-linecap="square"/>
<path d="M15.4688 114.5H44.5312" stroke="#0F1938" stroke-linecap="square"/>
<path d="M1.24219 108.64L2.86219 108.19V114H4.03219V106.89L1.24219 107.52V108.64ZM5.75875 112.1C5.75875 113.27 6.80875 114.12 8.10875 114.12C9.40875 114.12 10.4688 113.27 10.4688 112.1C10.4688 111.17 9.90875 110.57 9.18875 110.28C9.79875 110 10.2188 109.46 10.2188 108.69C10.2188 107.62 9.28875 106.88 8.10875 106.88C6.92875 106.88 6.00875 107.62 6.00875 108.69C6.00875 109.46 6.41875 110 7.02875 110.28C6.31875 110.57 5.75875 111.17 5.75875 112.1ZM7.12875 108.81C7.12875 108.23 7.53875 107.81 8.10875 107.81C8.67875 107.81 9.08875 108.23 9.08875 108.81C9.08875 109.39 8.64875 109.8 8.10875 109.8C7.56875 109.8 7.12875 109.39 7.12875 108.81ZM6.91875 111.94C6.91875 111.28 7.48875 110.76 8.10875 110.76C8.72875 110.76 9.30875 111.28 9.30875 111.94C9.30875 112.7 8.72875 113.13 8.10875 113.13C7.48875 113.13 6.91875 112.7 6.91875 111.94Z" fill="#0F1938"/>
<path d="M1.06641 116.64L2.68641 116.19V122H3.85641V114.89L1.06641 115.52V116.64ZM10.603 119.72C10.603 118.31 9.66297 117.39 8.50297 117.39C8.11297 117.39 7.74297 117.47 7.39297 117.64L7.83297 116.04H10.543V115H6.94297L5.99297 118.85C6.70297 118.41 7.23297 118.3 7.85297 118.3C8.66297 118.3 9.34297 118.8 9.34297 119.65C9.34297 120.5 8.79297 121.01 7.85297 121.01C7.18297 121.01 6.49297 120.57 6.08297 120.02L5.39297 120.87C5.93297 121.55 6.72297 122.11 8.01297 122.11C9.36297 122.11 10.603 121.33 10.603 119.72Z" fill="#0F1938"/>
<path d="M0.998047 124.64L2.61805 124.19V130H3.78805V122.89L0.998047 123.52V124.64ZM5.17461 130H10.5146V128.9H7.48461L9.46461 126.95C10.0346 126.41 10.4246 125.71 10.4246 124.98C10.4246 124.05 9.65461 122.88 8.03461 122.88C6.43461 122.88 5.55461 123.99 5.55461 125.48H6.72461C6.72461 124.54 7.21461 123.94 8.01461 123.94C8.78461 123.94 9.20461 124.49 9.20461 125.04C9.20461 125.6 8.90461 126.06 8.40461 126.59L5.17461 130Z" fill="#0F1938"/>
<path d="M7.68719 138.99L9.90719 136.01C10.2572 135.56 10.5072 135.01 10.5072 134.36C10.5072 132.81 9.37719 131.88 7.93719 131.88C6.49719 131.88 5.36719 132.81 5.36719 134.36C5.36719 135.7 6.37719 136.63 7.47719 136.63C7.75719 136.63 7.98719 136.6 8.18719 136.51L6.18719 138.99H7.68719ZM9.34719 134.36C9.34719 135.22 8.74719 135.83 7.93719 135.83C7.12719 135.83 6.51719 135.22 6.51719 134.36C6.51719 133.5 7.12719 132.91 7.93719 132.91C8.74719 132.91 9.34719 133.5 9.34719 134.36Z" fill="#0F1938"/>
<path d="M8.17719 142.01L5.95719 144.99C5.60719 145.44 5.36719 145.99 5.36719 146.64C5.36719 148.19 6.49719 149.12 7.93719 149.12C9.37719 149.12 10.5072 148.19 10.5072 146.64C10.5072 145.3 9.49719 144.37 8.39719 144.37C8.10719 144.37 7.87719 144.4 7.66719 144.5L9.67719 142.01H8.17719ZM6.51719 146.64C6.51719 145.78 7.12719 145.17 7.93719 145.17C8.74719 145.17 9.34719 145.78 9.34719 146.64C9.34719 147.5 8.74719 148.09 7.93719 148.09C7.12719 148.09 6.51719 147.5 6.51719 146.64Z" fill="#0F1938"/>
<path d="M8.20828 162.12C9.64828 162.12 10.6083 161.33 10.6083 160.13C10.6083 159.18 10.0483 158.6 9.20828 158.33C9.93828 158.04 10.4083 157.49 10.4083 156.78C10.4083 155.75 9.60828 154.89 8.25828 154.89C6.96828 154.89 6.08828 155.71 6.08828 156.86H7.19828C7.19828 156.3 7.66828 155.89 8.26828 155.89C8.89828 155.89 9.21828 156.28 9.21828 156.84C9.21828 157.44 8.70828 157.94 7.85828 157.94V158.83C8.80828 158.83 9.41828 159.25 9.41828 160C9.41828 160.7 8.93828 161.1 8.22828 161.1C7.51828 161.1 6.97828 160.67 6.97828 160H5.78828C5.78828 161.15 6.71828 162.12 8.20828 162.12Z" fill="#0F1938"/>
<path d="M7.02344 169.64L8.64344 169.19V175H9.81344V167.89L7.02344 168.52V169.64Z" fill="#0F1938"/>
<path d="M5.15977 188.5C5.15977 190.67 6.25977 192.11 7.87977 192.11C9.51977 192.11 10.6098 190.67 10.6098 188.5C10.6098 186.33 9.51977 184.89 7.87977 184.89C6.25977 184.89 5.15977 186.33 5.15977 188.5ZM6.31977 188.5C6.31977 186.99 6.91977 185.95 7.87977 185.95C8.83977 185.95 9.44977 186.99 9.44977 188.5C9.44977 190.01 8.83977 191.05 7.87977 191.05C6.91977 191.05 6.31977 190.01 6.31977 188.5Z" fill="#0F1938"/>
</svg>
