<svg width="299" height="196" viewBox="0 0 299 196" fill="none" xmlns="http://www.w3.org/2000/svg">
<circle cx="67.5" cy="22.5" r="22.5" fill="#3749A9"/>
<circle opacity="0.3" cx="67.5" cy="78.5" r="22.5" fill="#3749A9"/>
<path d="M118.48 27C120.928 27 122.68 25.308 122.68 22.8C122.68 20.292 120.928 18.6 118.48 18.6H115.96V27H118.48ZM118.48 19.62C120.376 19.62 121.66 20.844 121.66 22.8C121.66 24.756 120.376 25.98 118.48 25.98H116.98V19.62H118.48ZM124.224 22.752C124.476 22.56 125.052 22.2 125.88 22.2C126.564 22.2 127.128 22.416 127.128 23.172V23.976C126.804 23.772 126.288 23.568 125.556 23.568C124.2 23.568 123.396 24.276 123.396 25.344C123.396 26.472 124.284 27.12 125.304 27.12C125.976 27.12 126.768 26.844 127.128 26.256V27H128.088V23.04C128.088 21.972 127.212 21.36 125.928 21.36C124.908 21.36 124.176 21.744 123.756 22.044L124.224 22.752ZM124.368 25.296C124.368 24.696 124.776 24.324 125.712 24.324C126.228 24.324 126.684 24.42 127.128 24.636V24.84C127.128 25.716 126.432 26.292 125.556 26.292C124.848 26.292 124.368 25.932 124.368 25.296ZM128.754 21.48V22.38H129.654V27H130.614V22.38H131.514V21.48H130.614V19.56H129.654V21.48H128.754ZM132.644 22.752C132.896 22.56 133.472 22.2 134.3 22.2C134.984 22.2 135.548 22.416 135.548 23.172V23.976C135.224 23.772 134.708 23.568 133.976 23.568C132.62 23.568 131.816 24.276 131.816 25.344C131.816 26.472 132.704 27.12 133.724 27.12C134.396 27.12 135.188 26.844 135.548 26.256V27H136.508V23.04C136.508 21.972 135.632 21.36 134.348 21.36C133.328 21.36 132.596 21.744 132.176 22.044L132.644 22.752ZM132.788 25.296C132.788 24.696 133.196 24.324 134.132 24.324C134.648 24.324 135.104 24.42 135.548 24.636V24.84C135.548 25.716 134.852 26.292 133.976 26.292C133.268 26.292 132.788 25.932 132.788 25.296ZM140.651 21.48V22.38H141.551V27H142.511V22.38H143.411V21.48H142.511V19.56H141.551V21.48H140.651ZM148.634 21.48H147.554L146.042 25.284L144.494 21.48H143.354L145.466 26.22L143.954 29.64H145.034L148.634 21.48ZM150.319 29.64V26.052C150.727 26.736 151.387 27.12 152.203 27.12C153.703 27.12 154.939 26.028 154.939 24.24C154.939 22.452 153.703 21.36 152.203 21.36C151.387 21.36 150.727 21.744 150.319 22.428V21.48H149.359V29.64H150.319ZM153.967 24.24C153.967 25.512 153.103 26.22 152.083 26.22C151.243 26.22 150.319 25.512 150.319 24.24C150.319 22.968 151.243 22.26 152.083 22.26C153.103 22.26 153.967 22.968 153.967 24.24ZM158.279 27.12C159.455 27.12 160.331 26.652 160.907 25.716L160.127 25.224C159.719 25.896 159.143 26.22 158.399 26.22C157.367 26.22 156.731 25.596 156.647 24.48H160.991C160.991 24.456 161.003 24.312 161.003 24.192C161.003 22.44 160.019 21.36 158.399 21.36C156.767 21.36 155.663 22.524 155.663 24.24C155.663 25.944 156.731 27.12 158.279 27.12ZM158.399 22.2C159.287 22.2 159.887 22.776 159.959 23.664H156.683C156.851 22.728 157.451 22.2 158.399 22.2ZM162.427 25.308L161.671 25.776C161.971 26.436 162.775 27.12 163.879 27.12C165.007 27.12 165.775 26.4 165.775 25.44C165.775 24.456 164.995 24.084 164.035 23.688C163.447 23.448 162.883 23.196 162.883 22.752C162.883 22.38 163.219 22.212 163.615 22.212C164.191 22.212 164.659 22.524 164.959 22.932L165.727 22.44C165.391 21.828 164.611 21.36 163.735 21.36C162.835 21.36 161.947 21.828 161.947 22.812C161.947 23.784 162.799 24.192 163.531 24.468C164.167 24.708 164.803 24.972 164.803 25.548C164.803 25.98 164.467 26.244 163.927 26.244C163.243 26.244 162.763 25.824 162.427 25.308ZM170.396 19.2C170.396 19.56 170.696 19.86 171.056 19.86C171.416 19.86 171.716 19.56 171.716 19.2C171.716 18.84 171.416 18.54 171.056 18.54C170.696 18.54 170.396 18.84 170.396 19.2ZM170.576 21.48V27H171.536V21.48H170.576ZM176.934 23.64V27H177.894V23.52C177.894 22.188 177.162 21.36 175.998 21.36C175.278 21.36 174.726 21.672 174.354 22.344V21.48H173.394V27H174.354V23.64C174.354 22.824 174.918 22.26 175.758 22.26C176.526 22.26 176.934 22.728 176.934 23.64ZM182.216 21.48V22.38H183.116V27H184.076V22.38H184.976V21.48H184.076V19.56H183.116V21.48H182.216ZM189.359 23.64V27H190.319V23.52C190.319 22.092 189.563 21.36 188.423 21.36C187.703 21.36 187.115 21.744 186.779 22.356V17.64H185.819V27H186.779V23.64C186.779 22.848 187.343 22.26 188.183 22.26C188.963 22.26 189.359 22.728 189.359 23.64ZM192.003 19.2C192.003 19.56 192.303 19.86 192.663 19.86C193.023 19.86 193.323 19.56 193.323 19.2C193.323 18.84 193.023 18.54 192.663 18.54C192.303 18.54 192.003 18.84 192.003 19.2ZM192.183 21.48V27H193.143V21.48H192.183ZM195.229 25.308L194.473 25.776C194.773 26.436 195.577 27.12 196.681 27.12C197.809 27.12 198.577 26.4 198.577 25.44C198.577 24.456 197.797 24.084 196.837 23.688C196.249 23.448 195.685 23.196 195.685 22.752C195.685 22.38 196.021 22.212 196.417 22.212C196.993 22.212 197.461 22.524 197.761 22.932L198.529 22.44C198.193 21.828 197.413 21.36 196.537 21.36C195.637 21.36 194.749 21.828 194.749 22.812C194.749 23.784 195.601 24.192 196.333 24.468C196.969 24.708 197.605 24.972 197.605 25.548C197.605 25.98 197.269 26.244 196.729 26.244C196.045 26.244 195.565 25.824 195.229 25.308ZM203.63 24.24C203.63 23.088 204.434 22.26 205.514 22.26C206.402 22.26 207.182 22.728 207.434 23.268V22.068C207.05 21.624 206.27 21.36 205.514 21.36C203.894 21.36 202.658 22.572 202.658 24.24C202.658 25.908 203.894 27.12 205.514 27.12C206.27 27.12 207.05 26.868 207.434 26.412V25.212C207.182 25.752 206.402 26.22 205.514 26.22C204.434 26.22 203.63 25.392 203.63 24.24ZM209.097 22.752C209.349 22.56 209.925 22.2 210.753 22.2C211.437 22.2 212.001 22.416 212.001 23.172V23.976C211.677 23.772 211.161 23.568 210.429 23.568C209.073 23.568 208.269 24.276 208.269 25.344C208.269 26.472 209.157 27.12 210.177 27.12C210.849 27.12 211.641 26.844 212.001 26.256V27H212.961V23.04C212.961 21.972 212.085 21.36 210.801 21.36C209.781 21.36 209.049 21.744 208.629 22.044L209.097 22.752ZM209.241 25.296C209.241 24.696 209.649 24.324 210.585 24.324C211.101 24.324 211.557 24.42 212.001 24.636V24.84C212.001 25.716 211.305 26.292 210.429 26.292C209.721 26.292 209.241 25.932 209.241 25.296ZM213.626 21.48V22.38H214.526V27H215.486V22.38H216.386V21.48H215.486V19.56H214.526V21.48H213.626ZM219.365 27.12C220.541 27.12 221.417 26.652 221.993 25.716L221.213 25.224C220.805 25.896 220.229 26.22 219.485 26.22C218.453 26.22 217.817 25.596 217.733 24.48H222.077C222.077 24.456 222.089 24.312 222.089 24.192C222.089 22.44 221.105 21.36 219.485 21.36C217.853 21.36 216.749 22.524 216.749 24.24C216.749 25.944 217.817 27.12 219.365 27.12ZM219.485 22.2C220.373 22.2 220.973 22.776 221.045 23.664H217.769C217.937 22.728 218.537 22.2 219.485 22.2ZM222.913 27.36C222.913 28.788 224.029 29.76 225.649 29.76C227.029 29.76 228.385 28.788 228.385 26.88V21.48H227.425V22.428C227.017 21.744 226.357 21.36 225.541 21.36C224.041 21.36 222.805 22.452 222.805 24.24C222.805 26.028 224.041 27.12 225.541 27.12C226.357 27.12 227.017 26.736 227.425 26.052V26.88C227.425 28.272 226.489 28.86 225.649 28.86C224.569 28.86 223.885 28.152 223.885 27.36H222.913ZM223.777 24.24C223.777 22.968 224.641 22.26 225.661 22.26C226.501 22.26 227.425 22.968 227.425 24.24C227.425 25.512 226.501 26.22 225.661 26.22C224.641 26.22 223.777 25.512 223.777 24.24ZM229.528 24.24C229.528 25.908 230.764 27.12 232.384 27.12C234.004 27.12 235.24 25.908 235.24 24.24C235.24 22.572 234.004 21.36 232.384 21.36C230.764 21.36 229.528 22.572 229.528 24.24ZM230.5 24.24C230.5 23.088 231.304 22.26 232.384 22.26C233.464 22.26 234.268 23.088 234.268 24.24C234.268 25.392 233.464 26.22 232.384 26.22C231.304 26.22 230.5 25.392 230.5 24.24ZM239.067 22.536L239.595 21.744C239.307 21.444 238.959 21.36 238.563 21.36C238.143 21.36 237.711 21.648 237.399 22.116V21.48H236.439V27H237.399V23.64C237.399 22.848 237.603 22.26 238.323 22.26C238.635 22.26 238.803 22.344 239.067 22.536ZM245.176 21.48H244.096L242.584 25.284L241.036 21.48H239.896L242.008 26.22L240.496 29.64H241.576L245.176 21.48Z" fill="#0F1938"/>
<path d="M115.12 132.56H117.28V140H118.3V132.56H120.46V131.6H115.12V132.56ZM124.898 136.64V140H125.858V136.52C125.858 135.092 125.102 134.36 123.962 134.36C123.242 134.36 122.654 134.744 122.318 135.356V130.64H121.358V140H122.318V136.64C122.318 135.848 122.882 135.26 123.722 135.26C124.502 135.26 124.898 135.728 124.898 136.64ZM129.679 140.12C130.855 140.12 131.731 139.652 132.307 138.716L131.527 138.224C131.119 138.896 130.543 139.22 129.799 139.22C128.767 139.22 128.131 138.596 128.047 137.48H132.391C132.391 137.456 132.403 137.312 132.403 137.192C132.403 135.44 131.419 134.36 129.799 134.36C128.167 134.36 127.063 135.524 127.063 137.24C127.063 138.944 128.131 140.12 129.679 140.12ZM129.799 135.2C130.687 135.2 131.287 135.776 131.359 136.664H128.083C128.251 135.728 128.851 135.2 129.799 135.2ZM137.304 138.308L136.548 138.776C136.848 139.436 137.652 140.12 138.756 140.12C139.884 140.12 140.652 139.4 140.652 138.44C140.652 137.456 139.872 137.084 138.912 136.688C138.324 136.448 137.76 136.196 137.76 135.752C137.76 135.38 138.096 135.212 138.492 135.212C139.068 135.212 139.536 135.524 139.836 135.932L140.604 135.44C140.268 134.828 139.488 134.36 138.612 134.36C137.712 134.36 136.824 134.828 136.824 135.812C136.824 136.784 137.676 137.192 138.408 137.468C139.044 137.708 139.68 137.972 139.68 138.548C139.68 138.98 139.344 139.244 138.804 139.244C138.12 139.244 137.64 138.824 137.304 138.308ZM141.796 132.2C141.796 132.56 142.096 132.86 142.456 132.86C142.816 132.86 143.116 132.56 143.116 132.2C143.116 131.84 142.816 131.54 142.456 131.54C142.096 131.54 141.796 131.84 141.796 132.2ZM141.976 134.48V140H142.936V134.48H141.976ZM147.493 135.38L144.073 140H148.993V139.1H145.813L149.233 134.48H144.433V135.38H147.493ZM152.153 140.12C153.329 140.12 154.205 139.652 154.781 138.716L154.001 138.224C153.593 138.896 153.017 139.22 152.273 139.22C151.241 139.22 150.605 138.596 150.521 137.48H154.865C154.865 137.456 154.877 137.312 154.877 137.192C154.877 135.44 153.893 134.36 152.273 134.36C150.641 134.36 149.537 135.524 149.537 137.24C149.537 138.944 150.605 140.12 152.153 140.12ZM152.273 135.2C153.161 135.2 153.761 135.776 153.833 136.664H150.557C150.725 135.728 151.325 135.2 152.273 135.2ZM159.07 137.24C159.07 138.908 160.306 140.12 161.926 140.12C163.546 140.12 164.782 138.908 164.782 137.24C164.782 135.572 163.546 134.36 161.926 134.36C160.306 134.36 159.07 135.572 159.07 137.24ZM160.042 137.24C160.042 136.088 160.846 135.26 161.926 135.26C163.006 135.26 163.81 136.088 163.81 137.24C163.81 138.392 163.006 139.22 161.926 139.22C160.846 139.22 160.042 138.392 160.042 137.24ZM165.561 134.48V135.38H166.101V140H167.061V135.38H168.321V134.48H167.061V132.56C167.061 131.768 167.277 131.48 167.637 131.48C167.829 131.48 168.057 131.516 168.225 131.792L168.753 131C168.573 130.76 168.213 130.52 167.697 130.52C166.689 130.52 166.101 131.132 166.101 132.44V134.48H165.561ZM174.909 140.12C176.085 140.12 176.961 139.652 177.537 138.716L176.757 138.224C176.349 138.896 175.773 139.22 175.029 139.22C173.997 139.22 173.361 138.596 173.277 137.48H177.621C177.621 137.456 177.633 137.312 177.633 137.192C177.633 135.44 176.649 134.36 175.029 134.36C173.397 134.36 172.293 135.524 172.293 137.24C172.293 138.944 173.361 140.12 174.909 140.12ZM175.029 135.2C175.917 135.2 176.517 135.776 176.589 136.664H173.313C173.481 135.728 174.081 135.2 175.029 135.2ZM179.116 135.752C179.368 135.56 179.944 135.2 180.772 135.2C181.456 135.2 182.02 135.416 182.02 136.172V136.976C181.696 136.772 181.18 136.568 180.448 136.568C179.092 136.568 178.288 137.276 178.288 138.344C178.288 139.472 179.176 140.12 180.196 140.12C180.868 140.12 181.66 139.844 182.02 139.256V140H182.98V136.04C182.98 134.972 182.104 134.36 180.82 134.36C179.8 134.36 179.068 134.744 178.648 135.044L179.116 135.752ZM179.26 138.296C179.26 137.696 179.668 137.324 180.604 137.324C181.12 137.324 181.576 137.42 182.02 137.636V137.84C182.02 138.716 181.324 139.292 180.448 139.292C179.74 139.292 179.26 138.932 179.26 138.296ZM184.918 137.24C184.918 136.088 185.722 135.26 186.802 135.26C187.69 135.26 188.47 135.728 188.722 136.268V135.068C188.338 134.624 187.558 134.36 186.802 134.36C185.182 134.36 183.946 135.572 183.946 137.24C183.946 138.908 185.182 140.12 186.802 140.12C187.558 140.12 188.338 139.868 188.722 139.412V138.212C188.47 138.752 187.69 139.22 186.802 139.22C185.722 139.22 184.918 138.392 184.918 137.24ZM193.636 136.64V140H194.596V136.52C194.596 135.092 193.84 134.36 192.7 134.36C191.98 134.36 191.392 134.744 191.056 135.356V130.64H190.096V140H191.056V136.64C191.056 135.848 191.62 135.26 192.46 135.26C193.24 135.26 193.636 135.728 193.636 136.64ZM200.19 137.24C200.19 136.088 200.994 135.26 202.074 135.26C202.962 135.26 203.742 135.728 203.994 136.268V135.068C203.61 134.624 202.83 134.36 202.074 134.36C200.454 134.36 199.218 135.572 199.218 137.24C199.218 138.908 200.454 140.12 202.074 140.12C202.83 140.12 203.61 139.868 203.994 139.412V138.212C203.742 138.752 202.962 139.22 202.074 139.22C200.994 139.22 200.19 138.392 200.19 137.24ZM205.369 132.2C205.369 132.56 205.669 132.86 206.029 132.86C206.389 132.86 206.689 132.56 206.689 132.2C206.689 131.84 206.389 131.54 206.029 131.54C205.669 131.54 205.369 131.84 205.369 132.2ZM205.549 134.48V140H206.509V134.48H205.549ZM210.994 135.536L211.522 134.744C211.234 134.444 210.886 134.36 210.49 134.36C210.07 134.36 209.638 134.648 209.326 135.116V134.48H208.366V140H209.326V136.64C209.326 135.848 209.53 135.26 210.25 135.26C210.562 135.26 210.73 135.344 210.994 135.536ZM212.616 137.24C212.616 136.088 213.42 135.26 214.5 135.26C215.388 135.26 216.168 135.728 216.42 136.268V135.068C216.036 134.624 215.256 134.36 214.5 134.36C212.88 134.36 211.644 135.572 211.644 137.24C211.644 138.908 212.88 140.12 214.5 140.12C215.256 140.12 216.036 139.868 216.42 139.412V138.212C216.168 138.752 215.388 139.22 214.5 139.22C213.42 139.22 212.616 138.392 212.616 137.24ZM217.794 130.64V140H218.754V130.64H217.794ZM222.576 140.12C223.752 140.12 224.628 139.652 225.204 138.716L224.424 138.224C224.016 138.896 223.44 139.22 222.696 139.22C221.664 139.22 221.028 138.596 220.944 137.48H225.288C225.288 137.456 225.3 137.312 225.3 137.192C225.3 135.44 224.316 134.36 222.696 134.36C221.064 134.36 219.96 135.524 219.96 137.24C219.96 138.944 221.028 140.12 222.576 140.12ZM222.696 135.2C223.584 135.2 224.184 135.776 224.256 136.664H220.98C221.148 135.728 221.748 135.2 222.696 135.2ZM232.601 135.536L233.129 134.744C232.841 134.444 232.493 134.36 232.097 134.36C231.677 134.36 231.245 134.648 230.933 135.116V134.48H229.973V140H230.933V136.64C230.933 135.848 231.137 135.26 231.857 135.26C232.169 135.26 232.337 135.344 232.601 135.536ZM235.927 140.12C237.103 140.12 237.979 139.652 238.555 138.716L237.775 138.224C237.367 138.896 236.791 139.22 236.047 139.22C235.015 139.22 234.379 138.596 234.295 137.48H238.639C238.639 137.456 238.651 137.312 238.651 137.192C238.651 135.44 237.667 134.36 236.047 134.36C234.415 134.36 233.311 135.524 233.311 137.24C233.311 138.944 234.379 140.12 235.927 140.12ZM236.047 135.2C236.935 135.2 237.535 135.776 237.607 136.664H234.331C234.499 135.728 235.099 135.2 236.047 135.2ZM240.746 142.64V139.052C241.154 139.736 241.814 140.12 242.63 140.12C244.13 140.12 245.366 139.028 245.366 137.24C245.366 135.452 244.13 134.36 242.63 134.36C241.814 134.36 241.154 134.744 240.746 135.428V134.48H239.786V142.64H240.746ZM244.394 137.24C244.394 138.512 243.53 139.22 242.51 139.22C241.67 139.22 240.746 138.512 240.746 137.24C240.746 135.968 241.67 135.26 242.51 135.26C243.53 135.26 244.394 135.968 244.394 137.24ZM249.198 135.536L249.726 134.744C249.438 134.444 249.09 134.36 248.694 134.36C248.274 134.36 247.842 134.648 247.53 135.116V134.48H246.57V140H247.53V136.64C247.53 135.848 247.734 135.26 248.454 135.26C248.766 135.26 248.934 135.344 249.198 135.536ZM252.524 140.12C253.7 140.12 254.576 139.652 255.152 138.716L254.372 138.224C253.964 138.896 253.388 139.22 252.644 139.22C251.612 139.22 250.976 138.596 250.892 137.48H255.236C255.236 137.456 255.248 137.312 255.248 137.192C255.248 135.44 254.264 134.36 252.644 134.36C251.012 134.36 249.908 135.524 249.908 137.24C249.908 138.944 250.976 140.12 252.524 140.12ZM252.644 135.2C253.532 135.2 254.132 135.776 254.204 136.664H250.928C251.096 135.728 251.696 135.2 252.644 135.2ZM256.671 138.308L255.915 138.776C256.215 139.436 257.019 140.12 258.123 140.12C259.251 140.12 260.019 139.4 260.019 138.44C260.019 137.456 259.239 137.084 258.279 136.688C257.691 136.448 257.127 136.196 257.127 135.752C257.127 135.38 257.463 135.212 257.859 135.212C258.435 135.212 258.903 135.524 259.203 135.932L259.971 135.44C259.635 134.828 258.855 134.36 257.979 134.36C257.079 134.36 256.191 134.828 256.191 135.812C256.191 136.784 257.043 137.192 257.775 137.468C258.411 137.708 259.047 137.972 259.047 138.548C259.047 138.98 258.711 139.244 258.171 139.244C257.487 139.244 257.007 138.824 256.671 138.308ZM263.299 140.12C264.475 140.12 265.351 139.652 265.927 138.716L265.147 138.224C264.739 138.896 264.163 139.22 263.419 139.22C262.387 139.22 261.751 138.596 261.667 137.48H266.011C266.011 137.456 266.023 137.312 266.023 137.192C266.023 135.44 265.039 134.36 263.419 134.36C261.787 134.36 260.683 135.524 260.683 137.24C260.683 138.944 261.751 140.12 263.299 140.12ZM263.419 135.2C264.307 135.2 264.907 135.776 264.979 136.664H261.703C261.871 135.728 262.471 135.2 263.419 135.2ZM270.759 136.64V140H271.719V136.52C271.719 135.188 270.987 134.36 269.823 134.36C269.103 134.36 268.551 134.672 268.179 135.344V134.48H267.219V140H268.179V136.64C268.179 135.824 268.743 135.26 269.583 135.26C270.351 135.26 270.759 135.728 270.759 136.64ZM272.564 134.48V135.38H273.464V140H274.424V135.38H275.324V134.48H274.424V132.56H273.464V134.48H272.564ZM276.395 138.308L275.639 138.776C275.939 139.436 276.743 140.12 277.847 140.12C278.975 140.12 279.743 139.4 279.743 138.44C279.743 137.456 278.963 137.084 278.003 136.688C277.415 136.448 276.851 136.196 276.851 135.752C276.851 135.38 277.187 135.212 277.583 135.212C278.159 135.212 278.627 135.524 278.927 135.932L279.695 135.44C279.359 134.828 278.579 134.36 277.703 134.36C276.803 134.36 275.915 134.828 275.915 135.812C275.915 136.784 276.767 137.192 277.499 137.468C278.135 137.708 278.771 137.972 278.771 138.548C278.771 138.98 278.435 139.244 277.895 139.244C277.211 139.244 276.731 138.824 276.395 138.308ZM115.06 148.48V149.38H115.96V154H116.92V149.38H117.82V148.48H116.92V146.56H115.96V148.48H115.06ZM122.203 150.64V154H123.163V150.52C123.163 149.092 122.407 148.36 121.267 148.36C120.547 148.36 119.959 148.744 119.623 149.356V144.64H118.663V154H119.623V150.64C119.623 149.848 120.187 149.26 121.027 149.26C121.807 149.26 122.203 149.728 122.203 150.64ZM126.984 154.12C128.16 154.12 129.036 153.652 129.612 152.716L128.832 152.224C128.424 152.896 127.848 153.22 127.104 153.22C126.072 153.22 125.436 152.596 125.352 151.48H129.696C129.696 151.456 129.708 151.312 129.708 151.192C129.708 149.44 128.724 148.36 127.104 148.36C125.472 148.36 124.368 149.524 124.368 151.24C124.368 152.944 125.436 154.12 126.984 154.12ZM127.104 149.2C127.992 149.2 128.592 149.776 128.664 150.664H125.388C125.556 149.728 126.156 149.2 127.104 149.2ZM137.921 150.64V154H138.881V150.52C138.881 149.188 138.149 148.36 136.985 148.36C136.265 148.36 135.713 148.672 135.341 149.344V148.48H134.381V154H135.341V150.64C135.341 149.824 135.905 149.26 136.745 149.26C137.513 149.26 137.921 149.728 137.921 150.64ZM141.526 151.84V148.48H140.566V151.96C140.566 153.28 141.31 154.12 142.462 154.12C143.194 154.12 143.734 153.796 144.106 153.136V154H145.066V148.48H144.106V151.84C144.106 152.656 143.542 153.22 142.702 153.22C141.934 153.22 141.526 152.728 141.526 151.84ZM154.31 150.52C154.31 149.152 153.662 148.36 152.534 148.36C151.79 148.36 151.214 148.708 150.83 149.392C150.578 148.732 150.002 148.36 149.234 148.36C148.55 148.36 148.046 148.66 147.71 149.284V148.48H146.75V154H147.71V150.64C147.71 149.776 148.202 149.26 148.994 149.26C149.714 149.26 150.05 149.692 150.05 150.64V154H151.01V150.64C151.01 149.776 151.502 149.26 152.294 149.26C153.014 149.26 153.35 149.692 153.35 150.64V154H154.31V150.52ZM161.514 151.24C161.514 149.452 160.278 148.36 158.778 148.36C157.962 148.36 157.302 148.744 156.894 149.428V144.64H155.934V154H156.894V153.052C157.302 153.736 157.962 154.12 158.778 154.12C160.278 154.12 161.514 153.028 161.514 151.24ZM160.542 151.24C160.542 152.512 159.678 153.22 158.658 153.22C157.818 153.22 156.894 152.512 156.894 151.24C156.894 149.968 157.818 149.26 158.658 149.26C159.678 149.26 160.542 149.968 160.542 151.24ZM164.853 154.12C166.029 154.12 166.905 153.652 167.481 152.716L166.701 152.224C166.293 152.896 165.717 153.22 164.973 153.22C163.941 153.22 163.305 152.596 163.221 151.48H167.565C167.565 151.456 167.577 151.312 167.577 151.192C167.577 149.44 166.593 148.36 164.973 148.36C163.341 148.36 162.237 149.524 162.237 151.24C162.237 152.944 163.305 154.12 164.853 154.12ZM164.973 149.2C165.861 149.2 166.461 149.776 166.533 150.664H163.257C163.425 149.728 164.025 149.2 164.973 149.2ZM171.401 149.536L171.929 148.744C171.641 148.444 171.293 148.36 170.897 148.36C170.477 148.36 170.045 148.648 169.733 149.116V148.48H168.773V154H169.733V150.64C169.733 149.848 169.937 149.26 170.657 149.26C170.969 149.26 171.137 149.344 171.401 149.536ZM175.764 151.24C175.764 152.908 177 154.12 178.62 154.12C180.24 154.12 181.476 152.908 181.476 151.24C181.476 149.572 180.24 148.36 178.62 148.36C177 148.36 175.764 149.572 175.764 151.24ZM176.736 151.24C176.736 150.088 177.54 149.26 178.62 149.26C179.7 149.26 180.504 150.088 180.504 151.24C180.504 152.392 179.7 153.22 178.62 153.22C177.54 153.22 176.736 152.392 176.736 151.24ZM182.255 148.48V149.38H182.795V154H183.755V149.38H185.015V148.48H183.755V146.56C183.755 145.768 183.971 145.48 184.331 145.48C184.523 145.48 184.751 145.516 184.919 145.792L185.447 145C185.267 144.76 184.907 144.52 184.391 144.52C183.383 144.52 182.795 145.132 182.795 146.44V148.48H182.255ZM188.626 148.48V149.38H189.526V154H190.486V149.38H191.386V148.48H190.486V146.56H189.526V148.48H188.626ZM192.229 146.2C192.229 146.56 192.529 146.86 192.889 146.86C193.249 146.86 193.549 146.56 193.549 146.2C193.549 145.84 193.249 145.54 192.889 145.54C192.529 145.54 192.229 145.84 192.229 146.2ZM192.409 148.48V154H193.369V148.48H192.409ZM202.786 150.52C202.786 149.152 202.138 148.36 201.01 148.36C200.266 148.36 199.69 148.708 199.306 149.392C199.054 148.732 198.478 148.36 197.71 148.36C197.026 148.36 196.522 148.66 196.186 149.284V148.48H195.226V154H196.186V150.64C196.186 149.776 196.678 149.26 197.47 149.26C198.19 149.26 198.526 149.692 198.526 150.64V154H199.486V150.64C199.486 149.776 199.978 149.26 200.77 149.26C201.49 149.26 201.826 149.692 201.826 150.64V154H202.786V150.52ZM206.605 154.12C207.781 154.12 208.657 153.652 209.233 152.716L208.453 152.224C208.045 152.896 207.469 153.22 206.725 153.22C205.693 153.22 205.057 152.596 204.973 151.48H209.317C209.317 151.456 209.329 151.312 209.329 151.192C209.329 149.44 208.345 148.36 206.725 148.36C205.093 148.36 203.989 149.524 203.989 151.24C203.989 152.944 205.057 154.12 206.605 154.12ZM206.725 149.2C207.613 149.2 208.213 149.776 208.285 150.664H205.009C205.177 149.728 205.777 149.2 206.725 149.2ZM210.753 152.308L209.997 152.776C210.297 153.436 211.101 154.12 212.205 154.12C213.333 154.12 214.101 153.4 214.101 152.44C214.101 151.456 213.321 151.084 212.361 150.688C211.773 150.448 211.209 150.196 211.209 149.752C211.209 149.38 211.545 149.212 211.941 149.212C212.517 149.212 212.985 149.524 213.285 149.932L214.053 149.44C213.717 148.828 212.937 148.36 212.061 148.36C211.161 148.36 210.273 148.828 210.273 149.812C210.273 150.784 211.125 151.192 211.857 151.468C212.493 151.708 213.129 151.972 213.129 152.548C213.129 152.98 212.793 153.244 212.253 153.244C211.569 153.244 211.089 152.824 210.753 152.308ZM217.883 148.48V149.38H218.783V154H219.743V149.38H220.643V148.48H219.743V146.56H218.783V148.48H217.883ZM225.025 150.64V154H225.985V150.52C225.985 149.092 225.229 148.36 224.089 148.36C223.369 148.36 222.781 148.744 222.445 149.356V144.64H221.485V154H222.445V150.64C222.445 149.848 223.009 149.26 223.849 149.26C224.629 149.26 225.025 149.728 225.025 150.64ZM227.67 146.2C227.67 146.56 227.97 146.86 228.33 146.86C228.69 146.86 228.99 146.56 228.99 146.2C228.99 145.84 228.69 145.54 228.33 145.54C227.97 145.54 227.67 145.84 227.67 146.2ZM227.85 148.48V154H228.81V148.48H227.85ZM230.895 152.308L230.139 152.776C230.439 153.436 231.243 154.12 232.347 154.12C233.475 154.12 234.243 153.4 234.243 152.44C234.243 151.456 233.463 151.084 232.503 150.688C231.915 150.448 231.351 150.196 231.351 149.752C231.351 149.38 231.687 149.212 232.083 149.212C232.659 149.212 233.127 149.524 233.427 149.932L234.195 149.44C233.859 148.828 233.079 148.36 232.203 148.36C231.303 148.36 230.415 148.828 230.415 149.812C230.415 150.784 231.267 151.192 231.999 151.468C232.635 151.708 233.271 151.972 233.271 152.548C233.271 152.98 232.935 153.244 232.395 153.244C231.711 153.244 231.231 152.824 230.895 152.308ZM238.385 151.24C238.385 153.028 239.621 154.12 241.121 154.12C241.937 154.12 242.597 153.736 243.005 153.052V154H243.965V144.64H243.005V149.428C242.597 148.744 241.937 148.36 241.121 148.36C239.621 148.36 238.385 149.452 238.385 151.24ZM239.357 151.24C239.357 149.968 240.221 149.26 241.241 149.26C242.081 149.26 243.005 149.968 243.005 151.24C243.005 152.512 242.081 153.22 241.241 153.22C240.221 153.22 239.357 152.512 239.357 151.24ZM245.877 149.752C246.129 149.56 246.705 149.2 247.533 149.2C248.217 149.2 248.781 149.416 248.781 150.172V150.976C248.457 150.772 247.941 150.568 247.209 150.568C245.853 150.568 245.049 151.276 245.049 152.344C245.049 153.472 245.937 154.12 246.957 154.12C247.629 154.12 248.421 153.844 248.781 153.256V154H249.741V150.04C249.741 148.972 248.865 148.36 247.581 148.36C246.561 148.36 245.829 148.744 245.409 149.044L245.877 149.752ZM246.021 152.296C246.021 151.696 246.429 151.324 247.365 151.324C247.881 151.324 248.337 151.42 248.781 151.636V151.84C248.781 152.716 248.085 153.292 247.209 153.292C246.501 153.292 246.021 152.932 246.021 152.296ZM250.406 148.48V149.38H251.306V154H252.266V149.38H253.166V148.48H252.266V146.56H251.306V148.48H250.406ZM254.297 149.752C254.549 149.56 255.125 149.2 255.953 149.2C256.637 149.2 257.201 149.416 257.201 150.172V150.976C256.877 150.772 256.361 150.568 255.629 150.568C254.273 150.568 253.469 151.276 253.469 152.344C253.469 153.472 254.357 154.12 255.377 154.12C256.049 154.12 256.841 153.844 257.201 153.256V154H258.161V150.04C258.161 148.972 257.285 148.36 256.001 148.36C254.981 148.36 254.249 148.744 253.829 149.044L254.297 149.752ZM254.441 152.296C254.441 151.696 254.849 151.324 255.785 151.324C256.301 151.324 256.757 151.42 257.201 151.636V151.84C257.201 152.716 256.505 153.292 255.629 153.292C254.921 153.292 254.441 152.932 254.441 152.296ZM258.826 148.48V149.38H259.726V154H260.686V149.38H261.586V148.48H260.686V146.56H259.726V148.48H258.826ZM266.809 148.48H265.729L264.217 152.284L262.669 148.48H261.529L263.641 153.22L262.129 156.64H263.209L266.809 148.48ZM268.494 156.64V153.052C268.902 153.736 269.562 154.12 270.378 154.12C271.878 154.12 273.114 153.028 273.114 151.24C273.114 149.452 271.878 148.36 270.378 148.36C269.562 148.36 268.902 148.744 268.494 149.428V148.48H267.534V156.64H268.494ZM272.142 151.24C272.142 152.512 271.278 153.22 270.258 153.22C269.418 153.22 268.494 152.512 268.494 151.24C268.494 149.968 269.418 149.26 270.258 149.26C271.278 149.26 272.142 149.968 272.142 151.24ZM276.454 154.12C277.63 154.12 278.506 153.652 279.082 152.716L278.302 152.224C277.894 152.896 277.318 153.22 276.574 153.22C275.542 153.22 274.906 152.596 274.822 151.48H279.166C279.166 151.456 279.178 151.312 279.178 151.192C279.178 149.44 278.194 148.36 276.574 148.36C274.942 148.36 273.838 149.524 273.838 151.24C273.838 152.944 274.906 154.12 276.454 154.12ZM276.574 149.2C277.462 149.2 278.062 149.776 278.134 150.664H274.858C275.026 149.728 275.626 149.2 276.574 149.2ZM115.9 160.2C115.9 160.56 116.2 160.86 116.56 160.86C116.92 160.86 117.22 160.56 117.22 160.2C117.22 159.84 116.92 159.54 116.56 159.54C116.2 159.54 115.9 159.84 115.9 160.2ZM116.08 162.48V168H117.04V162.48H116.08ZM119.125 166.308L118.369 166.776C118.669 167.436 119.473 168.12 120.577 168.12C121.705 168.12 122.473 167.4 122.473 166.44C122.473 165.456 121.693 165.084 120.733 164.688C120.145 164.448 119.581 164.196 119.581 163.752C119.581 163.38 119.917 163.212 120.313 163.212C120.889 163.212 121.357 163.524 121.657 163.932L122.425 163.44C122.089 162.828 121.309 162.36 120.433 162.36C119.533 162.36 118.645 162.828 118.645 163.812C118.645 164.784 119.497 165.192 120.229 165.468C120.865 165.708 121.501 165.972 121.501 166.548C121.501 166.98 121.165 167.244 120.625 167.244C119.941 167.244 119.461 166.824 119.125 166.308ZM127.323 166.308L126.567 166.776C126.867 167.436 127.671 168.12 128.775 168.12C129.903 168.12 130.671 167.4 130.671 166.44C130.671 165.456 129.891 165.084 128.931 164.688C128.343 164.448 127.779 164.196 127.779 163.752C127.779 163.38 128.115 163.212 128.511 163.212C129.087 163.212 129.555 163.524 129.855 163.932L130.623 163.44C130.287 162.828 129.507 162.36 128.631 162.36C127.731 162.36 126.843 162.828 126.843 163.812C126.843 164.784 127.695 165.192 128.427 165.468C129.063 165.708 129.699 165.972 129.699 166.548C129.699 166.98 129.363 167.244 128.823 167.244C128.139 167.244 127.659 166.824 127.323 166.308ZM135.355 164.64V168H136.315V164.52C136.315 163.092 135.559 162.36 134.419 162.36C133.699 162.36 133.111 162.744 132.775 163.356V158.64H131.815V168H132.775V164.64C132.775 163.848 133.339 163.26 134.179 163.26C134.959 163.26 135.355 163.728 135.355 164.64ZM138.287 163.752C138.539 163.56 139.115 163.2 139.943 163.2C140.627 163.2 141.191 163.416 141.191 164.172V164.976C140.867 164.772 140.351 164.568 139.619 164.568C138.263 164.568 137.459 165.276 137.459 166.344C137.459 167.472 138.347 168.12 139.367 168.12C140.039 168.12 140.831 167.844 141.191 167.256V168H142.151V164.04C142.151 162.972 141.275 162.36 139.991 162.36C138.971 162.36 138.239 162.744 137.819 163.044L138.287 163.752ZM138.431 166.296C138.431 165.696 138.839 165.324 139.775 165.324C140.291 165.324 140.747 165.42 141.191 165.636V165.84C141.191 166.716 140.495 167.292 139.619 167.292C138.911 167.292 138.431 166.932 138.431 166.296ZM146.285 163.536L146.813 162.744C146.525 162.444 146.177 162.36 145.781 162.36C145.361 162.36 144.929 162.648 144.617 163.116V162.48H143.657V168H144.617V164.64C144.617 163.848 144.821 163.26 145.541 163.26C145.853 163.26 146.021 163.344 146.285 163.536ZM149.61 168.12C150.786 168.12 151.662 167.652 152.238 166.716L151.458 166.224C151.05 166.896 150.474 167.22 149.73 167.22C148.698 167.22 148.062 166.596 147.978 165.48H152.322C152.322 165.456 152.334 165.312 152.334 165.192C152.334 163.44 151.35 162.36 149.73 162.36C148.098 162.36 146.994 163.524 146.994 165.24C146.994 166.944 148.062 168.12 149.61 168.12ZM149.73 163.2C150.618 163.2 151.218 163.776 151.29 164.664H148.014C148.182 163.728 148.782 163.2 149.73 163.2ZM153.05 165.24C153.05 167.028 154.286 168.12 155.786 168.12C156.602 168.12 157.262 167.736 157.67 167.052V168H158.63V158.64H157.67V163.428C157.262 162.744 156.602 162.36 155.786 162.36C154.286 162.36 153.05 163.452 153.05 165.24ZM154.022 165.24C154.022 163.968 154.886 163.26 155.906 163.26C156.746 163.26 157.67 163.968 157.67 165.24C157.67 166.512 156.746 167.22 155.906 167.22C154.886 167.22 154.022 166.512 154.022 165.24ZM162.891 162.48L165.291 168.42L166.863 164.4L168.531 168.42L170.931 162.48H169.851L168.459 166.092L166.851 162.06L165.351 166.068L163.971 162.48H162.891ZM171.768 160.2C171.768 160.56 172.068 160.86 172.428 160.86C172.788 160.86 173.088 160.56 173.088 160.2C173.088 159.84 172.788 159.54 172.428 159.54C172.068 159.54 171.768 159.84 171.768 160.2ZM171.948 162.48V168H172.908V162.48H171.948ZM173.925 162.48V163.38H174.825V168H175.785V163.38H176.685V162.48H175.785V160.56H174.825V162.48H173.925ZM181.067 164.64V168H182.027V164.52C182.027 163.092 181.271 162.36 180.131 162.36C179.411 162.36 178.823 162.744 178.487 163.356V158.64H177.527V168H178.487V164.64C178.487 163.848 179.051 163.26 179.891 163.26C180.671 163.26 181.067 163.728 181.067 164.64ZM186.71 165.24C186.71 166.908 187.946 168.12 189.566 168.12C191.186 168.12 192.422 166.908 192.422 165.24C192.422 163.572 191.186 162.36 189.566 162.36C187.946 162.36 186.71 163.572 186.71 165.24ZM187.682 165.24C187.682 164.088 188.486 163.26 189.566 163.26C190.646 163.26 191.45 164.088 191.45 165.24C191.45 166.392 190.646 167.22 189.566 167.22C188.486 167.22 187.682 166.392 187.682 165.24ZM192.781 162.48V163.38H193.681V168H194.641V163.38H195.541V162.48H194.641V160.56H193.681V162.48H192.781ZM199.923 164.64V168H200.883V164.52C200.883 163.092 200.127 162.36 198.987 162.36C198.267 162.36 197.679 162.744 197.343 163.356V158.64H196.383V168H197.343V164.64C197.343 163.848 197.907 163.26 198.747 163.26C199.527 163.26 199.923 163.728 199.923 164.64ZM204.704 168.12C205.88 168.12 206.756 167.652 207.332 166.716L206.552 166.224C206.144 166.896 205.568 167.22 204.824 167.22C203.792 167.22 203.156 166.596 203.072 165.48H207.416C207.416 165.456 207.428 165.312 207.428 165.192C207.428 163.44 206.444 162.36 204.824 162.36C203.192 162.36 202.088 163.524 202.088 165.24C202.088 166.944 203.156 168.12 204.704 168.12ZM204.824 163.2C205.712 163.2 206.312 163.776 206.384 164.664H203.108C203.276 163.728 203.876 163.2 204.824 163.2ZM211.252 163.536L211.78 162.744C211.492 162.444 211.144 162.36 210.748 162.36C210.328 162.36 209.896 162.648 209.584 163.116V162.48H208.624V168H209.584V164.64C209.584 163.848 209.788 163.26 210.508 163.26C210.82 163.26 210.988 163.344 211.252 163.536ZM216.527 165.24C216.527 164.088 217.331 163.26 218.411 163.26C219.299 163.26 220.079 163.728 220.331 164.268V163.068C219.947 162.624 219.167 162.36 218.411 162.36C216.791 162.36 215.555 163.572 215.555 165.24C215.555 166.908 216.791 168.12 218.411 168.12C219.167 168.12 219.947 167.868 220.331 167.412V166.212C220.079 166.752 219.299 167.22 218.411 167.22C217.331 167.22 216.527 166.392 216.527 165.24ZM221.225 165.24C221.225 166.908 222.461 168.12 224.081 168.12C225.701 168.12 226.937 166.908 226.937 165.24C226.937 163.572 225.701 162.36 224.081 162.36C222.461 162.36 221.225 163.572 221.225 165.24ZM222.197 165.24C222.197 164.088 223.001 163.26 224.081 163.26C225.161 163.26 225.965 164.088 225.965 165.24C225.965 166.392 225.161 167.22 224.081 167.22C223.001 167.22 222.197 166.392 222.197 165.24ZM235.696 164.52C235.696 163.152 235.048 162.36 233.92 162.36C233.176 162.36 232.6 162.708 232.216 163.392C231.964 162.732 231.388 162.36 230.62 162.36C229.936 162.36 229.432 162.66 229.096 163.284V162.48H228.136V168H229.096V164.64C229.096 163.776 229.588 163.26 230.38 163.26C231.1 163.26 231.436 163.692 231.436 164.64V168H232.396V164.64C232.396 163.776 232.888 163.26 233.68 163.26C234.4 163.26 234.736 163.692 234.736 164.64V168H235.696V164.52ZM238.279 170.64V167.052C238.687 167.736 239.347 168.12 240.163 168.12C241.663 168.12 242.899 167.028 242.899 165.24C242.899 163.452 241.663 162.36 240.163 162.36C239.347 162.36 238.687 162.744 238.279 163.428V162.48H237.319V170.64H238.279ZM241.927 165.24C241.927 166.512 241.063 167.22 240.043 167.22C239.203 167.22 238.279 166.512 238.279 165.24C238.279 163.968 239.203 163.26 240.043 163.26C241.063 163.26 241.927 163.968 241.927 165.24ZM244.391 163.752C244.643 163.56 245.219 163.2 246.047 163.2C246.731 163.2 247.295 163.416 247.295 164.172V164.976C246.971 164.772 246.455 164.568 245.723 164.568C244.367 164.568 243.563 165.276 243.563 166.344C243.563 167.472 244.451 168.12 245.471 168.12C246.143 168.12 246.935 167.844 247.295 167.256V168H248.255V164.04C248.255 162.972 247.379 162.36 246.095 162.36C245.075 162.36 244.343 162.744 243.923 163.044L244.391 163.752ZM244.535 166.296C244.535 165.696 244.943 165.324 245.879 165.324C246.395 165.324 246.851 165.42 247.295 165.636V165.84C247.295 166.716 246.599 167.292 245.723 167.292C245.015 167.292 244.535 166.932 244.535 166.296ZM253.3 164.64V168H254.26V164.52C254.26 163.188 253.528 162.36 252.364 162.36C251.644 162.36 251.092 162.672 250.72 163.344V162.48H249.76V168H250.72V164.64C250.72 163.824 251.284 163.26 252.124 163.26C252.892 163.26 253.3 163.728 253.3 164.64ZM255.945 160.2C255.945 160.56 256.245 160.86 256.605 160.86C256.965 160.86 257.265 160.56 257.265 160.2C257.265 159.84 256.965 159.54 256.605 159.54C256.245 159.54 255.945 159.84 255.945 160.2ZM256.125 162.48V168H257.085V162.48H256.125ZM261.078 168.12C262.254 168.12 263.13 167.652 263.706 166.716L262.926 166.224C262.518 166.896 261.942 167.22 261.198 167.22C260.166 167.22 259.53 166.596 259.446 165.48H263.79C263.79 165.456 263.802 165.312 263.802 165.192C263.802 163.44 262.818 162.36 261.198 162.36C259.566 162.36 258.462 163.524 258.462 165.24C258.462 166.944 259.53 168.12 261.078 168.12ZM261.198 163.2C262.086 163.2 262.686 163.776 262.758 164.664H259.482C259.65 163.728 260.25 163.2 261.198 163.2ZM265.226 166.308L264.47 166.776C264.77 167.436 265.574 168.12 266.678 168.12C267.806 168.12 268.574 167.4 268.574 166.44C268.574 165.456 267.794 165.084 266.834 164.688C266.246 164.448 265.682 164.196 265.682 163.752C265.682 163.38 266.018 163.212 266.414 163.212C266.99 163.212 267.458 163.524 267.758 163.932L268.526 163.44C268.19 162.828 267.41 162.36 266.534 162.36C265.634 162.36 264.746 162.828 264.746 163.812C264.746 164.784 265.598 165.192 266.33 165.468C266.966 165.708 267.602 165.972 267.602 166.548C267.602 166.98 267.266 167.244 266.726 167.244C266.042 167.244 265.562 166.824 265.226 166.308ZM269.958 167.52C269.958 167.88 270.258 168.18 270.618 168.18C270.978 168.18 271.278 167.88 271.278 167.52C271.278 167.16 270.978 166.86 270.618 166.86C270.258 166.86 269.958 167.16 269.958 167.52Z" fill="#0F1938"/>
<path d="M118.48 83C120.928 83 122.68 81.308 122.68 78.8C122.68 76.292 120.928 74.6 118.48 74.6H115.96V83H118.48ZM118.48 75.62C120.376 75.62 121.66 76.844 121.66 78.8C121.66 80.756 120.376 81.98 118.48 81.98H116.98V75.62H118.48ZM124.224 78.752C124.476 78.56 125.052 78.2 125.88 78.2C126.564 78.2 127.128 78.416 127.128 79.172V79.976C126.804 79.772 126.288 79.568 125.556 79.568C124.2 79.568 123.396 80.276 123.396 81.344C123.396 82.472 124.284 83.12 125.304 83.12C125.976 83.12 126.768 82.844 127.128 82.256V83H128.088V79.04C128.088 77.972 127.212 77.36 125.928 77.36C124.908 77.36 124.176 77.744 123.756 78.044L124.224 78.752ZM124.368 81.296C124.368 80.696 124.776 80.324 125.712 80.324C126.228 80.324 126.684 80.42 127.128 80.636V80.84C127.128 81.716 126.432 82.292 125.556 82.292C124.848 82.292 124.368 81.932 124.368 81.296ZM128.754 77.48V78.38H129.654V83H130.614V78.38H131.514V77.48H130.614V75.56H129.654V77.48H128.754ZM132.644 78.752C132.896 78.56 133.472 78.2 134.3 78.2C134.984 78.2 135.548 78.416 135.548 79.172V79.976C135.224 79.772 134.708 79.568 133.976 79.568C132.62 79.568 131.816 80.276 131.816 81.344C131.816 82.472 132.704 83.12 133.724 83.12C134.396 83.12 135.188 82.844 135.548 82.256V83H136.508V79.04C136.508 77.972 135.632 77.36 134.348 77.36C133.328 77.36 132.596 77.744 132.176 78.044L132.644 78.752ZM132.788 81.296C132.788 80.696 133.196 80.324 134.132 80.324C134.648 80.324 135.104 80.42 135.548 80.636V80.84C135.548 81.716 134.852 82.292 133.976 82.292C133.268 82.292 132.788 81.932 132.788 81.296ZM140.651 77.48V78.38H141.551V83H142.511V78.38H143.411V77.48H142.511V75.56H141.551V77.48H140.651ZM148.634 77.48H147.554L146.042 81.284L144.494 77.48H143.354L145.466 82.22L143.954 85.64H145.034L148.634 77.48ZM150.319 85.64V82.052C150.727 82.736 151.387 83.12 152.203 83.12C153.703 83.12 154.939 82.028 154.939 80.24C154.939 78.452 153.703 77.36 152.203 77.36C151.387 77.36 150.727 77.744 150.319 78.428V77.48H149.359V85.64H150.319ZM153.967 80.24C153.967 81.512 153.103 82.22 152.083 82.22C151.243 82.22 150.319 81.512 150.319 80.24C150.319 78.968 151.243 78.26 152.083 78.26C153.103 78.26 153.967 78.968 153.967 80.24ZM158.279 83.12C159.455 83.12 160.331 82.652 160.907 81.716L160.127 81.224C159.719 81.896 159.143 82.22 158.399 82.22C157.367 82.22 156.731 81.596 156.647 80.48H160.991C160.991 80.456 161.003 80.312 161.003 80.192C161.003 78.44 160.019 77.36 158.399 77.36C156.767 77.36 155.663 78.524 155.663 80.24C155.663 81.944 156.731 83.12 158.279 83.12ZM158.399 78.2C159.287 78.2 159.887 78.776 159.959 79.664H156.683C156.851 78.728 157.451 78.2 158.399 78.2ZM162.427 81.308L161.671 81.776C161.971 82.436 162.775 83.12 163.879 83.12C165.007 83.12 165.775 82.4 165.775 81.44C165.775 80.456 164.995 80.084 164.035 79.688C163.447 79.448 162.883 79.196 162.883 78.752C162.883 78.38 163.219 78.212 163.615 78.212C164.191 78.212 164.659 78.524 164.959 78.932L165.727 78.44C165.391 77.828 164.611 77.36 163.735 77.36C162.835 77.36 161.947 77.828 161.947 78.812C161.947 79.784 162.799 80.192 163.531 80.468C164.167 80.708 164.803 80.972 164.803 81.548C164.803 81.98 164.467 82.244 163.927 82.244C163.243 82.244 162.763 81.824 162.427 81.308ZM173.936 79.64V83H174.896V79.52C174.896 78.188 174.164 77.36 173 77.36C172.28 77.36 171.728 77.672 171.356 78.344V77.48H170.396V83H171.356V79.64C171.356 78.824 171.92 78.26 172.76 78.26C173.528 78.26 173.936 78.728 173.936 79.64ZM176.101 80.24C176.101 81.908 177.337 83.12 178.957 83.12C180.577 83.12 181.813 81.908 181.813 80.24C181.813 78.572 180.577 77.36 178.957 77.36C177.337 77.36 176.101 78.572 176.101 80.24ZM177.073 80.24C177.073 79.088 177.877 78.26 178.957 78.26C180.037 78.26 180.841 79.088 180.841 80.24C180.841 81.392 180.037 82.22 178.957 82.22C177.877 82.22 177.073 81.392 177.073 80.24ZM182.172 77.48V78.38H183.072V83H184.032V78.38H184.932V77.48H184.032V75.56H183.072V77.48H182.172ZM189.252 75.2C189.252 75.56 189.552 75.86 189.912 75.86C190.272 75.86 190.572 75.56 190.572 75.2C190.572 74.84 190.272 74.54 189.912 74.54C189.552 74.54 189.252 74.84 189.252 75.2ZM189.432 77.48V83H190.392V77.48H189.432ZM195.79 79.64V83H196.75V79.52C196.75 78.188 196.018 77.36 194.854 77.36C194.134 77.36 193.582 77.672 193.21 78.344V77.48H192.25V83H193.21V79.64C193.21 78.824 193.774 78.26 194.614 78.26C195.382 78.26 195.79 78.728 195.79 79.64ZM201.072 77.48V78.38H201.972V83H202.932V78.38H203.832V77.48H202.932V75.56H201.972V77.48H201.072ZM208.215 79.64V83H209.175V79.52C209.175 78.092 208.419 77.36 207.279 77.36C206.559 77.36 205.971 77.744 205.635 78.356V73.64H204.675V83H205.635V79.64C205.635 78.848 206.199 78.26 207.039 78.26C207.819 78.26 208.215 78.728 208.215 79.64ZM210.859 75.2C210.859 75.56 211.159 75.86 211.519 75.86C211.879 75.86 212.179 75.56 212.179 75.2C212.179 74.84 211.879 74.54 211.519 74.54C211.159 74.54 210.859 74.84 210.859 75.2ZM211.039 77.48V83H211.999V77.48H211.039ZM214.085 81.308L213.329 81.776C213.629 82.436 214.433 83.12 215.537 83.12C216.665 83.12 217.433 82.4 217.433 81.44C217.433 80.456 216.653 80.084 215.693 79.688C215.105 79.448 214.541 79.196 214.541 78.752C214.541 78.38 214.877 78.212 215.273 78.212C215.849 78.212 216.317 78.524 216.617 78.932L217.385 78.44C217.049 77.828 216.269 77.36 215.393 77.36C214.493 77.36 213.605 77.828 213.605 78.812C213.605 79.784 214.457 80.192 215.189 80.468C215.825 80.708 216.461 80.972 216.461 81.548C216.461 81.98 216.125 82.244 215.585 82.244C214.901 82.244 214.421 81.824 214.085 81.308ZM222.486 80.24C222.486 79.088 223.29 78.26 224.37 78.26C225.258 78.26 226.038 78.728 226.29 79.268V78.068C225.906 77.624 225.126 77.36 224.37 77.36C222.75 77.36 221.514 78.572 221.514 80.24C221.514 81.908 222.75 83.12 224.37 83.12C225.126 83.12 225.906 82.868 226.29 82.412V81.212C226.038 81.752 225.258 82.22 224.37 82.22C223.29 82.22 222.486 81.392 222.486 80.24ZM227.953 78.752C228.205 78.56 228.781 78.2 229.609 78.2C230.293 78.2 230.857 78.416 230.857 79.172V79.976C230.533 79.772 230.017 79.568 229.285 79.568C227.929 79.568 227.125 80.276 227.125 81.344C227.125 82.472 228.013 83.12 229.033 83.12C229.705 83.12 230.497 82.844 230.857 82.256V83H231.817V79.04C231.817 77.972 230.941 77.36 229.657 77.36C228.637 77.36 227.905 77.744 227.485 78.044L227.953 78.752ZM228.097 81.296C228.097 80.696 228.505 80.324 229.441 80.324C229.957 80.324 230.413 80.42 230.857 80.636V80.84C230.857 81.716 230.161 82.292 229.285 82.292C228.577 82.292 228.097 81.932 228.097 81.296ZM232.482 77.48V78.38H233.382V83H234.342V78.38H235.242V77.48H234.342V75.56H233.382V77.48H232.482ZM238.221 83.12C239.397 83.12 240.273 82.652 240.849 81.716L240.069 81.224C239.661 81.896 239.085 82.22 238.341 82.22C237.309 82.22 236.673 81.596 236.589 80.48H240.933C240.933 80.456 240.945 80.312 240.945 80.192C240.945 78.44 239.961 77.36 238.341 77.36C236.709 77.36 235.605 78.524 235.605 80.24C235.605 81.944 236.673 83.12 238.221 83.12ZM238.341 78.2C239.229 78.2 239.829 78.776 239.901 79.664H236.625C236.793 78.728 237.393 78.2 238.341 78.2ZM241.768 83.36C241.768 84.788 242.884 85.76 244.504 85.76C245.884 85.76 247.24 84.788 247.24 82.88V77.48H246.28V78.428C245.872 77.744 245.212 77.36 244.396 77.36C242.896 77.36 241.66 78.452 241.66 80.24C241.66 82.028 242.896 83.12 244.396 83.12C245.212 83.12 245.872 82.736 246.28 82.052V82.88C246.28 84.272 245.344 84.86 244.504 84.86C243.424 84.86 242.74 84.152 242.74 83.36H241.768ZM242.632 80.24C242.632 78.968 243.496 78.26 244.516 78.26C245.356 78.26 246.28 78.968 246.28 80.24C246.28 81.512 245.356 82.22 244.516 82.22C243.496 82.22 242.632 81.512 242.632 80.24ZM248.384 80.24C248.384 81.908 249.62 83.12 251.24 83.12C252.86 83.12 254.096 81.908 254.096 80.24C254.096 78.572 252.86 77.36 251.24 77.36C249.62 77.36 248.384 78.572 248.384 80.24ZM249.356 80.24C249.356 79.088 250.16 78.26 251.24 78.26C252.32 78.26 253.124 79.088 253.124 80.24C253.124 81.392 252.32 82.22 251.24 82.22C250.16 82.22 249.356 81.392 249.356 80.24ZM257.923 78.536L258.451 77.744C258.163 77.444 257.815 77.36 257.419 77.36C256.999 77.36 256.567 77.648 256.255 78.116V77.48H255.295V83H256.255V79.64C256.255 78.848 256.459 78.26 257.179 78.26C257.491 78.26 257.659 78.344 257.923 78.536ZM264.032 77.48H262.952L261.44 81.284L259.892 77.48H258.752L260.864 82.22L259.352 85.64H260.432L264.032 77.48Z" fill="#0F1938"/>
<circle cx="67.5" cy="182.5" r="9" stroke="#3749A9"/>
<path d="M82.5 176.5C82.5 184.769 75.5755 191.5 67 191.5C58.4245 191.5 51.5 184.769 51.5 176.5C51.5 168.231 58.4245 161.5 67 161.5C75.5755 161.5 82.5 168.231 82.5 176.5Z" stroke="#3749A9"/>
<path d="M88.5 169.5C88.5 181.661 78.8636 191.5 67 191.5C55.1364 191.5 45.5 181.661 45.5 169.5C45.5 157.339 55.1364 147.5 67 147.5C78.8636 147.5 88.5 157.339 88.5 169.5Z" stroke="#3749A9"/>
<path d="M95.5 164.5C95.5 179.395 82.981 191.5 67.5 191.5C52.019 191.5 39.5 179.395 39.5 164.5C39.5 149.605 52.019 137.5 67.5 137.5C82.981 137.5 95.5 149.605 95.5 164.5Z" stroke="#3749A9"/>
<circle cx="67" cy="160" r="31.5" stroke="#3749A9"/>
<circle cx="67" cy="156" r="35.5" stroke="#3749A9"/>
<circle cx="67" cy="153" r="38.5" stroke="#3749A9"/>
<path d="M15.4688 191.5H44.5312" stroke="#0F1938" stroke-linecap="square"/>
<path d="M15 173.5H25" stroke="#0F1938" stroke-linecap="square"/>
<path d="M15.0781 147.5H19.9219" stroke="#0F1938" stroke-linecap="square"/>
<path d="M15.0781 161.5H19.9219" stroke="#0F1938" stroke-linecap="square"/>
<path d="M15.0781 137.5H19.9219" stroke="#0F1938" stroke-linecap="square"/>
<path d="M15.0781 128.5H19.9219" stroke="#0F1938" stroke-linecap="square"/>
<path d="M15.1562 120.5H24.8438" stroke="#0F1938" stroke-linecap="square"/>
<path d="M15.4688 114.5H44.5312" stroke="#0F1938" stroke-linecap="square"/>
<path d="M1.24219 108.64L2.86219 108.19V114H4.03219V106.89L1.24219 107.52V108.64ZM5.75875 112.1C5.75875 113.27 6.80875 114.12 8.10875 114.12C9.40875 114.12 10.4688 113.27 10.4688 112.1C10.4688 111.17 9.90875 110.57 9.18875 110.28C9.79875 110 10.2188 109.46 10.2188 108.69C10.2188 107.62 9.28875 106.88 8.10875 106.88C6.92875 106.88 6.00875 107.62 6.00875 108.69C6.00875 109.46 6.41875 110 7.02875 110.28C6.31875 110.57 5.75875 111.17 5.75875 112.1ZM7.12875 108.81C7.12875 108.23 7.53875 107.81 8.10875 107.81C8.67875 107.81 9.08875 108.23 9.08875 108.81C9.08875 109.39 8.64875 109.8 8.10875 109.8C7.56875 109.8 7.12875 109.39 7.12875 108.81ZM6.91875 111.94C6.91875 111.28 7.48875 110.76 8.10875 110.76C8.72875 110.76 9.30875 111.28 9.30875 111.94C9.30875 112.7 8.72875 113.13 8.10875 113.13C7.48875 113.13 6.91875 112.7 6.91875 111.94Z" fill="#0F1938"/>
<path d="M1.06641 116.64L2.68641 116.19V122H3.85641V114.89L1.06641 115.52V116.64ZM10.603 119.72C10.603 118.31 9.66297 117.39 8.50297 117.39C8.11297 117.39 7.74297 117.47 7.39297 117.64L7.83297 116.04H10.543V115H6.94297L5.99297 118.85C6.70297 118.41 7.23297 118.3 7.85297 118.3C8.66297 118.3 9.34297 118.8 9.34297 119.65C9.34297 120.5 8.79297 121.01 7.85297 121.01C7.18297 121.01 6.49297 120.57 6.08297 120.02L5.39297 120.87C5.93297 121.55 6.72297 122.11 8.01297 122.11C9.36297 122.11 10.603 121.33 10.603 119.72Z" fill="#0F1938"/>
<path d="M0.998047 124.64L2.61805 124.19V130H3.78805V122.89L0.998047 123.52V124.64ZM5.17461 130H10.5146V128.9H7.48461L9.46461 126.95C10.0346 126.41 10.4246 125.71 10.4246 124.98C10.4246 124.05 9.65461 122.88 8.03461 122.88C6.43461 122.88 5.55461 123.99 5.55461 125.48H6.72461C6.72461 124.54 7.21461 123.94 8.01461 123.94C8.78461 123.94 9.20461 124.49 9.20461 125.04C9.20461 125.6 8.90461 126.06 8.40461 126.59L5.17461 130Z" fill="#0F1938"/>
<path d="M7.68719 138.99L9.90719 136.01C10.2572 135.56 10.5072 135.01 10.5072 134.36C10.5072 132.81 9.37719 131.88 7.93719 131.88C6.49719 131.88 5.36719 132.81 5.36719 134.36C5.36719 135.7 6.37719 136.63 7.47719 136.63C7.75719 136.63 7.98719 136.6 8.18719 136.51L6.18719 138.99H7.68719ZM9.34719 134.36C9.34719 135.22 8.74719 135.83 7.93719 135.83C7.12719 135.83 6.51719 135.22 6.51719 134.36C6.51719 133.5 7.12719 132.91 7.93719 132.91C8.74719 132.91 9.34719 133.5 9.34719 134.36Z" fill="#0F1938"/>
<path d="M8.17719 142.01L5.95719 144.99C5.60719 145.44 5.36719 145.99 5.36719 146.64C5.36719 148.19 6.49719 149.12 7.93719 149.12C9.37719 149.12 10.5072 148.19 10.5072 146.64C10.5072 145.3 9.49719 144.37 8.39719 144.37C8.10719 144.37 7.87719 144.4 7.66719 144.5L9.67719 142.01H8.17719ZM6.51719 146.64C6.51719 145.78 7.12719 145.17 7.93719 145.17C8.74719 145.17 9.34719 145.78 9.34719 146.64C9.34719 147.5 8.74719 148.09 7.93719 148.09C7.12719 148.09 6.51719 147.5 6.51719 146.64Z" fill="#0F1938"/>
<path d="M8.20828 162.12C9.64828 162.12 10.6083 161.33 10.6083 160.13C10.6083 159.18 10.0483 158.6 9.20828 158.33C9.93828 158.04 10.4083 157.49 10.4083 156.78C10.4083 155.75 9.60828 154.89 8.25828 154.89C6.96828 154.89 6.08828 155.71 6.08828 156.86H7.19828C7.19828 156.3 7.66828 155.89 8.26828 155.89C8.89828 155.89 9.21828 156.28 9.21828 156.84C9.21828 157.44 8.70828 157.94 7.85828 157.94V158.83C8.80828 158.83 9.41828 159.25 9.41828 160C9.41828 160.7 8.93828 161.1 8.22828 161.1C7.51828 161.1 6.97828 160.67 6.97828 160H5.78828C5.78828 161.15 6.71828 162.12 8.20828 162.12Z" fill="#0F1938"/>
<path d="M7.02344 169.64L8.64344 169.19V175H9.81344V167.89L7.02344 168.52V169.64Z" fill="#0F1938"/>
<path d="M5.15977 188.5C5.15977 190.67 6.25977 192.11 7.87977 192.11C9.51977 192.11 10.6098 190.67 10.6098 188.5C10.6098 186.33 9.51977 184.89 7.87977 184.89C6.25977 184.89 5.15977 186.33 5.15977 188.5ZM6.31977 188.5C6.31977 186.99 6.91977 185.95 7.87977 185.95C8.83977 185.95 9.44977 186.99 9.44977 188.5C9.44977 190.01 8.83977 191.05 7.87977 191.05C6.91977 191.05 6.31977 190.01 6.31977 188.5Z" fill="#0F1938"/>
</svg>
