<svg width="307" height="363" viewBox="0 0 307 363" fill="none" xmlns="http://www.w3.org/2000/svg">
<g id="offFacebookBarChart">
<g id="Horizontal Bar Chart">
<g id="Legend">
<g id="bigbold1">
<text id="Representation of the number of messages exchanged" fill="#0F1938" xml:space="preserve" style="white-space: pre" font-family="Jost*" font-size="14" letter-spacing="-0.01em"><tspan x="7" y="66.365">Representation of the number of &#10;</tspan><tspan x="7" y="83.365">messages exchanged                                   </tspan></text>
</g>
</g>
<g id="Bar Chart">
<path id="Rectangle 693" d="M7 198H181V214H7V198Z" fill="#3749A9"/>
<path id="Rectangle 695" d="M7 245H47V261H7V245Z" fill="#3749A9"/>
<path id="Rectangle 696" d="M7 292H14V308H7V292Z" fill="#3749A9"/>
<path id="Rectangle 692" d="M7 151H237V167H7V151Z" fill="#3749A9"/>
<text id="725" fill="#F7FAFC" xml:space="preserve" style="white-space: pre" font-family="Jost*" font-size="12" letter-spacing="-0.01em"><tspan x="212.193" y="162.67">725</tspan></text>
<text id="550" fill="#F7FAFC" xml:space="preserve" style="white-space: pre" font-family="Jost*" font-size="12" letter-spacing="-0.01em"><tspan x="155.455" y="209.67">550</tspan></text>
<text id="126" fill="#F7FAFC" xml:space="preserve" style="white-space: pre" font-family="Jost*" font-size="12" letter-spacing="-0.01em"><tspan x="22.9783" y="256.67">126</tspan></text>
<text id="22" fill="#3749A9" xml:space="preserve" style="white-space: pre" font-family="Jost*" font-size="12" letter-spacing="-0.01em"><tspan x="19" y="303.67">22</tspan></text>
<text id="bold2_4" fill="#0F1938" xml:space="preserve" style="white-space: pre" font-family="Jost*" font-size="14" letter-spacing="-0.01em"><tspan x="7" y="144.365">Name of group or person </tspan></text>
<text id="bold2_3" fill="#0F1938" xml:space="preserve" style="white-space: pre" font-family="Jost*" font-size="14" letter-spacing="-0.01em"><tspan x="7" y="191.365">Name of group or person </tspan></text>
<text id="bold2_2" fill="#0F1938" xml:space="preserve" style="white-space: pre" font-family="Jost*" font-size="14" letter-spacing="-0.01em"><tspan x="7" y="238.365">Name of group or person </tspan></text>
<text id="bold2_1" fill="#0F1938" xml:space="preserve" style="white-space: pre" font-family="Jost*" font-size="14" letter-spacing="-0.01em"><tspan x="7" y="285.365">Name of group or person </tspan></text>
</g>
<g id="x-axis (max value)">
<g id="Scale">
<line id="Line 101" x1="7.5" y1="114" x2="7.5" y2="124" stroke="#0F1938"/>
<line id="Line 105" x1="39.0532" y1="114" x2="39.0532" y2="124" stroke="#0F1938"/>
<line id="Line 131" x1="23.2764" y1="120" x2="23.2764" y2="124" stroke="#0F1938"/>
<line id="Line 109" x1="70.6064" y1="114" x2="70.6064" y2="124" stroke="#0F1938"/>
<line id="Line 132" x1="54.8301" y1="120" x2="54.8301" y2="124" stroke="#0F1938"/>
<line id="Line 113" x1="102.16" y1="114" x2="102.16" y2="124" stroke="#0F1938"/>
<line id="Line 133" x1="86.3828" y1="120" x2="86.3828" y2="124" stroke="#0F1938"/>
<line id="Line 117" x1="133.713" y1="114" x2="133.713" y2="124" stroke="#0F1938"/>
<line id="Line 134" x1="117.937" y1="120" x2="117.937" y2="124" stroke="#0F1938"/>
<line id="Line 121" x1="165.266" y1="114" x2="165.266" y2="124" stroke="#0F1938"/>
<line id="Line 135" x1="149.49" y1="120" x2="149.49" y2="124" stroke="#0F1938"/>
<path id="Line 125" d="M196.32 114V124" stroke="#0F1938"/>
<path id="Line 138" d="M227.873 114V124" stroke="#0F1938"/>
<path id="Line 136" d="M180.543 120V124" stroke="#0F1938"/>
<path id="Line 139" d="M259.426 114V124" stroke="#0F1938"/>
<path id="Line 137" d="M212.096 120V124" stroke="#0F1938"/>
<path id="Line 140" d="M243.649 120V124" stroke="#0F1938"/>
<path id="Line 145" d="M236.426 114V129" stroke="#3749A9"/>
</g>
<g id="Values">
<text id="0" fill="#0F1938" xml:space="preserve" style="white-space: pre" font-family="Jost*" font-size="12" letter-spacing="-0.01em"><tspan x="4.51981" y="108.67">0</tspan></text>
<text id="100" fill="#0F1938" xml:space="preserve" style="white-space: pre" font-family="Jost*" font-size="12" letter-spacing="-0.01em"><tspan x="28.7958" y="108.67">100</tspan></text>
<text id="highlighted" fill="#3749A9" xml:space="preserve" style="white-space: pre" font-family="Jost*" font-size="12" letter-spacing="-0.01em"><tspan x="197.895" y="108.67">Max: 725</tspan></text>
</g>
</g>
</g>
<text id="text1" fill="#0F1938" xml:space="preserve" style="white-space: pre" font-family="Jost*" font-size="12" letter-spacing="-0.01em"><tspan x="222" y="11.17">Max number of </tspan><tspan x="222" y="25.17">messages across </tspan><tspan x="222" y="39.17">all threads</tspan></text>
<text id="text2" fill="#0F1938" xml:space="preserve" style="white-space: pre" font-family="Jost*" font-size="12" letter-spacing="-0.01em"><tspan x="124" y="346.17">Total value for </tspan><tspan x="124" y="360.17">this conversation</tspan></text>
<path id="Line 276" opacity="0.3" d="M236 32L236 94" stroke="#3749A9" stroke-dasharray="2 2"/>
<path id="Line 321" opacity="0.3" d="M236.5 134L236.5 308" stroke="#3749A9" stroke-dasharray="2 2"/>
<path id="Line 165" d="M168 331L168 220" stroke="#0F1938"/>
</g>
</svg>
