<svg width="21" height="24" viewBox="0 0 21 24" fill="none" xmlns="http://www.w3.org/2000/svg">
<path d="M15 21V22.875C15 23.4963 14.4963 24 13.875 24H1.125C0.503672 24 0 23.4963 0 22.875V5.625C0 5.00367 0.503672 4.5 1.125 4.5H4.5V18.375C4.5 19.8225 5.67755 21 7.125 21H15ZM15 4.875V0H7.125C6.50367 0 6 0.503672 6 1.125V18.375C6 18.9963 6.50367 19.5 7.125 19.5H19.875C20.4963 19.5 21 18.9963 21 18.375V6H16.125C15.5063 6 15 5.49375 15 4.875ZM20.6705 3.42052L17.5795 0.329484C17.3685 0.11852 17.0824 1.55998e-06 16.784 0L16.5 0V4.5H21V4.21598C21 3.91763 20.8815 3.63149 20.6705 3.42052Z" fill="#0F1938"/>
</svg>
