<svg width="24" height="24" viewBox="0 0 24 24" fill="none" xmlns="http://www.w3.org/2000/svg">
<path d="M22.582 5.18359C21.2109 4.62109 19.8398 4.375 18.4688 4.375C14.1445 4.375 9.82031 6.58984 5.49609 6.58984C4.40625 6.58984 3.31641 6.44922 2.22656 6.09766C2.12109 6.0625 1.98047 6.02734 1.875 6.02734C1.27734 6.02734 0.75 6.51953 0.75 7.15234V18.332C0.75 18.7539 0.996094 19.1758 1.38281 19.3516C2.75391 19.9141 4.125 20.125 5.49609 20.125C9.82031 20.125 14.1445 17.9453 18.4688 17.9453C19.5586 17.9453 20.6484 18.0859 21.7383 18.4375C21.8438 18.4727 21.9844 18.4727 22.0898 18.4727C22.6875 18.4727 23.25 18.0156 23.25 17.3828V6.20312C23.25 5.78125 22.9688 5.35938 22.582 5.18359ZM2.4375 7.92578C3.14062 8.10156 3.87891 8.17188 4.61719 8.24219C4.40625 9.26172 3.52734 10.0352 2.4375 10.0352V7.92578ZM2.4375 17.9453V16.2578C3.63281 16.2578 4.61719 17.207 4.65234 18.4023C3.87891 18.3672 3.14062 18.1914 2.4375 17.9453ZM12 15.625C10.418 15.625 9.1875 14.1484 9.1875 12.25C9.1875 10.3867 10.418 8.875 12 8.875C13.5469 8.875 14.8125 10.3867 14.8125 12.25C14.8125 14.1484 13.5469 15.625 12 15.625ZM21.5625 16.6094C20.9297 16.4688 20.2969 16.3633 19.6289 16.3281C19.8398 15.4141 20.6133 14.7109 21.5625 14.6055V16.6094ZM21.5625 8.3125C20.4727 8.17188 19.6289 7.25781 19.5938 6.16797C20.2617 6.23828 20.9297 6.37891 21.5625 6.58984V8.3125Z" fill="#F7FAFC"/>
</svg>
