<svg width="18" height="18" viewBox="0 0 18 18" fill="none" xmlns="http://www.w3.org/2000/svg">
<path d="M17.2305 3.25391C16.1641 2.81641 15.0977 2.625 14.0312 2.625C10.668 2.625 7.30469 4.34766 3.94141 4.34766C3.09375 4.34766 2.24609 4.23828 1.39844 3.96484C1.31641 3.9375 1.20703 3.91016 1.125 3.91016C0.660156 3.91016 0.25 4.29297 0.25 4.78516V13.4805C0.25 13.8086 0.441406 14.1367 0.742188 14.2734C1.80859 14.7109 2.875 14.875 3.94141 14.875C7.30469 14.875 10.668 13.1797 14.0312 13.1797C14.8789 13.1797 15.7266 13.2891 16.5742 13.5625C16.6562 13.5898 16.7656 13.5898 16.8477 13.5898C17.3125 13.5898 17.75 13.2344 17.75 12.7422V4.04688C17.75 3.71875 17.5312 3.39062 17.2305 3.25391ZM1.5625 5.38672C2.10938 5.52344 2.68359 5.57812 3.25781 5.63281C3.09375 6.42578 2.41016 7.02734 1.5625 7.02734V5.38672ZM1.5625 13.1797V11.8672C2.49219 11.8672 3.25781 12.6055 3.28516 13.5352C2.68359 13.5078 2.10938 13.3711 1.5625 13.1797ZM9 11.375C7.76953 11.375 6.8125 10.2266 6.8125 8.75C6.8125 7.30078 7.76953 6.125 9 6.125C10.2031 6.125 11.1875 7.30078 11.1875 8.75C11.1875 10.2266 10.2031 11.375 9 11.375ZM16.4375 12.1406C15.9453 12.0312 15.4531 11.9492 14.9336 11.9219C15.0977 11.2109 15.6992 10.6641 16.4375 10.582V12.1406ZM16.4375 5.6875C15.5898 5.57812 14.9336 4.86719 14.9062 4.01953C15.4258 4.07422 15.9453 4.18359 16.4375 4.34766V5.6875Z" fill="#0F1938"/>
</svg>
