<svg width="24" height="24" viewBox="0 0 24 24" fill="none" xmlns="http://www.w3.org/2000/svg">
<path d="M13.2891 12.5L17.3125 8.51562L18.1328 7.69531C18.25 7.57812 18.25 7.38281 18.1328 7.22656L17.2734 6.36719C17.1172 6.25 16.9219 6.25 16.8047 6.36719L12 11.2109L7.15625 6.36719C7.03906 6.25 6.84375 6.25 6.6875 6.36719L5.82812 7.22656C5.71094 7.38281 5.71094 7.57812 5.82812 7.69531L10.6719 12.5L5.82812 17.3438C5.71094 17.4609 5.71094 17.6562 5.82812 17.8125L6.6875 18.6719C6.84375 18.7891 7.03906 18.7891 7.15625 18.6719L12 13.8281L15.9844 17.8516L16.8047 18.6719C16.9219 18.7891 17.1172 18.7891 17.2734 18.6719L18.1328 17.8125C18.25 17.6562 18.25 17.4609 18.1328 17.3438L13.2891 12.5Z" fill="#0D532A"/>
</svg>
