<svg width="43" height="57" viewBox="0 0 43 57" fill="none" xmlns="http://www.w3.org/2000/svg">
<path opacity="0.5" d="M25.0833 15.0672V0H2.6875C1.19818 0 0 1.18543 0 2.65891V54.0645C0 55.538 1.19818 56.7234 2.6875 56.7234H40.3125C41.8018 56.7234 43 55.538 43 54.0645V17.7261H27.7708C26.2927 17.7261 25.0833 16.5296 25.0833 15.0672ZM33.6441 38.4833L22.8471 49.0857C22.1024 49.818 20.8998 49.818 20.1551 49.0857L9.3581 38.4833C8.22151 37.3676 9.0188 35.4521 10.6179 35.4521H17.9167V26.5891C17.9167 25.6097 18.7184 24.8165 19.7083 24.8165H23.2917C24.2816 24.8165 25.0833 25.6097 25.0833 26.5891V35.4521H32.3821C33.9812 35.4521 34.7785 37.3676 33.6441 38.4833ZM42.2161 11.6327L31.2534 0.775515C30.7495 0.27697 30.0664 0 29.3497 0H28.6667V14.1809H43V13.505C43 12.8071 42.7201 12.1313 42.2161 11.6327Z" fill="#0F1938"/>
</svg>
