<svg width="328" height="200" viewBox="0 0 328 200" fill="none" xmlns="http://www.w3.org/2000/svg">
<path opacity="0.4" d="M105.205 67.118V66.5666C105.205 66.5192 105.201 66.476 105.199 66.4559L105.197 66.4314C105.197 66.4276 105.197 66.4261 105.197 66.4261M105.205 67.118L105.197 66.4265V66.4261M105.205 67.118L104.656 67.0642M105.205 67.118L104.656 67.0642M105.197 66.4261C105.197 47.6338 120.476 32.397 139.327 32.397C143.319 32.397 147.135 33.1162 150.7 34.3736M105.197 66.4261L150.7 34.3736M104.656 67.0642C103.756 66.9759 102.845 66.9265 101.924 66.9265C86.7014 66.9265 74.3635 79.2308 74.3635 94.4054C74.3635 109.58 86.7019 121.884 101.924 121.884H236.644C255.805 121.884 271.336 106.396 271.336 87.2933C271.336 68.1918 255.805 52.7036 236.644 52.7036C234.717 52.7036 232.835 52.9004 230.98 53.2051L230.404 53.2997L230.399 52.7159C230.205 29.8475 211.56 11.3652 188.576 11.3652C172.317 11.3652 158.234 20.62 151.311 34.1301L151.112 34.519M104.656 67.0642L151.112 34.519M151.112 34.519L150.7 34.3736M151.112 34.519L150.7 34.3736" fill="#475ABB" stroke="#475ABB"/>
<path d="M96.7629 126.8C80.0527 126.8 66.5052 111.441 66.5052 94.7653C66.5052 79.7804 77.2279 66.1798 91.5277 63.5754M100.359 61.1034C100.359 40.5229 116.472 27.3057 137.094 27.3057M189.41 6.81641C214.489 6.81641 235.625 24.792 235.836 49.7692M241.389 126.8H219.348M104.407 126.8H125.823" stroke="#0F1938"/>
<circle cx="188.307" cy="45.9833" r="24.8103" transform="rotate(-4.03954 188.307 45.9833)" fill="#475ABB"/>
<g clip-path="url(#clip0)">
<path opacity="0.4" d="M202.941 53.783L196.675 50.089L196.069 41.5081L201.753 36.9647C202.858 36.0867 204.502 36.7924 204.6 38.1772L205.589 52.1825C205.687 53.5726 204.153 54.4974 202.941 53.783Z" fill="white"/>
<path d="M174.256 55.2621L173.146 39.5395C173.097 38.8484 173.325 38.1662 173.779 37.6429C174.233 37.1197 174.877 36.7984 175.568 36.7496L191.29 35.6392C191.633 35.6151 191.976 35.6585 192.302 35.7672C192.627 35.8758 192.928 36.0475 193.187 36.2724C193.446 36.4972 193.658 36.771 193.812 37.0779C193.965 37.3848 194.056 37.7189 194.08 38.0611L195.191 53.7837C195.215 54.1259 195.171 54.4695 195.063 54.7949C194.954 55.1203 194.782 55.4212 194.558 55.6802C194.333 55.9393 194.059 56.1515 193.752 56.3048C193.445 56.4581 193.111 56.5494 192.769 56.5736L177.046 57.6839C176.355 57.7327 175.673 57.505 175.15 57.0508C174.626 56.5966 174.305 55.9532 174.256 55.2621V55.2621Z" fill="white"/>
</g>
<circle cx="119.654" cy="91.5092" r="21.0659" fill="#475ABB"/>
<path opacity="0.4" d="M114.481 91.4676V82.7159C114.481 81.3232 115.035 79.9876 116.019 79.0028C117.004 78.0181 118.339 77.4648 119.731 77.4648C121.124 77.4648 122.459 78.0181 123.444 79.0028C124.428 79.9876 124.982 81.3232 124.982 82.7159V91.4676C124.982 92.8602 124.428 94.1959 123.444 95.1806C122.459 96.1654 121.124 96.7186 119.731 96.7186C118.339 96.7186 117.004 96.1654 116.019 95.1806C115.035 94.1959 114.481 92.8602 114.481 91.4676V91.4676Z" fill="white"/>
<path d="M129.359 91.4714C129.359 96.3341 125.733 100.358 121.046 101.001V102.849H124.109C124.341 102.849 124.563 102.941 124.727 103.105C124.891 103.269 124.984 103.492 124.984 103.724V104.599C124.984 104.831 124.891 105.054 124.727 105.218C124.563 105.382 124.341 105.474 124.109 105.474H115.358C115.126 105.474 114.904 105.382 114.74 105.218C114.576 105.054 114.483 104.831 114.483 104.599V103.724C114.483 103.492 114.576 103.269 114.74 103.105C114.904 102.941 115.126 102.849 115.358 102.849H118.421V100.981C113.608 100.317 110.108 95.9457 110.108 91.0426V88.8459C110.108 88.6138 110.201 88.3912 110.365 88.227C110.529 88.0629 110.751 87.9707 110.983 87.9707H111.858C112.09 87.9707 112.313 88.0629 112.477 88.227C112.641 88.3912 112.733 88.6138 112.733 88.8459V91.1596C112.733 94.814 115.397 98.0839 119.034 98.4388C120.007 98.5353 120.99 98.427 121.919 98.1209C122.847 97.8148 123.702 97.3176 124.427 96.6613C125.152 96.0051 125.732 95.2043 126.129 94.3105C126.527 93.4166 126.732 92.4495 126.734 91.4714V88.8459C126.734 88.6138 126.826 88.3912 126.99 88.227C127.154 88.0629 127.376 87.9707 127.609 87.9707H128.484C128.716 87.9707 128.938 88.0629 129.102 88.227C129.266 88.3912 129.359 88.6138 129.359 88.8459V91.4714Z" fill="white"/>
<circle cx="202.345" cy="95.88" r="18.5503" transform="rotate(7.16046 202.345 95.88)" fill="#475ABB"/>
<g clip-path="url(#clip1)">
<path opacity="0.4" d="M213.516 88.9507C211.11 86.3181 207.054 86.2272 204.262 88.4669L203.169 89.3428L202.327 88.2238C200.18 85.3636 196.223 84.4477 193.241 86.4036C189.826 88.6498 189.069 93.3567 191.472 96.5581L199.747 107.57C199.872 107.738 200.029 107.879 200.21 107.985C200.391 108.091 200.592 108.159 200.8 108.185C201.008 108.211 201.219 108.195 201.42 108.137C201.622 108.079 201.809 107.981 201.972 107.849L212.713 99.2265C215.839 96.7198 216.27 91.9719 213.516 88.9507V88.9507ZM209.779 97.715L201.86 103.9C201.781 103.961 201.691 104.007 201.595 104.033C201.499 104.06 201.398 104.067 201.299 104.055C201.2 104.042 201.104 104.01 201.018 103.961C200.931 103.911 200.855 103.845 200.794 103.766L194.784 95.9843C193.566 94.4078 193.587 92.0906 195.028 90.7129C195.411 90.3432 195.868 90.0585 196.369 89.8774C196.87 89.6963 197.403 89.6229 197.934 89.6619C198.465 89.7009 198.982 89.8515 199.451 90.1038C199.919 90.3562 200.33 90.7045 200.655 91.1263L202.608 93.6526L204.953 91.8219C206.523 90.5957 208.831 90.6121 210.199 92.0592C210.567 92.4465 210.849 92.9064 211.029 93.4094C211.208 93.9123 211.28 94.4472 211.241 94.9797C211.201 95.5122 211.051 96.0306 210.799 96.5015C210.548 96.9725 210.2 97.3857 209.78 97.7145L209.779 97.715Z" fill="white"/>
<path d="M200.793 103.766L194.783 95.984C193.565 94.4075 193.586 92.0902 195.028 90.7126C195.411 90.343 195.867 90.0583 196.368 89.8772C196.869 89.6961 197.402 89.6226 197.933 89.6616C198.464 89.7006 198.981 89.8512 199.449 90.1035C199.918 90.3559 200.329 90.7042 200.654 91.1259L202.607 93.6523L204.951 91.8216C206.522 90.5959 208.829 90.6118 210.198 92.0589C210.566 92.4461 210.848 92.9059 211.028 93.4088C211.207 93.9117 211.28 94.4465 211.241 94.9791C211.201 95.5116 211.051 96.03 210.8 96.5011C210.548 96.9722 210.201 97.3854 209.78 97.7144L201.858 103.9C201.78 103.961 201.69 104.006 201.593 104.033C201.497 104.06 201.397 104.067 201.298 104.054C201.199 104.042 201.103 104.01 201.016 103.961C200.93 103.911 200.854 103.845 200.793 103.766V103.766Z" fill="white"/>
</g>
<circle cx="240.198" cy="76.1726" r="12.9452" transform="rotate(10.9296 240.198 76.1726)" fill="#475ABB"/>
<path d="M249.338 72.3199L244.712 73.8203L242.264 83.481L246.886 82.2196C247.082 82.1661 247.268 82.051 247.419 81.8892C247.57 81.7273 247.68 81.5261 247.735 81.3116L249.862 72.9142C249.885 72.8266 249.887 72.7374 249.871 72.6546C249.854 72.5718 249.818 72.4979 249.766 72.4393C249.715 72.3806 249.649 72.3391 249.574 72.3183C249.499 72.2975 249.418 72.298 249.338 72.3199ZM233.046 71.8102C232.85 71.8636 232.665 71.9785 232.514 72.14C232.362 72.3016 232.252 72.5024 232.198 72.7166L230.07 81.1139C230.048 81.2016 230.045 81.2908 230.061 81.3737C230.078 81.4566 230.114 81.5306 230.166 81.5893C230.217 81.648 230.283 81.6896 230.358 81.7105C230.433 81.7313 230.514 81.7308 230.594 81.7089L235.22 80.2078L237.201 72.3894C237.079 71.8545 237.001 71.3023 236.966 70.7388L233.046 71.8102ZM239.765 77.8081C239.559 77.7773 239.368 77.6959 239.206 77.5697C239.044 77.4434 238.915 77.2754 238.827 77.0772C238.442 76.2138 238.046 75.2356 237.716 74.2436L236.169 80.3486L241.316 83.3402L243.407 75.0884C242.616 75.9139 241.771 76.7085 240.991 77.4001C240.813 77.5585 240.611 77.6771 240.399 77.7475C240.188 77.818 239.971 77.8386 239.765 77.8081V77.8081Z" fill="white"/>
<path opacity="0.4" d="M242.412 66.3862C241.466 66.2449 240.45 66.5376 239.588 67.1998C238.727 67.862 238.09 68.8395 237.818 69.9173C237.361 71.7318 238.86 75.3871 239.451 76.7202C239.479 76.7836 239.519 76.8373 239.571 76.8777C239.622 76.9181 239.683 76.944 239.748 76.9538C239.813 76.9636 239.882 76.9569 239.949 76.9342C240.016 76.9115 240.08 76.8734 240.137 76.8225C241.333 75.7561 244.5 72.7972 244.957 70.9827C245.229 69.9049 245.114 68.8151 244.636 67.9531C244.159 67.0911 243.359 66.5275 242.412 66.3862V66.3862ZM241.046 71.8046C240.811 71.7694 240.601 71.6557 240.443 71.4776C240.285 71.2996 240.185 71.0653 240.158 70.8043C240.13 70.5433 240.175 70.2675 240.287 70.0115C240.4 69.7556 240.574 69.5312 240.788 69.3666C241.002 69.202 241.247 69.1046 241.491 69.0868C241.735 69.0689 241.967 69.1315 242.159 69.2664C242.35 69.4014 242.492 69.6028 242.567 69.845C242.641 70.0873 242.645 70.3596 242.578 70.6275C242.487 70.9868 242.275 71.3126 241.988 71.5334C241.7 71.7541 241.362 71.8516 241.046 71.8046Z" fill="white"/>
<circle cx="150.48" cy="66.3214" r="11.6261" fill="#475ABB"/>
<path d="M152.163 67.9243H146.995L144.74 69.6184C144.7 69.6478 144.654 69.6656 144.605 69.6699C144.556 69.6742 144.507 69.6647 144.463 69.6427C144.419 69.6206 144.382 69.5867 144.357 69.5448C144.331 69.5029 144.317 69.4547 144.318 69.4056V67.927C143.855 67.9266 143.412 67.7425 143.085 67.4152C142.758 67.0878 142.575 66.644 142.574 66.1811V61.8162C142.575 61.3533 142.758 60.9095 143.085 60.5822C143.412 60.2548 143.855 60.0707 144.318 60.0703H152.163C152.625 60.0707 153.068 60.2548 153.395 60.5822C153.722 60.9095 153.906 61.3533 153.906 61.8162V66.1811C153.906 66.4102 153.861 66.6371 153.773 66.8488C153.686 67.0604 153.557 67.2527 153.395 67.4146C153.233 67.5765 153.041 67.7048 152.83 67.7923C152.618 67.8798 152.392 67.9246 152.163 67.9243V67.9243Z" fill="white"/>
<path opacity="0.4" d="M158.313 66.2161V70.5797C158.313 71.0425 158.128 71.4862 157.799 71.8135C157.47 72.1407 157.023 72.3247 156.558 72.3252H155.68V73.8061C155.68 73.8552 155.667 73.9034 155.641 73.9452C155.615 73.9871 155.578 74.021 155.534 74.0431C155.49 74.0651 155.44 74.0746 155.391 74.0703C155.342 74.066 155.295 74.0482 155.255 74.0188L152.984 72.3252H149.537C149.071 72.3247 148.625 72.1407 148.296 71.8135C147.967 71.4862 147.782 71.0425 147.781 70.5797V68.8343H152.17C152.868 68.8332 153.537 68.557 154.03 68.0663C154.524 67.5755 154.801 66.9102 154.803 66.2161V64.4707H156.558C157.023 64.4711 157.47 64.6552 157.799 64.9824C158.128 65.3096 158.313 65.7534 158.313 66.2161Z" fill="white"/>
<path d="M152.074 96.2398L170.424 96.2722C172.966 96.2767 175.008 98.3262 175.003 100.869L174.936 139.11L194.776 139.145C198.867 139.152 200.903 144.089 198.012 146.99L164.35 180.582C162.55 182.377 159.644 182.372 157.851 180.571L124.307 146.86C121.426 143.968 123.48 139.019 127.57 139.026L147.411 139.061L147.478 100.821C147.483 98.2776 149.532 96.2353 152.074 96.2398Z" fill="white"/>
<path d="M177.266 141.496L177.267 140.996L177.334 102.755C177.338 100.488 175.52 98.6629 173.254 98.6589L154.904 98.6265C152.638 98.6225 150.814 100.441 150.81 102.708L150.742 140.949L150.741 141.449L150.241 141.448L130.4 141.413C126.756 141.407 124.925 145.817 127.492 148.394L127.493 148.394L161.036 182.105L161.036 182.105M177.266 141.496L167.181 182.469C165.381 184.263 162.475 184.258 160.682 182.458L161.036 182.105M177.266 141.496L177.766 141.497L197.607 141.532C201.25 141.538 203.068 145.935 200.49 148.523C200.489 148.523 200.489 148.524 200.489 148.524M177.266 141.496L200.489 148.524M161.036 182.105C162.635 183.71 165.223 183.714 166.828 182.115L200.489 148.524M161.036 182.105L200.489 148.524" stroke="#0F1938"/>
<path fill-rule="evenodd" clip-rule="evenodd" d="M60.9317 53.555C59.9996 54.2458 59.3097 53.6732 58.4287 53.1962C57.9 52.9095 56.2423 51.5984 55.661 51.7405C54.989 51.9049 54.5476 53.2506 54.2304 53.799C53.6779 54.7539 53.1229 55.7133 52.4446 56.5841C52.1434 56.9705 51.332 58.4224 50.8784 58.6308C50.6184 58.7502 50.4296 58.7738 50.1665 58.5871C49.7047 58.2592 50.0402 58.0019 50.2628 57.488C51.2803 55.1397 52.4325 52.8418 53.9655 50.7886C52.651 49.8478 51.2853 48.9977 49.9125 48.1468C49.5101 47.8974 48.5522 47.5379 48.608 46.9256C48.6764 46.1788 49.6384 46.3719 50.1461 46.5299C50.8874 46.7602 51.6094 47.3292 52.2745 47.721C52.8236 48.0445 53.907 49.0007 54.5341 49.0437C54.9657 49.0737 54.9913 48.8077 55.2539 48.3797C55.5018 47.9752 55.7491 47.5703 55.9987 47.1665C56.3991 46.5191 56.7996 45.8747 57.2429 45.2561C57.4862 44.9165 57.8437 44.174 58.2416 43.9751C58.4724 43.8596 59.2213 43.8349 59.3764 44.075C59.7397 44.6365 57.8452 47.4594 57.5414 48.058C57.3398 48.4551 57.1644 48.86 56.9306 49.2371C56.8417 49.3799 56.5752 49.5148 56.5314 49.6802C56.3459 50.3825 56.8709 50.5524 57.4002 50.8943C58.6304 51.6887 59.8782 52.5326 60.9317 53.555Z" fill="#475ABB"/>
<path fill-rule="evenodd" clip-rule="evenodd" d="M270.527 43.9788C269.595 44.6696 268.905 44.0971 268.024 43.6201C267.496 43.3333 265.838 42.0222 265.257 42.1643C264.585 42.3287 264.143 43.6744 263.826 44.2228C263.274 45.1778 262.719 46.1371 262.04 47.008C261.739 47.3944 260.928 48.8463 260.474 49.0547C260.214 49.174 260.025 49.1976 259.762 49.0109C259.3 48.683 259.636 48.4257 259.859 47.9118C260.876 45.5636 262.028 43.2656 263.561 41.2124C262.247 40.2716 260.881 39.4216 259.508 38.5706C259.106 38.3212 258.148 37.9618 258.204 37.3494C258.272 36.6026 259.234 36.7957 259.742 36.9537C260.483 37.1841 261.205 37.753 261.87 38.1449C262.419 38.4683 263.503 39.4245 264.13 39.4675C264.561 39.4975 264.587 39.2316 264.85 38.8035C265.098 38.399 265.345 37.9941 265.594 37.5903C265.995 36.9429 266.395 36.2986 266.839 35.6799C267.082 35.3404 267.439 34.5978 267.837 34.3989C268.068 34.2834 268.817 34.2587 268.972 34.4988C269.335 35.0603 267.441 37.8833 267.137 38.4819C266.936 38.879 266.76 39.2838 266.526 39.661C266.437 39.8037 266.171 39.9386 266.127 40.104C265.942 40.8064 266.467 40.9762 266.996 41.3181C268.226 42.1125 269.474 42.9564 270.527 43.9788Z" fill="#475ABB"/>
<path fill-rule="evenodd" clip-rule="evenodd" d="M40.7782 103.654C40.1807 104.098 39.739 103.731 39.1747 103.425C38.8361 103.241 37.7746 102.399 37.4021 102.491C36.9715 102.597 36.6882 103.461 36.4847 103.814C36.1304 104.428 35.7744 105.044 35.3394 105.604C35.1463 105.852 34.6259 106.785 34.3352 106.92C34.1686 106.996 34.0476 107.012 33.8791 106.892C33.5834 106.681 33.7985 106.516 33.9413 106.186C34.5941 104.676 35.3332 103.199 36.3162 101.88C35.4744 101.276 34.5997 100.73 33.7206 100.184C33.4629 100.024 32.8493 99.7933 32.8853 99.3999C32.9295 98.9201 33.5457 99.0437 33.8709 99.145C34.3458 99.2927 34.8081 99.658 35.2341 99.9095C35.5857 100.117 36.2794 100.731 36.6812 100.758C36.9577 100.777 36.9742 100.607 37.1426 100.331C37.3016 100.071 37.4602 99.8112 37.6203 99.5517C37.877 99.1356 38.1339 98.7214 38.4182 98.3237C38.5742 98.1055 38.8035 97.6283 39.0586 97.5003C39.2065 97.426 39.6863 97.4098 39.7855 97.564C40.0181 97.9247 38.8032 99.7392 38.6083 100.124C38.479 100.379 38.3665 100.639 38.2165 100.882C38.1595 100.973 37.9887 101.06 37.9605 101.167C37.8414 101.618 38.1777 101.727 38.5167 101.946C39.3045 102.456 40.1036 102.998 40.7782 103.654Z" fill="#475ABB"/>
<path fill-rule="evenodd" clip-rule="evenodd" d="M290.806 28.1133C290.208 28.5575 289.766 28.1899 289.202 27.8838C288.863 27.6998 287.802 26.858 287.429 26.9496C286.999 27.0555 286.716 27.9203 286.512 28.2727C286.158 28.8865 285.802 29.5031 285.367 30.0629C285.174 30.3113 284.653 31.2445 284.363 31.3785C284.196 31.4554 284.075 31.4706 283.906 31.3507C283.611 31.1403 283.826 30.9748 283.969 30.6445C284.621 29.1354 285.361 27.6585 286.344 26.3387C285.502 25.7347 284.627 25.1891 283.748 24.6429C283.49 24.4829 282.877 24.2523 282.913 23.8588C282.957 23.379 283.573 23.5027 283.898 23.604C284.373 23.7517 284.835 24.117 285.261 24.3685C285.613 24.576 286.307 25.19 286.709 25.2174C286.985 25.2364 287.002 25.0656 287.17 24.7904C287.329 24.5305 287.488 24.2702 287.648 24.0107C287.904 23.5946 288.161 23.1804 288.446 22.7827C288.602 22.5645 288.831 22.0873 289.086 21.9593C289.234 21.885 289.714 21.8688 289.813 22.023C290.045 22.3837 288.831 24.1981 288.636 24.5829C288.506 24.8381 288.394 25.0982 288.244 25.3407C288.187 25.4324 288.016 25.5192 287.988 25.6255C287.869 26.0768 288.205 26.1858 288.544 26.4052C289.332 26.9151 290.131 27.4568 290.806 28.1133Z" fill="#475ABB"/>
<path fill-rule="evenodd" clip-rule="evenodd" d="M56.1332 134.082C56.521 131.09 59.5262 131.342 59.8793 133.721C60.0251 137.082 56.2396 137.049 56.1332 134.082ZM54.9506 135.624C58.2195 140.413 62.1578 136.252 60.9457 133.306C59.5968 130.14 52.9809 128.741 54.9506 135.624Z" fill="#475ABB"/>
<path fill-rule="evenodd" clip-rule="evenodd" d="M256.629 17.7483C256.921 15.4979 259.182 15.6869 259.448 17.4773C259.557 20.0053 256.71 19.9811 256.629 17.7483ZM255.74 18.909C258.199 22.5119 261.162 19.3812 260.25 17.1652C259.235 14.7829 254.258 13.7304 255.74 18.909Z" fill="#475ABB"/>
<defs>
<clipPath id="clip0">
<rect width="31.4798" height="27.982" fill="white" transform="translate(172.713 33.4453) rotate(-4.03954)"/>
</clipPath>
<clipPath id="clip1">
<rect width="25.3556" height="25.3556" fill="white" transform="translate(191.185 83.0195) rotate(7.16046)"/>
</clipPath>
</defs>
</svg>
