<svg width="66" height="59" viewBox="0 0 66 59" fill="none" xmlns="http://www.w3.org/2000/svg">
<g opacity="0.5">
<path d="M60.5 0H5.5C2.46354 0 0 2.47754 0 5.53125V42.4062C0 45.46 2.46354 47.9375 5.5 47.9375H27.5L25.6667 53.4688H17.4167C15.8927 53.4688 14.6667 54.7018 14.6667 56.2344C14.6667 57.767 15.8927 59 17.4167 59H48.5833C50.1073 59 51.3333 57.767 51.3333 56.2344C51.3333 54.7018 50.1073 53.4688 48.5833 53.4688H40.3333L38.5 47.9375H60.5C63.5365 47.9375 66 45.46 66 42.4062V5.53125C66 2.47754 63.5365 0 60.5 0ZM58.6667 40.5625H7.33333V7.375H58.6667V40.5625Z" fill="#0F1938"/>
<path d="M39.9643 15H25.0357C24.4958 15 23.978 15.2145 23.5962 15.5962C23.2145 15.978 23 16.4958 23 17.0357V31.9643C23 32.5042 23.2145 33.022 23.5962 33.4038C23.978 33.7855 24.4958 34 25.0357 34H30.8566V27.5404H28.1847V24.5H30.8566V22.1827C30.8566 19.5469 32.4258 18.0909 34.8292 18.0909C35.9802 18.0909 37.1838 18.2962 37.1838 18.2962V20.8832H35.8577C34.551 20.8832 34.1434 21.6941 34.1434 22.5258V24.5H37.0604L36.5939 27.5404H34.1434V34H39.9643C40.5042 34 41.022 33.7855 41.4038 33.4038C41.7855 33.022 42 32.5042 42 31.9643V17.0357C42 16.4958 41.7855 15.978 41.4038 15.5962C41.022 15.2145 40.5042 15 39.9643 15Z" fill="#0F1938"/>
</g>
</svg>
