<svg width="12" height="15" viewBox="0 0 12 15" fill="none" xmlns="http://www.w3.org/2000/svg">
<path d="M6.875 4.46875V0.75H1.40625C1.02344 0.75 0.75 1.05078 0.75 1.40625V14.0938C0.75 14.4766 1.02344 14.75 1.40625 14.75H10.5938C10.9492 14.75 11.25 14.4766 11.25 14.0938V5.125H7.53125C7.14844 5.125 6.875 4.85156 6.875 4.46875ZM8.65234 10.4023H6.875V12.5898C6.875 12.8086 6.65625 13.0273 6.4375 13.0273H5.5625C5.31641 13.0273 5.125 12.8086 5.125 12.5898V10.4023H3.32031C2.9375 10.4023 2.74609 9.91016 3.01953 9.63672L5.64453 7.01172C5.83594 6.84766 6.13672 6.84766 6.32812 7.01172L8.95312 9.63672C9.22656 9.91016 9.03516 10.4023 8.65234 10.4023ZM11.0586 3.62109L8.37891 0.941406C8.24219 0.832031 8.07812 0.75 7.91406 0.75H7.75V4.25H11.25V4.08594C11.25 3.92188 11.168 3.75781 11.0586 3.62109Z" fill="#F7FAFC"/>
</svg>
