<svg width="328" height="200" viewBox="0 0 328 200" fill="none" xmlns="http://www.w3.org/2000/svg">
<mask id="mask0" style="mask-type:alpha" maskUnits="userSpaceOnUse" x="0" y="0" width="312" height="200">
<rect width="312" height="200" fill="#C4C4C4"/>
</mask>
<g mask="url(#mask0)">
<g opacity="0.4">
<path d="M172.216 140.425C184.271 140.627 194.209 131.018 194.411 118.962C194.613 106.906 185.004 96.969 172.948 96.7667C160.892 96.5644 150.955 106.174 150.753 118.229C150.551 130.285 160.16 140.223 172.216 140.425Z" fill="#475ABB"/>
<path d="M177.052 106.761C181.227 107.37 184.592 111.014 183.766 116.687C182.939 122.361 178.674 124.893 174.499 124.285C170.9 123.76 170.892 120.532 171.934 119.181C172.474 119.516 172.802 119.784 173.738 119.92C176.185 120.277 178.442 118.919 178.871 115.974C179.3 113.03 177.525 111.084 175.077 110.728C175.077 110.728 172.784 110.32 171.174 112.286C170.914 109.534 173.488 106.242 177.052 106.761ZM163.127 130.182L166.685 105.764L171.364 106.446L167.806 130.864L163.127 130.182Z" fill="white"/>
</g>
<path d="M175.117 234.979C183.819 217.926 198.147 210.027 201.132 188.429C201.323 186.827 177.204 167.569 165.095 166.82C152.986 166.071 130.268 231.135 130.268 231.135L175.117 234.979Z" fill="white"/>
<path d="M198.632 182.798L151.942 179.049L139.438 194.261C138.439 205.407 136.343 228.066 135.954 229.531C135.565 230.997 155.073 232.938 164.876 233.725L173.704 227.885C177.113 223.274 184.764 213.057 188.09 209.083C191.416 205.109 194.029 200.516 194.92 198.717L197.959 189.606L198.632 182.798Z" fill="white"/>
<path d="M206.545 172.93L128.372 165.977L126.886 180.78L205.059 187.734L206.545 172.93Z" fill="#0F1938"/>
<path d="M166.363 180.332C168.253 180.498 169.944 179.076 170.139 177.156C170.335 175.236 168.962 173.545 167.072 173.38C165.182 173.214 163.492 174.637 163.296 176.557C163.1 178.477 164.474 180.167 166.363 180.332Z" fill="white"/>
<path d="M218.691 47.4906L141.73 40.5781L140.824 49.6889L217.785 56.6014L218.691 47.4906Z" fill="#0F1938"/>
<path d="M110.322 228.675C115.385 214.89 121.589 161.011 118.489 148.256C125.26 144.108 153.195 126.341 157.394 123.464C160.774 126.258 156.994 146.647 144.229 154.512L143.6 160.699C149.894 161.252 157.148 183.609 149.511 205.906C145.422 215.607 153.323 232.454 153.323 232.454L110.322 228.675Z" fill="white"/>
<path d="M216.936 152.583C233.662 166.385 202.198 187.053 193.774 192.785C191.912 191.142 192.548 171.104 216.936 152.583Z" fill="white"/>
<path d="M211.473 141.036C191.302 151.023 186.534 176.111 188.817 177.811C195.909 175.681 224.127 149.395 225.466 136.259C225.769 133.285 217.878 126.918 216.015 125.943C214.969 125.413 216.316 123.688 212.061 127.004C211.716 130.637 210.747 137.391 211.473 141.036Z" fill="white"/>
<path d="M214.039 109.833C218.234 107.2 233.221 95.0117 234.883 93.1572C238.146 92.4429 242.151 108.544 212.095 128.913" fill="white"/>
<path d="M186.672 214.338C186.502 214.555 186.539 214.87 186.756 215.04C186.973 215.211 187.288 215.173 187.458 214.956L186.672 214.338ZM200.57 187.011C200.606 186.737 200.412 186.487 200.138 186.451C199.865 186.416 199.614 186.609 199.578 186.883L200.57 187.011ZM173.911 232.627C173.784 232.872 173.879 233.174 174.124 233.302C174.369 233.429 174.671 233.334 174.798 233.089L173.911 232.627ZM181.034 223.194C181.2 222.973 181.156 222.659 180.935 222.493C180.715 222.327 180.401 222.372 180.235 222.592L181.034 223.194ZM172.708 50.2743C172.433 50.2484 172.189 50.4502 172.163 50.7252C172.137 51.0001 172.339 51.244 172.614 51.2699L172.708 50.2743ZM184.249 52.3679C184.524 52.3938 184.768 52.192 184.794 51.9171C184.82 51.6421 184.618 51.3982 184.343 51.3723L184.249 52.3679ZM148.933 164.722C148.812 164.474 148.513 164.37 148.264 164.491C148.016 164.612 147.913 164.911 148.034 165.16L148.933 164.722ZM148.833 204.191C148.744 204.452 148.884 204.736 149.145 204.826C149.406 204.915 149.691 204.775 149.78 204.514L148.833 204.191ZM152.269 124.3C152.036 124.447 151.966 124.756 152.113 124.99C152.261 125.223 152.57 125.293 152.803 125.145L152.269 124.3ZM156.565 122.14L156.88 121.752C156.71 121.614 156.47 121.603 156.287 121.724L156.565 122.14ZM143.455 153.017L143.198 152.589C143.062 152.67 142.972 152.812 142.957 152.97L143.455 153.017ZM142.534 157.459C142.508 157.734 142.71 157.978 142.985 158.004C143.26 158.03 143.504 157.828 143.53 157.553L142.534 157.459ZM120.909 143.731C120.673 143.875 120.598 144.182 120.742 144.418C120.886 144.654 121.194 144.729 121.429 144.585L120.909 143.731ZM144.936 130.081C145.17 129.935 145.242 129.627 145.096 129.392C144.95 129.158 144.642 129.086 144.408 129.232L144.936 130.081ZM119.092 154.146C119.094 153.87 118.871 153.644 118.595 153.643C118.319 153.642 118.094 153.864 118.092 154.14L119.092 154.146ZM199.758 186.328C199.982 186.168 200.035 185.855 199.874 185.631C199.714 185.406 199.401 185.354 199.177 185.514L199.758 186.328ZM192.538 190.645L192.259 191.06C192.427 191.173 192.647 191.173 192.815 191.061L192.538 190.645ZM201.475 166.299C201.645 166.082 201.607 165.768 201.39 165.597C201.172 165.427 200.858 165.465 200.688 165.682L201.475 166.299ZM215.919 150.394C215.705 150.219 215.39 150.251 215.216 150.466C215.041 150.68 215.073 150.995 215.287 151.169L215.919 150.394ZM211.268 175.558C211.072 175.752 211.071 176.069 211.266 176.265C211.46 176.461 211.777 176.462 211.973 176.268L211.268 175.558ZM214.86 123.703C214.615 123.575 214.313 123.67 214.186 123.915C214.058 124.16 214.153 124.462 214.398 124.59L214.86 123.703ZM224.289 134.506L223.791 134.459L224.289 134.506ZM218.769 145.663C218.614 145.892 218.674 146.203 218.903 146.357C219.132 146.512 219.443 146.452 219.597 146.224L218.769 145.663ZM208.575 159.471C208.767 159.273 208.762 158.956 208.563 158.764C208.365 158.572 208.048 158.577 207.856 158.776L208.575 159.471ZM187.583 175.599L187.287 176.001C187.412 176.093 187.572 176.122 187.721 176.079L187.583 175.599ZM210.389 139.594C210.638 139.474 210.743 139.175 210.623 138.927C210.503 138.678 210.204 138.573 209.956 138.693L210.389 139.594ZM223.345 117.732C223.549 117.546 223.564 117.23 223.379 117.026C223.193 116.821 222.877 116.806 222.672 116.992L223.345 117.732ZM210.569 126.346C210.338 126.497 210.273 126.806 210.424 127.038C210.575 127.269 210.885 127.334 211.116 127.183L210.569 126.346ZM212.374 107.338C212.139 107.482 212.065 107.79 212.209 108.026C212.353 108.261 212.661 108.335 212.897 108.191L212.374 107.338ZM233.586 91.3192L233.484 90.8296C233.381 90.8511 233.286 90.9048 233.215 90.9831L233.586 91.3192ZM229.01 110.229C228.839 110.446 228.876 110.76 229.092 110.931C229.309 111.103 229.623 111.066 229.795 110.849L229.01 110.229ZM113.637 229.53C113.51 229.775 113.605 230.077 113.85 230.204C114.095 230.332 114.397 230.236 114.524 229.991L113.637 229.53ZM114.892 204.882C114.915 204.607 114.71 204.366 114.435 204.343C114.16 204.32 113.918 204.525 113.896 204.8L114.892 204.882ZM187.458 214.956C193.445 207.34 198.959 199.475 200.57 187.011L199.578 186.883C198.003 199.073 192.629 206.761 186.672 214.338L187.458 214.956ZM174.798 233.089C176.601 229.624 178.686 226.314 181.034 223.194L180.235 222.592C177.854 225.757 175.739 229.113 173.911 232.627L174.798 233.089ZM172.614 51.2699L184.249 52.3679L184.343 51.3723L172.708 50.2743L172.614 51.2699ZM148.034 165.16C151.948 173.2 154.102 188.734 148.833 204.191L149.78 204.514C155.13 188.818 152.968 173.011 148.933 164.722L148.034 165.16ZM152.803 125.145C154.69 123.952 156.115 123.042 156.843 122.556L156.287 121.724C155.572 122.202 154.158 123.106 152.269 124.3L152.803 125.145ZM156.25 122.528C156.559 122.78 156.845 123.281 157.041 124.077C157.233 124.861 157.323 125.869 157.295 127.052C157.239 129.416 156.714 132.413 155.678 135.576C153.603 141.91 149.516 148.801 143.198 152.589L143.712 153.446C150.311 149.49 154.511 142.351 156.628 135.887C157.689 132.65 158.236 129.555 158.295 127.076C158.324 125.837 158.232 124.735 158.012 123.839C157.795 122.955 157.437 122.204 156.88 121.752L156.25 122.528ZM142.957 152.97L142.534 157.459L143.53 157.553L143.953 153.064L142.957 152.97ZM121.429 144.585C127.381 140.958 137.096 134.958 144.936 130.081L144.408 129.232C136.569 134.108 126.857 140.106 120.909 143.731L121.429 144.585ZM199.177 185.514C196.361 187.525 193.888 189.142 192.26 190.229L192.815 191.061C194.436 189.979 196.926 188.35 199.758 186.328L199.177 185.514ZM192.817 190.23C192.359 189.922 191.988 189.115 191.946 187.667C191.904 186.257 192.181 184.387 192.832 182.183C194.135 177.78 196.91 172.123 201.475 166.299L200.688 165.682C196.055 171.593 193.216 177.361 191.873 181.899C191.203 184.166 190.9 186.147 190.946 187.696C190.99 189.206 191.373 190.465 192.259 191.06L192.817 190.23ZM215.287 151.169C217.562 153.022 218.919 154.968 219.577 156.948C220.235 158.928 220.208 160.981 219.651 163.07C218.531 167.271 215.281 171.576 211.268 175.558L211.973 176.268C216.02 172.252 219.427 167.792 220.617 163.328C221.215 161.084 221.256 158.829 220.526 156.633C219.797 154.438 218.311 152.342 215.919 150.394L215.287 151.169ZM214.398 124.59C215.285 125.052 217.73 126.864 219.931 128.949C221.026 129.987 222.04 131.072 222.758 132.069C223.118 132.567 223.394 133.032 223.572 133.447C223.752 133.867 223.815 134.203 223.791 134.459L224.787 134.552C224.832 134.067 224.706 133.555 224.492 133.054C224.275 132.549 223.955 132.019 223.57 131.484C222.799 130.416 221.736 129.282 220.619 128.223C218.394 126.116 215.87 124.229 214.86 123.703L214.398 124.59ZM223.791 134.459C223.501 137.535 221.62 141.451 218.769 145.663L219.597 146.224C222.468 141.983 224.472 137.892 224.787 134.552L223.791 134.459ZM207.856 158.776C203.799 162.967 199.553 166.814 195.879 169.738C194.042 171.201 192.353 172.428 190.906 173.352C189.449 174.282 188.27 174.882 187.445 175.118L187.721 176.079C188.69 175.802 189.969 175.136 191.444 174.195C192.929 173.247 194.647 171.997 196.502 170.521C200.212 167.567 204.49 163.691 208.575 159.471L207.856 158.776ZM187.88 175.196C187.859 175.181 187.783 175.102 187.707 174.863C187.634 174.635 187.579 174.318 187.552 173.909C187.498 173.092 187.561 171.977 187.768 170.632C188.182 167.945 189.16 164.401 190.842 160.6C194.209 152.994 200.368 144.419 210.389 139.594L209.956 138.693C199.656 143.651 193.357 152.447 189.928 160.195C188.213 164.07 187.208 167.699 186.78 170.48C186.566 171.868 186.493 173.06 186.554 173.975C186.584 174.431 186.648 174.835 186.754 175.167C186.856 175.486 187.017 175.803 187.287 176.001L187.88 175.196ZM222.672 116.992C218.891 120.425 214.844 123.553 210.569 126.346L211.116 127.183C215.436 124.361 219.525 121.201 223.345 117.732L222.672 116.992ZM212.897 108.191C215.039 106.878 219.885 103.205 224.38 99.6511C226.633 97.87 228.807 96.1116 230.523 94.6828C232.225 93.2665 233.511 92.1458 233.956 91.6552L233.215 90.9831C232.828 91.4098 231.607 92.4798 229.884 93.9143C228.175 95.3365 226.008 97.0894 223.76 98.8666C219.252 102.43 214.455 106.062 212.374 107.338L212.897 108.191ZM233.687 91.8087C233.936 91.7571 234.373 91.9027 234.781 92.6907C235.173 93.4483 235.444 94.6664 235.36 96.3031C235.192 99.566 233.617 104.396 229.01 110.229L229.795 110.849C234.494 104.899 236.177 99.8767 236.358 96.3544C236.449 94.5985 236.166 93.1907 235.669 92.2312C235.189 91.302 234.402 90.6391 233.484 90.8296L233.687 91.8087ZM134.102 130.639L141.034 57.1592L140.039 57.0653L133.107 130.545L134.102 130.639ZM211.964 103.012L215.626 64.1981L214.63 64.1042L210.968 102.918L211.964 103.012ZM116.821 181.581C118.931 167.063 119.027 166.549 119.092 154.146L118.092 154.14C118.028 166.485 117.937 166.951 115.831 181.437L116.821 181.581ZM114.524 229.991C114.79 229.481 114.968 228.77 115.094 227.951C115.221 227.122 115.299 226.139 115.342 225.057C115.427 222.894 115.374 220.301 115.276 217.687C115.178 215.08 115.034 212.416 114.94 210.151C114.845 207.866 114.801 205.988 114.892 204.882L113.896 204.8C113.798 205.979 113.847 207.923 113.941 210.193C114.036 212.484 114.178 215.11 114.276 217.725C114.374 220.333 114.426 222.895 114.342 225.018C114.3 226.079 114.224 227.021 114.105 227.8C113.985 228.588 113.825 229.168 113.637 229.53L114.524 229.991Z" fill="#0F1938"/>
<path fill-rule="evenodd" clip-rule="evenodd" d="M116.633 99.3684C116.235 94.7304 120.849 94.1217 122.164 97.5939C123.488 102.613 117.769 103.808 116.633 99.3684ZM115.357 102.083C121.86 108.23 126.431 100.661 123.635 96.618C120.561 92.2866 110.125 92.3513 115.357 102.083Z" fill="#475ABB"/>
<path fill-rule="evenodd" clip-rule="evenodd" d="M270.352 31.088C269.493 31.724 268.858 31.1969 268.047 30.7577C267.56 30.4937 266.034 29.2865 265.499 29.4174C264.88 29.5687 264.473 30.8078 264.181 31.3127C263.673 32.1919 263.162 33.0752 262.537 33.8771C262.26 34.2328 261.513 35.5696 261.095 35.7615C260.856 35.8714 260.682 35.8931 260.44 35.7212C260.014 35.4194 260.323 35.1824 260.528 34.7092C261.465 32.5471 262.526 30.4313 263.937 28.5409C262.727 27.6747 261.47 26.892 260.206 26.1085C259.835 25.8789 258.953 25.5479 259.005 24.9841C259.068 24.2965 259.953 24.4743 260.421 24.6198C261.103 24.8318 261.768 25.3557 262.381 25.7165C262.886 26.0143 263.884 26.8947 264.461 26.9343C264.858 26.9619 264.882 26.717 265.124 26.3229C265.352 25.9505 265.58 25.5777 265.81 25.2059C266.178 24.6098 266.547 24.0166 266.955 23.4469C267.179 23.1343 267.508 22.4506 267.875 22.2675C268.087 22.1612 268.777 22.1384 268.919 22.3595C269.254 22.8765 267.51 25.4756 267.23 26.0268C267.044 26.3924 266.883 26.7651 266.668 27.1124C266.586 27.2439 266.34 27.3681 266.3 27.5204C266.129 28.167 266.613 28.3234 267.1 28.6382C268.233 29.3696 269.381 30.1466 270.352 31.088Z" fill="#475ABB"/>
<path fill-rule="evenodd" clip-rule="evenodd" d="M240.107 69.8872C239.557 70.2962 239.15 69.9578 238.63 69.6759C238.319 69.5065 237.341 68.7315 236.998 68.8158C236.602 68.9133 236.341 69.7095 236.154 70.034C235.827 70.5992 235.5 71.1669 235.099 71.6823C234.921 71.911 234.442 72.7702 234.175 72.8937C234.021 72.9644 233.91 72.9784 233.755 72.868C233.482 72.6743 233.68 72.5219 233.812 72.2178C234.413 70.8283 235.094 69.4684 235.999 68.2533C235.224 67.6972 234.418 67.1949 233.609 66.692C233.371 66.5446 232.807 66.3323 232.84 65.97C232.88 65.5282 233.448 65.6421 233.747 65.7354C234.184 65.8714 234.61 66.2077 235.002 66.4392C235.326 66.6304 235.965 67.1957 236.335 67.2208C236.589 67.2384 236.604 67.0811 236.76 66.8278C236.906 66.5884 237.052 66.3488 237.199 66.1098C237.436 65.7267 237.672 65.3454 237.934 64.9792C238.078 64.7783 238.289 64.3389 238.524 64.221C238.66 64.1526 239.102 64.1377 239.193 64.2797C239.407 64.6118 238.288 66.2824 238.109 66.6367C237.99 66.8716 237.886 67.1112 237.748 67.3344C237.696 67.4189 237.539 67.4988 237.513 67.5966C237.403 68.0122 237.713 68.1125 238.025 68.3145C238.75 68.784 239.486 69.2828 240.107 69.8872Z" fill="#475ABB"/>
<path fill-rule="evenodd" clip-rule="evenodd" d="M275.869 70.8725C276.226 68.1183 278.993 68.3496 279.318 70.5407C279.452 73.6347 275.967 73.6051 275.869 70.8725ZM274.78 72.2929C277.79 76.7024 281.416 72.8708 280.3 70.1588C279.058 67.2433 272.966 65.9551 274.78 72.2929Z" fill="#475ABB"/>
<circle cx="79.2262" cy="42.848" r="38.6028" transform="rotate(-4.03954 79.2262 42.848)" fill="#475ABB"/>
<g clip-path="url(#clip0)">
<path opacity="0.4" d="M101.995 54.9819L92.2465 49.2342L91.3036 35.8831L100.147 28.8139C101.867 27.4479 104.425 28.5459 104.577 30.7004L106.116 52.4915C106.269 54.6545 103.881 56.0933 101.995 54.9819Z" fill="white"/>
<path d="M57.3645 57.2832L55.6369 32.8202C55.561 31.7448 55.9153 30.6834 56.622 29.8693C57.3287 29.0552 58.3298 28.5552 59.4051 28.4793L83.8681 26.7517C84.4006 26.7141 84.9352 26.7817 85.4415 26.9508C85.9479 27.1198 86.4159 27.3869 86.819 27.7368C87.2221 28.0867 87.5523 28.5126 87.7908 28.9901C88.0293 29.4676 88.1714 29.9875 88.209 30.5199L89.9366 54.9829C89.9742 55.5154 89.9066 56.05 89.7376 56.5563C89.5685 57.0626 89.3014 57.5307 88.9515 57.9338C88.6016 58.3369 88.1757 58.6671 87.6982 58.9056C87.2207 59.1441 86.7008 59.2862 86.1684 59.3238L61.7054 61.0514C60.6301 61.1273 59.5686 60.773 58.7545 60.0663C57.9405 59.3596 57.4404 58.3585 57.3645 57.2832V57.2832Z" fill="white"/>
</g>
<circle cx="149.361" cy="30.2328" r="23.3285" fill="#475ABB"/>
<path opacity="0.4" d="M143.633 30.1864V20.4947C143.633 18.9525 144.245 17.4734 145.336 16.3829C146.426 15.2923 147.905 14.6797 149.447 14.6797C150.989 14.6797 152.467 15.2923 153.558 16.3829C154.648 17.4734 155.261 18.9525 155.261 20.4947V30.1864C155.261 31.7287 154.648 33.2078 153.558 34.2983C152.467 35.3888 150.989 36.0015 149.447 36.0015C147.905 36.0015 146.426 35.3888 145.336 34.2983C144.245 33.2078 143.633 31.7287 143.633 30.1864V30.1864Z" fill="white"/>
<path d="M160.109 30.1892C160.109 35.5741 156.094 40.0305 150.903 40.7429V42.7884H154.295C154.552 42.7884 154.798 42.8905 154.98 43.0723C155.162 43.254 155.264 43.5006 155.264 43.7576V44.7268C155.264 44.9838 155.162 45.2303 154.98 45.4121C154.798 45.5938 154.552 45.6959 154.295 45.6959H144.605C144.348 45.6959 144.102 45.5938 143.92 45.4121C143.738 45.2303 143.636 44.9838 143.636 44.7268V43.7576C143.636 43.5006 143.738 43.254 143.92 43.0723C144.102 42.8905 144.348 42.7884 144.605 42.7884H147.996V40.7198C142.667 39.9845 138.791 35.1441 138.791 29.7143V27.2817C138.791 27.0246 138.893 26.7781 139.075 26.5964C139.257 26.4146 139.503 26.3125 139.76 26.3125H140.729C140.986 26.3125 141.232 26.4146 141.414 26.5964C141.596 26.7781 141.698 27.0246 141.698 27.2817V29.8439C141.698 33.8908 144.648 37.5119 148.675 37.905C149.753 38.0118 150.841 37.8919 151.87 37.5529C152.898 37.2139 153.845 36.6633 154.648 35.9366C155.451 35.2098 156.093 34.323 156.533 33.3332C156.973 32.3434 157.201 31.2724 157.202 30.1892V27.2817C157.202 27.0246 157.304 26.7781 157.486 26.5964C157.667 26.4146 157.914 26.3125 158.171 26.3125H159.14C159.397 26.3125 159.643 26.4146 159.825 26.5964C160.007 26.7781 160.109 27.0246 160.109 27.2817V30.1892Z" fill="white"/>
<circle cx="138.54" cy="75.7515" r="19.0823" transform="rotate(7.16046 138.54 75.7515)" fill="#475ABB"/>
<g clip-path="url(#clip1)">
<path opacity="0.4" d="M150.032 68.6225C147.558 65.9145 143.385 65.821 140.512 68.1249L139.388 69.0259L138.522 67.8748C136.314 64.9327 132.243 63.9905 129.176 66.0024C125.662 68.313 124.884 73.155 127.356 76.4481L135.868 87.7753C135.997 87.9486 136.159 88.094 136.345 88.2028C136.531 88.3117 136.737 88.3816 136.951 88.4085C137.165 88.4354 137.382 88.4186 137.589 88.3592C137.797 88.2998 137.99 88.199 138.157 88.0629L149.206 79.1931C152.421 76.6144 152.865 71.7304 150.032 68.6225V68.6225ZM146.188 77.6382L138.042 84.0005C137.961 84.0638 137.868 84.1105 137.769 84.1379C137.67 84.1652 137.567 84.1727 137.465 84.1599C137.363 84.1471 137.265 84.1142 137.175 84.0632C137.086 84.0122 137.008 83.9441 136.945 83.8627L130.763 75.8579C129.51 74.2362 129.532 71.8525 131.014 70.4353C131.408 70.055 131.878 69.7622 132.393 69.5759C132.908 69.3896 133.457 69.314 134.003 69.3542C134.549 69.3943 135.081 69.5492 135.563 69.8088C136.046 70.0683 136.468 70.4267 136.802 70.8605L138.811 73.4593L141.223 71.5761C142.839 70.3148 145.212 70.3316 146.62 71.8203C146.998 72.2187 147.289 72.6917 147.473 73.2091C147.658 73.7265 147.732 74.2767 147.692 74.8245C147.651 75.3723 147.496 75.9055 147.238 76.39C146.979 76.8744 146.621 77.2994 146.189 77.6377L146.188 77.6382Z" fill="white"/>
<path d="M136.945 83.8627L130.762 75.8579C129.509 74.2362 129.531 71.8524 131.014 70.4353C131.408 70.0551 131.878 69.7622 132.393 69.5759C132.908 69.3896 133.457 69.3141 134.003 69.3542C134.549 69.3943 135.081 69.5492 135.563 69.8088C136.045 70.0683 136.467 70.4267 136.802 70.8605L138.811 73.4593L141.223 71.5761C142.838 70.3153 145.212 70.3316 146.62 71.8202C146.998 72.2185 147.289 72.6915 147.473 73.2088C147.658 73.7261 147.733 74.2763 147.692 74.8241C147.652 75.3719 147.497 75.9052 147.239 76.3898C146.98 76.8744 146.623 77.2995 146.19 77.6379L138.041 84.0004C137.96 84.0637 137.867 84.1104 137.768 84.1377C137.669 84.1651 137.566 84.1726 137.464 84.1598C137.362 84.147 137.264 84.1141 137.175 84.0632C137.086 84.0122 137.007 83.944 136.945 83.8627V83.8627Z" fill="white"/>
</g>
<circle cx="179.014" cy="68.5411" r="13.3164" transform="rotate(10.9296 179.014 68.5411)" fill="#475ABB"/>
<path d="M188.397 65.0624L183.605 66.3956L181.531 75.9218L186.331 74.8264C186.535 74.7799 186.724 74.6718 186.875 74.516C187.026 74.3602 187.131 74.1638 187.177 73.9523L188.98 65.6717C188.998 65.5853 188.997 65.4967 188.975 65.4138C188.953 65.3308 188.911 65.256 188.854 65.1959C188.796 65.1358 188.725 65.0922 188.645 65.0689C188.565 65.0457 188.48 65.0434 188.397 65.0624ZM171.219 63.9936C171.015 64.04 170.826 64.1479 170.675 64.3034C170.524 64.4589 170.419 64.6548 170.373 64.8661L168.57 73.1466C168.551 73.2331 168.553 73.3217 168.575 73.4047C168.597 73.4878 168.638 73.5627 168.696 73.6228C168.753 73.683 168.825 73.7267 168.905 73.75C168.984 73.7733 169.069 73.7756 169.153 73.7566L173.945 72.4227L175.623 64.7131C175.467 64.1768 175.355 63.6247 175.29 63.0629L171.219 63.9936ZM178.604 70.1921C178.386 70.1544 178.181 70.0669 178.004 69.9357C177.827 69.8045 177.682 69.6329 177.579 69.4327C177.128 68.5605 176.661 67.5737 176.261 66.5755L174.951 72.5955L180.525 75.7491L182.296 67.6121C181.507 68.406 180.659 69.1674 179.874 69.8286C179.695 69.98 179.488 70.091 179.269 70.1538C179.05 70.2165 178.823 70.2296 178.604 70.1921V70.1921Z" fill="white"/>
<path opacity="0.4" d="M181.078 58.5946C180.048 58.4177 178.966 58.6789 178.07 59.3207C177.175 59.9624 176.539 60.9322 176.303 62.0166C175.905 63.8423 177.719 67.6057 178.429 68.9799C178.462 69.0452 178.509 69.1012 178.567 69.144C178.624 69.1868 178.691 69.2153 178.762 69.2275C178.833 69.2397 178.907 69.2353 178.979 69.2147C179.05 69.194 179.117 69.1576 179.175 69.108C180.411 68.0678 183.674 65.176 184.072 63.3503C184.308 62.2658 184.125 61.1556 183.564 60.2637C183.002 59.3718 182.108 58.7714 181.078 58.5946V58.5946ZM179.891 64.0464C179.635 64.0024 179.402 63.8795 179.221 63.6932C179.041 63.5069 178.921 63.2655 178.878 62.9997C178.834 62.7338 178.868 62.4554 178.975 62.1995C179.083 61.9437 179.259 61.722 179.482 61.5625C179.704 61.403 179.963 61.3128 180.226 61.3033C180.489 61.2938 180.743 61.3655 180.957 61.5093C181.171 61.6531 181.336 61.8625 181.429 62.111C181.522 62.3596 181.541 62.6362 181.482 62.9057C181.404 63.2672 181.192 63.5905 180.893 63.8044C180.595 64.0183 180.234 64.1054 179.891 64.0464Z" fill="white"/>
<circle cx="190.811" cy="98.5321" r="9.75866" fill="#475ABB"/>
<path d="M192.224 99.8796H187.887L185.994 101.302C185.961 101.326 185.921 101.341 185.88 101.345C185.839 101.348 185.798 101.34 185.761 101.322C185.724 101.303 185.694 101.275 185.672 101.24C185.65 101.205 185.639 101.164 185.639 101.123V99.8819C185.251 99.8815 184.879 99.727 184.605 99.4522C184.33 99.1775 184.176 98.8049 184.176 98.4164V94.7526C184.176 94.364 184.33 93.9915 184.605 93.7167C184.879 93.442 185.251 93.2875 185.639 93.2871H192.224C192.612 93.2875 192.984 93.442 193.259 93.7167C193.533 93.9915 193.687 94.364 193.688 94.7526V98.4164C193.687 98.6087 193.65 98.7991 193.576 98.9768C193.502 99.1545 193.395 99.3158 193.259 99.4517C193.123 99.5876 192.961 99.6954 192.784 99.7688C192.606 99.8422 192.416 99.8798 192.224 99.8796V99.8796Z" fill="white"/>
<path opacity="0.4" d="M197.387 98.4436V102.106C197.387 102.495 197.231 102.867 196.955 103.142C196.679 103.417 196.304 103.571 195.914 103.571H195.177V104.814C195.177 104.856 195.166 104.896 195.144 104.931C195.122 104.966 195.091 104.995 195.054 105.013C195.017 105.032 194.976 105.04 194.934 105.036C194.893 105.033 194.854 105.018 194.82 104.993L192.914 103.571H190.02C189.63 103.571 189.255 103.417 188.979 103.142C188.703 102.867 188.547 102.495 188.547 102.106V100.641H192.23C192.816 100.64 193.378 100.408 193.792 99.9965C194.206 99.5846 194.44 99.0262 194.44 98.4436V96.9785H195.914C196.304 96.9789 196.679 97.1334 196.955 97.408C197.231 97.6827 197.387 98.0551 197.387 98.4436Z" fill="white"/>
</g>
<defs>
<clipPath id="clip0">
<rect width="48.9798" height="43.5376" fill="white" transform="translate(54.9639 23.3379) rotate(-4.03954)"/>
</clipPath>
<clipPath id="clip1">
<rect width="26.0828" height="26.0828" fill="white" transform="translate(127.061 62.5215) rotate(7.16046)"/>
</clipPath>
</defs>
</svg>
