<svg width="20" height="21" viewBox="0 0 20 21" fill="none" xmlns="http://www.w3.org/2000/svg">
<path d="M10.1578 0.8125C4.80621 0.8125 0.470276 5.1875 0.470276 10.5C0.470276 15.8516 4.80621 20.1875 10.1578 20.1875C15.4703 20.1875 19.8453 15.8516 19.8453 10.5C19.8453 5.1875 15.4703 0.8125 10.1578 0.8125ZM10.1578 5.10938C11.0562 5.10938 11.7984 5.85156 11.7984 6.75C11.7984 7.6875 11.0562 8.39062 10.1578 8.39062C9.22028 8.39062 8.51715 7.6875 8.51715 6.75C8.51715 5.85156 9.22028 5.10938 10.1578 5.10938ZM12.3453 15.0312C12.3453 15.3047 12.1109 15.5 11.8765 15.5H8.43903C8.16559 15.5 7.97028 15.3047 7.97028 15.0312V14.0938C7.97028 13.8594 8.16559 13.625 8.43903 13.625H8.90778V11.125H8.43903C8.16559 11.125 7.97028 10.9297 7.97028 10.6562V9.71875C7.97028 9.48438 8.16559 9.25 8.43903 9.25H10.939C11.1734 9.25 11.4078 9.48438 11.4078 9.71875V13.625H11.8765C12.1109 13.625 12.3453 13.8594 12.3453 14.0938V15.0312Z" fill="#283881"/>
</svg>
