<svg width="336" height="314" viewBox="0 0 336 314" fill="none" xmlns="http://www.w3.org/2000/svg">
<g id="pictures-ministory">
<rect id="Background" y="38" width="328.218" height="276" fill="#0F1938"/>
<path id="Window" d="M237.758 84.6387H30.7841V248.86H237.758V84.6387Z" fill="#172553"/>
<rect id="Rectangle 963" x="84.4923" y="98.9766" width="35.0414" height="149.558" fill="#525E72"/>
<rect id="Rectangle 965" x="179.792" y="107.123" width="35.3689" height="141.412" fill="#525E72"/>
<rect id="Rectangle 962" x="46.1761" y="156.324" width="44.5386" height="92.2114" fill="#6A798E"/>
<rect id="Rectangle 964" x="113.312" y="114.291" width="51.4159" height="134.244" fill="#6A798E"/>
<rect id="Rectangle 966" x="195.512" y="133.189" width="42.2462" height="115.346" fill="#6A798E"/>
<rect id="Rectangle 967" opacity="0.5" x="118.88" y="120.48" width="3.2749" height="4.88753" fill="#F7FAFC"/>
<rect id="Rectangle 968" opacity="0.5" x="137.546" y="148.502" width="3.2749" height="4.88753" fill="#F7FAFC"/>
<rect id="Rectangle 970" opacity="0.5" x="147.371" y="148.502" width="3.2749" height="4.88753" fill="#F7FAFC"/>
<rect id="Rectangle 973" opacity="0.5" x="125.102" y="175.547" width="3.2749" height="4.88753" fill="#F7FAFC"/>
<rect id="Rectangle 974" opacity="0.5" x="184.377" y="111.684" width="3.2749" height="4.88753" fill="#F7FAFC"/>
<rect id="Rectangle 975" opacity="0.5" x="189.29" y="111.684" width="3.2749" height="4.88753" fill="#F7FAFC"/>
<rect id="Rectangle 976" opacity="0.5" x="182.739" y="142.312" width="3.2749" height="4.88753" fill="#F7FAFC"/>
<rect id="Rectangle 977" opacity="0.5" x="112.657" y="104.189" width="3.2749" height="4.88753" fill="#F7FAFC"/>
<rect id="Rectangle 978" opacity="0.5" x="88.0956" y="126.672" width="3.2749" height="4.88753" fill="#F7FAFC"/>
<rect id="Rectangle 981" opacity="0.5" x="54.6915" y="165.119" width="3.2749" height="4.88753" fill="#F7FAFC"/>
<rect id="Rectangle 979" opacity="0.5" x="92.6806" y="126.672" width="3.2749" height="4.88753" fill="#F7FAFC"/>
<rect id="Rectangle 980" opacity="0.5" x="97.2647" y="126.672" width="3.2749" height="4.88753" fill="#F7FAFC"/>
<rect id="Rectangle 971" opacity="0.5" x="152.284" y="148.502" width="3.2749" height="4.88753" fill="#F7FAFC"/>
<rect id="Rectangle 972" opacity="0.5" x="157.196" y="137.1" width="3.2749" height="4.88753" fill="#F7FAFC"/>
<rect id="Rectangle 985" opacity="0.5" x="209.594" y="193.469" width="3.2749" height="4.88753" fill="#F7FAFC"/>
<rect id="Rectangle 986" opacity="0.5" x="198.46" y="193.469" width="3.2749" height="4.88753" fill="#F7FAFC"/>
<rect id="Rectangle 987" opacity="0.5" x="212.87" y="172.287" width="3.2749" height="4.88753" fill="#F7FAFC"/>
<rect id="Rectangle 988" opacity="0.5" x="224.659" y="212.041" width="3.2749" height="4.88753" fill="#F7FAFC"/>
<rect id="Rectangle 982" opacity="0.5" x="204.682" y="158.604" width="3.2749" height="4.88753" fill="#F7FAFC"/>
<rect id="Rectangle 983" opacity="0.5" x="218.11" y="158.604" width="3.2749" height="4.88753" fill="#F7FAFC"/>
<rect id="Rectangle 984" opacity="0.5" x="222.039" y="158.604" width="3.2749" height="4.88753" fill="#F7FAFC"/>
<path id="Window_2" d="M32.7841 86.6387H235.758V246.86H32.7841V86.6387Z" stroke="black" stroke-width="4"/>
<path id="Vector 12" d="M144.096 247.575L220.307 104.598H258.171L328.218 203.18V309.598H240.203V247.575H144.096Z" fill="url(#paint0_linear)" fill-opacity="0.5"/>
<path id="Vector" d="M180.169 223.77H162.108V247.689H180.169V223.77Z" fill="#F7FAFC"/>
<path id="Vector_2" d="M169.204 232.633H164.665V237.149H169.204V232.633Z" fill="#8D9CAF"/>
<g id="Vector_3">
<path d="M166.934 232.632V223.77V232.632Z" fill="#D7E0FF"/>
<path d="M166.934 232.632V223.77" stroke="#0F1938" stroke-width="1.5" stroke-miterlimit="10"/>
</g>
<path id="Vector_4" d="M179.9 242.095C183.326 242.095 186.103 239.332 186.103 235.923C186.103 232.515 183.326 229.752 179.9 229.752C176.474 229.752 173.697 232.515 173.697 235.923C173.697 239.332 176.474 242.095 179.9 242.095Z" stroke="#F7FAFC" stroke-width="3" stroke-miterlimit="10"/>
<path id="Line 388" d="M15.7191 169.356L202.716 43.5835" stroke="#EB6561" stroke-dasharray="5 3"/>
<path id="hairs" d="M61.1892 161.489C60.5343 157.752 57.6818 150.004 57.6818 143.243C57.6818 133.073 63.986 127.322 75.8542 127.322C84.2216 127.322 87.5358 132.773 88.8065 135.468C89.8675 137.72 89.2355 140.189 90.4243 142.529C95.1467 151.845 99.0209 150.89 105.892 162.444C107.552 165.236 108.531 175.028 107.984 178.107C105.037 178.231 101.107 179.573 101.107 179.573C99.6588 181.079 98.8576 183.087 98.8735 185.171C97.5013 184.047 90.3096 178.26 82.0143 178.26C79.7808 178.26 69.144 180.192 66.3701 182.278C65.8854 181.61 63.6225 180.401 62.735 180.401C61.1729 180.59 59.876 180.727 58.6512 181.147C57.2659 176.429 61.3137 170.101 61.3137 162.741C61.304 162.319 61.258 161.9 61.1761 161.486" fill="#475ABB"/>
<path id="Vector_5" d="M17.3582 198.788C18.1949 201.453 31.171 236.638 35.155 239.857C39.1391 243.075 51.653 241.235 52.2108 240.5C52.7686 239.766 56.657 205.774 56.657 205.774L42.7566 204.857C41.0873 208.988 39.5096 214.335 39.0475 215.788C37.8522 212.574 26.4379 194.756 25.9718 193.469" fill="#E2E8F0"/>
<path id="Vector_6" d="M25.2995 186.95C25.3685 184.474 27.2908 177.457 25.2995 176.784C23.3082 176.112 14.6536 172.975 15.8298 175.598C17.0059 178.22 17.5534 178.738 18.9931 179.609" fill="#E2E8F0"/>
<path id="Vector_7" d="M13.4278 188.58C8.96952 186.588 5.07055 180.444 13.4278 183.002Z" fill="#E2E8F0"/>
<path id="Vector_8" d="M8.91796 182.716C6.26639 180.149 5.36107 176.727 11.4635 178.785Z" fill="#E2E8F0"/>
<path id="Vector_9" d="M86.2426 159.985C86.2426 159.985 85.5582 164.142 85.5058 165.446C85.342 167.625 86.2688 180.854 86.6029 183.116C85.2929 184.566 75.8252 185.898 74.7641 185.071C74.7805 183.252 73.8504 173.865 73.4934 172.562C66.4 171.649 60.8392 163.165 60.8392 152.832C60.8349 150.763 61.0645 148.699 61.5237 146.681C63.6589 145.996 66.7635 142.657 67.2351 141.435L66.7439 140.232C68.7514 146.681 80.9013 152.614 85.365 153.129L84.8803 153.891C85.5123 152.63 86.6389 151.793 87.9292 151.793C89.8941 151.793 91.5119 153.774 91.5119 156.224C91.5119 158.675 89.9072 160.656 87.9292 160.656C87.4502 160.645 86.9794 160.53 86.5507 160.317C86.1221 160.104 85.7462 159.799 85.4501 159.424" fill="#E2E8F0"/>
<path id="Vector_10" d="M132.956 293.01C131.606 293.01 130.83 305.391 131.646 306.77C133.977 307.672 143.16 309.034 144.532 309.034C145.905 309.034 153.905 307.672 153.905 299.911C153.905 294.727 145.833 293.023 132.946 293.023" fill="#E2E8F0"/>
<path id="Vector_11" d="M53.9294 294.713C52.0791 294.713 32.6818 297.971 32.6818 303.986C32.6818 310.874 36.8639 313.67 39.1956 313.67C41.5273 313.67 55.8485 310.535 57.1519 308.352C58.4553 306.169 53.9294 294.713 53.9294 294.713Z" fill="#E2E8F0"/>
<path id="Vector_12" d="M27.5095 227.501C29.8637 232.809 31.9834 236.928 33.2282 237.948C37.205 241.165 50.253 233.837 50.8097 233.102C51.3665 232.367 54.6911 203.835 54.6911 203.835L40.8159 202.918C39.6666 205.764 38.5651 209.178 37.8373 211.51" stroke="#0F1938" stroke-width="1.5" stroke-linecap="round" stroke-linejoin="round"/>
<path id="Vector_13" d="M63.1929 180.73C45.9767 180.73 40.1409 204.034 40.1409 206.387C40.1409 208.739 53.3649 216.931 55.212 216.931C57.059 216.931 68.1413 189.782 68.1413 188.019C68.1413 186.257 66.589 180.74 63.1929 180.74" fill="#737FDB"/>
<path id="Vector_14" d="M80.1699 178.683C122.105 175.937 116.223 265.03 113.001 268.539C109.778 272.048 73.4662 282.612 69.1171 280.347C64.768 278.083 26.4779 182.199 80.1666 178.687" fill="#737FDB"/>
<path id="Vector_15" d="M98.8402 180.589C116.086 175.738 130.093 205.646 128.508 209.764C126.922 213.883 106.913 220.54 103.53 218.823C100.147 217.106 87.6138 183.747 98.8402 180.589Z" fill="#737FDB"/>
<path id="Vector_16" d="M125.607 213.018C125.607 213.018 135.376 240.968 135.376 244.096C135.376 247.224 106.134 268.286 106.134 268.286L91.1972 269.527L117.121 243.04L107.392 218.928L125.607 213.018Z" fill="#E2E8F0"/>
<path id="Vector_17" d="M48.4922 258.652C65.8099 258.652 129.418 290.506 129.418 292.494C129.418 294.481 129.765 306.772 127.558 306.772C60.0952 306.772 29.8646 293.869 29.8646 271.969C29.8646 263.253 38.9 258.652 48.4922 258.652" fill="#3749A9"/>
<path id="Vector_18" d="M139.492 246.297C148.661 246.297 153.901 255.42 153.901 260.849C153.901 291.803 64.349 306.772 62.204 306.772C60.0589 306.772 57.5831 294.967 57.5831 294.064C57.5831 293.162 120.245 246.297 139.492 246.297Z" fill="#3749A9"/>
<path id="phone" d="M27.5101 193.152L16.0401 193.47L5.24078 170.324L16.7068 170.01L27.5101 193.152Z" fill="#FB8A89"/>
<path id="Vector_19" d="M35.6971 211.064C32.2786 205.006 24.298 192.581 23.9075 191.514" stroke="#0F1938" stroke-width="1.5" stroke-linecap="round" stroke-linejoin="round"/>
<path id="Vector_20" d="M15.3928 196.728C14.9729 195.168 13.7511 191.189 13.4279 190.537" stroke="#0F1938" stroke-width="1.5" stroke-linecap="round" stroke-linejoin="round"/>
<path id="Vector_21" d="M131.128 291.193C130.656 291.193 130.253 292.718 129.965 294.751" stroke="#0F1938" stroke-width="1.5" stroke-linecap="round" stroke-linejoin="round"/>
<path id="Vector_22" d="M15.393 196.729C15.8262 198.134 19.5595 208.529 23.5803 218.559" stroke="#0F1938" stroke-width="1.5" stroke-linecap="round" stroke-linejoin="round"/>
<path id="Vector_23" d="M25.2175 191.197L13.9161 191.515L3.27563 168.369L14.573 168.055L25.2175 191.197Z" stroke="#0F1938" stroke-width="1.5" stroke-linecap="round" stroke-linejoin="round"/>
<path id="Vector_24" d="M23.6617 185.325C23.7307 182.849 25.653 175.832 23.6617 175.159C21.6704 174.487 13.0158 171.35 14.1919 173.973C15.3681 176.595 15.9156 177.113 17.3553 177.984" stroke="#0F1938" stroke-width="1.5" stroke-linecap="round" stroke-linejoin="round"/>
<path id="Vector_25" d="M11.79 186.953C7.3317 184.961 3.43274 178.817 11.79 181.375" stroke="#0F1938" stroke-width="1.5" stroke-linecap="round" stroke-linejoin="round"/>
<path id="Vector_26" d="M7.28014 181.087C4.62857 178.703 3.72325 175.526 9.82564 177.437" stroke="#0F1938" stroke-width="1.5" stroke-linecap="round" stroke-linejoin="round"/>
<path id="Vector_27" d="M51.0895 182.166C41.7429 188.663 38.3174 202.765 38.3174 204.567C38.3174 206.92 51.5414 215.105 53.3819 215.105C55.2224 215.105 66.3112 187.956 66.3112 186.19C66.3112 184.424 64.7622 178.914 61.3629 178.914" stroke="#0F1938" stroke-width="1.5" stroke-linecap="round" stroke-linejoin="round"/>
<path id="Vector_28" d="M64.7328 166.923C61.3367 163.309 59.136 157.539 59.136 151.038C59.1319 148.969 59.3615 146.905 59.8204 144.887" stroke="#0F1938" stroke-width="1.5" stroke-linecap="round" stroke-linejoin="round"/>
<path id="Vector_29" d="M80.8612 167.451C78.6343 169.598 75.9489 170.853 73.0571 170.853C71.8133 170.851 70.5805 170.619 69.422 170.169" stroke="#0F1938" stroke-width="1.5" stroke-linecap="round" stroke-linejoin="round"/>
<path id="Vector_30" d="M83.1733 152.088C83.8054 150.827 84.9353 149.986 86.2223 149.986C88.2036 149.986 89.805 151.971 89.805 154.418C89.805 156.865 88.2036 158.849 86.2223 158.849C85.7434 158.838 85.2727 158.722 84.8441 158.509C84.4155 158.296 84.0396 157.992 83.7432 157.617" stroke="#0F1938" stroke-width="1.5" stroke-linecap="round" stroke-linejoin="round"/>
<path id="Vector_31" d="M73.0573 146.875C77.0068 149.355 81.3558 151.062 83.6581 151.326" stroke="#0F1938" stroke-width="1.5" stroke-linecap="round" stroke-linejoin="round"/>
<path id="Vector_32" d="M65.0373 138.441C65.5613 140.116 66.7664 141.758 68.3482 143.277" stroke="#0F1938" stroke-width="1.5" stroke-linecap="round" stroke-linejoin="round"/>
<path id="Vector_33" d="M65.5314 139.645C65.0663 140.863 61.9552 144.206 59.8199 144.887" stroke="#0F1938" stroke-width="1.5" stroke-linecap="round" stroke-linejoin="round"/>
<path id="Vector_34" d="M90.9549 144.66C94.7276 150.036 98.3627 151.011 104.054 160.6C105.715 163.392 106.717 173.05 106.17 176.126" stroke="#0F1938" stroke-width="1.5" stroke-linecap="round" stroke-linejoin="round"/>
<path id="Vector_35" d="M73.5023 125.477H74.0262C82.3936 125.477 85.7111 130.931 86.9817 133.622C87.5778 134.883 87.6367 136.229 87.7874 137.555" stroke="#0F1938" stroke-width="1.5" stroke-linecap="round" stroke-linejoin="round"/>
<path id="Vector_36" d="M56.8398 179.302C55.4513 174.583 59.499 168.256 59.499 160.895C59.499 157.963 55.8574 149.045 55.8574 141.394C55.8574 134.47 58.7786 129.595 64.3917 127.188" stroke="#0F1938" stroke-width="1.5" stroke-linecap="round" stroke-linejoin="round"/>
<path id="Vector_37" d="M84.0894 171.313C83.8739 167.853 83.7269 164.621 83.802 163.637" stroke="#0F1938" stroke-width="1.5" stroke-linecap="round" stroke-linejoin="round"/>
<path id="Vector_38" d="M79.4365 183.042C81.9123 182.622 84.2899 181.974 84.899 181.299C84.7778 180.488 84.5715 178.272 84.3881 175.662" stroke="#0F1938" stroke-width="1.5" stroke-linecap="round" stroke-linejoin="round"/>
<path id="Vector_39" d="M71.8025 170.771C72.1595 172.075 73.0928 181.459 73.0732 183.277" stroke="#0F1938" stroke-width="1.5" stroke-linecap="round" stroke-linejoin="round"/>
<path id="Vector_40" d="M57.9662 186.159C61.4441 182.044 66.2288 179.046 72.6443 177.648" stroke="#0F1938" stroke-width="1.5" stroke-linecap="round" stroke-linejoin="round"/>
<path id="Vector_41" d="M84.5033 177.158C89.055 177.943 93.2675 180.062 96.6008 183.245" stroke="#0F1938" stroke-width="1.5" stroke-linecap="round" stroke-linejoin="round"/>
<path id="Vector_42" d="M70.5748 150.254C70.5748 151.339 70.1523 152.209 69.6316 152.209C69.1109 152.209 68.6852 151.329 68.6852 150.254C68.6852 149.179 69.1076 148.299 69.6316 148.299C70.1556 148.299 70.5748 149.179 70.5748 150.254Z" fill="#0F1938"/>
<path id="Vector_43" d="M65.5316 152.219C65.4137 153.102 64.7293 156.719 63.2392 158.169" stroke="#0F1938" stroke-width="1.5" stroke-linecap="round" stroke-linejoin="round"/>
<path id="Vector_44" d="M68.2719 162.914C68.8843 163.022 71.3666 162.214 71.943 160.549" stroke="#0F1938" stroke-width="1.5" stroke-linecap="round" stroke-linejoin="round"/>
<path id="Vector_45" d="M105.564 217.102C106.124 218.506 115.297 241.213 115.297 241.213L89.7949 267.433" stroke="#0F1938" stroke-width="1.5" stroke-linecap="round" stroke-linejoin="round"/>
<path id="Vector_46" d="M131.425 234.85C132.663 238.883 133.548 241.901 133.548 242.272C133.548 243.51 128.848 247.368 128.848 247.368" stroke="#0F1938" stroke-width="1.5" stroke-linecap="round" stroke-linejoin="round"/>
<path id="Vector_47" d="M123.782 210.645C123.782 210.645 125.325 215.447 127.185 221.312" stroke="#0F1938" stroke-width="1.5" stroke-linecap="round" stroke-linejoin="round"/>
<path id="Vector_48" d="M105.564 217.102C103.782 217.359 102.397 217.356 101.706 217.007C100.661 216.476 98.7583 212.925 96.9178 208.174" stroke="#0F1938" stroke-width="1.5" stroke-linecap="round" stroke-linejoin="round"/>
<path id="Vector_49" d="M126.167 203.814C126.759 205.753 126.952 207.236 126.677 207.946C125.842 210.113 119.905 212.983 113.974 214.968" stroke="#0F1938" stroke-width="1.5" stroke-linecap="round" stroke-linejoin="round"/>
<path id="Vector_50" d="M92.6703 191.761C91.94 185.362 92.8144 179.953 97.0128 178.77C106.54 176.092 115.08 184.019 120.546 192.348" stroke="#0F1938" stroke-width="1.5" stroke-linecap="round" stroke-linejoin="round"/>
<path id="Vector_51" d="M67.5448 262.175C92.6829 271.334 127.61 289.203 127.61 290.679C127.61 292.67 127.937 304.957 125.746 304.957C58.2834 304.957 28.0528 292.051 28.0528 270.155C28.0528 261.439 37.0915 256.838 46.6804 256.838C48.2318 256.869 49.7773 257.039 51.298 257.346" stroke="#0F1938" stroke-width="1.5" stroke-linecap="round" stroke-linejoin="round"/>
<path id="Vector_52" d="M129.965 294.753C129.431 298.526 129.29 304.062 129.824 304.954C132.156 305.854 141.339 307.235 142.711 307.235C144.083 307.235 152.087 305.87 152.087 298.112C152.087 294.036 147.096 292.11 138.699 291.475" stroke="#0F1938" stroke-width="1.5" stroke-linecap="round" stroke-linejoin="round"/>
<path id="Vector_53" d="M72.9586 279.31C83.3236 271.975 96.8883 262.891 109.33 255.85" stroke="#0F1938" stroke-width="1.5" stroke-linecap="round" stroke-linejoin="round"/>
<path id="Vector_54" d="M112.5 291.692C88.2201 300.59 61.5493 304.956 60.3965 304.956C58.2547 304.956 55.7723 293.151 55.7723 292.249C55.7723 292.056 58.6935 289.717 63.4684 286.172" stroke="#0F1938" stroke-width="1.5" stroke-linecap="round" stroke-linejoin="round"/>
<path id="Vector_55" d="M119.558 250.411C126.962 246.797 133.388 244.48 137.668 244.48C146.838 244.48 152.078 253.604 152.078 259.032C152.078 266.582 146.753 273.18 138.667 278.843" stroke="#0F1938" stroke-width="1.5" stroke-linecap="round" stroke-linejoin="round"/>
<path id="Vector_56" d="M48.7743 309.468C52.0099 308.527 54.7838 307.458 55.3241 306.555C56.6341 304.372 52.1049 292.916 52.1049 292.916C50.2546 292.916 30.8574 296.191 30.8574 302.189C30.8574 309.077 35.0394 311.873 37.3679 311.873C38.1808 311.828 38.9895 311.725 39.788 311.567" stroke="#0F1938" stroke-width="1.5" stroke-linecap="round" stroke-linejoin="round"/>
<path id="Vector_57" d="M312.812 300.965H282.702V309.397H312.812V300.965Z" fill="#8D9CAF"/>
<path id="Vector_58" d="M262.044 104.298C262.985 100.948 263.134 97.4264 262.48 94.0093C261.826 90.5921 260.386 87.3719 258.272 84.6007C256.159 81.8295 253.43 79.5825 250.298 78.0356C247.167 76.4886 243.718 75.6836 240.221 75.6836C236.725 75.6836 233.276 76.4886 230.145 78.0356C227.013 79.5825 224.284 81.8295 222.17 84.6007C220.057 87.3719 218.617 90.5921 217.963 94.0093C217.308 97.4264 217.458 100.948 218.399 104.298H262.044Z" fill="#283881"/>
<path id="Vector_59" d="M259.486 101.755C260.428 98.4049 260.577 94.8835 259.923 91.4663C259.268 88.0491 257.828 84.8289 255.715 82.0578C253.601 79.2866 250.872 77.0396 247.741 75.4926C244.609 73.9456 241.16 73.1406 237.664 73.1406C234.168 73.1406 230.719 73.9456 227.587 75.4926C224.456 77.0396 221.726 79.2866 219.613 82.0578C217.5 84.8289 216.06 88.0491 215.405 91.4663C214.751 94.8835 214.9 98.4049 215.842 101.755H259.486Z" stroke="#6A798E" stroke-width="2" stroke-linecap="round" stroke-linejoin="round"/>
<path id="Vector_60" d="M310.621 298.787H280.511V307.22H310.621V298.787Z" stroke="#6A798E" stroke-width="2" stroke-linecap="round" stroke-linejoin="round"/>
<path id="Vector_61" d="M295.562 298.785V61.3164H237.662V73.1475" stroke="#6A798E" stroke-width="2" stroke-linecap="round" stroke-linejoin="round"/>
<path id="Vector_62" d="M227.792 202.458C227.792 201.865 226.512 199.262 223.253 199.262C221.357 199.262 218.429 201.044 218.429 201.295C220.722 201.797 222.844 204.755 224.258 204.755C225.732 204.755 227.792 203.928 227.792 202.458" fill="#A8D556"/>
<path id="Vector_63" d="M261.795 245.848H200.096V254.701H261.795V245.848Z" fill="#283881"/>
<path id="Vector_64" d="M271.213 238.705H209.514V246.056H271.213V238.705Z" fill="#B9C0F2"/>
<path id="Vector_65" d="M264.13 231.355H202.431V238.706H264.13V231.355Z" fill="#283881"/>
<path id="Vector_66" d="M237.298 194.826C235.801 194.705 233.738 188.922 235.621 186.028C239.581 179.945 249.847 177.967 253.65 169.355C253.62 172.317 256.646 196.4 237.298 194.82" fill="#A8D556"/>
<path id="Vector_67" d="M230.945 215.997C230.945 205.427 238.913 188.581 243.973 185.092" stroke="#2E5019" stroke-linecap="round" stroke-linejoin="round"/>
<path id="Vector_68" d="M239.434 190.48C239.08 189.731 238.513 187.31 238.726 185.941" stroke="#2E5019" stroke-linecap="round" stroke-linejoin="round"/>
<path id="Vector_69" d="M242.1 186.816C242.729 186.982 245.568 186.79 247.17 186.314" stroke="#2E5019" stroke-linecap="round" stroke-linejoin="round"/>
<path id="Vector_70" d="M232.002 208.198C231.957 207.192 230.394 201.802 224.424 202.5" stroke="#2E5019" stroke-linecap="round" stroke-linejoin="round"/>
<path id="Vector_71" d="M226.157 202.459C225.944 201.993 225.083 201.044 224.634 200.904" stroke="#2E5019" stroke-linecap="round" stroke-linejoin="round"/>
<path id="Vector_72" d="M238.32 231.356L241.5 215.996H221.327L224.5 231.356H238.32Z" fill="#0F1938"/>
<path id="Line 387" d="M26.199 178.479L328.218 309" stroke="#EB6561" stroke-dasharray="5 3"/>
<path id="tappable-neighbourhood" d="M193.999 135.496C194.056 136.133 194.095 136.775 194.114 137.422L193.615 137.437C193.624 137.753 193.629 138.07 193.629 138.389C193.629 138.707 193.624 139.025 193.615 139.341L194.114 139.356C194.095 140.003 194.056 140.645 193.999 141.281L193.501 141.236C193.443 141.87 193.367 142.498 193.272 143.12L193.767 143.196C193.669 143.835 193.553 144.468 193.418 145.094L192.93 144.989C192.796 145.611 192.643 146.225 192.473 146.833L192.954 146.968C192.78 147.589 192.588 148.203 192.377 148.809L191.905 148.644C191.696 149.244 191.47 149.835 191.227 150.418L191.688 150.611C191.439 151.205 191.173 151.791 190.89 152.367L190.441 152.147C190.161 152.716 189.865 153.276 189.552 153.825L189.986 154.073C189.668 154.632 189.332 155.182 188.981 155.72L188.562 155.446C188.216 155.977 187.854 156.497 187.477 157.004L187.878 157.303C187.494 157.819 187.095 158.324 186.681 158.816L186.299 158.495C185.891 158.979 185.469 159.452 185.033 159.911L185.396 160.255C184.953 160.722 184.496 161.175 184.026 161.615L183.685 161.249C183.222 161.682 182.747 162.1 182.259 162.504L182.578 162.889C182.083 163.299 181.575 163.695 181.055 164.075L180.76 163.671C180.249 164.045 179.727 164.403 179.194 164.746L179.464 165.166C178.924 165.514 178.373 165.845 177.811 166.161L177.566 165.725C177.015 166.034 176.453 166.327 175.882 166.604L176.1 167.054C175.522 167.333 174.935 167.596 174.338 167.842L174.148 167.379C173.564 167.619 172.972 167.843 172.371 168.048L172.533 168.521C171.927 168.729 171.312 168.919 170.69 169.091L170.557 168.609C169.948 168.777 169.333 168.927 168.711 169.059L168.814 169.548C168.188 169.681 167.555 169.796 166.915 169.891L166.841 169.397C166.218 169.49 165.59 169.565 164.956 169.622L165 170.12C164.364 170.177 163.721 170.215 163.075 170.234L163.06 169.734C162.744 169.743 162.426 169.748 162.108 169.748C161.789 169.748 161.471 169.743 161.155 169.734L161.14 170.234C160.494 170.215 159.852 170.177 159.215 170.12L159.259 169.622C158.625 169.565 157.997 169.49 157.374 169.397L157.3 169.892C156.66 169.796 156.027 169.681 155.401 169.548L155.504 169.059C154.882 168.927 154.267 168.777 153.659 168.609L153.525 169.091C152.903 168.919 152.288 168.729 151.682 168.521L151.844 168.048C151.243 167.843 150.651 167.619 150.067 167.379L149.877 167.842C149.28 167.596 148.693 167.333 148.115 167.054L148.333 166.604C147.762 166.327 147.2 166.034 146.649 165.725L146.404 166.161C145.843 165.845 145.291 165.514 144.751 165.166L145.021 164.746C144.488 164.403 143.966 164.045 143.455 163.671L143.16 164.075C142.64 163.695 142.133 163.299 141.637 162.889L141.956 162.504C141.468 162.1 140.993 161.682 140.53 161.249L140.189 161.615C139.719 161.175 139.262 160.722 138.819 160.255L139.182 159.911C138.746 159.452 138.324 158.979 137.916 158.495L137.534 158.816C137.12 158.324 136.721 157.819 136.337 157.303L136.738 157.004C136.361 156.497 135.999 155.977 135.653 155.446L135.234 155.72C134.883 155.182 134.547 154.632 134.229 154.073L134.663 153.825C134.35 153.276 134.054 152.716 133.774 152.147L133.325 152.367C133.042 151.791 132.776 151.205 132.527 150.611L132.988 150.418C132.745 149.835 132.519 149.244 132.31 148.644L131.838 148.809C131.628 148.203 131.435 147.589 131.261 146.968L131.742 146.833C131.572 146.225 131.419 145.611 131.286 144.989L130.797 145.094C130.662 144.468 130.546 143.835 130.448 143.196L130.943 143.12C130.848 142.498 130.772 141.87 130.714 141.236L130.216 141.281C130.159 140.645 130.12 140.003 130.101 139.356L130.601 139.341C130.591 139.025 130.586 138.707 130.586 138.389C130.586 138.07 130.591 137.753 130.601 137.437L130.101 137.422C130.12 136.775 130.159 136.133 130.216 135.496L130.714 135.541C130.772 134.908 130.848 134.279 130.943 133.657L130.448 133.582C130.546 132.943 130.662 132.309 130.797 131.683L131.286 131.788C131.419 131.167 131.572 130.552 131.742 129.945L131.261 129.81C131.435 129.188 131.628 128.574 131.838 127.969L132.31 128.133C132.519 127.533 132.745 126.942 132.988 126.36L132.527 126.167C132.776 125.572 133.042 124.986 133.325 124.41L133.774 124.631C134.054 124.061 134.35 123.502 134.663 122.952L134.229 122.705C134.547 122.145 134.883 121.596 135.234 121.058L135.653 121.331C135.999 120.801 136.361 120.281 136.738 119.773L136.337 119.475C136.721 118.958 137.12 118.453 137.534 117.961L137.916 118.283C138.324 117.798 138.746 117.326 139.182 116.866L138.819 116.522C139.262 116.056 139.719 115.602 140.189 115.163L140.53 115.528C140.993 115.096 141.468 114.677 141.956 114.273L141.637 113.888C142.133 113.478 142.64 113.083 143.16 112.703L143.455 113.106C143.966 112.733 144.488 112.374 145.021 112.032L144.751 111.611C145.291 111.264 145.843 110.932 146.404 110.617L146.649 111.053C147.2 110.744 147.762 110.45 148.333 110.174L148.115 109.724C148.693 109.444 149.28 109.181 149.877 108.936L150.067 109.398C150.651 109.158 151.243 108.935 151.844 108.729L151.682 108.256C152.288 108.048 152.903 107.858 153.525 107.686L153.659 108.168C154.267 108.001 154.882 107.85 155.504 107.718L155.401 107.229C156.027 107.096 156.66 106.982 157.3 106.886L157.374 107.38C157.997 107.287 158.625 107.212 159.259 107.156L159.215 106.658C159.852 106.601 160.494 106.563 161.14 106.544L161.155 107.043C161.471 107.034 161.789 107.029 162.108 107.029C162.426 107.029 162.744 107.034 163.06 107.043L163.075 106.544C163.721 106.563 164.364 106.601 165 106.658L164.956 107.156C165.59 107.212 166.218 107.287 166.841 107.38L166.915 106.886C167.555 106.982 168.188 107.096 168.814 107.229L168.711 107.718C169.333 107.85 169.948 108.001 170.557 108.168L170.69 107.686C171.312 107.858 171.927 108.048 172.533 108.256L172.371 108.729C172.972 108.935 173.564 109.158 174.148 109.398L174.338 108.936C174.935 109.181 175.522 109.444 176.1 109.724L175.882 110.174C176.453 110.45 177.015 110.744 177.566 111.053L177.811 110.617C178.373 110.932 178.924 111.264 179.464 111.611L179.194 112.032C179.727 112.374 180.249 112.733 180.76 113.106L181.055 112.703C181.575 113.083 182.083 113.478 182.578 113.888L182.259 114.273C182.747 114.677 183.222 115.096 183.685 115.528L184.026 115.163C184.496 115.602 184.953 116.056 185.396 116.522L185.033 116.866C185.469 117.326 185.891 117.798 186.299 118.283L186.681 117.961C187.095 118.453 187.494 118.958 187.878 119.475L187.477 119.773C187.854 120.281 188.216 120.801 188.562 121.331L188.981 121.058C189.332 121.596 189.668 122.145 189.986 122.705L189.552 122.952C189.865 123.502 190.161 124.061 190.441 124.631L190.89 124.41C191.173 124.986 191.439 125.572 191.688 126.167L191.227 126.36C191.47 126.942 191.696 127.533 191.905 128.133L192.377 127.969C192.588 128.574 192.78 129.188 192.954 129.81L192.473 129.945C192.643 130.552 192.796 131.167 192.93 131.788L193.418 131.683C193.553 132.309 193.669 132.943 193.767 133.582L193.272 133.657C193.367 134.279 193.443 134.908 193.501 135.541L193.999 135.496Z" stroke="#F7FAFC" stroke-dasharray="2 2"/>
<path id="tappable-plant" d="M269.056 196.928C269.11 197.605 269.147 198.287 269.165 198.973L268.665 198.986C268.674 199.323 268.679 199.661 268.679 200C268.679 200.339 268.674 200.677 268.665 201.014L269.165 201.027C269.147 201.713 269.11 202.395 269.056 203.072L268.558 203.032C268.504 203.707 268.432 204.377 268.342 205.042L268.838 205.108C268.747 205.788 268.637 206.462 268.51 207.13L268.019 207.036C267.893 207.701 267.749 208.359 267.588 209.01L268.073 209.13C267.909 209.796 267.727 210.454 267.528 211.105L267.05 210.958C266.852 211.605 266.637 212.244 266.406 212.875L266.875 213.047C266.639 213.69 266.386 214.324 266.117 214.95L265.658 214.752C265.39 215.373 265.107 215.984 264.808 216.586L265.255 216.808C264.951 217.421 264.63 218.024 264.293 218.617L263.858 218.37C263.525 218.957 263.176 219.533 262.813 220.099L263.233 220.369C262.863 220.944 262.478 221.508 262.078 222.06L261.673 221.767C261.277 222.313 260.867 222.848 260.443 223.37L260.831 223.686C260.4 224.216 259.955 224.734 259.496 225.239L259.126 224.903C258.673 225.402 258.206 225.888 257.726 226.36L258.077 226.716C257.59 227.196 257.09 227.661 256.578 228.112L256.247 227.737C255.742 228.182 255.223 228.612 254.694 229.028L255.002 229.421C254.465 229.843 253.916 230.249 253.356 230.639L253.07 230.229C252.518 230.614 251.954 230.983 251.38 231.336L251.643 231.762C251.061 232.12 250.47 232.461 249.868 232.785L249.631 232.345C249.039 232.664 248.437 232.966 247.826 233.251L248.038 233.705C247.42 233.993 246.793 234.264 246.157 234.516L245.973 234.052C245.348 234.3 244.716 234.531 244.075 234.743L244.233 235.218C243.586 235.432 242.932 235.628 242.27 235.805L242.141 235.322C241.493 235.496 240.838 235.651 240.176 235.787L240.277 236.277C239.611 236.414 238.938 236.532 238.26 236.631L238.188 236.137C237.525 236.233 236.857 236.311 236.183 236.369L236.226 236.867C235.55 236.926 234.868 236.966 234.181 236.985L234.167 236.485C233.831 236.495 233.493 236.5 233.155 236.5C232.816 236.5 232.479 236.495 232.142 236.485L232.128 236.985C231.441 236.966 230.76 236.926 230.083 236.867L230.127 236.369C229.453 236.311 228.784 236.233 228.121 236.137L228.049 236.631C227.371 236.532 226.698 236.414 226.033 236.277L226.133 235.787C225.472 235.651 224.817 235.496 224.169 235.322L224.039 235.805C223.378 235.628 222.723 235.432 222.077 235.218L222.234 234.743C221.594 234.531 220.961 234.3 220.337 234.052L220.152 234.516C219.516 234.264 218.889 233.993 218.271 233.705L218.483 233.251C217.872 232.966 217.27 232.664 216.678 232.345L216.441 232.785C215.839 232.461 215.248 232.12 214.667 231.762L214.929 231.336C214.355 230.983 213.792 230.614 213.24 230.229L212.954 230.639C212.393 230.249 211.844 229.843 211.307 229.421L211.616 229.028C211.086 228.612 210.568 228.182 210.062 227.737L209.732 228.112C209.219 227.661 208.719 227.196 208.232 226.716L208.583 226.36C208.103 225.888 207.637 225.402 207.183 224.903L206.813 225.239C206.354 224.734 205.909 224.216 205.478 223.686L205.866 223.37C205.442 222.848 205.032 222.313 204.636 221.767L204.231 222.06C203.831 221.508 203.446 220.944 203.076 220.369L203.497 220.099C203.133 219.533 202.784 218.957 202.451 218.37L202.016 218.617C201.68 218.024 201.359 217.421 201.054 216.808L201.502 216.586C201.202 215.984 200.919 215.373 200.652 214.752L200.192 214.95C199.923 214.324 199.67 213.69 199.434 213.047L199.904 212.875C199.672 212.244 199.457 211.605 199.259 210.958L198.781 211.105C198.582 210.454 198.4 209.796 198.236 209.13L198.721 209.01C198.56 208.359 198.416 207.701 198.29 207.036L197.799 207.13C197.672 206.462 197.563 205.788 197.471 205.108L197.967 205.042C197.878 204.377 197.806 203.707 197.752 203.032L197.253 203.072C197.199 202.395 197.163 201.713 197.144 201.027L197.644 201.014C197.635 200.677 197.631 200.339 197.631 200C197.631 199.661 197.635 199.323 197.644 198.986L197.144 198.973C197.163 198.287 197.199 197.605 197.253 196.928L197.752 196.968C197.806 196.293 197.878 195.623 197.967 194.958L197.471 194.892C197.563 194.212 197.672 193.538 197.799 192.87L198.29 192.964C198.416 192.299 198.56 191.641 198.721 190.99L198.236 190.87C198.4 190.204 198.582 189.546 198.781 188.895L199.259 189.042C199.457 188.395 199.672 187.756 199.904 187.125L199.434 186.953C199.67 186.31 199.923 185.676 200.192 185.05L200.652 185.248C200.919 184.627 201.202 184.016 201.502 183.414L201.054 183.192C201.359 182.579 201.68 181.976 202.016 181.383L202.451 181.63C202.784 181.043 203.133 180.467 203.497 179.901L203.076 179.631C203.446 179.056 203.831 178.492 204.231 177.94L204.636 178.233C205.032 177.687 205.442 177.152 205.866 176.63L205.478 176.314C205.909 175.784 206.354 175.266 206.813 174.761L207.183 175.097C207.637 174.598 208.103 174.112 208.583 173.64L208.232 173.284C208.719 172.804 209.219 172.339 209.732 171.888L210.062 172.263C210.568 171.818 211.086 171.388 211.616 170.972L211.307 170.579C211.844 170.157 212.393 169.751 212.954 169.361L213.24 169.771C213.792 169.386 214.355 169.017 214.929 168.664L214.667 168.238C215.248 167.88 215.839 167.539 216.441 167.215L216.678 167.655C217.27 167.336 217.872 167.034 218.483 166.749L218.271 166.295C218.889 166.007 219.516 165.736 220.152 165.484L220.337 165.948C220.961 165.7 221.594 165.469 222.234 165.257L222.077 164.782C222.723 164.568 223.378 164.372 224.039 164.195L224.169 164.678C224.817 164.504 225.472 164.349 226.133 164.213L226.033 163.723C226.698 163.586 227.371 163.468 228.049 163.369L228.121 163.863C228.784 163.767 229.453 163.689 230.127 163.631L230.083 163.133C230.76 163.074 231.441 163.034 232.128 163.015L232.142 163.515C232.479 163.505 232.816 163.5 233.155 163.5C233.493 163.5 233.831 163.505 234.167 163.515L234.181 163.015C234.868 163.034 235.55 163.074 236.226 163.133L236.183 163.631C236.857 163.689 237.525 163.767 238.188 163.863L238.26 163.369C238.938 163.468 239.611 163.586 240.277 163.723L240.176 164.213C240.838 164.349 241.493 164.504 242.141 164.678L242.27 164.195C242.932 164.372 243.586 164.568 244.233 164.782L244.075 165.257C244.716 165.469 245.348 165.7 245.973 165.948L246.157 165.484C246.793 165.736 247.42 166.007 248.038 166.295L247.826 166.749C248.437 167.034 249.039 167.336 249.631 167.655L249.868 167.215C250.47 167.539 251.061 167.88 251.643 168.238L251.38 168.664C251.954 169.017 252.518 169.386 253.07 169.771L253.356 169.361C253.916 169.751 254.465 170.157 255.002 170.579L254.694 170.972C255.223 171.388 255.742 171.818 256.247 172.263L256.578 171.888C257.09 172.339 257.59 172.804 258.077 173.284L257.726 173.64C258.206 174.112 258.673 174.598 259.126 175.097L259.496 174.761C259.955 175.266 260.4 175.784 260.831 176.314L260.443 176.63C260.867 177.152 261.277 177.687 261.673 178.233L262.078 177.94C262.478 178.492 262.863 179.056 263.233 179.631L262.813 179.901C263.176 180.467 263.525 181.043 263.858 181.63L264.293 181.383C264.63 181.976 264.951 182.579 265.255 183.192L264.808 183.414C265.107 184.016 265.39 184.627 265.658 185.248L266.117 185.05C266.386 185.676 266.639 186.31 266.875 186.953L266.406 187.125C266.637 187.756 266.852 188.395 267.05 189.042L267.528 188.895C267.727 189.546 267.909 190.204 268.073 190.87L267.588 190.99C267.749 191.641 267.893 192.299 268.019 192.964L268.51 192.87C268.637 193.538 268.747 194.212 268.838 194.892L268.342 194.958C268.432 195.623 268.504 196.293 268.558 196.968L269.056 196.928Z" stroke="#F7FAFC" stroke-dasharray="2 2"/>
<path id="tappable-lamp" d="M279.075 88.5817C279.124 89.2462 279.157 89.915 279.173 90.5879L278.673 90.6001C278.681 90.9308 278.685 91.2626 278.685 91.5953C278.685 91.928 278.681 92.2598 278.673 92.5905L279.173 92.6027C279.157 93.2756 279.124 93.9444 279.075 94.6089L278.576 94.5723C278.528 95.2351 278.463 95.8933 278.383 96.5468L278.879 96.6078C278.797 97.2753 278.698 97.9377 278.584 98.5947L278.092 98.5092C277.978 99.1632 277.849 99.8119 277.704 100.455L278.192 100.565C278.044 101.22 277.88 101.869 277.701 102.513L277.22 102.379C277.042 103.017 276.849 103.65 276.64 104.276L277.115 104.434C276.903 105.071 276.676 105.701 276.433 106.323L275.967 106.142C275.727 106.76 275.472 107.37 275.203 107.973L275.659 108.177C275.385 108.789 275.096 109.394 274.794 109.99L274.348 109.763C274.048 110.354 273.733 110.936 273.405 111.509L273.839 111.757C273.507 112.339 273.16 112.912 272.799 113.476L272.378 113.206C272.021 113.764 271.651 114.313 271.268 114.851L271.676 115.141C271.288 115.687 270.886 116.223 270.472 116.749L270.079 116.44C269.67 116.96 269.248 117.47 268.814 117.969L269.191 118.297C268.752 118.802 268.3 119.296 267.836 119.78L267.475 119.433C267.017 119.911 266.548 120.377 266.067 120.831L266.41 121.195C265.924 121.655 265.426 122.103 264.917 122.538L264.592 122.159C264.09 122.589 263.577 123.007 263.054 123.413L263.36 123.808C262.832 124.218 262.293 124.616 261.744 125L261.457 124.59C260.915 124.969 260.364 125.336 259.804 125.689L260.07 126.112C259.504 126.468 258.929 126.811 258.345 127.14L258.099 126.705C257.524 127.029 256.94 127.339 256.347 127.636L256.571 128.083C255.973 128.382 255.367 128.667 254.753 128.938L254.552 128.48C253.948 128.746 253.336 128.998 252.717 129.236L252.896 129.702C252.272 129.941 251.641 130.166 251.003 130.375L250.847 129.9C250.22 130.105 249.587 130.296 248.947 130.471L249.079 130.953C248.435 131.13 247.785 131.291 247.129 131.436L247.021 130.948C246.378 131.091 245.729 131.219 245.074 131.33L245.158 131.823C244.501 131.936 243.838 132.033 243.171 132.114L243.111 131.617C242.457 131.696 241.799 131.76 241.136 131.808L241.172 132.307C240.507 132.355 239.838 132.387 239.165 132.403L239.153 131.903C238.823 131.911 238.491 131.915 238.158 131.915C237.825 131.915 237.493 131.911 237.163 131.903L237.151 132.403C236.478 132.387 235.809 132.355 235.144 132.307L235.18 131.808C234.517 131.76 233.859 131.696 233.205 131.617L233.145 132.114C232.477 132.033 231.815 131.936 231.157 131.823L231.242 131.331C230.587 131.219 229.938 131.091 229.295 130.948L229.186 131.436C228.531 131.291 227.88 131.13 227.237 130.953L227.369 130.471C226.729 130.296 226.096 130.105 225.469 129.9L225.313 130.375C224.675 130.166 224.044 129.941 223.42 129.702L223.599 129.236C222.98 128.998 222.368 128.746 221.764 128.48L221.563 128.938C220.949 128.667 220.343 128.382 219.745 128.083L219.969 127.636C219.376 127.339 218.792 127.029 218.216 126.705L217.971 127.14C217.387 126.811 216.811 126.468 216.246 126.112L216.512 125.689C215.952 125.336 215.401 124.969 214.859 124.59L214.572 125C214.023 124.616 213.484 124.218 212.956 123.808L213.262 123.413C212.739 123.007 212.226 122.589 211.724 122.159L211.399 122.539C210.89 122.103 210.392 121.655 209.906 121.195L210.249 120.831C209.768 120.377 209.299 119.911 208.841 119.433L208.48 119.78C208.016 119.296 207.564 118.802 207.125 118.297L207.502 117.969C207.068 117.47 206.646 116.96 206.237 116.44L205.844 116.749C205.43 116.223 205.028 115.687 204.64 115.141L205.047 114.851C204.664 114.313 204.294 113.764 203.938 113.207L203.517 113.476C203.156 112.912 202.809 112.339 202.476 111.757L202.91 111.509C202.582 110.936 202.268 110.354 201.968 109.763L201.522 109.99C201.219 109.394 200.931 108.789 200.657 108.177L201.113 107.973C200.844 107.37 200.589 106.76 200.348 106.142L199.882 106.323C199.64 105.701 199.413 105.071 199.201 104.434L199.675 104.276C199.467 103.65 199.274 103.017 199.096 102.379L198.615 102.513C198.436 101.87 198.272 101.22 198.124 100.565L198.612 100.455C198.467 99.8119 198.338 99.1632 198.224 98.5092L197.732 98.5948C197.617 97.9377 197.519 97.2753 197.437 96.6079L197.933 96.5468C197.853 95.8934 197.788 95.2351 197.74 94.5723L197.241 94.6089C197.192 93.9445 197.159 93.2756 197.143 92.6027L197.643 92.5905C197.635 92.2598 197.631 91.928 197.631 91.5953C197.631 91.2626 197.635 90.9308 197.643 90.6001L197.143 90.5879C197.159 89.915 197.192 89.2462 197.241 88.5817L197.74 88.6183C197.788 87.9556 197.853 87.2973 197.933 86.6438L197.437 86.5828C197.519 85.9153 197.617 85.2529 197.732 84.5959L198.224 84.6814C198.338 84.0274 198.467 83.3787 198.612 82.7359L198.124 82.626C198.272 81.9706 198.436 81.3211 198.614 80.678L199.096 80.8121C199.274 80.1731 199.467 79.5405 199.675 78.9147L199.201 78.7569C199.413 78.1199 199.64 77.4899 199.882 76.8673L200.348 77.0485C200.589 76.4308 200.844 75.8205 201.113 75.218L200.657 75.0138C200.931 74.4015 201.219 73.7971 201.522 73.201L201.968 73.4276C202.268 72.8371 202.582 72.2549 202.91 71.6816L202.476 71.4333C202.809 70.8514 203.156 70.2784 203.517 69.7148L203.938 69.9841C204.294 69.4263 204.664 68.8779 205.047 68.3392L204.64 68.0495C205.028 67.5033 205.43 66.9671 205.844 66.4413L206.237 66.7506C206.646 66.2307 207.068 65.721 207.502 65.2221L207.125 64.8939C207.564 64.3886 208.016 63.8942 208.48 63.411L208.841 63.7572C209.299 63.2799 209.768 62.8138 210.249 62.3593L209.906 61.996C210.392 61.5361 210.89 61.088 211.399 60.6521L211.724 61.0318C212.226 60.6016 212.739 60.1834 213.262 59.7777L212.956 59.3826C213.484 58.9725 214.023 58.575 214.572 58.1906L214.859 58.6002C215.401 58.2211 215.952 57.8549 216.512 57.502L216.246 57.0789C216.811 56.7225 217.387 56.3795 217.971 56.0503L218.216 56.4859C218.792 56.1617 219.376 55.8511 219.969 55.5546L219.745 55.1075C220.343 54.8083 220.949 54.5232 221.563 54.2527L221.764 54.7102C222.368 54.4441 222.98 54.1923 223.599 53.9551L223.42 53.4882C224.044 53.2492 224.675 53.025 225.313 52.8159L225.469 53.291C226.096 53.0857 226.729 52.8951 227.369 52.7197L227.237 52.2375C227.88 52.0611 228.531 51.8999 229.186 51.7543L229.295 52.2424C229.938 52.0996 230.587 51.9721 231.242 51.8601L231.157 51.3673C231.815 51.2548 232.477 51.158 233.145 51.077L233.205 51.5734C233.859 51.4942 234.517 51.4304 235.18 51.3825L235.144 50.8838C235.809 50.8358 236.478 50.8036 237.151 50.7875L237.163 51.2873C237.493 51.2794 237.825 51.2754 238.158 51.2754C238.491 51.2754 238.823 51.2794 239.153 51.2873L239.165 50.7875C239.838 50.8036 240.507 50.8358 241.172 50.8838L241.136 51.3825C241.799 51.4304 242.457 51.4942 243.111 51.5734L243.171 51.077C243.838 51.158 244.501 51.2548 245.158 51.3673L245.074 51.8601C245.729 51.9721 246.378 52.0996 247.021 52.2424L247.129 51.7543C247.785 51.8999 248.435 52.0611 249.079 52.2375L248.947 52.7197C249.587 52.8951 250.22 53.0857 250.847 53.291L251.003 52.8159C251.641 53.025 252.272 53.2492 252.896 53.4882L252.717 53.9551C253.336 54.1923 253.948 54.4441 254.552 54.7102L254.753 54.2527C255.367 54.5232 255.973 54.8083 256.571 55.1075L256.347 55.5546C256.94 55.8511 257.524 56.1617 258.099 56.4859L258.345 56.0503C258.929 56.3795 259.504 56.7225 260.07 57.0789L259.804 57.502C260.364 57.8549 260.915 58.2211 261.457 58.6002L261.744 58.1906C262.293 58.575 262.832 58.9725 263.36 59.3826L263.054 59.7777C263.577 60.1834 264.09 60.6016 264.592 61.0318L264.917 60.6521C265.426 61.088 265.924 61.5361 266.41 61.996L266.067 62.3593C266.548 62.8138 267.017 63.2799 267.475 63.7572L267.836 63.411C268.3 63.8942 268.752 64.3886 269.191 64.8939L268.814 65.2221C269.248 65.721 269.67 66.2307 270.079 66.7506L270.472 66.4413C270.886 66.9671 271.288 67.5033 271.676 68.0495L271.268 68.3392C271.651 68.8779 272.021 69.4263 272.378 69.9841L272.799 69.7148C273.16 70.2784 273.507 70.8514 273.839 71.4333L273.405 71.6816C273.733 72.2549 274.048 72.8371 274.348 73.4276L274.794 73.201C275.096 73.797 275.385 74.4014 275.659 75.0138L275.203 75.218C275.472 75.8205 275.727 76.4308 275.967 77.0485L276.433 76.8672C276.676 77.4899 276.903 78.1199 277.115 78.7569L276.64 78.9147C276.849 79.5405 277.042 80.1731 277.22 80.8121L277.701 80.678C277.88 81.3211 278.044 81.9706 278.192 82.626L277.704 82.7359C277.849 83.3787 277.978 84.0274 278.092 84.6814L278.584 84.5958C278.698 85.2529 278.797 85.9153 278.879 86.5827L278.383 86.6438C278.463 87.2972 278.528 87.9555 278.576 88.6183L279.075 88.5817Z" stroke="#F7FAFC" stroke-dasharray="2 2"/>
<path id="tappable-person" d="M101.925 157.356C101.988 158.002 102.03 158.653 102.052 159.31L101.552 159.326C101.562 159.647 101.568 159.969 101.568 160.292C101.568 160.615 101.562 160.937 101.552 161.258L102.052 161.274C102.03 161.931 101.988 162.583 101.925 163.228L101.427 163.179C101.364 163.823 101.28 164.46 101.176 165.09L101.669 165.172C101.562 165.82 101.434 166.461 101.286 167.094L100.799 166.98C100.652 167.608 100.485 168.228 100.298 168.839L100.776 168.985C100.585 169.613 100.373 170.231 100.142 170.84L99.6747 170.662C99.4462 171.265 99.1983 171.858 98.9319 172.44L99.3866 172.648C99.1143 173.244 98.823 173.828 98.5134 174.402L98.0734 174.165C97.7678 174.731 97.444 175.286 97.1029 175.829L97.5263 176.095C97.1785 176.649 96.8129 177.191 96.4304 177.72L96.0253 177.427C95.6485 177.948 95.255 178.456 94.8456 178.95L95.2307 179.269C94.8139 179.773 94.3809 180.262 93.9325 180.737L93.5689 180.394C93.1279 180.861 92.6717 181.314 92.201 181.752L92.5415 182.118C92.0633 182.562 91.5704 182.992 91.0637 183.405L90.7478 183.017C90.2503 183.423 89.7393 183.813 89.2155 184.186L89.5057 184.593C88.9742 184.972 88.4298 185.334 87.8733 185.678L87.6103 185.252C87.0649 185.59 86.5075 185.91 85.9391 186.212L86.1738 186.654C85.5983 186.959 85.0117 187.247 84.4146 187.516L84.2093 187.06C83.6251 187.323 83.0308 187.568 82.4271 187.794L82.6021 188.262C81.9922 188.49 81.3729 188.699 80.745 188.888L80.601 188.409C79.9885 188.593 79.3676 188.758 78.7391 188.903L78.8514 189.39C78.2177 189.536 77.5764 189.662 76.928 189.768L76.8478 189.274C76.217 189.377 75.5796 189.459 74.936 189.522L74.9841 190.019C74.3384 190.082 73.6867 190.124 73.0297 190.145L73.0137 189.645C72.693 189.655 72.371 189.66 72.0478 189.66C71.7246 189.66 71.4026 189.655 71.0819 189.645L71.0659 190.145C70.4089 190.124 69.7572 190.082 69.1115 190.019L69.1596 189.522C68.516 189.459 67.8786 189.377 67.2479 189.274L67.1676 189.768C66.5192 189.662 65.8779 189.536 65.2442 189.39L65.3565 188.903C64.728 188.758 64.1071 188.593 63.4946 188.409L63.3507 188.888C62.7227 188.699 62.1034 188.49 61.4935 188.262L61.6686 187.794C61.0648 187.568 60.4705 187.323 59.8863 187.06L59.681 187.516C59.0839 187.247 58.4973 186.959 57.9218 186.654L58.1565 186.212C57.5881 185.91 57.0307 185.59 56.4853 185.252L56.2223 185.678C55.6658 185.334 55.1214 184.972 54.59 184.593L54.8801 184.186C54.3563 183.813 53.8453 183.423 53.3478 183.017L53.0319 183.405C52.5252 182.992 52.0323 182.562 51.5541 182.118L51.8946 181.752C51.424 181.314 50.9677 180.861 50.5267 180.394L50.1631 180.737C49.7147 180.262 49.2817 179.773 48.8649 179.269L49.25 178.95C48.8406 178.456 48.4471 177.948 48.0703 177.427L47.6652 177.72C47.2827 177.191 46.9171 176.649 46.5693 176.095L46.9927 175.829C46.6516 175.286 46.3278 174.731 46.0222 174.165L45.5822 174.402C45.2726 173.828 44.9813 173.243 44.709 172.648L45.1637 172.44C44.8973 171.858 44.6494 171.265 44.4209 170.662L43.9534 170.84C43.7223 170.231 43.5107 169.613 43.3193 168.985L43.7975 168.839C43.6108 168.228 43.4436 167.608 43.2966 166.98L42.8098 167.094C42.6615 166.461 42.5336 165.82 42.4265 165.172L42.9199 165.09C42.8157 164.46 42.7318 163.823 42.6687 163.179L42.1711 163.228C42.1078 162.583 42.0651 161.931 42.0438 161.274L42.5435 161.258C42.5331 160.937 42.5279 160.615 42.5279 160.292C42.5279 159.969 42.5331 159.647 42.5435 159.326L42.0438 159.31C42.0651 158.653 42.1078 158.002 42.1711 157.356L42.6687 157.405C42.7318 156.761 42.8157 156.124 42.9199 155.494L42.4265 155.412C42.5336 154.764 42.6615 154.123 42.8098 153.49L43.2966 153.604C43.4436 152.976 43.6108 152.356 43.7975 151.745L43.3193 151.599C43.5107 150.972 43.7224 150.353 43.9534 149.744L44.4209 149.922C44.6494 149.319 44.8973 148.727 45.1637 148.144L44.709 147.936C44.9813 147.341 45.2726 146.756 45.5822 146.182L46.0222 146.419C46.3279 145.853 46.6516 145.298 46.9927 144.755L46.5693 144.489C46.9171 143.935 47.2827 143.393 47.6652 142.864L48.0704 143.157C48.4471 142.636 48.8406 142.128 49.25 141.634L48.8649 141.315C49.2817 140.811 49.7147 140.322 50.1631 139.847L50.5267 140.19C50.9677 139.723 51.424 139.27 51.8946 138.833L51.5541 138.466C52.0323 138.022 52.5252 137.592 53.0319 137.179L53.3478 137.567C53.8453 137.161 54.3563 136.771 54.8801 136.398L54.59 135.991C55.1214 135.612 55.6658 135.251 56.2223 134.906L56.4853 135.332C57.0307 134.994 57.5881 134.674 58.1565 134.372L57.9218 133.931C58.4973 133.625 59.0839 133.337 59.681 133.068L59.8863 133.524C60.4705 133.261 61.0648 133.016 61.6686 132.79L61.4935 132.322C62.1034 132.094 62.7227 131.885 63.3507 131.697L63.4946 132.175C64.1071 131.991 64.728 131.826 65.3566 131.681L65.2442 131.194C65.8779 131.048 66.5192 130.922 67.1676 130.817L67.2479 131.31C67.8786 131.207 68.516 131.125 69.1596 131.063L69.1115 130.565C69.7572 130.503 70.4089 130.461 71.0659 130.44L71.0819 130.939C71.4026 130.929 71.7246 130.924 72.0478 130.924C72.371 130.924 72.693 130.929 73.0137 130.939L73.0297 130.44C73.6867 130.461 74.3384 130.503 74.9841 130.565L74.936 131.063C75.5796 131.125 76.2171 131.207 76.8478 131.31L76.928 130.817C77.5764 130.922 78.2177 131.048 78.8514 131.194L78.7391 131.681C79.3677 131.826 79.9885 131.991 80.601 132.175L80.745 131.697C81.3729 131.885 81.9922 132.094 82.6021 132.322L82.4271 132.79C83.0308 133.016 83.6251 133.261 84.2093 133.524L84.4146 133.068C85.0117 133.337 85.5984 133.625 86.1738 133.931L85.9391 134.372C86.5076 134.674 87.0649 134.994 87.6103 135.332L87.8733 134.906C88.4298 135.251 88.9742 135.612 89.5057 135.991L89.2155 136.398C89.7393 136.771 90.2503 137.161 90.7478 137.567L91.0638 137.179C91.5704 137.592 92.0633 138.022 92.5415 138.466L92.201 138.833C92.6717 139.27 93.1279 139.723 93.5689 140.19L93.9325 139.847C94.3809 140.322 94.8139 140.811 95.2307 141.315L94.8456 141.634C95.255 142.128 95.6485 142.636 96.0253 143.157L96.4304 142.864C96.8129 143.393 97.1785 143.935 97.5263 144.489L97.1029 144.755C97.444 145.298 97.7678 145.853 98.0734 146.42L98.5134 146.182C98.823 146.756 99.1143 147.341 99.3866 147.936L98.9319 148.144C99.1983 148.727 99.4462 149.319 99.6747 149.922L100.142 149.744C100.373 150.353 100.585 150.972 100.776 151.599L100.298 151.745C100.485 152.356 100.652 152.976 100.799 153.604L101.286 153.49C101.434 154.123 101.562 154.764 101.669 155.412L101.176 155.494C101.28 156.124 101.364 156.761 101.427 157.405L101.925 157.356Z" stroke="#F7FAFC" stroke-dasharray="2 2"/>
</g>
<defs>
<linearGradient id="paint0_linear" x1="236.157" y1="104.598" x2="236.157" y2="309.598" gradientUnits="userSpaceOnUse">
<stop stop-color="#FCF79E"/>
<stop offset="1" stop-color="#FCF79E" stop-opacity="0"/>
</linearGradient>
</defs>
</svg>
