<svg width="21" height="21" viewBox="0 0 21 21" fill="none" xmlns="http://www.w3.org/2000/svg">
<path d="M10.3884 13.7812C9.76345 13.7812 9.2947 14.2891 9.2947 14.875C9.2947 15.5 9.76345 15.9688 10.3884 15.9688C10.9744 15.9688 11.4822 15.5 11.4822 14.875C11.4822 14.2891 10.9744 13.7812 10.3884 13.7812ZM10.6619 12.8438C10.9353 12.8438 11.1306 12.6484 11.1306 12.375C11.1306 10.6953 14.1775 10.8125 14.1775 8.19531C14.1775 6.20312 12.3806 5.03125 10.3494 5.03125C8.59157 5.03125 7.61501 5.73438 6.7947 6.78906C6.63845 7.02344 6.67751 7.29688 6.91189 7.45312L7.4197 7.84375C7.61501 7.96094 7.88845 7.92188 8.0447 7.72656C8.63064 6.98438 9.21657 6.59375 10.3494 6.59375C11.9119 6.59375 12.615 7.41406 12.615 8.19531C12.615 9.875 9.56814 9.64062 9.56814 12.375C9.56814 12.6484 9.80251 12.8438 10.0369 12.8438H10.6619ZM10.3884 2.0625C14.9978 2.0625 18.8259 5.85156 18.8259 10.5C18.8259 15.1875 15.0369 18.9375 10.3884 18.9375C5.70095 18.9375 1.95095 15.1875 1.95095 10.5C1.95095 5.85156 5.70095 2.0625 10.3884 2.0625ZM10.3884 0.8125C5.03689 0.8125 0.700949 5.1875 0.700949 10.5C0.700949 15.8516 5.03689 20.1875 10.3884 20.1875C15.7009 20.1875 20.0759 15.8516 20.0759 10.5C20.0759 5.1875 15.7009 0.8125 10.3884 0.8125Z" fill="#F7FAFC"/>
</svg>
