<svg width="16" height="11" viewBox="0 0 16 11" fill="none" xmlns="http://www.w3.org/2000/svg">
<path d="M2.75 4.75C3.57031 4.75 4.25 4.09375 4.25 3.25C4.25 2.42969 3.57031 1.75 2.75 1.75C1.90625 1.75 1.25 2.42969 1.25 3.25C1.25 4.09375 1.90625 4.75 2.75 4.75ZM13.25 4.75C14.0703 4.75 14.75 4.09375 14.75 3.25C14.75 2.42969 14.0703 1.75 13.25 1.75C12.4062 1.75 11.75 2.42969 11.75 3.25C11.75 4.09375 12.4062 4.75 13.25 4.75ZM14 5.5H12.5C12.0781 5.5 11.7031 5.6875 11.4219 5.94531C12.3828 6.46094 13.0391 7.39844 13.2031 8.5H14.75C15.1484 8.5 15.5 8.17188 15.5 7.75V7C15.5 6.17969 14.8203 5.5 14 5.5ZM8 5.5C9.42969 5.5 10.625 4.32812 10.625 2.875C10.625 1.44531 9.42969 0.25 8 0.25C6.54688 0.25 5.375 1.44531 5.375 2.875C5.375 4.32812 6.54688 5.5 8 5.5ZM9.78125 6.25H9.59375C9.10156 6.48438 8.5625 6.625 8 6.625C7.41406 6.625 6.875 6.48438 6.38281 6.25H6.19531C4.69531 6.25 3.5 7.46875 3.5 8.96875V9.625C3.5 10.2578 3.99219 10.75 4.625 10.75H11.375C11.9844 10.75 12.5 10.2578 12.5 9.625V8.96875C12.5 7.46875 11.2812 6.25 9.78125 6.25ZM4.55469 5.94531C4.27344 5.6875 3.89844 5.5 3.5 5.5H2C1.15625 5.5 0.5 6.17969 0.5 7V7.75C0.5 8.17188 0.828125 8.5 1.25 8.5H2.77344C2.9375 7.39844 3.59375 6.46094 4.55469 5.94531Z" fill="#F7FAFC"/>
</svg>
