<svg width="12" height="15" viewBox="0 0 12 15" fill="none" xmlns="http://www.w3.org/2000/svg">
<path d="M7.75 13H6.875V7.75H5.125V13H4.25C3.45703 13 2.74609 13.5195 2.5 14.2305C2.41797 14.4766 2.63672 14.75 2.9375 14.75H9.03516C9.33594 14.75 9.55469 14.4766 9.47266 14.2305C9.25391 13.5195 8.51562 13 7.75 13ZM11.168 5.67188L9.28125 1.29688C9.17188 0.996094 8.81641 0.75 8.48828 0.75H3.48438C3.15625 0.75 2.80078 0.996094 2.69141 1.29688L0.804688 5.67188C0.777344 5.75391 0.75 5.91797 0.75 6C0.75 6.49219 1.13281 6.875 1.625 6.875H10.375C10.8398 6.875 11.2227 6.49219 11.2227 6C11.2227 5.91797 11.1953 5.75391 11.168 5.67188Z" fill="#F7FAFC"/>
</svg>
