<svg width="16" height="15" viewBox="0 0 16 15" fill="none" xmlns="http://www.w3.org/2000/svg">
<path d="M15.0547 1.02344C14.8906 0.695312 14.4531 0.667969 14.2617 0.996094C13.4141 2.47266 11.9102 3.375 10.1875 3.375H8C5.10156 3.375 2.75 5.72656 2.75 8.625C2.75 8.81641 2.75 9.00781 2.77734 9.19922C4.52734 7.94141 7.04297 6.875 10.625 6.875C10.8438 6.875 11.0625 7.09375 11.0625 7.3125C11.0625 7.55859 10.8438 7.75 10.625 7.75C3.73438 7.75 0.835938 11.9883 0.179688 13.5469C-0.0117188 14.0117 0.207031 14.5039 0.644531 14.6953C1.10938 14.8867 1.60156 14.668 1.79297 14.2305C1.84766 14.1211 2.36719 12.918 3.76172 11.7422C4.66406 12.9453 6.33203 14.0938 8.54688 13.8477C12.8398 13.5469 15.875 9.69141 15.875 4.98828C15.875 3.62109 15.5742 2.19922 15.0547 1.02344Z" fill="#F7FAFC"/>
</svg>
