<svg width="18" height="18" viewBox="0 0 18 18" fill="none" xmlns="http://www.w3.org/2000/svg">
<path d="M2 8.66797C2 8.96875 2.16406 9.37891 2.38281 9.59766L8.15234 15.3672C8.67188 15.8867 9.51953 15.8867 10.0117 15.3672L15.5898 9.78906C16.1094 9.29688 16.1094 8.44922 15.5898 7.92969L9.82031 2.16016C9.60156 1.94141 9.19141 1.75 8.89062 1.75H3.3125C2.57422 1.75 2 2.35156 2 3.0625V8.66797ZM5.0625 3.5C5.77344 3.5 6.375 4.10156 6.375 4.8125C6.375 5.55078 5.77344 6.125 5.0625 6.125C4.32422 6.125 3.75 5.55078 3.75 4.8125C3.75 4.10156 4.32422 3.5 5.0625 3.5Z" fill="#0F1938"/>
</svg>
