<svg width="18" height="18" viewBox="0 0 18 18" fill="none" xmlns="http://www.w3.org/2000/svg">
<path d="M7.00033 11.1875H6.97299C6.97299 10.75 7.02768 10.9688 4.64877 6.23828C4.18393 5.28125 2.7894 5.28125 2.32455 6.23828C-0.081697 10.9961 0.000334215 10.7773 0.000334215 11.1875C0.000334215 12.418 1.55893 13.375 3.50033 13.375C5.4144 13.375 7.00033 12.418 7.00033 11.1875ZM3.50033 6.8125L5.46908 10.75H1.53158L3.50033 6.8125ZM17.473 11.1875C17.473 10.75 17.5277 10.9688 15.1488 6.23828C14.6839 5.28125 13.2894 5.28125 12.8246 6.23828C10.4183 10.9961 10.5003 10.7773 10.5003 11.1875C10.5003 12.418 12.0589 13.375 14.0003 13.375C15.9144 13.375 17.5003 12.418 17.5003 11.1875H17.473ZM12.0316 10.75L14.0003 6.8125L15.9691 10.75H12.0316ZM14.4378 14.25H9.62533V6.21094C10.2542 5.91016 10.7464 5.33594 10.8831 4.625H14.4378C14.6566 4.625 14.8753 4.43359 14.8753 4.1875V3.3125C14.8753 3.09375 14.6566 2.875 14.4378 2.875H10.473C10.0902 2.35547 9.46127 2 8.75033 2C8.01205 2 7.38315 2.35547 7.00033 2.875H3.06283C2.81674 2.875 2.62533 3.09375 2.62533 3.3125V4.1875C2.62533 4.43359 2.81674 4.625 3.06283 4.625H6.59018C6.7269 5.33594 7.21908 5.91016 7.87533 6.21094V14.25H3.06283C2.81674 14.25 2.62533 14.4688 2.62533 14.6875V15.5625C2.62533 15.8086 2.81674 16 3.06283 16H14.4378C14.6566 16 14.8753 15.8086 14.8753 15.5625V14.6875C14.8753 14.4688 14.6566 14.25 14.4378 14.25Z" fill="#0F1938"/>
</svg>
