<svg width="24" height="24" viewBox="0 0 24 24" fill="none" xmlns="http://www.w3.org/2000/svg">
<path d="M9.75 15.0625H9.71484C9.71484 14.5 9.78516 14.7812 6.72656 8.69922C6.12891 7.46875 4.33594 7.46875 3.73828 8.69922C0.644531 14.8164 0.75 14.5352 0.75 15.0625C0.75 16.6445 2.75391 17.875 5.25 17.875C7.71094 17.875 9.75 16.6445 9.75 15.0625ZM5.25 9.4375L7.78125 14.5H2.71875L5.25 9.4375ZM23.2148 15.0625C23.2148 14.5 23.2852 14.7812 20.2266 8.69922C19.6289 7.46875 17.8359 7.46875 17.2383 8.69922C14.1445 14.8164 14.25 14.5352 14.25 15.0625C14.25 16.6445 16.2539 17.875 18.75 17.875C21.2109 17.875 23.25 16.6445 23.25 15.0625H23.2148ZM16.2188 14.5L18.75 9.4375L21.2812 14.5H16.2188ZM19.3125 19H13.125V8.66406C13.9336 8.27734 14.5664 7.53906 14.7422 6.625H19.3125C19.5938 6.625 19.875 6.37891 19.875 6.0625V4.9375C19.875 4.65625 19.5938 4.375 19.3125 4.375H14.2148C13.7227 3.70703 12.9141 3.25 12 3.25C11.0508 3.25 10.2422 3.70703 9.75 4.375H4.6875C4.37109 4.375 4.125 4.65625 4.125 4.9375V6.0625C4.125 6.37891 4.37109 6.625 4.6875 6.625H9.22266C9.39844 7.53906 10.0312 8.27734 10.875 8.66406V19H4.6875C4.37109 19 4.125 19.2812 4.125 19.5625V20.6875C4.125 21.0039 4.37109 21.25 4.6875 21.25H19.3125C19.5938 21.25 19.875 21.0039 19.875 20.6875V19.5625C19.875 19.2812 19.5938 19 19.3125 19Z" fill="#F7FAFC"/>
</svg>
