<svg width="18" height="18" viewBox="0 0 18 18" fill="none" xmlns="http://www.w3.org/2000/svg">
<path d="M8.45312 16.4766C8.69922 16.8594 9.27344 16.8594 9.51953 16.4766C13.5117 10.7344 14.25 10.1328 14.25 8C14.25 5.10156 11.8984 2.75 9 2.75C6.07422 2.75 3.75 5.10156 3.75 8C3.75 10.1328 4.46094 10.7344 8.45312 16.4766ZM9 10.1875C7.76953 10.1875 6.8125 9.23047 6.8125 8C6.8125 6.79688 7.76953 5.8125 9 5.8125C10.2031 5.8125 11.1875 6.79688 11.1875 8C11.1875 9.23047 10.2031 10.1875 9 10.1875Z" fill="#0F1938"/>
</svg>
