<svg width="24" height="24" viewBox="0 0 24 24" fill="none" xmlns="http://www.w3.org/2000/svg">
<path d="M11.2969 20.8984C11.6133 21.3906 12.3516 21.3906 12.668 20.8984C17.8008 13.5156 18.75 12.7422 18.75 10C18.75 6.27344 15.7266 3.25 12 3.25C8.23828 3.25 5.25 6.27344 5.25 10C5.25 12.7422 6.16406 13.5156 11.2969 20.8984ZM12 12.8125C10.418 12.8125 9.1875 11.582 9.1875 10C9.1875 8.45312 10.418 7.1875 12 7.1875C13.5469 7.1875 14.8125 8.45312 14.8125 10C14.8125 11.582 13.5469 12.8125 12 12.8125Z" fill="#F7FAFC"/>
</svg>
