<svg width="16" height="16" viewBox="0 0 16 16" fill="none" xmlns="http://www.w3.org/2000/svg">
<path d="M7.78125 10.4022C7.32964 10.4022 6.99093 10.7692 6.99093 11.1925C6.99093 11.6442 7.32964 11.9829 7.78125 11.9829C8.20464 11.9829 8.57157 11.6442 8.57157 11.1925C8.57157 10.7692 8.20464 10.4022 7.78125 10.4022ZM7.97883 9.7248C8.17641 9.7248 8.31754 9.58367 8.31754 9.38609C8.31754 8.17238 10.5192 8.25706 10.5192 6.36593C10.5192 4.92641 9.22077 4.07964 7.75302 4.07964C6.48286 4.07964 5.77722 4.5877 5.18448 5.3498C5.07157 5.51915 5.0998 5.71673 5.26915 5.82964L5.63609 6.1119C5.77722 6.19657 5.9748 6.16835 6.0877 6.02722C6.51109 5.49093 6.93448 5.20867 7.75302 5.20867C8.88206 5.20867 9.39012 5.80141 9.39012 6.36593C9.39012 7.57964 7.18851 7.41028 7.18851 9.38609C7.18851 9.58367 7.35786 9.7248 7.52722 9.7248H7.97883ZM7.78125 1.93448C11.1119 1.93448 13.878 4.67238 13.878 8.03125C13.878 11.4183 11.1401 14.128 7.78125 14.128C4.39415 14.128 1.68448 11.4183 1.68448 8.03125C1.68448 4.67238 4.39415 1.93448 7.78125 1.93448ZM7.78125 1.03125C3.91431 1.03125 0.78125 4.19254 0.78125 8.03125C0.78125 11.8982 3.91431 15.0312 7.78125 15.0312C11.62 15.0312 14.7812 11.8982 14.7812 8.03125C14.7812 4.19254 11.62 1.03125 7.78125 1.03125Z" fill="#A9B6C6"/>
</svg>
