<svg width="24" height="32" viewBox="0 0 24 32" fill="none" xmlns="http://www.w3.org/2000/svg">
<path d="M10.8542 29.7604C11.3698 30.5625 12.5729 30.5625 13.0885 29.7604C21.4531 17.7292 23 16.4688 23 12C23 5.92708 18.0729 1 12 1C5.86979 1 1 5.92708 1 12C1 16.4688 2.48958 17.7292 10.8542 29.7604ZM12 16.5833C9.42188 16.5833 7.41667 14.5781 7.41667 12C7.41667 9.47917 9.42188 7.41667 12 7.41667C14.5208 7.41667 16.5833 9.47917 16.5833 12C16.5833 14.5781 14.5208 16.5833 12 16.5833Z" fill="#F7FAFC"/>
<path d="M7.41797 12.0003C7.41797 14.5785 9.42318 16.5837 12.0013 16.5837C14.5221 16.5837 16.5846 14.5785 16.5846 12.0003C16.5846 9.47949 14.5221 7.41699 12.0013 7.41699C9.42318 7.41699 7.41797 9.47949 7.41797 12.0003Z" fill="#C5271E"/>
</svg>
