<svg width="328" height="200" viewBox="0 0 328 200" fill="none" xmlns="http://www.w3.org/2000/svg">
<mask id="mask0" style="mask-type:alpha" maskUnits="userSpaceOnUse" x="0" y="0" width="321" height="200">
<rect width="321" height="200" fill="#C4C4C4"/>
</mask>
<g mask="url(#mask0)">
<path d="M197.812 143.952C205.363 143.952 211.485 137.83 211.485 130.279C211.485 122.727 205.363 116.605 197.812 116.605C190.26 116.605 184.139 122.727 184.139 130.279C184.139 137.83 190.26 143.952 197.812 143.952Z" fill="#475ABB"/>
<path d="M225.992 139.948C231.331 139.948 235.66 135.619 235.66 130.28C235.66 124.94 231.331 120.611 225.992 120.611C220.652 120.611 216.323 124.94 216.323 130.28C216.323 135.619 220.652 139.948 225.992 139.948Z" fill="#475ABB"/>
<path d="M215.623 161.784C220.962 161.784 225.291 157.455 225.291 152.116C225.291 146.776 220.962 142.447 215.623 142.447C210.283 142.447 205.954 146.776 205.954 152.116C205.954 157.455 210.283 161.784 215.623 161.784Z" fill="#475ABB"/>
<path opacity="0.4" d="M217.319 116.828C229.259 116.828 238.939 107.149 238.939 95.2091C238.939 83.2691 229.259 73.5898 217.319 73.5898C205.379 73.5898 195.7 83.2691 195.7 95.2091C195.7 107.149 205.379 116.828 217.319 116.828Z" fill="#475ABB"/>
<path opacity="0.4" d="M176.485 205.062C193.371 205.062 207.06 191.374 207.06 174.488C207.06 157.603 193.371 143.914 176.485 143.914C159.6 143.914 145.911 157.603 145.911 174.488C145.911 191.374 159.6 205.062 176.485 205.062Z" fill="#475ABB"/>
<path opacity="0.4" d="M98.9902 121.055C115.876 121.055 129.564 107.366 129.564 90.4805C129.564 73.5948 115.876 59.9062 98.9902 59.9062C82.1046 59.9062 68.416 73.5948 68.416 90.4805C68.416 107.366 82.1046 121.055 98.9902 121.055Z" fill="#475ABB"/>
<path d="M163.7 126.978C178.803 126.978 191.046 114.735 191.046 99.6316C191.046 84.5286 178.803 72.2852 163.7 72.2852C148.597 72.2852 136.354 84.5286 136.354 99.6316C136.354 114.735 148.597 126.978 163.7 126.978Z" fill="#475ABB"/>
<path d="M145.145 184.456C139.844 167.178 149.554 148.875 166.831 143.574C171.217 142.229 175.669 141.85 179.958 142.318M186.026 206.142C203.304 200.842 213.014 182.539 207.713 165.261C205.896 159.339 202.553 154.307 198.246 150.463" stroke="#0F1938"/>
<path d="M178.729 66.1474C176.41 58.5867 180.658 50.5772 188.219 48.2577C190.138 47.6689 192.087 47.5034 193.963 47.7078M196.619 75.6373C204.179 73.3178 208.428 65.3084 206.109 57.7477C205.314 55.1565 203.851 52.9543 201.966 51.2722" stroke="#0F1938"/>
<path d="M216.14 124.423C219.319 118.856 226.409 116.92 231.976 120.099C233.389 120.906 234.569 121.965 235.49 123.187M220.464 140.259C226.031 143.438 233.121 141.503 236.3 135.935C237.39 134.027 237.878 131.941 237.826 129.893" stroke="#0F1938"/>
<path d="M236.258 74.0902C235.953 68.4854 240.25 63.6951 245.855 63.3908C247.278 63.3136 248.648 63.5328 249.906 63.9947M246.957 83.6877C252.562 83.3834 256.859 78.5931 256.554 72.9883C256.45 71.0674 255.819 69.3001 254.809 67.8191" stroke="#0F1938"/>
<path opacity="0.4" d="M266.26 129.791C279.339 129.791 289.942 119.188 289.942 106.108C289.942 93.0289 279.339 82.4258 266.26 82.4258C253.18 82.4258 242.577 93.0289 242.577 106.108C242.577 119.188 253.18 129.791 266.26 129.791Z" fill="#475ABB"/>
<path d="M133.106 160.424C143.786 160.424 152.443 151.766 152.443 141.087C152.443 130.407 143.786 121.75 133.106 121.75C122.427 121.75 113.77 130.407 113.77 141.087C113.77 151.766 122.427 160.424 133.106 160.424Z" fill="#475ABB"/>
<path d="M128.837 226.5C139.516 226.5 148.174 217.842 148.174 207.163C148.174 196.484 139.516 187.826 128.837 187.826C118.157 187.826 109.5 196.484 109.5 207.163C109.5 217.842 118.157 226.5 128.837 226.5Z" fill="#475ABB"/>
<path opacity="0.4" d="M63.4755 206.892C74.1549 206.892 82.8123 198.235 82.8123 187.556C82.8123 176.876 74.1549 168.219 63.4755 168.219C52.7961 168.219 44.1387 176.876 44.1387 187.556C44.1387 198.235 52.7961 206.892 63.4755 206.892Z" fill="#475ABB"/>
<path d="M192.33 77.4831C199.882 77.4831 206.004 71.3614 206.004 63.8099C206.004 56.2584 199.882 50.1367 192.33 50.1367C184.779 50.1367 178.657 56.2584 178.657 63.8099C178.657 71.3614 184.779 77.4831 192.33 77.4831Z" fill="#475ABB"/>
<path d="M246.257 83.2489C251.597 83.2489 255.926 78.9202 255.926 73.5805C255.926 68.2408 251.597 63.9121 246.257 63.9121C240.918 63.9121 236.589 68.2408 236.589 73.5805C236.589 78.9202 240.918 83.2489 246.257 83.2489Z" fill="#475ABB"/>
<path d="M226.745 64.7931C238.685 64.7931 248.364 55.1139 248.364 43.1739C248.364 31.2339 238.685 21.5547 226.745 21.5547C214.805 21.5547 205.126 31.2339 205.126 43.1739C205.126 55.1139 214.805 64.7931 226.745 64.7931Z" fill="#475ABB"/>
<path d="M148.564 69.2152C167.061 69.2152 182.056 54.2201 182.056 35.7228C182.056 17.2255 167.061 2.23047 148.564 2.23047C130.066 2.23047 115.071 17.2255 115.071 35.7228C115.071 54.2201 130.066 69.2152 148.564 69.2152Z" fill="#475ABB"/>
<path fill-rule="evenodd" clip-rule="evenodd" d="M97.5479 28.2196C97.1039 28.6339 96.6458 28.4348 96.0911 28.2992C95.7582 28.2175 94.6653 27.7693 94.3539 27.893C93.9939 28.036 93.9053 28.7075 93.7916 28.9947C93.5936 29.4948 93.3947 29.9972 93.1156 30.4705C92.9916 30.6805 92.7067 31.4381 92.4754 31.5801C92.3428 31.6615 92.2389 31.6911 92.068 31.63C91.768 31.5225 91.9268 31.3693 91.9911 31.1076C92.2854 29.9114 92.6617 28.7254 93.2824 27.6161C92.4276 27.3068 91.5545 27.0449 90.6774 26.7833C90.4204 26.7066 89.8364 26.6334 89.7947 26.3421C89.7442 25.9869 90.3106 25.9821 90.6163 26.0057C91.0626 26.0401 91.5383 26.2343 91.9608 26.3515C92.3096 26.4483 93.0358 26.7876 93.3952 26.7458C93.6425 26.7172 93.6253 26.5905 93.7225 26.3649C93.8142 26.1517 93.9055 25.9384 93.9983 25.7253C94.1471 25.3837 94.2963 25.0435 94.4729 24.7111C94.5697 24.5286 94.683 24.1469 94.884 24.0148C95.0006 23.9381 95.4207 23.8527 95.5369 23.9494C95.8092 24.1756 95.0763 25.6798 94.9762 25.9891C94.9097 26.1943 94.859 26.4005 94.772 26.5996C94.7388 26.6749 94.6044 26.7642 94.5994 26.8457C94.5785 27.1917 94.8954 27.2192 95.2352 27.3265C96.025 27.5758 96.8306 27.8464 97.5479 28.2196Z" fill="#475ABB"/>
<path fill-rule="evenodd" clip-rule="evenodd" d="M76.6621 92.3325C76.2625 92.7883 75.8502 92.5693 75.351 92.4201C75.0514 92.3303 74.0678 91.8372 73.7875 91.9733C73.4635 92.1306 73.3838 92.8693 73.2815 93.1852C73.1033 93.7353 72.9243 94.288 72.6731 94.8086C72.5615 95.0396 72.3051 95.8729 72.0969 96.0291C71.9775 96.1186 71.8841 96.1512 71.7303 96.084C71.4602 95.9658 71.6032 95.7973 71.6611 95.5093C71.9259 94.1936 72.2646 92.889 72.8232 91.6687C72.0538 91.3285 71.2681 91.0404 70.4787 90.7526C70.2474 90.6683 69.7218 90.5877 69.6843 90.2674C69.6388 89.8766 70.1486 89.8713 70.4237 89.8973C70.8253 89.9351 71.2536 90.1488 71.6338 90.2777C71.9477 90.3841 72.6013 90.7574 72.9247 90.7114C73.1473 90.6799 73.1318 90.5406 73.2193 90.2924C73.3018 90.0579 73.384 89.8232 73.4675 89.5888C73.6014 89.2131 73.7358 88.8389 73.8946 88.4732C73.9818 88.2725 74.0837 87.8526 74.2646 87.7073C74.3696 87.6229 74.7476 87.529 74.8523 87.6354C75.0974 87.8842 74.4377 89.5388 74.3476 89.879C74.2878 90.1047 74.2422 90.3315 74.1638 90.5505C74.134 90.6335 74.013 90.7316 74.0085 90.8213C73.9897 91.2019 74.2749 91.2321 74.5807 91.3502C75.2915 91.6244 76.0166 91.9221 76.6621 92.3325Z" fill="#475ABB"/>
<path fill-rule="evenodd" clip-rule="evenodd" d="M79.7727 32.0262C79.8049 33.2581 78.8966 33.5119 77.9552 33.9903C77.3899 34.2771 75.263 34.926 75.0348 35.519C74.771 36.2047 75.6623 37.4064 75.9427 38.0159C76.431 39.0772 76.9215 40.1435 77.2615 41.2635C77.4123 41.7606 78.1718 43.3494 78.0776 43.8713C78.0235 44.1704 77.93 44.3493 77.6108 44.4653C77.0504 44.6688 77.0314 44.2201 76.7236 43.7141C75.3174 41.4014 74.0356 39.0019 73.194 36.4191C71.5924 36.9937 70.038 37.6682 68.4786 38.3482C68.0216 38.5475 67.135 39.1643 66.6419 38.7439C66.0409 38.2309 66.7869 37.5095 67.2289 37.1629C67.8739 36.6565 68.7984 36.3726 69.5364 36.0307C70.1455 35.7485 71.621 35.3847 72.0361 34.8641C72.322 34.5061 72.1088 34.3222 71.8989 33.8335C71.7005 33.3718 71.5013 32.9105 71.3045 32.4477C70.9891 31.7057 70.6764 30.9653 70.4115 30.2033C70.2662 29.7851 69.8431 29.0226 69.9119 28.555C69.9517 28.2837 70.3819 27.6158 70.6819 27.6265C71.3839 27.6506 72.6696 31.016 73.0013 31.6442C73.2213 32.061 73.4637 32.4597 73.6471 32.8925C73.7163 33.0567 73.6717 33.3709 73.7875 33.5095C74.2798 34.0976 74.7423 33.7431 75.3555 33.4892C76.7802 32.8992 78.2582 32.3238 79.7727 32.0262Z" fill="#475ABB"/>
<path fill-rule="evenodd" clip-rule="evenodd" d="M69.5603 127.19C69.4245 125.825 71.1223 125.654 71.5977 126.678C72.0731 128.157 69.9678 128.498 69.5603 127.19ZM69.085 127.986C71.4619 129.806 73.1597 127.588 72.141 126.394C71.0205 125.114 67.1834 125.114 69.085 127.986Z" fill="#475ABB"/>
<path fill-rule="evenodd" clip-rule="evenodd" d="M119.667 65.3777C119.558 64.354 120.916 64.2261 121.297 64.9938C121.677 66.1029 119.993 66.3588 119.667 65.3777ZM119.287 65.9749C121.188 67.3398 122.546 65.6763 121.731 64.7806C120.835 63.8209 117.765 63.8209 119.287 65.9749Z" fill="#475ABB"/>
<path fill-rule="evenodd" clip-rule="evenodd" d="M102.027 85.9477C101.891 84.5827 103.589 84.4121 104.065 85.4358C104.54 86.9145 102.435 87.2557 102.027 85.9477ZM101.552 86.7439C103.929 88.5638 105.626 86.3458 104.608 85.1514C103.487 83.8718 99.6502 83.8718 101.552 86.7439Z" fill="#475ABB"/>
<path fill-rule="evenodd" clip-rule="evenodd" d="M59.3999 73.739C59.126 71.2815 62.5498 70.9743 63.5084 72.8175C64.4671 75.4798 60.2216 76.0942 59.3999 73.739ZM58.4412 75.1726C63.2345 78.4494 66.6583 74.4558 64.604 72.3055C62.3443 70.0015 54.6066 70.0015 58.4412 75.1726Z" fill="#475ABB"/>
<path fill-rule="evenodd" clip-rule="evenodd" d="M192.35 15.6433C192.076 13.1858 195.5 12.8786 196.459 14.7217C197.417 17.3841 193.172 17.9985 192.35 15.6433ZM191.391 17.0769C196.185 20.3537 199.608 16.3601 197.554 14.2098C195.295 11.9058 187.557 11.9058 191.391 17.0769Z" fill="#475ABB"/>
<path fill-rule="evenodd" clip-rule="evenodd" d="M32.7967 85.5437C32.6881 84.5201 34.0463 84.3921 34.4266 85.1599C34.8069 86.2689 33.1227 86.5248 32.7967 85.5437ZM32.4164 86.1409C34.3179 87.5058 35.6762 85.8423 34.8612 84.9466C33.9648 83.9869 30.8952 83.9869 32.4164 86.1409Z" fill="#475ABB"/>
<path d="M171.37 37.3073H150.755L164.484 51.0365C165.009 51.5612 165.872 51.6038 166.412 51.0955C169.774 47.928 172.086 43.658 172.765 38.8581C172.881 38.0362 172.199 37.3073 171.37 37.3073ZM169.994 31.6777C169.279 21.2994 160.985 13.0061 150.607 12.2903C149.815 12.2355 149.147 12.9036 149.147 13.6977V33.1372H168.588C169.382 33.1372 170.049 32.47 169.994 31.6777Z" fill="white"/>
<path opacity="0.4" d="M144.977 16.6914V37.3064L158.518 50.8479C159.113 51.4431 159.068 52.4534 158.381 52.9399C155.055 55.2995 151.009 56.7104 146.63 56.7651C135.493 56.905 125.908 47.776 125.529 36.6436C125.161 25.804 133.074 16.7592 143.427 15.2962C144.248 15.1798 144.977 15.8618 144.977 16.6914Z" fill="white"/>
<path d="M77.6895 156.939L74.2942 162.245L70.2109 165.69L81.6069 178.526L79.199 166.952L83.6758 162.797L77.6895 156.939Z" fill="white"/>
<path d="M121.475 173.068C121.371 173.902 121.282 175.984 121.168 177.402C120.557 178.575 120.205 179.646 119.73 180.535C120.72 181.705 128.406 188.733 128.958 188.949C129.51 189.164 136.746 188.949 136.746 188.949C136.746 188.397 132.787 185.838 130.95 184.113C130.26 183.252 129.114 173.984 129.114 172.123L121.475 173.068Z" fill="white"/>
<path d="M95.9838 103.109C95.7215 105.02 94.6623 130.197 94.6623 134.241C93.1379 136.095 78.891 154.516 78.891 156.701C80.5738 158.602 82.8654 160.661 84.2587 161.935C85.1397 162.745 106.919 139.416 107.318 138.215C107.716 137.015 110.763 129.878 110.763 128.21C110.763 126.542 104.004 104.423 104.004 104.423L95.9838 103.109Z" fill="#0F1938"/>
<path d="M96.2462 128.429C96.1819 130.436 96.1447 131.98 96.1447 132.755C94.6203 134.608 80.3735 153.03 80.3735 155.215C81.7642 156.628 84.6621 159.251 85.7411 160.449C86.9339 160.385 108.402 137.929 108.8 136.729C109.199 135.529 112.245 128.392 112.245 126.724C112.245 125.056 105.487 102.937 105.487 102.937L97.4662 101.623C97.3078 102.779 96.855 112.47 96.5234 120.829" stroke="#0F1938" stroke-linecap="round" stroke-linejoin="round"/>
<path d="M121.157 104.455C121.546 106.606 129.229 171.584 129.229 173.643C128.331 174.801 123.144 174.967 122.243 174.415C121.343 173.863 113.285 135.81 112.614 133.582C110.1 131.907 99.7929 108.548 99.7954 105.004" fill="#0F1938"/>
<path d="M108.109 63.4258C95.2401 63.4258 95.683 100.546 96.4156 103.249C97.1481 105.951 121.499 106.31 121.551 104.209C122.058 84.436 123.417 63.4258 108.109 63.4258Z" fill="#F0F1FE"/>
<path d="M117.734 150.638C115.854 141.922 114.072 133.409 113.753 132.347C111.241 130.672 100.931 107.313 100.934 103.77" stroke="#0F1938" stroke-linecap="round" stroke-linejoin="round"/>
<path d="M125.394 128.426C127.576 146.677 130.096 168.328 130.096 169.531C128.504 169.934 123.605 170.34 122.488 170.478C122.144 170.268 120.89 164.997 119.43 158.434" stroke="#0F1938" stroke-linecap="round" stroke-linejoin="round"/>
<path d="M122.295 103.219C122.387 103.714 122.849 107.408 123.513 112.821" stroke="#0F1938" stroke-linecap="round" stroke-linejoin="round"/>
<path d="M124.942 183.594C127.238 185.705 129.644 187.838 129.95 187.952C130.502 188.16 137.738 187.952 137.738 187.952C137.738 187.4 133.779 184.841 131.943 183.116C131.655 182.757 131.289 180.951 130.953 178.83" stroke="#0F1938" stroke-linecap="round" stroke-linejoin="round"/>
<path d="M130.407 174.718C130.222 173.102 130.103 171.726 130.103 171.125L122.463 172.078C122.36 172.912 122.27 174.993 122.157 176.411C121.545 177.584 121.194 178.656 120.719 179.544C120.984 179.853 121.709 180.568 122.652 181.462" stroke="#0F1938" stroke-linecap="round" stroke-linejoin="round"/>
<path d="M105.375 104.301C112.698 104.888 122.263 104.531 122.295 103.217C122.451 97.1543 122.686 90.9725 122.495 85.3203" stroke="#0F1938" stroke-linecap="round" stroke-linejoin="round"/>
<path d="M122.062 79.0655C120.954 69.3919 117.662 62.4355 108.855 62.4355C95.9866 62.4355 96.4296 99.556 97.1621 102.258C97.2957 102.753 98.1866 103.154 99.56 103.496" stroke="#0F1938" stroke-linecap="round" stroke-linejoin="round"/>
<path d="M105.379 66.095C105.379 67.3151 111.023 67.2062 110.924 65.5778L110.407 56.998H105.379V66.095Z" fill="white"/>
<path d="M106.12 65.3529C106.12 66.5729 111.765 66.464 111.666 64.8356L111.148 56.2559H106.12V65.3529Z" stroke="#0F1938" stroke-linecap="round" stroke-linejoin="round"/>
<path d="M98.8595 51.1323C97.7654 46.0265 99.6516 41.2932 103.072 40.5602C106.493 39.8271 110.153 43.372 111.247 48.4778C112.342 53.5836 110.455 58.3169 107.035 59.0499C103.614 59.783 99.9536 56.2381 98.8595 51.1323Z" fill="white"/>
<path d="M113.408 51.0228C113.44 49.9319 113.342 48.8411 113.116 47.7735C112.725 45.7946 111.864 43.9385 110.607 42.3613" stroke="#0F1938" stroke-linecap="round" stroke-linejoin="round"/>
<path d="M107.205 58.3307C107.756 58.4289 108.322 58.4205 108.87 58.3059C110.724 57.9174 112.132 56.3509 112.859 54.1855" stroke="#0F1938" stroke-linecap="round" stroke-linejoin="round"/>
<path d="M103.932 39.6992C98.4875 39.6992 95.7653 45.4356 94.528 51.5778C93.5381 56.5272 91.0634 60.7342 91.0634 64.9412C91.0634 71.2442 95.1887 76.8197 99.4774 76.8197C106.122 76.8197 108.634 70.3335 108.634 67.4159C108.634 63.2905 107.396 60.6005 107.396 55.5373C107.396 51.5283 109.871 48.5463 109.871 42.6689C109.871 41.1741 107.485 39.6992 103.932 39.6992Z" fill="#0F1938"/>
<path d="M109.282 67.7629C109.342 67.4055 109.373 67.0439 109.376 66.6815C109.376 62.5562 108.139 59.8662 108.139 54.8029C108.139 50.7939 110.613 47.8119 110.613 41.9345C110.613 40.4497 108.233 38.9648 104.674 38.9648C101.704 38.9648 99.5241 40.6971 97.97 43.2535" stroke="#0F1938" stroke-linecap="round" stroke-linejoin="round"/>
<path d="M95.0161 73.2813C96.5009 75.0136 98.3446 76.0777 100.213 76.0777C101.439 76.1023 102.655 75.8581 103.777 75.3622C104.898 74.8662 105.897 74.1306 106.704 73.207" stroke="#0F1938" stroke-linecap="round" stroke-linejoin="round"/>
<path d="M94.9365 52.2773C93.8155 56.613 91.8036 60.4067 91.8036 64.198C91.8047 66.3277 92.2683 68.4318 93.1622 70.3649" stroke="#0F1938" stroke-linecap="round" stroke-linejoin="round"/>
<path d="M131.334 169.375L120.718 170.699" stroke="#0F1938" stroke-linecap="round" stroke-linejoin="round"/>
<path d="M131.675 170.93L121.061 172.254" stroke="#0F1938" stroke-linecap="round" stroke-linejoin="round"/>
<path d="M86.7061 161.431L78.7325 153.594" stroke="#0F1938" stroke-linecap="round" stroke-linejoin="round"/>
<path d="M85.9678 162.843L77.9943 155.008" stroke="#0F1938" stroke-linecap="round" stroke-linejoin="round"/>
<path d="M80.4883 174.881L82.8442 177.536L80.4363 165.962L84.9131 161.807L78.9268 155.949L75.5315 161.255L71.4482 164.7L77.0609 171.02" stroke="#0F1938" stroke-linecap="round" stroke-linejoin="round"/>
<path d="M123.434 62.7327C125.183 62.272 126.908 61.7211 128.601 61.0821C129.096 59.9809 135.446 36.6519 136.52 32.1504C137.203 32.2073 138.076 33.3135 137.448 35.6546C138.648 36.6271 140.605 38.5846 137.567 41.6755C137.433 42.5219 133.634 65.4326 133.266 65.9276C132.068 67.5485 127.396 69.8203 126.371 70.2286C126.047 69.3402 126.542 67.8776 123.434 62.7327Z" fill="white"/>
<path d="M110.371 73.2077C109.332 70.2381 119.013 61.9107 121.826 61.6855C123.475 62.5319 127.429 69.0849 126.528 72.3045C123.42 74.2719 112.091 78.1151 110.371 73.2077Z" fill="#F0F1FE"/>
<path d="M134.43 41.2265C135.615 36.8216 136.63 32.9635 137.001 31.3945C137.684 31.4514 138.597 32.1369 137.971 34.478" stroke="#0F1938" stroke-linecap="round" stroke-linejoin="round"/>
<path d="M123.926 61.9892C125.676 61.5285 127.401 60.9776 129.093 60.3385C129.341 59.7669 131.182 53.199 133.038 46.3887" stroke="#0F1938" stroke-linecap="round" stroke-linejoin="round"/>
<path d="M134.941 60.2071C136.154 53.706 137.725 42.9832 138.05 40.9193C139.161 39.9863 140.579 37.3037 139.262 36.1406" stroke="#0F1938" stroke-linecap="round" stroke-linejoin="round"/>
<path d="M127.35 69.4967C128.312 69.3457 132.838 66.4602 133.749 65.1957C133.931 64.8314 134.063 64.4444 134.143 64.0449" stroke="#0F1938" stroke-linecap="round" stroke-linejoin="round"/>
<path d="M115.838 74.6088C113.576 74.6088 111.73 73.9678 111.114 72.2083C110.456 70.33 114.084 66.3062 117.561 63.5469" stroke="#0F1938" stroke-linecap="round" stroke-linejoin="round"/>
<path d="M122.566 60.6855C124.214 61.5319 128.168 68.0849 127.268 71.3045C125.928 72.0867 124.51 72.7246 123.036 73.2075" stroke="#0F1938" stroke-linecap="round" stroke-linejoin="round"/>
</g>
</svg>
