<svg width="10" height="12" viewBox="0 0 10 12" fill="none" xmlns="http://www.w3.org/2000/svg">
<path d="M4.53516 6.27734C4.78125 6.52344 5.19141 6.52344 5.46484 6.27734L9.18359 2.55859C9.42969 2.28516 9.42969 1.875 9.18359 1.62891L8.55469 1C8.28125 0.753906 7.87109 0.753906 7.625 1L4.97266 3.65234L2.34766 1C2.10156 0.753906 1.69141 0.753906 1.41797 1L0.816406 1.62891C0.542969 1.875 0.542969 2.28516 0.816406 2.55859L4.53516 6.27734ZM5.46484 11.5273L9.18359 7.80859C9.42969 7.53516 9.42969 7.125 9.18359 6.87891L8.55469 6.25C8.30859 6.00391 7.87109 6.00391 7.625 6.25L5 8.90234L2.34766 6.25C2.10156 6.00391 1.69141 6.00391 1.41797 6.25L0.816406 6.87891C0.542969 7.125 0.542969 7.53516 0.816406 7.80859L4.53516 11.5273C4.78125 11.7734 5.19141 11.7734 5.46484 11.5273Z" fill="#0f1938"/>
</svg>
