<svg width="28" height="28" fill="none" xmlns="http://www.w3.org/2000/svg"><path d="M23.52 15.253c.053-.4.08-.813.08-1.253a7.71 7.71 0 00-.093-1.253l2.706-2.107a.653.653 0 00.16-.813L23.813 5.4a.65.65 0 00-.786-.293l-3.187 1.28a9.42 9.42 0 00-2.16-1.254l-.48-3.386a.645.645 0 00-.64-.547h-5.12a.632.632 0 00-.627.547l-.48 3.386c-.786.32-1.506.76-2.16 1.254l-3.186-1.28A.637.637 0 004.2 5.4L1.653 9.827c-.16.28-.106.626.16.813l2.707 2.107c-.067.4-.12.84-.12 1.253 0 .413.027.853.093 1.253L1.787 17.36a.654.654 0 00-.16.813l2.56 4.427c.16.293.493.387.786.293l3.187-1.28a9.418 9.418 0 002.16 1.254l.48 3.386c.067.32.32.547.64.547h5.12c.32 0 .587-.227.627-.547l.48-3.386a9.147 9.147 0 002.16-1.254l3.186 1.28c.294.107.627 0 .787-.293l2.56-4.427c.16-.293.093-.626-.16-.813l-2.68-2.107zM14 18.8c-2.64 0-4.8-2.16-4.8-4.8 0-2.64 2.16-4.8 4.8-4.8 2.64 0 4.8 2.16 4.8 4.8 0 2.64-2.16 4.8-4.8 4.8z" stroke="#4A5568" stroke-width="2"/></svg>
