<svg width="80" height="80" viewBox="0 0 80 80" fill="none" xmlns="http://www.w3.org/2000/svg">
<circle cx="40" cy="40" r="40" fill="url(#paint0_linear_7398:21906)"/>
<path d="M64.1935 48.0645C63.5274 53.6691 60.8274 58.8343 56.6057 62.5803C52.384 66.3263 46.9343 68.3924 41.2902 68.3869H38.7094C33.0474 68.3972 27.577 66.3367 23.3288 62.5935C19.0805 58.8503 16.3477 53.6828 15.645 48.0645C15.5913 47.6983 15.6184 47.3247 15.7244 46.97C15.8304 46.6153 16.0128 46.2881 16.2587 46.0114C16.5047 45.7347 16.8082 45.5153 17.148 45.3684C17.4878 45.2215 17.8556 45.1508 18.2257 45.1612H61.7741C62.1321 45.1691 62.4842 45.2537 62.8068 45.4091C63.1294 45.5646 63.4149 45.7874 63.6441 46.0625C63.8734 46.3376 64.041 46.6587 64.1358 47.004C64.2305 47.3493 64.2502 47.711 64.1935 48.0645Z" fill="url(#paint1_linear_7398:21906)"/>
<path d="M45.3229 26.1293L58.2261 18.3875C58.6214 18.1578 59.0839 18.0718 59.5353 18.1442C59.9867 18.2165 60.3993 18.4427 60.703 18.7844C61.0067 19.1261 61.1829 19.5623 61.2018 20.0191C61.2207 20.4759 61.0811 20.9251 60.8067 21.2908L55.3229 27.7424L60.8067 34.3552C61.0812 34.7208 61.2208 35.1701 61.2019 35.6268C61.183 36.0836 61.0067 36.5198 60.703 36.8615C60.3993 37.2032 59.9868 37.4294 59.5353 37.5017C59.0839 37.574 58.6214 37.4881 58.2261 37.2584L45.3229 29.5165C45.06 29.3193 44.8466 29.0637 44.6996 28.7697C44.5527 28.4758 44.4762 28.1516 44.4762 27.8229C44.4762 27.4943 44.5527 27.1702 44.6996 26.8762C44.8466 26.5823 45.06 26.3265 45.3229 26.1293ZM19.0326 21.2908C18.7581 20.9251 18.6185 20.4758 18.6374 20.019C18.6564 19.5623 18.8326 19.126 19.1363 18.7843C19.4401 18.4426 19.8526 18.2164 20.3041 18.1441C20.7555 18.0718 21.218 18.1578 21.6133 18.3875L34.5165 26.1293C34.8112 26.3031 35.0555 26.5507 35.2252 26.8477C35.3948 27.1447 35.4841 27.4809 35.4841 27.8229C35.4841 28.165 35.3948 28.5012 35.2252 28.7982C35.0555 29.0952 34.8112 29.3428 34.5165 29.5165L21.6133 37.2584C21.218 37.4881 20.7555 37.574 20.3041 37.5017C19.8526 37.4294 19.4401 37.2032 19.1364 36.8615C18.8327 36.5198 18.6564 36.0836 18.6375 35.6268C18.6186 35.1701 18.7581 34.7208 19.0326 34.3552L24.5166 27.7424L19.0326 21.2908Z" fill="url(#paint2_linear_7398:21906)"/>
<defs>
<linearGradient id="paint0_linear_7398:21906" x1="40" y1="-2.68512e-07" x2="40" y2="80" gradientUnits="userSpaceOnUse">
<stop stop-color="#FFE76C"/>
<stop offset="1" stop-color="#F79E33"/>
</linearGradient>
<linearGradient id="paint1_linear_7398:21906" x1="39.9217" y1="45.1602" x2="39.9217" y2="61" gradientUnits="userSpaceOnUse">
<stop stop-color="#552F10"/>
<stop offset="1" stop-color="#84370D"/>
</linearGradient>
<linearGradient id="paint2_linear_7398:21906" x1="39.9197" y1="18.1191" x2="39.9197" y2="37.5267" gradientUnits="userSpaceOnUse">
<stop stop-color="#2C2D3E"/>
<stop offset="1" stop-color="#2E3E59"/>
</linearGradient>
</defs>
</svg>
