<svg width="80" height="80" viewBox="0 0 80 80" fill="none" xmlns="http://www.w3.org/2000/svg">
<circle cx="40" cy="40" r="40" fill="url(#paint0_linear_7309:22194)"/>
<path d="M28.1396 33.502H21.8784C20.7826 33.502 20 34.3613 20 35.377V54.127C20 55.2207 20.7826 56.002 21.8784 56.002H28.1396C29.157 56.002 30.0179 55.2207 30.0179 54.127V35.377C30.0179 34.3613 29.157 33.502 28.1396 33.502ZM25.009 52.877C23.9132 52.877 23.1306 52.0957 23.1306 51.002C23.1306 49.9863 23.9132 49.127 25.009 49.127C26.0264 49.127 26.8873 49.9863 26.8873 51.002C26.8873 52.0957 26.0264 52.877 25.009 52.877ZM50.0538 22.4082C50.0538 16.627 46.297 16.002 44.4187 16.002C42.7751 16.002 42.0707 19.127 41.7577 20.5332C41.2881 22.252 40.8968 23.9707 39.7228 25.1426C37.2183 27.7207 35.8878 30.9238 32.7572 33.9707C32.6007 34.2051 32.5224 34.4395 32.5224 34.6738V51.3926C32.5224 51.8613 32.9137 52.252 33.3833 52.3301C34.6356 52.3301 36.2791 53.0332 37.5314 53.5801C40.0358 54.6738 43.0882 56.002 46.8449 56.002H47.0797C50.4451 56.002 54.4366 56.002 56.0019 53.7363C56.7063 52.7988 56.8628 51.627 56.4715 50.2207C57.802 48.8926 58.4281 46.3926 57.802 44.3613C59.1325 42.5645 59.289 39.9863 58.5064 38.1895C59.4456 37.252 60.0717 35.7676 59.9934 34.3613C59.9934 31.9395 57.9585 29.752 55.3758 29.752H47.3927C48.0189 27.5645 50.0538 25.6895 50.0538 22.4082Z" fill="#F7FAFC"/>
<defs>
<linearGradient id="paint0_linear_7309:22194" x1="27" y1="2" x2="48" y2="79" gradientUnits="userSpaceOnUse">
<stop stop-color="#32A4FB"/>
<stop offset="1" stop-color="#1457ED"/>
</linearGradient>
</defs>
</svg>
