<svg width="80" height="80" viewBox="0 0 80 80" fill="none" xmlns="http://www.w3.org/2000/svg">
<circle cx="40" cy="40" r="40" fill="url(#paint0_linear_7403:21938)"/>
<path d="M21.935 32.2589C21.9444 30.8929 22.4912 29.5856 23.4572 28.6197C24.4231 27.6538 25.7304 27.107 27.0964 27.0977C28.4536 27.1344 29.7451 27.69 30.7052 28.65C31.6653 29.6101 32.2209 30.9016 32.2576 32.2589C32.2483 33.6248 31.7015 34.9322 30.7356 35.8981C29.7697 36.8641 28.4624 37.4109 27.0964 37.4203C26.4161 37.4292 25.741 37.3017 25.1108 37.0454C24.4806 36.7892 23.9081 36.4093 23.427 35.9283C22.946 35.4472 22.5661 34.8747 22.3098 34.2445C22.0536 33.6143 21.9261 32.9391 21.935 32.2589ZM52.9028 37.4203C52.2226 37.4291 51.5474 37.3017 50.9172 37.0454C50.287 36.7892 49.7145 36.4093 49.2335 35.9282C48.7524 35.4472 48.3726 34.8747 48.1164 34.2444C47.8602 33.6142 47.7327 32.9391 47.7416 32.2589C47.751 30.8929 48.2978 29.5856 49.2637 28.6197C50.2296 27.6538 51.5369 27.107 52.9028 27.0977C54.2601 27.1344 55.5516 27.69 56.5117 28.65C57.4718 29.6101 58.0274 30.9016 58.0642 32.2589C58.0548 33.6248 57.5081 34.9323 56.5421 35.8982C55.5762 36.8641 54.2688 37.4109 52.9028 37.4203Z" fill="url(#paint1_linear_7403:21938)"/>
<path d="M40.0001 65.8073C38.6433 65.8092 37.2994 65.5436 36.0454 65.0256C34.7913 64.5077 33.6517 63.7477 32.6916 62.789C31.7315 61.8302 30.9699 60.6916 30.4502 59.4383C29.9305 58.185 29.6631 56.8415 29.6631 55.4847C29.6631 54.1279 29.9305 52.7844 30.4502 51.5311C30.9699 50.2777 31.7315 49.1392 32.6916 48.1804C33.6517 47.2217 34.7913 46.4616 36.0454 45.9437C37.2994 45.4258 38.6433 45.1602 40.0001 45.1621C42.7319 45.1811 45.3465 46.2747 47.2783 48.2065C49.21 50.1383 50.3037 52.7528 50.3226 55.4847C50.3269 56.8415 50.0627 58.1857 49.5455 59.44C49.0282 60.6943 48.268 61.8339 47.3086 62.7933C46.3492 63.7527 45.2096 64.5128 43.9553 65.0301C42.701 65.5474 41.3568 65.8115 40.0001 65.8073Z" fill="url(#paint2_linear_7403:21938)"/>
<defs>
<linearGradient id="paint0_linear_7403:21938" x1="40" y1="-2.68512e-07" x2="40" y2="80" gradientUnits="userSpaceOnUse">
<stop stop-color="#FFE76C"/>
<stop offset="1" stop-color="#F79E33"/>
</linearGradient>
<linearGradient id="paint1_linear_7403:21938" x1="39.9994" y1="27.0977" x2="39.9994" y2="37.4207" gradientUnits="userSpaceOnUse">
<stop stop-color="#181A32"/>
<stop offset="1" stop-color="#384268"/>
</linearGradient>
<linearGradient id="paint2_linear_7403:21938" x1="39.9929" y1="45.1621" x2="39.9929" y2="65.8073" gradientUnits="userSpaceOnUse">
<stop stop-color="#4A2413"/>
<stop offset="1" stop-color="#86380E"/>
</linearGradient>
</defs>
</svg>
