<svg width="256" height="256" viewBox="0 0 256 256" fill="none" xmlns="http://www.w3.org/2000/svg">
<line x1="20" y1="217.5" x2="256" y2="217.5" stroke="#CBD5E0"/>
<line x1="20" y1="195.5" x2="256" y2="195.5" stroke="#CBD5E0"/>
<line x1="20" y1="173.5" x2="256" y2="173.5" stroke="#CBD5E0"/>
<line x1="20" y1="151.5" x2="256" y2="151.5" stroke="#CBD5E0"/>
<line x1="20" y1="129.5" x2="256" y2="129.5" stroke="#CBD5E0"/>
<line x1="20" y1="107.5" x2="256" y2="107.5" stroke="#CBD5E0"/>
<line x1="20" y1="85.5" x2="256" y2="85.5" stroke="#CBD5E0"/>
<line x1="20" y1="63.5" x2="256" y2="63.5" stroke="#CBD5E0"/>
<rect x="20" y="75" width="16.8571" height="143" fill="#3749A9"/>
<rect x="39.9219" y="138" width="16.8571" height="80" fill="#3749A9"/>
<rect x="59.8438" y="146" width="16.8571" height="72" fill="#3749A9"/>
<rect x="79.7666" y="119" width="16.8571" height="99" fill="#3749A9"/>
<rect x="99.6885" y="96" width="16.8571" height="122" fill="#3749A9"/>
<rect x="119.61" y="163" width="16.8571" height="55" fill="#3749A9"/>
<rect x="139.532" y="138" width="16.8571" height="80" fill="#3749A9"/>
<rect x="159.454" y="185" width="16.8571" height="33" fill="#3749A9"/>
<rect x="179.377" y="208" width="16.8571" height="10" fill="#3749A9"/>
<rect x="199.299" y="146" width="16.8571" height="72" fill="#3749A9"/>
<rect x="219.221" y="125" width="16.8571" height="93" fill="#3749A9"/>
<rect x="239.143" y="89" width="16.8571" height="129" fill="#3749A9"/>
<g opacity="0.5">
<line x1="20" y1="217.5" x2="256" y2="217.5" stroke="#CBD5E0"/>
<line x1="20" y1="195.5" x2="256" y2="195.5" stroke="#CBD5E0"/>
<line x1="20" y1="173.5" x2="256" y2="173.5" stroke="#CBD5E0"/>
<line x1="20" y1="151.5" x2="256" y2="151.5" stroke="#CBD5E0"/>
<line x1="20" y1="129.5" x2="256" y2="129.5" stroke="#CBD5E0"/>
<line x1="20" y1="107.5" x2="256" y2="107.5" stroke="#CBD5E0"/>
<line x1="20" y1="85.5" x2="256" y2="85.5" stroke="#CBD5E0"/>
<line x1="20" y1="63.5" x2="256" y2="63.5" stroke="#CBD5E0"/>
</g>
<path d="M7.068 31.6H8.46V40.42L2.328 34.36V40H0.936V31.18L7.068 37.24V31.6ZM11.4267 37.84C11.4267 38.232 11.5107 38.536 11.6787 38.752C11.8467 38.968 12.1027 39.076 12.4467 39.076C12.8147 39.076 13.1107 38.964 13.3347 38.74C13.5667 38.508 13.6827 38.208 13.6827 37.84V34.48H14.9787V40H13.6827V39.148C13.3307 39.796 12.7747 40.12 12.0147 40.12C11.3987 40.12 10.9227 39.928 10.5867 39.544C10.2587 39.16 10.0947 38.64 10.0947 37.984V34.48H11.4267V37.84ZM24.4098 36.496V40H23.1138V36.64C23.1138 35.816 22.8098 35.404 22.2018 35.404C21.8658 35.404 21.5978 35.512 21.3978 35.728C21.1978 35.936 21.0978 36.24 21.0978 36.64V40H19.7898V36.64C19.7898 35.816 19.4858 35.404 18.8778 35.404C18.5418 35.404 18.2738 35.512 18.0738 35.728C17.8818 35.936 17.7858 36.24 17.7858 36.64V40H16.5138V34.48H17.7858V35.284C18.1138 34.668 18.6298 34.36 19.3338 34.36C20.1498 34.36 20.6818 34.688 20.9298 35.344C21.3298 34.688 21.9058 34.36 22.6578 34.36C23.2498 34.36 23.6898 34.548 23.9778 34.924C24.2658 35.292 24.4098 35.816 24.4098 36.496ZM31.7766 37.24C31.7766 37.84 31.6526 38.356 31.4046 38.788C31.1566 39.22 30.8286 39.552 30.4206 39.784C30.0126 40.008 29.5686 40.12 29.0886 40.12C28.2646 40.12 27.6366 39.776 27.2046 39.088V40H25.8966V30.64H27.2046V35.392C27.6366 34.704 28.2646 34.36 29.0886 34.36C29.5686 34.36 30.0126 34.476 30.4206 34.708C30.8286 34.932 31.1566 35.26 31.4046 35.692C31.6526 36.116 31.7766 36.632 31.7766 37.24ZM30.4326 37.24C30.4326 36.688 30.2686 36.26 29.9406 35.956C29.6126 35.644 29.2246 35.488 28.7766 35.488C28.5286 35.488 28.2846 35.556 28.0446 35.692C27.8046 35.828 27.6046 36.028 27.4446 36.292C27.2846 36.548 27.2046 36.864 27.2046 37.24C27.2046 37.616 27.2846 37.936 27.4446 38.2C27.6046 38.456 27.8046 38.652 28.0446 38.788C28.2846 38.924 28.5286 38.992 28.7766 38.992C29.2246 38.992 29.6126 38.84 29.9406 38.536C30.2686 38.224 30.4326 37.792 30.4326 37.24ZM35.2793 40.12C34.7113 40.12 34.2153 40 33.7913 39.76C33.3673 39.52 33.0393 39.184 32.8073 38.752C32.5753 38.32 32.4593 37.816 32.4593 37.24C32.4593 36.656 32.5753 36.152 32.8073 35.728C33.0473 35.296 33.3833 34.96 33.8153 34.72C34.2473 34.48 34.7553 34.36 35.3393 34.36C36.2113 34.36 36.8873 34.612 37.3673 35.116C37.8553 35.612 38.0993 36.3 38.0993 37.18C38.0993 37.252 38.0953 37.324 38.0873 37.396C38.0873 37.46 38.0873 37.508 38.0873 37.54H33.7913C33.8393 38.02 33.9953 38.392 34.2593 38.656C34.5313 38.92 34.8913 39.052 35.3393 39.052C36.0433 39.052 36.5713 38.76 36.9233 38.176L38.0513 38.62C37.4753 39.62 36.5513 40.12 35.2793 40.12ZM35.3273 35.344C34.4873 35.344 33.9873 35.776 33.8273 36.64H36.6833C36.6593 36.248 36.5233 35.936 36.2753 35.704C36.0273 35.464 35.7113 35.344 35.3273 35.344ZM42.1443 35.872C42.0243 35.776 41.9123 35.704 41.8083 35.656C41.7043 35.6 41.5723 35.572 41.4123 35.572C41.0923 35.572 40.8603 35.692 40.7163 35.932C40.5723 36.172 40.5003 36.492 40.5003 36.892V40H39.2163V34.48H40.5003V35.152C40.6603 34.904 40.8523 34.712 41.0763 34.576C41.3003 34.432 41.5283 34.36 41.7603 34.36C41.9603 34.36 42.1483 34.392 42.3243 34.456C42.5003 34.52 42.6523 34.624 42.7803 34.768L42.1443 35.872ZM46.5953 37.24C46.5953 36.672 46.7233 36.172 46.9793 35.74C47.2433 35.308 47.5993 34.972 48.0473 34.732C48.5033 34.484 49.0113 34.36 49.5713 34.36C50.1393 34.36 50.6473 34.484 51.0953 34.732C51.5433 34.972 51.8953 35.308 52.1513 35.74C52.4153 36.172 52.5473 36.672 52.5473 37.24C52.5473 37.8 52.4153 38.3 52.1513 38.74C51.8953 39.172 51.5433 39.512 51.0953 39.76C50.6473 40 50.1393 40.12 49.5713 40.12C49.0113 40.12 48.5033 40 48.0473 39.76C47.5993 39.512 47.2433 39.172 46.9793 38.74C46.7233 38.3 46.5953 37.8 46.5953 37.24ZM47.9273 37.24C47.9273 37.752 48.0833 38.172 48.3953 38.5C48.7153 38.82 49.1073 38.98 49.5713 38.98C50.0433 38.98 50.4353 38.82 50.7473 38.5C51.0593 38.172 51.2153 37.752 51.2153 37.24C51.2153 36.72 51.0593 36.3 50.7473 35.98C50.4353 35.66 50.0433 35.5 49.5713 35.5C49.1073 35.5 48.7153 35.66 48.3953 35.98C48.0833 36.3 47.9273 36.72 47.9273 37.24ZM53.2011 34.48H53.8011V32.44C53.8011 31.8 53.9531 31.316 54.2571 30.988C54.5691 30.66 55.0131 30.496 55.5891 30.496C55.9091 30.496 56.1691 30.556 56.3691 30.676C56.5771 30.788 56.7331 30.904 56.8371 31.024L56.2371 32.032C56.1571 31.904 56.0651 31.82 55.9611 31.78C55.8571 31.74 55.7531 31.72 55.6491 31.72C55.4731 31.72 55.3331 31.796 55.2291 31.948C55.1251 32.092 55.0731 32.34 55.0731 32.692V34.48H56.3691V35.62H55.0731V40H53.8011V35.62H53.2011V34.48ZM63.1178 40.12C62.5498 40.12 62.0538 40 61.6298 39.76C61.2058 39.52 60.8778 39.184 60.6458 38.752C60.4138 38.32 60.2978 37.816 60.2978 37.24C60.2978 36.656 60.4138 36.152 60.6458 35.728C60.8858 35.296 61.2218 34.96 61.6538 34.72C62.0858 34.48 62.5938 34.36 63.1778 34.36C64.0498 34.36 64.7258 34.612 65.2058 35.116C65.6938 35.612 65.9378 36.3 65.9378 37.18C65.9378 37.252 65.9338 37.324 65.9258 37.396C65.9258 37.46 65.9258 37.508 65.9258 37.54H61.6298C61.6778 38.02 61.8338 38.392 62.0978 38.656C62.3698 38.92 62.7298 39.052 63.1778 39.052C63.8818 39.052 64.4098 38.76 64.7618 38.176L65.8898 38.62C65.3138 39.62 64.3898 40.12 63.1178 40.12ZM63.1658 35.344C62.3258 35.344 61.8258 35.776 61.6658 36.64H64.5218C64.4978 36.248 64.3618 35.936 64.1138 35.704C63.8658 35.464 63.5498 35.344 63.1658 35.344ZM66.0391 34.48H67.4671L68.9071 38.044L70.3471 34.48H71.7631L68.9071 40.516L66.0391 34.48ZM74.6669 40.12C74.0989 40.12 73.6029 40 73.1789 39.76C72.7549 39.52 72.4269 39.184 72.1949 38.752C71.9629 38.32 71.8469 37.816 71.8469 37.24C71.8469 36.656 71.9629 36.152 72.1949 35.728C72.4349 35.296 72.7709 34.96 73.2029 34.72C73.6349 34.48 74.1429 34.36 74.7269 34.36C75.5989 34.36 76.2749 34.612 76.7549 35.116C77.2429 35.612 77.4869 36.3 77.4869 37.18C77.4869 37.252 77.4829 37.324 77.4749 37.396C77.4749 37.46 77.4749 37.508 77.4749 37.54H73.1789C73.2269 38.02 73.3829 38.392 73.6469 38.656C73.9189 38.92 74.2789 39.052 74.7269 39.052C75.4309 39.052 75.9589 38.76 76.3109 38.176L77.4389 38.62C76.8629 39.62 75.9389 40.12 74.6669 40.12ZM74.7149 35.344C73.8749 35.344 73.3749 35.776 73.2149 36.64H76.0709C76.0469 36.248 75.9109 35.936 75.6629 35.704C75.4149 35.464 75.0989 35.344 74.7149 35.344ZM82.1559 36.64C82.1559 35.816 81.8159 35.404 81.1359 35.404C80.7679 35.404 80.4679 35.516 80.2359 35.74C80.0119 35.964 79.8999 36.264 79.8999 36.64V40H78.6039V34.48H79.8999V35.332C80.2519 34.684 80.8079 34.36 81.5679 34.36C82.1919 34.36 82.6679 34.552 82.9959 34.936C83.3239 35.312 83.4879 35.832 83.4879 36.496V40H82.1559V36.64ZM84.255 34.48H85.179V32.56H86.463V34.48H87.387V35.62H86.463V40H85.179V35.62H84.255V34.48ZM88.4128 38.188C88.6848 38.484 88.9528 38.712 89.2168 38.872C89.4888 39.024 89.7648 39.1 90.0448 39.1C90.2768 39.1 90.4568 39.048 90.5848 38.944C90.7208 38.832 90.7888 38.688 90.7888 38.512C90.7888 38.272 90.6728 38.084 90.4408 37.948C90.2168 37.804 89.9208 37.668 89.5528 37.54C89.3048 37.444 89.0568 37.332 88.8088 37.204C88.5688 37.068 88.3688 36.896 88.2088 36.688C88.0568 36.472 87.9808 36.196 87.9808 35.86C87.9808 35.524 88.0688 35.248 88.2448 35.032C88.4208 34.808 88.6528 34.64 88.9408 34.528C89.2288 34.416 89.5408 34.36 89.8768 34.36C90.3248 34.36 90.7368 34.452 91.1128 34.636C91.4888 34.82 91.7888 35.052 92.0128 35.332L91.2928 36.1C91.1168 35.892 90.8968 35.72 90.6328 35.584C90.3768 35.44 90.1128 35.368 89.8408 35.368C89.6568 35.368 89.5048 35.408 89.3848 35.488C89.2648 35.568 89.2048 35.684 89.2048 35.836C89.2048 36.044 89.3168 36.208 89.5408 36.328C89.7728 36.448 90.0608 36.576 90.4048 36.712C90.7088 36.832 90.9888 36.964 91.2448 37.108C91.5008 37.244 91.7048 37.416 91.8568 37.624C92.0168 37.832 92.0968 38.104 92.0968 38.44C92.0968 38.96 91.9168 39.38 91.5568 39.7C91.2048 40.012 90.7288 40.168 90.1288 40.168C89.5608 40.168 89.0648 40.044 88.6408 39.796C88.2248 39.548 87.8968 39.264 87.6568 38.944L88.4128 38.188Z" fill="#0F1938"/>
<path d="M0.24 174L4.116 169.908C4.42 169.588 4.656 169.284 4.824 168.996C4.992 168.7 5.076 168.384 5.076 168.048C5.076 167.824 5.02 167.612 4.908 167.412C4.804 167.212 4.644 167.048 4.428 166.92C4.22 166.792 3.96 166.728 3.648 166.728C3.168 166.728 2.788 166.896 2.508 167.232C2.236 167.56 2.1 168.008 2.1 168.576H0.696C0.696 167.976 0.808 167.444 1.032 166.98C1.264 166.508 1.6 166.136 2.04 165.864C2.488 165.592 3.032 165.456 3.672 165.456C4.16 165.456 4.584 165.536 4.944 165.696C5.304 165.848 5.6 166.052 5.832 166.308C6.072 166.556 6.248 166.828 6.36 167.124C6.48 167.412 6.54 167.696 6.54 167.976C6.54 168.416 6.432 168.84 6.216 169.248C6.008 169.648 5.732 170.012 5.388 170.34L3.012 172.68H6.648V174H0.24ZM7.59047 169.8C7.59047 168.928 7.72647 168.168 7.99847 167.52C8.27047 166.872 8.65047 166.368 9.13847 166.008C9.63447 165.648 10.2065 165.468 10.8545 165.468C11.5105 165.468 12.0825 165.648 12.5705 166.008C13.0665 166.368 13.4505 166.872 13.7225 167.52C13.9945 168.168 14.1305 168.928 14.1305 169.8C14.1305 170.664 13.9945 171.424 13.7225 172.08C13.4505 172.728 13.0665 173.232 12.5705 173.592C12.0825 173.952 11.5105 174.132 10.8545 174.132C10.2065 174.132 9.63447 173.952 9.13847 173.592C8.65047 173.232 8.27047 172.728 7.99847 172.08C7.72647 171.424 7.59047 170.664 7.59047 169.8ZM8.98247 169.8C8.98247 170.4 9.05847 170.932 9.21047 171.396C9.36247 171.852 9.57847 172.212 9.85847 172.476C10.1385 172.732 10.4705 172.86 10.8545 172.86C11.2385 172.86 11.5705 172.732 11.8505 172.476C12.1305 172.212 12.3465 171.852 12.4985 171.396C12.6585 170.932 12.7385 170.4 12.7385 169.8C12.7385 169.192 12.6585 168.66 12.4985 168.204C12.3465 167.748 12.1305 167.392 11.8505 167.136C11.5705 166.872 11.2385 166.74 10.8545 166.74C10.4705 166.74 10.1385 166.872 9.85847 167.136C9.57847 167.392 9.36247 167.748 9.21047 168.204C9.05847 168.66 8.98247 169.192 8.98247 169.8Z" fill="#0F1938"/>
<path d="M0.48 214.8C0.48 213.928 0.616 213.168 0.888 212.52C1.16 211.872 1.54 211.368 2.028 211.008C2.524 210.648 3.096 210.468 3.744 210.468C4.4 210.468 4.972 210.648 5.46 211.008C5.956 211.368 6.34 211.872 6.612 212.52C6.884 213.168 7.02 213.928 7.02 214.8C7.02 215.664 6.884 216.424 6.612 217.08C6.34 217.728 5.956 218.232 5.46 218.592C4.972 218.952 4.4 219.132 3.744 219.132C3.096 219.132 2.524 218.952 2.028 218.592C1.54 218.232 1.16 217.728 0.888 217.08C0.616 216.424 0.48 215.664 0.48 214.8ZM1.872 214.8C1.872 215.4 1.948 215.932 2.1 216.396C2.252 216.852 2.468 217.212 2.748 217.476C3.028 217.732 3.36 217.86 3.744 217.86C4.128 217.86 4.46 217.732 4.74 217.476C5.02 217.212 5.236 216.852 5.388 216.396C5.548 215.932 5.628 215.4 5.628 214.8C5.628 214.192 5.548 213.66 5.388 213.204C5.236 212.748 5.02 212.392 4.74 212.136C4.46 211.872 4.128 211.74 3.744 211.74C3.36 211.74 3.028 211.872 2.748 212.136C2.468 212.392 2.252 212.748 2.1 213.204C1.948 213.66 1.872 214.192 1.872 214.8Z" fill="#0F1938"/>
<path d="M0.216 128.392L4.956 121.6H5.808V127.168H7.128V128.392H5.808V130H4.356V128.392H0.216ZM2.292 127.276H4.44V124.132L2.292 127.276ZM7.90688 125.8C7.90688 124.928 8.04288 124.168 8.31488 123.52C8.58688 122.872 8.96688 122.368 9.45488 122.008C9.95088 121.648 10.5229 121.468 11.1709 121.468C11.8269 121.468 12.3989 121.648 12.8869 122.008C13.3829 122.368 13.7669 122.872 14.0389 123.52C14.3109 124.168 14.4469 124.928 14.4469 125.8C14.4469 126.664 14.3109 127.424 14.0389 128.08C13.7669 128.728 13.3829 129.232 12.8869 129.592C12.3989 129.952 11.8269 130.132 11.1709 130.132C10.5229 130.132 9.95088 129.952 9.45488 129.592C8.96688 129.232 8.58688 128.728 8.31488 128.08C8.04288 127.424 7.90688 126.664 7.90688 125.8ZM9.29888 125.8C9.29888 126.4 9.37488 126.932 9.52688 127.396C9.67888 127.852 9.89488 128.212 10.1749 128.476C10.4549 128.732 10.7869 128.86 11.1709 128.86C11.5549 128.86 11.8869 128.732 12.1669 128.476C12.4469 128.212 12.6629 127.852 12.8149 127.396C12.9749 126.932 13.0549 126.4 13.0549 125.8C13.0549 125.192 12.9749 124.66 12.8149 124.204C12.6629 123.748 12.4469 123.392 12.1669 123.136C11.8869 122.872 11.5549 122.74 11.1709 122.74C10.7869 122.74 10.4549 122.872 10.1749 123.136C9.89488 123.392 9.67888 123.748 9.52688 124.204C9.37488 124.66 9.29888 125.192 9.29888 125.8Z" fill="#0F1938"/>
<path d="M3.972 77.612H5.772L3.36 80.6C3.488 80.536 3.624 80.496 3.768 80.48C3.912 80.456 4.068 80.444 4.236 80.444C4.676 80.444 5.088 80.56 5.472 80.792C5.856 81.024 6.168 81.344 6.408 81.752C6.648 82.16 6.768 82.632 6.768 83.168C6.768 83.784 6.632 84.316 6.36 84.764C6.088 85.212 5.716 85.556 5.244 85.796C4.78 86.028 4.26 86.144 3.684 86.144C3.108 86.144 2.584 86.028 2.112 85.796C1.648 85.556 1.28 85.212 1.008 84.764C0.736 84.316 0.6 83.784 0.6 83.168C0.6 82.776 0.664 82.416 0.792 82.088C0.928 81.76 1.1 81.46 1.308 81.188L3.972 77.612ZM1.98 83.168C1.98 83.68 2.14 84.1 2.46 84.428C2.788 84.748 3.196 84.908 3.684 84.908C4.172 84.908 4.576 84.748 4.896 84.428C5.216 84.1 5.376 83.68 5.376 83.168C5.376 82.648 5.216 82.224 4.896 81.896C4.576 81.568 4.172 81.404 3.684 81.404C3.364 81.404 3.072 81.48 2.808 81.632C2.552 81.784 2.348 81.992 2.196 82.256C2.052 82.52 1.98 82.824 1.98 83.168ZM7.71938 81.8C7.71938 80.928 7.85538 80.168 8.12738 79.52C8.39938 78.872 8.77938 78.368 9.26738 78.008C9.76338 77.648 10.3354 77.468 10.9834 77.468C11.6394 77.468 12.2114 77.648 12.6994 78.008C13.1954 78.368 13.5794 78.872 13.8514 79.52C14.1234 80.168 14.2594 80.928 14.2594 81.8C14.2594 82.664 14.1234 83.424 13.8514 84.08C13.5794 84.728 13.1954 85.232 12.6994 85.592C12.2114 85.952 11.6394 86.132 10.9834 86.132C10.3354 86.132 9.76338 85.952 9.26738 85.592C8.77938 85.232 8.39938 84.728 8.12738 84.08C7.85538 83.424 7.71938 82.664 7.71938 81.8ZM9.11138 81.8C9.11138 82.4 9.18738 82.932 9.33938 83.396C9.49138 83.852 9.70738 84.212 9.98738 84.476C10.2674 84.732 10.5994 84.86 10.9834 84.86C11.3674 84.86 11.6994 84.732 11.9794 84.476C12.2594 84.212 12.4754 83.852 12.6274 83.396C12.7874 82.932 12.8674 82.4 12.8674 81.8C12.8674 81.192 12.7874 80.66 12.6274 80.204C12.4754 79.748 12.2594 79.392 11.9794 79.136C11.6994 78.872 11.3674 78.74 10.9834 78.74C10.5994 78.74 10.2674 78.872 9.98738 79.136C9.70738 79.392 9.49138 79.748 9.33938 80.204C9.18738 80.66 9.11138 81.192 9.11138 81.8Z" fill="#0F1938"/>
<path d="M24.556 246.6H26.176L23.332 251.46V255H21.88V251.472L19.036 246.6H20.656L22.6 250.2L24.556 246.6ZM28.108 255.12C27.54 255.12 27.044 255 26.62 254.76C26.196 254.52 25.868 254.184 25.636 253.752C25.404 253.32 25.288 252.816 25.288 252.24C25.288 251.656 25.404 251.152 25.636 250.728C25.876 250.296 26.212 249.96 26.644 249.72C27.076 249.48 27.584 249.36 28.168 249.36C29.04 249.36 29.716 249.612 30.196 250.116C30.684 250.612 30.928 251.3 30.928 252.18C30.928 252.252 30.924 252.324 30.916 252.396C30.916 252.46 30.916 252.508 30.916 252.54H26.62C26.668 253.02 26.824 253.392 27.088 253.656C27.36 253.92 27.72 254.052 28.168 254.052C28.872 254.052 29.4 253.76 29.752 253.176L30.88 253.62C30.304 254.62 29.38 255.12 28.108 255.12ZM28.156 250.344C27.316 250.344 26.816 250.776 26.656 251.64H29.512C29.488 251.248 29.352 250.936 29.104 250.704C28.856 250.464 28.54 250.344 28.156 250.344ZM32.453 250.92L31.925 250.008C32.181 249.856 32.505 249.708 32.897 249.564C33.289 249.42 33.741 249.348 34.253 249.348C34.933 249.348 35.489 249.5 35.921 249.804C36.361 250.1 36.581 250.52 36.581 251.064V255H35.309V254.244C35.133 254.54 34.873 254.76 34.529 254.904C34.185 255.048 33.837 255.12 33.485 255.12C33.141 255.12 32.821 255.052 32.525 254.916C32.229 254.78 31.993 254.58 31.817 254.316C31.641 254.052 31.553 253.732 31.553 253.356C31.553 252.82 31.741 252.396 32.117 252.084C32.501 251.764 33.033 251.604 33.713 251.604C34.073 251.604 34.385 251.644 34.649 251.724C34.913 251.804 35.133 251.892 35.309 251.988V251.316C35.309 250.98 35.197 250.744 34.973 250.608C34.757 250.472 34.477 250.404 34.133 250.404C33.741 250.404 33.393 250.468 33.089 250.596C32.785 250.724 32.573 250.832 32.453 250.92ZM32.861 253.284C32.861 253.556 32.957 253.768 33.149 253.92C33.349 254.072 33.597 254.148 33.893 254.148C34.277 254.148 34.609 254.032 34.889 253.8C35.169 253.56 35.309 253.232 35.309 252.816V252.732C34.925 252.548 34.497 252.456 34.025 252.456C33.617 252.456 33.321 252.532 33.137 252.684C32.953 252.828 32.861 253.028 32.861 253.284ZM40.8999 250.872C40.7799 250.776 40.6679 250.704 40.5639 250.656C40.4599 250.6 40.3279 250.572 40.1679 250.572C39.8479 250.572 39.6159 250.692 39.4719 250.932C39.3279 251.172 39.2559 251.492 39.2559 251.892V255H37.9719V249.48H39.2559V250.152C39.4159 249.904 39.6079 249.712 39.8319 249.576C40.0559 249.432 40.2839 249.36 40.5159 249.36C40.7159 249.36 40.9039 249.392 41.0799 249.456C41.2559 249.52 41.4079 249.624 41.5359 249.768L40.8999 250.872Z" fill="#0F1938"/>
<path d="M25.9703 236.056C26.1783 236.328 26.4983 236.464 26.9303 236.464C27.1143 236.464 27.2943 236.388 27.4703 236.236C27.6463 236.084 27.7343 235.816 27.7343 235.432V226.6H29.1863V235.696C29.1863 236.408 28.9783 236.924 28.5623 237.244C28.1463 237.572 27.6183 237.736 26.9783 237.736C26.6023 237.736 26.2543 237.66 25.9343 237.508C25.6063 237.364 25.3663 237.228 25.2143 237.1L25.9703 236.056Z" fill="#0F1938"/>
<path d="M45.9648 226.6H50.5968V227.872H47.3568V229.972H50.4768V231.208H47.3568V235H45.9648V226.6Z" fill="#0F1938"/>
<path d="M65.5541 229.888L64.9781 235H63.5141L64.6661 226.18L68.1101 231.88L71.5661 226.18L72.7181 235H71.2541L70.6781 229.888L68.1101 234.22L65.5541 229.888Z" fill="#0F1938"/>
<path d="M90.4405 235L89.4805 232.84H86.3845L85.4245 235H83.8285L87.9325 226.132L92.0365 235H90.4405ZM87.9325 228.976L86.7925 231.64H89.0725L87.9325 228.976Z" fill="#0F1938"/>
<path d="M105.206 229.888L104.63 235H103.166L104.318 226.18L107.762 231.88L111.218 226.18L112.37 235H110.906L110.33 229.888L107.762 234.22L105.206 229.888Z" fill="#0F1938"/>
<path d="M125.101 236.056C125.309 236.328 125.629 236.464 126.061 236.464C126.245 236.464 126.425 236.388 126.601 236.236C126.777 236.084 126.865 235.816 126.865 235.432V226.6H128.317V235.696C128.317 236.408 128.109 236.924 127.693 237.244C127.277 237.572 126.749 237.736 126.109 237.736C125.733 237.736 125.385 237.66 125.065 237.508C124.737 237.364 124.497 237.228 124.345 237.1L125.101 236.056Z" fill="#0F1938"/>
<path d="M144.926 236.056C145.134 236.328 145.454 236.464 145.886 236.464C146.07 236.464 146.25 236.388 146.426 236.236C146.602 236.084 146.69 235.816 146.69 235.432V226.6H148.142V235.696C148.142 236.408 147.934 236.924 147.518 237.244C147.102 237.572 146.574 237.736 145.934 237.736C145.558 237.736 145.21 237.66 144.89 237.508C144.562 237.364 144.322 237.228 144.17 237.1L144.926 236.056Z" fill="#0F1938"/>
<path d="M169.744 235L168.784 232.84H165.688L164.728 235H163.132L167.236 226.132L171.34 235H169.744ZM167.236 228.976L166.096 231.64H168.376L167.236 228.976Z" fill="#0F1938"/>
<path d="M185.084 232.288C185.356 232.776 185.664 233.168 186.008 233.464C186.36 233.76 186.772 233.908 187.244 233.908C187.636 233.908 187.948 233.808 188.18 233.608C188.42 233.4 188.54 233.128 188.54 232.792C188.54 232.48 188.464 232.232 188.312 232.048C188.16 231.856 187.948 231.696 187.676 231.568C187.412 231.432 187.104 231.3 186.752 231.172C186.544 231.1 186.312 231.004 186.056 230.884C185.8 230.764 185.556 230.612 185.324 230.428C185.092 230.236 184.9 230 184.748 229.72C184.596 229.44 184.52 229.104 184.52 228.712C184.52 228.264 184.636 227.872 184.868 227.536C185.1 227.192 185.412 226.928 185.804 226.744C186.204 226.552 186.656 226.456 187.16 226.456C187.656 226.456 188.088 226.544 188.456 226.72C188.824 226.896 189.132 227.12 189.38 227.392C189.636 227.664 189.836 227.948 189.98 228.244L188.828 228.892C188.652 228.588 188.432 228.316 188.168 228.076C187.904 227.836 187.56 227.716 187.136 227.716C186.744 227.716 186.456 227.808 186.272 227.992C186.088 228.176 185.996 228.384 185.996 228.616C185.996 228.944 186.144 229.224 186.44 229.456C186.736 229.688 187.224 229.92 187.904 230.152C188.24 230.264 188.572 230.424 188.9 230.632C189.228 230.84 189.5 231.112 189.716 231.448C189.932 231.776 190.04 232.184 190.04 232.672C190.04 233.192 189.904 233.64 189.632 234.016C189.368 234.392 189.024 234.68 188.6 234.88C188.176 235.08 187.724 235.18 187.244 235.18C186.756 235.18 186.3 235.084 185.876 234.892C185.46 234.692 185.092 234.432 184.772 234.112C184.46 233.784 184.212 233.424 184.028 233.032L185.084 232.288Z" fill="#0F1938"/>
<path d="M202.537 230.8C202.537 230.176 202.645 229.6 202.861 229.072C203.077 228.536 203.381 228.076 203.773 227.692C204.173 227.3 204.637 226.996 205.165 226.78C205.693 226.564 206.269 226.456 206.893 226.456C207.517 226.456 208.093 226.564 208.621 226.78C209.157 226.996 209.621 227.3 210.013 227.692C210.413 228.076 210.721 228.536 210.937 229.072C211.153 229.6 211.261 230.176 211.261 230.8C211.261 231.424 211.153 232.004 210.937 232.54C210.721 233.068 210.417 233.532 210.025 233.932C209.633 234.324 209.169 234.632 208.633 234.856C208.105 235.072 207.525 235.18 206.893 235.18C206.261 235.18 205.681 235.072 205.153 234.856C204.625 234.632 204.165 234.324 203.773 233.932C203.381 233.532 203.077 233.068 202.861 232.54C202.645 232.004 202.537 231.424 202.537 230.8ZM204.037 230.8C204.037 231.376 204.157 231.892 204.397 232.348C204.645 232.796 204.985 233.148 205.417 233.404C205.849 233.66 206.341 233.788 206.893 233.788C207.453 233.788 207.945 233.66 208.369 233.404C208.801 233.148 209.137 232.796 209.377 232.348C209.625 231.892 209.749 231.376 209.749 230.8C209.749 230.224 209.629 229.712 209.389 229.264C209.149 228.808 208.813 228.452 208.381 228.196C207.957 227.94 207.461 227.812 206.893 227.812C206.341 227.812 205.849 227.94 205.417 228.196C204.985 228.452 204.645 228.808 204.397 229.264C204.157 229.712 204.037 230.224 204.037 230.8Z" fill="#0F1938"/>
<path d="M229.092 226.6H230.484V235.42L224.352 229.36V235H222.96V226.18L229.092 232.24V226.6Z" fill="#0F1938"/>
<path d="M245.984 235H243.272V226.6H245.984C246.84 226.6 247.592 226.776 248.24 227.128C248.888 227.472 249.392 227.96 249.752 228.592C250.12 229.216 250.304 229.952 250.304 230.8C250.304 231.64 250.12 232.376 249.752 233.008C249.392 233.64 248.888 234.132 248.24 234.484C247.592 234.828 246.84 235 245.984 235ZM245.948 227.932H244.724V233.668H245.948C246.5 233.668 246.996 233.56 247.436 233.344C247.876 233.128 248.22 232.808 248.468 232.384C248.724 231.96 248.852 231.432 248.852 230.8C248.852 230.168 248.724 229.64 248.468 229.216C248.22 228.792 247.876 228.472 247.436 228.256C246.996 228.04 246.5 227.932 245.948 227.932Z" fill="#0F1938"/>
<rect width="65.86" height="19" rx="2" fill="#F7FAFC"/>
<rect y="3.5" width="16.86" height="12" fill="#3749A9"/>
<path d="M22.9524 4.2H28.9164V5.656H24.5764V8.036H28.6364V9.464H24.5764V12.544H28.9164V14H22.9524V4.2ZM29.7044 7.56H31.3704L33.0504 11.718L34.7304 7.56H36.3824L33.0504 14.602L29.7044 7.56ZM39.7702 14.14C39.1075 14.14 38.5288 14 38.0342 13.72C37.5395 13.44 37.1568 13.048 36.8862 12.544C36.6155 12.04 36.4802 11.452 36.4802 10.78C36.4802 10.0987 36.6155 9.51067 36.8862 9.016C37.1662 8.512 37.5582 8.12 38.0622 7.84C38.5662 7.56 39.1588 7.42 39.8402 7.42C40.8575 7.42 41.6462 7.714 42.2062 8.302C42.7755 8.88067 43.0602 9.68333 43.0602 10.71C43.0602 10.794 43.0555 10.878 43.0462 10.962C43.0462 11.0367 43.0462 11.0927 43.0462 11.13H38.0342C38.0902 11.69 38.2722 12.124 38.5802 12.432C38.8975 12.74 39.3175 12.894 39.8402 12.894C40.6615 12.894 41.2775 12.5533 41.6882 11.872L43.0042 12.39C42.3322 13.5567 41.2542 14.14 39.7702 14.14ZM39.8262 8.568C38.8462 8.568 38.2628 9.072 38.0762 10.08H41.4082C41.3802 9.62267 41.2215 9.25867 40.9322 8.988C40.6428 8.708 40.2742 8.568 39.8262 8.568ZM48.5074 10.08C48.5074 9.11867 48.1107 8.638 47.3174 8.638C46.888 8.638 46.538 8.76867 46.2674 9.03C46.006 9.29133 45.8754 9.64133 45.8754 10.08V14H44.3634V7.56H45.8754V8.554C46.286 7.798 46.9347 7.42 47.8214 7.42C48.5494 7.42 49.1047 7.644 49.4874 8.092C49.87 8.53067 50.0614 9.13733 50.0614 9.912V14H48.5074V10.08ZM50.9563 7.56H52.0343V5.32H53.5323V7.56H54.6103V8.89H53.5323V14H52.0343V8.89H50.9563V7.56ZM55.8071 11.886C56.1244 12.2313 56.4371 12.4973 56.7451 12.684C57.0624 12.8613 57.3844 12.95 57.7111 12.95C57.9817 12.95 58.1917 12.8893 58.3411 12.768C58.4997 12.6373 58.5791 12.4693 58.5791 12.264C58.5791 11.984 58.4437 11.7647 58.1731 11.606C57.9117 11.438 57.5664 11.2793 57.1371 11.13C56.8477 11.018 56.5584 10.8873 56.2691 10.738C55.9891 10.5793 55.7557 10.3787 55.5691 10.136C55.3917 9.884 55.3031 9.562 55.3031 9.17C55.3031 8.778 55.4057 8.456 55.6111 8.204C55.8164 7.94267 56.0871 7.74667 56.4231 7.616C56.7591 7.48533 57.1231 7.42 57.5151 7.42C58.0377 7.42 58.5184 7.52733 58.9571 7.742C59.3957 7.95667 59.7457 8.22733 60.0071 8.554L59.1671 9.45C58.9617 9.20733 58.7051 9.00667 58.3971 8.848C58.0984 8.68 57.7904 8.596 57.4731 8.596C57.2584 8.596 57.0811 8.64267 56.9411 8.736C56.8011 8.82933 56.7311 8.96467 56.7311 9.142C56.7311 9.38467 56.8617 9.576 57.1231 9.716C57.3937 9.856 57.7297 10.0053 58.1311 10.164C58.4857 10.304 58.8124 10.458 59.1111 10.626C59.4097 10.7847 59.6477 10.9853 59.8251 11.228C60.0117 11.4707 60.1051 11.788 60.1051 12.18C60.1051 12.7867 59.8951 13.2767 59.4751 13.65C59.0644 14.014 58.5091 14.196 57.8091 14.196C57.1464 14.196 56.5677 14.0513 56.0731 13.762C55.5877 13.4727 55.2051 13.1413 54.9251 12.768L55.8071 11.886Z" fill="#0F1938"/>
</svg>
