<svg width="255" height="224" viewBox="0 0 255 224" fill="none" xmlns="http://www.w3.org/2000/svg">
<rect x="155" width="54" height="16" rx="2" fill="#F7FAFC" fill-opacity="0.7"/>
<path d="M160.876 7.8C160.876 5.844 162.34 4.5 163.996 4.5C165.184 4.5 166.108 5.004 166.696 5.748V4.404C165.988 3.78 165.22 3.48 163.996 3.48C161.668 3.48 159.796 5.292 159.796 7.8C159.796 10.308 161.668 12.12 163.996 12.12C165.22 12.12 165.988 11.82 166.696 11.196V9.852C166.108 10.596 165.184 11.1 163.996 11.1C162.34 11.1 160.876 9.756 160.876 7.8ZM168.599 7.752C168.851 7.56 169.427 7.2 170.255 7.2C170.939 7.2 171.503 7.416 171.503 8.172V8.976C171.179 8.772 170.663 8.568 169.931 8.568C168.575 8.568 167.771 9.276 167.771 10.344C167.771 11.472 168.659 12.12 169.679 12.12C170.351 12.12 171.143 11.844 171.503 11.256V12H172.463V8.04C172.463 6.972 171.587 6.36 170.303 6.36C169.283 6.36 168.551 6.744 168.131 7.044L168.599 7.752ZM168.743 10.296C168.743 9.696 169.151 9.324 170.087 9.324C170.603 9.324 171.059 9.42 171.503 9.636V9.84C171.503 10.716 170.807 11.292 169.931 11.292C169.223 11.292 168.743 10.932 168.743 10.296ZM173.129 6.48V7.38H174.029V12H174.989V7.38H175.889V6.48H174.989V4.56H174.029V6.48H173.129ZM178.867 12.12C180.043 12.12 180.919 11.652 181.495 10.716L180.715 10.224C180.307 10.896 179.731 11.22 178.987 11.22C177.955 11.22 177.319 10.596 177.235 9.48H181.579C181.579 9.456 181.591 9.312 181.591 9.192C181.591 7.44 180.607 6.36 178.987 6.36C177.355 6.36 176.251 7.524 176.251 9.24C176.251 10.944 177.319 12.12 178.867 12.12ZM178.987 7.2C179.875 7.2 180.475 7.776 180.547 8.664H177.271C177.439 7.728 178.039 7.2 178.987 7.2ZM182.415 12.36C182.415 13.788 183.531 14.76 185.151 14.76C186.531 14.76 187.887 13.788 187.887 11.88V6.48H186.927V7.428C186.519 6.744 185.859 6.36 185.043 6.36C183.543 6.36 182.307 7.452 182.307 9.24C182.307 11.028 183.543 12.12 185.043 12.12C185.859 12.12 186.519 11.736 186.927 11.052V11.88C186.927 13.272 185.991 13.86 185.151 13.86C184.071 13.86 183.387 13.152 183.387 12.36H182.415ZM183.279 9.24C183.279 7.968 184.143 7.26 185.163 7.26C186.003 7.26 186.927 7.968 186.927 9.24C186.927 10.512 186.003 11.22 185.163 11.22C184.143 11.22 183.279 10.512 183.279 9.24ZM189.031 9.24C189.031 10.908 190.267 12.12 191.887 12.12C193.507 12.12 194.743 10.908 194.743 9.24C194.743 7.572 193.507 6.36 191.887 6.36C190.267 6.36 189.031 7.572 189.031 9.24ZM190.003 9.24C190.003 8.088 190.807 7.26 191.887 7.26C192.967 7.26 193.771 8.088 193.771 9.24C193.771 10.392 192.967 11.22 191.887 11.22C190.807 11.22 190.003 10.392 190.003 9.24ZM198.57 7.536L199.098 6.744C198.81 6.444 198.462 6.36 198.066 6.36C197.646 6.36 197.214 6.648 196.902 7.116V6.48H195.942V12H196.902V8.64C196.902 7.848 197.106 7.26 197.826 7.26C198.138 7.26 198.306 7.344 198.57 7.536ZM204.678 6.48H203.598L202.086 10.284L200.538 6.48H199.398L201.51 11.22L199.998 14.64H201.078L204.678 6.48Z" fill="#0F1938"/>
<circle cx="77" cy="93" r="77" fill="#3749A9"/>
<circle cx="200" cy="148" r="54.5" stroke="#0F1938"/>
<circle cx="185" cy="67" r="22.5" stroke="#0F1938"/>
<circle cx="225.5" cy="78.5" r="18" stroke="#0F1938"/>
<circle cx="164" cy="93" r="8.5" stroke="#0F1938"/>
<circle cx="157.5" cy="105.5" r="3" stroke="#0F1938"/>
<circle cx="178" cy="93" r="2.5" stroke="#0F1938"/>
<circle cx="156.5" cy="81.5" r="2" stroke="#0F1938"/>
<circle cx="162" cy="80" r="1.5" stroke="#0F1938"/>
<line x1="76.5" y1="190" x2="76.5" y2="106" stroke="#0F1938"/>
<path d="M184.5 40.5L184.5 18" stroke="#0F1938"/>
<rect x="37" y="194" width="80" height="30" rx="2" fill="#F7FAFC" fill-opacity="0.7"/>
<path d="M41.12 198.56H43.28V206H44.3V198.56H46.46V197.6H41.12V198.56ZM45.6828 203.24C45.6828 204.908 46.9188 206.12 48.5388 206.12C50.1588 206.12 51.3948 204.908 51.3948 203.24C51.3948 201.572 50.1588 200.36 48.5388 200.36C46.9188 200.36 45.6828 201.572 45.6828 203.24ZM46.6548 203.24C46.6548 202.088 47.4588 201.26 48.5388 201.26C49.6188 201.26 50.4228 202.088 50.4228 203.24C50.4228 204.392 49.6188 205.22 48.5388 205.22C47.4588 205.22 46.6548 204.392 46.6548 203.24ZM51.7536 200.48V201.38H52.6536V206H53.6136V201.38H54.5136V200.48H53.6136V198.56H52.6536V200.48H51.7536ZM55.6444 201.752C55.8964 201.56 56.4724 201.2 57.3004 201.2C57.9844 201.2 58.5484 201.416 58.5484 202.172V202.976C58.2244 202.772 57.7084 202.568 56.9764 202.568C55.6204 202.568 54.8164 203.276 54.8164 204.344C54.8164 205.472 55.7044 206.12 56.7244 206.12C57.3964 206.12 58.1884 205.844 58.5484 205.256V206H59.5084V202.04C59.5084 200.972 58.6324 200.36 57.3484 200.36C56.3284 200.36 55.5964 200.744 55.1764 201.044L55.6444 201.752ZM55.7884 204.296C55.7884 203.696 56.1964 203.324 57.1324 203.324C57.6484 203.324 58.1044 203.42 58.5484 203.636V203.84C58.5484 204.716 57.8524 205.292 56.9764 205.292C56.2684 205.292 55.7884 204.932 55.7884 204.296ZM61.0138 196.64V206H61.9738V196.64H61.0138ZM66.237 200.48L68.877 206.42L71.517 200.48H70.437L68.877 204.38L67.317 200.48H66.237ZM72.5902 201.752C72.8422 201.56 73.4182 201.2 74.2462 201.2C74.9302 201.2 75.4942 201.416 75.4942 202.172V202.976C75.1702 202.772 74.6542 202.568 73.9222 202.568C72.5662 202.568 71.7622 203.276 71.7622 204.344C71.7622 205.472 72.6502 206.12 73.6702 206.12C74.3422 206.12 75.1342 205.844 75.4942 205.256V206H76.4542V202.04C76.4542 200.972 75.5782 200.36 74.2942 200.36C73.2742 200.36 72.5422 200.744 72.1222 201.044L72.5902 201.752ZM72.7342 204.296C72.7342 203.696 73.1422 203.324 74.0782 203.324C74.5942 203.324 75.0502 203.42 75.4942 203.636V203.84C75.4942 204.716 74.7982 205.292 73.9222 205.292C73.2142 205.292 72.7342 204.932 72.7342 204.296ZM77.9595 196.64V206H78.9195V196.64H77.9595ZM81.5652 203.84V200.48H80.6052V203.96C80.6052 205.28 81.3492 206.12 82.5012 206.12C83.2332 206.12 83.7732 205.796 84.1452 205.136V206H85.1052V200.48H84.1452V203.84C84.1452 204.656 83.5812 205.22 82.7412 205.22C81.9732 205.22 81.5652 204.728 81.5652 203.84ZM88.9258 206.12C90.1018 206.12 90.9778 205.652 91.5538 204.716L90.7738 204.224C90.3658 204.896 89.7898 205.22 89.0458 205.22C88.0138 205.22 87.3778 204.596 87.2938 203.48H91.6378C91.6378 203.456 91.6498 203.312 91.6498 203.192C91.6498 201.44 90.6658 200.36 89.0458 200.36C87.4138 200.36 86.3098 201.524 86.3098 203.24C86.3098 204.944 87.3778 206.12 88.9258 206.12ZM89.0458 201.2C89.9338 201.2 90.5338 201.776 90.6058 202.664H87.3298C87.4978 201.728 88.0978 201.2 89.0458 201.2ZM95.9033 200.48V201.38H96.4433V206H97.4033V201.38H98.6633V200.48H97.4033V198.56C97.4033 197.768 97.6193 197.48 97.9793 197.48C98.1713 197.48 98.3993 197.516 98.5673 197.792L99.0953 197C98.9153 196.76 98.5553 196.52 98.0393 196.52C97.0313 196.52 96.4433 197.132 96.4433 198.44V200.48H95.9033ZM99.1569 203.24C99.1569 204.908 100.393 206.12 102.013 206.12C103.633 206.12 104.869 204.908 104.869 203.24C104.869 201.572 103.633 200.36 102.013 200.36C100.393 200.36 99.1569 201.572 99.1569 203.24ZM100.129 203.24C100.129 202.088 100.933 201.26 102.013 201.26C103.093 201.26 103.897 202.088 103.897 203.24C103.897 204.392 103.093 205.22 102.013 205.22C100.933 205.22 100.129 204.392 100.129 203.24ZM108.696 201.536L109.224 200.744C108.936 200.444 108.588 200.36 108.192 200.36C107.772 200.36 107.34 200.648 107.028 201.116V200.48H106.068V206H107.028V202.64C107.028 201.848 107.232 201.26 107.952 201.26C108.264 201.26 108.432 201.344 108.696 201.536ZM41.06 214.48V215.38H41.96V220H42.92V215.38H43.82V214.48H42.92V212.56H41.96V214.48H41.06ZM48.2028 216.64V220H49.1628V216.52C49.1628 215.092 48.4068 214.36 47.2668 214.36C46.5468 214.36 45.9588 214.744 45.6228 215.356V210.64H44.6628V220H45.6228V216.64C45.6228 215.848 46.1868 215.26 47.0268 215.26C47.8068 215.26 48.2028 215.728 48.2028 216.64ZM50.8475 212.2C50.8475 212.56 51.1475 212.86 51.5075 212.86C51.8675 212.86 52.1675 212.56 52.1675 212.2C52.1675 211.84 51.8675 211.54 51.5075 211.54C51.1475 211.54 50.8475 211.84 50.8475 212.2ZM51.0275 214.48V220H51.9875V214.48H51.0275ZM54.0727 218.308L53.3167 218.776C53.6167 219.436 54.4207 220.12 55.5247 220.12C56.6527 220.12 57.4207 219.4 57.4207 218.44C57.4207 217.456 56.6407 217.084 55.6807 216.688C55.0927 216.448 54.5287 216.196 54.5287 215.752C54.5287 215.38 54.8647 215.212 55.2607 215.212C55.8367 215.212 56.3047 215.524 56.6047 215.932L57.3727 215.44C57.0367 214.828 56.2567 214.36 55.3807 214.36C54.4807 214.36 53.5927 214.828 53.5927 215.812C53.5927 216.784 54.4447 217.192 55.1767 217.468C55.8127 217.708 56.4487 217.972 56.4487 218.548C56.4487 218.98 56.1127 219.244 55.5727 219.244C54.8887 219.244 54.4087 218.824 54.0727 218.308ZM62.4742 217.24C62.4742 216.088 63.2782 215.26 64.3582 215.26C65.2462 215.26 66.0262 215.728 66.2782 216.268V215.068C65.8942 214.624 65.1142 214.36 64.3582 214.36C62.7382 214.36 61.5022 215.572 61.5022 217.24C61.5022 218.908 62.7382 220.12 64.3582 220.12C65.1142 220.12 65.8942 219.868 66.2782 219.412V218.212C66.0262 218.752 65.2462 219.22 64.3582 219.22C63.2782 219.22 62.4742 218.392 62.4742 217.24ZM67.9407 215.752C68.1927 215.56 68.7687 215.2 69.5967 215.2C70.2807 215.2 70.8447 215.416 70.8447 216.172V216.976C70.5207 216.772 70.0047 216.568 69.2727 216.568C67.9167 216.568 67.1127 217.276 67.1127 218.344C67.1127 219.472 68.0007 220.12 69.0207 220.12C69.6927 220.12 70.4847 219.844 70.8447 219.256V220H71.8047V216.04C71.8047 214.972 70.9287 214.36 69.6447 214.36C68.6247 214.36 67.8927 214.744 67.4727 215.044L67.9407 215.752ZM68.0847 218.296C68.0847 217.696 68.4927 217.324 69.4287 217.324C69.9447 217.324 70.4007 217.42 70.8447 217.636V217.84C70.8447 218.716 70.1487 219.292 69.2727 219.292C68.5647 219.292 68.0847 218.932 68.0847 218.296ZM72.47 214.48V215.38H73.37V220H74.33V215.38H75.23V214.48H74.33V212.56H73.37V214.48H72.47ZM78.2088 220.12C79.3848 220.12 80.2608 219.652 80.8368 218.716L80.0568 218.224C79.6488 218.896 79.0728 219.22 78.3288 219.22C77.2968 219.22 76.6608 218.596 76.5768 217.48H80.9208C80.9208 217.456 80.9328 217.312 80.9328 217.192C80.9328 215.44 79.9488 214.36 78.3288 214.36C76.6968 214.36 75.5928 215.524 75.5928 217.24C75.5928 218.944 76.6608 220.12 78.2088 220.12ZM78.3288 215.2C79.2168 215.2 79.8168 215.776 79.8888 216.664H76.6128C76.7808 215.728 77.3808 215.2 78.3288 215.2ZM81.7566 220.36C81.7566 221.788 82.8726 222.76 84.4926 222.76C85.8726 222.76 87.2286 221.788 87.2286 219.88V214.48H86.2686V215.428C85.8606 214.744 85.2006 214.36 84.3846 214.36C82.8846 214.36 81.6486 215.452 81.6486 217.24C81.6486 219.028 82.8846 220.12 84.3846 220.12C85.2006 220.12 85.8606 219.736 86.2686 219.052V219.88C86.2686 221.272 85.3326 221.86 84.4926 221.86C83.4126 221.86 82.7286 221.152 82.7286 220.36H81.7566ZM82.6206 217.24C82.6206 215.968 83.4846 215.26 84.5046 215.26C85.3446 215.26 86.2686 215.968 86.2686 217.24C86.2686 218.512 85.3446 219.22 84.5046 219.22C83.4846 219.22 82.6206 218.512 82.6206 217.24ZM88.3723 217.24C88.3723 218.908 89.6083 220.12 91.2283 220.12C92.8483 220.12 94.0843 218.908 94.0843 217.24C94.0843 215.572 92.8483 214.36 91.2283 214.36C89.6083 214.36 88.3723 215.572 88.3723 217.24ZM89.3443 217.24C89.3443 216.088 90.1483 215.26 91.2283 215.26C92.3083 215.26 93.1123 216.088 93.1123 217.24C93.1123 218.392 92.3083 219.22 91.2283 219.22C90.1483 219.22 89.3443 218.392 89.3443 217.24ZM97.9111 215.536L98.4391 214.744C98.1511 214.444 97.8031 214.36 97.4071 214.36C96.9871 214.36 96.5551 214.648 96.2431 215.116V214.48H95.2831V220H96.2431V216.64C96.2431 215.848 96.4471 215.26 97.1671 215.26C97.4791 215.26 97.6471 215.344 97.9111 215.536ZM104.02 214.48H102.94L101.428 218.284L99.8797 214.48H98.7397L100.852 219.22L99.3397 222.64H100.42L104.02 214.48Z" fill="#0F1938"/>
<path d="M66.9566 92.932H71.1206L67.6766 100H69.1886L73.2206 91.6H66.9566V92.932ZM73.3845 100H79.7925V98.68H76.1565L78.5325 96.34C79.2165 95.692 79.6845 94.852 79.6845 93.976C79.6845 92.86 78.7605 91.456 76.8165 91.456C74.8965 91.456 73.8405 92.788 73.8405 94.576H75.2445C75.2445 93.448 75.8325 92.728 76.7925 92.728C77.7165 92.728 78.2205 93.388 78.2205 94.048C78.2205 94.72 77.8605 95.272 77.2605 95.908L73.3845 100ZM86.927 97.264C86.927 95.572 85.799 94.468 84.407 94.468C83.939 94.468 83.495 94.564 83.075 94.768L83.603 92.848H86.855V91.6H82.535L81.395 96.22C82.247 95.692 82.883 95.56 83.627 95.56C84.599 95.56 85.415 96.16 85.415 97.18C85.415 98.2 84.755 98.812 83.627 98.812C82.823 98.812 81.995 98.284 81.503 97.624L80.675 98.644C81.323 99.46 82.271 100.132 83.819 100.132C85.439 100.132 86.927 99.196 86.927 97.264Z" fill="#F7FAFC"/>
</svg>
