<svg width="266" height="370" viewBox="0 0 266 370" fill="none" xmlns="http://www.w3.org/2000/svg">
<path d="M8.092 63.2V73H9.744V69.29H10.766L13.23 73H15.232L12.46 69.108C13.818 68.702 14.644 67.666 14.644 66.252C14.644 64.418 13.258 63.2 11.116 63.2H8.092ZM11.046 64.642C12.18 64.642 12.936 65.23 12.936 66.28C12.936 67.33 12.18 67.918 11.046 67.918H9.744V64.642H11.046ZM18.9385 73.14C20.4225 73.14 21.5005 72.552 22.1725 71.39L20.8565 70.872C20.4365 71.572 19.8205 71.894 19.0085 71.894C17.9585 71.894 17.3145 71.25 17.2025 70.13H22.2145C22.2145 70.06 22.2285 69.878 22.2285 69.71C22.2285 67.652 21.0385 66.42 19.0085 66.42C16.9645 66.42 15.6485 67.75 15.6485 69.78C15.6485 71.796 16.9505 73.14 18.9385 73.14ZM18.9945 67.568C19.8905 67.568 20.5065 68.156 20.5765 69.08H17.2445C17.4265 68.1 18.0425 67.568 18.9945 67.568ZM25.0017 76.08V71.922C25.4637 72.72 26.2337 73.168 27.1997 73.168C28.8797 73.168 30.3357 71.936 30.3357 69.78C30.3357 67.624 28.8797 66.392 27.1997 66.392C26.2337 66.392 25.4637 66.84 25.0017 67.638V66.56H23.4757V76.08H25.0017ZM28.7677 69.78C28.7677 71.068 27.8857 71.796 26.8357 71.796C25.9677 71.796 25.0017 71.096 25.0017 69.78C25.0017 68.464 25.9677 67.764 26.8357 67.764C27.8857 67.764 28.7677 68.492 28.7677 69.78ZM35.0382 68.184L35.7802 66.896C35.4862 66.56 35.0522 66.42 34.5902 66.42C34.0442 66.42 33.4982 66.77 33.1202 67.344V66.56H31.6222V73H33.1202V69.374C33.1202 68.45 33.4282 67.834 34.1842 67.834C34.5482 67.834 34.7582 67.96 35.0382 68.184ZM39.2587 73.14C40.7427 73.14 41.8207 72.552 42.4927 71.39L41.1767 70.872C40.7567 71.572 40.1407 71.894 39.3287 71.894C38.2787 71.894 37.6347 71.25 37.5227 70.13H42.5347C42.5347 70.06 42.5487 69.878 42.5487 69.71C42.5487 67.652 41.3587 66.42 39.3287 66.42C37.2847 66.42 35.9687 67.75 35.9687 69.78C35.9687 71.796 37.2707 73.14 39.2587 73.14ZM39.3147 67.568C40.2107 67.568 40.8267 68.156 40.8967 69.08H37.5647C37.7467 68.1 38.3627 67.568 39.3147 67.568ZM44.1459 70.886L43.2639 71.768C43.8239 72.51 44.8179 73.196 46.1479 73.196C47.5479 73.196 48.4439 72.398 48.4439 71.18C48.4439 70.018 47.5339 69.598 46.4699 69.164C45.6719 68.856 45.0699 68.632 45.0699 68.142C45.0699 67.792 45.3779 67.596 45.8119 67.596C46.4419 67.596 47.0859 67.96 47.5059 68.45L48.3459 67.554C47.8139 66.91 46.9039 66.42 45.8539 66.42C44.6639 66.42 43.6419 67.008 43.6419 68.17C43.6419 69.346 44.5939 69.808 45.4759 70.13C46.3299 70.438 46.9179 70.704 46.9179 71.264C46.9179 71.684 46.5959 71.95 46.0499 71.95C45.3919 71.95 44.7759 71.572 44.1459 70.886ZM52.4455 73.14C53.9295 73.14 55.0075 72.552 55.6795 71.39L54.3635 70.872C53.9435 71.572 53.3275 71.894 52.5155 71.894C51.4655 71.894 50.8215 71.25 50.7095 70.13H55.7215C55.7215 70.06 55.7355 69.878 55.7355 69.71C55.7355 67.652 54.5455 66.42 52.5155 66.42C50.4715 66.42 49.1555 67.75 49.1555 69.78C49.1555 71.796 50.4575 73.14 52.4455 73.14ZM52.5015 67.568C53.3975 67.568 54.0135 68.156 54.0835 69.08H50.7515C50.9335 68.1 51.5495 67.568 52.5015 67.568ZM61.1827 69.08V73H62.7367V68.912C62.7367 67.358 61.9527 66.42 60.4967 66.42C59.6147 66.42 58.9567 66.798 58.5507 67.554V66.56H57.0387V73H58.5507V69.08C58.5507 68.212 59.1387 67.638 59.9927 67.638C60.8047 67.638 61.1827 68.142 61.1827 69.08ZM63.6316 66.56V67.89H64.7096V73H66.2076V67.89H67.2856V66.56H66.2076V64.32H64.7096V66.56H63.6316ZM68.6644 68.24C68.9444 68.044 69.7004 67.638 70.6244 67.638C71.4224 67.638 71.9964 67.918 71.9964 68.702V69.486C71.5904 69.262 70.9744 69.038 70.1344 69.038C68.5384 69.038 67.6144 69.836 67.6144 71.082C67.6144 72.398 68.6504 73.14 69.8684 73.14C70.6944 73.14 71.5904 72.804 71.9964 72.118V73H73.4804V68.408C73.4804 67.134 72.3464 66.406 70.7644 66.406C69.5604 66.406 68.6364 66.826 68.0484 67.176L68.6644 68.24ZM69.1404 70.998C69.1404 70.396 69.5464 70.032 70.4984 70.032C71.0444 70.032 71.5344 70.13 71.9964 70.354V70.452C71.9964 71.432 71.2404 72.006 70.3444 72.006C69.6444 72.006 69.1404 71.642 69.1404 70.998ZM74.2071 66.56V67.89H75.2851V73H76.7831V67.89H77.8611V66.56H76.7831V64.32H75.2851V66.56H74.2071ZM78.7079 63.998C78.7079 64.516 79.1279 64.922 79.6599 64.922C80.1919 64.922 80.6119 64.516 80.6119 63.998C80.6119 63.48 80.1919 63.074 79.6599 63.074C79.1279 63.074 78.7079 63.48 78.7079 63.998ZM78.9179 66.56V73H80.4019V66.56H78.9179ZM81.8526 69.78C81.8526 71.754 83.3506 73.14 85.3246 73.14C87.2986 73.14 88.7966 71.754 88.7966 69.78C88.7966 67.806 87.2986 66.42 85.3246 66.42C83.3506 66.42 81.8526 67.806 81.8526 69.78ZM83.4066 69.78C83.4066 68.576 84.2326 67.75 85.3246 67.75C86.4166 67.75 87.2426 68.576 87.2426 69.78C87.2426 70.984 86.4166 71.81 85.3246 71.81C84.2326 71.81 83.4066 70.984 83.4066 69.78ZM94.2353 69.08V73H95.7893V68.912C95.7893 67.358 95.0053 66.42 93.5493 66.42C92.6673 66.42 92.0093 66.798 91.6033 67.554V66.56H90.0913V73H91.6033V69.08C91.6033 68.212 92.1913 67.638 93.0453 67.638C93.8573 67.638 94.2353 68.142 94.2353 69.08ZM101.147 69.78C101.147 71.754 102.645 73.14 104.619 73.14C106.593 73.14 108.091 71.754 108.091 69.78C108.091 67.806 106.593 66.42 104.619 66.42C102.645 66.42 101.147 67.806 101.147 69.78ZM102.701 69.78C102.701 68.576 103.527 67.75 104.619 67.75C105.711 67.75 106.537 68.576 106.537 69.78C106.537 70.984 105.711 71.81 104.619 71.81C103.527 71.81 102.701 70.984 102.701 69.78ZM108.854 66.56V67.89H109.554V73H111.038V67.89H112.55V66.56H111.038V64.474C111.038 63.662 111.29 63.34 111.71 63.34C111.948 63.34 112.2 63.41 112.396 63.704L113.096 62.528C112.858 62.248 112.382 61.912 111.64 61.912C110.296 61.912 109.554 62.682 109.554 64.18V66.56H108.854ZM116.728 66.56V67.89H117.806V73H119.304V67.89H120.382V66.56H119.304V64.32H117.806V66.56H116.728ZM125.429 69.08V73H126.955V68.87C126.955 67.232 126.185 66.378 124.743 66.378C123.847 66.378 123.175 66.826 122.797 67.526V62.08H121.285V73H122.797V69.08C122.797 68.226 123.385 67.638 124.239 67.638C125.065 67.638 125.429 68.142 125.429 69.08ZM131.532 73.14C133.016 73.14 134.094 72.552 134.766 71.39L133.45 70.872C133.03 71.572 132.414 71.894 131.602 71.894C130.552 71.894 129.908 71.25 129.796 70.13H134.808C134.808 70.06 134.822 69.878 134.822 69.71C134.822 67.652 133.632 66.42 131.602 66.42C129.558 66.42 128.242 67.75 128.242 69.78C128.242 71.796 129.544 73.14 131.532 73.14ZM131.588 67.568C132.484 67.568 133.1 68.156 133.17 69.08H129.838C130.02 68.1 130.636 67.568 131.588 67.568ZM144.327 69.08V73H145.881V68.912C145.881 67.358 145.097 66.42 143.641 66.42C142.759 66.42 142.101 66.798 141.695 67.554V66.56H140.183V73H141.695V69.08C141.695 68.212 142.283 67.638 143.137 67.638C143.949 67.638 144.327 68.142 144.327 69.08ZM149.226 70.48V66.56H147.672V70.648C147.672 72.188 148.47 73.14 149.912 73.14C150.808 73.14 151.452 72.748 151.858 72.006V73H153.37V66.56H151.858V70.48C151.858 71.348 151.27 71.922 150.416 71.922C149.604 71.922 149.226 71.39 149.226 70.48ZM164.373 68.912C164.373 67.33 163.715 66.42 162.329 66.42C161.461 66.42 160.761 66.826 160.313 67.568C160.033 66.826 159.389 66.42 158.451 66.42C157.625 66.42 157.023 66.784 156.645 67.498V66.56H155.161V73H156.645V69.08C156.645 68.156 157.135 67.638 157.919 67.638C158.647 67.638 158.983 68.114 158.983 69.08V73H160.509V69.08C160.509 68.156 161.013 67.638 161.797 67.638C162.525 67.638 162.861 68.114 162.861 69.08V73H164.373V68.912ZM172.967 69.78C172.967 67.666 171.511 66.42 169.831 66.42C168.893 66.42 168.123 66.854 167.633 67.624V62.08H166.107V73H167.633V71.936C168.123 72.706 168.893 73.14 169.831 73.14C171.511 73.14 172.967 71.894 172.967 69.78ZM171.399 69.78C171.399 71.068 170.517 71.824 169.467 71.824C168.599 71.824 167.633 71.096 167.633 69.78C167.633 68.464 168.599 67.736 169.467 67.736C170.517 67.736 171.399 68.492 171.399 69.78ZM177.054 73.14C178.538 73.14 179.616 72.552 180.288 71.39L178.972 70.872C178.552 71.572 177.936 71.894 177.124 71.894C176.074 71.894 175.43 71.25 175.318 70.13H180.33C180.33 70.06 180.344 69.878 180.344 69.71C180.344 67.652 179.154 66.42 177.124 66.42C175.08 66.42 173.764 67.75 173.764 69.78C173.764 71.796 175.066 73.14 177.054 73.14ZM177.11 67.568C178.006 67.568 178.622 68.156 178.692 69.08H175.36C175.542 68.1 176.158 67.568 177.11 67.568ZM185.063 68.184L185.805 66.896C185.511 66.56 185.077 66.42 184.615 66.42C184.069 66.42 183.523 66.77 183.145 67.344V66.56H181.647V73H183.145V69.374C183.145 68.45 183.453 67.834 184.209 67.834C184.573 67.834 184.783 67.96 185.063 68.184ZM190.256 69.78C190.256 71.754 191.754 73.14 193.728 73.14C195.702 73.14 197.2 71.754 197.2 69.78C197.2 67.806 195.702 66.42 193.728 66.42C191.754 66.42 190.256 67.806 190.256 69.78ZM191.81 69.78C191.81 68.576 192.636 67.75 193.728 67.75C194.82 67.75 195.646 68.576 195.646 69.78C195.646 70.984 194.82 71.81 193.728 71.81C192.636 71.81 191.81 70.984 191.81 69.78ZM197.963 66.56V67.89H198.663V73H200.147V67.89H201.659V66.56H200.147V64.474C200.147 63.662 200.399 63.34 200.819 63.34C201.057 63.34 201.309 63.41 201.505 63.704L202.205 62.528C201.967 62.248 201.491 61.912 200.749 61.912C199.405 61.912 198.663 62.682 198.663 64.18V66.56H197.963ZM17.178 85.912C17.178 84.33 16.52 83.42 15.134 83.42C14.266 83.42 13.566 83.826 13.118 84.568C12.838 83.826 12.194 83.42 11.256 83.42C10.43 83.42 9.828 83.784 9.45 84.498V83.56H7.966V90H9.45V86.08C9.45 85.156 9.94 84.638 10.724 84.638C11.452 84.638 11.788 85.114 11.788 86.08V90H13.314V86.08C13.314 85.156 13.818 84.638 14.602 84.638C15.33 84.638 15.666 85.114 15.666 86.08V90H17.178V85.912ZM21.7686 90.14C23.2526 90.14 24.3306 89.552 25.0026 88.39L23.6866 87.872C23.2666 88.572 22.6506 88.894 21.8386 88.894C20.7886 88.894 20.1446 88.25 20.0326 87.13H25.0446C25.0446 87.06 25.0586 86.878 25.0586 86.71C25.0586 84.652 23.8686 83.42 21.8386 83.42C19.7946 83.42 18.4786 84.75 18.4786 86.78C18.4786 88.796 19.7806 90.14 21.7686 90.14ZM21.8246 84.568C22.7206 84.568 23.3366 85.156 23.4066 86.08H20.0746C20.2566 85.1 20.8726 84.568 21.8246 84.568ZM26.6558 87.886L25.7738 88.768C26.3338 89.51 27.3278 90.196 28.6578 90.196C30.0578 90.196 30.9538 89.398 30.9538 88.18C30.9538 87.018 30.0438 86.598 28.9798 86.164C28.1818 85.856 27.5798 85.632 27.5798 85.142C27.5798 84.792 27.8878 84.596 28.3218 84.596C28.9518 84.596 29.5958 84.96 30.0158 85.45L30.8558 84.554C30.3238 83.91 29.4138 83.42 28.3638 83.42C27.1738 83.42 26.1518 84.008 26.1518 85.17C26.1518 86.346 27.1038 86.808 27.9858 87.13C28.8398 87.438 29.4278 87.704 29.4278 88.264C29.4278 88.684 29.1058 88.95 28.5598 88.95C27.9018 88.95 27.2858 88.572 26.6558 87.886ZM32.4494 87.886L31.5674 88.768C32.1274 89.51 33.1214 90.196 34.4514 90.196C35.8514 90.196 36.7474 89.398 36.7474 88.18C36.7474 87.018 35.8374 86.598 34.7734 86.164C33.9754 85.856 33.3734 85.632 33.3734 85.142C33.3734 84.792 33.6814 84.596 34.1154 84.596C34.7454 84.596 35.3894 84.96 35.8094 85.45L36.6494 84.554C36.1174 83.91 35.2074 83.42 34.1574 83.42C32.9674 83.42 31.9454 84.008 31.9454 85.17C31.9454 86.346 32.8974 86.808 33.7794 87.13C34.6334 87.438 35.2214 87.704 35.2214 88.264C35.2214 88.684 34.8994 88.95 34.3534 88.95C33.6954 88.95 33.0794 88.572 32.4494 87.886ZM38.425 85.24C38.705 85.044 39.461 84.638 40.385 84.638C41.183 84.638 41.757 84.918 41.757 85.702V86.486C41.351 86.262 40.735 86.038 39.895 86.038C38.299 86.038 37.375 86.836 37.375 88.082C37.375 89.398 38.411 90.14 39.629 90.14C40.455 90.14 41.351 89.804 41.757 89.118V90H43.241V85.408C43.241 84.134 42.107 83.406 40.525 83.406C39.321 83.406 38.397 83.826 37.809 84.176L38.425 85.24ZM38.901 87.998C38.901 87.396 39.307 87.032 40.259 87.032C40.805 87.032 41.295 87.13 41.757 87.354V87.452C41.757 88.432 41.001 89.006 40.105 89.006C39.405 89.006 38.901 88.642 38.901 87.998ZM44.4997 90.434C44.5557 92.114 45.7597 93.276 47.8597 93.276C49.6097 93.276 51.1917 92.198 51.1917 89.86V83.56H49.7077V84.61C49.2177 83.84 48.4477 83.42 47.5097 83.42C45.8297 83.42 44.3737 84.638 44.3737 86.752C44.3737 88.866 45.8297 90.07 47.5097 90.07C48.4477 90.07 49.2177 89.65 49.7077 88.894V89.86C49.7077 91.316 48.7697 91.96 47.8177 91.96C46.7257 91.96 46.0397 91.302 46.0117 90.434H44.4997ZM45.9417 86.752C45.9417 85.464 46.8237 84.736 47.8737 84.736C48.7417 84.736 49.7077 85.436 49.7077 86.752C49.7077 88.068 48.7417 88.754 47.8737 88.754C46.8237 88.754 45.9417 88.04 45.9417 86.752ZM55.7268 90.14C57.2108 90.14 58.2888 89.552 58.9608 88.39L57.6448 87.872C57.2248 88.572 56.6088 88.894 55.7968 88.894C54.7468 88.894 54.1028 88.25 53.9908 87.13H59.0028C59.0028 87.06 59.0168 86.878 59.0168 86.71C59.0168 84.652 57.8268 83.42 55.7968 83.42C53.7528 83.42 52.4368 84.75 52.4368 86.78C52.4368 88.796 53.7388 90.14 55.7268 90.14ZM55.7828 84.568C56.6788 84.568 57.2948 85.156 57.3648 86.08H54.0328C54.2148 85.1 54.8308 84.568 55.7828 84.568ZM60.614 87.886L59.732 88.768C60.292 89.51 61.286 90.196 62.616 90.196C64.016 90.196 64.912 89.398 64.912 88.18C64.912 87.018 64.002 86.598 62.938 86.164C62.14 85.856 61.538 85.632 61.538 85.142C61.538 84.792 61.846 84.596 62.28 84.596C62.91 84.596 63.554 84.96 63.974 85.45L64.814 84.554C64.282 83.91 63.372 83.42 62.322 83.42C61.132 83.42 60.11 84.008 60.11 85.17C60.11 86.346 61.062 86.808 61.944 87.13C62.798 87.438 63.386 87.704 63.386 88.264C63.386 88.684 63.064 88.95 62.518 88.95C61.86 88.95 61.244 88.572 60.614 87.886ZM72.9708 90.14C74.4548 90.14 75.5328 89.552 76.2048 88.39L74.8888 87.872C74.4688 88.572 73.8528 88.894 73.0408 88.894C71.9908 88.894 71.3468 88.25 71.2348 87.13H76.2468C76.2468 87.06 76.2608 86.878 76.2608 86.71C76.2608 84.652 75.0708 83.42 73.0408 83.42C70.9968 83.42 69.6808 84.75 69.6808 86.78C69.6808 88.796 70.9828 90.14 72.9708 90.14ZM73.0268 84.568C73.9228 84.568 74.5388 85.156 74.6088 86.08H71.2768C71.4588 85.1 72.0748 84.568 73.0268 84.568ZM81.069 83.56L79.669 85.576L78.269 83.56H76.533L78.857 86.682L76.393 90H78.129L79.669 87.788L81.209 90H82.903L80.453 86.682L82.763 83.56H81.069ZM84.516 86.78C84.516 85.59 85.384 84.722 86.518 84.722C87.414 84.722 88.296 85.184 88.618 85.814V84.134C88.17 83.7 87.358 83.42 86.448 83.42C84.446 83.42 82.962 84.806 82.962 86.78C82.962 88.754 84.446 90.14 86.448 90.14C87.358 90.14 88.17 89.874 88.618 89.412V87.746C88.296 88.376 87.442 88.838 86.518 88.838C85.384 88.838 84.516 87.998 84.516 86.78ZM94.2933 86.08V90H95.8193V85.87C95.8193 84.232 95.0493 83.378 93.6073 83.378C92.7113 83.378 92.0393 83.826 91.6613 84.526V79.08H90.1493V90H91.6613V86.08C91.6613 85.226 92.2493 84.638 93.1033 84.638C93.9293 84.638 94.2933 85.142 94.2933 86.08ZM98.0732 85.24C98.3532 85.044 99.1092 84.638 100.033 84.638C100.831 84.638 101.405 84.918 101.405 85.702V86.486C100.999 86.262 100.383 86.038 99.5432 86.038C97.9472 86.038 97.0232 86.836 97.0232 88.082C97.0232 89.398 98.0592 90.14 99.2772 90.14C100.103 90.14 100.999 89.804 101.405 89.118V90H102.889V85.408C102.889 84.134 101.755 83.406 100.173 83.406C98.9692 83.406 98.0452 83.826 97.4572 84.176L98.0732 85.24ZM98.5492 87.998C98.5492 87.396 98.9552 87.032 99.9072 87.032C100.453 87.032 100.943 87.13 101.405 87.354V87.452C101.405 88.432 100.649 89.006 99.7532 89.006C99.0532 89.006 98.5492 88.642 98.5492 87.998ZM108.656 86.08V90H110.21V85.912C110.21 84.358 109.426 83.42 107.97 83.42C107.088 83.42 106.43 83.798 106.024 84.554V83.56H104.512V90H106.024V86.08C106.024 85.212 106.612 84.638 107.466 84.638C108.278 84.638 108.656 85.142 108.656 86.08ZM111.637 90.434C111.693 92.114 112.897 93.276 114.997 93.276C116.747 93.276 118.329 92.198 118.329 89.86V83.56H116.845V84.61C116.355 83.84 115.585 83.42 114.647 83.42C112.967 83.42 111.511 84.638 111.511 86.752C111.511 88.866 112.967 90.07 114.647 90.07C115.585 90.07 116.355 89.65 116.845 88.894V89.86C116.845 91.316 115.907 91.96 114.955 91.96C113.863 91.96 113.177 91.302 113.149 90.434H111.637ZM113.079 86.752C113.079 85.464 113.961 84.736 115.011 84.736C115.879 84.736 116.845 85.436 116.845 86.752C116.845 88.068 115.879 88.754 115.011 88.754C113.961 88.754 113.079 88.04 113.079 86.752ZM122.864 90.14C124.348 90.14 125.426 89.552 126.098 88.39L124.782 87.872C124.362 88.572 123.746 88.894 122.934 88.894C121.884 88.894 121.24 88.25 121.128 87.13H126.14C126.14 87.06 126.154 86.878 126.154 86.71C126.154 84.652 124.964 83.42 122.934 83.42C120.89 83.42 119.574 84.75 119.574 86.78C119.574 88.796 120.876 90.14 122.864 90.14ZM122.92 84.568C123.816 84.568 124.432 85.156 124.502 86.08H121.17C121.352 85.1 121.968 84.568 122.92 84.568ZM126.967 86.78C126.967 88.894 128.423 90.14 130.103 90.14C131.041 90.14 131.811 89.706 132.301 88.936V90H133.827V79.08H132.301V84.624C131.811 83.854 131.041 83.42 130.103 83.42C128.423 83.42 126.967 84.666 126.967 86.78ZM128.535 86.78C128.535 85.492 129.417 84.736 130.467 84.736C131.335 84.736 132.301 85.464 132.301 86.78C132.301 88.096 131.335 88.824 130.467 88.824C129.417 88.824 128.535 88.068 128.535 86.78Z" fill="#0F1938"/>
<path d="M7 205H181V221H7V205Z" fill="#3749A9"/>
<path d="M7 252H47V268H7V252Z" fill="#3749A9"/>
<path d="M7 299H14V315H7V299Z" fill="#3749A9"/>
<path d="M7 158H237V174H7V158Z" fill="#3749A9"/>
<path d="M212.553 162.932H216.717L213.273 170H214.785L218.817 161.6H212.553V162.932ZM218.981 170H225.389V168.68H221.753L224.129 166.34C224.813 165.692 225.281 164.852 225.281 163.976C225.281 162.86 224.357 161.456 222.413 161.456C220.493 161.456 219.437 162.788 219.437 164.576H220.841C220.841 163.448 221.429 162.728 222.389 162.728C223.313 162.728 223.817 163.388 223.817 164.048C223.817 164.72 223.457 165.272 222.857 165.908L218.981 170ZM232.524 167.264C232.524 165.572 231.396 164.468 230.004 164.468C229.536 164.468 229.092 164.564 228.672 164.768L229.2 162.848H232.452V161.6H228.132L226.992 166.22C227.844 165.692 228.48 165.56 229.224 165.56C230.196 165.56 231.012 166.16 231.012 167.18C231.012 168.2 230.352 168.812 229.224 168.812C228.42 168.812 227.592 168.284 227.1 167.624L226.272 168.644C226.92 169.46 227.868 170.132 229.416 170.132C231.036 170.132 232.524 169.196 232.524 167.264Z" fill="#F7FAFC"/>
<path d="M162.127 214.264C162.127 212.572 160.999 211.468 159.607 211.468C159.139 211.468 158.695 211.564 158.275 211.768L158.803 209.848H162.055V208.6H157.735L156.595 213.22C157.447 212.692 158.083 212.56 158.827 212.56C159.799 212.56 160.615 213.16 160.615 214.18C160.615 215.2 159.955 215.812 158.827 215.812C158.023 215.812 157.195 215.284 156.703 214.624L155.875 215.644C156.523 216.46 157.471 217.132 159.019 217.132C160.639 217.132 162.127 216.196 162.127 214.264ZM169.155 214.264C169.155 212.572 168.027 211.468 166.635 211.468C166.167 211.468 165.723 211.564 165.303 211.768L165.831 209.848H169.083V208.6H164.763L163.623 213.22C164.475 212.692 165.111 212.56 165.855 212.56C166.827 212.56 167.643 213.16 167.643 214.18C167.643 215.2 166.983 215.812 165.855 215.812C165.051 215.812 164.223 215.284 163.731 214.624L162.903 215.644C163.551 216.46 164.499 217.132 166.047 217.132C167.667 217.132 169.155 216.196 169.155 214.264ZM169.992 212.8C169.992 215.404 171.312 217.132 173.256 217.132C175.224 217.132 176.532 215.404 176.532 212.8C176.532 210.196 175.224 208.468 173.256 208.468C171.312 208.468 169.992 210.196 169.992 212.8ZM171.384 212.8C171.384 210.988 172.104 209.74 173.256 209.74C174.408 209.74 175.14 210.988 175.14 212.8C175.14 214.612 174.408 215.86 173.256 215.86C172.104 215.86 171.384 214.612 171.384 212.8Z" fill="#F7FAFC"/>
<path d="M23.8783 257.568L25.8223 257.028V264H27.2263V255.468L23.8783 256.224V257.568ZM28.7702 264H35.1782V262.68H31.5422L33.9182 260.34C34.6022 259.692 35.0702 258.852 35.0702 257.976C35.0702 256.86 34.1462 255.456 32.2022 255.456C30.2822 255.456 29.2262 256.788 29.2262 258.576H30.6302C30.6302 257.448 31.2182 256.728 32.1782 256.728C33.1022 256.728 33.6062 257.388 33.6062 258.048C33.6062 258.72 33.2462 259.272 32.6462 259.908L28.7702 264ZM39.6126 255.612L36.9486 259.188C36.5286 259.728 36.2406 260.388 36.2406 261.168C36.2406 263.028 37.5966 264.144 39.3246 264.144C41.0526 264.144 42.4086 263.028 42.4086 261.168C42.4086 259.56 41.1966 258.444 39.8766 258.444C39.5286 258.444 39.2526 258.48 39.0006 258.6L41.4126 255.612H39.6126ZM37.6206 261.168C37.6206 260.136 38.3526 259.404 39.3246 259.404C40.2966 259.404 41.0166 260.136 41.0166 261.168C41.0166 262.2 40.2966 262.908 39.3246 262.908C38.3526 262.908 37.6206 262.2 37.6206 261.168Z" fill="#F7FAFC"/>
<path d="M19.24 311H25.648V309.68H22.012L24.388 307.34C25.072 306.692 25.54 305.852 25.54 304.976C25.54 303.86 24.616 302.456 22.672 302.456C20.752 302.456 19.696 303.788 19.696 305.576H21.1C21.1 304.448 21.688 303.728 22.648 303.728C23.572 303.728 24.076 304.388 24.076 305.048C24.076 305.72 23.716 306.272 23.116 306.908L19.24 311ZM26.3505 311H32.7585V309.68H29.1225L31.4985 307.34C32.1825 306.692 32.6505 305.852 32.6505 304.976C32.6505 303.86 31.7265 302.456 29.7825 302.456C27.8625 302.456 26.8065 303.788 26.8065 305.576H28.2105C28.2105 304.448 28.7985 303.728 29.7585 303.728C30.6825 303.728 31.1865 304.388 31.1865 305.048C31.1865 305.72 30.8265 306.272 30.2265 306.908L26.3505 311Z" fill="#3749A9"/>
<path d="M15.246 141.2V147.78L8.092 140.71V151H9.716V144.42L16.87 151.49V141.2H15.246ZM19.2532 146.24C19.5332 146.044 20.2892 145.638 21.2132 145.638C22.0112 145.638 22.5852 145.918 22.5852 146.702V147.486C22.1792 147.262 21.5632 147.038 20.7232 147.038C19.1272 147.038 18.2032 147.836 18.2032 149.082C18.2032 150.398 19.2392 151.14 20.4572 151.14C21.2832 151.14 22.1792 150.804 22.5852 150.118V151H24.0692V146.408C24.0692 145.134 22.9352 144.406 21.3532 144.406C20.1492 144.406 19.2252 144.826 18.6372 145.176L19.2532 146.24ZM19.7292 148.998C19.7292 148.396 20.1352 148.032 21.0872 148.032C21.6332 148.032 22.1232 148.13 22.5852 148.354V148.452C22.5852 149.432 21.8292 150.006 20.9332 150.006C20.2332 150.006 19.7292 149.642 19.7292 148.998ZM34.9039 146.912C34.9039 145.33 34.2459 144.42 32.8599 144.42C31.9919 144.42 31.2919 144.826 30.8439 145.568C30.5639 144.826 29.9199 144.42 28.9819 144.42C28.1559 144.42 27.5539 144.784 27.1759 145.498V144.56H25.6919V151H27.1759V147.08C27.1759 146.156 27.6659 145.638 28.4499 145.638C29.1779 145.638 29.5139 146.114 29.5139 147.08V151H31.0399V147.08C31.0399 146.156 31.5439 145.638 32.3279 145.638C33.0559 145.638 33.3919 146.114 33.3919 147.08V151H34.9039V146.912ZM39.4944 151.14C40.9784 151.14 42.0564 150.552 42.7284 149.39L41.4124 148.872C40.9924 149.572 40.3764 149.894 39.5644 149.894C38.5144 149.894 37.8704 149.25 37.7584 148.13H42.7704C42.7704 148.06 42.7844 147.878 42.7844 147.71C42.7844 145.652 41.5944 144.42 39.5644 144.42C37.5204 144.42 36.2044 145.75 36.2044 147.78C36.2044 149.796 37.5064 151.14 39.4944 151.14ZM39.5504 145.568C40.4464 145.568 41.0624 146.156 41.1324 147.08H37.8004C37.9824 146.1 38.5984 145.568 39.5504 145.568ZM47.6549 147.78C47.6549 149.754 49.1529 151.14 51.1269 151.14C53.1009 151.14 54.5989 149.754 54.5989 147.78C54.5989 145.806 53.1009 144.42 51.1269 144.42C49.1529 144.42 47.6549 145.806 47.6549 147.78ZM49.2089 147.78C49.2089 146.576 50.0349 145.75 51.1269 145.75C52.2189 145.75 53.0449 146.576 53.0449 147.78C53.0449 148.984 52.2189 149.81 51.1269 149.81C50.0349 149.81 49.2089 148.984 49.2089 147.78ZM55.3616 144.56V145.89H56.0616V151H57.5456V145.89H59.0576V144.56H57.5456V142.474C57.5456 141.662 57.7976 141.34 58.2176 141.34C58.4556 141.34 58.7076 141.41 58.9036 141.704L59.6036 140.528C59.3656 140.248 58.8896 139.912 58.1476 139.912C56.8036 139.912 56.0616 140.682 56.0616 142.18V144.56H55.3616ZM63.7672 151.434C63.8232 153.114 65.0272 154.276 67.1272 154.276C68.8772 154.276 70.4592 153.198 70.4592 150.86V144.56H68.9752V145.61C68.4852 144.84 67.7152 144.42 66.7772 144.42C65.0972 144.42 63.6412 145.638 63.6412 147.752C63.6412 149.866 65.0972 151.07 66.7772 151.07C67.7152 151.07 68.4852 150.65 68.9752 149.894V150.86C68.9752 152.316 68.0372 152.96 67.0852 152.96C65.9932 152.96 65.3072 152.302 65.2792 151.434H63.7672ZM65.2092 147.752C65.2092 146.464 66.0912 145.736 67.1412 145.736C68.0092 145.736 68.9752 146.436 68.9752 147.752C68.9752 149.068 68.0092 149.754 67.1412 149.754C66.0912 149.754 65.2092 149.04 65.2092 147.752ZM75.6103 146.184L76.3523 144.896C76.0583 144.56 75.6243 144.42 75.1623 144.42C74.6163 144.42 74.0703 144.77 73.6923 145.344V144.56H72.1943V151H73.6923V147.374C73.6923 146.45 74.0003 145.834 74.7563 145.834C75.1203 145.834 75.3303 145.96 75.6103 146.184ZM76.5408 147.78C76.5408 149.754 78.0388 151.14 80.0128 151.14C81.9868 151.14 83.4848 149.754 83.4848 147.78C83.4848 145.806 81.9868 144.42 80.0128 144.42C78.0388 144.42 76.5408 145.806 76.5408 147.78ZM78.0948 147.78C78.0948 146.576 78.9208 145.75 80.0128 145.75C81.1048 145.75 81.9308 146.576 81.9308 147.78C81.9308 148.984 81.1048 149.81 80.0128 149.81C78.9208 149.81 78.0948 148.984 78.0948 147.78ZM86.3335 148.48V144.56H84.7795V148.648C84.7795 150.188 85.5775 151.14 87.0195 151.14C87.9155 151.14 88.5595 150.748 88.9655 150.006V151H90.4775V144.56H88.9655V148.48C88.9655 149.348 88.3775 149.922 87.5235 149.922C86.7115 149.922 86.3335 149.39 86.3335 148.48ZM93.7384 154.08V149.922C94.2004 150.72 94.9704 151.168 95.9364 151.168C97.6164 151.168 99.0724 149.936 99.0724 147.78C99.0724 145.624 97.6164 144.392 95.9364 144.392C94.9704 144.392 94.2004 144.84 93.7384 145.638V144.56H92.2124V154.08H93.7384ZM97.5044 147.78C97.5044 149.068 96.6224 149.796 95.5724 149.796C94.7044 149.796 93.7384 149.096 93.7384 147.78C93.7384 146.464 94.7044 145.764 95.5724 145.764C96.6224 145.764 97.5044 146.492 97.5044 147.78ZM103.926 147.78C103.926 149.754 105.424 151.14 107.398 151.14C109.372 151.14 110.87 149.754 110.87 147.78C110.87 145.806 109.372 144.42 107.398 144.42C105.424 144.42 103.926 145.806 103.926 147.78ZM105.48 147.78C105.48 146.576 106.306 145.75 107.398 145.75C108.49 145.75 109.316 146.576 109.316 147.78C109.316 148.984 108.49 149.81 107.398 149.81C106.306 149.81 105.48 148.984 105.48 147.78ZM115.581 146.184L116.323 144.896C116.029 144.56 115.595 144.42 115.133 144.42C114.587 144.42 114.041 144.77 113.663 145.344V144.56H112.165V151H113.663V147.374C113.663 146.45 113.971 145.834 114.727 145.834C115.091 145.834 115.301 145.96 115.581 146.184ZM122.734 154.08V149.922C123.196 150.72 123.966 151.168 124.932 151.168C126.612 151.168 128.068 149.936 128.068 147.78C128.068 145.624 126.612 144.392 124.932 144.392C123.966 144.392 123.196 144.84 122.734 145.638V144.56H121.208V154.08H122.734ZM126.5 147.78C126.5 149.068 125.618 149.796 124.568 149.796C123.7 149.796 122.734 149.096 122.734 147.78C122.734 146.464 123.7 145.764 124.568 145.764C125.618 145.764 126.5 146.492 126.5 147.78ZM132.154 151.14C133.638 151.14 134.716 150.552 135.388 149.39L134.072 148.872C133.652 149.572 133.036 149.894 132.224 149.894C131.174 149.894 130.53 149.25 130.418 148.13H135.43C135.43 148.06 135.444 147.878 135.444 147.71C135.444 145.652 134.254 144.42 132.224 144.42C130.18 144.42 128.864 145.75 128.864 147.78C128.864 149.796 130.166 151.14 132.154 151.14ZM132.21 145.568C133.106 145.568 133.722 146.156 133.792 147.08H130.46C130.642 146.1 131.258 145.568 132.21 145.568ZM140.163 146.184L140.905 144.896C140.611 144.56 140.177 144.42 139.715 144.42C139.169 144.42 138.623 144.77 138.245 145.344V144.56H136.747V151H138.245V147.374C138.245 146.45 138.553 145.834 139.309 145.834C139.673 145.834 139.883 145.96 140.163 146.184ZM142.083 148.886L141.201 149.768C141.761 150.51 142.755 151.196 144.085 151.196C145.485 151.196 146.381 150.398 146.381 149.18C146.381 148.018 145.471 147.598 144.407 147.164C143.609 146.856 143.007 146.632 143.007 146.142C143.007 145.792 143.315 145.596 143.749 145.596C144.379 145.596 145.023 145.96 145.443 146.45L146.283 145.554C145.751 144.91 144.841 144.42 143.791 144.42C142.601 144.42 141.579 145.008 141.579 146.17C141.579 147.346 142.531 147.808 143.413 148.13C144.267 148.438 144.855 148.704 144.855 149.264C144.855 149.684 144.533 149.95 143.987 149.95C143.329 149.95 142.713 149.572 142.083 148.886ZM147.093 147.78C147.093 149.754 148.591 151.14 150.565 151.14C152.539 151.14 154.037 149.754 154.037 147.78C154.037 145.806 152.539 144.42 150.565 144.42C148.591 144.42 147.093 145.806 147.093 147.78ZM148.647 147.78C148.647 146.576 149.473 145.75 150.565 145.75C151.657 145.75 152.483 146.576 152.483 147.78C152.483 148.984 151.657 149.81 150.565 149.81C149.473 149.81 148.647 148.984 148.647 147.78ZM159.475 147.08V151H161.029V146.912C161.029 145.358 160.245 144.42 158.789 144.42C157.907 144.42 157.249 144.798 156.843 145.554V144.56H155.331V151H156.843V147.08C156.843 146.212 157.431 145.638 158.285 145.638C159.097 145.638 159.475 146.142 159.475 147.08Z" fill="#0F1938"/>
<path d="M15.246 188.2V194.78L8.092 187.71V198H9.716V191.42L16.87 198.49V188.2H15.246ZM19.2532 193.24C19.5332 193.044 20.2892 192.638 21.2132 192.638C22.0112 192.638 22.5852 192.918 22.5852 193.702V194.486C22.1792 194.262 21.5632 194.038 20.7232 194.038C19.1272 194.038 18.2032 194.836 18.2032 196.082C18.2032 197.398 19.2392 198.14 20.4572 198.14C21.2832 198.14 22.1792 197.804 22.5852 197.118V198H24.0692V193.408C24.0692 192.134 22.9352 191.406 21.3532 191.406C20.1492 191.406 19.2252 191.826 18.6372 192.176L19.2532 193.24ZM19.7292 195.998C19.7292 195.396 20.1352 195.032 21.0872 195.032C21.6332 195.032 22.1232 195.13 22.5852 195.354V195.452C22.5852 196.432 21.8292 197.006 20.9332 197.006C20.2332 197.006 19.7292 196.642 19.7292 195.998ZM34.9039 193.912C34.9039 192.33 34.2459 191.42 32.8599 191.42C31.9919 191.42 31.2919 191.826 30.8439 192.568C30.5639 191.826 29.9199 191.42 28.9819 191.42C28.1559 191.42 27.5539 191.784 27.1759 192.498V191.56H25.6919V198H27.1759V194.08C27.1759 193.156 27.6659 192.638 28.4499 192.638C29.1779 192.638 29.5139 193.114 29.5139 194.08V198H31.0399V194.08C31.0399 193.156 31.5439 192.638 32.3279 192.638C33.0559 192.638 33.3919 193.114 33.3919 194.08V198H34.9039V193.912ZM39.4944 198.14C40.9784 198.14 42.0564 197.552 42.7284 196.39L41.4124 195.872C40.9924 196.572 40.3764 196.894 39.5644 196.894C38.5144 196.894 37.8704 196.25 37.7584 195.13H42.7704C42.7704 195.06 42.7844 194.878 42.7844 194.71C42.7844 192.652 41.5944 191.42 39.5644 191.42C37.5204 191.42 36.2044 192.75 36.2044 194.78C36.2044 196.796 37.5064 198.14 39.4944 198.14ZM39.5504 192.568C40.4464 192.568 41.0624 193.156 41.1324 194.08H37.8004C37.9824 193.1 38.5984 192.568 39.5504 192.568ZM47.6549 194.78C47.6549 196.754 49.1529 198.14 51.1269 198.14C53.1009 198.14 54.5989 196.754 54.5989 194.78C54.5989 192.806 53.1009 191.42 51.1269 191.42C49.1529 191.42 47.6549 192.806 47.6549 194.78ZM49.2089 194.78C49.2089 193.576 50.0349 192.75 51.1269 192.75C52.2189 192.75 53.0449 193.576 53.0449 194.78C53.0449 195.984 52.2189 196.81 51.1269 196.81C50.0349 196.81 49.2089 195.984 49.2089 194.78ZM55.3616 191.56V192.89H56.0616V198H57.5456V192.89H59.0576V191.56H57.5456V189.474C57.5456 188.662 57.7976 188.34 58.2176 188.34C58.4556 188.34 58.7076 188.41 58.9036 188.704L59.6036 187.528C59.3656 187.248 58.8896 186.912 58.1476 186.912C56.8036 186.912 56.0616 187.682 56.0616 189.18V191.56H55.3616ZM63.7672 198.434C63.8232 200.114 65.0272 201.276 67.1272 201.276C68.8772 201.276 70.4592 200.198 70.4592 197.86V191.56H68.9752V192.61C68.4852 191.84 67.7152 191.42 66.7772 191.42C65.0972 191.42 63.6412 192.638 63.6412 194.752C63.6412 196.866 65.0972 198.07 66.7772 198.07C67.7152 198.07 68.4852 197.65 68.9752 196.894V197.86C68.9752 199.316 68.0372 199.96 67.0852 199.96C65.9932 199.96 65.3072 199.302 65.2792 198.434H63.7672ZM65.2092 194.752C65.2092 193.464 66.0912 192.736 67.1412 192.736C68.0092 192.736 68.9752 193.436 68.9752 194.752C68.9752 196.068 68.0092 196.754 67.1412 196.754C66.0912 196.754 65.2092 196.04 65.2092 194.752ZM75.6103 193.184L76.3523 191.896C76.0583 191.56 75.6243 191.42 75.1623 191.42C74.6163 191.42 74.0703 191.77 73.6923 192.344V191.56H72.1943V198H73.6923V194.374C73.6923 193.45 74.0003 192.834 74.7563 192.834C75.1203 192.834 75.3303 192.96 75.6103 193.184ZM76.5408 194.78C76.5408 196.754 78.0388 198.14 80.0128 198.14C81.9868 198.14 83.4848 196.754 83.4848 194.78C83.4848 192.806 81.9868 191.42 80.0128 191.42C78.0388 191.42 76.5408 192.806 76.5408 194.78ZM78.0948 194.78C78.0948 193.576 78.9208 192.75 80.0128 192.75C81.1048 192.75 81.9308 193.576 81.9308 194.78C81.9308 195.984 81.1048 196.81 80.0128 196.81C78.9208 196.81 78.0948 195.984 78.0948 194.78ZM86.3335 195.48V191.56H84.7795V195.648C84.7795 197.188 85.5775 198.14 87.0195 198.14C87.9155 198.14 88.5595 197.748 88.9655 197.006V198H90.4775V191.56H88.9655V195.48C88.9655 196.348 88.3775 196.922 87.5235 196.922C86.7115 196.922 86.3335 196.39 86.3335 195.48ZM93.7384 201.08V196.922C94.2004 197.72 94.9704 198.168 95.9364 198.168C97.6164 198.168 99.0724 196.936 99.0724 194.78C99.0724 192.624 97.6164 191.392 95.9364 191.392C94.9704 191.392 94.2004 191.84 93.7384 192.638V191.56H92.2124V201.08H93.7384ZM97.5044 194.78C97.5044 196.068 96.6224 196.796 95.5724 196.796C94.7044 196.796 93.7384 196.096 93.7384 194.78C93.7384 193.464 94.7044 192.764 95.5724 192.764C96.6224 192.764 97.5044 193.492 97.5044 194.78ZM103.926 194.78C103.926 196.754 105.424 198.14 107.398 198.14C109.372 198.14 110.87 196.754 110.87 194.78C110.87 192.806 109.372 191.42 107.398 191.42C105.424 191.42 103.926 192.806 103.926 194.78ZM105.48 194.78C105.48 193.576 106.306 192.75 107.398 192.75C108.49 192.75 109.316 193.576 109.316 194.78C109.316 195.984 108.49 196.81 107.398 196.81C106.306 196.81 105.48 195.984 105.48 194.78ZM115.581 193.184L116.323 191.896C116.029 191.56 115.595 191.42 115.133 191.42C114.587 191.42 114.041 191.77 113.663 192.344V191.56H112.165V198H113.663V194.374C113.663 193.45 113.971 192.834 114.727 192.834C115.091 192.834 115.301 192.96 115.581 193.184ZM122.734 201.08V196.922C123.196 197.72 123.966 198.168 124.932 198.168C126.612 198.168 128.068 196.936 128.068 194.78C128.068 192.624 126.612 191.392 124.932 191.392C123.966 191.392 123.196 191.84 122.734 192.638V191.56H121.208V201.08H122.734ZM126.5 194.78C126.5 196.068 125.618 196.796 124.568 196.796C123.7 196.796 122.734 196.096 122.734 194.78C122.734 193.464 123.7 192.764 124.568 192.764C125.618 192.764 126.5 193.492 126.5 194.78ZM132.154 198.14C133.638 198.14 134.716 197.552 135.388 196.39L134.072 195.872C133.652 196.572 133.036 196.894 132.224 196.894C131.174 196.894 130.53 196.25 130.418 195.13H135.43C135.43 195.06 135.444 194.878 135.444 194.71C135.444 192.652 134.254 191.42 132.224 191.42C130.18 191.42 128.864 192.75 128.864 194.78C128.864 196.796 130.166 198.14 132.154 198.14ZM132.21 192.568C133.106 192.568 133.722 193.156 133.792 194.08H130.46C130.642 193.1 131.258 192.568 132.21 192.568ZM140.163 193.184L140.905 191.896C140.611 191.56 140.177 191.42 139.715 191.42C139.169 191.42 138.623 191.77 138.245 192.344V191.56H136.747V198H138.245V194.374C138.245 193.45 138.553 192.834 139.309 192.834C139.673 192.834 139.883 192.96 140.163 193.184ZM142.083 195.886L141.201 196.768C141.761 197.51 142.755 198.196 144.085 198.196C145.485 198.196 146.381 197.398 146.381 196.18C146.381 195.018 145.471 194.598 144.407 194.164C143.609 193.856 143.007 193.632 143.007 193.142C143.007 192.792 143.315 192.596 143.749 192.596C144.379 192.596 145.023 192.96 145.443 193.45L146.283 192.554C145.751 191.91 144.841 191.42 143.791 191.42C142.601 191.42 141.579 192.008 141.579 193.17C141.579 194.346 142.531 194.808 143.413 195.13C144.267 195.438 144.855 195.704 144.855 196.264C144.855 196.684 144.533 196.95 143.987 196.95C143.329 196.95 142.713 196.572 142.083 195.886ZM147.093 194.78C147.093 196.754 148.591 198.14 150.565 198.14C152.539 198.14 154.037 196.754 154.037 194.78C154.037 192.806 152.539 191.42 150.565 191.42C148.591 191.42 147.093 192.806 147.093 194.78ZM148.647 194.78C148.647 193.576 149.473 192.75 150.565 192.75C151.657 192.75 152.483 193.576 152.483 194.78C152.483 195.984 151.657 196.81 150.565 196.81C149.473 196.81 148.647 195.984 148.647 194.78ZM159.475 194.08V198H161.029V193.912C161.029 192.358 160.245 191.42 158.789 191.42C157.907 191.42 157.249 191.798 156.843 192.554V191.56H155.331V198H156.843V194.08C156.843 193.212 157.431 192.638 158.285 192.638C159.097 192.638 159.475 193.142 159.475 194.08Z" fill="#0F1938"/>
<path d="M15.246 235.2V241.78L8.092 234.71V245H9.716V238.42L16.87 245.49V235.2H15.246ZM19.2532 240.24C19.5332 240.044 20.2892 239.638 21.2132 239.638C22.0112 239.638 22.5852 239.918 22.5852 240.702V241.486C22.1792 241.262 21.5632 241.038 20.7232 241.038C19.1272 241.038 18.2032 241.836 18.2032 243.082C18.2032 244.398 19.2392 245.14 20.4572 245.14C21.2832 245.14 22.1792 244.804 22.5852 244.118V245H24.0692V240.408C24.0692 239.134 22.9352 238.406 21.3532 238.406C20.1492 238.406 19.2252 238.826 18.6372 239.176L19.2532 240.24ZM19.7292 242.998C19.7292 242.396 20.1352 242.032 21.0872 242.032C21.6332 242.032 22.1232 242.13 22.5852 242.354V242.452C22.5852 243.432 21.8292 244.006 20.9332 244.006C20.2332 244.006 19.7292 243.642 19.7292 242.998ZM34.9039 240.912C34.9039 239.33 34.2459 238.42 32.8599 238.42C31.9919 238.42 31.2919 238.826 30.8439 239.568C30.5639 238.826 29.9199 238.42 28.9819 238.42C28.1559 238.42 27.5539 238.784 27.1759 239.498V238.56H25.6919V245H27.1759V241.08C27.1759 240.156 27.6659 239.638 28.4499 239.638C29.1779 239.638 29.5139 240.114 29.5139 241.08V245H31.0399V241.08C31.0399 240.156 31.5439 239.638 32.3279 239.638C33.0559 239.638 33.3919 240.114 33.3919 241.08V245H34.9039V240.912ZM39.4944 245.14C40.9784 245.14 42.0564 244.552 42.7284 243.39L41.4124 242.872C40.9924 243.572 40.3764 243.894 39.5644 243.894C38.5144 243.894 37.8704 243.25 37.7584 242.13H42.7704C42.7704 242.06 42.7844 241.878 42.7844 241.71C42.7844 239.652 41.5944 238.42 39.5644 238.42C37.5204 238.42 36.2044 239.75 36.2044 241.78C36.2044 243.796 37.5064 245.14 39.4944 245.14ZM39.5504 239.568C40.4464 239.568 41.0624 240.156 41.1324 241.08H37.8004C37.9824 240.1 38.5984 239.568 39.5504 239.568ZM47.6549 241.78C47.6549 243.754 49.1529 245.14 51.1269 245.14C53.1009 245.14 54.5989 243.754 54.5989 241.78C54.5989 239.806 53.1009 238.42 51.1269 238.42C49.1529 238.42 47.6549 239.806 47.6549 241.78ZM49.2089 241.78C49.2089 240.576 50.0349 239.75 51.1269 239.75C52.2189 239.75 53.0449 240.576 53.0449 241.78C53.0449 242.984 52.2189 243.81 51.1269 243.81C50.0349 243.81 49.2089 242.984 49.2089 241.78ZM55.3616 238.56V239.89H56.0616V245H57.5456V239.89H59.0576V238.56H57.5456V236.474C57.5456 235.662 57.7976 235.34 58.2176 235.34C58.4556 235.34 58.7076 235.41 58.9036 235.704L59.6036 234.528C59.3656 234.248 58.8896 233.912 58.1476 233.912C56.8036 233.912 56.0616 234.682 56.0616 236.18V238.56H55.3616ZM63.7672 245.434C63.8232 247.114 65.0272 248.276 67.1272 248.276C68.8772 248.276 70.4592 247.198 70.4592 244.86V238.56H68.9752V239.61C68.4852 238.84 67.7152 238.42 66.7772 238.42C65.0972 238.42 63.6412 239.638 63.6412 241.752C63.6412 243.866 65.0972 245.07 66.7772 245.07C67.7152 245.07 68.4852 244.65 68.9752 243.894V244.86C68.9752 246.316 68.0372 246.96 67.0852 246.96C65.9932 246.96 65.3072 246.302 65.2792 245.434H63.7672ZM65.2092 241.752C65.2092 240.464 66.0912 239.736 67.1412 239.736C68.0092 239.736 68.9752 240.436 68.9752 241.752C68.9752 243.068 68.0092 243.754 67.1412 243.754C66.0912 243.754 65.2092 243.04 65.2092 241.752ZM75.6103 240.184L76.3523 238.896C76.0583 238.56 75.6243 238.42 75.1623 238.42C74.6163 238.42 74.0703 238.77 73.6923 239.344V238.56H72.1943V245H73.6923V241.374C73.6923 240.45 74.0003 239.834 74.7563 239.834C75.1203 239.834 75.3303 239.96 75.6103 240.184ZM76.5408 241.78C76.5408 243.754 78.0388 245.14 80.0128 245.14C81.9868 245.14 83.4848 243.754 83.4848 241.78C83.4848 239.806 81.9868 238.42 80.0128 238.42C78.0388 238.42 76.5408 239.806 76.5408 241.78ZM78.0948 241.78C78.0948 240.576 78.9208 239.75 80.0128 239.75C81.1048 239.75 81.9308 240.576 81.9308 241.78C81.9308 242.984 81.1048 243.81 80.0128 243.81C78.9208 243.81 78.0948 242.984 78.0948 241.78ZM86.3335 242.48V238.56H84.7795V242.648C84.7795 244.188 85.5775 245.14 87.0195 245.14C87.9155 245.14 88.5595 244.748 88.9655 244.006V245H90.4775V238.56H88.9655V242.48C88.9655 243.348 88.3775 243.922 87.5235 243.922C86.7115 243.922 86.3335 243.39 86.3335 242.48ZM93.7384 248.08V243.922C94.2004 244.72 94.9704 245.168 95.9364 245.168C97.6164 245.168 99.0724 243.936 99.0724 241.78C99.0724 239.624 97.6164 238.392 95.9364 238.392C94.9704 238.392 94.2004 238.84 93.7384 239.638V238.56H92.2124V248.08H93.7384ZM97.5044 241.78C97.5044 243.068 96.6224 243.796 95.5724 243.796C94.7044 243.796 93.7384 243.096 93.7384 241.78C93.7384 240.464 94.7044 239.764 95.5724 239.764C96.6224 239.764 97.5044 240.492 97.5044 241.78ZM103.926 241.78C103.926 243.754 105.424 245.14 107.398 245.14C109.372 245.14 110.87 243.754 110.87 241.78C110.87 239.806 109.372 238.42 107.398 238.42C105.424 238.42 103.926 239.806 103.926 241.78ZM105.48 241.78C105.48 240.576 106.306 239.75 107.398 239.75C108.49 239.75 109.316 240.576 109.316 241.78C109.316 242.984 108.49 243.81 107.398 243.81C106.306 243.81 105.48 242.984 105.48 241.78ZM115.581 240.184L116.323 238.896C116.029 238.56 115.595 238.42 115.133 238.42C114.587 238.42 114.041 238.77 113.663 239.344V238.56H112.165V245H113.663V241.374C113.663 240.45 113.971 239.834 114.727 239.834C115.091 239.834 115.301 239.96 115.581 240.184ZM122.734 248.08V243.922C123.196 244.72 123.966 245.168 124.932 245.168C126.612 245.168 128.068 243.936 128.068 241.78C128.068 239.624 126.612 238.392 124.932 238.392C123.966 238.392 123.196 238.84 122.734 239.638V238.56H121.208V248.08H122.734ZM126.5 241.78C126.5 243.068 125.618 243.796 124.568 243.796C123.7 243.796 122.734 243.096 122.734 241.78C122.734 240.464 123.7 239.764 124.568 239.764C125.618 239.764 126.5 240.492 126.5 241.78ZM132.154 245.14C133.638 245.14 134.716 244.552 135.388 243.39L134.072 242.872C133.652 243.572 133.036 243.894 132.224 243.894C131.174 243.894 130.53 243.25 130.418 242.13H135.43C135.43 242.06 135.444 241.878 135.444 241.71C135.444 239.652 134.254 238.42 132.224 238.42C130.18 238.42 128.864 239.75 128.864 241.78C128.864 243.796 130.166 245.14 132.154 245.14ZM132.21 239.568C133.106 239.568 133.722 240.156 133.792 241.08H130.46C130.642 240.1 131.258 239.568 132.21 239.568ZM140.163 240.184L140.905 238.896C140.611 238.56 140.177 238.42 139.715 238.42C139.169 238.42 138.623 238.77 138.245 239.344V238.56H136.747V245H138.245V241.374C138.245 240.45 138.553 239.834 139.309 239.834C139.673 239.834 139.883 239.96 140.163 240.184ZM142.083 242.886L141.201 243.768C141.761 244.51 142.755 245.196 144.085 245.196C145.485 245.196 146.381 244.398 146.381 243.18C146.381 242.018 145.471 241.598 144.407 241.164C143.609 240.856 143.007 240.632 143.007 240.142C143.007 239.792 143.315 239.596 143.749 239.596C144.379 239.596 145.023 239.96 145.443 240.45L146.283 239.554C145.751 238.91 144.841 238.42 143.791 238.42C142.601 238.42 141.579 239.008 141.579 240.17C141.579 241.346 142.531 241.808 143.413 242.13C144.267 242.438 144.855 242.704 144.855 243.264C144.855 243.684 144.533 243.95 143.987 243.95C143.329 243.95 142.713 243.572 142.083 242.886ZM147.093 241.78C147.093 243.754 148.591 245.14 150.565 245.14C152.539 245.14 154.037 243.754 154.037 241.78C154.037 239.806 152.539 238.42 150.565 238.42C148.591 238.42 147.093 239.806 147.093 241.78ZM148.647 241.78C148.647 240.576 149.473 239.75 150.565 239.75C151.657 239.75 152.483 240.576 152.483 241.78C152.483 242.984 151.657 243.81 150.565 243.81C149.473 243.81 148.647 242.984 148.647 241.78ZM159.475 241.08V245H161.029V240.912C161.029 239.358 160.245 238.42 158.789 238.42C157.907 238.42 157.249 238.798 156.843 239.554V238.56H155.331V245H156.843V241.08C156.843 240.212 157.431 239.638 158.285 239.638C159.097 239.638 159.475 240.142 159.475 241.08Z" fill="#0F1938"/>
<path d="M15.246 282.2V288.78L8.092 281.71V292H9.716V285.42L16.87 292.49V282.2H15.246ZM19.2532 287.24C19.5332 287.044 20.2892 286.638 21.2132 286.638C22.0112 286.638 22.5852 286.918 22.5852 287.702V288.486C22.1792 288.262 21.5632 288.038 20.7232 288.038C19.1272 288.038 18.2032 288.836 18.2032 290.082C18.2032 291.398 19.2392 292.14 20.4572 292.14C21.2832 292.14 22.1792 291.804 22.5852 291.118V292H24.0692V287.408C24.0692 286.134 22.9352 285.406 21.3532 285.406C20.1492 285.406 19.2252 285.826 18.6372 286.176L19.2532 287.24ZM19.7292 289.998C19.7292 289.396 20.1352 289.032 21.0872 289.032C21.6332 289.032 22.1232 289.13 22.5852 289.354V289.452C22.5852 290.432 21.8292 291.006 20.9332 291.006C20.2332 291.006 19.7292 290.642 19.7292 289.998ZM34.9039 287.912C34.9039 286.33 34.2459 285.42 32.8599 285.42C31.9919 285.42 31.2919 285.826 30.8439 286.568C30.5639 285.826 29.9199 285.42 28.9819 285.42C28.1559 285.42 27.5539 285.784 27.1759 286.498V285.56H25.6919V292H27.1759V288.08C27.1759 287.156 27.6659 286.638 28.4499 286.638C29.1779 286.638 29.5139 287.114 29.5139 288.08V292H31.0399V288.08C31.0399 287.156 31.5439 286.638 32.3279 286.638C33.0559 286.638 33.3919 287.114 33.3919 288.08V292H34.9039V287.912ZM39.4944 292.14C40.9784 292.14 42.0564 291.552 42.7284 290.39L41.4124 289.872C40.9924 290.572 40.3764 290.894 39.5644 290.894C38.5144 290.894 37.8704 290.25 37.7584 289.13H42.7704C42.7704 289.06 42.7844 288.878 42.7844 288.71C42.7844 286.652 41.5944 285.42 39.5644 285.42C37.5204 285.42 36.2044 286.75 36.2044 288.78C36.2044 290.796 37.5064 292.14 39.4944 292.14ZM39.5504 286.568C40.4464 286.568 41.0624 287.156 41.1324 288.08H37.8004C37.9824 287.1 38.5984 286.568 39.5504 286.568ZM47.6549 288.78C47.6549 290.754 49.1529 292.14 51.1269 292.14C53.1009 292.14 54.5989 290.754 54.5989 288.78C54.5989 286.806 53.1009 285.42 51.1269 285.42C49.1529 285.42 47.6549 286.806 47.6549 288.78ZM49.2089 288.78C49.2089 287.576 50.0349 286.75 51.1269 286.75C52.2189 286.75 53.0449 287.576 53.0449 288.78C53.0449 289.984 52.2189 290.81 51.1269 290.81C50.0349 290.81 49.2089 289.984 49.2089 288.78ZM55.3616 285.56V286.89H56.0616V292H57.5456V286.89H59.0576V285.56H57.5456V283.474C57.5456 282.662 57.7976 282.34 58.2176 282.34C58.4556 282.34 58.7076 282.41 58.9036 282.704L59.6036 281.528C59.3656 281.248 58.8896 280.912 58.1476 280.912C56.8036 280.912 56.0616 281.682 56.0616 283.18V285.56H55.3616ZM63.7672 292.434C63.8232 294.114 65.0272 295.276 67.1272 295.276C68.8772 295.276 70.4592 294.198 70.4592 291.86V285.56H68.9752V286.61C68.4852 285.84 67.7152 285.42 66.7772 285.42C65.0972 285.42 63.6412 286.638 63.6412 288.752C63.6412 290.866 65.0972 292.07 66.7772 292.07C67.7152 292.07 68.4852 291.65 68.9752 290.894V291.86C68.9752 293.316 68.0372 293.96 67.0852 293.96C65.9932 293.96 65.3072 293.302 65.2792 292.434H63.7672ZM65.2092 288.752C65.2092 287.464 66.0912 286.736 67.1412 286.736C68.0092 286.736 68.9752 287.436 68.9752 288.752C68.9752 290.068 68.0092 290.754 67.1412 290.754C66.0912 290.754 65.2092 290.04 65.2092 288.752ZM75.6103 287.184L76.3523 285.896C76.0583 285.56 75.6243 285.42 75.1623 285.42C74.6163 285.42 74.0703 285.77 73.6923 286.344V285.56H72.1943V292H73.6923V288.374C73.6923 287.45 74.0003 286.834 74.7563 286.834C75.1203 286.834 75.3303 286.96 75.6103 287.184ZM76.5408 288.78C76.5408 290.754 78.0388 292.14 80.0128 292.14C81.9868 292.14 83.4848 290.754 83.4848 288.78C83.4848 286.806 81.9868 285.42 80.0128 285.42C78.0388 285.42 76.5408 286.806 76.5408 288.78ZM78.0948 288.78C78.0948 287.576 78.9208 286.75 80.0128 286.75C81.1048 286.75 81.9308 287.576 81.9308 288.78C81.9308 289.984 81.1048 290.81 80.0128 290.81C78.9208 290.81 78.0948 289.984 78.0948 288.78ZM86.3335 289.48V285.56H84.7795V289.648C84.7795 291.188 85.5775 292.14 87.0195 292.14C87.9155 292.14 88.5595 291.748 88.9655 291.006V292H90.4775V285.56H88.9655V289.48C88.9655 290.348 88.3775 290.922 87.5235 290.922C86.7115 290.922 86.3335 290.39 86.3335 289.48ZM93.7384 295.08V290.922C94.2004 291.72 94.9704 292.168 95.9364 292.168C97.6164 292.168 99.0724 290.936 99.0724 288.78C99.0724 286.624 97.6164 285.392 95.9364 285.392C94.9704 285.392 94.2004 285.84 93.7384 286.638V285.56H92.2124V295.08H93.7384ZM97.5044 288.78C97.5044 290.068 96.6224 290.796 95.5724 290.796C94.7044 290.796 93.7384 290.096 93.7384 288.78C93.7384 287.464 94.7044 286.764 95.5724 286.764C96.6224 286.764 97.5044 287.492 97.5044 288.78ZM103.926 288.78C103.926 290.754 105.424 292.14 107.398 292.14C109.372 292.14 110.87 290.754 110.87 288.78C110.87 286.806 109.372 285.42 107.398 285.42C105.424 285.42 103.926 286.806 103.926 288.78ZM105.48 288.78C105.48 287.576 106.306 286.75 107.398 286.75C108.49 286.75 109.316 287.576 109.316 288.78C109.316 289.984 108.49 290.81 107.398 290.81C106.306 290.81 105.48 289.984 105.48 288.78ZM115.581 287.184L116.323 285.896C116.029 285.56 115.595 285.42 115.133 285.42C114.587 285.42 114.041 285.77 113.663 286.344V285.56H112.165V292H113.663V288.374C113.663 287.45 113.971 286.834 114.727 286.834C115.091 286.834 115.301 286.96 115.581 287.184ZM122.734 295.08V290.922C123.196 291.72 123.966 292.168 124.932 292.168C126.612 292.168 128.068 290.936 128.068 288.78C128.068 286.624 126.612 285.392 124.932 285.392C123.966 285.392 123.196 285.84 122.734 286.638V285.56H121.208V295.08H122.734ZM126.5 288.78C126.5 290.068 125.618 290.796 124.568 290.796C123.7 290.796 122.734 290.096 122.734 288.78C122.734 287.464 123.7 286.764 124.568 286.764C125.618 286.764 126.5 287.492 126.5 288.78ZM132.154 292.14C133.638 292.14 134.716 291.552 135.388 290.39L134.072 289.872C133.652 290.572 133.036 290.894 132.224 290.894C131.174 290.894 130.53 290.25 130.418 289.13H135.43C135.43 289.06 135.444 288.878 135.444 288.71C135.444 286.652 134.254 285.42 132.224 285.42C130.18 285.42 128.864 286.75 128.864 288.78C128.864 290.796 130.166 292.14 132.154 292.14ZM132.21 286.568C133.106 286.568 133.722 287.156 133.792 288.08H130.46C130.642 287.1 131.258 286.568 132.21 286.568ZM140.163 287.184L140.905 285.896C140.611 285.56 140.177 285.42 139.715 285.42C139.169 285.42 138.623 285.77 138.245 286.344V285.56H136.747V292H138.245V288.374C138.245 287.45 138.553 286.834 139.309 286.834C139.673 286.834 139.883 286.96 140.163 287.184ZM142.083 289.886L141.201 290.768C141.761 291.51 142.755 292.196 144.085 292.196C145.485 292.196 146.381 291.398 146.381 290.18C146.381 289.018 145.471 288.598 144.407 288.164C143.609 287.856 143.007 287.632 143.007 287.142C143.007 286.792 143.315 286.596 143.749 286.596C144.379 286.596 145.023 286.96 145.443 287.45L146.283 286.554C145.751 285.91 144.841 285.42 143.791 285.42C142.601 285.42 141.579 286.008 141.579 287.17C141.579 288.346 142.531 288.808 143.413 289.13C144.267 289.438 144.855 289.704 144.855 290.264C144.855 290.684 144.533 290.95 143.987 290.95C143.329 290.95 142.713 290.572 142.083 289.886ZM147.093 288.78C147.093 290.754 148.591 292.14 150.565 292.14C152.539 292.14 154.037 290.754 154.037 288.78C154.037 286.806 152.539 285.42 150.565 285.42C148.591 285.42 147.093 286.806 147.093 288.78ZM148.647 288.78C148.647 287.576 149.473 286.75 150.565 286.75C151.657 286.75 152.483 287.576 152.483 288.78C152.483 289.984 151.657 290.81 150.565 290.81C149.473 290.81 148.647 289.984 148.647 288.78ZM159.475 288.08V292H161.029V287.912C161.029 286.358 160.245 285.42 158.789 285.42C157.907 285.42 157.249 285.798 156.843 286.554V285.56H155.331V292H156.843V288.08C156.843 287.212 157.431 286.638 158.285 286.638C159.097 286.638 159.475 287.142 159.475 288.08Z" fill="#0F1938"/>
<line x1="7.5" y1="121" x2="7.5" y2="131" stroke="#0F1938"/>
<line x1="39.0537" y1="121" x2="39.0537" y2="131" stroke="#0F1938"/>
<line x1="23.2764" y1="127" x2="23.2764" y2="131" stroke="#0F1938"/>
<line x1="70.6064" y1="121" x2="70.6064" y2="131" stroke="#0F1938"/>
<line x1="54.8301" y1="127" x2="54.8301" y2="131" stroke="#0F1938"/>
<line x1="102.159" y1="121" x2="102.159" y2="131" stroke="#0F1938"/>
<line x1="86.3828" y1="127" x2="86.3828" y2="131" stroke="#0F1938"/>
<line x1="133.713" y1="121" x2="133.713" y2="131" stroke="#0F1938"/>
<line x1="117.937" y1="127" x2="117.937" y2="131" stroke="#0F1938"/>
<line x1="165.266" y1="121" x2="165.266" y2="131" stroke="#0F1938"/>
<line x1="149.489" y1="127" x2="149.489" y2="131" stroke="#0F1938"/>
<path d="M196.319 121V131" stroke="#0F1938"/>
<path d="M227.873 121V131" stroke="#0F1938"/>
<path d="M180.543 127V131" stroke="#0F1938"/>
<path d="M259.426 121V131" stroke="#0F1938"/>
<path d="M212.096 127V131" stroke="#0F1938"/>
<path d="M243.649 127V131" stroke="#0F1938"/>
<path d="M236.426 121V136" stroke="#3749A9"/>
<path d="M4.99981 111.8C4.99981 114.404 6.31981 116.132 8.26381 116.132C10.2318 116.132 11.5398 114.404 11.5398 111.8C11.5398 109.196 10.2318 107.468 8.26381 107.468C6.31981 107.468 4.99981 109.196 4.99981 111.8ZM6.39181 111.8C6.39181 109.988 7.11181 108.74 8.26381 108.74C9.41581 108.74 10.1478 109.988 10.1478 111.8C10.1478 113.612 9.41581 114.86 8.26381 114.86C7.11181 114.86 6.39181 113.612 6.39181 111.8Z" fill="#0F1938"/>
<path d="M29.6958 109.568L31.6398 109.028V116H33.0438V107.468L29.6958 108.224V109.568ZM34.8277 111.8C34.8277 114.404 36.1477 116.132 38.0917 116.132C40.0597 116.132 41.3677 114.404 41.3677 111.8C41.3677 109.196 40.0597 107.468 38.0917 107.468C36.1477 107.468 34.8277 109.196 34.8277 111.8ZM36.2197 111.8C36.2197 109.988 36.9397 108.74 38.0917 108.74C39.2437 108.74 39.9757 109.988 39.9757 111.8C39.9757 113.612 39.2437 114.86 38.0917 114.86C36.9397 114.86 36.2197 113.612 36.2197 111.8ZM42.1959 111.8C42.1959 114.404 43.5159 116.132 45.4599 116.132C47.4279 116.132 48.7359 114.404 48.7359 111.8C48.7359 109.196 47.4279 107.468 45.4599 107.468C43.5159 107.468 42.1959 109.196 42.1959 111.8ZM43.5879 111.8C43.5879 109.988 44.3079 108.74 45.4599 108.74C46.6119 108.74 47.3439 109.988 47.3439 111.8C47.3439 113.612 46.6119 114.86 45.4599 114.86C44.3079 114.86 43.5879 113.612 43.5879 111.8Z" fill="#0F1938"/>
<path d="M200.391 110.888L202.947 115.22L205.515 110.888L206.091 116H207.555L206.403 107.18L202.947 112.88L199.503 107.18L198.351 116H199.815L200.391 110.888ZM209.112 111.92C209.352 111.752 210 111.404 210.792 111.404C211.476 111.404 211.968 111.644 211.968 112.316V112.988C211.62 112.796 211.092 112.604 210.372 112.604C209.004 112.604 208.212 113.288 208.212 114.356C208.212 115.484 209.1 116.12 210.144 116.12C210.852 116.12 211.62 115.832 211.968 115.244V116H213.24V112.064C213.24 110.972 212.268 110.348 210.912 110.348C209.88 110.348 209.088 110.708 208.584 111.008L209.112 111.92ZM209.52 114.284C209.52 113.768 209.868 113.456 210.684 113.456C211.152 113.456 211.572 113.54 211.968 113.732V113.816C211.968 114.656 211.32 115.148 210.552 115.148C209.952 115.148 209.52 114.836 209.52 114.284ZM217.811 110.48L216.611 112.208L215.411 110.48H213.923L215.915 113.156L213.803 116H215.291L216.611 114.104L217.931 116H219.383L217.283 113.156L219.263 110.48H217.811ZM220.257 110.852C220.257 111.308 220.617 111.692 221.097 111.692C221.577 111.692 221.949 111.308 221.949 110.852C221.949 110.396 221.577 110.012 221.097 110.012C220.617 110.012 220.257 110.396 220.257 110.852ZM220.257 115.388C220.257 115.844 220.617 116.228 221.097 116.228C221.577 116.228 221.949 115.844 221.949 115.388C221.949 114.932 221.577 114.548 221.097 114.548C220.617 114.548 220.257 114.932 220.257 115.388ZM226.659 108.932H230.823L227.379 116H228.891L232.923 107.6H226.659V108.932ZM233.086 116H239.494V114.68H235.858L238.234 112.34C238.918 111.692 239.386 110.852 239.386 109.976C239.386 108.86 238.462 107.456 236.518 107.456C234.598 107.456 233.542 108.788 233.542 110.576H234.946C234.946 109.448 235.534 108.728 236.494 108.728C237.418 108.728 237.922 109.388 237.922 110.048C237.922 110.72 237.562 111.272 236.962 111.908L233.086 116ZM246.629 113.264C246.629 111.572 245.501 110.468 244.109 110.468C243.641 110.468 243.197 110.564 242.777 110.768L243.305 108.848H246.557V107.6H242.237L241.097 112.22C241.949 111.692 242.585 111.56 243.329 111.56C244.301 111.56 245.117 112.16 245.117 113.18C245.117 114.2 244.457 114.812 243.329 114.812C242.525 114.812 241.697 114.284 241.205 113.624L240.377 114.644C241.025 115.46 241.973 116.132 243.521 116.132C245.141 116.132 246.629 115.196 246.629 113.264Z" fill="#3749A9"/>
<path d="M180.124 5.324L182.86 10.22L185.596 5.324L186.22 11H187.24L186.22 2.18L182.86 8.264L179.5 2.18L178.48 11H179.5L180.124 5.324ZM188.783 6.752C189.035 6.56 189.611 6.2 190.439 6.2C191.123 6.2 191.687 6.416 191.687 7.172V7.976C191.363 7.772 190.847 7.568 190.115 7.568C188.759 7.568 187.955 8.276 187.955 9.344C187.955 10.472 188.843 11.12 189.863 11.12C190.535 11.12 191.327 10.844 191.687 10.256V11H192.647V7.04C192.647 5.972 191.771 5.36 190.487 5.36C189.467 5.36 188.735 5.744 188.315 6.044L188.783 6.752ZM188.927 9.296C188.927 8.696 189.335 8.324 190.271 8.324C190.787 8.324 191.243 8.42 191.687 8.636V8.84C191.687 9.716 190.991 10.292 190.115 10.292C189.407 10.292 188.927 9.932 188.927 9.296ZM197.092 5.48L195.772 7.4L194.452 5.48H193.372L195.256 8.156L193.252 11H194.332L195.772 8.912L197.212 11H198.292L196.288 8.156L198.172 5.48H197.092ZM206.089 7.64V11H207.049V7.52C207.049 6.188 206.317 5.36 205.153 5.36C204.433 5.36 203.881 5.672 203.509 6.344V5.48H202.549V11H203.509V7.64C203.509 6.824 204.073 6.26 204.913 6.26C205.681 6.26 206.089 6.728 206.089 7.64ZM209.694 8.84V5.48H208.734V8.96C208.734 10.28 209.478 11.12 210.63 11.12C211.362 11.12 211.902 10.796 212.274 10.136V11H213.234V5.48H212.274V8.84C212.274 9.656 211.71 10.22 210.87 10.22C210.102 10.22 209.694 9.728 209.694 8.84ZM222.478 7.52C222.478 6.152 221.83 5.36 220.702 5.36C219.958 5.36 219.382 5.708 218.998 6.392C218.746 5.732 218.17 5.36 217.402 5.36C216.718 5.36 216.214 5.66 215.878 6.284V5.48H214.918V11H215.878V7.64C215.878 6.776 216.37 6.26 217.162 6.26C217.882 6.26 218.218 6.692 218.218 7.64V11H219.178V7.64C219.178 6.776 219.67 6.26 220.462 6.26C221.182 6.26 221.518 6.692 221.518 7.64V11H222.478V7.52ZM229.682 8.24C229.682 6.452 228.446 5.36 226.946 5.36C226.13 5.36 225.47 5.744 225.062 6.428V1.64H224.102V11H225.062V10.052C225.47 10.736 226.13 11.12 226.946 11.12C228.446 11.12 229.682 10.028 229.682 8.24ZM228.71 8.24C228.71 9.512 227.846 10.22 226.826 10.22C225.986 10.22 225.062 9.512 225.062 8.24C225.062 6.968 225.986 6.26 226.826 6.26C227.846 6.26 228.71 6.968 228.71 8.24ZM233.021 11.12C234.197 11.12 235.073 10.652 235.649 9.716L234.869 9.224C234.461 9.896 233.885 10.22 233.141 10.22C232.109 10.22 231.473 9.596 231.389 8.48H235.733C235.733 8.456 235.745 8.312 235.745 8.192C235.745 6.44 234.761 5.36 233.141 5.36C231.509 5.36 230.405 6.524 230.405 8.24C230.405 9.944 231.473 11.12 233.021 11.12ZM233.141 6.2C234.029 6.2 234.629 6.776 234.701 7.664H231.425C231.593 6.728 232.193 6.2 233.141 6.2ZM239.569 6.536L240.097 5.744C239.809 5.444 239.461 5.36 239.065 5.36C238.645 5.36 238.213 5.648 237.901 6.116V5.48H236.941V11H237.901V7.64C237.901 6.848 238.105 6.26 238.825 6.26C239.137 6.26 239.305 6.344 239.569 6.536ZM243.932 8.24C243.932 9.908 245.168 11.12 246.788 11.12C248.408 11.12 249.644 9.908 249.644 8.24C249.644 6.572 248.408 5.36 246.788 5.36C245.168 5.36 243.932 6.572 243.932 8.24ZM244.904 8.24C244.904 7.088 245.708 6.26 246.788 6.26C247.868 6.26 248.672 7.088 248.672 8.24C248.672 9.392 247.868 10.22 246.788 10.22C245.708 10.22 244.904 9.392 244.904 8.24ZM250.423 5.48V6.38H250.963V11H251.923V6.38H253.183V5.48H251.923V3.56C251.923 2.768 252.139 2.48 252.499 2.48C252.691 2.48 252.919 2.516 253.087 2.792L253.615 2C253.435 1.76 253.075 1.52 252.559 1.52C251.551 1.52 250.963 2.132 250.963 3.44V5.48H250.423ZM186.46 21.52C186.46 20.152 185.812 19.36 184.684 19.36C183.94 19.36 183.364 19.708 182.98 20.392C182.728 19.732 182.152 19.36 181.384 19.36C180.7 19.36 180.196 19.66 179.86 20.284V19.48H178.9V25H179.86V21.64C179.86 20.776 180.352 20.26 181.144 20.26C181.864 20.26 182.2 20.692 182.2 21.64V25H183.16V21.64C183.16 20.776 183.652 20.26 184.444 20.26C185.164 20.26 185.5 20.692 185.5 21.64V25H186.46V21.52ZM190.279 25.12C191.455 25.12 192.331 24.652 192.907 23.716L192.127 23.224C191.719 23.896 191.143 24.22 190.399 24.22C189.367 24.22 188.731 23.596 188.647 22.48H192.991C192.991 22.456 193.003 22.312 193.003 22.192C193.003 20.44 192.019 19.36 190.399 19.36C188.767 19.36 187.663 20.524 187.663 22.24C187.663 23.944 188.731 25.12 190.279 25.12ZM190.399 20.2C191.287 20.2 191.887 20.776 191.959 21.664H188.683C188.851 20.728 189.451 20.2 190.399 20.2ZM194.427 23.308L193.671 23.776C193.971 24.436 194.775 25.12 195.879 25.12C197.007 25.12 197.775 24.4 197.775 23.44C197.775 22.456 196.995 22.084 196.035 21.688C195.447 21.448 194.883 21.196 194.883 20.752C194.883 20.38 195.219 20.212 195.615 20.212C196.191 20.212 196.659 20.524 196.959 20.932L197.727 20.44C197.391 19.828 196.611 19.36 195.735 19.36C194.835 19.36 193.947 19.828 193.947 20.812C193.947 21.784 194.799 22.192 195.531 22.468C196.167 22.708 196.803 22.972 196.803 23.548C196.803 23.98 196.467 24.244 195.927 24.244C195.243 24.244 194.763 23.824 194.427 23.308ZM199.147 23.308L198.391 23.776C198.691 24.436 199.495 25.12 200.599 25.12C201.727 25.12 202.495 24.4 202.495 23.44C202.495 22.456 201.715 22.084 200.755 21.688C200.167 21.448 199.603 21.196 199.603 20.752C199.603 20.38 199.939 20.212 200.335 20.212C200.911 20.212 201.379 20.524 201.679 20.932L202.447 20.44C202.111 19.828 201.331 19.36 200.455 19.36C199.555 19.36 198.667 19.828 198.667 20.812C198.667 21.784 199.519 22.192 200.251 22.468C200.887 22.708 201.523 22.972 201.523 23.548C201.523 23.98 201.187 24.244 200.647 24.244C199.963 24.244 199.483 23.824 199.147 23.308ZM203.927 20.752C204.179 20.56 204.755 20.2 205.583 20.2C206.267 20.2 206.831 20.416 206.831 21.172V21.976C206.507 21.772 205.991 21.568 205.259 21.568C203.903 21.568 203.099 22.276 203.099 23.344C203.099 24.472 203.987 25.12 205.007 25.12C205.679 25.12 206.471 24.844 206.831 24.256V25H207.791V21.04C207.791 19.972 206.915 19.36 205.631 19.36C204.611 19.36 203.879 19.744 203.459 20.044L203.927 20.752ZM204.071 23.296C204.071 22.696 204.479 22.324 205.415 22.324C205.931 22.324 206.387 22.42 206.831 22.636V22.84C206.831 23.716 206.135 24.292 205.259 24.292C204.551 24.292 204.071 23.932 204.071 23.296ZM208.924 25.36C208.924 26.788 210.04 27.76 211.66 27.76C213.04 27.76 214.396 26.788 214.396 24.88V19.48H213.436V20.428C213.028 19.744 212.368 19.36 211.552 19.36C210.052 19.36 208.816 20.452 208.816 22.24C208.816 24.028 210.052 25.12 211.552 25.12C212.368 25.12 213.028 24.736 213.436 24.052V24.88C213.436 26.272 212.5 26.86 211.66 26.86C210.58 26.86 209.896 26.152 209.896 25.36H208.924ZM209.788 22.24C209.788 20.968 210.652 20.26 211.672 20.26C212.512 20.26 213.436 20.968 213.436 22.24C213.436 23.512 212.512 24.22 211.672 24.22C210.652 24.22 209.788 23.512 209.788 22.24ZM218.156 25.12C219.332 25.12 220.208 24.652 220.784 23.716L220.004 23.224C219.596 23.896 219.02 24.22 218.276 24.22C217.244 24.22 216.608 23.596 216.524 22.48H220.868C220.868 22.456 220.88 22.312 220.88 22.192C220.88 20.44 219.896 19.36 218.276 19.36C216.644 19.36 215.54 20.524 215.54 22.24C215.54 23.944 216.608 25.12 218.156 25.12ZM218.276 20.2C219.164 20.2 219.764 20.776 219.836 21.664H216.56C216.728 20.728 217.328 20.2 218.276 20.2ZM222.304 23.308L221.548 23.776C221.848 24.436 222.652 25.12 223.756 25.12C224.884 25.12 225.652 24.4 225.652 23.44C225.652 22.456 224.872 22.084 223.912 21.688C223.324 21.448 222.76 21.196 222.76 20.752C222.76 20.38 223.096 20.212 223.492 20.212C224.068 20.212 224.536 20.524 224.836 20.932L225.604 20.44C225.268 19.828 224.488 19.36 223.612 19.36C222.712 19.36 221.824 19.828 221.824 20.812C221.824 21.784 222.676 22.192 223.408 22.468C224.044 22.708 224.68 22.972 224.68 23.548C224.68 23.98 224.344 24.244 223.804 24.244C223.12 24.244 222.64 23.824 222.304 23.308ZM230.561 20.752C230.813 20.56 231.389 20.2 232.217 20.2C232.901 20.2 233.465 20.416 233.465 21.172V21.976C233.141 21.772 232.625 21.568 231.893 21.568C230.537 21.568 229.733 22.276 229.733 23.344C229.733 24.472 230.621 25.12 231.641 25.12C232.313 25.12 233.105 24.844 233.465 24.256V25H234.425V21.04C234.425 19.972 233.549 19.36 232.265 19.36C231.245 19.36 230.513 19.744 230.093 20.044L230.561 20.752ZM230.705 23.296C230.705 22.696 231.113 22.324 232.049 22.324C232.565 22.324 233.021 22.42 233.465 22.636V22.84C233.465 23.716 232.769 24.292 231.893 24.292C231.185 24.292 230.705 23.932 230.705 23.296ZM236.362 22.24C236.362 21.088 237.166 20.26 238.246 20.26C239.134 20.26 239.914 20.728 240.166 21.268V20.068C239.782 19.624 239.002 19.36 238.246 19.36C236.626 19.36 235.39 20.572 235.39 22.24C235.39 23.908 236.626 25.12 238.246 25.12C239.002 25.12 239.782 24.868 240.166 24.412V23.212C239.914 23.752 239.134 24.22 238.246 24.22C237.166 24.22 236.362 23.392 236.362 22.24ZM244.169 20.536L244.697 19.744C244.409 19.444 244.061 19.36 243.665 19.36C243.245 19.36 242.813 19.648 242.501 20.116V19.48H241.541V25H242.501V21.64C242.501 20.848 242.705 20.26 243.425 20.26C243.737 20.26 243.905 20.344 244.169 20.536ZM244.878 22.24C244.878 23.908 246.114 25.12 247.734 25.12C249.354 25.12 250.59 23.908 250.59 22.24C250.59 20.572 249.354 19.36 247.734 19.36C246.114 19.36 244.878 20.572 244.878 22.24ZM245.85 22.24C245.85 21.088 246.654 20.26 247.734 20.26C248.814 20.26 249.618 21.088 249.618 22.24C249.618 23.392 248.814 24.22 247.734 24.22C246.654 24.22 245.85 23.392 245.85 22.24ZM252.017 23.308L251.261 23.776C251.561 24.436 252.365 25.12 253.469 25.12C254.597 25.12 255.365 24.4 255.365 23.44C255.365 22.456 254.585 22.084 253.625 21.688C253.037 21.448 252.473 21.196 252.473 20.752C252.473 20.38 252.809 20.212 253.205 20.212C253.781 20.212 254.249 20.524 254.549 20.932L255.317 20.44C254.981 19.828 254.201 19.36 253.325 19.36C252.425 19.36 251.537 19.828 251.537 20.812C251.537 21.784 252.389 22.192 253.121 22.468C253.757 22.708 254.393 22.972 254.393 23.548C254.393 23.98 254.057 24.244 253.517 24.244C252.833 24.244 252.353 23.824 252.017 23.308ZM256.737 23.308L255.981 23.776C256.281 24.436 257.085 25.12 258.189 25.12C259.317 25.12 260.085 24.4 260.085 23.44C260.085 22.456 259.305 22.084 258.345 21.688C257.757 21.448 257.193 21.196 257.193 20.752C257.193 20.38 257.529 20.212 257.925 20.212C258.501 20.212 258.969 20.524 259.269 20.932L260.037 20.44C259.701 19.828 258.921 19.36 258.045 19.36C257.145 19.36 256.257 19.828 256.257 20.812C256.257 21.784 257.109 22.192 257.841 22.468C258.477 22.708 259.113 22.972 259.113 23.548C259.113 23.98 258.777 24.244 258.237 24.244C257.553 24.244 257.073 23.824 256.737 23.308ZM179.188 34.752C179.44 34.56 180.016 34.2 180.844 34.2C181.528 34.2 182.092 34.416 182.092 35.172V35.976C181.768 35.772 181.252 35.568 180.52 35.568C179.164 35.568 178.36 36.276 178.36 37.344C178.36 38.472 179.248 39.12 180.268 39.12C180.94 39.12 181.732 38.844 182.092 38.256V39H183.052V35.04C183.052 33.972 182.176 33.36 180.892 33.36C179.872 33.36 179.14 33.744 178.72 34.044L179.188 34.752ZM179.332 37.296C179.332 36.696 179.74 36.324 180.676 36.324C181.192 36.324 181.648 36.42 182.092 36.636V36.84C182.092 37.716 181.396 38.292 180.52 38.292C179.812 38.292 179.332 37.932 179.332 37.296ZM184.557 29.64V39H185.517V29.64H184.557ZM187.203 29.64V39H188.163V29.64H187.203ZM192.486 33.48V34.38H193.386V39H194.346V34.38H195.246V33.48H194.346V31.56H193.386V33.48H192.486ZM199.629 35.64V39H200.589V35.52C200.589 34.092 199.833 33.36 198.693 33.36C197.973 33.36 197.385 33.744 197.049 34.356V29.64H196.089V39H197.049V35.64C197.049 34.848 197.613 34.26 198.453 34.26C199.233 34.26 199.629 34.728 199.629 35.64ZM204.902 34.536L205.43 33.744C205.142 33.444 204.794 33.36 204.398 33.36C203.978 33.36 203.546 33.648 203.234 34.116V33.48H202.274V39H203.234V35.64C203.234 34.848 203.438 34.26 204.158 34.26C204.47 34.26 204.638 34.344 204.902 34.536ZM208.227 39.12C209.403 39.12 210.279 38.652 210.855 37.716L210.075 37.224C209.667 37.896 209.091 38.22 208.347 38.22C207.315 38.22 206.679 37.596 206.595 36.48H210.939C210.939 36.456 210.951 36.312 210.951 36.192C210.951 34.44 209.967 33.36 208.347 33.36C206.715 33.36 205.611 34.524 205.611 36.24C205.611 37.944 206.679 39.12 208.227 39.12ZM208.347 34.2C209.235 34.2 209.835 34.776 209.907 35.664H206.631C206.799 34.728 207.399 34.2 208.347 34.2ZM212.435 34.752C212.687 34.56 213.263 34.2 214.091 34.2C214.775 34.2 215.339 34.416 215.339 35.172V35.976C215.015 35.772 214.499 35.568 213.767 35.568C212.411 35.568 211.607 36.276 211.607 37.344C211.607 38.472 212.495 39.12 213.515 39.12C214.187 39.12 214.979 38.844 215.339 38.256V39H216.299V35.04C216.299 33.972 215.423 33.36 214.139 33.36C213.119 33.36 212.387 33.744 211.967 34.044L212.435 34.752ZM212.579 37.296C212.579 36.696 212.987 36.324 213.923 36.324C214.439 36.324 214.895 36.42 215.339 36.636V36.84C215.339 37.716 214.643 38.292 213.767 38.292C213.059 38.292 212.579 37.932 212.579 37.296ZM217.324 36.24C217.324 38.028 218.56 39.12 220.06 39.12C220.876 39.12 221.536 38.736 221.944 38.052V39H222.904V29.64H221.944V34.428C221.536 33.744 220.876 33.36 220.06 33.36C218.56 33.36 217.324 34.452 217.324 36.24ZM218.296 36.24C218.296 34.968 219.16 34.26 220.18 34.26C221.02 34.26 221.944 34.968 221.944 36.24C221.944 37.512 221.02 38.22 220.18 38.22C219.16 38.22 218.296 37.512 218.296 36.24ZM224.756 37.308L224 37.776C224.3 38.436 225.104 39.12 226.208 39.12C227.336 39.12 228.104 38.4 228.104 37.44C228.104 36.456 227.324 36.084 226.364 35.688C225.776 35.448 225.212 35.196 225.212 34.752C225.212 34.38 225.548 34.212 225.944 34.212C226.52 34.212 226.988 34.524 227.288 34.932L228.056 34.44C227.72 33.828 226.94 33.36 226.064 33.36C225.164 33.36 224.276 33.828 224.276 34.812C224.276 35.784 225.128 36.192 225.86 36.468C226.496 36.708 227.132 36.972 227.132 37.548C227.132 37.98 226.796 38.244 226.256 38.244C225.572 38.244 225.092 37.824 224.756 37.308Z" fill="#0F1938"/>
<path d="M124.12 345.56H126.28V353H127.3V345.56H129.46V344.6H124.12V345.56ZM128.683 350.24C128.683 351.908 129.919 353.12 131.539 353.12C133.159 353.12 134.395 351.908 134.395 350.24C134.395 348.572 133.159 347.36 131.539 347.36C129.919 347.36 128.683 348.572 128.683 350.24ZM129.655 350.24C129.655 349.088 130.459 348.26 131.539 348.26C132.619 348.26 133.423 349.088 133.423 350.24C133.423 351.392 132.619 352.22 131.539 352.22C130.459 352.22 129.655 351.392 129.655 350.24ZM134.754 347.48V348.38H135.654V353H136.614V348.38H137.514V347.48H136.614V345.56H135.654V347.48H134.754ZM138.644 348.752C138.896 348.56 139.472 348.2 140.3 348.2C140.984 348.2 141.548 348.416 141.548 349.172V349.976C141.224 349.772 140.708 349.568 139.976 349.568C138.62 349.568 137.816 350.276 137.816 351.344C137.816 352.472 138.704 353.12 139.724 353.12C140.396 353.12 141.188 352.844 141.548 352.256V353H142.508V349.04C142.508 347.972 141.632 347.36 140.348 347.36C139.328 347.36 138.596 347.744 138.176 348.044L138.644 348.752ZM138.788 351.296C138.788 350.696 139.196 350.324 140.132 350.324C140.648 350.324 141.104 350.42 141.548 350.636V350.84C141.548 351.716 140.852 352.292 139.976 352.292C139.268 352.292 138.788 351.932 138.788 351.296ZM144.014 343.64V353H144.974V343.64H144.014ZM149.237 347.48L151.877 353.42L154.517 347.48H153.437L151.877 351.38L150.317 347.48H149.237ZM155.59 348.752C155.842 348.56 156.418 348.2 157.246 348.2C157.93 348.2 158.494 348.416 158.494 349.172V349.976C158.17 349.772 157.654 349.568 156.922 349.568C155.566 349.568 154.762 350.276 154.762 351.344C154.762 352.472 155.65 353.12 156.67 353.12C157.342 353.12 158.134 352.844 158.494 352.256V353H159.454V349.04C159.454 347.972 158.578 347.36 157.294 347.36C156.274 347.36 155.542 347.744 155.122 348.044L155.59 348.752ZM155.734 351.296C155.734 350.696 156.142 350.324 157.078 350.324C157.594 350.324 158.05 350.42 158.494 350.636V350.84C158.494 351.716 157.798 352.292 156.922 352.292C156.214 352.292 155.734 351.932 155.734 351.296ZM160.96 343.64V353H161.92V343.64H160.96ZM164.565 350.84V347.48H163.605V350.96C163.605 352.28 164.349 353.12 165.501 353.12C166.233 353.12 166.773 352.796 167.145 352.136V353H168.105V347.48H167.145V350.84C167.145 351.656 166.581 352.22 165.741 352.22C164.973 352.22 164.565 351.728 164.565 350.84ZM171.926 353.12C173.102 353.12 173.978 352.652 174.554 351.716L173.774 351.224C173.366 351.896 172.79 352.22 172.046 352.22C171.014 352.22 170.378 351.596 170.294 350.48H174.638C174.638 350.456 174.65 350.312 174.65 350.192C174.65 348.44 173.666 347.36 172.046 347.36C170.414 347.36 169.31 348.524 169.31 350.24C169.31 351.944 170.378 353.12 171.926 353.12ZM172.046 348.2C172.934 348.2 173.534 348.776 173.606 349.664H170.33C170.498 348.728 171.098 348.2 172.046 348.2ZM178.903 347.48V348.38H179.443V353H180.403V348.38H181.663V347.48H180.403V345.56C180.403 344.768 180.619 344.48 180.979 344.48C181.171 344.48 181.399 344.516 181.567 344.792L182.095 344C181.915 343.76 181.555 343.52 181.039 343.52C180.031 343.52 179.443 344.132 179.443 345.44V347.48H178.903ZM182.157 350.24C182.157 351.908 183.393 353.12 185.013 353.12C186.633 353.12 187.869 351.908 187.869 350.24C187.869 348.572 186.633 347.36 185.013 347.36C183.393 347.36 182.157 348.572 182.157 350.24ZM183.129 350.24C183.129 349.088 183.933 348.26 185.013 348.26C186.093 348.26 186.897 349.088 186.897 350.24C186.897 351.392 186.093 352.22 185.013 352.22C183.933 352.22 183.129 351.392 183.129 350.24ZM191.696 348.536L192.224 347.744C191.936 347.444 191.588 347.36 191.192 347.36C190.772 347.36 190.34 347.648 190.028 348.116V347.48H189.068V353H190.028V349.64C190.028 348.848 190.232 348.26 190.952 348.26C191.264 348.26 191.432 348.344 191.696 348.536ZM124.06 361.48V362.38H124.96V367H125.92V362.38H126.82V361.48H125.92V359.56H124.96V361.48H124.06ZM131.203 363.64V367H132.163V363.52C132.163 362.092 131.407 361.36 130.267 361.36C129.547 361.36 128.959 361.744 128.623 362.356V357.64H127.663V367H128.623V363.64C128.623 362.848 129.187 362.26 130.027 362.26C130.807 362.26 131.203 362.728 131.203 363.64ZM133.848 359.2C133.848 359.56 134.148 359.86 134.508 359.86C134.868 359.86 135.168 359.56 135.168 359.2C135.168 358.84 134.868 358.54 134.508 358.54C134.148 358.54 133.848 358.84 133.848 359.2ZM134.028 361.48V367H134.988V361.48H134.028ZM137.073 365.308L136.317 365.776C136.617 366.436 137.421 367.12 138.525 367.12C139.653 367.12 140.421 366.4 140.421 365.44C140.421 364.456 139.641 364.084 138.681 363.688C138.093 363.448 137.529 363.196 137.529 362.752C137.529 362.38 137.865 362.212 138.261 362.212C138.837 362.212 139.305 362.524 139.605 362.932L140.373 362.44C140.037 361.828 139.257 361.36 138.381 361.36C137.481 361.36 136.593 361.828 136.593 362.812C136.593 363.784 137.445 364.192 138.177 364.468C138.813 364.708 139.449 364.972 139.449 365.548C139.449 365.98 139.113 366.244 138.573 366.244C137.889 366.244 137.409 365.824 137.073 365.308ZM145.474 364.24C145.474 363.088 146.278 362.26 147.358 362.26C148.246 362.26 149.026 362.728 149.278 363.268V362.068C148.894 361.624 148.114 361.36 147.358 361.36C145.738 361.36 144.502 362.572 144.502 364.24C144.502 365.908 145.738 367.12 147.358 367.12C148.114 367.12 148.894 366.868 149.278 366.412V365.212C149.026 365.752 148.246 366.22 147.358 366.22C146.278 366.22 145.474 365.392 145.474 364.24ZM150.173 364.24C150.173 365.908 151.409 367.12 153.029 367.12C154.649 367.12 155.885 365.908 155.885 364.24C155.885 362.572 154.649 361.36 153.029 361.36C151.409 361.36 150.173 362.572 150.173 364.24ZM151.145 364.24C151.145 363.088 151.949 362.26 153.029 362.26C154.109 362.26 154.913 363.088 154.913 364.24C154.913 365.392 154.109 366.22 153.029 366.22C151.949 366.22 151.145 365.392 151.145 364.24ZM160.623 363.64V367H161.583V363.52C161.583 362.188 160.851 361.36 159.687 361.36C158.967 361.36 158.415 361.672 158.043 362.344V361.48H157.083V367H158.043V363.64C158.043 362.824 158.607 362.26 159.447 362.26C160.215 362.26 160.623 362.728 160.623 363.64ZM162.31 361.48L164.95 367.42L167.59 361.48H166.51L164.95 365.38L163.39 361.48H162.31ZM170.335 367.12C171.511 367.12 172.387 366.652 172.963 365.716L172.183 365.224C171.775 365.896 171.199 366.22 170.455 366.22C169.423 366.22 168.787 365.596 168.703 364.48H173.047C173.047 364.456 173.059 364.312 173.059 364.192C173.059 362.44 172.075 361.36 170.455 361.36C168.823 361.36 167.719 362.524 167.719 364.24C167.719 365.944 168.787 367.12 170.335 367.12ZM170.455 362.2C171.343 362.2 171.943 362.776 172.015 363.664H168.739C168.907 362.728 169.507 362.2 170.455 362.2ZM176.883 362.536L177.411 361.744C177.123 361.444 176.775 361.36 176.379 361.36C175.959 361.36 175.527 361.648 175.215 362.116V361.48H174.255V367H175.215V363.64C175.215 362.848 175.419 362.26 176.139 362.26C176.451 362.26 176.619 362.344 176.883 362.536ZM178.476 365.308L177.72 365.776C178.02 366.436 178.824 367.12 179.928 367.12C181.056 367.12 181.824 366.4 181.824 365.44C181.824 364.456 181.044 364.084 180.084 363.688C179.496 363.448 178.932 363.196 178.932 362.752C178.932 362.38 179.268 362.212 179.664 362.212C180.24 362.212 180.708 362.524 181.008 362.932L181.776 362.44C181.44 361.828 180.66 361.36 179.784 361.36C178.884 361.36 177.996 361.828 177.996 362.812C177.996 363.784 178.848 364.192 179.58 364.468C180.216 364.708 180.852 364.972 180.852 365.548C180.852 365.98 180.516 366.244 179.976 366.244C179.292 366.244 178.812 365.824 178.476 365.308ZM183.256 362.752C183.508 362.56 184.084 362.2 184.912 362.2C185.596 362.2 186.16 362.416 186.16 363.172V363.976C185.836 363.772 185.32 363.568 184.588 363.568C183.232 363.568 182.428 364.276 182.428 365.344C182.428 366.472 183.316 367.12 184.336 367.12C185.008 367.12 185.8 366.844 186.16 366.256V367H187.12V363.04C187.12 361.972 186.244 361.36 184.96 361.36C183.94 361.36 183.208 361.744 182.788 362.044L183.256 362.752ZM183.4 365.296C183.4 364.696 183.808 364.324 184.744 364.324C185.26 364.324 185.716 364.42 186.16 364.636V364.84C186.16 365.716 185.464 366.292 184.588 366.292C183.88 366.292 183.4 365.932 183.4 365.296ZM187.785 361.48V362.38H188.685V367H189.645V362.38H190.545V361.48H189.645V359.56H188.685V361.48H187.785ZM191.388 359.2C191.388 359.56 191.688 359.86 192.048 359.86C192.408 359.86 192.708 359.56 192.708 359.2C192.708 358.84 192.408 358.54 192.048 358.54C191.688 358.54 191.388 358.84 191.388 359.2ZM191.568 361.48V367H192.528V361.48H191.568ZM193.905 364.24C193.905 365.908 195.141 367.12 196.761 367.12C198.381 367.12 199.617 365.908 199.617 364.24C199.617 362.572 198.381 361.36 196.761 361.36C195.141 361.36 193.905 362.572 193.905 364.24ZM194.877 364.24C194.877 363.088 195.681 362.26 196.761 362.26C197.841 362.26 198.645 363.088 198.645 364.24C198.645 365.392 197.841 366.22 196.761 366.22C195.681 366.22 194.877 365.392 194.877 364.24ZM204.356 363.64V367H205.316V363.52C205.316 362.188 204.584 361.36 203.42 361.36C202.7 361.36 202.148 361.672 201.776 362.344V361.48H200.816V367H201.776V363.64C201.776 362.824 202.34 362.26 203.18 362.26C203.948 362.26 204.356 362.728 204.356 363.64Z" fill="#0F1938"/>
<path opacity="0.3" d="M236 39L236 101" stroke="#3749A9" stroke-dasharray="2 2"/>
<path opacity="0.3" d="M236.5 141L236.5 315" stroke="#3749A9" stroke-dasharray="2 2"/>
<path d="M168 338L168 227" stroke="#0F1938"/>
</svg>
