<svg width="207" height="163" viewBox="0 0 207 163" fill="none" xmlns="http://www.w3.org/2000/svg">
<path d="M95.8474 83.0405C104.705 83.0405 111.886 75.8597 111.886 67.0017C111.886 58.1437 104.705 50.9629 95.8474 50.9629C86.9894 50.9629 79.8086 58.1437 79.8086 67.0017C79.8086 75.8597 86.9894 83.0405 95.8474 83.0405Z" fill="#3749A9"/>
<path d="M131.317 42.8833C136.431 42.8833 140.577 38.7375 140.577 33.6233C140.577 28.5091 136.431 24.3633 131.317 24.3633C126.202 24.3633 122.057 28.5091 122.057 33.6233C122.057 38.7375 126.202 42.8833 131.317 42.8833Z" fill="#3749A9"/>
<path d="M168.57 138.297C188.377 138.297 204.434 122.24 204.434 102.433C204.434 82.6261 188.377 66.5693 168.57 66.5693C148.763 66.5693 132.706 82.6261 132.706 102.433C132.706 122.24 148.763 138.297 168.57 138.297Z" fill="#3749A9"/>
<rect x="133" y="144" width="74" height="19" rx="2" fill="#F7FAFC"/>
<path d="M141.52 158C144.516 158 146.56 156.054 146.56 153.1C146.56 150.146 144.516 148.2 141.52 148.2H138.356V158H141.52ZM141.478 149.754C143.41 149.754 144.866 150.888 144.866 153.1C144.866 155.312 143.41 156.446 141.478 156.446H140.05V149.754H141.478ZM148.382 153.24C148.662 153.044 149.418 152.638 150.342 152.638C151.14 152.638 151.714 152.918 151.714 153.702V154.486C151.308 154.262 150.692 154.038 149.852 154.038C148.256 154.038 147.332 154.836 147.332 156.082C147.332 157.398 148.368 158.14 149.586 158.14C150.412 158.14 151.308 157.804 151.714 157.118V158H153.198V153.408C153.198 152.134 152.064 151.406 150.482 151.406C149.278 151.406 148.354 151.826 147.766 152.176L148.382 153.24ZM148.858 155.998C148.858 155.396 149.264 155.032 150.216 155.032C150.762 155.032 151.252 155.13 151.714 155.354V155.452C151.714 156.432 150.958 157.006 150.062 157.006C149.362 157.006 148.858 156.642 148.858 155.998ZM153.925 151.56V152.89H155.003V158H156.501V152.89H157.579V151.56H156.501V149.32H155.003V151.56H153.925ZM161.282 158.14C162.766 158.14 163.844 157.552 164.516 156.39L163.2 155.872C162.78 156.572 162.164 156.894 161.352 156.894C160.302 156.894 159.658 156.25 159.546 155.13H164.558C164.558 155.06 164.572 154.878 164.572 154.71C164.572 152.652 163.382 151.42 161.352 151.42C159.308 151.42 157.992 152.75 157.992 154.78C157.992 156.796 159.294 158.14 161.282 158.14ZM161.338 152.568C162.234 152.568 162.85 153.156 162.92 154.08H159.588C159.77 153.1 160.386 152.568 161.338 152.568ZM170.019 154.08V158H171.573V153.912C171.573 152.358 170.789 151.42 169.333 151.42C168.451 151.42 167.793 151.798 167.387 152.554V151.56H165.875V158H167.387V154.08C167.387 153.212 167.975 152.638 168.829 152.638C169.641 152.638 170.019 153.142 170.019 154.08ZM172.468 151.56V152.89H173.546V158H175.044V152.89H176.122V151.56H175.044V149.32H173.546V151.56H172.468ZM182.723 151.56H181.099L179.433 155.746L177.739 151.56H176.003L178.607 157.244L176.913 161.08H178.523L182.723 151.56ZM184.958 161.08V156.922C185.42 157.72 186.19 158.168 187.156 158.168C188.836 158.168 190.292 156.936 190.292 154.78C190.292 152.624 188.836 151.392 187.156 151.392C186.19 151.392 185.42 151.84 184.958 152.638V151.56H183.432V161.08H184.958ZM188.724 154.78C188.724 156.068 187.842 156.796 186.792 156.796C185.924 156.796 184.958 156.096 184.958 154.78C184.958 153.464 185.924 152.764 186.792 152.764C187.842 152.764 188.724 153.492 188.724 154.78ZM198.828 158.168C200.844 158.168 202.188 157.062 202.188 155.382C202.188 154.052 201.404 153.24 200.228 152.862C201.25 152.456 201.908 151.686 201.908 150.692C201.908 149.25 200.788 148.046 198.898 148.046C197.092 148.046 195.86 149.194 195.86 150.804H197.414C197.414 150.02 198.072 149.446 198.912 149.446C199.794 149.446 200.242 149.992 200.242 150.776C200.242 151.616 199.528 152.316 198.338 152.316V153.562C199.668 153.562 200.522 154.15 200.522 155.2C200.522 156.18 199.85 156.74 198.856 156.74C197.862 156.74 197.106 156.138 197.106 155.2H195.44C195.44 156.81 196.742 158.168 198.828 158.168Z" fill="#0F1938"/>
<rect x="94" width="73" height="19" rx="2" fill="#F7FAFC"/>
<path d="M102.744 14C105.74 14 107.784 12.054 107.784 9.1C107.784 6.146 105.74 4.2 102.744 4.2H99.5804V14H102.744ZM102.702 5.754C104.634 5.754 106.09 6.888 106.09 9.1C106.09 11.312 104.634 12.446 102.702 12.446H101.274V5.754H102.702ZM109.607 9.24C109.887 9.044 110.643 8.638 111.567 8.638C112.365 8.638 112.939 8.918 112.939 9.702V10.486C112.533 10.262 111.917 10.038 111.077 10.038C109.481 10.038 108.557 10.836 108.557 12.082C108.557 13.398 109.593 14.14 110.811 14.14C111.637 14.14 112.533 13.804 112.939 13.118V14H114.423V9.408C114.423 8.134 113.289 7.406 111.707 7.406C110.503 7.406 109.579 7.826 108.991 8.176L109.607 9.24ZM110.083 11.998C110.083 11.396 110.489 11.032 111.441 11.032C111.987 11.032 112.477 11.13 112.939 11.354V11.452C112.939 12.432 112.183 13.006 111.287 13.006C110.587 13.006 110.083 12.642 110.083 11.998ZM115.149 7.56V8.89H116.227V14H117.725V8.89H118.803V7.56H117.725V5.32H116.227V7.56H115.149ZM122.506 14.14C123.99 14.14 125.068 13.552 125.74 12.39L124.424 11.872C124.004 12.572 123.388 12.894 122.576 12.894C121.526 12.894 120.882 12.25 120.77 11.13H125.782C125.782 11.06 125.796 10.878 125.796 10.71C125.796 8.652 124.606 7.42 122.576 7.42C120.532 7.42 119.216 8.75 119.216 10.78C119.216 12.796 120.518 14.14 122.506 14.14ZM122.562 8.568C123.458 8.568 124.074 9.156 124.144 10.08H120.812C120.994 9.1 121.61 8.568 122.562 8.568ZM131.243 10.08V14H132.797V9.912C132.797 8.358 132.013 7.42 130.557 7.42C129.675 7.42 129.017 7.798 128.611 8.554V7.56H127.099V14H128.611V10.08C128.611 9.212 129.199 8.638 130.053 8.638C130.865 8.638 131.243 9.142 131.243 10.08ZM133.692 7.56V8.89H134.77V14H136.268V8.89H137.346V7.56H136.268V5.32H134.77V7.56H133.692ZM143.947 7.56H142.323L140.657 11.746L138.963 7.56H137.227L139.831 13.244L138.137 17.08H139.747L143.947 7.56ZM146.183 17.08V12.922C146.645 13.72 147.415 14.168 148.381 14.168C150.061 14.168 151.517 12.936 151.517 10.78C151.517 8.624 150.061 7.392 148.381 7.392C147.415 7.392 146.645 7.84 146.183 8.638V7.56H144.657V17.08H146.183ZM149.949 10.78C149.949 12.068 149.067 12.796 148.017 12.796C147.149 12.796 146.183 12.096 146.183 10.78C146.183 9.464 147.149 8.764 148.017 8.764C149.067 8.764 149.949 9.492 149.949 10.78ZM156.944 6.496L159.212 5.866V14H160.85V4.046L156.944 4.928V6.496Z" fill="#0F1938"/>
<rect y="57" width="74" height="19" rx="2" fill="#F7FAFC"/>
<path d="M8.33522 71C11.3312 71 13.3752 69.054 13.3752 66.1C13.3752 63.146 11.3312 61.2 8.33522 61.2H5.17122V71H8.33522ZM8.29322 62.754C10.2252 62.754 11.6812 63.888 11.6812 66.1C11.6812 68.312 10.2252 69.446 8.29322 69.446H6.86522V62.754H8.29322ZM15.1976 66.24C15.4776 66.044 16.2336 65.638 17.1576 65.638C17.9556 65.638 18.5296 65.918 18.5296 66.702V67.486C18.1236 67.262 17.5076 67.038 16.6676 67.038C15.0716 67.038 14.1476 67.836 14.1476 69.082C14.1476 70.398 15.1836 71.14 16.4016 71.14C17.2276 71.14 18.1236 70.804 18.5296 70.118V71H20.0136V66.408C20.0136 65.134 18.8796 64.406 17.2976 64.406C16.0936 64.406 15.1696 64.826 14.5816 65.176L15.1976 66.24ZM15.6736 68.998C15.6736 68.396 16.0796 68.032 17.0316 68.032C17.5776 68.032 18.0676 68.13 18.5296 68.354V68.452C18.5296 69.432 17.7736 70.006 16.8776 70.006C16.1776 70.006 15.6736 69.642 15.6736 68.998ZM20.7403 64.56V65.89H21.8183V71H23.3163V65.89H24.3943V64.56H23.3163V62.32H21.8183V64.56H20.7403ZM28.0971 71.14C29.5811 71.14 30.6591 70.552 31.3311 69.39L30.0151 68.872C29.5951 69.572 28.9791 69.894 28.1671 69.894C27.1171 69.894 26.4731 69.25 26.3611 68.13H31.3731C31.3731 68.06 31.3871 67.878 31.3871 67.71C31.3871 65.652 30.1971 64.42 28.1671 64.42C26.1231 64.42 24.8071 65.75 24.8071 67.78C24.8071 69.796 26.1091 71.14 28.0971 71.14ZM28.1531 65.568C29.0491 65.568 29.6651 66.156 29.7351 67.08H26.4031C26.5851 66.1 27.2011 65.568 28.1531 65.568ZM36.8343 67.08V71H38.3883V66.912C38.3883 65.358 37.6043 64.42 36.1483 64.42C35.2663 64.42 34.6083 64.798 34.2023 65.554V64.56H32.6903V71H34.2023V67.08C34.2023 66.212 34.7903 65.638 35.6443 65.638C36.4563 65.638 36.8343 66.142 36.8343 67.08ZM39.2832 64.56V65.89H40.3612V71H41.8592V65.89H42.9372V64.56H41.8592V62.32H40.3612V64.56H39.2832ZM49.538 64.56H47.914L46.248 68.746L44.554 64.56H42.818L45.422 70.244L43.728 74.08H45.338L49.538 64.56ZM51.7735 74.08V69.922C52.2355 70.72 53.0055 71.168 53.9715 71.168C55.6515 71.168 57.1075 69.936 57.1075 67.78C57.1075 65.624 55.6515 64.392 53.9715 64.392C53.0055 64.392 52.2355 64.84 51.7735 65.638V64.56H50.2475V74.08H51.7735ZM55.5395 67.78C55.5395 69.068 54.6575 69.796 53.6075 69.796C52.7395 69.796 51.7735 69.096 51.7735 67.78C51.7735 66.464 52.7395 65.764 53.6075 65.764C54.6575 65.764 55.5395 66.492 55.5395 67.78ZM61.7652 71H69.2412V69.46H64.9992L67.7712 66.73C68.5692 65.974 69.1152 64.994 69.1152 63.972C69.1152 62.67 68.0372 61.032 65.7692 61.032C63.5292 61.032 62.2972 62.586 62.2972 64.672H63.9352C63.9352 63.356 64.6212 62.516 65.7412 62.516C66.8192 62.516 67.4072 63.286 67.4072 64.056C67.4072 64.84 66.9872 65.484 66.2872 66.226L61.7652 71Z" fill="#0F1938"/>
</svg>
