<svg width="211" height="163" viewBox="0 0 211 163" fill="none" xmlns="http://www.w3.org/2000/svg">
<path d="M98.8474 83.0405C107.705 83.0405 114.886 75.8597 114.886 67.0017C114.886 58.1437 107.705 50.9629 98.8474 50.9629C89.9894 50.9629 82.8086 58.1437 82.8086 67.0017C82.8086 75.8597 89.9894 83.0405 98.8474 83.0405Z" fill="#3749A9"/>
<path d="M134.317 42.8833C139.431 42.8833 143.577 38.7375 143.577 33.6233C143.577 28.5091 139.431 24.3633 134.317 24.3633C129.202 24.3633 125.057 28.5091 125.057 33.6233C125.057 38.7375 129.202 42.8833 134.317 42.8833Z" fill="#3749A9"/>
<path d="M171.57 138.297C191.377 138.297 207.434 122.24 207.434 102.433C207.434 82.6261 191.377 66.5693 171.57 66.5693C151.763 66.5693 135.706 82.6261 135.706 102.433C135.706 122.24 151.763 138.297 171.57 138.297Z" fill="#3749A9"/>
<rect x="134" y="144" width="77" height="19" rx="2" fill="#F7FAFC"/>
<path d="M142.278 158C145.274 158 147.318 156.054 147.318 153.1C147.318 150.146 145.274 148.2 142.278 148.2H139.114V158H142.278ZM142.236 149.754C144.168 149.754 145.624 150.888 145.624 153.1C145.624 155.312 144.168 156.446 142.236 156.446H140.808V149.754H142.236ZM149.141 153.24C149.421 153.044 150.177 152.638 151.101 152.638C151.899 152.638 152.473 152.918 152.473 153.702V154.486C152.067 154.262 151.451 154.038 150.611 154.038C149.015 154.038 148.091 154.836 148.091 156.082C148.091 157.398 149.127 158.14 150.345 158.14C151.171 158.14 152.067 157.804 152.473 157.118V158H153.957V153.408C153.957 152.134 152.823 151.406 151.241 151.406C150.037 151.406 149.113 151.826 148.525 152.176L149.141 153.24ZM149.617 155.998C149.617 155.396 150.023 155.032 150.975 155.032C151.521 155.032 152.011 155.13 152.473 155.354V155.452C152.473 156.432 151.717 157.006 150.821 157.006C150.121 157.006 149.617 156.642 149.617 155.998ZM154.683 151.56V152.89H155.761V158H157.259V152.89H158.337V151.56H157.259V149.32H155.761V151.56H154.683ZM159.716 153.24C159.996 153.044 160.752 152.638 161.676 152.638C162.474 152.638 163.048 152.918 163.048 153.702V154.486C162.642 154.262 162.026 154.038 161.186 154.038C159.59 154.038 158.666 154.836 158.666 156.082C158.666 157.398 159.702 158.14 160.92 158.14C161.746 158.14 162.642 157.804 163.048 157.118V158H164.532V153.408C164.532 152.134 163.398 151.406 161.816 151.406C160.612 151.406 159.688 151.826 159.1 152.176L159.716 153.24ZM160.192 155.998C160.192 155.396 160.598 155.032 161.55 155.032C162.096 155.032 162.586 155.13 163.048 155.354V155.452C163.048 156.432 162.292 157.006 161.396 157.006C160.696 157.006 160.192 156.642 160.192 155.998ZM169.316 151.56V152.89H170.394V158H171.892V152.89H172.97V151.56H171.892V149.32H170.394V151.56H169.316ZM179.571 151.56H177.947L176.281 155.746L174.587 151.56H172.851L175.455 157.244L173.761 161.08H175.371L179.571 151.56ZM181.806 161.08V156.922C182.268 157.72 183.038 158.168 184.004 158.168C185.684 158.168 187.14 156.936 187.14 154.78C187.14 152.624 185.684 151.392 184.004 151.392C183.038 151.392 182.268 151.84 181.806 152.638V151.56H180.28V161.08H181.806ZM185.572 154.78C185.572 156.068 184.69 156.796 183.64 156.796C182.772 156.796 181.806 156.096 181.806 154.78C181.806 153.464 182.772 152.764 183.64 152.764C184.69 152.764 185.572 153.492 185.572 154.78ZM191.227 158.14C192.711 158.14 193.789 157.552 194.461 156.39L193.145 155.872C192.725 156.572 192.109 156.894 191.297 156.894C190.247 156.894 189.603 156.25 189.491 155.13H194.503C194.503 155.06 194.517 154.878 194.517 154.71C194.517 152.652 193.327 151.42 191.297 151.42C189.253 151.42 187.937 152.75 187.937 154.78C187.937 156.796 189.239 158.14 191.227 158.14ZM191.283 152.568C192.179 152.568 192.795 153.156 192.865 154.08H189.533C189.715 153.1 190.331 152.568 191.283 152.568ZM203.069 158.168C205.085 158.168 206.429 157.062 206.429 155.382C206.429 154.052 205.645 153.24 204.469 152.862C205.491 152.456 206.149 151.686 206.149 150.692C206.149 149.25 205.029 148.046 203.139 148.046C201.333 148.046 200.101 149.194 200.101 150.804H201.655C201.655 150.02 202.313 149.446 203.153 149.446C204.035 149.446 204.483 149.992 204.483 150.776C204.483 151.616 203.769 152.316 202.579 152.316V153.562C203.909 153.562 204.763 154.15 204.763 155.2C204.763 156.18 204.091 156.74 203.097 156.74C202.103 156.74 201.347 156.138 201.347 155.2H199.681C199.681 156.81 200.983 158.168 203.069 158.168Z" fill="#0F1938"/>
<rect x="96" width="76" height="19" rx="2" fill="#F7FAFC"/>
<path d="M104.503 14C107.499 14 109.543 12.054 109.543 9.1C109.543 6.146 107.499 4.2 104.503 4.2H101.339V14H104.503ZM104.461 5.754C106.393 5.754 107.849 6.888 107.849 9.1C107.849 11.312 106.393 12.446 104.461 12.446H103.033V5.754H104.461ZM111.365 9.24C111.645 9.044 112.401 8.638 113.325 8.638C114.123 8.638 114.697 8.918 114.697 9.702V10.486C114.291 10.262 113.675 10.038 112.835 10.038C111.239 10.038 110.315 10.836 110.315 12.082C110.315 13.398 111.351 14.14 112.569 14.14C113.395 14.14 114.291 13.804 114.697 13.118V14H116.181V9.408C116.181 8.134 115.047 7.406 113.465 7.406C112.261 7.406 111.337 7.826 110.749 8.176L111.365 9.24ZM111.841 11.998C111.841 11.396 112.247 11.032 113.199 11.032C113.745 11.032 114.235 11.13 114.697 11.354V11.452C114.697 12.432 113.941 13.006 113.045 13.006C112.345 13.006 111.841 12.642 111.841 11.998ZM116.908 7.56V8.89H117.986V14H119.484V8.89H120.562V7.56H119.484V5.32H117.986V7.56H116.908ZM121.941 9.24C122.221 9.044 122.977 8.638 123.901 8.638C124.699 8.638 125.273 8.918 125.273 9.702V10.486C124.867 10.262 124.251 10.038 123.411 10.038C121.815 10.038 120.891 10.836 120.891 12.082C120.891 13.398 121.927 14.14 123.145 14.14C123.971 14.14 124.867 13.804 125.273 13.118V14H126.757V9.408C126.757 8.134 125.623 7.406 124.041 7.406C122.837 7.406 121.913 7.826 121.325 8.176L121.941 9.24ZM122.417 11.998C122.417 11.396 122.823 11.032 123.775 11.032C124.321 11.032 124.811 11.13 125.273 11.354V11.452C125.273 12.432 124.517 13.006 123.621 13.006C122.921 13.006 122.417 12.642 122.417 11.998ZM131.541 7.56V8.89H132.619V14H134.117V8.89H135.195V7.56H134.117V5.32H132.619V7.56H131.541ZM141.795 7.56H140.171L138.505 11.746L136.811 7.56H135.075L137.679 13.244L135.985 17.08H137.595L141.795 7.56ZM144.031 17.08V12.922C144.493 13.72 145.263 14.168 146.229 14.168C147.909 14.168 149.365 12.936 149.365 10.78C149.365 8.624 147.909 7.392 146.229 7.392C145.263 7.392 144.493 7.84 144.031 8.638V7.56H142.505V17.08H144.031ZM147.797 10.78C147.797 12.068 146.915 12.796 145.865 12.796C144.997 12.796 144.031 12.096 144.031 10.78C144.031 9.464 144.997 8.764 145.865 8.764C146.915 8.764 147.797 9.492 147.797 10.78ZM153.451 14.14C154.935 14.14 156.013 13.552 156.685 12.39L155.369 11.872C154.949 12.572 154.333 12.894 153.521 12.894C152.471 12.894 151.827 12.25 151.715 11.13H156.727C156.727 11.06 156.741 10.878 156.741 10.71C156.741 8.652 155.551 7.42 153.521 7.42C151.477 7.42 150.161 8.75 150.161 10.78C150.161 12.796 151.463 14.14 153.451 14.14ZM153.507 8.568C154.403 8.568 155.019 9.156 155.089 10.08H151.757C151.939 9.1 152.555 8.568 153.507 8.568ZM162.186 6.496L164.454 5.866V14H166.092V4.046L162.186 4.928V6.496Z" fill="#0F1938"/>
<rect y="57" width="78" height="19" rx="2" fill="#F7FAFC"/>
<path d="M8.5937 71C11.5897 71 13.6337 69.054 13.6337 66.1C13.6337 63.146 11.5897 61.2 8.5937 61.2H5.4297V71H8.5937ZM8.5517 62.754C10.4837 62.754 11.9397 63.888 11.9397 66.1C11.9397 68.312 10.4837 69.446 8.5517 69.446H7.1237V62.754H8.5517ZM15.4561 66.24C15.7361 66.044 16.4921 65.638 17.4161 65.638C18.2141 65.638 18.7881 65.918 18.7881 66.702V67.486C18.3821 67.262 17.7661 67.038 16.9261 67.038C15.3301 67.038 14.4061 67.836 14.4061 69.082C14.4061 70.398 15.4421 71.14 16.6601 71.14C17.4861 71.14 18.3821 70.804 18.7881 70.118V71H20.2721V66.408C20.2721 65.134 19.1381 64.406 17.5561 64.406C16.3521 64.406 15.4281 64.826 14.8401 65.176L15.4561 66.24ZM15.9321 68.998C15.9321 68.396 16.3381 68.032 17.2901 68.032C17.8361 68.032 18.3261 68.13 18.7881 68.354V68.452C18.7881 69.432 18.0321 70.006 17.1361 70.006C16.4361 70.006 15.9321 69.642 15.9321 68.998ZM20.9988 64.56V65.89H22.0768V71H23.5748V65.89H24.6528V64.56H23.5748V62.32H22.0768V64.56H20.9988ZM26.0316 66.24C26.3116 66.044 27.0676 65.638 27.9916 65.638C28.7896 65.638 29.3636 65.918 29.3636 66.702V67.486C28.9576 67.262 28.3416 67.038 27.5016 67.038C25.9056 67.038 24.9816 67.836 24.9816 69.082C24.9816 70.398 26.0176 71.14 27.2356 71.14C28.0616 71.14 28.9576 70.804 29.3636 70.118V71H30.8476V66.408C30.8476 65.134 29.7136 64.406 28.1316 64.406C26.9276 64.406 26.0036 64.826 25.4156 65.176L26.0316 66.24ZM26.5076 68.998C26.5076 68.396 26.9136 68.032 27.8656 68.032C28.4116 68.032 28.9016 68.13 29.3636 68.354V68.452C29.3636 69.432 28.6076 70.006 27.7116 70.006C27.0116 70.006 26.5076 69.642 26.5076 68.998ZM35.6315 64.56V65.89H36.7095V71H38.2075V65.89H39.2855V64.56H38.2075V62.32H36.7095V64.56H35.6315ZM45.8863 64.56H44.2623L42.5963 68.746L40.9023 64.56H39.1663L41.7703 70.244L40.0763 74.08H41.6863L45.8863 64.56ZM48.1218 74.08V69.922C48.5838 70.72 49.3538 71.168 50.3198 71.168C51.9998 71.168 53.4558 69.936 53.4558 67.78C53.4558 65.624 51.9998 64.392 50.3198 64.392C49.3538 64.392 48.5838 64.84 48.1218 65.638V64.56H46.5958V74.08H48.1218ZM51.8878 67.78C51.8878 69.068 51.0058 69.796 49.9558 69.796C49.0878 69.796 48.1218 69.096 48.1218 67.78C48.1218 66.464 49.0878 65.764 49.9558 65.764C51.0058 65.764 51.8878 66.492 51.8878 67.78ZM57.5423 71.14C59.0263 71.14 60.1043 70.552 60.7763 69.39L59.4603 68.872C59.0403 69.572 58.4243 69.894 57.6123 69.894C56.5623 69.894 55.9183 69.25 55.8063 68.13H60.8183C60.8183 68.06 60.8323 67.878 60.8323 67.71C60.8323 65.652 59.6423 64.42 57.6123 64.42C55.5683 64.42 54.2523 65.75 54.2523 67.78C54.2523 69.796 55.5543 71.14 57.5423 71.14ZM57.5983 65.568C58.4943 65.568 59.1103 66.156 59.1803 67.08H55.8483C56.0303 66.1 56.6463 65.568 57.5983 65.568ZM65.5068 71H72.9828V69.46H68.7408L71.5128 66.73C72.3108 65.974 72.8568 64.994 72.8568 63.972C72.8568 62.67 71.7788 61.032 69.5108 61.032C67.2708 61.032 66.0388 62.586 66.0388 64.672H67.6768C67.6768 63.356 68.3628 62.516 69.4828 62.516C70.5608 62.516 71.1488 63.286 71.1488 64.056C71.1488 64.84 70.7288 65.484 70.0288 66.226L65.5068 71Z" fill="#0F1938"/>
</svg>
