<svg width="80" height="80" viewBox="0 0 80 80" fill="none" xmlns="http://www.w3.org/2000/svg">
<circle cx="40" cy="40" r="40" fill="url(#paint0_linear_7403:21949)"/>
<path d="M49.032 62.4188C47.8916 61.1261 46.4893 60.0908 44.9181 59.3817C43.3469 58.6726 41.6428 58.3058 39.9191 58.3058C38.1953 58.3058 36.4912 58.6726 34.92 59.3817C33.3488 60.0908 31.9465 61.1261 30.8061 62.4188C28.7093 64.9994 24.6772 61.6124 26.9352 59.0316C28.5128 57.115 30.4952 55.5714 32.7401 54.5117C34.985 53.452 37.4366 52.9024 39.9191 52.9024C42.4015 52.9024 44.8531 53.452 47.098 54.5117C49.3429 55.5714 51.3253 57.115 52.903 59.0316C53.1261 59.2857 53.297 59.5813 53.4058 59.9014C53.5145 60.2216 53.5592 60.56 53.537 60.8975C53.5148 61.2349 53.4262 61.5646 53.2765 61.8678C53.1267 62.171 52.9187 62.4416 52.6642 62.6643C52.4097 62.887 52.1138 63.0573 51.7935 63.1655C51.4731 63.2737 51.1346 63.3176 50.7972 63.2948C50.4599 63.272 50.1303 63.1829 49.8274 63.0326C49.5245 62.8823 49.2542 62.6737 49.032 62.4188Z" fill="url(#paint1_linear_7403:21949)"/>
<path d="M57.9996 37.3604C57.9901 35.9945 57.4433 34.6872 56.4774 33.7213C55.5115 32.7554 54.2041 32.2086 52.8382 32.1992C51.481 32.236 50.1894 32.7916 49.2294 33.7516C48.2693 34.7117 47.7137 36.0032 47.6769 37.3604C47.6863 38.7264 48.2331 40.0338 49.199 40.9997C50.1649 41.9657 51.4722 42.5125 52.8382 42.5219C53.5184 42.5308 54.1936 42.4033 54.8238 42.147C55.454 41.8908 56.0265 41.5109 56.5076 41.0299C56.9886 40.5488 57.3685 39.9763 57.6248 39.3461C57.881 38.7159 58.0084 38.0407 57.9996 37.3604ZM27.0317 42.5219C27.712 42.5307 28.3871 42.4033 29.0173 42.147C29.6475 41.8908 30.22 41.5109 30.7011 41.0298C31.1821 40.5488 31.5619 39.9763 31.8181 39.346C32.0744 38.7158 32.2018 38.0407 32.193 37.3604C32.1836 35.9945 31.6368 34.6872 30.6709 33.7213C29.705 32.7554 28.3976 32.2086 27.0317 32.1992C25.6744 32.236 24.3829 32.7916 23.4228 33.7516C22.4627 34.7117 21.9071 36.0032 21.8703 37.3604C21.8797 38.7264 22.4265 40.0339 23.3924 40.9998C24.3583 41.9657 25.6657 42.5125 27.0317 42.5219Z" fill="url(#paint2_linear_7403:21949)"/>
<path d="M18.6377 32.0374C17.984 31.8424 17.4345 31.3956 17.1102 30.7954C16.7858 30.1952 16.7131 29.4907 16.9081 28.837C17.1032 28.1832 17.55 27.6337 18.1502 27.3093C18.7504 26.985 19.4548 26.9124 20.1086 27.1074L33.0812 30.9915C33.735 31.1866 34.2845 31.6333 34.6088 32.2335C34.9332 32.8337 35.0059 33.5382 34.8109 34.192C34.6158 34.8457 34.169 35.3953 33.5688 35.7196C32.9686 36.044 32.2642 36.1166 31.6104 35.9216L18.6377 32.0374Z" fill="url(#paint3_linear_7403:21949)"/>
<path d="M61.4406 32.0373C61.7651 31.9414 62.0674 31.7824 62.3304 31.5694C62.5933 31.3565 62.8116 31.0938 62.9728 30.7963C63.1341 30.4988 63.235 30.1725 63.2699 29.8359C63.3049 29.4994 63.2731 29.1592 63.1763 28.835C63.0796 28.5108 62.9198 28.2088 62.7062 27.9465C62.4926 27.6841 62.2293 27.4664 61.9314 27.3059C61.6336 27.1454 61.307 27.0452 60.9704 27.0111C60.6337 26.9771 60.2936 27.0098 59.9696 27.1073L46.9971 30.9914C46.6734 31.088 46.3719 31.2474 46.1098 31.4606C45.8477 31.6737 45.63 31.9363 45.4694 32.2334C45.3088 32.5306 45.2084 32.8566 45.1737 33.1926C45.1391 33.5286 45.1709 33.8682 45.2675 34.1919C45.3641 34.5156 45.5235 34.8171 45.7366 35.0792C45.9497 35.3413 46.2122 35.5589 46.5094 35.7195C46.8066 35.8801 47.1326 35.9806 47.4687 36.0152C47.8047 36.0499 48.1442 36.0181 48.4679 35.9215L61.4406 32.0373Z" fill="url(#paint4_linear_7403:21949)"/>
<defs>
<linearGradient id="paint0_linear_7403:21949" x1="40" y1="-2.68512e-07" x2="40" y2="80" gradientUnits="userSpaceOnUse">
<stop stop-color="#DB3F02"/>
<stop offset="0.465625" stop-color="#FF9F1E"/>
<stop offset="0.68125" stop-color="#FFA01E"/>
<stop offset="1" stop-color="#E96A13"/>
</linearGradient>
<linearGradient id="paint1_linear_7403:21949" x1="39.9055" y1="52.9024" x2="39.9055" y2="63.3413" gradientUnits="userSpaceOnUse">
<stop stop-color="#3D0D00"/>
<stop offset="1" stop-color="#7C2F06"/>
</linearGradient>
<linearGradient id="paint2_linear_7403:21949" x1="39.9352" y1="32.1992" x2="39.9352" y2="42.5223" gradientUnits="userSpaceOnUse">
<stop stop-color="#181A32"/>
<stop offset="1" stop-color="#384268"/>
</linearGradient>
<linearGradient id="paint3_linear_7403:21949" x1="25.8595" y1="27" x2="25.8595" y2="36.0289" gradientUnits="userSpaceOnUse">
<stop stop-color="#D34900"/>
<stop offset="1" stop-color="#983000"/>
</linearGradient>
<linearGradient id="paint4_linear_7403:21949" x1="54.2219" y1="26.9981" x2="54.2219" y2="36.0288" gradientUnits="userSpaceOnUse">
<stop stop-color="#D34900"/>
<stop offset="1" stop-color="#983000"/>
</linearGradient>
</defs>
</svg>
