<svg width="80" height="87" viewBox="0 0 80 87" fill="none" xmlns="http://www.w3.org/2000/svg">
<circle cx="40" cy="40" r="40" fill="url(#paint0_linear_7403:21956)"/>
<path d="M53.7643 49.3887C50.0813 44.061 42.8512 42.9549 37.2291 46.2511L35.1201 47.5332L33.8479 45.3451C30.7139 39.7027 23.8127 37.0223 17.9592 39.7947C11.2506 42.9845 8.77393 51.1873 12.2897 57.4861L24.4906 79.227C25.2307 80.626 27.0513 81.1139 28.3918 80.2724L49.8286 67.5447C56.0227 63.8476 57.9792 55.5054 53.7643 49.3887Z" fill="url(#paint1_linear_7403:21956)"/>
<path d="M58.387 32.273C56.1517 34.988 53.3448 37.1763 50.1665 38.6818C46.9882 40.1872 43.5169 40.9729 40.0001 40.9826C39.6545 40.9932 39.3103 40.9343 38.9879 40.8094C38.6655 40.6845 38.3715 40.4961 38.1234 40.2554C37.8752 40.0147 37.6778 39.7267 37.543 39.4083C37.4083 39.0899 37.3389 38.7477 37.3389 38.402C37.3389 38.0562 37.4083 37.7141 37.543 37.3957C37.6778 37.0773 37.8752 36.7892 38.1234 36.5485C38.3715 36.3078 38.6655 36.1195 38.9879 35.9946C39.3103 35.8696 39.6545 35.8108 40.0001 35.8214C42.7767 35.7804 45.5115 35.1393 48.0172 33.9421C50.5228 32.745 52.7398 31.0201 54.5162 28.8858C54.7382 28.6301 55.0085 28.4208 55.3115 28.2698C55.6146 28.1189 55.9445 28.0292 56.2823 28.006C56.6201 27.9829 56.9591 28.0266 57.2799 28.1348C57.6007 28.243 57.8971 28.4134 58.1519 28.6364C58.4067 28.8594 58.6149 29.1304 58.7647 29.4341C58.9145 29.7377 59.0029 30.068 59.0247 30.4059C59.0466 30.7437 59.0015 31.0826 58.892 31.403C58.7826 31.7234 58.611 32.0191 58.387 32.273Z" fill="url(#paint2_linear_7403:21956)"/>
<path d="M18.8281 23.6641C19.2969 17.1017 23.8282 12.4141 27.5782 12.4141C31.172 12.4141 35.7032 17.1017 36.3282 23.6641C36.3381 23.9456 36.2522 24.2221 36.0846 24.4485C35.9169 24.6749 35.6774 24.8376 35.4052 24.9102C35.1331 24.9828 34.8443 24.9609 34.5862 24.848C34.3281 24.7352 34.116 24.5382 33.9844 24.2891L32.422 21.6328C32.0172 20.661 31.3338 19.8308 30.4579 19.2468C29.582 18.6627 28.5528 18.3511 27.5001 18.3511C26.4473 18.3511 25.4182 18.6627 24.5423 19.2468C23.6664 19.8308 22.9829 20.661 22.5782 21.6328L21.172 24.2891C21.0467 24.5471 20.8355 24.7535 20.5746 24.8729C20.3138 24.9922 20.0195 25.017 19.7423 24.9431C19.4652 24.8692 19.2223 24.7012 19.0555 24.4678C18.8887 24.2344 18.8083 23.9502 18.8281 23.6641ZM58.9844 24.2891L57.422 21.6328C57.0172 20.661 56.3338 19.8308 55.4579 19.2468C54.582 18.6627 53.5528 18.3511 52.5001 18.3511C51.4473 18.3511 50.4182 18.6627 49.5423 19.2468C48.6664 19.8308 47.9829 20.661 47.5782 21.6328L46.172 24.2891C46.0467 24.5471 45.8355 24.7535 45.5746 24.8729C45.3138 24.9922 45.0195 25.017 44.7423 24.9431C44.4652 24.8692 44.2223 24.7012 44.0555 24.4678C43.8887 24.2344 43.8083 23.9502 43.8282 23.6641C44.297 17.1017 48.8282 12.4141 52.5782 12.4141C56.172 12.4141 60.7032 17.1017 61.3282 23.6641C61.3381 23.9456 61.2522 24.2221 61.0846 24.4485C60.9169 24.6749 60.6774 24.8376 60.4053 24.9102C60.1331 24.9828 59.8443 24.9609 59.5862 24.848C59.3281 24.7352 59.116 24.5382 58.9844 24.2891Z" fill="url(#paint3_linear_7403:21956)"/>
<defs>
<linearGradient id="paint0_linear_7403:21956" x1="40" y1="-2.68512e-07" x2="40" y2="80" gradientUnits="userSpaceOnUse">
<stop stop-color="#FFE76C"/>
<stop offset="1" stop-color="#F79E33"/>
</linearGradient>
<linearGradient id="paint1_linear_7403:21956" x1="36.5688" y1="41.9528" x2="26.2161" y2="80.5899" gradientUnits="userSpaceOnUse">
<stop stop-color="#F44361"/>
<stop offset="0.317708" stop-color="#F85A79"/>
<stop offset="1" stop-color="#D4142D"/>
</linearGradient>
<linearGradient id="paint2_linear_7403:21956" x1="57" y1="28.1543" x2="42" y2="40.1543" gradientUnits="userSpaceOnUse">
<stop stop-color="#4C2513"/>
<stop offset="1" stop-color="#8A3B14"/>
</linearGradient>
<linearGradient id="paint3_linear_7403:21956" x1="40.0771" y1="12.4141" x2="40.0771" y2="24.9848" gradientUnits="userSpaceOnUse">
<stop offset="0.165935" stop-color="#202441"/>
<stop offset="1" stop-color="#373F64"/>
</linearGradient>
</defs>
</svg>
