<svg width="80" height="80" viewBox="0 0 80 80" fill="none" xmlns="http://www.w3.org/2000/svg">
<circle cx="40" cy="40" r="40" fill="url(#paint0_linear_7403:21942)"/>
<path d="M25.4838 62.4203C27.2602 60.286 29.4773 58.5611 31.9829 57.364C34.4885 56.1668 37.2234 55.5257 40 55.4847C40.3456 55.4953 40.6897 55.4364 41.0121 55.3115C41.3345 55.1866 41.6285 54.9983 41.8767 54.7576C42.1249 54.5169 42.3222 54.2288 42.4569 53.9104C42.5917 53.592 42.6611 53.2499 42.6611 52.9041C42.6611 52.5584 42.5917 52.2162 42.4569 51.8978C42.3222 51.5794 42.1249 51.2913 41.8767 51.0506C41.6285 50.8099 41.3345 50.6216 41.0121 50.4967C40.6897 50.3718 40.3456 50.3129 40 50.3235C36.4832 50.3332 33.0118 51.1188 29.8335 52.6243C26.6552 54.1298 23.8483 56.3181 21.6129 59.0331C21.389 59.287 21.2173 59.5827 21.1079 59.9031C20.9985 60.2235 20.9535 60.5624 20.9753 60.9002C20.9972 61.2381 21.0854 61.5684 21.2352 61.872C21.385 62.1757 21.5933 62.4467 21.8481 62.6697C22.1029 62.8927 22.3993 63.0631 22.7201 63.1713C23.0409 63.2795 23.38 63.3232 23.7178 63.3001C24.0556 63.2769 24.3854 63.1872 24.6885 63.0363C24.9915 62.8853 25.2618 62.676 25.4838 62.4203Z" fill="url(#paint1_linear_7403:21942)"/>
<path d="M57.9996 32.2589C57.9901 30.8929 57.4433 29.5856 56.4774 28.6197C55.5115 27.6538 54.2041 27.107 52.8382 27.0977C51.481 27.1344 50.1894 27.69 49.2294 28.65C48.2693 29.6101 47.7137 30.9016 47.6769 32.2589C47.6863 33.6248 48.2331 34.9322 49.199 35.8981C50.1649 36.8641 51.4722 37.4109 52.8382 37.4203C53.5184 37.4292 54.1936 37.3017 54.8238 37.0454C55.454 36.7892 56.0265 36.4093 56.5076 35.9283C56.9886 35.4472 57.3685 34.8747 57.6248 34.2445C57.881 33.6143 58.0084 32.9391 57.9996 32.2589ZM27.0317 37.4203C27.712 37.4291 28.3871 37.3017 29.0173 37.0454C29.6475 36.7892 30.2201 36.4093 30.7011 35.9282C31.1821 35.4472 31.5619 34.8747 31.8182 34.2444C32.0744 33.6142 32.2019 32.9391 32.193 32.2589C32.1836 30.8929 31.6368 29.5856 30.6709 28.6197C29.705 27.6538 28.3977 27.107 27.0317 27.0977C25.6745 27.1344 24.3829 27.69 23.4228 28.65C22.4627 29.6101 21.9072 30.9016 21.8703 32.2589C21.8797 33.6248 22.4265 34.9323 23.3924 35.8982C24.3584 36.8641 25.6657 37.4109 27.0317 37.4203Z" fill="url(#paint2_linear_7403:21942)"/>
<path d="M55.4836 65.8059C56.4916 65.8237 57.4931 65.6409 58.4298 65.2683C59.3666 64.8956 60.2199 64.3404 60.9402 63.6351C61.6606 62.9297 62.2336 62.0883 62.6259 61.1596C63.0182 60.2309 63.2221 59.2335 63.2256 58.2253C63.2256 54.9995 58.7094 48.548 56.6128 45.806C56.5064 45.6221 56.3536 45.4693 56.1696 45.3632C55.9855 45.257 55.7768 45.2012 55.5644 45.2012C55.3519 45.2012 55.1432 45.257 54.9592 45.3632C54.7752 45.4693 54.6223 45.6221 54.516 45.806C52.4192 48.548 47.7418 54.9995 47.7418 58.2253C47.776 60.2531 48.6078 62.1857 50.0568 63.6046C51.5059 65.0235 53.4556 65.8143 55.4836 65.8059Z" fill="url(#paint3_linear_7403:21942)"/>
<defs>
<linearGradient id="paint0_linear_7403:21942" x1="40" y1="-2.68512e-07" x2="40" y2="80" gradientUnits="userSpaceOnUse">
<stop stop-color="#FFE76C"/>
<stop offset="1" stop-color="#F79E33"/>
</linearGradient>
<linearGradient id="paint1_linear_7403:21942" x1="39" y1="50" x2="24" y2="64" gradientUnits="userSpaceOnUse">
<stop stop-color="#4F2512"/>
<stop offset="1" stop-color="#83380D"/>
</linearGradient>
<linearGradient id="paint2_linear_7403:21942" x1="39.9352" y1="27.0977" x2="39.9352" y2="37.4207" gradientUnits="userSpaceOnUse">
<stop stop-color="#181A32"/>
<stop offset="1" stop-color="#384268"/>
</linearGradient>
<linearGradient id="paint3_linear_7403:21942" x1="55.4837" y1="45.2012" x2="55.4837" y2="65.8071" gradientUnits="userSpaceOnUse">
<stop stop-color="#1172BB"/>
<stop offset="1" stop-color="#2BC9FE"/>
</linearGradient>
</defs>
</svg>
