<svg width="304" height="250" viewBox="0 0 304 250" fill="none" xmlns="http://www.w3.org/2000/svg">
<path d="M300 227H231V246H300V227Z" fill="#FE8988"/>
<path d="M300 154H231V221H300V154Z" fill="#C5271E"/>
<rect x="4" y="4" width="221" height="180" fill="#60E6DE"/>
<rect x="4" y="190" width="221" height="56" fill="#EC453D"/>
<rect x="231" y="4" width="69" height="144" fill="#A9B6C6"/>
<path d="M235.66 163.5C235.66 162.01 236.77 161.03 238.05 161.03C239.04 161.03 239.76 161.46 240.24 162.03V160.62C239.66 160.14 239.03 159.88 238.01 159.88C235.95 159.88 234.38 161.37 234.38 163.5C234.38 165.63 235.95 167.12 238.01 167.12C239.03 167.12 239.66 166.86 240.24 166.38V164.97C239.76 165.54 239.04 165.97 238.05 165.97C236.77 165.97 235.66 164.99 235.66 163.5ZM244.564 164.2V167H245.654V164.05C245.654 162.88 245.104 162.27 244.074 162.27C243.434 162.27 242.954 162.59 242.684 163.09V159.2H241.604V167H242.684V164.2C242.684 163.59 243.104 163.17 243.714 163.17C244.304 163.17 244.564 163.53 244.564 164.2ZM246.984 160.57C246.984 160.94 247.284 161.23 247.664 161.23C248.044 161.23 248.344 160.94 248.344 160.57C248.344 160.2 248.044 159.91 247.664 159.91C247.284 159.91 246.984 160.2 246.984 160.57ZM247.134 162.4V167H248.194V162.4H247.134ZM252.64 164.2V167H253.75V164.08C253.75 162.97 253.19 162.3 252.15 162.3C251.52 162.3 251.05 162.57 250.76 163.11V162.4H249.68V167H250.76V164.2C250.76 163.58 251.18 163.17 251.79 163.17C252.37 163.17 252.64 163.53 252.64 164.2ZM255.469 163.6C255.669 163.46 256.209 163.17 256.869 163.17C257.439 163.17 257.849 163.37 257.849 163.93V164.49C257.559 164.33 257.119 164.17 256.519 164.17C255.379 164.17 254.719 164.74 254.719 165.63C254.719 166.57 255.459 167.1 256.329 167.1C256.919 167.1 257.559 166.86 257.849 166.37V167H258.909V163.72C258.909 162.81 258.099 162.29 256.969 162.29C256.109 162.29 255.449 162.59 255.029 162.84L255.469 163.6ZM255.809 165.57C255.809 165.14 256.099 164.88 256.779 164.88C257.169 164.88 257.519 164.95 257.849 165.11V165.18C257.849 165.88 257.309 166.29 256.669 166.29C256.169 166.29 255.809 166.03 255.809 165.57Z" fill="white"/>
<path d="M234.78 233V240H235.96V237.35H236.69L238.45 240H239.88L237.9 237.22C238.87 236.93 239.46 236.19 239.46 235.18C239.46 233.87 238.47 233 236.94 233H234.78ZM236.89 234.03C237.7 234.03 238.24 234.45 238.24 235.2C238.24 235.95 237.7 236.37 236.89 236.37H235.96V234.03H236.89ZM241.738 238.2V235.4H240.628V238.32C240.628 239.42 241.198 240.1 242.228 240.1C242.868 240.1 243.328 239.82 243.618 239.29V240H244.698V235.4H243.618V238.2C243.618 238.82 243.198 239.23 242.588 239.23C242.008 239.23 241.738 238.85 241.738 238.2ZM246.287 238.49L245.657 239.12C246.057 239.65 246.767 240.14 247.717 240.14C248.717 240.14 249.357 239.57 249.357 238.7C249.357 237.87 248.707 237.57 247.947 237.26C247.377 237.04 246.947 236.88 246.947 236.53C246.947 236.28 247.167 236.14 247.477 236.14C247.927 236.14 248.387 236.4 248.687 236.75L249.287 236.11C248.907 235.65 248.257 235.3 247.507 235.3C246.657 235.3 245.927 235.72 245.927 236.55C245.927 237.39 246.607 237.72 247.237 237.95C247.847 238.17 248.267 238.36 248.267 238.76C248.267 239.06 248.037 239.25 247.647 239.25C247.177 239.25 246.737 238.98 246.287 238.49ZM250.525 238.49L249.895 239.12C250.295 239.65 251.005 240.14 251.955 240.14C252.955 240.14 253.595 239.57 253.595 238.7C253.595 237.87 252.945 237.57 252.185 237.26C251.615 237.04 251.185 236.88 251.185 236.53C251.185 236.28 251.405 236.14 251.715 236.14C252.165 236.14 252.625 236.4 252.925 236.75L253.525 236.11C253.145 235.65 252.495 235.3 251.745 235.3C250.895 235.3 250.165 235.72 250.165 236.55C250.165 237.39 250.845 237.72 251.475 237.95C252.085 238.17 252.505 238.36 252.505 238.76C252.505 239.06 252.275 239.25 251.885 239.25C251.415 239.25 250.975 238.98 250.525 238.49ZM254.553 232.2V240H255.633V232.2H254.553ZM257.354 236.6C257.554 236.46 258.094 236.17 258.754 236.17C259.324 236.17 259.734 236.37 259.734 236.93V237.49C259.444 237.33 259.004 237.17 258.404 237.17C257.264 237.17 256.604 237.74 256.604 238.63C256.604 239.57 257.344 240.1 258.214 240.1C258.804 240.1 259.444 239.86 259.734 239.37V240H260.794V236.72C260.794 235.81 259.984 235.29 258.854 235.29C257.994 235.29 257.334 235.59 256.914 235.84L257.354 236.6ZM257.694 238.57C257.694 238.14 257.984 237.88 258.664 237.88C259.054 237.88 259.404 237.95 259.734 238.11V238.18C259.734 238.88 259.194 239.29 258.554 239.29C258.054 239.29 257.694 239.03 257.694 238.57ZM265.013 237.2V240H266.123V237.08C266.123 235.97 265.563 235.3 264.523 235.3C263.893 235.3 263.423 235.57 263.133 236.11V235.4H262.053V240H263.133V237.2C263.133 236.58 263.553 236.17 264.163 236.17C264.743 236.17 265.013 236.53 265.013 237.2ZM267.153 237.7C267.153 239.21 268.193 240.1 269.393 240.1C270.063 240.1 270.613 239.79 270.963 239.24V240H272.053V232.2H270.963V236.16C270.613 235.61 270.063 235.3 269.393 235.3C268.193 235.3 267.153 236.19 267.153 237.7ZM268.273 237.7C268.273 236.78 268.903 236.24 269.653 236.24C270.273 236.24 270.963 236.76 270.963 237.7C270.963 238.64 270.273 239.16 269.653 239.16C268.903 239.16 268.273 238.62 268.273 237.7Z" fill="white"/>
<path d="M7.78 194V201H8.94V197.84H11.54V196.81H8.94V195.06H11.64V194H7.78ZM12.8648 194.57C12.8648 194.94 13.1648 195.23 13.5448 195.23C13.9248 195.23 14.2248 194.94 14.2248 194.57C14.2248 194.2 13.9248 193.91 13.5448 193.91C13.1648 193.91 12.8648 194.2 12.8648 194.57ZM13.0148 196.4V201H14.0748V196.4H13.0148ZM14.8611 196.4L17.2511 201.43L19.6311 196.4H18.4511L17.2511 199.37L16.0511 196.4H14.8611ZM22.1509 201.1C23.2109 201.1 23.9809 200.68 24.4609 199.85L23.5209 199.48C23.2209 199.98 22.7809 200.21 22.2009 200.21C21.4509 200.21 20.9909 199.75 20.9109 198.95H24.4909C24.4909 198.9 24.5009 198.77 24.5009 198.65C24.5009 197.18 23.6509 196.3 22.2009 196.3C20.7409 196.3 19.8009 197.25 19.8009 198.7C19.8009 200.14 20.7309 201.1 22.1509 201.1ZM22.1909 197.12C22.8309 197.12 23.2709 197.54 23.3209 198.2H20.9409C21.0709 197.5 21.5109 197.12 22.1909 197.12ZM28.6198 194V201H32.8798V199.96H29.7798V197.76H32.6798V196.74H29.7798V195.04H32.8798V194H28.6198ZM38.3127 196.4H37.1527L35.9627 199.39L34.7527 196.4H33.5127L35.3727 200.46L34.1627 203.2H35.3127L38.3127 196.4ZM40.813 201.1C41.873 201.1 42.643 200.68 43.123 199.85L42.183 199.48C41.883 199.98 41.443 200.21 40.863 200.21C40.113 200.21 39.653 199.75 39.573 198.95H43.153C43.153 198.9 43.163 198.77 43.163 198.65C43.163 197.18 42.313 196.3 40.863 196.3C39.403 196.3 38.463 197.25 38.463 198.7C38.463 200.14 39.393 201.1 40.813 201.1ZM40.853 197.12C41.493 197.12 41.933 197.54 41.983 198.2H39.603C39.733 197.5 40.173 197.12 40.853 197.12ZM44.4039 199.49L43.7739 200.12C44.1739 200.65 44.8839 201.14 45.8339 201.14C46.8339 201.14 47.4739 200.57 47.4739 199.7C47.4739 198.87 46.8239 198.57 46.0639 198.26C45.4939 198.04 45.0639 197.88 45.0639 197.53C45.0639 197.28 45.2839 197.14 45.5939 197.14C46.0439 197.14 46.5039 197.4 46.8039 197.75L47.4039 197.11C47.0239 196.65 46.3739 196.3 45.6239 196.3C44.7739 196.3 44.0439 196.72 44.0439 197.55C44.0439 198.39 44.7239 198.72 45.3539 198.95C45.9639 199.17 46.3839 199.36 46.3839 199.76C46.3839 200.06 46.1539 200.25 45.7639 200.25C45.2939 200.25 44.8539 199.98 44.4039 199.49Z" fill="white"/>
<path d="M239.54 16H240.87L237.45 8.61L234.03 16H235.36L236.16 14.2H238.74L239.54 16ZM237.45 10.98L238.4 13.2H236.5L237.45 10.98ZM244.554 13.2V16H245.664V13.08C245.664 11.97 245.104 11.3 244.064 11.3C243.434 11.3 242.964 11.57 242.674 12.11V11.4H241.594V16H242.674V13.2C242.674 12.58 243.094 12.17 243.704 12.17C244.284 12.17 244.554 12.53 244.554 13.2ZM246.694 13.7C246.694 15.21 247.734 16.1 248.934 16.1C249.604 16.1 250.154 15.79 250.504 15.24V16H251.594V8.2H250.504V12.16C250.154 11.61 249.604 11.3 248.934 11.3C247.734 11.3 246.694 12.19 246.694 13.7ZM247.814 13.7C247.814 12.78 248.444 12.24 249.194 12.24C249.814 12.24 250.504 12.76 250.504 13.7C250.504 14.64 249.814 15.16 249.194 15.16C248.444 15.16 247.814 14.62 247.814 13.7ZM254.922 16.1C255.982 16.1 256.752 15.68 257.232 14.85L256.292 14.48C255.992 14.98 255.552 15.21 254.972 15.21C254.222 15.21 253.762 14.75 253.682 13.95H257.262C257.262 13.9 257.272 13.77 257.272 13.65C257.272 12.18 256.422 11.3 254.972 11.3C253.512 11.3 252.572 12.25 252.572 13.7C252.572 15.14 253.502 16.1 254.922 16.1ZM254.962 12.12C255.602 12.12 256.042 12.54 256.092 13.2H253.712C253.842 12.5 254.282 12.12 254.962 12.12ZM260.743 12.56L261.273 11.64C261.063 11.4 260.753 11.3 260.423 11.3C260.033 11.3 259.643 11.55 259.373 11.96V11.4H258.303V16H259.373V13.41C259.373 12.75 259.593 12.31 260.133 12.31C260.393 12.31 260.543 12.4 260.743 12.56ZM263.858 16.1C264.918 16.1 265.688 15.68 266.168 14.85L265.228 14.48C264.928 14.98 264.488 15.21 263.908 15.21C263.158 15.21 262.698 14.75 262.618 13.95H266.198C266.198 13.9 266.208 13.77 266.208 13.65C266.208 12.18 265.358 11.3 263.908 11.3C262.448 11.3 261.508 12.25 261.508 13.7C261.508 15.14 262.438 16.1 263.858 16.1ZM263.898 12.12C264.538 12.12 264.978 12.54 265.028 13.2H262.648C262.778 12.5 263.218 12.12 263.898 12.12Z" fill="#0F1938"/>
<path d="M7.78 9V16H12.04V14.96H8.94V12.76H11.84V11.74H8.94V10.04H12.04V9H7.78ZM13.4429 9V13.7C13.4429 15.24 14.4929 16.18 15.9929 16.18C17.4929 16.18 18.5429 15.24 18.5429 13.7V9H17.3629V13.65C17.3629 14.51 16.8929 15.09 15.9929 15.09C15.0929 15.09 14.6229 14.51 14.6229 13.65V9H13.4429ZM19.9754 14.11H26.1254V13.14H19.9754V14.11ZM29.8838 16C32.0238 16 33.4838 14.61 33.4838 12.5C33.4838 10.39 32.0238 9 29.8838 9H27.6238V16H29.8838ZM29.8538 10.11C31.2338 10.11 32.2738 10.92 32.2738 12.5C32.2738 14.08 31.2338 14.89 29.8538 14.89H28.8338V10.11H29.8538ZM35.0955 13.74L34.2155 14.36C34.6655 15.33 35.6655 16.15 36.8955 16.15C38.0855 16.15 39.2255 15.36 39.2255 14.06C39.2255 12.84 38.2855 12.25 37.4455 11.96C36.3155 11.57 35.8555 11.23 35.8555 10.68C35.8555 10.29 36.1555 9.93 36.8055 9.93C37.5155 9.93 37.9255 10.4 38.2155 10.91L39.1755 10.37C38.8155 9.64 38.0655 8.88 36.8255 8.88C35.5655 8.88 34.6255 9.64 34.6255 10.76C34.6255 12.07 35.7855 12.56 36.4855 12.81C37.3655 13.14 37.9755 13.39 37.9755 14.16C37.9755 14.72 37.5455 15.09 36.8955 15.09C36.1055 15.09 35.5455 14.55 35.0955 13.74ZM43.7467 13.34H45.8967C45.6667 14.29 44.9467 15.05 43.6967 15.05C42.3167 15.05 41.2567 14.03 41.2567 12.5C41.2567 10.97 42.3367 9.97 43.6967 9.97C44.6667 9.97 45.3567 10.42 45.7467 11.08L46.7067 10.43C46.0867 9.46 45.0667 8.88 43.6967 8.88C41.5767 8.88 40.0167 10.36 40.0167 12.5C40.0167 14.64 41.5567 16.15 43.6767 16.15C45.9167 16.15 47.1667 14.39 47.1167 12.34H43.7467V13.34ZM50.6844 13.92L48.6244 9H47.2644L50.6844 16.39L54.1044 9H52.7444L50.6844 13.92ZM54.3722 12.5C54.3722 14.59 55.9022 16.15 58.0022 16.15C60.1022 16.15 61.6422 14.59 61.6422 12.5C61.6422 10.41 60.0922 8.88 58.0022 8.88C55.9222 8.88 54.3722 10.41 54.3722 12.5ZM55.6222 12.5C55.6222 11.06 56.6122 10.01 58.0022 10.01C59.4122 10.01 60.3822 11.06 60.3822 12.5C60.3822 13.94 59.3922 14.99 58.0022 14.99C56.6122 14.99 55.6222 13.94 55.6222 12.5Z" fill="#0F1938"/>
</svg>
