<svg width="304" height="250" viewBox="0 0 304 250" fill="none" xmlns="http://www.w3.org/2000/svg">
<path d="M151 4H4V184H151V4Z" fill="#60E6DE"/>
<path d="M225 4H153V111H225V4Z" fill="#60E6DE"/>
<path d="M195 113H153V184H195V113Z" fill="#60E6DE"/>
<path d="M210 113H197V148H210V113Z" fill="#60E6DE"/>
<path d="M225 113H212V148H225V113Z" fill="#60E6DE"/>
<path d="M210 150H197V184H210V150Z" fill="#60E6DE"/>
<path d="M225 150H212V184H225V150Z" fill="#60E6DE"/>
<path d="M180 190H4V246H180V190Z" fill="#EC453D"/>
<path d="M225 190H182V246H225V190Z" fill="#EC453D"/>
<path d="M300 4H231V112H300V4Z" fill="#A9B6C6"/>
<path d="M300 114H231V148H300V114Z" fill="#A9B6C6"/>
<path d="M300 227H231V246H300V227Z" fill="#FE8988"/>
<path d="M300 154H231V221H300V154Z" fill="#C5271E"/>
<path d="M9.04 14C11.18 14 12.64 12.61 12.64 10.5C12.64 8.39 11.18 7 9.04 7H6.78V14H9.04ZM9.01 8.11C10.39 8.11 11.43 8.92 11.43 10.5C11.43 12.08 10.39 12.89 9.01 12.89H7.99V8.11H9.01ZM13.7917 7V14H18.0517V12.96H14.9517V10.76H17.8517V9.74H14.9517V8.04H18.0517V7H13.7917Z" fill="#0F1938"/>
<path d="M6.73 193V197.7C6.73 199.24 7.78 200.18 9.28 200.18C10.78 200.18 11.83 199.24 11.83 197.7V193H10.65V197.65C10.65 198.51 10.18 199.09 9.28 199.09C8.38 199.09 7.91 198.51 7.91 197.65V193H6.73ZM13.8025 197.74L12.9225 198.36C13.3725 199.33 14.3725 200.15 15.6025 200.15C16.7925 200.15 17.9325 199.36 17.9325 198.06C17.9325 196.84 16.9925 196.25 16.1525 195.96C15.0225 195.57 14.5625 195.23 14.5625 194.68C14.5625 194.29 14.8625 193.93 15.5125 193.93C16.2225 193.93 16.6325 194.4 16.9225 194.91L17.8825 194.37C17.5225 193.64 16.7725 192.88 15.5325 192.88C14.2725 192.88 13.3325 193.64 13.3325 194.76C13.3325 196.07 14.4925 196.56 15.1925 196.81C16.0725 197.14 16.6825 197.39 16.6825 198.16C16.6825 198.72 16.2525 199.09 15.6025 199.09C14.8125 199.09 14.2525 198.55 13.8025 197.74Z" fill="white"/>
<path d="M184.73 193V197.7C184.73 199.24 185.78 200.18 187.28 200.18C188.78 200.18 189.83 199.24 189.83 197.7V193H188.65V197.65C188.65 198.51 188.18 199.09 187.28 199.09C186.38 199.09 185.91 198.51 185.91 197.65V193H184.73ZM191.343 193V200H192.553V196.74L195.273 200H196.723L193.623 196.28L196.573 193H195.153L192.553 195.91V193H191.343Z" fill="white"/>
<path d="M233.78 7V14H234.97V7H233.78ZM241.644 7V11.7L236.534 6.65V14H237.694V9.3L242.804 14.35V7H241.644Z" fill="#0F1938"/>
<path d="M234.66 120.5C234.66 119.01 235.77 118.03 237.05 118.03C238.04 118.03 238.76 118.46 239.24 119.03V117.62C238.66 117.14 238.03 116.88 237.01 116.88C234.95 116.88 233.38 118.37 233.38 120.5C233.38 122.63 234.95 124.12 237.01 124.12C238.03 124.12 238.66 123.86 239.24 123.38V121.97C238.76 122.54 238.04 122.97 237.05 122.97C235.77 122.97 234.66 121.99 234.66 120.5ZM240.694 117V124H241.874V120.79H245.394V124H246.574V117H245.394V119.7H241.874V117H240.694Z" fill="#0F1938"/>
<path d="M234.66 160.5C234.66 159.01 235.77 158.03 237.05 158.03C238.04 158.03 238.76 158.46 239.24 159.03V157.62C238.66 157.14 238.03 156.88 237.01 156.88C234.95 156.88 233.38 158.37 233.38 160.5C233.38 162.63 234.95 164.12 237.01 164.12C238.03 164.12 238.66 163.86 239.24 163.38V161.97C238.76 162.54 238.04 162.97 237.05 162.97C235.77 162.97 234.66 161.99 234.66 160.5ZM245.804 157V161.7L240.694 156.65V164H241.854V159.3L246.964 164.35V157H245.804Z" fill="white"/>
<path d="M233.78 230V237H234.96V234.35H235.69L237.45 237H238.88L236.9 234.22C237.87 233.93 238.46 233.19 238.46 232.18C238.46 230.87 237.47 230 235.94 230H233.78ZM235.89 231.03C236.7 231.03 237.24 231.45 237.24 232.2C237.24 232.95 236.7 233.37 235.89 233.37H234.96V231.03H235.89ZM239.668 230V234.7C239.668 236.24 240.718 237.18 242.218 237.18C243.718 237.18 244.768 236.24 244.768 234.7V230H243.588V234.65C243.588 235.51 243.118 236.09 242.218 236.09C241.318 236.09 240.848 235.51 240.848 234.65V230H239.668Z" fill="white"/>
<path d="M155.78 7V14H159.74V12.94H156.96V7H155.78ZM160.544 7V11.7C160.544 13.24 161.594 14.18 163.094 14.18C164.594 14.18 165.644 13.24 165.644 11.7V7H164.464V11.65C164.464 12.51 163.994 13.09 163.094 13.09C162.194 13.09 161.724 12.51 161.724 11.65V7H160.544Z" fill="#0F1938"/>
<path d="M160.89 116V120.7L155.78 115.65V123H156.94V118.3L162.05 123.35V116H160.89ZM163.602 116V123H167.562V121.94H164.782V116H163.602Z" fill="#0F1938"/>
<path d="M217.424 119.384C217.424 118.6 216.92 118.152 216.232 117.968C216.776 117.768 217.104 117.368 217.104 116.808C217.104 115.856 216.376 115.4 215.312 115.4H213.624V121H215.408C216.584 121 217.424 120.496 217.424 119.384ZM215.248 116.176C215.768 116.176 216.136 116.448 216.136 116.912C216.136 117.376 215.768 117.648 215.248 117.648H214.568V116.176H215.248ZM214.568 120.224V118.384H215.352C215.992 118.384 216.456 118.68 216.456 119.288C216.456 119.912 215.992 120.224 215.352 120.224H214.568ZM218.421 115.4V121H221.829V120.168H219.349V118.408H221.669V117.592H219.349V116.232H221.829V115.4H218.421Z" fill="#0F1938"/>
<path d="M203.432 121H204.496L201.76 115.088L199.024 121H200.088L200.728 119.56H202.792L203.432 121ZM201.76 116.984L202.52 118.76H201L201.76 116.984ZM204.025 116.272H205.497V121H206.449V116.272H207.929V115.4H204.025V116.272Z" fill="#0F1938"/>
<path d="M198.624 152.4V158H199.552V155.472H201.632V154.648H199.552V153.248H201.712V152.4H198.624ZM202.796 152.4V158H203.74V155.88H204.324L205.732 158H206.876L205.292 155.776C206.068 155.544 206.54 154.952 206.54 154.144C206.54 153.096 205.748 152.4 204.524 152.4H202.796ZM204.484 153.224C205.132 153.224 205.564 153.56 205.564 154.16C205.564 154.76 205.132 155.096 204.484 155.096H203.74V153.224H204.484Z" fill="#0F1938"/>
<path d="M214.624 152.4V158H215.576V152.4H214.624ZM216.267 153.272H217.739V158H218.691V153.272H220.171V152.4H216.267V153.272Z" fill="#0F1938"/>
</svg>
