<svg width="78" height="52" viewBox="0 0 78 52" fill="none" xmlns="http://www.w3.org/2000/svg">
<path d="M4 22.5C2.067 22.5 0.5 24.067 0.5 26C0.5 27.933 2.067 29.5 4 29.5L4 22.5ZM76.4749 28.4749C77.8417 27.108 77.8417 24.892 76.4749 23.5251L54.201 1.25127C52.8342 -0.115568 50.6181 -0.115568 49.2513 1.25127C47.8844 2.6181 47.8844 4.83418 49.2513 6.20101L69.0503 26L49.2513 45.799C47.8844 47.1658 47.8844 49.3819 49.2513 50.7487C50.6181 52.1156 52.8342 52.1156 54.201 50.7487L76.4749 28.4749ZM4 29.5L74 29.5L74 22.5L4 22.5L4 29.5Z" fill="white"/>
</svg>
