<svg width="79" height="90" viewBox="0 0 79 90" fill="none" xmlns="http://www.w3.org/2000/svg">
<g clip-path="url(#clip0)">
<path opacity="0.4" d="M69.958 5.625H8.39496C6.16848 5.625 4.03319 6.51395 2.45883 8.09629C0.884466 9.67863 0 11.8247 0 14.0625L0 75.9375C0 78.1753 0.884466 80.3214 2.45883 81.9037C4.03319 83.4861 6.16848 84.375 8.39496 84.375H69.958C72.1845 84.375 74.3198 83.4861 75.8941 81.9037C77.4685 80.3214 78.3529 78.1753 78.3529 75.9375V14.0625C78.3529 11.8247 77.4685 9.67863 75.8941 8.09629C74.3198 6.51395 72.1845 5.625 69.958 5.625ZM34.979 39.375H30.7815V71.0156C30.7815 71.5751 30.5604 72.1116 30.1668 72.5072C29.7732 72.9028 29.2394 73.125 28.6828 73.125H21.687C21.1304 73.125 20.5965 72.9028 20.2029 72.5072C19.8094 72.1116 19.5882 71.5751 19.5882 71.0156V39.375H15.3908C14.8391 39.3764 14.2927 39.2682 13.7828 39.0567C13.2729 38.8452 12.8097 38.5345 12.4196 38.1425C12.0296 37.7504 11.7204 37.2848 11.51 36.7723C11.2995 36.2599 11.1919 35.7107 11.1933 35.1562V32.3438C11.1919 31.7893 11.2995 31.2401 11.51 30.7277C11.7204 30.2152 12.0296 29.7496 12.4196 29.3575C12.8097 28.9655 13.2729 28.6548 13.7828 28.4433C14.2927 28.2318 14.8391 28.1236 15.3908 28.125H19.5882V18.9844C19.5882 18.4249 19.8094 17.8884 20.2029 17.4928C20.5965 17.0972 21.1304 16.875 21.687 16.875H28.6828C29.2394 16.875 29.7732 17.0972 30.1668 17.4928C30.5604 17.8884 30.7815 18.4249 30.7815 18.9844V28.125H34.979C35.5306 28.1236 36.077 28.2318 36.5869 28.4433C37.0968 28.6548 37.5601 28.9655 37.9501 29.3575C38.3402 29.7496 38.6493 30.2152 38.8598 30.7277C39.0702 31.2401 39.1779 31.7893 39.1765 32.3438V35.1562C39.1779 35.7107 39.0702 36.2599 38.8598 36.7723C38.6493 37.2848 38.3402 37.7504 37.9501 38.1425C37.5601 38.5345 37.0968 38.8452 36.5869 39.0567C36.077 39.2682 35.5306 39.3764 34.979 39.375ZM67.1597 57.6562C67.161 58.2107 67.0534 58.7599 66.843 59.2723C66.6325 59.7848 66.3234 60.2504 65.9333 60.6425C65.5433 61.0345 65.08 61.3452 64.5701 61.5567C64.0602 61.7682 63.5138 61.8764 62.9622 61.875H58.7647V71.0156C58.7647 71.5751 58.5436 72.1116 58.15 72.5072C57.7564 72.9028 57.2226 73.125 56.666 73.125H49.6702C49.1135 73.125 48.5797 72.9028 48.1861 72.5072C47.7925 72.1116 47.5714 71.5751 47.5714 71.0156V61.875H43.374C42.8223 61.8764 42.2759 61.7682 41.766 61.5567C41.2561 61.3452 40.7928 61.0345 40.4028 60.6425C40.0127 60.2504 39.7036 59.7848 39.4932 59.2723C39.2827 58.7599 39.1751 58.2107 39.1765 57.6562V54.8438C39.1751 54.2893 39.2827 53.7401 39.4932 53.2277C39.7036 52.7152 40.0127 52.2496 40.4028 51.8575C40.7928 51.4655 41.2561 51.1548 41.766 50.9433C42.2759 50.7318 42.8223 50.6236 43.374 50.625H47.5714V18.9844C47.5714 18.4249 47.7925 17.8884 48.1861 17.4928C48.5797 17.0972 49.1135 16.875 49.6702 16.875H56.666C57.2226 16.875 57.7564 17.0972 58.15 17.4928C58.5436 17.8884 58.7647 18.4249 58.7647 18.9844V50.625H62.9622C63.5138 50.6236 64.0602 50.7318 64.5701 50.9433C65.08 51.1548 65.5433 51.4655 65.9333 51.8575C66.3234 52.2496 66.6325 52.7152 66.843 53.2277C67.0534 53.7401 67.161 54.2893 67.1597 54.8438V57.6562Z" fill="#172553"/>
<path d="M39.1757 32.3438C39.1771 31.7894 39.0695 31.2401 38.859 30.7277C38.6486 30.2152 38.3394 29.7496 37.9494 29.3576C37.5593 28.9655 37.0961 28.6548 36.5862 28.4433C36.0763 28.2318 35.5299 28.1236 34.9782 28.125H15.39C14.8384 28.1236 14.2919 28.2318 13.7821 28.4433C13.2722 28.6548 12.8089 28.9655 12.4188 29.3576C12.0288 29.7496 11.7197 30.2152 11.5092 30.7277C11.2988 31.2401 11.1911 31.7894 11.1925 32.3438V35.1563C11.1911 35.7107 11.2988 36.2599 11.5092 36.7724C11.7197 37.2848 12.0288 37.7504 12.4188 38.1425C12.8089 38.5345 13.2722 38.8452 13.7821 39.0567C14.2919 39.2682 14.8384 39.3764 15.39 39.375H34.9782C35.5299 39.3764 36.0763 39.2682 36.5862 39.0567C37.0961 38.8452 37.5593 38.5345 37.9494 38.1425C38.3394 37.7504 38.6486 37.2848 38.859 36.7724C39.0695 36.2599 39.1771 35.7107 39.1757 35.1563V32.3438ZM62.9614 50.625H43.3732C42.8216 50.6236 42.2751 50.7318 41.7653 50.9433C41.2554 51.1548 40.7921 51.4655 40.4021 51.8576C40.012 52.2496 39.7029 52.7152 39.4924 53.2277C39.282 53.7401 39.1743 54.2894 39.1757 54.8438V57.6563C39.1743 58.2107 39.282 58.7599 39.4924 59.2724C39.7029 59.7848 40.012 60.2505 40.4021 60.6425C40.7921 61.0345 41.2554 61.3452 41.7653 61.5567C42.2751 61.7682 42.8216 61.8764 43.3732 61.875H62.9614C63.5131 61.8764 64.0595 61.7682 64.5694 61.5567C65.0793 61.3452 65.5425 61.0345 65.9326 60.6425C66.3226 60.2505 66.6318 59.7848 66.8422 59.2724C67.0527 58.7599 67.1603 58.2107 67.1589 57.6563V54.8438C67.1603 54.2894 67.0527 53.7401 66.8422 53.2277C66.6318 52.7152 66.3226 52.2496 65.9326 51.8576C65.5425 51.4655 65.0793 51.1548 64.5694 50.9433C64.0595 50.7318 63.5131 50.6236 62.9614 50.625Z" fill="#172553"/>
</g>
<defs>
<clipPath id="clip0">
<rect width="78.3529" height="90" fill="white"/>
</clipPath>
</defs>
</svg>
