<svg width="75" height="85" viewBox="0 0 75 85" fill="none" xmlns="http://www.w3.org/2000/svg">
<g clip-path="url(#clip0)">
<path opacity="0.4" d="M66.4062 5.3125H7.96875C5.85531 5.3125 3.82842 6.15206 2.33399 7.64649C0.839562 9.14092 0 11.1678 0 13.2812L0 71.7188C0 73.8322 0.839562 75.8591 2.33399 77.3535C3.82842 78.8479 5.85531 79.6875 7.96875 79.6875H66.4062C68.5197 79.6875 70.5466 78.8479 72.041 77.3535C73.5354 75.8591 74.375 73.8322 74.375 71.7188V13.2812C74.375 11.1678 73.5354 9.14092 72.041 7.64649C70.5466 6.15206 68.5197 5.3125 66.4062 5.3125ZM33.2031 37.1875H29.2188V67.0703C29.2188 67.5987 29.0089 68.1054 28.6353 68.479C28.2616 68.8526 27.7549 69.0625 27.2266 69.0625H20.5859C20.0576 69.0625 19.5509 68.8526 19.1772 68.479C18.8036 68.1054 18.5938 67.5987 18.5938 67.0703V37.1875H14.6094C14.0858 37.1888 13.5671 37.0867 13.0831 36.8869C12.5991 36.6871 12.1593 36.3937 11.7891 36.0234C11.4188 35.6532 11.1254 35.2134 10.9256 34.7294C10.7258 34.2454 10.6237 33.7267 10.625 33.2031V30.5469C10.6237 30.0233 10.7258 29.5046 10.9256 29.0206C11.1254 28.5366 11.4188 28.0968 11.7891 27.7266C12.1593 27.3563 12.5991 27.0629 13.0831 26.8631C13.5671 26.6633 14.0858 26.5612 14.6094 26.5625H18.5938V17.9297C18.5938 17.4013 18.8036 16.8946 19.1772 16.521C19.5509 16.1474 20.0576 15.9375 20.5859 15.9375H27.2266C27.7549 15.9375 28.2616 16.1474 28.6353 16.521C29.0089 16.8946 29.2188 17.4013 29.2188 17.9297V26.5625H33.2031C33.7267 26.5612 34.2454 26.6633 34.7294 26.8631C35.2134 27.0629 35.6532 27.3563 36.0234 27.7266C36.3937 28.0968 36.6871 28.5366 36.8869 29.0206C37.0867 29.5046 37.1888 30.0233 37.1875 30.5469V33.2031C37.1888 33.7267 37.0867 34.2454 36.8869 34.7294C36.6871 35.2134 36.3937 35.6532 36.0234 36.0234C35.6532 36.3937 35.2134 36.6871 34.7294 36.8869C34.2454 37.0867 33.7267 37.1888 33.2031 37.1875ZM63.75 54.4531C63.7513 54.9767 63.6492 55.4954 63.4494 55.9794C63.2496 56.4634 62.9562 56.9032 62.5859 57.2734C62.2157 57.6437 61.7759 57.9371 61.2919 58.1369C60.8079 58.3367 60.2892 58.4388 59.7656 58.4375H55.7812V67.0703C55.7812 67.5987 55.5714 68.1054 55.1978 68.479C54.8241 68.8526 54.3174 69.0625 53.7891 69.0625H47.1484C46.6201 69.0625 46.1134 68.8526 45.7397 68.479C45.3661 68.1054 45.1562 67.5987 45.1562 67.0703V58.4375H41.1719C40.6483 58.4388 40.1296 58.3367 39.6456 58.1369C39.1616 57.9371 38.7218 57.6437 38.3516 57.2734C37.9813 56.9032 37.6879 56.4634 37.4881 55.9794C37.2883 55.4954 37.1862 54.9767 37.1875 54.4531V51.7969C37.1862 51.2733 37.2883 50.7546 37.4881 50.2706C37.6879 49.7866 37.9813 49.3468 38.3516 48.9766C38.7218 48.6063 39.1616 48.3129 39.6456 48.1131C40.1296 47.9133 40.6483 47.8112 41.1719 47.8125H45.1562V17.9297C45.1562 17.4013 45.3661 16.8946 45.7397 16.521C46.1134 16.1474 46.6201 15.9375 47.1484 15.9375H53.7891C54.3174 15.9375 54.8241 16.1474 55.1978 16.521C55.5714 16.8946 55.7812 17.4013 55.7812 17.9297V47.8125H59.7656C60.2892 47.8112 60.8079 47.9133 61.2919 48.1131C61.7759 48.3129 62.2157 48.6063 62.5859 48.9766C62.9562 49.3468 63.2496 49.7866 63.4494 50.2706C63.6492 50.7546 63.7513 51.2733 63.75 51.7969V54.4531Z" fill="#475ABB"/>
<path d="M37.1875 30.5469C37.1888 30.0233 37.0866 29.5046 36.8868 29.0206C36.6871 28.5366 36.3936 28.0968 36.0234 27.7266C35.6531 27.3563 35.2134 27.0629 34.7294 26.8631C34.2454 26.6634 33.7267 26.5612 33.2031 26.5625H14.6093C14.0857 26.5612 13.567 26.6634 13.083 26.8631C12.599 27.0629 12.1593 27.3563 11.789 27.7266C11.4188 28.0968 11.1253 28.5366 10.9256 29.0206C10.7258 29.5046 10.6236 30.0233 10.625 30.5469V33.2031C10.6236 33.7267 10.7258 34.2454 10.9256 34.7294C11.1253 35.2134 11.4188 35.6532 11.789 36.0234C12.1593 36.3937 12.599 36.6871 13.083 36.8869C13.567 37.0867 14.0857 37.1888 14.6093 37.1875H33.2031C33.7267 37.1888 34.2454 37.0867 34.7294 36.8869C35.2134 36.6871 35.6531 36.3937 36.0234 36.0234C36.3936 35.6532 36.6871 35.2134 36.8868 34.7294C37.0866 34.2454 37.1888 33.7267 37.1875 33.2031V30.5469ZM59.7656 47.8125H41.1718C40.6482 47.8112 40.1295 47.9134 39.6455 48.1131C39.1615 48.3129 38.7218 48.6063 38.3515 48.9766C37.9813 49.3468 37.6878 49.7866 37.4881 50.2706C37.2883 50.7546 37.1861 51.2733 37.1875 51.7969V54.4531C37.1861 54.9767 37.2883 55.4954 37.4881 55.9794C37.6878 56.4634 37.9813 56.9032 38.3515 57.2734C38.7218 57.6437 39.1615 57.9371 39.6455 58.1369C40.1295 58.3367 40.6482 58.4388 41.1718 58.4375H59.7656C60.2892 58.4388 60.8079 58.3367 61.2919 58.1369C61.7759 57.9371 62.2157 57.6437 62.5859 57.2734C62.9562 56.9032 63.2496 56.4634 63.4494 55.9794C63.6491 55.4954 63.7513 54.9767 63.75 54.4531V51.7969C63.7513 51.2733 63.6491 50.7546 63.4494 50.2706C63.2496 49.7866 62.9562 49.3468 62.5859 48.9766C62.2157 48.6063 61.7759 48.3129 61.2919 48.1131C60.8079 47.9134 60.2892 47.8112 59.7656 47.8125Z" fill="#475ABB"/>
</g>
<defs>
<clipPath id="clip0">
<rect width="74.375" height="85" fill="white"/>
</clipPath>
</defs>
</svg>
