<svg width="67" height="67" viewBox="0 0 67 67" fill="none" xmlns="http://www.w3.org/2000/svg">
<g clip-path="url(#clip0)">
<path opacity="0.4" d="M65.1678 18.5925L57.7611 25.9926L41.0111 9.24263L48.4112 1.84253C48.9946 1.25872 49.6872 0.795583 50.4496 0.4796C51.212 0.163616 52.0293 0.000976563 52.8545 0.000976562C53.6798 0.000976563 54.4971 0.163616 55.2595 0.4796C56.0219 0.795583 56.7145 1.25872 57.2979 1.84253L65.1678 9.70587C65.7516 10.2892 66.2147 10.9819 66.5307 11.7443C66.8467 12.5067 67.0093 13.3239 67.0093 14.1492C67.0093 14.9745 66.8467 15.7917 66.5307 16.5541C66.2147 17.3165 65.7516 18.0092 65.1678 18.5925Z" fill="#172553"/>
<path d="M1.68132 48.5631L0.0194041 63.5098C-0.0326973 63.9778 0.0211155 64.4516 0.17686 64.896C0.332605 65.3404 0.586294 65.7441 0.919152 66.0772C1.25201 66.4103 1.65552 66.6643 2.09981 66.8204C2.5441 66.9765 3.01781 67.0306 3.48587 66.9789L18.4222 65.3301L54.8011 28.9512L38.0511 12.2012L1.68132 48.5631Z" fill="#172553"/>
</g>
<defs>
<clipPath id="clip0">
<rect width="67" height="67" fill="white"/>
</clipPath>
</defs>
</svg>
