<svg width="60" height="60" viewBox="0 0 60 60" fill="none" xmlns="http://www.w3.org/2000/svg">
<g clip-path="url(#clip0)">
<path opacity="0.4" d="M58.3596 16.6501L51.7268 23.2771L36.7268 8.27708L43.3538 1.65013C43.8762 1.12731 44.4965 0.712565 45.1792 0.429594C45.862 0.146624 46.5938 0.000976563 47.3329 0.000976562C48.0719 0.000976563 48.8038 0.146624 49.4865 0.429594C50.1693 0.712565 50.7896 1.12731 51.312 1.65013L58.3596 8.69192C58.8825 9.21431 59.2972 9.83461 59.5802 10.5174C59.8631 11.2001 60.0088 11.932 60.0088 12.671C60.0088 13.4101 59.8631 14.1419 59.5802 14.8247C59.2972 15.5074 58.8825 16.1277 58.3596 16.6501Z" fill="#475ABB"/>
<path d="M1.50567 43.4897L0.0173895 56.8748C-0.0292684 57.2939 0.0189221 57.7182 0.158395 58.1162C0.297868 58.5141 0.525052 58.8757 0.823134 59.174C1.12122 59.4723 1.48257 59.6997 1.88044 59.8395C2.27832 59.9793 2.70253 60.0278 3.12169 59.9814L16.4975 58.5049L49.0756 25.9268L34.0756 10.9268L1.50567 43.4897Z" fill="#475ABB"/>
</g>
<defs>
<clipPath id="clip0">
<rect width="60" height="60" fill="white"/>
</clipPath>
</defs>
</svg>
