<svg width="90" height="80" viewBox="0 0 90 80" fill="none" xmlns="http://www.w3.org/2000/svg">
<g clip-path="url(#clip0)">
<path opacity="0.4" d="M88.125 58.8734L64.4969 77.7691C62.7224 79.1861 60.5182 79.9572 58.2469 79.9554H2.5C1.83696 79.9554 1.20107 79.6922 0.732233 79.2236C0.263392 78.755 0 78.1195 0 77.4568V62.4652C0 61.8025 0.263392 61.167 0.732233 60.6984C1.20107 60.2298 1.83696 59.9666 2.5 59.9666H11.1562L18.4219 54.0777C21.696 51.4226 25.7837 49.9731 30 49.9722H55C56.3245 49.9722 57.5948 50.4974 58.5322 51.4325C59.4696 52.3676 59.9975 53.6363 60 54.96C60.0011 55.2458 59.9771 55.5311 59.9281 55.8127C59.5312 58.2644 57.2172 59.9666 54.7328 59.9666H42.5C41.837 59.9666 41.2011 60.2298 40.7322 60.6984C40.2634 61.167 40 61.8025 40 62.4652C40 63.1279 40.2634 63.7634 40.7322 64.232C41.2011 64.7005 41.837 64.9638 42.5 64.9638H60.9813C63.2533 64.9701 65.459 64.1985 67.2312 62.7775L81.6687 51.2371C83.6062 49.6755 86.4813 49.5661 88.325 51.2371C88.8689 51.7206 89.3005 52.3169 89.5899 52.9844C89.8792 53.6519 90.0193 54.3745 90.0002 55.1017C89.9812 55.8289 89.8035 56.5432 89.4796 57.1947C89.1557 57.8461 88.6934 58.4191 88.125 58.8734Z" fill="#475ABB"/>
<path d="M60.9971 12.6486C63.4682 12.6486 65.7225 13.6254 67.5 15.4014V9.0523C65.5491 7.89792 63.3382 7.23193 60.9971 7.23193C54.3642 7.23193 49.6821 11.8495 48.1647 18.5537H45.4335V21.7949H47.6445C47.6012 22.3721 47.6012 22.9493 47.6012 23.5265V24.2368H45V27.478H47.948C49.2052 34.7151 54.0607 39.7766 60.9971 39.7766C63.3382 39.7766 65.5491 39.155 67.5 38.0006V31.6515C65.7225 33.4275 63.4682 34.4043 60.9971 34.4043C57.3555 34.4043 54.6243 31.8735 53.6272 27.478H65.9393V24.2368H53.1936V23.5265C53.1936 22.9493 53.237 22.3721 53.2803 21.7949H66.8497V18.5537H53.8873C55.0578 14.7798 57.659 12.6486 60.9971 12.6486Z" fill="#475ABB"/>
</g>
<defs>
<clipPath id="clip0">
<rect width="90" height="79.9554" fill="white"/>
</clipPath>
</defs>
</svg>
