<svg width="101" height="90" viewBox="0 0 101 90" fill="none" xmlns="http://www.w3.org/2000/svg">
<g clip-path="url(#clip0)">
<path opacity="0.4" d="M98.8958 66.2695L72.3798 87.539C70.3885 89.1341 67.9148 90.002 65.3659 90H2.80556C2.06148 90 1.34787 89.7037 0.821728 89.1762C0.295585 88.6488 0 87.9334 0 87.1875V70.3125C0 69.5666 0.295585 68.8512 0.821728 68.3238C1.34787 67.7963 2.06148 67.5 2.80556 67.5H12.5198L20.6734 60.8713C24.3477 57.8827 28.9351 56.2511 33.6667 56.25H61.7222C63.2086 56.25 64.6342 56.8412 65.6862 57.8938C66.7382 58.9464 67.3305 60.3744 67.3333 61.8644C67.3346 62.1861 67.3076 62.5073 67.2527 62.8242C66.8073 65.584 64.2104 67.5 61.4224 67.5H47.6944C46.9504 67.5 46.2368 67.7963 45.7106 68.3238C45.1845 68.8512 44.8889 69.5666 44.8889 70.3125C44.8889 71.0584 45.1845 71.7738 45.7106 72.3012C46.2368 72.8287 46.9504 73.125 47.6944 73.125H68.4345C70.9843 73.1321 73.4596 72.2636 75.4484 70.6641L91.6505 57.6738C93.8248 55.916 97.0512 55.793 99.1203 57.6738C99.7306 58.218 100.215 58.8893 100.54 59.6406C100.864 60.392 101.022 61.2054 101 62.0239C100.979 62.8425 100.779 63.6465 100.416 64.3798C100.053 65.1132 99.5337 65.7581 98.8958 66.2695Z" fill="#172553"/>
<path d="M68.4523 14.2368C71.2254 14.2368 73.7553 15.3363 75.75 17.3354V10.1887C73.5607 8.8893 71.0795 8.13965 68.4523 8.13965C61.0087 8.13965 55.7543 13.3373 54.0515 20.8838H50.9865V24.5321H53.4677C53.4191 25.1818 53.4191 25.8315 53.4191 26.4812V27.2809H50.5V30.9292H53.8083C55.2192 39.0754 60.6681 44.7728 68.4523 44.7728C71.0795 44.7728 73.5607 44.0731 75.75 42.7737V35.627C73.7553 37.6261 71.2254 38.7256 68.4523 38.7256C64.3656 38.7256 61.3006 35.8769 60.1816 30.9292H73.9986V27.2809H59.6951V26.4812C59.6951 25.8315 59.7437 25.1818 59.7924 24.5321H75.0202V20.8838H60.4735C61.7871 16.6357 64.7062 14.2368 68.4523 14.2368Z" fill="#172553"/>
</g>
<defs>
<clipPath id="clip0">
<rect width="101" height="90" fill="white"/>
</clipPath>
</defs>
</svg>
