<svg width="80" height="80" viewBox="0 0 80 80" fill="none" xmlns="http://www.w3.org/2000/svg">
<g clip-path="url(#clip0)">
<path opacity="0.4" d="M32.5 12.5C37.1271 12.5 41.6111 14.1044 45.1878 17.0399C48.7646 19.9753 51.2129 24.0601 52.1156 28.5983C53.0183 33.1365 52.3195 37.8473 50.1383 41.928C47.9571 46.0087 44.4284 49.2069 40.1535 50.9776C35.8786 52.7483 31.122 52.982 26.6941 51.6388C22.2663 50.2956 18.4411 47.4586 15.8705 43.6113C13.2998 39.764 12.1427 35.1444 12.5962 30.5396C13.0498 25.9348 15.0859 21.6297 18.3578 18.3578C20.2106 16.4947 22.4146 15.0177 24.8421 14.0122C27.2696 13.0067 29.8725 12.4927 32.5 12.5ZM32.5 0C14.55 0 0 14.55 0 32.5C0 50.45 14.55 65 32.5 65C50.45 65 65 50.45 65 32.5C65 14.55 50.45 0 32.5 0Z" fill="#475ABB"/>
<path d="M78.8906 74.4844L74.4688 78.9063C74.1217 79.2554 73.709 79.5324 73.2545 79.7215C72.8 79.9106 72.3126 80.0079 71.8203 80.0079C71.328 80.0079 70.8406 79.9106 70.3861 79.7215C69.9316 79.5324 69.5189 79.2554 69.1719 78.9063L53.5938 63.3281C53.2458 62.979 52.9701 62.5647 52.7825 62.1089C52.5948 61.6531 52.4988 61.1648 52.5 60.6719V58.125L58.125 52.5H60.6719C61.1648 52.4988 61.6531 52.5948 62.1089 52.7825C62.5647 52.9701 62.979 53.2458 63.3281 53.5938L78.9063 69.1719C79.6061 69.8798 79.9972 70.8359 79.9943 71.8314C79.9914 72.8268 79.5946 73.7806 78.8906 74.4844Z" fill="#475ABB"/>
</g>
<defs>
<clipPath id="clip0">
<rect width="80" height="80" fill="white"/>
</clipPath>
</defs>
</svg>
