<svg width="92" height="82" viewBox="0 0 92 82" fill="none" xmlns="http://www.w3.org/2000/svg">
<path opacity="0.4" d="M91.4442 38.6617C82.7825 21.7156 65.6347 10.25 46 10.25C26.3654 10.25 9.21281 21.7236 0.555868 38.6633C0.190491 39.388 0.00012207 40.1887 0.00012207 41.0008C0.00012207 41.8129 0.190491 42.6136 0.555868 43.3383C9.2176 60.2844 26.3654 71.75 46 71.75C65.6347 71.75 82.7873 60.2764 91.4442 43.3367C91.8096 42.6119 91.9999 41.8113 91.9999 40.9992C91.9999 40.1871 91.8096 39.3864 91.4442 38.6617ZM46.0224 64.0625H46C39.904 64.0595 34.0587 61.6288 29.7497 57.305C25.4408 52.9811 23.0209 47.1182 23.0224 41.0056C23.0239 34.893 25.4466 29.0312 29.7576 24.7095C34.0687 20.3878 39.9152 17.9599 46.0112 17.9599C52.1073 17.9599 57.9537 20.3878 62.2648 24.7095C66.5759 29.0312 68.9986 34.893 69 41.0056C69.0015 47.1182 66.5817 52.9811 62.2727 57.305C57.9637 61.6288 52.1184 64.0595 46.0224 64.0625Z" fill="#475ABB"/>
<path d="M60.7997 44.9833C60.2779 46.9324 59.3777 48.759 58.1507 50.3586C56.9237 51.9582 55.3939 53.2993 53.6491 54.3051C51.9043 55.3108 49.9787 55.9615 47.9827 56.2198C45.9867 56.4781 43.9595 56.339 42.0172 55.8103C40.0749 55.2817 38.2557 54.374 36.6639 53.1392C35.0721 51.9043 33.7388 50.3667 32.7407 48.6144C31.7425 46.862 31.0989 44.9294 30.8469 42.9273C30.5948 40.9251 30.7393 38.8928 31.2719 36.9467C32.744 38.0329 34.5556 38.5541 36.3781 38.4159C38.2006 38.2776 39.9134 37.4891 41.2058 36.1931C42.4982 34.8972 43.2846 33.1798 43.4225 31.3523C43.5604 29.5249 43.0406 27.7083 41.9573 26.2322C44.5572 25.4881 47.3079 25.4517 49.9265 26.127C52.5451 26.8022 54.9371 28.1647 56.8564 30.0742C58.7757 31.9838 60.1532 34.3715 60.8471 36.9919C61.541 39.6122 61.5263 42.3706 60.8045 44.9833H60.7997Z" fill="#475ABB"/>
</svg>
