<svg width="96" height="86" viewBox="0 0 96 86" fill="none" xmlns="http://www.w3.org/2000/svg">
<path opacity="0.4" d="M95.42 40.5476C86.3817 22.7749 68.4884 10.75 48 10.75C27.5117 10.75 9.61336 22.7833 0.580031 40.5493C0.198767 41.3094 0.00012207 42.1492 0.00012207 43.0008C0.00012207 43.8525 0.198767 44.6923 0.580031 45.4523C9.61836 63.2251 27.5117 75.25 48 75.25C68.4884 75.25 86.3867 63.2167 95.42 45.4507C95.8013 44.6906 95.9999 43.8508 95.9999 42.9991C95.9999 42.1475 95.8013 41.3077 95.42 40.5476ZM48.0234 67.1875H48C41.6389 67.1844 35.5395 64.6351 31.0432 60.1003C26.5469 55.5656 24.0218 49.4167 24.0234 43.0059C24.0249 36.5951 26.5529 30.4474 31.0514 25.9148C35.55 21.3823 41.6506 18.836 48.0117 18.836C54.3728 18.836 60.4734 21.3823 64.972 25.9148C69.4705 30.4474 71.9985 36.5951 72 43.0059C72.0016 49.4167 69.4765 55.5656 64.9802 60.1003C60.4839 64.6351 54.3845 67.1844 48.0234 67.1875Z" fill="#172553"/>
<path d="M63.4432 47.1771C62.8987 49.2212 61.9594 51.137 60.679 52.8146C59.3986 54.4922 57.8024 55.8987 55.9817 56.9536C54.161 58.0084 52.1517 58.6908 50.0689 58.9617C47.9861 59.2326 45.8708 59.0867 43.844 58.5323C41.8173 57.9778 39.919 57.0258 38.258 55.7308C36.5969 54.4357 35.2058 52.8231 34.1642 50.9853C33.1226 49.1475 32.4511 47.1206 32.1881 45.0208C31.9251 42.9209 32.0758 40.7895 32.6315 38.7484C34.1676 39.8876 36.058 40.4343 37.9598 40.2893C39.8615 40.1443 41.6488 39.3173 42.9974 37.9581C44.3459 36.599 45.1666 34.7978 45.3105 32.8812C45.4543 30.9646 44.9119 29.0594 43.7815 27.5113C46.4945 26.7308 49.3648 26.6927 52.0972 27.4009C54.8297 28.1091 57.3256 29.538 59.3284 31.5407C61.3312 33.5434 62.7686 36.0476 63.4926 38.7958C64.2167 41.544 64.2014 44.4369 63.4482 47.1771H63.4432Z" fill="#172553"/>
</svg>
