<svg width="18" height="18" viewBox="0 0 18 18" fill="none" xmlns="http://www.w3.org/2000/svg">
<path d="M9 2C5.13306 2 2 5.13306 2 9C2 12.8669 5.13306 16 9 16C12.8669 16 16 12.8669 16 9C16 5.13306 12.8669 2 9 2ZM9 15.0968C5.64113 15.0968 2.90323 12.3871 2.90323 9C2.90323 5.66935 5.6129 2.90323 9 2.90323C12.3306 2.90323 15.0968 5.64113 15.0968 9C15.0968 12.3589 12.3589 15.0968 9 15.0968ZM11.6532 7.05242C11.7944 6.91129 11.7944 6.71371 11.6532 6.57258L11.4274 6.34677C11.2863 6.20565 11.0887 6.20565 10.9476 6.34677L9 8.29435L7.02419 6.34677C6.91129 6.20565 6.68548 6.20565 6.54435 6.34677L6.31855 6.57258C6.17742 6.71371 6.17742 6.91129 6.31855 7.05242L8.26613 9L6.31855 10.9758C6.17742 11.0887 6.17742 11.3145 6.31855 11.4556L6.54435 11.6815C6.68548 11.8226 6.91129 11.8226 7.02419 11.6815L9 9.73387L10.9476 11.6815C11.0887 11.8226 11.2863 11.8226 11.4274 11.6815L11.6532 11.4556C11.7944 11.3145 11.7944 11.0887 11.6532 10.9758L9.70564 9L11.6532 7.05242Z" fill="#0F1938"/>
</svg>
