<svg width="14" height="15" viewBox="0 0 14 15" fill="none" xmlns="http://www.w3.org/2000/svg">
<path d="M12.7969 13.375H12.25V0.90625C12.25 0.550781 11.9492 0.25 11.5938 0.25H2.40625C2.02344 0.25 1.75 0.550781 1.75 0.90625V13.375H1.20312C1.01172 13.375 0.875 13.5391 0.875 13.7031V14.25H13.125V13.7031C13.125 13.5391 12.9609 13.375 12.7969 13.375ZM4.375 2.32812C4.375 2.16406 4.51172 2 4.70312 2H5.79688C5.96094 2 6.125 2.16406 6.125 2.32812V3.42188C6.125 3.61328 5.96094 3.75 5.79688 3.75H4.70312C4.51172 3.75 4.375 3.61328 4.375 3.42188V2.32812ZM4.375 4.95312C4.375 4.78906 4.51172 4.625 4.70312 4.625H5.79688C5.96094 4.625 6.125 4.78906 6.125 4.95312V6.04688C6.125 6.23828 5.96094 6.375 5.79688 6.375H4.70312C4.51172 6.375 4.375 6.23828 4.375 6.04688V4.95312ZM5.79688 9H4.70312C4.51172 9 4.375 8.86328 4.375 8.67188V7.57812C4.375 7.41406 4.51172 7.25 4.70312 7.25H5.79688C5.96094 7.25 6.125 7.41406 6.125 7.57812V8.67188C6.125 8.86328 5.96094 9 5.79688 9ZM7.875 13.375H6.125V11.0781C6.125 10.9141 6.26172 10.75 6.45312 10.75H7.54688C7.71094 10.75 7.875 10.9141 7.875 11.0781V13.375ZM9.625 8.67188C9.625 8.86328 9.46094 9 9.29688 9H8.20312C8.01172 9 7.875 8.86328 7.875 8.67188V7.57812C7.875 7.41406 8.01172 7.25 8.20312 7.25H9.29688C9.46094 7.25 9.625 7.41406 9.625 7.57812V8.67188ZM9.625 6.04688C9.625 6.23828 9.46094 6.375 9.29688 6.375H8.20312C8.01172 6.375 7.875 6.23828 7.875 6.04688V4.95312C7.875 4.78906 8.01172 4.625 8.20312 4.625H9.29688C9.46094 4.625 9.625 4.78906 9.625 4.95312V6.04688ZM9.625 3.42188C9.625 3.61328 9.46094 3.75 9.29688 3.75H8.20312C8.01172 3.75 7.875 3.61328 7.875 3.42188V2.32812C7.875 2.16406 8.01172 2 8.20312 2H9.29688C9.46094 2 9.625 2.16406 9.625 2.32812V3.42188Z" fill="#A9B6C6"/>
</svg>
