<svg width="60" height="48" viewBox="0 0 60 48" fill="none" xmlns="http://www.w3.org/2000/svg">
<path d="M0 24C0 10.7452 10.7452 0 24 0H60V48H24C10.7452 48 0 37.2548 0 24V24Z" fill="#0F1938"/>
<path d="M28.875 28.25H27.9375V15.125C27.9375 14.8125 27.625 14.5 27.3125 14.5H26.6875C26.3359 14.5 26.0625 14.8125 26.0625 15.125V28.25H25.125C24.7734 28.25 24.5 28.5625 24.5 28.875V30.125C24.5 30.4766 24.7734 30.75 25.125 30.75H26.0625V33.875C26.0625 34.2266 26.3359 34.5 26.6875 34.5H27.3125C27.625 34.5 27.9375 34.2266 27.9375 33.875V30.75H28.875C29.1875 30.75 29.5 30.4766 29.5 30.125V28.875C29.5 28.5625 29.1875 28.25 28.875 28.25ZM22.625 18.25H21.6875V15.125C21.6875 14.8125 21.375 14.5 21.0625 14.5H20.4375C20.0859 14.5 19.8125 14.8125 19.8125 15.125V18.25H18.875C18.5234 18.25 18.25 18.5625 18.25 18.875V20.125C18.25 20.4766 18.5234 20.75 18.875 20.75H19.8125V33.875C19.8125 34.2266 20.0859 34.5 20.4375 34.5H21.0625C21.375 34.5 21.6875 34.2266 21.6875 33.875V20.75H22.625C22.9375 20.75 23.25 20.4766 23.25 20.125V18.875C23.25 18.5625 22.9375 18.25 22.625 18.25ZM35.125 23.25H34.1875V15.125C34.1875 14.8125 33.875 14.5 33.5625 14.5H32.9375C32.5859 14.5 32.3125 14.8125 32.3125 15.125V23.25H31.375C31.0234 23.25 30.75 23.5625 30.75 23.875V25.125C30.75 25.4766 31.0234 25.75 31.375 25.75H32.3125V33.875C32.3125 34.2266 32.5859 34.5 32.9375 34.5H33.5625C33.875 34.5 34.1875 34.2266 34.1875 33.875V25.75H35.125C35.4375 25.75 35.75 25.4766 35.75 25.125V23.875C35.75 23.5625 35.4375 23.25 35.125 23.25Z" fill="#EDF2F7"/>
</svg>
