<svg width="60" height="48" viewBox="0 0 60 48" fill="none" xmlns="http://www.w3.org/2000/svg">
<path d="M0 24C0 10.7452 10.7452 0 24 0H60V48H24C10.7452 48 0 37.2548 0 24V24Z" fill="#0F1938"/>
<path d="M31.875 28.25H30.9375V15.125C30.9375 14.8125 30.625 14.5 30.3125 14.5H29.6875C29.3359 14.5 29.0625 14.8125 29.0625 15.125V28.25H28.125C27.7734 28.25 27.5 28.5625 27.5 28.875V30.125C27.5 30.4766 27.7734 30.75 28.125 30.75H29.0625V33.875C29.0625 34.2266 29.3359 34.5 29.6875 34.5H30.3125C30.625 34.5 30.9375 34.2266 30.9375 33.875V30.75H31.875C32.1875 30.75 32.5 30.4766 32.5 30.125V28.875C32.5 28.5625 32.1875 28.25 31.875 28.25ZM25.625 18.25H24.6875V15.125C24.6875 14.8125 24.375 14.5 24.0625 14.5H23.4375C23.0859 14.5 22.8125 14.8125 22.8125 15.125V18.25H21.875C21.5234 18.25 21.25 18.5625 21.25 18.875V20.125C21.25 20.4766 21.5234 20.75 21.875 20.75H22.8125V33.875C22.8125 34.2266 23.0859 34.5 23.4375 34.5H24.0625C24.375 34.5 24.6875 34.2266 24.6875 33.875V20.75H25.625C25.9375 20.75 26.25 20.4766 26.25 20.125V18.875C26.25 18.5625 25.9375 18.25 25.625 18.25ZM38.125 23.25H37.1875V15.125C37.1875 14.8125 36.875 14.5 36.5625 14.5H35.9375C35.5859 14.5 35.3125 14.8125 35.3125 15.125V23.25H34.375C34.0234 23.25 33.75 23.5625 33.75 23.875V25.125C33.75 25.4766 34.0234 25.75 34.375 25.75H35.3125V33.875C35.3125 34.2266 35.5859 34.5 35.9375 34.5H36.5625C36.875 34.5 37.1875 34.2266 37.1875 33.875V25.75H38.125C38.4375 25.75 38.75 25.4766 38.75 25.125V23.875C38.75 23.5625 38.4375 23.25 38.125 23.25Z" fill="#F7FAFC"/>
</svg>
