<svg width="64" height="48" viewBox="0 0 64 48" fill="none" xmlns="http://www.w3.org/2000/svg">
<path d="M0 24C0 10.7452 10.7452 0 24 0H64V48H24C10.7452 48 0 37.2548 0 24V24Z" fill="#3E495B"/>
<path d="M28.3212 28.25H27.3837V15.125C27.3837 14.8125 27.0712 14.5 26.7587 14.5H26.1337C25.7821 14.5 25.5087 14.8125 25.5087 15.125V28.25H24.5712C24.2196 28.25 23.9462 28.5625 23.9462 28.875V30.125C23.9462 30.4766 24.2196 30.75 24.5712 30.75H25.5087V33.875C25.5087 34.2266 25.7821 34.5 26.1337 34.5H26.7587C27.0712 34.5 27.3837 34.2266 27.3837 33.875V30.75H28.3212C28.6337 30.75 28.9462 30.4766 28.9462 30.125V28.875C28.9462 28.5625 28.6337 28.25 28.3212 28.25ZM22.0712 18.25H21.1337V15.125C21.1337 14.8125 20.8212 14.5 20.5087 14.5H19.8837C19.5321 14.5 19.2587 14.8125 19.2587 15.125V18.25H18.3212C17.9696 18.25 17.6962 18.5625 17.6962 18.875V20.125C17.6962 20.4766 17.9696 20.75 18.3212 20.75H19.2587V33.875C19.2587 34.2266 19.5321 34.5 19.8837 34.5H20.5087C20.8212 34.5 21.1337 34.2266 21.1337 33.875V20.75H22.0712C22.3837 20.75 22.6962 20.4766 22.6962 20.125V18.875C22.6962 18.5625 22.3837 18.25 22.0712 18.25ZM34.5712 23.25H33.6337V15.125C33.6337 14.8125 33.3212 14.5 33.0087 14.5H32.3837C32.0321 14.5 31.7587 14.8125 31.7587 15.125V23.25H30.8212C30.4696 23.25 30.1962 23.5625 30.1962 23.875V25.125C30.1962 25.4766 30.4696 25.75 30.8212 25.75H31.7587V33.875C31.7587 34.2266 32.0321 34.5 32.3837 34.5H33.0087C33.3212 34.5 33.6337 34.2266 33.6337 33.875V25.75H34.5712C34.8837 25.75 35.1962 25.4766 35.1962 25.125V23.875C35.1962 23.5625 34.8837 23.25 34.5712 23.25Z" fill="#F7FAFC"/>
</svg>
