<svg width="20" height="21" viewBox="0 0 20 21" fill="none" xmlns="http://www.w3.org/2000/svg">
<path d="M17.9805 5.62891C16.9141 5.19141 15.8477 5 14.7812 5C11.418 5 8.05469 6.72266 4.69141 6.72266C3.84375 6.72266 2.99609 6.61328 2.14844 6.33984C2.06641 6.3125 1.95703 6.28516 1.875 6.28516C1.41016 6.28516 1 6.66797 1 7.16016V15.8555C1 16.1836 1.19141 16.5117 1.49219 16.6484C2.55859 17.0859 3.625 17.25 4.69141 17.25C8.05469 17.25 11.418 15.5547 14.7812 15.5547C15.6289 15.5547 16.4766 15.6641 17.3242 15.9375C17.4062 15.9648 17.5156 15.9648 17.5977 15.9648C18.0625 15.9648 18.5 15.6094 18.5 15.1172V6.42188C18.5 6.09375 18.2812 5.76562 17.9805 5.62891ZM2.3125 7.76172C2.85938 7.89844 3.43359 7.95312 4.00781 8.00781C3.84375 8.80078 3.16016 9.40234 2.3125 9.40234V7.76172ZM2.3125 15.5547V14.2422C3.24219 14.2422 4.00781 14.9805 4.03516 15.9102C3.43359 15.8828 2.85938 15.7461 2.3125 15.5547ZM9.75 13.75C8.51953 13.75 7.5625 12.6016 7.5625 11.125C7.5625 9.67578 8.51953 8.5 9.75 8.5C10.9531 8.5 11.9375 9.67578 11.9375 11.125C11.9375 12.6016 10.9531 13.75 9.75 13.75ZM17.1875 14.5156C16.6953 14.4062 16.2031 14.3242 15.6836 14.2969C15.8477 13.5859 16.4492 13.0391 17.1875 12.957V14.5156ZM17.1875 8.0625C16.3398 7.95312 15.6836 7.24219 15.6562 6.39453C16.1758 6.44922 16.6953 6.55859 17.1875 6.72266V8.0625Z" fill="#A9B6C6"/>
</svg>
