<svg width="14" height="15" viewBox="0 0 14 15" fill="none" xmlns="http://www.w3.org/2000/svg">
<path d="M10.7891 5.67188C10.2422 4.98828 9.33984 4.79688 8.60156 5.15234C8.19141 4.71484 7.61719 4.52344 7.04297 4.60547V2.58203C7.04297 1.59766 6.22266 0.75 5.23828 0.75C4.22656 0.75 3.43359 1.59766 3.43359 2.58203V7.01172C2.88672 6.79297 2.23047 6.875 1.73828 7.25781C0.917969 7.83203 0.753906 8.98047 1.32812 9.80078L4.33594 14.0117C4.66406 14.4766 5.21094 14.75 5.8125 14.75H10.6797C11.5273 14.75 12.2383 14.1758 12.4297 13.3555L13.1953 10.1016C13.2227 9.99219 13.2227 9.80078 13.25 9.66406V7.36719C13.25 6.10938 11.9648 5.20703 10.7891 5.67188ZM3.1875 8.40625L3.95312 9.44531C4.19922 9.80078 4.74609 9.63672 4.74609 9.19922V2.58203C4.74609 1.89844 5.73047 1.89844 5.73047 2.58203V7.36719C5.73047 7.61328 5.92188 7.80469 6.16797 7.80469H6.35938C6.60547 7.80469 6.79688 7.61328 6.79688 7.36719V6.41016C6.79688 5.72656 7.80859 5.72656 7.80859 6.41016V7.36719C7.80859 7.61328 8 7.80469 8.24609 7.80469H8.4375C8.65625 7.80469 8.875 7.61328 8.875 7.36719V6.79297C8.875 6.10938 9.85938 6.10938 9.85938 6.79297V7.36719C9.85938 7.61328 10.0508 7.80469 10.2969 7.80469H10.4883C10.7344 7.80469 10.9258 7.61328 10.9258 7.36719C10.9258 6.68359 11.9102 6.68359 11.9102 7.36719V9.66406C11.9102 9.71875 11.9102 9.74609 11.9102 9.80078L11.1719 13.0547C11.1172 13.3008 10.8984 13.4375 10.6797 13.4375H5.8125C5.64844 13.4375 5.48438 13.3828 5.40234 13.2461L2.39453 9.03516C2.01172 8.48828 2.80469 7.85938 3.1875 8.40625ZM5.8125 11.6875C5.8125 11.9336 5.97656 12.125 6.19531 12.125H6.35938C6.55078 12.125 6.74219 11.9336 6.74219 11.6875V9.0625C6.74219 8.84375 6.55078 8.625 6.35938 8.625H6.19531C5.97656 8.625 5.8125 8.84375 5.8125 9.0625V11.6875ZM7.86328 11.6875C7.86328 11.9336 8.02734 12.125 8.24609 12.125H8.41016C8.62891 12.125 8.79297 11.9336 8.79297 11.6875V9.0625C8.79297 8.84375 8.62891 8.625 8.41016 8.625H8.24609C8.02734 8.625 7.86328 8.84375 7.86328 9.0625V11.6875ZM9.94141 11.6875C9.94141 11.9336 10.1055 12.125 10.3242 12.125H10.4883C10.6797 12.125 10.8711 11.9336 10.8711 11.6875V9.0625C10.8711 8.84375 10.6797 8.625 10.4883 8.625H10.3242C10.1055 8.625 9.94141 8.84375 9.94141 9.0625V11.6875Z" fill="#8D9CAF"/>
</svg>
