<svg width="20" height="20" viewBox="0 0 20 20" fill="none" xmlns="http://www.w3.org/2000/svg">
<path d="M2.3125 3C1.57422 3 1 3.60156 1 4.3125V6.0625C1 6.30859 1.19141 6.5 1.4375 6.5H3.625V4.3125C3.625 3.60156 3.02344 3 2.3125 3ZM8 14.293V12.625H15.875V5.625C15.875 4.20312 14.6719 3 13.25 3H4.03516C4.30859 3.38281 4.5 3.82031 4.5 4.3125V14.375C4.5 15.4414 5.42969 16.2891 6.52344 16.125C7.39844 15.9609 8 15.168 8 14.293ZM8.875 13.5V14.375C8.875 15.8242 7.67188 17 6.25 17H15.4375C17.1055 17 18.5 15.6328 18.5 13.9375C18.5 13.7188 18.2812 13.5 18.0625 13.5H8.875Z" fill="#A9B6C6"/>
</svg>
