<svg width="10" height="12" viewBox="0 0 10 12" fill="none" xmlns="http://www.w3.org/2000/svg">
<path d="M5.46484 6.25C5.19141 6.00391 4.78125 6.00391 4.53516 6.25L0.816406 9.96875C0.542969 10.2422 0.542969 10.6523 0.816406 10.8984L1.41797 11.5273C1.69141 11.7734 2.10156 11.7734 2.34766 11.5273L5 8.875L7.625 11.5273C7.87109 11.7734 8.30859 11.7734 8.55469 11.5273L9.18359 10.8984C9.42969 10.6523 9.42969 10.2422 9.18359 9.96875L5.46484 6.25ZM4.53516 1L0.816406 4.71875C0.542969 4.99219 0.542969 5.40234 0.816406 5.64844L1.41797 6.27734C1.69141 6.52344 2.10156 6.52344 2.34766 6.27734L4.97266 3.625L7.625 6.27734C7.87109 6.52344 8.28125 6.52344 8.55469 6.27734L9.15625 5.64844C9.42969 5.40234 9.42969 4.96484 9.15625 4.71875L5.4375 1C5.19141 0.753906 4.78125 0.753906 4.53516 1Z" fill="#0F1938"/>
</svg>
