<svg width="18" height="18" viewBox="0 0 18 18" fill="none" xmlns="http://www.w3.org/2000/svg">
<path d="M16.4375 10.625H14.25V13.25L13.375 12.6758L12.5 13.25V10.625H10.3125C10.0664 10.625 9.875 10.8438 9.875 11.0625V16.3125C9.875 16.5586 10.0664 16.75 10.3125 16.75H16.4375C16.6562 16.75 16.875 16.5586 16.875 16.3125V11.0625C16.875 10.8438 16.6562 10.625 16.4375 10.625ZM5.9375 8.875H12.0625C12.2812 8.875 12.5 8.68359 12.5 8.4375V3.1875C12.5 2.96875 12.2812 2.75 12.0625 2.75H9.875V5.375L9 4.80078L8.125 5.375V2.75H5.9375C5.69141 2.75 5.5 2.96875 5.5 3.1875V8.4375C5.5 8.68359 5.69141 8.875 5.9375 8.875ZM7.6875 10.625H5.5V13.25L4.625 12.6758L3.75 13.25V10.625H1.5625C1.31641 10.625 1.125 10.8438 1.125 11.0625V16.3125C1.125 16.5586 1.31641 16.75 1.5625 16.75H7.6875C7.90625 16.75 8.125 16.5586 8.125 16.3125V11.0625C8.125 10.8438 7.90625 10.625 7.6875 10.625Z" fill="#A9B6C6"/>
</svg>
