<svg width="21" height="21" viewBox="0 0 21 21" fill="none" xmlns="http://www.w3.org/2000/svg">
<path d="M10.3883 13.7812C9.76333 13.7812 9.29458 14.2891 9.29458 14.875C9.29458 15.5 9.76333 15.9688 10.3883 15.9688C10.9743 15.9688 11.4821 15.5 11.4821 14.875C11.4821 14.2891 10.9743 13.7812 10.3883 13.7812ZM10.6618 12.8438C10.9352 12.8438 11.1305 12.6484 11.1305 12.375C11.1305 10.6953 14.1774 10.8125 14.1774 8.19531C14.1774 6.20312 12.3805 5.03125 10.3493 5.03125C8.59145 5.03125 7.61489 5.73438 6.79458 6.78906C6.63833 7.02344 6.67739 7.29688 6.91176 7.45312L7.41958 7.84375C7.61489 7.96094 7.88833 7.92188 8.04458 7.72656C8.63051 6.98438 9.21645 6.59375 10.3493 6.59375C11.9118 6.59375 12.6149 7.41406 12.6149 8.19531C12.6149 9.875 9.56801 9.64062 9.56801 12.375C9.56801 12.6484 9.80239 12.8438 10.0368 12.8438H10.6618ZM10.3883 2.0625C14.9977 2.0625 18.8258 5.85156 18.8258 10.5C18.8258 15.1875 15.0368 18.9375 10.3883 18.9375C5.70083 18.9375 1.95083 15.1875 1.95083 10.5C1.95083 5.85156 5.70083 2.0625 10.3883 2.0625ZM10.3883 0.8125C5.03676 0.8125 0.700827 5.1875 0.700827 10.5C0.700827 15.8516 5.03676 20.1875 10.3883 20.1875C15.7008 20.1875 20.0758 15.8516 20.0758 10.5C20.0758 5.1875 15.7008 0.8125 10.3883 0.8125Z" fill="#0F1938"/>
</svg>
