<svg width="17" height="17" viewBox="0 0 17 17" fill="none" xmlns="http://www.w3.org/2000/svg">
<path d="M8 11.371C7.54839 11.371 7.20968 11.7379 7.20968 12.1613C7.20968 12.6129 7.54839 12.9516 8 12.9516C8.42339 12.9516 8.79032 12.6129 8.79032 12.1613C8.79032 11.7379 8.42339 11.371 8 11.371ZM8.19758 10.6935C8.39516 10.6935 8.53629 10.5524 8.53629 10.3548C8.53629 9.14113 10.7379 9.22581 10.7379 7.33468C10.7379 5.89516 9.43952 5.04839 7.97177 5.04839C6.70161 5.04839 5.99597 5.55645 5.40323 6.31855C5.29032 6.4879 5.31855 6.68548 5.4879 6.79839L5.85484 7.08065C5.99597 7.16532 6.19355 7.1371 6.30645 6.99597C6.72984 6.45968 7.15323 6.17742 7.97177 6.17742C9.10081 6.17742 9.60887 6.77016 9.60887 7.33468C9.60887 8.54839 7.40726 8.37903 7.40726 10.3548C7.40726 10.5524 7.57661 10.6935 7.74597 10.6935H8.19758ZM8 2.90323C11.3306 2.90323 14.0968 5.64113 14.0968 9C14.0968 12.3871 11.3589 15.0968 8 15.0968C4.6129 15.0968 1.90323 12.3871 1.90323 9C1.90323 5.64113 4.6129 2.90323 8 2.90323ZM8 2C4.13306 2 1 5.16129 1 9C1 12.8669 4.13306 16 8 16C11.8387 16 15 12.8669 15 9C15 5.16129 11.8387 2 8 2Z" fill="#8D9CAF"/>
</svg>
