<svg width="21" height="21" viewBox="0 0 21 21" fill="none" xmlns="http://www.w3.org/2000/svg">
<path d="M10.3881 13.7812C9.76308 13.7812 9.29433 14.2891 9.29433 14.875C9.29433 15.5 9.76308 15.9688 10.3881 15.9688C10.974 15.9688 11.4818 15.5 11.4818 14.875C11.4818 14.2891 10.974 13.7812 10.3881 13.7812ZM10.6615 12.8438C10.935 12.8438 11.1303 12.6484 11.1303 12.375C11.1303 10.6953 14.1771 10.8125 14.1771 8.19531C14.1771 6.20312 12.3803 5.03125 10.349 5.03125C8.59121 5.03125 7.61465 5.73438 6.79433 6.78906C6.63808 7.02344 6.67715 7.29688 6.91152 7.45312L7.41933 7.84375C7.61465 7.96094 7.88808 7.92188 8.04433 7.72656C8.63027 6.98438 9.21621 6.59375 10.349 6.59375C11.9115 6.59375 12.6146 7.41406 12.6146 8.19531C12.6146 9.875 9.56777 9.64062 9.56777 12.375C9.56777 12.6484 9.80215 12.8438 10.0365 12.8438H10.6615ZM10.3881 2.0625C14.9975 2.0625 18.8256 5.85156 18.8256 10.5C18.8256 15.1875 15.0365 18.9375 10.3881 18.9375C5.70058 18.9375 1.95058 15.1875 1.95058 10.5C1.95058 5.85156 5.70058 2.0625 10.3881 2.0625ZM10.3881 0.8125C5.03652 0.8125 0.700583 5.1875 0.700583 10.5C0.700583 15.8516 5.03652 20.1875 10.3881 20.1875C15.7006 20.1875 20.0756 15.8516 20.0756 10.5C20.0756 5.1875 15.7006 0.8125 10.3881 0.8125Z" fill="#F7FAFC"/>
</svg>
