<svg width="15" height="15" viewBox="0 0 15 15" fill="none" xmlns="http://www.w3.org/2000/svg">
<path d="M14.7656 7.37451C14.7656 3.39014 11.4844 0.108887 7.5 0.108887C3.48633 0.108887 0.234375 3.39014 0.234375 7.37451C0.234375 11.3882 3.48633 14.6401 7.5 14.6401C11.4844 14.6401 14.7656 11.3882 14.7656 7.37451ZM7.67578 2.51123C9.3457 2.51123 11.1035 3.80029 11.1035 5.49951C11.1035 7.78467 8.67188 7.81396 8.67188 8.63428V8.66357C8.67188 8.86865 8.49609 9.01514 8.32031 9.01514H6.67969C6.47461 9.01514 6.32812 8.86865 6.32812 8.66357V8.54639C6.32812 7.34521 7.23633 6.87646 7.91016 6.49561C8.49609 6.17334 8.87695 5.93896 8.87695 5.49951C8.87695 4.91357 8.11523 4.53271 7.5293 4.53271C6.73828 4.53271 6.38672 4.91357 5.85938 5.5874C5.74219 5.73389 5.50781 5.76318 5.36133 5.646L4.33594 4.88428C4.18945 4.76709 4.16016 4.56201 4.27734 4.38623C5.06836 3.18506 6.09375 2.51123 7.67578 2.51123ZM7.5 9.77686C8.23242 9.77686 8.84766 10.3921 8.84766 11.1245C8.84766 11.8862 8.23242 12.4722 7.5 12.4722C6.73828 12.4722 6.15234 11.8862 6.15234 11.1245C6.15234 10.3921 6.73828 9.77686 7.5 9.77686Z" fill="#8D9CAF"/>
</svg>
