<svg width="16" height="16" viewBox="0 0 16 16" fill="none" xmlns="http://www.w3.org/2000/svg">
<path d="M15.5312 8.26562C15.5312 4.28125 12.25 1 8.26562 1C4.25195 1 1 4.28125 1 8.26562C1 12.2793 4.25195 15.5312 8.26562 15.5312C12.25 15.5312 15.5312 12.2793 15.5312 8.26562ZM8.44141 3.40234C10.1113 3.40234 11.8691 4.69141 11.8691 6.39062C11.8691 8.67578 9.4375 8.70508 9.4375 9.52539V9.55469C9.4375 9.75977 9.26172 9.90625 9.08594 9.90625H7.44531C7.24023 9.90625 7.09375 9.75977 7.09375 9.55469V9.4375C7.09375 8.23633 8.00195 7.76758 8.67578 7.38672C9.26172 7.06445 9.64258 6.83008 9.64258 6.39062C9.64258 5.80469 8.88086 5.42383 8.29492 5.42383C7.50391 5.42383 7.15234 5.80469 6.625 6.47852C6.50781 6.625 6.27344 6.6543 6.12695 6.53711L5.10156 5.77539C4.95508 5.6582 4.92578 5.45312 5.04297 5.27734C5.83398 4.07617 6.85938 3.40234 8.44141 3.40234ZM8.26562 10.668C8.99805 10.668 9.61328 11.2832 9.61328 12.0156C9.61328 12.7773 8.99805 13.3633 8.26562 13.3633C7.50391 13.3633 6.91797 12.7773 6.91797 12.0156C6.91797 11.2832 7.50391 10.668 8.26562 10.668Z" fill="#A9B6C6"/>
</svg>
