<svg width="64" height="48" viewBox="0 0 64 48" fill="none" xmlns="http://www.w3.org/2000/svg">
<path d="M0 24C0 10.7452 10.7452 0 24 0H64V48H24C10.7452 48 0 37.2548 0 24V24Z" fill="#3E495B"/>
<path d="M17.9728 14.8125C17.6993 14.8125 17.504 15.0469 17.504 15.2812V22.7812C17.504 23.0547 17.6993 23.25 17.9728 23.25H25.4728C25.7072 23.25 25.9415 23.0547 25.9415 22.7812V21.7266C25.9415 21.4531 25.7072 21.2578 25.4337 21.2578L20.5118 21.375C21.7228 18.7188 24.379 16.8438 27.504 16.8438C31.7228 16.8438 35.1603 20.2812 35.1603 24.5C35.1603 28.7578 31.7228 32.1562 27.504 32.1562C25.5118 32.1562 23.754 31.4531 22.3868 30.2422C22.1915 30.0859 21.9181 30.0859 21.7618 30.2422L20.9806 31.0234C20.7853 31.2188 20.7853 31.5312 20.9806 31.7266C22.6993 33.25 25.004 34.1875 27.504 34.1875C32.8165 34.1875 37.1525 29.8906 37.1915 24.5391C37.1915 19.2266 32.8556 14.8516 27.504 14.8516C24.1447 14.8125 21.1368 16.5312 19.4181 19.1484L19.4962 15.3203C19.4962 15.0469 19.3009 14.8125 19.0275 14.8125H17.9728Z" fill="#F7FAFC"/>
</svg>
