<svg width="60" height="48" viewBox="0 0 60 48" fill="none" xmlns="http://www.w3.org/2000/svg">
<path d="M0 24C0 10.7452 10.7452 0 24 0H60V48H24C10.7452 48 0 37.2548 0 24V24Z" fill="#0F1938"/>
<path d="M20.4688 14.8125C20.1953 14.8125 20 15.0469 20 15.2812V22.7812C20 23.0547 20.1953 23.25 20.4688 23.25H27.9688C28.2031 23.25 28.4375 23.0547 28.4375 22.7812V21.7266C28.4375 21.4531 28.2031 21.2578 27.9297 21.2578L23.0078 21.375C24.2188 18.7188 26.875 16.8438 30 16.8438C34.2188 16.8438 37.6562 20.2812 37.6562 24.5C37.6562 28.7578 34.2188 32.1562 30 32.1562C28.0078 32.1562 26.25 31.4531 24.8828 30.2422C24.6875 30.0859 24.4141 30.0859 24.2578 30.2422L23.4766 31.0234C23.2812 31.2188 23.2812 31.5312 23.4766 31.7266C25.1953 33.25 27.5 34.1875 30 34.1875C35.3125 34.1875 39.6484 29.8906 39.6875 24.5391C39.6875 19.2266 35.3516 14.8516 30 14.8516C26.6406 14.8125 23.6328 16.5312 21.9141 19.1484L21.9922 15.3203C21.9922 15.0469 21.7969 14.8125 21.5234 14.8125H20.4688Z" fill="#EDF2F7"/>
</svg>
