<svg width="360" height="200" viewBox="0 0 360 200" fill="none" xmlns="http://www.w3.org/2000/svg">
<g opacity="0.4">
<path d="M270.031 44.25H269.25V26.4375C269.25 25.9297 268.82 25.5 268.312 25.5H255.188C254.641 25.5 254.25 25.9297 254.25 26.4375V44.25H253.469C253.195 44.25 253 44.4844 253 44.7188V45.5H270.5V44.7188C270.5 44.4844 270.266 44.25 270.031 44.25ZM258 28.4688C258 28.2344 258.195 28 258.469 28H260.031C260.266 28 260.5 28.2344 260.5 28.4688V30.0312C260.5 30.3047 260.266 30.5 260.031 30.5H258.469C258.195 30.5 258 30.3047 258 30.0312V28.4688ZM258 32.2188C258 31.9844 258.195 31.75 258.469 31.75H260.031C260.266 31.75 260.5 31.9844 260.5 32.2188V33.7812C260.5 34.0547 260.266 34.25 260.031 34.25H258.469C258.195 34.25 258 34.0547 258 33.7812V32.2188ZM260.031 38H258.469C258.195 38 258 37.8047 258 37.5312V35.9688C258 35.7344 258.195 35.5 258.469 35.5H260.031C260.266 35.5 260.5 35.7344 260.5 35.9688V37.5312C260.5 37.8047 260.266 38 260.031 38ZM263 44.25H260.5V40.9688C260.5 40.7344 260.695 40.5 260.969 40.5H262.531C262.766 40.5 263 40.7344 263 40.9688V44.25ZM265.5 37.5312C265.5 37.8047 265.266 38 265.031 38H263.469C263.195 38 263 37.8047 263 37.5312V35.9688C263 35.7344 263.195 35.5 263.469 35.5H265.031C265.266 35.5 265.5 35.7344 265.5 35.9688V37.5312ZM265.5 33.7812C265.5 34.0547 265.266 34.25 265.031 34.25H263.469C263.195 34.25 263 34.0547 263 33.7812V32.2188C263 31.9844 263.195 31.75 263.469 31.75H265.031C265.266 31.75 265.5 31.9844 265.5 32.2188V33.7812ZM265.5 30.0312C265.5 30.3047 265.266 30.5 265.031 30.5H263.469C263.195 30.5 263 30.3047 263 30.0312V28.4688C263 28.2344 263.195 28 263.469 28H265.031C265.266 28 265.5 28.2344 265.5 28.4688V30.0312Z" fill="#F7FAFC"/>
<path d="M270.031 179.25H269.25V161.438C269.25 160.93 268.82 160.5 268.312 160.5H255.188C254.641 160.5 254.25 160.93 254.25 161.438V179.25H253.469C253.195 179.25 253 179.484 253 179.719V180.5H270.5V179.719C270.5 179.484 270.266 179.25 270.031 179.25ZM258 163.469C258 163.234 258.195 163 258.469 163H260.031C260.266 163 260.5 163.234 260.5 163.469V165.031C260.5 165.305 260.266 165.5 260.031 165.5H258.469C258.195 165.5 258 165.305 258 165.031V163.469ZM258 167.219C258 166.984 258.195 166.75 258.469 166.75H260.031C260.266 166.75 260.5 166.984 260.5 167.219V168.781C260.5 169.055 260.266 169.25 260.031 169.25H258.469C258.195 169.25 258 169.055 258 168.781V167.219ZM260.031 173H258.469C258.195 173 258 172.805 258 172.531V170.969C258 170.734 258.195 170.5 258.469 170.5H260.031C260.266 170.5 260.5 170.734 260.5 170.969V172.531C260.5 172.805 260.266 173 260.031 173ZM263 179.25H260.5V175.969C260.5 175.734 260.695 175.5 260.969 175.5H262.531C262.766 175.5 263 175.734 263 175.969V179.25ZM265.5 172.531C265.5 172.805 265.266 173 265.031 173H263.469C263.195 173 263 172.805 263 172.531V170.969C263 170.734 263.195 170.5 263.469 170.5H265.031C265.266 170.5 265.5 170.734 265.5 170.969V172.531ZM265.5 168.781C265.5 169.055 265.266 169.25 265.031 169.25H263.469C263.195 169.25 263 169.055 263 168.781V167.219C263 166.984 263.195 166.75 263.469 166.75H265.031C265.266 166.75 265.5 166.984 265.5 167.219V168.781ZM265.5 165.031C265.5 165.305 265.266 165.5 265.031 165.5H263.469C263.195 165.5 263 165.305 263 165.031V163.469C263 163.234 263.195 163 263.469 163H265.031C265.266 163 265.5 163.234 265.5 163.469V165.031Z" fill="#F7FAFC"/>
<path d="M323.031 115.25H322.25V97.4375C322.25 96.9297 321.82 96.5 321.312 96.5H308.188C307.641 96.5 307.25 96.9297 307.25 97.4375V115.25H306.469C306.195 115.25 306 115.484 306 115.719V116.5H323.5V115.719C323.5 115.484 323.266 115.25 323.031 115.25ZM311 99.4688C311 99.2344 311.195 99 311.469 99H313.031C313.266 99 313.5 99.2344 313.5 99.4688V101.031C313.5 101.305 313.266 101.5 313.031 101.5H311.469C311.195 101.5 311 101.305 311 101.031V99.4688ZM311 103.219C311 102.984 311.195 102.75 311.469 102.75H313.031C313.266 102.75 313.5 102.984 313.5 103.219V104.781C313.5 105.055 313.266 105.25 313.031 105.25H311.469C311.195 105.25 311 105.055 311 104.781V103.219ZM313.031 109H311.469C311.195 109 311 108.805 311 108.531V106.969C311 106.734 311.195 106.5 311.469 106.5H313.031C313.266 106.5 313.5 106.734 313.5 106.969V108.531C313.5 108.805 313.266 109 313.031 109ZM316 115.25H313.5V111.969C313.5 111.734 313.695 111.5 313.969 111.5H315.531C315.766 111.5 316 111.734 316 111.969V115.25ZM318.5 108.531C318.5 108.805 318.266 109 318.031 109H316.469C316.195 109 316 108.805 316 108.531V106.969C316 106.734 316.195 106.5 316.469 106.5H318.031C318.266 106.5 318.5 106.734 318.5 106.969V108.531ZM318.5 104.781C318.5 105.055 318.266 105.25 318.031 105.25H316.469C316.195 105.25 316 105.055 316 104.781V103.219C316 102.984 316.195 102.75 316.469 102.75H318.031C318.266 102.75 318.5 102.984 318.5 103.219V104.781ZM318.5 101.031C318.5 101.305 318.266 101.5 318.031 101.5H316.469C316.195 101.5 316 101.305 316 101.031V99.4688C316 99.2344 316.195 99 316.469 99H318.031C318.266 99 318.5 99.2344 318.5 99.4688V101.031Z" fill="#F7FAFC"/>
<path d="M159 67C161.188 67 163 65.2188 163 63C163 60.8125 161.188 59 159 59C156.781 59 155 60.8125 155 63C155 65.2188 156.781 67 159 67ZM161.781 68H161.25C160.562 68.3438 159.812 68.5 159 68.5C158.188 68.5 157.406 68.3438 156.719 68H156.188C153.875 68 152 69.9062 152 72.2188V73.5C152 74.3438 152.656 75 153.5 75H164.5C165.312 75 166 74.3438 166 73.5V72.2188C166 69.9062 164.094 68 161.781 68Z" fill="#F7FAFC"/>
<path d="M126 24C128.188 24 130 22.2188 130 20C130 17.8125 128.188 16 126 16C123.781 16 122 17.8125 122 20C122 22.2188 123.781 24 126 24ZM128.781 25H128.25C127.562 25.3438 126.812 25.5 126 25.5C125.188 25.5 124.406 25.3438 123.719 25H123.188C120.875 25 119 26.9062 119 29.2188V30.5C119 31.3438 119.656 32 120.5 32H131.5C132.312 32 133 31.3438 133 30.5V29.2188C133 26.9062 131.094 25 128.781 25Z" fill="#F7FAFC"/>
<path d="M126 181C128.188 181 130 179.219 130 177C130 174.812 128.188 173 126 173C123.781 173 122 174.812 122 177C122 179.219 123.781 181 126 181ZM128.781 182H128.25C127.562 182.344 126.812 182.5 126 182.5C125.188 182.5 124.406 182.344 123.719 182H123.188C120.875 182 119 183.906 119 186.219V187.5C119 188.344 119.656 189 120.5 189H131.5C132.312 189 133 188.344 133 187.5V186.219C133 183.906 131.094 182 128.781 182Z" fill="#F7FAFC"/>
<path d="M159 138C161.188 138 163 136.219 163 134C163 131.812 161.188 130 159 130C156.781 130 155 131.812 155 134C155 136.219 156.781 138 159 138ZM161.781 139H161.25C160.562 139.344 159.812 139.5 159 139.5C158.188 139.5 157.406 139.344 156.719 139H156.188C153.875 139 152 140.906 152 143.219V144.5C152 145.344 152.656 146 153.5 146H164.5C165.312 146 166 145.344 166 144.5V143.219C166 140.906 164.094 139 161.781 139Z" fill="#F7FAFC"/>
<path opacity="0.5" d="M115 24C98.8235 24 100.81 24.5482 91.5385 59.1765C82.6471 92.3835 82.6471 102 70.4525 102H65" stroke="#F7FAFC"/>
<path opacity="0.5" d="M115 181C98.8235 181 100.81 180.445 91.5385 145.373C82.6471 111.74 82.6471 102 70.4525 102H65" stroke="#F7FAFC"/>
<path opacity="0.5" d="M251 35C238.077 35 227.246 35.3765 213.462 49.4314C199.677 63.4863 190.282 67 182.077 67H171" stroke="#F7FAFC"/>
<path opacity="0.5" d="M251 170C238.077 170 227.246 169.624 213.462 155.569C199.677 141.514 190.282 138 182.077 138H171" stroke="#F7FAFC"/>
<path opacity="0.5" d="M304 106C282.515 106 264.509 106.376 241.592 120.431C218.675 134.486 203.056 138 189.415 138H171" stroke="#F7FAFC"/>
<path opacity="0.5" d="M147 137C133.754 137 122.652 136.588 108.523 121.216C94.3938 105.843 84.5538 102 72.5692 102H65" stroke="#F7FAFC"/>
<path opacity="0.5" d="M147 67C133.754 67 122.652 67.42 108.523 83.1C94.3938 98.78 84.5538 102 72.5692 102H65" stroke="#F7FAFC"/>
<mask id="mask0" mask-type="alpha" maskUnits="userSpaceOnUse" x="35" y="86" width="30" height="30">
<circle cx="50" cy="101" r="15" fill="white"/>
</mask>
<g mask="url(#mask0)">
<circle cx="50" cy="101" r="15" fill="#F7FAFC"/>
</g>
</g>
</svg>
