<svg width="91" height="71" viewBox="0 0 91 71" fill="none" xmlns="http://www.w3.org/2000/svg">
<path opacity="0.97" d="M44.7172 33.8058C44.9935 33.8058 45.2698 33.7143 45.546 33.7143C50.427 33.7143 54.3871 37.6496 54.3871 42.5C54.3871 47.3504 50.427 51.2857 45.546 51.2857C40.573 51.2857 36.705 47.3504 36.705 42.5C36.705 42.317 36.705 42.0424 36.705 41.7679C37.5339 42.2254 38.5469 42.5 39.652 42.5C42.8753 42.5 45.546 39.9375 45.546 36.6429C45.546 35.6362 45.1777 34.6295 44.7172 33.8058ZM63.2281 29.4129C67.5565 33.3482 70.4114 38.1071 71.7928 41.4018C72.0691 42.1339 72.0691 42.9576 71.7928 43.6897C70.4114 46.8929 67.5565 51.6518 63.2281 55.6786C58.8997 59.7054 52.9136 63 45.546 63C38.0864 63 32.1003 59.7054 27.7719 55.6786C23.4435 51.6518 20.5886 46.8929 19.2072 43.6897C18.9309 42.9576 18.9309 42.1339 19.2072 41.4018C20.5886 38.1071 23.4435 33.3482 27.7719 29.4129C32.1003 25.3862 38.0864 22 45.546 22C52.9136 22 58.8997 25.3862 63.2281 29.4129ZM45.546 29.3214C38.1785 29.3214 32.2845 35.2701 32.2845 42.5C32.2845 49.8214 38.1785 55.6786 45.546 55.6786C52.8215 55.6786 58.8076 49.8214 58.8076 42.5C58.8076 35.2701 52.8215 29.3214 45.546 29.3214Z" fill="white"/>
</svg>
