<svg width="328" height="187" viewBox="0 0 328 187" fill="none" xmlns="http://www.w3.org/2000/svg">
<path fill-rule="evenodd" clip-rule="evenodd" d="M124.144 144.867C123.958 145.63 123.351 145.633 122.685 145.769C122.285 145.85 120.853 145.891 120.612 146.217C120.333 146.594 120.687 147.484 120.76 147.906C120.886 148.641 121.013 149.38 121.038 150.126C121.049 150.458 121.256 151.563 121.11 151.868C121.026 152.043 120.938 152.137 120.72 152.155C120.337 152.186 120.4 151.906 120.293 151.543C119.805 149.884 119.408 148.191 119.316 146.461C118.223 146.544 117.143 146.697 116.058 146.852C115.741 146.898 115.086 147.128 114.849 146.786C114.561 146.369 115.146 146.051 115.479 145.913C115.965 145.71 116.588 145.691 117.104 145.605C117.53 145.534 118.509 145.559 118.855 145.309C119.093 145.137 118.991 144.988 118.942 144.652C118.895 144.334 118.848 144.017 118.803 143.699C118.731 143.189 118.66 142.681 118.622 142.168C118.602 141.886 118.466 141.345 118.587 141.069C118.657 140.909 119.036 140.571 119.221 140.628C119.654 140.761 119.892 143.048 119.994 143.491C120.061 143.784 120.145 144.07 120.187 144.367C120.203 144.48 120.122 144.666 120.171 144.771C120.379 145.215 120.726 145.075 121.151 145.022C122.136 144.9 123.152 144.795 124.144 144.867Z" fill="#172553"/>
<path fill-rule="evenodd" clip-rule="evenodd" d="M69.8768 150.532C69.7761 150.941 69.4497 150.944 69.0918 151.017C68.877 151.061 68.1076 151.084 67.9777 151.259C67.8276 151.462 68.0167 151.938 68.0553 152.164C68.1225 152.558 68.19 152.953 68.2023 153.353C68.2077 153.531 68.3179 154.123 68.2392 154.286C68.1941 154.38 68.1466 154.431 68.0295 154.44C67.8238 154.457 67.8581 154.308 67.801 154.113C67.5402 153.224 67.3289 152.318 67.2812 151.391C66.6941 151.437 66.1137 151.52 65.5311 151.605C65.3603 151.63 65.0083 151.753 64.8816 151.571C64.7271 151.348 65.0416 151.177 65.2207 151.102C65.482 150.993 65.8166 150.982 66.0941 150.935C66.3232 150.897 66.8491 150.909 67.0349 150.775C67.1628 150.682 67.1082 150.603 67.0823 150.423C67.0577 150.253 67.0329 150.083 67.009 149.912C66.9707 149.639 66.9331 149.367 66.9135 149.092C66.9028 148.941 66.8303 148.652 66.8956 148.504C66.9334 148.418 67.1376 148.236 67.2369 148.267C67.4693 148.338 67.5946 149.563 67.6486 149.8C67.6844 149.957 67.7294 150.11 67.7515 150.269C67.7598 150.329 67.7165 150.429 67.7426 150.485C67.8539 150.723 68.0406 150.648 68.2684 150.619C68.7979 150.552 69.3438 150.495 69.8768 150.532Z" fill="#172553"/>
<path fill-rule="evenodd" clip-rule="evenodd" d="M105.272 159.72C104.527 158.55 105.661 157.753 106.487 158.488C107.529 159.631 106.184 160.736 105.272 159.72ZM105.309 160.613C107.874 161.339 108.037 158.709 106.741 158.027C105.332 157.308 102.586 158.765 105.309 160.613Z" fill="#172553"/>
<path fill-rule="evenodd" clip-rule="evenodd" d="M88.4056 140.102C87.6606 138.932 88.7948 138.135 89.6208 138.87C90.6627 140.013 89.3179 141.118 88.4056 140.102ZM88.4432 140.995C91.0079 141.721 91.1705 139.091 89.8747 138.409C88.4655 137.69 85.7193 139.147 88.4432 140.995Z" fill="#172553"/>
<path fill-rule="evenodd" clip-rule="evenodd" d="M227.758 154.708C228.027 153.753 228.793 153.779 229.639 153.64C230.146 153.557 231.954 153.576 232.272 153.175C232.641 152.712 232.235 151.571 232.162 151.034C232.036 150.099 231.909 149.159 231.912 148.215C231.913 147.796 231.702 146.389 231.899 146.01C232.013 145.794 232.128 145.679 232.404 145.667C232.888 145.647 232.796 145.997 232.914 146.461C233.455 148.582 233.879 150.74 233.917 152.931C235.299 152.88 236.668 152.739 238.042 152.596C238.444 152.554 239.28 152.296 239.563 152.739C239.908 153.28 239.156 153.653 238.73 153.812C238.108 154.045 237.322 154.038 236.667 154.121C236.126 154.19 234.893 154.11 234.446 154.409C234.139 154.615 234.261 154.809 234.307 155.236C234.351 155.639 234.396 156.042 234.439 156.446C234.507 157.094 234.573 157.739 234.597 158.39C234.611 158.747 234.758 159.436 234.593 159.779C234.497 159.978 234.003 160.387 233.773 160.306C233.233 160.116 233.037 157.215 232.929 156.651C232.857 156.277 232.764 155.911 232.724 155.534C232.71 155.39 232.819 155.16 232.762 155.025C232.52 154.453 232.076 154.613 231.539 154.659C230.291 154.765 229.006 154.848 227.758 154.708Z" fill="#172553"/>
<path fill-rule="evenodd" clip-rule="evenodd" d="M209.714 142.09C209.675 141.524 210.092 141.391 210.52 141.155C210.777 141.013 211.753 140.678 211.848 140.401C211.957 140.082 211.518 139.544 211.376 139.269C211.128 138.79 210.878 138.308 210.698 137.799C210.618 137.573 210.233 136.855 210.266 136.614C210.285 136.475 210.325 136.391 210.471 136.333C210.728 136.229 210.746 136.435 210.899 136.663C211.599 137.702 212.243 138.783 212.686 139.956C213.419 139.664 214.128 139.327 214.84 138.987C215.048 138.887 215.448 138.588 215.686 138.773C215.976 138.999 215.643 139.343 215.445 139.51C215.155 139.754 214.731 139.901 214.394 140.071C214.117 140.211 213.438 140.404 213.255 140.651C213.129 140.82 213.232 140.901 213.34 141.122C213.441 141.331 213.543 141.54 213.644 141.749C213.805 142.085 213.965 142.42 214.104 142.766C214.179 142.955 214.391 143.299 214.369 143.515C214.356 143.64 214.169 143.955 214.029 143.955C213.702 143.956 213.037 142.431 212.871 142.148C212.76 141.96 212.639 141.781 212.545 141.585C212.51 141.511 212.524 141.366 212.468 141.304C212.227 141.042 212.019 141.213 211.739 141.34C211.088 141.636 210.413 141.926 209.714 142.09Z" fill="#172553"/>
<path fill-rule="evenodd" clip-rule="evenodd" d="M198.105 153.199C199.18 154.101 198.327 155.216 197.307 154.757C195.954 153.971 196.916 152.496 198.105 153.199ZM197.797 152.348C195.102 152.428 195.744 155.015 197.202 155.279C198.78 155.545 200.988 153.304 197.797 152.348Z" fill="#172553"/>
<path d="M101.66 121.255C87.9481 121.255 76.8316 110.172 76.8316 96.4995C76.8316 82.8273 87.9476 71.7435 101.66 71.7435C102.49 71.7435 103.311 71.788 104.12 71.8674C104.12 71.8254 104.113 71.7854 104.113 71.7435C104.113 54.8701 117.832 41.1913 134.754 41.1913C138.34 41.1913 141.767 41.8375 144.964 42.9655C151.163 30.8693 163.772 22.5822 178.33 22.5822C198.909 22.5822 215.605 39.1304 215.778 59.6084C217.436 59.336 219.126 59.1588 220.862 59.1588C238.059 59.1588 252 73.0599 252 90.2067C252 107.354 238.059 121.255 220.862 121.255H101.66Z" fill="#172553"/>
<path d="M97.0931 125.163C82.3077 125.163 70.3207 111.573 70.3207 96.8183C70.3207 83.5594 79.8083 71.5254 92.461 69.2211M100.275 67.0338C100.275 48.824 114.532 37.1292 132.779 37.1292M179.069 19C201.258 19 219.96 34.9051 220.147 57.0051M225.06 125.163H205.558M103.857 125.163H122.806" stroke="#172553"/>
<path d="M154.593 81.3693L172.786 81.4014C175.307 81.4059 177.331 83.4379 177.327 85.9593L177.26 123.875L196.932 123.909C200.987 123.917 203.007 128.811 200.14 131.688L166.764 164.995C164.979 166.773 162.099 166.768 160.32 164.983L127.062 131.559C124.205 128.691 126.242 123.785 130.297 123.792L149.969 123.827L150.036 85.9111C150.041 83.3897 152.072 81.3648 154.593 81.3693Z" fill="white"/>
<circle cx="189.84" cy="48.6992" r="13.4439" transform="rotate(-4.03954 189.84 48.6992)" fill="#FB8A89"/>
<g clip-path="url(#clip0_1028_7560)">
<path opacity="0.4" d="M197.77 52.9259L194.374 50.9242L194.046 46.2745L197.126 43.8126C197.725 43.3369 198.616 43.7193 198.669 44.4696L199.205 52.0586C199.258 52.8119 198.426 53.313 197.77 52.9259Z" fill="white"/>
<path d="M182.226 53.7273L181.625 45.2077C181.598 44.8332 181.722 44.4636 181.968 44.1801C182.214 43.8965 182.563 43.7224 182.937 43.696L191.457 43.0943C191.642 43.0812 191.828 43.1048 192.005 43.1636C192.181 43.2225 192.344 43.3155 192.484 43.4374C192.625 43.5592 192.74 43.7076 192.823 43.8739C192.906 44.0402 192.955 44.2212 192.968 44.4066L193.57 52.9262C193.583 53.1116 193.56 53.2978 193.501 53.4741C193.442 53.6505 193.349 53.8135 193.227 53.9539C193.105 54.0942 192.957 54.2092 192.79 54.2923C192.624 54.3754 192.443 54.4249 192.258 54.438L183.738 55.0396C183.364 55.0661 182.994 54.9427 182.71 54.6965C182.427 54.4504 182.253 54.1018 182.226 53.7273V53.7273Z" fill="white"/>
</g>
<circle cx="113.414" cy="95.8075" r="14.4626" fill="#FB8A89"/>
<path opacity="0.4" d="M109.863 95.7791V89.7707C109.863 88.8146 110.243 87.8976 110.919 87.2215C111.595 86.5455 112.512 86.1656 113.468 86.1656C114.424 86.1656 115.34 86.5455 116.016 87.2215C116.692 87.8976 117.072 88.8146 117.072 89.7707V95.7791C117.072 96.7352 116.692 97.6522 116.016 98.3282C115.34 99.0043 114.424 99.3841 113.468 99.3841C112.512 99.3841 111.595 99.0043 110.919 98.3282C110.243 97.6522 109.863 96.7352 109.863 95.7791V95.7791Z" fill="white"/>
<path d="M120.077 95.7813C120.077 99.1197 117.588 101.882 114.37 102.324V103.592H116.473C116.632 103.592 116.785 103.656 116.897 103.768C117.01 103.881 117.073 104.034 117.073 104.193V104.794C117.073 104.953 117.01 105.106 116.897 105.219C116.785 105.331 116.632 105.395 116.473 105.395H110.465C110.306 105.395 110.153 105.331 110.041 105.219C109.928 105.106 109.865 104.953 109.865 104.794V104.193C109.865 104.034 109.928 103.881 110.041 103.768C110.153 103.656 110.306 103.592 110.465 103.592H112.568V102.31C109.264 101.854 106.861 98.8531 106.861 95.4869V93.9788C106.861 93.8194 106.924 93.6666 107.037 93.5539C107.15 93.4413 107.302 93.378 107.462 93.378H108.063C108.222 93.378 108.375 93.4413 108.487 93.5539C108.6 93.6666 108.663 93.8194 108.663 93.9788V95.5673C108.663 98.0762 110.492 100.321 112.989 100.565C113.657 100.631 114.332 100.557 114.969 100.346C115.607 100.136 116.194 99.795 116.691 99.3444C117.189 98.8939 117.587 98.3441 117.86 97.7305C118.133 97.1168 118.274 96.4529 118.275 95.7813V93.9788C118.275 93.8194 118.338 93.6666 118.451 93.5539C118.563 93.4413 118.716 93.378 118.876 93.378H119.476C119.636 93.378 119.788 93.4413 119.901 93.5539C120.014 93.6666 120.077 93.8194 120.077 93.9788V95.7813Z" fill="white"/>
<circle cx="195.419" cy="89.832" r="12.9947" transform="rotate(7.16046 195.419 89.832)" fill="#FB8A89"/>
<g clip-path="url(#clip1_1028_7560)">
<path opacity="0.4" d="M203.244 84.9775C201.559 83.1334 198.718 83.0697 196.762 84.6386L195.996 85.2522L195.406 84.4683C193.902 82.4648 191.13 81.8232 189.042 83.1933C186.649 84.7667 186.119 88.064 187.803 90.3066L193.599 98.0202C193.687 98.1382 193.797 98.2372 193.924 98.3113C194.051 98.3854 194.191 98.4331 194.337 98.4514C194.482 98.4697 194.63 98.4583 194.771 98.4178C194.912 98.3774 195.044 98.3087 195.158 98.216L202.682 92.1758C204.872 90.4198 205.174 87.0939 203.244 84.9775V84.9775ZM200.627 91.117L195.079 95.4496C195.024 95.4927 194.961 95.5245 194.894 95.5432C194.826 95.5618 194.756 95.5669 194.686 95.5582C194.617 95.5495 194.55 95.5271 194.489 95.4923C194.429 95.4576 194.375 95.4112 194.333 95.3558L190.122 89.9047C189.269 88.8003 189.284 87.177 190.294 86.212C190.562 85.953 190.882 85.7536 191.233 85.6267C191.584 85.4999 191.957 85.4484 192.329 85.4757C192.701 85.5031 193.063 85.6086 193.392 85.7853C193.72 85.9621 194.007 86.2061 194.235 86.5015L195.603 88.2713L197.246 86.9888C198.346 86.1299 199.962 86.1413 200.921 87.1551C201.179 87.4264 201.376 87.7486 201.502 88.1009C201.628 88.4532 201.678 88.8279 201.651 89.2009C201.623 89.5739 201.518 89.9371 201.341 90.267C201.165 90.5969 200.922 90.8863 200.627 91.1167L200.627 91.117Z" fill="white"/>
<path d="M194.332 95.3558L190.122 89.9047C189.268 88.8003 189.283 87.1771 190.293 86.212C190.562 85.9531 190.882 85.7536 191.232 85.6268C191.583 85.4999 191.956 85.4485 192.328 85.4758C192.7 85.5031 193.062 85.6086 193.391 85.7854C193.719 85.9621 194.007 86.2062 194.234 86.5015L195.602 88.2713L197.245 86.9889C198.345 86.1303 199.961 86.1414 200.92 87.1551C201.178 87.4263 201.376 87.7484 201.502 88.1007C201.627 88.453 201.678 88.8277 201.651 89.2007C201.623 89.5738 201.518 89.9369 201.342 90.2669C201.166 90.5969 200.922 90.8864 200.628 91.1168L195.078 95.4496C195.023 95.4927 194.96 95.5245 194.893 95.5431C194.825 95.5618 194.755 95.5669 194.685 95.5581C194.616 95.5494 194.549 95.5271 194.488 95.4923C194.428 95.4576 194.374 95.4112 194.332 95.3558V95.3558Z" fill="white"/>
</g>
<circle cx="225.824" cy="78.0548" r="11.0804" transform="rotate(10.9296 225.824 78.0548)" fill="#FB8A89"/>
<path d="M233.621 75.5271L229.615 76.4763L228.145 84.0897L232.165 83.332C232.335 83.2999 232.492 83.2178 232.615 83.0963C232.738 82.9748 232.821 82.8195 232.854 82.6504L234.131 76.0325C234.144 75.9634 234.14 75.8921 234.119 75.8248C234.098 75.7575 234.061 75.6962 234.011 75.6463C233.961 75.5965 233.899 75.5595 233.831 75.5387C233.763 75.5179 233.691 75.5139 233.621 75.5271ZM219.086 74.2233C218.916 74.2554 218.759 74.3373 218.637 74.4586C218.514 74.5798 218.431 74.7348 218.398 74.9036L217.12 81.5215C217.107 81.5906 217.111 81.662 217.132 81.7293C217.153 81.7967 217.19 81.8581 217.24 81.908C217.291 81.9579 217.352 81.9949 217.42 82.0157C217.488 82.0366 217.56 82.0406 217.63 82.0274L221.637 81.0777L222.826 74.9161C222.678 74.4804 222.568 74.0332 222.496 73.5794L219.086 74.2233ZM225.505 79.4027C225.319 79.3667 225.144 79.291 224.99 79.1809C224.837 79.0707 224.709 78.9288 224.617 78.765C224.21 78.0514 223.787 77.2451 223.42 76.4314L222.491 81.2427L227.291 83.9247L228.546 77.4216C227.903 78.0401 227.21 78.6311 226.566 79.1429C226.419 79.2602 226.248 79.3442 226.065 79.389C225.882 79.4339 225.691 79.4386 225.505 79.4027V79.4027Z" fill="white"/>
<path opacity="0.4" d="M227.415 69.8729C226.523 69.7008 225.601 69.8865 224.85 70.3893C224.1 70.892 223.582 71.6706 223.412 72.5537C223.125 74.0405 224.798 77.1746 225.449 78.3202C225.48 78.3746 225.522 78.4218 225.573 78.4584C225.623 78.495 225.681 78.5201 225.743 78.532C225.805 78.5439 225.868 78.5423 225.929 78.5272C225.989 78.5122 226.046 78.484 226.095 78.4449C227.126 77.6243 229.845 75.3387 230.132 73.8519C230.302 72.9687 230.112 72.0534 229.602 71.3072C229.093 70.561 228.306 70.0451 227.415 69.8729V69.8729ZM226.557 74.3127C226.336 74.2699 226.132 74.163 225.971 74.0055C225.811 73.8479 225.701 73.6469 225.655 73.4277C225.609 73.2085 225.63 72.981 225.715 72.774C225.8 72.5671 225.945 72.3899 226.131 72.2649C226.318 72.14 226.538 72.0728 226.763 72.072C226.989 72.0711 227.21 72.1366 227.398 72.2601C227.587 72.3837 227.734 72.5597 227.822 72.766C227.91 72.9723 227.934 73.1996 227.892 73.4191C227.835 73.7135 227.662 73.973 227.412 74.1406C227.162 74.3082 226.855 74.3701 226.557 74.3127Z" fill="white"/>
<circle cx="135.417" cy="65.9867" r="9.95129" fill="#FB8A89"/>
<path d="M136.858 67.3591H132.435L130.505 68.8092C130.471 68.8344 130.431 68.8496 130.389 68.8533C130.347 68.857 130.305 68.8489 130.268 68.83C130.23 68.8111 130.199 68.7821 130.177 68.7462C130.155 68.7104 130.143 68.6691 130.143 68.6271V67.3615C129.748 67.3611 129.368 67.2035 129.089 66.9234C128.809 66.6432 128.651 66.2633 128.651 65.8671V62.131C128.651 61.7348 128.809 61.3549 129.089 61.0747C129.368 60.7945 129.748 60.6369 130.143 60.6366H136.858C137.254 60.6369 137.633 60.7945 137.913 61.0747C138.193 61.3549 138.35 61.7348 138.351 62.131V65.8671C138.351 66.0632 138.312 66.2574 138.237 66.4386C138.162 66.6197 138.052 66.7843 137.913 66.9229C137.775 67.0615 137.61 67.1713 137.429 67.2462C137.248 67.321 137.054 67.3594 136.858 67.3591V67.3591Z" fill="white"/>
<path opacity="0.4" d="M142.123 65.8973V69.6323C142.122 70.0284 141.964 70.4082 141.682 70.6883C141.4 70.9684 141.018 71.1259 140.62 71.1263H139.869V72.3938C139.869 72.4359 139.857 72.4771 139.835 72.513C139.813 72.5488 139.781 72.5778 139.743 72.5967C139.706 72.6156 139.663 72.6237 139.621 72.62C139.579 72.6163 139.539 72.6011 139.505 72.5759L137.561 71.1263H134.61C134.212 71.1259 133.83 70.9684 133.548 70.6883C133.267 70.4082 133.108 70.0284 133.108 69.6323V68.1383H136.864C137.461 68.1373 138.034 67.9009 138.456 67.4809C138.879 67.0608 139.117 66.4913 139.118 65.8973V64.4033H140.62C141.018 64.4036 141.4 64.5612 141.682 64.8413C141.964 65.1214 142.122 65.5011 142.123 65.8973Z" fill="white"/>
<circle cx="165.322" cy="64.5563" r="10.3896" transform="rotate(-10.6898 165.322 64.5563)" fill="#FB8A89"/>
<path opacity="0.4" d="M171.206 60.9237L172.289 66.6674C172.321 66.8367 172.285 67.0117 172.188 67.154C172.091 67.2962 171.941 67.3941 171.772 67.4261L160.286 69.5949C160.117 69.6268 159.942 69.5903 159.799 69.4932C159.657 69.3961 159.559 69.2465 159.527 69.0772L158.443 63.3335C158.412 63.1643 158.448 62.9893 158.545 62.847C158.642 62.7047 158.792 62.6068 158.961 62.5749L162.372 61.9308L165.405 64.0018L160.879 64.8565C160.836 64.8645 160.799 64.889 160.775 64.9245C160.75 64.9601 160.741 65.0038 160.749 65.0462L160.809 65.3653C160.817 65.4076 160.842 65.445 160.877 65.4692C160.913 65.4935 160.957 65.5027 160.999 65.4947L166.164 64.5195L167.681 65.5549L161.24 66.771C161.198 66.779 161.16 66.8035 161.136 66.8391C161.112 66.8746 161.102 66.9184 161.11 66.9607L161.171 67.2798C161.179 67.3221 161.203 67.3595 161.239 67.3838C161.274 67.4081 161.318 67.4172 161.36 67.4092L170.453 65.6923C170.538 65.6763 170.613 65.6273 170.661 65.5562C170.71 65.4851 170.728 65.3976 170.712 65.3129L170.432 63.8279C170.4 63.6603 170.336 63.5006 170.243 63.3578C170.149 63.215 170.029 63.092 169.888 62.9959L167.037 61.0499L170.447 60.406C170.616 60.3741 170.791 60.4107 170.933 60.5078C171.076 60.6049 171.174 60.7545 171.206 60.9237Z" fill="white"/>
<path d="M169.523 63.5334L164.036 59.7892L162.876 61.4891L168.362 65.2338C168.432 65.2819 168.511 65.3157 168.595 65.3332C168.678 65.3506 168.764 65.3515 168.848 65.3356L169.696 65.1756C169.78 65.1597 169.855 65.1107 169.904 65.0396C169.952 64.9684 169.97 64.8809 169.954 64.7963L169.795 63.9495C169.763 63.7802 169.665 63.6306 169.523 63.5334ZM162.509 58.7459C162.403 58.6739 162.272 58.6469 162.145 58.6708C162.019 58.6947 161.907 58.7676 161.833 58.8736L161.221 59.7715C161.149 59.8779 161.122 60.0085 161.145 60.1347C161.169 60.261 161.242 60.3727 161.348 60.4456L162.341 61.1234L163.501 59.4215L162.509 58.7459Z" fill="white"/>
<path fill-rule="evenodd" clip-rule="evenodd" d="M178.473 126.707L178.542 87.7918C178.545 85.8224 176.967 84.2392 174.999 84.2357L156.806 84.2036C154.838 84.2001 153.254 85.7778 153.251 87.7472L153.182 126.663L132.51 126.626C129.347 126.621 127.756 130.45 129.985 132.687L163.243 166.112C164.632 167.506 166.879 167.51 168.273 166.121L201.646 132.816C201.647 132.816 201.646 132.816 201.646 132.816C203.888 130.566 202.306 126.749 199.145 126.744L178.473 126.707ZM202.355 133.522C205.221 130.646 203.202 125.751 199.147 125.744L179.475 125.709L179.542 87.7936C179.546 85.2722 177.522 83.2402 175.001 83.2357L156.807 83.2036C154.287 83.1991 152.255 85.224 152.251 87.7454L152.184 125.661L132.512 125.626C128.456 125.619 126.42 130.525 129.277 133.393L162.535 166.817C164.313 168.603 167.194 168.608 168.979 166.829L202.355 133.522Z" fill="#0F1938"/>
<defs>
<clipPath id="clip0_1028_7560">
<rect width="17.0578" height="15.1625" fill="white" transform="translate(181.39 41.9052) rotate(-4.03954)"/>
</clipPath>
<clipPath id="clip1_1028_7560">
<rect width="17.7619" height="17.7619" fill="white" transform="translate(187.601 80.8226) rotate(7.16046)"/>
</clipPath>
</defs>
</svg>
