<svg width="24" height="24" viewBox="0 0 24 24" fill="none" xmlns="http://www.w3.org/2000/svg">
<path d="M13.7891 12.5L17.8125 8.51562L18.6328 7.69531C18.75 7.57812 18.75 7.38281 18.6328 7.22656L17.7734 6.36719C17.6172 6.25 17.4219 6.25 17.3047 6.36719L12.5 11.2109L7.65625 6.36719C7.53906 6.25 7.34375 6.25 7.1875 6.36719L6.32812 7.22656C6.21094 7.38281 6.21094 7.57812 6.32812 7.69531L11.1719 12.5L6.32812 17.3438C6.21094 17.4609 6.21094 17.6562 6.32812 17.8125L7.1875 18.6719C7.34375 18.7891 7.53906 18.7891 7.65625 18.6719L12.5 13.8281L16.4844 17.8516L17.3047 18.6719C17.4219 18.7891 17.6172 18.7891 17.7734 18.6719L18.6328 17.8125C18.75 17.6562 18.75 17.4609 18.6328 17.3438L13.7891 12.5Z" fill="#F7FAFC"/>
</svg>
