<svg width="18" height="21" viewBox="0 0 18 21" fill="none" xmlns="http://www.w3.org/2000/svg">
<path d="M11.0155 14.25H10.078V1.125C10.078 0.8125 9.7655 0.5 9.453 0.5H8.828C8.47643 0.5 8.203 0.8125 8.203 1.125V14.25H7.2655C6.91393 14.25 6.6405 14.5625 6.6405 14.875V16.125C6.6405 16.4766 6.91393 16.75 7.2655 16.75H8.203V19.875C8.203 20.2266 8.47643 20.5 8.828 20.5H9.453C9.7655 20.5 10.078 20.2266 10.078 19.875V16.75H11.0155C11.328 16.75 11.6405 16.4766 11.6405 16.125V14.875C11.6405 14.5625 11.328 14.25 11.0155 14.25ZM4.7655 4.25H3.828V1.125C3.828 0.8125 3.5155 0.5 3.203 0.5H2.578C2.22643 0.5 1.953 0.8125 1.953 1.125V4.25H1.0155C0.663933 4.25 0.390495 4.5625 0.390495 4.875V6.125C0.390495 6.47656 0.663933 6.75 1.0155 6.75H1.953V19.875C1.953 20.2266 2.22643 20.5 2.578 20.5H3.203C3.5155 20.5 3.828 20.2266 3.828 19.875V6.75H4.7655C5.078 6.75 5.3905 6.47656 5.3905 6.125V4.875C5.3905 4.5625 5.078 4.25 4.7655 4.25ZM17.2655 9.25H16.328V1.125C16.328 0.8125 16.0155 0.5 15.703 0.5H15.078C14.7264 0.5 14.453 0.8125 14.453 1.125V9.25H13.5155C13.1639 9.25 12.8905 9.5625 12.8905 9.875V11.125C12.8905 11.4766 13.1639 11.75 13.5155 11.75H14.453V19.875C14.453 20.2266 14.7264 20.5 15.078 20.5H15.703C16.0155 20.5 16.328 20.2266 16.328 19.875V11.75H17.2655C17.578 11.75 17.8905 11.4766 17.8905 11.125V9.875C17.8905 9.5625 17.578 9.25 17.2655 9.25Z" fill="#0F1938"/>
</svg>
