<svg width="20" height="20" viewBox="0 0 20 20" fill="none" xmlns="http://www.w3.org/2000/svg">
<path d="M10.1582 0.306641C4.80664 0.306641 0.470703 4.68164 0.470703 9.99414C0.470703 15.3457 4.80664 19.6816 10.1582 19.6816C15.4707 19.6816 19.8457 15.3457 19.8457 9.99414C19.8457 4.68164 15.4707 0.306641 10.1582 0.306641ZM10.1582 4.60352C11.0566 4.60352 11.7988 5.3457 11.7988 6.24414C11.7988 7.18164 11.0566 7.88477 10.1582 7.88477C9.2207 7.88477 8.51758 7.18164 8.51758 6.24414C8.51758 5.3457 9.2207 4.60352 10.1582 4.60352ZM12.3457 14.5254C12.3457 14.7988 12.1113 14.9941 11.877 14.9941H8.43945C8.16602 14.9941 7.9707 14.7988 7.9707 14.5254V13.5879C7.9707 13.3535 8.16602 13.1191 8.43945 13.1191H8.9082V10.6191H8.43945C8.16602 10.6191 7.9707 10.4238 7.9707 10.1504V9.21289C7.9707 8.97852 8.16602 8.74414 8.43945 8.74414H10.9395C11.1738 8.74414 11.4082 8.97852 11.4082 9.21289V13.1191H11.877C12.1113 13.1191 12.3457 13.3535 12.3457 13.5879V14.5254Z" fill="#0F1938"/>
</svg>
