<svg width="11" height="16" viewBox="0 0 11 16" fill="none" xmlns="http://www.w3.org/2000/svg">
<path d="M5.42529 12.8C4.50575 12.8 3.81609 13.5429 3.81609 14.4C3.81609 15.3143 4.50575 16 5.42529 16C6.28736 16 7.03448 15.3143 7.03448 14.4C7.03448 13.5429 6.28736 12.8 5.42529 12.8ZM5.82759 11.4286C6.22989 11.4286 6.51724 11.1429 6.51724 10.7429C6.51724 8.28571 11 8.45714 11 4.62857C11 1.71429 8.35632 0 5.36782 0C2.78161 0 1.34483 1.02857 0.137931 2.57143C-0.091954 2.91429 -0.0344828 3.31429 0.310345 3.54286L1.05747 4.11429C1.34483 4.28571 1.74713 4.22857 1.97701 3.94286C2.83908 2.85714 3.70115 2.28571 5.36782 2.28571C7.66667 2.28571 8.70115 3.48571 8.70115 4.62857C8.70115 7.08571 4.21839 6.74286 4.21839 10.7429C4.21839 11.1429 4.56322 11.4286 4.90805 11.4286H5.82759Z" fill="#0F1938"/>
</svg>
