<svg width="24" height="24" viewBox="0 0 24 24" fill="none" xmlns="http://www.w3.org/2000/svg">
<path d="M17.6478 15.9734C18.1357 16.4238 18.1357 17.2119 17.6478 17.6622C17.4227 17.8874 17.1224 18 16.8222 18C16.4844 18 16.1842 17.8874 15.959 17.6622L12.0184 13.7217L8.04033 17.6622C7.81515 17.8874 7.51492 18 7.21468 18C6.87692 18 6.57668 17.8874 6.35151 17.6622C5.86363 17.2119 5.86363 16.4238 6.35151 15.9734L10.2921 11.9953L6.35151 8.05473C5.86363 7.60438 5.86363 6.81626 6.35151 6.36591C6.80186 5.87803 7.58997 5.87803 8.04033 6.36591L12.0184 10.3065L15.959 6.36591C16.4094 5.87803 17.1975 5.87803 17.6478 6.36591C18.1357 6.81626 18.1357 7.60438 17.6478 8.05473L13.7073 12.0328L17.6478 15.9734Z" fill="#0D532A"/>
</svg>
