<svg width="260" height="214" viewBox="0 0 260 214" fill="none" xmlns="http://www.w3.org/2000/svg">
<line x1="20" y1="198.102" x2="254" y2="198.102" stroke="#CBD5E0"/>
<line x1="20" y1="176.102" x2="254" y2="176.102" stroke="#CBD5E0"/>
<line x1="20" y1="154.102" x2="254" y2="154.102" stroke="#CBD5E0"/>
<line x1="20" y1="132.102" x2="254" y2="132.102" stroke="#CBD5E0"/>
<line x1="20" y1="110.102" x2="254" y2="110.102" stroke="#CBD5E0"/>
<line x1="20" y1="88.1016" x2="254" y2="88.1016" stroke="#CBD5E0"/>
<line x1="20" y1="66.1016" x2="254" y2="66.1016" stroke="#CBD5E0"/>
<g opacity="0.3">
<rect x="20" y="171.602" width="30" height="49" fill="#3749A9"/>
<rect x="54" y="118.602" width="30" height="102" fill="#3749A9"/>
<rect x="88" y="145.602" width="30" height="75" fill="#3749A9"/>
<rect x="122" y="96.6016" width="30" height="124" fill="#3749A9"/>
<rect x="156" y="56.6016" width="30" height="164" fill="#3749A9"/>
<rect x="190" y="78.6016" width="30" height="142" fill="#3749A9"/>
<rect x="224" y="127.602" width="30" height="93" fill="#3749A9"/>
</g>
<path d="M29.0734 158.566L30.6934 158.116V163.926H31.8634V156.816L29.0734 157.446V158.566ZM33.7 158.566L35.32 158.116V163.926H36.49V156.816L33.7 157.446V158.566Z" fill="#0F1938"/>
<path d="M63.3564 110.953H68.6964V109.853H65.6664L67.6464 107.903C68.2164 107.363 68.6064 106.663 68.6064 105.933C68.6064 105.003 67.8364 103.833 66.2164 103.833C64.6164 103.833 63.7364 104.943 63.7364 106.433H64.9064C64.9064 105.493 65.3964 104.893 66.1964 104.893C66.9664 104.893 67.3864 105.443 67.3864 105.993C67.3864 106.553 67.0864 107.013 66.5864 107.543L63.3564 110.953ZM72.0518 111.073C73.4918 111.073 74.4518 110.283 74.4518 109.083C74.4518 108.133 73.8918 107.553 73.0518 107.283C73.7818 106.993 74.2518 106.443 74.2518 105.733C74.2518 104.703 73.4518 103.843 72.1018 103.843C70.8118 103.843 69.9318 104.663 69.9318 105.813H71.0418C71.0418 105.253 71.5118 104.843 72.1118 104.843C72.7418 104.843 73.0618 105.233 73.0618 105.793C73.0618 106.393 72.5518 106.893 71.7018 106.893V107.783C72.6518 107.783 73.2618 108.203 73.2618 108.953C73.2618 109.653 72.7818 110.053 72.0718 110.053C71.3618 110.053 70.8218 109.623 70.8218 108.953H69.6318C69.6318 110.103 70.5618 111.073 72.0518 111.073Z" fill="#0F1938"/>
<path d="M97.6584 132.579L99.2784 132.129V137.939H100.448V130.829L97.6584 131.459V132.579ZM101.835 132.049H105.305L102.435 137.939H103.695L107.055 130.939H101.835V132.049Z" fill="#0F1938"/>
<path d="M131.347 88.9668H136.687V87.8668H133.657L135.637 85.9168C136.207 85.3768 136.597 84.6768 136.597 83.9468C136.597 83.0168 135.827 81.8468 134.207 81.8468C132.607 81.8468 131.727 82.9568 131.727 84.4468H132.897C132.897 83.5068 133.387 82.9068 134.187 82.9068C134.957 82.9068 135.377 83.4568 135.377 84.0068C135.377 84.5668 135.077 85.0268 134.577 85.5568L131.347 88.9668ZM137.612 87.0668C137.612 88.2368 138.662 89.0868 139.962 89.0868C141.262 89.0868 142.322 88.2368 142.322 87.0668C142.322 86.1368 141.762 85.5368 141.042 85.2468C141.652 84.9668 142.072 84.4268 142.072 83.6568C142.072 82.5868 141.142 81.8468 139.962 81.8468C138.782 81.8468 137.862 82.5868 137.862 83.6568C137.862 84.4268 138.272 84.9668 138.882 85.2468C138.172 85.5368 137.612 86.1368 137.612 87.0668ZM138.982 83.7768C138.982 83.1968 139.392 82.7768 139.962 82.7768C140.532 82.7768 140.942 83.1968 140.942 83.7768C140.942 84.3568 140.502 84.7668 139.962 84.7668C139.422 84.7668 138.982 84.3568 138.982 83.7768ZM138.772 86.9068C138.772 86.2468 139.342 85.7268 139.962 85.7268C140.582 85.7268 141.162 86.2468 141.162 86.9068C141.162 87.6668 140.582 88.0968 139.962 88.0968C139.342 88.0968 138.772 87.6668 138.772 86.9068Z" fill="#0F1938"/>
<path d="M168.434 49.1083C169.874 49.1083 170.834 48.3183 170.834 47.1183C170.834 46.1683 170.274 45.5883 169.434 45.3183C170.164 45.0283 170.634 44.4783 170.634 43.7683C170.634 42.7383 169.834 41.8783 168.484 41.8783C167.194 41.8783 166.314 42.6983 166.314 43.8483H167.424C167.424 43.2883 167.894 42.8783 168.494 42.8783C169.124 42.8783 169.444 43.2683 169.444 43.8283C169.444 44.4283 168.934 44.9283 168.084 44.9283V45.8183C169.034 45.8183 169.644 46.2383 169.644 46.9883C169.644 47.6883 169.164 48.0883 168.454 48.0883C167.744 48.0883 167.204 47.6583 167.204 46.9883H166.014C166.014 48.1383 166.944 49.1083 168.434 49.1083ZM171.279 43.0983H174.749L171.879 48.9883H173.139L176.499 41.9883H171.279V43.0983Z" fill="#0F1938"/>
<path d="M202.126 71.0966C203.566 71.0966 204.526 70.3066 204.526 69.1066C204.526 68.1566 203.966 67.5766 203.126 67.3066C203.856 67.0166 204.326 66.4666 204.326 65.7566C204.326 64.7266 203.526 63.8666 202.176 63.8666C200.886 63.8666 200.006 64.6866 200.006 65.8366H201.116C201.116 65.2766 201.586 64.8666 202.186 64.8666C202.816 64.8666 203.136 65.2566 203.136 65.8166C203.136 66.4166 202.626 66.9166 201.776 66.9166V67.8066C202.726 67.8066 203.336 68.2266 203.336 68.9766C203.336 69.6766 202.856 70.0766 202.146 70.0766C201.436 70.0766 200.896 69.6466 200.896 68.9766H199.706C199.706 70.1266 200.636 71.0966 202.126 71.0966ZM205.018 70.9766H210.358V69.8766H207.328L209.308 67.9266C209.878 67.3866 210.268 66.6866 210.268 65.9566C210.268 65.0266 209.498 63.8566 207.878 63.8566C206.278 63.8566 205.398 64.9666 205.398 66.4566H206.568C206.568 65.5166 207.058 64.9166 207.858 64.9166C208.628 64.9166 209.048 65.4666 209.048 66.0166C209.048 66.5766 208.748 67.0366 208.248 67.5666L205.018 70.9766Z" fill="#0F1938"/>
<path d="M233.874 119.949H239.214V118.849H236.184L238.164 116.899C238.734 116.359 239.124 115.659 239.124 114.929C239.124 113.999 238.354 112.829 236.734 112.829C235.134 112.829 234.254 113.939 234.254 115.429H235.424C235.424 114.489 235.914 113.889 236.714 113.889C237.484 113.889 237.904 114.439 237.904 114.989C237.904 115.549 237.604 116.009 237.104 116.539L233.874 119.949ZM240.349 114.589L241.969 114.139V119.949H243.139V112.839L240.349 113.469V114.589Z" fill="#0F1938"/>
<g style="mix-blend-mode:multiply" opacity="0.3">
<line x1="20" y1="198.102" x2="254" y2="198.102" stroke="#CBD5E0"/>
<line x1="20" y1="176.102" x2="254" y2="176.102" stroke="#CBD5E0"/>
<line x1="20" y1="154.102" x2="254" y2="154.102" stroke="#CBD5E0"/>
<line x1="20" y1="132.102" x2="254" y2="132.102" stroke="#CBD5E0"/>
<line x1="20" y1="110.102" x2="254" y2="110.102" stroke="#CBD5E0"/>
<line x1="20" y1="88.1016" x2="254" y2="88.1016" stroke="#CBD5E0"/>
<line x1="20" y1="66.1016" x2="254" y2="66.1016" stroke="#CBD5E0"/>
</g>
<path d="M5.556 32.6L3.6 36.2L1.656 32.6H0.036L2.88 37.472V41H4.332V37.46L7.176 32.6H5.556ZM7.13531 38.732H9.59531V37.568H7.13531V38.732ZM16.1697 41H17.7657L13.6617 32.132L9.55772 41H11.1537L12.1137 38.84H15.2097L16.1697 41ZM13.6617 34.976L14.8017 37.64H12.5217L13.6617 34.976ZM22.2925 35.48L21.0925 37.208L19.8925 35.48H18.4045L20.3965 38.156L18.2845 41H19.7725L21.0925 39.104L22.4125 41H23.8645L21.7645 38.156L23.7445 35.48H22.2925ZM24.5109 33.284C24.5109 33.728 24.8709 34.076 25.3269 34.076C25.7829 34.076 26.1429 33.728 26.1429 33.284C26.1429 32.84 25.7829 32.492 25.3269 32.492C24.8709 32.492 24.5109 32.84 24.5109 33.284ZM24.6909 35.48V41H25.9629V35.48H24.6909ZM27.8784 39.188L27.1224 39.944C27.6024 40.58 28.4544 41.168 29.5944 41.168C30.7944 41.168 31.5624 40.484 31.5624 39.44C31.5624 38.444 30.7824 38.084 29.8704 37.712C29.1864 37.448 28.6704 37.256 28.6704 36.836C28.6704 36.536 28.9344 36.368 29.3064 36.368C29.8464 36.368 30.3984 36.68 30.7584 37.1L31.4784 36.332C31.0224 35.78 30.2424 35.36 29.3424 35.36C28.3224 35.36 27.4464 35.864 27.4464 36.86C27.4464 37.868 28.2624 38.264 29.0184 38.54C29.7504 38.804 30.2544 39.032 30.2544 39.512C30.2544 39.872 29.9784 40.1 29.5104 40.1C28.9464 40.1 28.4184 39.776 27.8784 39.188ZM35.338 33.908H37.546V41H38.974V33.908H41.194V32.6H35.338V33.908ZM41.9372 33.284C41.9372 33.728 42.2972 34.076 42.7532 34.076C43.2092 34.076 43.5692 33.728 43.5692 33.284C43.5692 32.84 43.2092 32.492 42.7532 32.492C42.2972 32.492 41.9372 32.84 41.9372 33.284ZM42.1172 35.48V41H43.3892V35.48H42.1172ZM44.2847 35.48V36.62H45.2087V41H46.4927V36.62H47.4167V35.48H46.4927V33.56H45.2087V35.48H44.2847ZM48.1905 31.64V41H49.4865V31.64H48.1905ZM53.4236 41.12C54.6956 41.12 55.6196 40.616 56.1956 39.62L55.0676 39.176C54.7076 39.776 54.1796 40.052 53.4836 40.052C52.5836 40.052 52.0316 39.5 51.9356 38.54H56.2316C56.2316 38.48 56.2436 38.324 56.2436 38.18C56.2436 36.416 55.2236 35.36 53.4836 35.36C51.7316 35.36 50.6036 36.5 50.6036 38.24C50.6036 39.968 51.7196 41.12 53.4236 41.12ZM53.4716 36.344C54.2396 36.344 54.7676 36.848 54.8276 37.64H51.9716C52.1276 36.8 52.6556 36.344 53.4716 36.344ZM62.3983 31.64C61.4383 33.44 60.9823 35.48 60.9823 37.52C60.9823 39.56 61.4383 41.6 62.3983 43.4H63.5983C62.7583 41.6 62.3503 39.56 62.3503 37.52C62.3503 35.48 62.7583 33.44 63.5983 31.64H62.3983ZM64.6335 32.6V38.24C64.6335 40.088 65.8935 41.216 67.6935 41.216C69.4935 41.216 70.7535 40.088 70.7535 38.24V32.6H69.3375V38.18C69.3375 39.212 68.7735 39.908 67.6935 39.908C66.6135 39.908 66.0495 39.212 66.0495 38.18V32.6H64.6335ZM75.8925 37.64V41H77.2245V37.496C77.2245 36.164 76.5525 35.36 75.3045 35.36C74.5485 35.36 73.9845 35.684 73.6365 36.332V35.48H72.3405V41H73.6365V37.64C73.6365 36.896 74.1405 36.404 74.8725 36.404C75.5685 36.404 75.8925 36.836 75.8925 37.64ZM78.7116 33.284C78.7116 33.728 79.0716 34.076 79.5276 34.076C79.9836 34.076 80.3436 33.728 80.3436 33.284C80.3436 32.84 79.9836 32.492 79.5276 32.492C79.0716 32.492 78.7116 32.84 78.7116 33.284ZM78.8916 35.48V41H80.1636V35.48H78.8916ZM81.0591 35.48V36.62H81.9831V41H83.2671V36.62H84.1911V35.48H83.2671V33.56H81.9831V35.48H81.0591ZM85.2169 39.188L84.4609 39.944C84.9409 40.58 85.7929 41.168 86.9329 41.168C88.1329 41.168 88.9009 40.484 88.9009 39.44C88.9009 38.444 88.1209 38.084 87.2089 37.712C86.5249 37.448 86.0089 37.256 86.0089 36.836C86.0089 36.536 86.2729 36.368 86.6449 36.368C87.1849 36.368 87.7369 36.68 88.0969 37.1L88.8169 36.332C88.3609 35.78 87.5809 35.36 86.6809 35.36C85.6609 35.36 84.7849 35.864 84.7849 36.86C84.7849 37.868 85.6009 38.264 86.3569 38.54C87.0889 38.804 87.5929 39.032 87.5929 39.512C87.5929 39.872 87.3169 40.1 86.8489 40.1C86.2849 40.1 85.7569 39.776 85.2169 39.188ZM90.5908 43.4C91.5508 41.6 91.9948 39.56 91.9948 37.52C91.9948 35.48 91.5508 33.44 90.5908 31.64H89.3908C90.2308 33.44 90.6388 35.48 90.6388 37.52C90.6388 39.56 90.2308 41.6 89.3908 43.4H90.5908Z" fill="#0F1938"/>
<path d="M0.9 166.488L2.844 165.948V172.92H4.248V164.388L0.9 165.144V166.488ZM6.03188 168.72C6.03188 171.324 7.35188 173.052 9.29588 173.052C11.2639 173.052 12.5719 171.324 12.5719 168.72C12.5719 166.116 11.2639 164.388 9.29588 164.388C7.35188 164.388 6.03188 166.116 6.03188 168.72ZM7.42388 168.72C7.42388 166.908 8.14388 165.66 9.29588 165.66C10.4479 165.66 11.1799 166.908 11.1799 168.72C11.1799 170.532 10.4479 171.78 9.29588 171.78C8.14388 171.78 7.42388 170.532 7.42388 168.72Z" fill="#0F1938"/>
<path d="M0.48 213.695C0.48 216.299 1.8 218.027 3.744 218.027C5.712 218.027 7.02 216.299 7.02 213.695C7.02 211.091 5.712 209.363 3.744 209.363C1.8 209.363 0.48 211.091 0.48 213.695ZM1.872 213.695C1.872 211.883 2.592 210.635 3.744 210.635C4.896 210.635 5.628 211.883 5.628 213.695C5.628 215.507 4.896 216.755 3.744 216.755C2.592 216.755 1.872 215.507 1.872 213.695Z" fill="#0F1938"/>
<path d="M0.24 128.945H6.648V127.625H3.012L5.388 125.285C6.072 124.637 6.54 123.797 6.54 122.921C6.54 121.805 5.616 120.401 3.672 120.401C1.752 120.401 0.696 121.733 0.696 123.521H2.1C2.1 122.393 2.688 121.673 3.648 121.673C4.572 121.673 5.076 122.333 5.076 122.993C5.076 123.665 4.716 124.217 4.116 124.853L0.24 128.945ZM7.59047 124.745C7.59047 127.349 8.91047 129.077 10.8545 129.077C12.8225 129.077 14.1305 127.349 14.1305 124.745C14.1305 122.141 12.8225 120.413 10.8545 120.413C8.91047 120.413 7.59047 122.141 7.59047 124.745ZM8.98247 124.745C8.98247 122.933 9.70247 121.685 10.8545 121.685C12.0065 121.685 12.7385 122.933 12.7385 124.745C12.7385 126.557 12.0065 127.805 10.8545 127.805C9.70247 127.805 8.98247 126.557 8.98247 124.745Z" fill="#0F1938"/>
<path d="M3.564 85.1128C5.292 85.1128 6.444 84.1647 6.444 82.7247C6.444 81.5847 5.772 80.8887 4.764 80.5647C5.64 80.2167 6.204 79.5567 6.204 78.7047C6.204 77.4688 5.244 76.4367 3.624 76.4367C2.076 76.4367 1.02 77.4207 1.02 78.8008H2.352C2.352 78.1287 2.916 77.6367 3.636 77.6367C4.392 77.6367 4.776 78.1047 4.776 78.7767C4.776 79.4967 4.164 80.0967 3.144 80.0967V81.1647C4.284 81.1647 5.016 81.6687 5.016 82.5687C5.016 83.4087 4.44 83.8887 3.588 83.8887C2.736 83.8887 2.088 83.3727 2.088 82.5687H0.66C0.66 83.9487 1.776 85.1128 3.564 85.1128ZM7.27406 80.7687C7.27406 83.3727 8.59406 85.1008 10.5381 85.1008C12.5061 85.1008 13.8141 83.3727 13.8141 80.7687C13.8141 78.1647 12.5061 76.4367 10.5381 76.4367C8.59406 76.4367 7.27406 78.1647 7.27406 80.7687ZM8.66606 80.7687C8.66606 78.9567 9.38606 77.7087 10.5381 77.7087C11.6901 77.7087 12.4221 78.9567 12.4221 80.7687C12.4221 82.5807 11.6901 83.8287 10.5381 83.8287C9.38606 83.8287 8.66606 82.5807 8.66606 80.7687Z" fill="#0F1938"/>
<rect opacity="0.3" y="1" width="22" height="13" fill="#3749A9"/>
<path d="M28.092 4.2V14H33.636V12.516H29.744V4.2H28.092ZM37.3662 14.14C38.8502 14.14 39.9282 13.552 40.6002 12.39L39.2842 11.872C38.8642 12.572 38.2482 12.894 37.4362 12.894C36.3862 12.894 35.7422 12.25 35.6302 11.13H40.6422C40.6422 11.06 40.6562 10.878 40.6562 10.71C40.6562 8.652 39.4662 7.42 37.4362 7.42C35.3922 7.42 34.0762 8.75 34.0762 10.78C34.0762 12.796 35.3782 14.14 37.3662 14.14ZM37.4222 8.568C38.3182 8.568 38.9342 9.156 39.0042 10.08H35.6722C35.8542 9.1 36.4702 8.568 37.4222 8.568ZM41.5954 14.434C41.6514 16.114 42.8554 17.276 44.9554 17.276C46.7054 17.276 48.2874 16.198 48.2874 13.86V7.56H46.8034V8.61C46.3134 7.84 45.5434 7.42 44.6054 7.42C42.9254 7.42 41.4694 8.638 41.4694 10.752C41.4694 12.866 42.9254 14.07 44.6054 14.07C45.5434 14.07 46.3134 13.65 46.8034 12.894V13.86C46.8034 15.316 45.8654 15.96 44.9134 15.96C43.8214 15.96 43.1354 15.302 43.1074 14.434H41.5954ZM43.0374 10.752C43.0374 9.464 43.9194 8.736 44.9694 8.736C45.8374 8.736 46.8034 9.436 46.8034 10.752C46.8034 12.068 45.8374 12.754 44.9694 12.754C43.9194 12.754 43.0374 12.04 43.0374 10.752ZM52.8226 14.14C54.3066 14.14 55.3846 13.552 56.0566 12.39L54.7406 11.872C54.3206 12.572 53.7046 12.894 52.8926 12.894C51.8426 12.894 51.1986 12.25 51.0866 11.13H56.0986C56.0986 11.06 56.1126 10.878 56.1126 10.71C56.1126 8.652 54.9226 7.42 52.8926 7.42C50.8486 7.42 49.5326 8.75 49.5326 10.78C49.5326 12.796 50.8346 14.14 52.8226 14.14ZM52.8786 8.568C53.7746 8.568 54.3906 9.156 54.4606 10.08H51.1286C51.3106 9.1 51.9266 8.568 52.8786 8.568ZM61.5598 10.08V14H63.1138V9.912C63.1138 8.358 62.3298 7.42 60.8738 7.42C59.9918 7.42 59.3338 7.798 58.9278 8.554V7.56H57.4158V14H58.9278V10.08C58.9278 9.212 59.5158 8.638 60.3698 8.638C61.1818 8.638 61.5598 9.142 61.5598 10.08ZM64.4147 10.78C64.4147 12.894 65.8707 14.14 67.5507 14.14C68.4887 14.14 69.2587 13.706 69.7487 12.936V14H71.2747V3.08H69.7487V8.624C69.2587 7.854 68.4887 7.42 67.5507 7.42C65.8707 7.42 64.4147 8.666 64.4147 10.78ZM65.9827 10.78C65.9827 9.492 66.8647 8.736 67.9147 8.736C68.7827 8.736 69.7487 9.464 69.7487 10.78C69.7487 12.096 68.7827 12.824 67.9147 12.824C66.8647 12.824 65.9827 12.068 65.9827 10.78Z" fill="#0F1938"/>
</svg>
