<svg width="223" height="220" viewBox="0 0 223 220" fill="none" xmlns="http://www.w3.org/2000/svg">
<path d="M83.0169 148.142C72.7638 148.142 62.9306 144.069 55.6806 136.819C48.4306 129.569 44.3575 119.736 44.3575 109.483C44.3575 99.2295 48.4306 89.3963 55.6806 82.1463C62.9306 74.8963 72.7638 70.8232 83.0169 70.8232C93.27 70.8232 103.103 74.8963 110.353 82.1463C117.603 89.3963 121.676 99.2295 121.676 109.483C121.676 119.736 117.603 129.569 110.353 136.819C103.103 144.069 93.27 148.142 83.0169 148.142Z" fill="#3749A9"/>
<path d="M151.714 137.706C144.229 137.706 137.05 134.733 131.757 129.44C126.464 124.147 123.49 116.968 123.49 109.483C123.49 101.997 126.464 94.8184 131.757 89.5254C137.05 84.2324 144.229 81.2588 151.714 81.2588C159.2 81.2588 166.378 84.2324 171.671 89.5254C176.964 94.8184 179.938 101.997 179.938 109.483C179.938 116.968 176.964 124.147 171.671 129.44C166.378 134.733 159.2 137.706 151.714 137.706Z" fill="#3749A9"/>
<path d="M126.487 182.95C119.912 182.95 113.607 180.338 108.958 175.689C104.309 171.04 101.698 164.735 101.698 158.16C101.698 151.586 104.309 145.281 108.958 140.632C113.607 135.983 119.912 133.371 126.487 133.371C133.061 133.371 139.367 135.983 144.015 140.632C148.664 145.281 151.276 151.586 151.276 158.16C151.276 164.735 148.664 171.04 144.015 175.689C139.367 180.338 133.061 182.95 126.487 182.95Z" fill="#3749A9"/>
<path d="M125.824 86.5921C120.407 86.5921 115.211 84.44 111.38 80.6092C107.549 76.7784 105.397 71.5828 105.397 66.1652C105.397 60.7476 107.549 55.552 111.38 51.7212C115.211 47.8904 120.407 45.7383 125.824 45.7383C131.242 45.7383 136.437 47.8904 140.268 51.7212C144.099 55.552 146.251 60.7476 146.251 66.1652C146.251 71.5828 144.099 76.7784 140.268 80.6092C136.437 84.44 131.242 86.5921 125.824 86.5921Z" fill="#3749A9"/>
<path d="M87.4934 69.1762C82.328 69.1762 77.3741 67.1243 73.7216 63.4718C70.0691 59.8192 68.0171 54.8654 68.0171 49.6999C68.0171 44.5345 70.0691 39.5806 73.7216 35.9281C77.3741 32.2756 82.328 30.2236 87.4934 30.2236C92.6588 30.2236 97.6127 32.2756 101.265 35.9281C104.918 39.5806 106.97 44.5345 106.97 49.6999C106.97 54.8654 104.918 59.8192 101.265 63.4718C97.6127 67.1243 92.6588 69.1762 87.4934 69.1762Z" fill="#3749A9"/>
<path d="M82.7562 186.496C77.9106 186.496 73.2635 184.571 69.8371 181.145C66.4107 177.718 64.4858 173.071 64.4858 168.225C64.4858 163.38 66.4107 158.733 69.8371 155.306C73.2635 151.88 77.9106 149.955 82.7562 149.955C87.6018 149.955 92.249 151.88 95.6754 155.306C99.1017 158.733 101.027 163.38 101.027 168.225C101.027 173.071 99.1017 177.718 95.6754 181.145C92.249 184.571 87.6018 186.496 82.7562 186.496Z" fill="#3749A9"/>
<path d="M163.639 81.0303C159.507 81.0303 155.544 79.3887 152.622 76.4667C149.7 73.5447 148.058 69.5816 148.058 65.4492C148.058 61.3169 149.7 57.3538 152.622 54.4317C155.544 51.5097 159.507 49.8682 163.639 49.8682C167.772 49.8682 171.735 51.5097 174.657 54.4317C177.579 57.3538 179.22 61.3169 179.22 65.4492C179.22 69.5816 177.579 73.5447 174.657 76.4667C171.735 79.3887 167.772 81.0303 163.639 81.0303Z" fill="#3749A9"/>
<path d="M165.547 163.667C162.044 163.667 158.684 162.275 156.207 159.798C153.73 157.321 152.338 153.961 152.338 150.458C152.338 146.954 153.73 143.594 156.207 141.117C158.684 138.64 162.044 137.248 165.547 137.248C169.051 137.248 172.411 138.64 174.888 141.117C177.365 143.594 178.757 146.954 178.757 150.458C178.757 153.961 177.365 157.321 174.888 159.798C172.411 162.275 169.051 163.667 165.547 163.667Z" fill="#3749A9"/>
<path d="M56.1274 76.2738C52.701 76.2738 49.415 74.9127 46.9922 72.4899C44.5694 70.0671 43.2083 66.781 43.2083 63.3547C43.2083 59.9283 44.5694 56.6423 46.9922 54.2195C49.415 51.7967 52.701 50.4355 56.1274 50.4355C59.5537 50.4355 62.8398 51.7967 65.2626 54.2195C67.6854 56.6423 69.0465 59.9283 69.0465 63.3547C69.0465 66.781 67.6854 70.0671 65.2626 72.4899C62.8398 74.9127 59.5537 76.2738 56.1274 76.2738Z" fill="#3749A9"/>
<path d="M53.495 166.236C51.8375 166.236 50.1961 165.91 48.6647 165.276C47.1334 164.641 45.7419 163.712 44.5698 162.539C43.3978 161.367 42.468 159.976 41.8337 158.445C41.1994 156.913 40.8729 155.272 40.8729 153.614C40.8729 151.957 41.1994 150.315 41.8337 148.784C42.468 147.253 43.3978 145.861 44.5698 144.689C45.7419 143.517 47.1334 142.587 48.6647 141.953C50.1961 141.319 51.8375 140.992 53.495 140.992C55.1526 140.992 56.7939 141.319 58.3253 141.953C59.8567 142.587 61.2481 143.517 62.4202 144.689C63.5922 145.861 64.522 147.253 65.1563 148.784C65.7906 150.315 66.1171 151.957 66.1171 153.614C66.1171 155.272 65.7906 156.913 65.1563 158.445C64.522 159.976 63.5922 161.367 62.4202 162.539C61.2481 163.712 59.8567 164.641 58.3253 165.276C56.7939 165.91 55.1526 166.236 53.495 166.236Z" fill="#3749A9"/>
<path d="M116.581 45.1827C114.964 45.1827 113.362 44.8641 111.867 44.245C110.373 43.626 109.015 42.7187 107.871 41.5748C106.727 40.431 105.82 39.0731 105.201 37.5786C104.582 36.0842 104.263 34.4824 104.263 32.8648C104.263 31.2472 104.582 29.6454 105.201 28.1509C105.82 26.6564 106.727 25.2985 107.871 24.1547C109.015 23.0109 110.373 22.1036 111.867 21.4845C113.362 20.8655 114.964 20.5469 116.581 20.5469C118.199 20.5469 119.801 20.8655 121.295 21.4845C122.79 22.1036 124.147 23.0109 125.291 24.1547C126.435 25.2985 127.342 26.6564 127.961 28.1509C128.58 29.6454 128.899 31.2472 128.899 32.8648C128.899 34.4824 128.58 36.0842 127.961 37.5786C127.342 39.0731 126.435 40.431 125.291 41.5748C124.147 42.7187 122.79 43.626 121.295 44.245C119.801 44.8641 118.199 45.1827 116.581 45.1827Z" fill="#3749A9"/>
<path d="M186.159 97.1514C184.541 97.1514 182.94 96.8328 181.445 96.2138C179.951 95.5947 178.593 94.6874 177.449 93.5436C176.305 92.3998 175.398 91.0419 174.779 89.5474C174.16 88.0529 173.841 86.4511 173.841 84.8335C173.841 83.2159 174.16 81.6141 174.779 80.1197C175.398 78.6252 176.305 77.2673 177.449 76.1235C178.593 74.9796 179.951 74.0723 181.445 73.4533C182.94 72.8342 184.541 72.5156 186.159 72.5156C187.777 72.5156 189.378 72.8342 190.873 73.4533C192.367 74.0723 193.725 74.9796 194.869 76.1235C196.013 77.2673 196.92 78.6252 197.539 80.1197C198.158 81.6141 198.477 83.2159 198.477 84.8335C198.477 86.4511 198.158 88.0529 197.539 89.5474C196.92 91.0419 196.013 92.3998 194.869 93.5436C193.725 94.6874 192.367 95.5947 190.873 96.2138C189.378 96.8328 187.777 97.1514 186.159 97.1514Z" fill="#3749A9"/>
<path d="M105.679 202.69C104.102 202.69 102.541 202.379 101.084 201.776C99.6277 201.172 98.3042 200.288 97.1893 199.173C96.0745 198.058 95.1901 196.735 94.5868 195.278C93.9834 193.822 93.6729 192.26 93.6729 190.684C93.6729 189.107 93.9834 187.546 94.5868 186.089C95.1901 184.633 96.0745 183.309 97.1893 182.194C98.3042 181.079 99.6277 180.195 101.084 179.592C102.541 178.988 104.102 178.678 105.679 178.678C107.256 178.678 108.817 178.988 110.273 179.592C111.73 180.195 113.054 181.079 114.168 182.194C115.283 183.309 116.168 184.633 116.771 186.089C117.374 187.546 117.685 189.107 117.685 190.684C117.685 192.26 117.374 193.822 116.771 195.278C116.168 196.735 115.283 198.058 114.168 199.173C113.054 200.288 111.73 201.172 110.273 201.776C108.817 202.379 107.256 202.69 105.679 202.69Z" fill="#3749A9"/>
<path d="M148.328 52.3558C146.752 52.3558 145.19 52.0452 143.734 51.4418C142.277 50.8385 140.954 49.9541 139.839 48.8393C138.724 47.7244 137.84 46.4009 137.236 44.9442C136.633 43.4876 136.322 41.9264 136.322 40.3498C136.322 38.7731 136.633 37.2119 137.236 35.7553C137.84 34.2986 138.724 32.9751 139.839 31.8602C140.954 30.7454 142.277 29.861 143.734 29.2577C145.19 28.6543 146.752 28.3437 148.328 28.3438C149.905 28.3437 151.466 28.6543 152.923 29.2577C154.379 29.861 155.703 30.7454 156.818 31.8602C157.933 32.9751 158.817 34.2986 159.42 35.7553C160.024 37.2119 160.334 38.7731 160.334 40.3498C160.334 41.9264 160.024 43.4876 159.42 44.9442C158.817 46.4009 157.933 47.7244 156.818 48.8393C155.703 49.9541 154.379 50.8385 152.923 51.4418C151.466 52.0452 149.905 52.3558 148.328 52.3558Z" fill="#3749A9"/>
<path d="M185.992 144.957C184.458 144.957 182.938 144.654 181.52 144.067C180.103 143.48 178.814 142.619 177.729 141.534C176.644 140.449 175.783 139.16 175.196 137.743C174.609 136.325 174.306 134.805 174.306 133.271C174.306 131.736 174.609 130.217 175.196 128.799C175.783 127.381 176.644 126.093 177.729 125.008C178.814 123.923 180.103 123.062 181.52 122.474C182.938 121.887 184.458 121.585 185.992 121.585C187.527 121.585 189.046 121.887 190.464 122.474C191.882 123.062 193.17 123.923 194.255 125.008C195.34 126.093 196.201 127.381 196.788 128.799C197.376 130.217 197.678 131.736 197.678 133.271C197.678 134.805 197.376 136.325 196.788 137.743C196.201 139.16 195.34 140.449 194.255 141.534C193.17 142.619 191.882 143.48 190.464 144.067C189.046 144.654 187.527 144.957 185.992 144.957Z" fill="#3749A9"/>
<path d="M159.515 186.098C156.686 186.098 153.973 184.974 151.972 182.973C149.972 180.973 148.848 178.26 148.848 175.43C148.848 172.601 149.972 169.888 151.972 167.887C153.973 165.887 156.686 164.763 159.515 164.763C162.344 164.763 165.058 165.887 167.058 167.887C169.059 169.888 170.183 172.601 170.183 175.43C170.183 178.26 169.059 180.973 167.058 182.973C165.058 184.974 162.344 186.098 159.515 186.098Z" fill="#3749A9"/>
<path d="M39.5244 93.2464C36.6952 93.2464 33.9818 92.1224 31.9813 90.1219C29.9807 88.1213 28.8568 85.408 28.8568 82.5787C28.8568 79.7495 29.9807 77.0362 31.9813 75.0356C33.9818 73.035 36.6952 71.9111 39.5244 71.9111C42.3537 71.9111 45.067 73.035 47.0676 75.0356C49.0681 77.0362 50.192 79.7495 50.192 82.5787C50.192 85.408 49.0681 88.1213 47.0676 90.1219C45.067 92.1224 42.3537 93.2464 39.5244 93.2464Z" fill="#3749A9"/>
<path d="M39.5037 143.683C36.9731 143.683 34.5463 142.678 32.7569 140.889C30.9675 139.099 29.9623 136.673 29.9623 134.142C29.9623 131.611 30.9675 129.185 32.7569 127.395C34.5463 125.606 36.9731 124.601 39.5037 124.601C42.0342 124.601 44.4611 125.606 46.2505 127.395C48.0398 129.185 49.0451 131.611 49.0451 134.142C49.0451 136.673 48.0398 139.099 46.2505 140.889C44.4611 142.678 42.0342 143.683 39.5037 143.683Z" fill="#3749A9"/>
<path d="M136.562 29.7098C134.031 29.7098 131.604 28.7045 129.815 26.9151C128.026 25.1258 127.02 22.6989 127.02 20.1684C127.02 17.6378 128.026 15.2109 129.815 13.4216C131.604 11.6322 134.031 10.627 136.562 10.627C139.092 10.627 141.519 11.6322 143.308 13.4216C145.098 15.2109 146.103 17.6378 146.103 20.1684C146.103 22.6989 145.098 25.1258 143.308 26.9151C141.519 28.7045 139.092 29.7098 136.562 29.7098Z" fill="#3749A9"/>
<path d="M191.264 117.491C188.733 117.491 186.307 116.486 184.517 114.696C182.728 112.907 181.723 110.48 181.723 107.95C181.723 105.419 182.728 102.992 184.517 101.203C186.307 99.4135 188.733 98.4082 191.264 98.4082C193.794 98.4082 196.221 99.4135 198.011 101.203C199.8 102.992 200.805 105.419 200.805 107.95C200.805 110.48 199.8 112.907 198.011 114.696C196.221 116.486 193.794 117.491 191.264 117.491Z" fill="#3749A9"/>
<path d="M206.326 131.975C203.796 131.975 201.369 130.97 199.58 129.181C197.79 127.391 196.785 124.965 196.785 122.434C196.785 119.903 197.79 117.477 199.58 115.687C201.369 113.898 203.796 112.893 206.326 112.893C208.857 112.893 211.284 113.898 213.073 115.687C214.862 117.477 215.868 119.903 215.868 122.434C215.868 124.965 214.862 127.391 213.073 129.181C211.284 130.97 208.857 131.975 206.326 131.975Z" fill="#3749A9"/>
<path d="M33.7803 112.554C31.3575 112.554 29.034 111.591 27.3208 109.878C25.6076 108.165 24.6451 105.841 24.6451 103.418C24.6451 100.996 25.6076 98.672 27.3208 96.9588C29.034 95.2457 31.3575 94.2832 33.7803 94.2832C36.2031 94.2832 38.5267 95.2457 40.2399 96.9588C41.9531 98.672 42.9155 100.996 42.9155 103.418C42.9155 105.841 41.9531 108.165 40.2399 109.878C38.5267 111.591 36.2031 112.554 33.7803 112.554Z" fill="#3749A9"/>
<path d="M24.5415 129.482C22.2314 129.482 20.016 128.564 18.3825 126.931C16.7491 125.297 15.8314 123.082 15.8314 120.772C15.8314 118.462 16.7491 116.246 18.3825 114.613C20.016 112.979 22.2314 112.062 24.5415 112.062C26.8515 112.062 29.067 112.979 30.7004 114.613C32.3339 116.246 33.2516 118.462 33.2516 120.772C33.2516 123.082 32.3339 125.297 30.7004 126.931C29.067 128.564 26.8515 129.482 24.5415 129.482Z" fill="#3749A9"/>
<path d="M59.0713 48.8078C56.7612 48.8078 54.5458 47.8902 52.9123 46.2567C51.2789 44.6233 50.3612 42.4078 50.3612 40.0978C50.3612 37.7877 51.2789 35.5723 52.9123 33.9388C54.5458 32.3054 56.7612 31.3877 59.0713 31.3877C61.3813 31.3877 63.5968 32.3054 65.2302 33.9388C66.8637 35.5723 67.7813 37.7877 67.7813 40.0978C67.7813 42.4078 66.8637 44.6233 65.2302 46.2567C63.5968 47.8902 61.3813 48.8078 59.0713 48.8078Z" fill="#3749A9"/>
<path d="M55.2353 185.405C52.9253 185.405 50.7098 184.487 49.0764 182.853C47.4429 181.22 46.5253 179.004 46.5253 176.694C46.5253 174.384 47.4429 172.169 49.0764 170.535C50.7098 168.902 52.9253 167.984 55.2353 167.984C57.5454 167.984 59.7608 168.902 61.3943 170.535C63.0277 172.169 63.9454 174.384 63.9454 176.694C63.9454 179.004 63.0277 181.22 61.3943 182.853C59.7608 184.487 57.5454 185.405 55.2353 185.405Z" fill="#3749A9"/>
<path d="M127.639 201.271C125.448 201.271 123.346 200.401 121.796 198.851C120.247 197.301 119.376 195.2 119.376 193.008C119.376 190.817 120.247 188.715 121.796 187.165C123.346 185.616 125.448 184.745 127.639 184.745C129.831 184.745 131.933 185.616 133.482 187.165C135.032 188.715 135.902 190.817 135.902 193.008C135.902 195.2 135.032 197.301 133.482 198.851C131.933 200.401 129.831 201.271 127.639 201.271Z" fill="#3749A9"/>
<path d="M97.132 30.0252C94.9405 30.0252 92.8387 29.1546 91.2891 27.605C89.7395 26.0554 88.8689 23.9536 88.8689 21.7621C88.8689 19.5706 89.7395 17.4689 91.2891 15.9192C92.8387 14.3696 94.9405 13.499 97.132 13.499C99.3235 13.499 101.425 14.3696 102.975 15.9192C104.525 17.4689 105.395 19.5706 105.395 21.7621C105.395 23.9536 104.525 26.0554 102.975 27.605C101.425 29.1546 99.3235 30.0252 97.132 30.0252Z" fill="#3749A9"/>
<path d="M145.217 197.592C143.151 197.592 141.169 196.771 139.708 195.31C138.247 193.849 137.426 191.867 137.426 189.801C137.426 187.735 138.247 185.754 139.708 184.293C141.169 182.832 143.151 182.011 145.217 182.011C147.283 182.011 149.265 182.832 150.726 184.293C152.187 185.754 153.007 187.735 153.007 189.801C153.007 191.867 152.187 193.849 150.726 195.31C149.265 196.771 147.283 197.592 145.217 197.592Z" fill="#3749A9"/>
<path d="M188.007 162.256C185.94 162.256 183.959 161.435 182.498 159.974C181.037 158.513 180.216 156.532 180.216 154.465C180.216 152.399 181.037 150.418 182.498 148.957C183.959 147.496 185.94 146.675 188.007 146.675C190.073 146.675 192.054 147.496 193.515 148.957C194.976 150.418 195.797 152.399 195.797 154.465C195.797 156.532 194.976 158.513 193.515 159.974C192.054 161.435 190.073 162.256 188.007 162.256Z" fill="#3749A9"/>
<path d="M188.711 70.8506C186.645 70.8506 184.664 70.0298 183.203 68.5688C181.742 67.1078 180.921 65.1262 180.921 63.0601C180.921 60.9939 181.742 59.0123 183.203 57.5513C184.664 56.0903 186.645 55.2695 188.711 55.2695C190.778 55.2695 192.759 56.0903 194.22 57.5513C195.681 59.0123 196.502 60.9939 196.502 63.0601C196.502 65.1262 195.681 67.1078 194.22 68.5688C192.759 70.0298 190.778 70.8506 188.711 70.8506Z" fill="#3749A9"/>
<path d="M169.407 48.7378C167.474 48.7378 165.621 47.97 164.254 46.6034C162.888 45.2368 162.12 43.3832 162.12 41.4505C162.12 39.5177 162.888 37.6642 164.254 36.2975C165.621 34.9309 167.474 34.1631 169.407 34.1631C171.34 34.1631 173.193 34.9309 174.56 36.2975C175.927 37.6642 176.694 39.5177 176.694 41.4505C176.694 43.3832 175.927 45.2368 174.56 46.6034C173.193 47.97 171.34 48.7378 169.407 48.7378Z" fill="#3749A9"/>
<path d="M85.1271 202.782C83.1944 202.782 81.3408 202.014 79.9741 200.647C78.6075 199.281 77.8397 197.427 77.8397 195.494C77.8397 193.562 78.6075 191.708 79.9741 190.341C81.3408 188.975 83.1944 188.207 85.1271 188.207C87.0598 188.207 88.9134 188.975 90.28 190.341C91.6467 191.708 92.4145 193.562 92.4145 195.494C92.4145 197.427 91.6467 199.281 90.28 200.647C88.9134 202.014 87.0598 202.782 85.1271 202.782Z" fill="#3749A9"/>
<path d="M177.508 175.395C175.718 175.395 174.002 174.684 172.737 173.419C171.472 172.154 170.761 170.438 170.761 168.648C170.761 166.859 171.472 165.143 172.737 163.877C174.002 162.612 175.718 161.901 177.508 161.901C179.297 161.901 181.013 162.612 182.278 163.877C183.544 165.143 184.255 166.859 184.255 168.648C184.255 170.438 183.544 172.154 182.278 173.419C181.013 174.684 179.297 175.395 177.508 175.395Z" fill="#3749A9"/>
<path d="M34.6565 70.7231C32.8671 70.7231 31.151 70.0123 29.8858 68.747C28.6205 67.4817 27.9097 65.7656 27.9097 63.9763C27.9097 62.1869 28.6205 60.4708 29.8858 59.2056C31.151 57.9403 32.8671 57.2295 34.6565 57.2295C36.4458 57.2295 38.1619 57.9403 39.4272 59.2056C40.6924 60.4708 41.4032 62.1869 41.4032 63.9763C41.4032 65.7656 40.6924 67.4817 39.4272 68.747C38.1619 70.0123 36.4458 70.7231 34.6565 70.7231Z" fill="#3749A9"/>
<path d="M32.4956 157.58C30.7062 157.58 28.9901 156.869 27.7249 155.603C26.4596 154.338 25.7488 152.622 25.7488 150.833C25.7488 149.043 26.4596 147.327 27.7249 146.062C28.9901 144.797 30.7062 144.086 32.4956 144.086C34.2849 144.086 36.001 144.797 37.2663 146.062C38.5315 147.327 39.2424 149.043 39.2424 150.833C39.2424 152.622 38.5315 154.338 37.2663 155.603C36.001 156.869 34.2849 157.58 32.4956 157.58Z" fill="#3749A9"/>
<path d="M21.9112 97.0395C20.1219 97.0395 18.4058 96.3287 17.1405 95.0634C15.8752 93.7981 15.1644 92.082 15.1644 90.2927C15.1644 88.5033 15.8752 86.7873 17.1405 85.522C18.4058 84.2567 20.1219 83.5459 21.9112 83.5459C23.7006 83.5459 25.4167 84.2567 26.6819 85.522C27.9472 86.7873 28.658 88.5033 28.658 90.2927C28.658 92.082 27.9472 93.7981 26.6819 95.0634C25.4167 96.3287 23.7006 97.0395 21.9112 97.0395Z" fill="#3749A9"/>
<path d="M204.22 102.054C202.431 102.054 200.715 101.343 199.45 100.078C198.184 98.8128 197.474 97.0967 197.474 95.3073C197.474 93.518 198.184 91.8019 199.45 90.5366C200.715 89.2714 202.431 88.5605 204.22 88.5605C206.01 88.5605 207.726 89.2714 208.991 90.5366C210.256 91.8019 210.967 93.518 210.967 95.3073C210.967 97.0967 210.256 98.8128 208.991 100.078C207.726 101.343 206.01 102.054 204.22 102.054Z" fill="#3749A9"/>
<path d="M70.6151 34.2124C69.8063 34.2124 69.0054 34.0531 68.2582 33.7436C67.511 33.4341 66.832 32.9804 66.2601 32.4085C65.6882 31.8366 65.2345 31.1576 64.925 30.4104C64.6155 29.6632 64.4562 28.8623 64.4562 28.0535C64.4562 27.2447 64.6155 26.4438 64.925 25.6966C65.2345 24.9493 65.6882 24.2704 66.2601 23.6984C66.832 23.1265 67.511 22.6729 68.2582 22.3634C69.0054 22.0538 69.8063 21.8945 70.6151 21.8945C71.4239 21.8945 72.2248 22.0538 72.9721 22.3634C73.7193 22.6729 74.3982 23.1265 74.9702 23.6984C75.5421 24.2704 75.9957 24.9493 76.3053 25.6966C76.6148 26.4438 76.7741 27.2447 76.7741 28.0535C76.7741 28.8623 76.6148 29.6632 76.3053 30.4104C75.9957 31.1576 75.5421 31.8366 74.9702 32.4085C74.3982 32.9804 73.7193 33.4341 72.9721 33.7436C72.2248 34.0531 71.4239 34.2124 70.6151 34.2124Z" fill="#3749A9"/>
<path d="M192.193 175.822C191.384 175.822 190.583 175.662 189.836 175.353C189.088 175.043 188.409 174.59 187.838 174.018C187.266 173.446 186.812 172.767 186.502 172.02C186.193 171.273 186.034 170.472 186.034 169.663C186.034 168.854 186.193 168.053 186.502 167.306C186.812 166.559 187.266 165.88 187.838 165.308C188.409 164.736 189.088 164.282 189.836 163.973C190.583 163.663 191.384 163.504 192.193 163.504C193.001 163.504 193.802 163.663 194.55 163.973C195.297 164.282 195.976 164.736 196.548 165.308C197.12 165.88 197.573 166.559 197.883 167.306C198.192 168.053 198.352 168.854 198.352 169.663C198.352 170.472 198.192 171.273 197.883 172.02C197.573 172.767 197.12 173.446 196.548 174.018C195.976 174.59 195.297 175.043 194.55 175.353C193.802 175.662 193.001 175.822 192.193 175.822Z" fill="#3749A9"/>
<path d="M66.6011 195.066C65.7923 195.066 64.9914 194.907 64.2442 194.597C63.4969 194.288 62.818 193.834 62.2461 193.262C61.6741 192.69 61.2205 192.011 60.911 191.264C60.6014 190.517 60.4421 189.716 60.4421 188.907C60.4421 188.098 60.6014 187.297 60.911 186.55C61.2205 185.803 61.6741 185.124 62.2461 184.552C62.818 183.98 63.4969 183.526 64.2442 183.217C64.9914 182.907 65.7923 182.748 66.6011 182.748C67.4099 182.748 68.2108 182.907 68.958 183.217C69.7053 183.526 70.3842 183.98 70.9561 184.552C71.528 185.124 71.9817 185.803 72.2912 186.55C72.6007 187.297 72.76 188.098 72.76 188.907C72.76 189.716 72.6007 190.517 72.2912 191.264C71.9817 192.011 71.528 192.69 70.9561 193.262C70.3842 193.834 69.7053 194.288 68.958 194.597C68.2108 194.907 67.4099 195.066 66.6011 195.066Z" fill="#3749A9"/>
<path d="M43.6933 52.7251C42.8844 52.7251 42.0836 52.5658 41.3363 52.2563C40.5891 51.9468 39.9101 51.4931 39.3382 50.9212C38.7663 50.3493 38.3126 49.6703 38.0031 48.9231C37.6936 48.1759 37.5343 47.375 37.5343 46.5662C37.5343 45.7574 37.6936 44.9565 38.0031 44.2092C38.3126 43.462 38.7663 42.7831 39.3382 42.2111C39.9101 41.6392 40.5891 41.1856 41.3363 40.876C42.0836 40.5665 42.8844 40.4072 43.6933 40.4072C44.5021 40.4072 45.3029 40.5665 46.0502 40.876C46.7974 41.1856 47.4764 41.6392 48.0483 42.2111C48.6202 42.7831 49.0739 43.462 49.3834 44.2092C49.6929 44.9565 49.8522 45.7574 49.8522 46.5662C49.8522 47.375 49.6929 48.1759 49.3834 48.9231C49.0739 49.6703 48.6202 50.3493 48.0483 50.9212C47.4764 51.4931 46.7974 51.9468 46.0502 52.2563C45.3029 52.5658 44.5021 52.7251 43.6933 52.7251Z" fill="#3749A9"/>
<path d="M81.1912 24.8384C80.3824 24.8384 79.5815 24.6791 78.8342 24.3696C78.087 24.0601 77.4081 23.6064 76.8361 23.0345C76.2642 22.4626 75.8106 21.7836 75.501 21.0364C75.1915 20.2891 75.0322 19.4883 75.0322 18.6795C75.0322 17.8707 75.1915 17.0698 75.501 16.3225C75.8106 15.5753 76.2642 14.8963 76.8361 14.3244C77.4081 13.7525 78.087 13.2988 78.8342 12.9893C79.5815 12.6798 80.3824 12.5205 81.1912 12.5205C82 12.5205 82.8009 12.6798 83.5481 12.9893C84.2953 13.2988 84.9743 13.7525 85.5462 14.3244C86.1181 14.8963 86.5718 15.5753 86.8813 16.3225C87.1908 17.0698 87.3501 17.8707 87.3501 18.6795C87.3501 19.4883 87.1908 20.2891 86.8813 21.0364C86.5718 21.7836 86.1181 22.4626 85.5462 23.0345C84.9743 23.6064 84.2953 24.0601 83.5481 24.3696C82.8009 24.6791 82 24.8384 81.1912 24.8384Z" fill="#3749A9"/>
<path d="M40.2421 175.538C39.4333 175.538 38.6324 175.378 37.8852 175.069C37.1379 174.759 36.459 174.306 35.887 173.734C35.3151 173.162 34.8615 172.483 34.552 171.736C34.2424 170.988 34.0831 170.187 34.0831 169.379C34.0831 168.57 34.2424 167.769 34.552 167.022C34.8615 166.275 35.3151 165.596 35.887 165.024C36.459 164.452 37.1379 163.998 37.8852 163.689C38.6324 163.379 39.4333 163.22 40.2421 163.22C41.0509 163.22 41.8518 163.379 42.599 163.689C43.3462 163.998 44.0252 164.452 44.5971 165.024C45.169 165.596 45.6227 166.275 45.9322 167.022C46.2417 167.769 46.401 168.57 46.401 169.379C46.401 170.187 46.2417 170.988 45.9322 171.736C45.6227 172.483 45.169 173.162 44.5971 173.734C44.0252 174.306 43.3462 174.759 42.599 175.069C41.8518 175.378 41.0509 175.538 40.2421 175.538Z" fill="#3749A9"/>
<path d="M183.012 54.522C182.203 54.522 181.403 54.3627 180.655 54.0532C179.908 53.7437 179.229 53.29 178.657 52.7181C178.085 52.1462 177.632 51.4672 177.322 50.72C177.013 49.9727 176.853 49.1719 176.853 48.363C176.853 47.5542 177.013 46.7534 177.322 46.0061C177.632 45.2589 178.085 44.5799 178.657 44.008C179.229 43.4361 179.908 42.9824 180.655 42.6729C181.403 42.3634 182.203 42.2041 183.012 42.2041C183.821 42.2041 184.622 42.3634 185.369 42.6729C186.116 42.9824 186.795 43.4361 187.367 44.008C187.939 44.5799 188.393 45.2589 188.702 46.0061C189.012 46.7534 189.171 47.5542 189.171 48.363C189.171 49.1719 189.012 49.9727 188.702 50.72C188.393 51.4672 187.939 52.1462 187.367 52.7181C186.795 53.29 186.116 53.7437 185.369 54.0532C184.622 54.3627 183.821 54.522 183.012 54.522Z" fill="#3749A9"/>
<path d="M22.2764 143.459C21.4676 143.459 20.6667 143.3 19.9195 142.991C19.1722 142.681 18.4933 142.227 17.9213 141.656C17.3494 141.084 16.8958 140.405 16.5863 139.657C16.2767 138.91 16.1174 138.109 16.1174 137.301C16.1174 136.492 16.2767 135.691 16.5863 134.944C16.8958 134.196 17.3494 133.517 17.9213 132.946C18.4933 132.374 19.1722 131.92 19.9195 131.61C20.6667 131.301 21.4676 131.142 22.2764 131.142C23.0852 131.142 23.8861 131.301 24.6333 131.61C25.3805 131.92 26.0595 132.374 26.6314 132.946C27.2033 133.517 27.657 134.196 27.9665 134.944C28.276 135.691 28.4353 136.492 28.4353 137.301C28.4353 138.109 28.276 138.91 27.9665 139.657C27.657 140.405 27.2033 141.084 26.6314 141.656C26.0595 142.227 25.3805 142.681 24.6333 142.991C23.8861 143.3 23.0852 143.459 22.2764 143.459Z" fill="#3749A9"/>
<path d="M71.7492 206.876C70.2882 206.876 68.887 206.295 67.8539 205.262C66.8209 204.229 66.2405 202.828 66.2405 201.367C66.2405 199.906 66.8209 198.505 67.8539 197.472C68.887 196.439 70.2882 195.858 71.7492 195.858C73.2102 195.858 74.6114 196.439 75.6445 197.472C76.6776 198.505 77.2579 199.906 77.2579 201.367C77.2579 202.828 76.6776 204.229 75.6445 205.262C74.6114 206.295 73.2102 206.876 71.7492 206.876Z" fill="#3749A9"/>
<path d="M118.199 210.918C116.738 210.918 115.336 210.337 114.303 209.304C113.27 208.271 112.69 206.87 112.69 205.409C112.69 203.948 113.27 202.547 114.303 201.514C115.336 200.481 116.738 199.9 118.199 199.9C119.66 199.9 121.061 200.481 122.094 201.514C123.127 202.547 123.707 203.948 123.707 205.409C123.707 206.87 123.127 208.271 122.094 209.304C121.061 210.337 119.66 210.918 118.199 210.918Z" fill="#3749A9"/>
<path d="M17.5816 111.837C16.1206 111.837 14.7194 111.256 13.6863 110.223C12.6533 109.19 12.0729 107.789 12.0729 106.328C12.0729 104.867 12.6533 103.466 13.6863 102.433C14.7194 101.4 16.1206 100.819 17.5816 100.819C19.0426 100.819 20.4438 101.4 21.4769 102.433C22.51 103.466 23.0903 104.867 23.0903 106.328C23.0903 107.789 22.51 109.19 21.4769 110.223C20.4438 111.256 19.0426 111.837 17.5816 111.837Z" fill="#3749A9"/>
<path d="M200.343 151.244C198.882 151.244 197.481 150.664 196.448 149.631C195.415 148.597 194.835 147.196 194.835 145.735C194.835 144.274 195.415 142.873 196.448 141.84C197.481 140.807 198.882 140.227 200.343 140.227C201.804 140.227 203.206 140.807 204.239 141.84C205.272 142.873 205.852 144.274 205.852 145.735C205.852 147.196 205.272 148.597 204.239 149.631C203.206 150.664 201.804 151.244 200.343 151.244Z" fill="#3749A9"/>
<path d="M110.716 19.6288C109.255 19.6288 107.854 19.0484 106.821 18.0153C105.788 16.9822 105.207 15.5811 105.207 14.1201C105.207 12.6591 105.788 11.2579 106.821 10.2248C107.854 9.19171 109.255 8.61133 110.716 8.61133C112.177 8.61133 113.578 9.19171 114.611 10.2248C115.644 11.2579 116.225 12.6591 116.225 14.1201C116.225 15.5811 115.644 16.9822 114.611 18.0153C113.578 19.0484 112.177 19.6288 110.716 19.6288Z" fill="#3749A9"/>
<path d="M30.7833 55.9589C29.3223 55.9589 27.9211 55.3785 26.888 54.3454C25.8549 53.3123 25.2745 51.9111 25.2745 50.4501C25.2745 48.9891 25.8549 47.588 26.888 46.5549C27.9211 45.5218 29.3223 44.9414 30.7833 44.9414C32.2443 44.9414 33.6454 45.5218 34.6785 46.5549C35.7116 47.588 36.292 48.9891 36.292 50.4501C36.292 51.9111 35.7116 53.3123 34.6785 54.3454C33.6454 55.3785 32.2443 55.9589 30.7833 55.9589Z" fill="#3749A9"/>
<path d="M27.8336 169.616C26.3726 169.616 24.9714 169.036 23.9383 168.003C22.9052 166.97 22.3248 165.568 22.3248 164.107C22.3248 162.646 22.9052 161.245 23.9383 160.212C24.9714 159.179 26.3726 158.599 27.8336 158.599C29.2946 158.599 30.6957 159.179 31.7288 160.212C32.7619 161.245 33.3423 162.646 33.3423 164.107C33.3423 165.568 32.7619 166.97 31.7288 168.003C30.6957 169.036 29.2946 169.616 27.8336 169.616Z" fill="#3749A9"/>
<path d="M159.891 198.926C158.43 198.926 157.029 198.345 155.996 197.312C154.963 196.279 154.383 194.878 154.383 193.417C154.383 191.956 154.963 190.555 155.996 189.522C157.029 188.489 158.43 187.908 159.891 187.908C161.352 187.908 162.754 188.489 163.787 189.522C164.82 190.555 165.4 191.956 165.4 193.417C165.4 194.878 164.82 196.279 163.787 197.312C162.754 198.345 161.352 198.926 159.891 198.926Z" fill="#3749A9"/>
<path d="M18.439 155.733C16.978 155.733 15.5769 155.153 14.5438 154.12C13.5107 153.087 12.9303 151.686 12.9303 150.225C12.9303 148.764 13.5107 147.362 14.5438 146.329C15.5769 145.296 16.978 144.716 18.439 144.716C19.9 144.716 21.3012 145.296 22.3343 146.329C23.3674 147.362 23.9478 148.764 23.9478 150.225C23.9478 151.686 23.3674 153.087 22.3343 154.12C21.3012 155.153 19.9 155.733 18.439 155.733Z" fill="#3749A9"/>
<path d="M163.331 33.6718C161.87 33.6718 160.469 33.0914 159.436 32.0583C158.403 31.0252 157.823 29.624 157.823 28.163C157.823 26.702 158.403 25.3009 159.436 24.2678C160.469 23.2347 161.87 22.6543 163.331 22.6543C164.792 22.6543 166.194 23.2347 167.227 24.2678C168.26 25.3009 168.84 26.702 168.84 28.163C168.84 29.624 168.26 31.0252 167.227 32.0583C166.194 33.0914 164.792 33.6718 163.331 33.6718Z" fill="#3749A9"/>
<path d="M200.956 77.4276C199.495 77.4276 198.094 76.8472 197.061 75.8141C196.028 74.7811 195.448 73.3799 195.448 71.9189C195.448 70.4579 196.028 69.0567 197.061 68.0236C198.094 66.9905 199.495 66.4102 200.956 66.4102C202.417 66.4102 203.819 66.9905 204.852 68.0236C205.885 69.0567 206.465 70.4579 206.465 71.9189C206.465 73.3799 205.885 74.7811 204.852 75.8141C203.819 76.8472 202.417 77.4276 200.956 77.4276Z" fill="#3749A9"/>
<path d="M24.1147 78.8036C22.6537 78.8036 21.2525 78.2232 20.2194 77.1901C19.1863 76.157 18.606 74.7559 18.606 73.2949C18.606 71.8339 19.1863 70.4327 20.2194 69.3996C21.2525 68.3665 22.6537 67.7861 24.1147 67.7861C25.5757 67.7861 26.9769 68.3665 28.0099 69.3996C29.043 70.4327 29.6234 71.8339 29.6234 73.2949C29.6234 74.7559 29.043 76.157 28.0099 77.1901C26.9769 78.2232 25.5757 78.8036 24.1147 78.8036Z" fill="#3749A9"/>
<path d="M175.999 188.145C174.538 188.145 173.137 187.565 172.104 186.532C171.071 185.499 170.491 184.098 170.491 182.637C170.491 181.176 171.071 179.774 172.104 178.741C173.137 177.708 174.538 177.128 175.999 177.128C177.46 177.128 178.862 177.708 179.895 178.741C180.928 179.774 181.508 181.176 181.508 182.637C181.508 184.098 180.928 185.499 179.895 186.532C178.862 187.565 177.46 188.145 175.999 188.145Z" fill="#3749A9"/>
<path d="M122.941 15.7323C121.48 15.7323 120.079 15.1519 119.046 14.1188C118.013 13.0857 117.433 11.6846 117.433 10.2236C117.433 8.76257 118.013 7.3614 119.046 6.32831C120.079 5.29523 121.48 4.71484 122.941 4.71484C124.402 4.71484 125.804 5.29523 126.837 6.32831C127.87 7.3614 128.45 8.76257 128.45 10.2236C128.45 11.6846 127.87 13.0857 126.837 14.1188C125.804 15.1519 124.402 15.7323 122.941 15.7323Z" fill="#3749A9"/>
<path d="M139.067 209.116C137.606 209.116 136.205 208.536 135.172 207.503C134.138 206.47 133.558 205.068 133.558 203.607C133.558 202.146 134.138 200.745 135.172 199.712C136.205 198.679 137.606 198.099 139.067 198.099C140.528 198.099 141.929 198.679 142.962 199.712C143.995 200.745 144.576 202.146 144.576 203.607C144.576 205.068 143.995 206.47 142.962 207.503C141.929 208.536 140.528 209.116 139.067 209.116Z" fill="#3749A9"/>
<path d="M153.425 25.5165C151.964 25.5165 150.563 24.9361 149.53 23.903C148.497 22.8699 147.916 21.4688 147.916 20.0078C147.916 18.5467 148.497 17.1456 149.53 16.1125C150.563 15.0794 151.964 14.499 153.425 14.499C154.886 14.499 156.287 15.0794 157.32 16.1125C158.353 17.1456 158.934 18.5467 158.934 20.0078C158.934 21.4688 158.353 22.8699 157.32 23.903C156.287 24.9361 154.886 25.5165 153.425 25.5165Z" fill="#3749A9"/>
<path d="M13.8439 84.4496C12.5787 84.4496 11.3652 83.947 10.4705 83.0523C9.57587 82.1576 9.07324 80.9442 9.07324 79.6789C9.07324 78.4136 9.57587 77.2002 10.4705 76.3055C11.3652 75.4108 12.5787 74.9082 13.8439 74.9082C15.1092 74.9082 16.3227 75.4108 17.2173 76.3055C18.112 77.2002 18.6146 78.4136 18.6146 79.6789C18.6146 80.9442 18.112 82.1576 17.2173 83.0523C16.3227 83.947 15.1092 84.4496 13.8439 84.4496Z" fill="#3749A9"/>
<path d="M10.2331 101.495C8.96783 101.495 7.75439 100.992 6.85971 100.097C5.96503 99.2025 5.4624 97.9891 5.4624 96.7238C5.4624 95.4586 5.96503 94.2451 6.85971 93.3504C7.75439 92.4558 8.96783 91.9531 10.2331 91.9531C11.4984 91.9531 12.7118 92.4558 13.6065 93.3504C14.5012 94.2451 15.0038 95.4586 15.0038 96.7238C15.0038 97.9891 14.5012 99.2025 13.6065 100.097C12.7118 100.992 11.4984 101.495 10.2331 101.495Z" fill="#3749A9"/>
<path d="M94.6097 210.39C93.3444 210.39 92.131 209.887 91.2363 208.993C90.3416 208.098 89.839 206.885 89.839 205.619C89.839 204.354 90.3416 203.141 91.2363 202.246C92.131 201.351 93.3444 200.849 94.6097 200.849C95.875 200.849 97.0884 201.351 97.9831 202.246C98.8778 203.141 99.3804 204.354 99.3804 205.619C99.3804 206.885 98.8778 208.098 97.9831 208.993C97.0884 209.887 95.875 210.39 94.6097 210.39Z" fill="#3749A9"/>
<path d="M209.79 142.954C208.524 142.954 207.311 142.452 206.416 141.557C205.522 140.663 205.019 139.449 205.019 138.184C205.019 136.919 205.522 135.705 206.416 134.81C207.311 133.916 208.524 133.413 209.79 133.413C211.055 133.413 212.268 133.916 213.163 134.81C214.058 135.705 214.56 136.919 214.56 138.184C214.56 139.449 214.058 140.663 213.163 141.557C212.268 142.452 211.055 142.954 209.79 142.954Z" fill="#3749A9"/>
<path d="M210.755 111.699C209.489 111.699 208.276 111.196 207.381 110.301C206.487 109.407 205.984 108.193 205.984 106.928C205.984 105.663 206.487 104.449 207.381 103.555C208.276 102.66 209.489 102.157 210.755 102.157C212.02 102.157 213.233 102.66 214.128 103.555C215.023 104.449 215.525 105.663 215.525 106.928C215.525 108.193 215.023 109.407 214.128 110.301C213.233 111.196 212.02 111.699 210.755 111.699Z" fill="#3749A9"/>
<path d="M207.154 87.0736C205.889 87.0736 204.676 86.571 203.781 85.6763C202.886 84.7816 202.384 83.5682 202.384 82.3029C202.384 81.0377 202.886 79.8242 203.781 78.9295C204.676 78.0349 205.889 77.5322 207.154 77.5322C208.42 77.5322 209.633 78.0349 210.528 78.9295C211.422 79.8242 211.925 81.0377 211.925 82.3029C211.925 83.5682 211.422 84.7816 210.528 85.6763C209.633 86.571 208.42 87.0736 207.154 87.0736Z" fill="#3749A9"/>
<path d="M58.2875 29.5932C57.0223 29.5932 55.8088 29.0905 54.9142 28.1959C54.0195 27.3012 53.5168 26.0877 53.5168 24.8225C53.5168 23.5572 54.0195 22.3437 54.9142 21.4491C55.8088 20.5544 57.0223 20.0518 58.2875 20.0518C59.5528 20.0518 60.7663 20.5544 61.6609 21.4491C62.5556 22.3437 63.0582 23.5572 63.0582 24.8225C63.0582 26.0877 62.5556 27.3012 61.6609 28.1959C60.7663 29.0905 59.5528 29.5932 58.2875 29.5932Z" fill="#3749A9"/>
<path d="M54.2275 196.727C52.9622 196.727 51.7488 196.224 50.8541 195.33C49.9594 194.435 49.4568 193.222 49.4568 191.956C49.4568 190.691 49.9594 189.478 50.8541 188.583C51.7488 187.688 52.9622 187.186 54.2275 187.186C55.4928 187.186 56.7062 187.688 57.6009 188.583C58.4956 189.478 58.9982 190.691 58.9982 191.956C58.9982 193.222 58.4956 194.435 57.6009 195.33C56.7062 196.224 55.4928 196.727 54.2275 196.727Z" fill="#3749A9"/>
<path d="M45.0887 38.6693C43.8234 38.6693 42.61 38.1667 41.7153 37.272C40.8206 36.3773 40.318 35.1639 40.318 33.8986C40.318 32.6334 40.8206 31.4199 41.7153 30.5252C42.61 29.6306 43.8234 29.1279 45.0887 29.1279C46.354 29.1279 47.5674 29.6306 48.4621 30.5252C49.3568 31.4199 49.8594 32.6334 49.8594 33.8986C49.8594 35.1639 49.3568 36.3773 48.4621 37.272C47.5674 38.1667 46.354 38.6693 45.0887 38.6693Z" fill="#3749A9"/>
<path d="M40.9288 186.874C39.6635 186.874 38.4501 186.372 37.5554 185.477C36.6607 184.582 36.1581 183.369 36.1581 182.104C36.1581 180.838 36.6607 179.625 37.5554 178.73C38.4501 177.836 39.6635 177.333 40.9288 177.333C42.1941 177.333 43.4075 177.836 44.3022 178.73C45.1969 179.625 45.6995 180.838 45.6995 182.104C45.6995 183.369 45.1969 184.582 44.3022 185.477C43.4075 186.372 42.1941 186.874 40.9288 186.874Z" fill="#3749A9"/>
<path d="M171.969 198.81C170.704 198.81 169.49 198.307 168.596 197.413C167.701 196.518 167.198 195.305 167.198 194.039C167.198 192.774 167.701 191.561 168.596 190.666C169.49 189.771 170.704 189.269 171.969 189.269C173.234 189.269 174.448 189.771 175.342 190.666C176.237 191.561 176.74 192.774 176.74 194.039C176.74 195.305 176.237 196.518 175.342 197.413C174.448 198.307 173.234 198.81 171.969 198.81Z" fill="#3749A9"/>
<path d="M106.729 214.015C105.464 214.015 104.25 213.512 103.356 212.618C102.461 211.723 101.958 210.51 101.958 209.244C101.958 207.979 102.461 206.766 103.356 205.871C104.25 204.976 105.464 204.474 106.729 204.474C107.994 204.474 109.208 204.976 110.103 205.871C110.997 206.766 111.5 207.979 111.5 209.244C111.5 210.51 110.997 211.723 110.103 212.618C109.208 213.512 107.994 214.015 106.729 214.015Z" fill="#3749A9"/>
<path d="M181.463 40.4907C180.952 40.4907 180.445 40.39 179.972 40.1942C179.5 39.9985 179.07 39.7115 178.709 39.3498C178.347 38.9881 178.06 38.5587 177.864 38.0861C177.669 37.6135 177.568 37.107 177.568 36.5955C177.568 36.0839 177.669 35.5774 177.864 35.1048C178.06 34.6322 178.347 34.2028 178.709 33.8411C179.07 33.4794 179.5 33.1925 179.972 32.9967C180.445 32.8009 180.952 32.7002 181.463 32.7002C181.975 32.7002 182.481 32.8009 182.954 32.9967C183.426 33.1925 183.856 33.4794 184.217 33.8411C184.579 34.2028 184.866 34.6322 185.062 35.1048C185.258 35.5774 185.358 36.0839 185.358 36.5955C185.358 37.107 185.258 37.6135 185.062 38.0861C184.866 38.5587 184.579 38.9881 184.217 39.3498C183.856 39.7115 183.426 39.9985 182.954 40.1942C182.481 40.39 181.975 40.4907 181.463 40.4907Z" fill="#3749A9"/>
<path d="M13.1908 133.56C12.6793 133.56 12.1727 133.459 11.7001 133.264C11.2275 133.068 10.7981 132.781 10.4364 132.419C10.0747 132.057 9.7878 131.628 9.59204 131.155C9.39629 130.683 9.29553 130.176 9.29553 129.665C9.29553 129.153 9.39629 128.647 9.59204 128.174C9.7878 127.702 10.0747 127.272 10.4364 126.91C10.7981 126.549 11.2275 126.262 11.7001 126.066C12.1727 125.87 12.6793 125.77 13.1908 125.77C13.7023 125.77 14.2089 125.87 14.6814 126.066C15.154 126.262 15.5835 126.549 15.9452 126.91C16.3069 127.272 16.5938 127.702 16.7895 128.174C16.9853 128.647 17.0861 129.153 17.0861 129.665C17.0861 130.176 16.9853 130.683 16.7895 131.155C16.5938 131.628 16.3069 132.057 15.9452 132.419C15.5835 132.781 15.154 133.068 14.6814 133.264C14.2089 133.459 13.7023 133.56 13.1908 133.56Z" fill="#3749A9"/>
<path d="M128.979 212.409C128.467 212.409 127.961 212.308 127.488 212.112C127.015 211.916 126.586 211.629 126.224 211.268C125.863 210.906 125.576 210.477 125.38 210.004C125.184 209.531 125.083 209.025 125.083 208.513C125.083 208.002 125.184 207.495 125.38 207.023C125.576 206.55 125.863 206.121 126.224 205.759C126.586 205.397 127.015 205.11 127.488 204.915C127.961 204.719 128.467 204.618 128.979 204.618C129.49 204.618 129.997 204.719 130.469 204.915C130.942 205.11 131.371 205.397 131.733 205.759C132.095 206.121 132.382 206.55 132.577 207.023C132.773 207.495 132.874 208.002 132.874 208.513C132.874 209.025 132.773 209.531 132.577 210.004C132.382 210.477 132.095 210.906 131.733 211.268C131.371 211.629 130.942 211.916 130.469 212.112C129.997 212.308 129.49 212.409 128.979 212.409Z" fill="#3749A9"/>
<path d="M194.603 54.8091C194.092 54.8091 193.585 54.7083 193.112 54.5126C192.64 54.3168 192.21 54.0299 191.849 53.6682C191.487 53.3065 191.2 52.8771 191.004 52.4045C190.809 51.9319 190.708 51.4253 190.708 50.9138C190.708 50.4023 190.809 49.8958 191.004 49.4232C191.2 48.9506 191.487 48.5212 191.849 48.1595C192.21 47.7977 192.64 47.5108 193.112 47.3151C193.585 47.1193 194.092 47.0186 194.603 47.0186C195.115 47.0186 195.621 47.1193 196.094 47.3151C196.566 47.5108 196.996 47.7977 197.358 48.1595C197.719 48.5212 198.006 48.9506 198.202 49.4232C198.398 49.8958 198.498 50.4023 198.498 50.9138C198.498 51.4253 198.398 51.9319 198.202 52.4045C198.006 52.8771 197.719 53.3065 197.358 53.6682C196.996 54.0299 196.566 54.3168 196.094 54.5126C195.621 54.7083 195.115 54.8091 194.603 54.8091Z" fill="#3749A9"/>
<path d="M11.1207 119.394C10.6092 119.394 10.1027 119.293 9.63007 119.098C9.15748 118.902 8.72807 118.615 8.36636 118.253C8.00465 117.891 7.71773 117.462 7.52197 116.989C7.32622 116.517 7.22546 116.01 7.22546 115.499C7.22546 114.987 7.32622 114.481 7.52197 114.008C7.71773 113.536 8.00465 113.106 8.36636 112.744C8.72807 112.383 9.15748 112.096 9.63007 111.9C10.1027 111.704 10.6092 111.604 11.1207 111.604C11.6323 111.604 12.1388 111.704 12.6114 111.9C13.084 112.096 13.5134 112.383 13.8751 112.744C14.2368 113.106 14.5237 113.536 14.7195 114.008C14.9152 114.481 15.016 114.987 15.016 115.499C15.016 116.01 14.9152 116.517 14.7195 116.989C14.5237 117.462 14.2368 117.891 13.8751 118.253C13.5134 118.615 13.084 118.902 12.6114 119.098C12.1388 119.293 11.6323 119.394 11.1207 119.394Z" fill="#3749A9"/>
<path d="M201.283 160.809C200.771 160.809 200.264 160.708 199.792 160.513C199.319 160.317 198.89 160.03 198.528 159.668C198.166 159.306 197.88 158.877 197.684 158.404C197.488 157.932 197.387 157.425 197.387 156.914C197.387 156.402 197.488 155.896 197.684 155.423C197.88 154.951 198.166 154.521 198.528 154.159C198.89 153.798 199.319 153.511 199.792 153.315C200.264 153.119 200.771 153.019 201.283 153.019C201.794 153.019 202.301 153.119 202.773 153.315C203.246 153.511 203.675 153.798 204.037 154.159C204.399 154.521 204.686 154.951 204.881 155.423C205.077 155.896 205.178 156.402 205.178 156.914C205.178 157.425 205.077 157.932 204.881 158.404C204.686 158.877 204.399 159.306 204.037 159.668C203.675 160.03 203.246 160.317 202.773 160.513C202.301 160.708 201.794 160.809 201.283 160.809Z" fill="#3749A9"/>
<path d="M152.053 205.337C151.542 205.337 151.035 205.237 150.563 205.041C150.09 204.845 149.661 204.558 149.299 204.197C148.937 203.835 148.65 203.405 148.454 202.933C148.259 202.46 148.158 201.954 148.158 201.442C148.158 200.931 148.259 200.424 148.454 199.951C148.65 199.479 148.937 199.049 149.299 198.688C149.661 198.326 150.09 198.039 150.563 197.843C151.035 197.648 151.542 197.547 152.053 197.547C152.565 197.547 153.071 197.648 153.544 197.843C154.016 198.039 154.446 198.326 154.808 198.688C155.169 199.049 155.456 199.479 155.652 199.951C155.848 200.424 155.948 200.931 155.948 201.442C155.948 201.954 155.848 202.46 155.652 202.933C155.456 203.405 155.169 203.835 154.808 204.197C154.446 204.558 154.016 204.845 153.544 205.041C153.071 205.237 152.565 205.337 152.053 205.337Z" fill="#3749A9"/>
<path d="M101.089 12.2573C100.577 12.2573 100.071 12.1566 99.598 11.9608C99.1254 11.7651 98.696 11.4781 98.3343 11.1164C97.9725 10.7547 97.6856 10.3253 97.4899 9.85271C97.2941 9.38012 97.1934 8.87359 97.1934 8.36206C97.1934 7.85052 97.2941 7.344 97.4899 6.87141C97.6856 6.39881 97.9725 5.9694 98.3343 5.60769C98.696 5.24598 99.1254 4.95906 99.598 4.76331C100.071 4.56755 100.577 4.4668 101.089 4.4668C101.6 4.4668 102.107 4.56755 102.579 4.76331C103.052 4.95906 103.481 5.24598 103.843 5.60769C104.205 5.9694 104.492 6.39881 104.687 6.87141C104.883 7.344 104.984 7.85052 104.984 8.36206C104.984 8.87359 104.883 9.38012 104.687 9.85271C104.492 10.3253 104.205 10.7547 103.843 11.1164C103.481 11.4781 103.052 11.7651 102.579 11.9608C102.107 12.1566 101.6 12.2573 101.089 12.2573Z" fill="#3749A9"/>
<path d="M22.3247 66.1157C21.8132 66.1157 21.3066 66.015 20.8341 65.8192C20.3615 65.6235 19.932 65.3365 19.5703 64.9748C19.2086 64.6131 18.9217 64.1837 18.726 63.7111C18.5302 63.2385 18.4294 62.732 18.4294 62.2205C18.4294 61.7089 18.5302 61.2024 18.726 60.7298C18.9217 60.2572 19.2086 59.8278 19.5703 59.4661C19.932 59.1044 20.3615 58.8175 20.8341 58.6217C21.3066 58.4259 21.8132 58.3252 22.3247 58.3252C22.8362 58.3252 23.3428 58.4259 23.8154 58.6217C24.288 58.8175 24.7174 59.1044 25.0791 59.4661C25.4408 59.8278 25.7277 60.2572 25.9235 60.7298C26.1192 61.2024 26.22 61.7089 26.22 62.2205C26.22 62.732 26.1192 63.2385 25.9235 63.7111C25.7277 64.1837 25.4408 64.6131 25.0791 64.9748C24.7174 65.3365 24.288 65.6235 23.8154 65.8192C23.3428 66.015 22.8362 66.1157 22.3247 66.1157Z" fill="#3749A9"/>
<path d="M89.4099 14.0132C88.8984 14.0132 88.3919 13.9124 87.9193 13.7167C87.4467 13.5209 87.0173 13.234 86.6555 12.8723C86.2938 12.5106 86.0069 12.0812 85.8112 11.6086C85.6154 11.136 85.5146 10.6295 85.5146 10.1179C85.5146 9.60638 85.6154 9.09986 85.8112 8.62727C86.0069 8.15467 86.2938 7.72526 86.6555 7.36355C87.0173 7.00184 87.4467 6.71492 87.9193 6.51917C88.3919 6.32341 88.8984 6.22266 89.4099 6.22266C89.9214 6.22266 90.428 6.32341 90.9006 6.51917C91.3732 6.71492 91.8026 7.00184 92.1643 7.36355C92.526 7.72526 92.8129 8.15467 93.0087 8.62727C93.2044 9.09986 93.3052 9.60638 93.3052 10.1179C93.3052 10.6295 93.2044 11.136 93.0087 11.6086C92.8129 12.0812 92.526 12.5106 92.1643 12.8723C91.8026 13.234 91.3732 13.5209 90.9006 13.7167C90.428 13.9124 89.9214 14.0132 89.4099 14.0132Z" fill="#3749A9"/>
<path d="M98.2749 219.333C97.7634 219.333 97.2568 219.233 96.7842 219.037C96.3117 218.841 95.8822 218.554 95.5205 218.193C95.1588 217.831 94.8719 217.401 94.6761 216.929C94.4804 216.456 94.3796 215.95 94.3796 215.438C94.3796 214.927 94.4804 214.42 94.6761 213.948C94.8719 213.475 95.1588 213.046 95.5205 212.684C95.8822 212.322 96.3117 212.035 96.7842 211.839C97.2568 211.644 97.7634 211.543 98.2749 211.543C98.7864 211.543 99.293 211.644 99.7656 211.839C100.238 212.035 100.668 212.322 101.029 212.684C101.391 213.046 101.678 213.475 101.874 213.948C102.069 214.42 102.17 214.927 102.17 215.438C102.17 215.95 102.069 216.456 101.874 216.929C101.678 217.401 101.391 217.831 101.029 218.193C100.668 218.554 100.238 218.841 99.7656 219.037C99.293 219.233 98.7864 219.333 98.2749 219.333Z" fill="#3749A9"/>
<path d="M174.472 33.3765C173.96 33.3765 173.454 33.2757 172.981 33.08C172.509 32.8842 172.079 32.5973 171.718 32.2356C171.356 31.8739 171.069 31.4444 170.873 30.9719C170.677 30.4993 170.577 29.9927 170.577 29.4812C170.577 28.9697 170.677 28.4631 170.873 27.9905C171.069 27.518 171.356 27.0885 171.718 26.7268C172.079 26.3651 172.509 26.0782 172.981 25.8824C173.454 25.6867 173.96 25.5859 174.472 25.5859C174.983 25.5859 175.49 25.6867 175.963 25.8824C176.435 26.0782 176.865 26.3651 177.226 26.7268C177.588 27.0885 177.875 27.518 178.071 27.9905C178.266 28.4631 178.367 28.9697 178.367 29.4812C178.367 29.9927 178.266 30.4993 178.071 30.9719C177.875 31.4444 177.588 31.8739 177.226 32.2356C176.865 32.5973 176.435 32.8842 175.963 33.08C175.49 33.2757 174.983 33.3765 174.472 33.3765Z" fill="#3749A9"/>
<path d="M186.976 184.219C186.465 184.219 185.958 184.118 185.486 183.923C185.013 183.727 184.584 183.44 184.222 183.078C183.86 182.717 183.573 182.287 183.378 181.815C183.182 181.342 183.081 180.836 183.081 180.324C183.081 179.812 183.182 179.306 183.378 178.833C183.573 178.361 183.86 177.931 184.222 177.57C184.584 177.208 185.013 176.921 185.486 176.725C185.958 176.529 186.465 176.429 186.976 176.429C187.488 176.429 187.994 176.529 188.467 176.725C188.94 176.921 189.369 177.208 189.731 177.57C190.093 177.931 190.379 178.361 190.575 178.833C190.771 179.306 190.872 179.812 190.872 180.324C190.872 180.836 190.771 181.342 190.575 181.815C190.379 182.287 190.093 182.717 189.731 183.078C189.369 183.44 188.94 183.727 188.467 183.923C187.994 184.118 187.488 184.219 186.976 184.219Z" fill="#3749A9"/>
<path d="M148.135 214.107C147.623 214.107 147.117 214.006 146.644 213.81C146.171 213.615 145.742 213.328 145.38 212.966C145.019 212.604 144.732 212.175 144.536 211.702C144.34 211.23 144.239 210.723 144.239 210.212C144.239 209.7 144.34 209.194 144.536 208.721C144.732 208.248 145.019 207.819 145.38 207.457C145.742 207.096 146.171 206.809 146.644 206.613C147.117 206.417 147.623 206.316 148.135 206.316C148.646 206.316 149.153 206.417 149.625 206.613C150.098 206.809 150.527 207.096 150.889 207.457C151.251 207.819 151.538 208.248 151.733 208.721C151.929 209.194 152.03 209.7 152.03 210.212C152.03 210.723 151.929 211.23 151.733 211.702C151.538 212.175 151.251 212.604 150.889 212.966C150.527 213.328 150.098 213.615 149.625 213.81C149.153 214.006 148.646 214.107 148.135 214.107Z" fill="#3749A9"/>
<path d="M202.012 64.645C201.501 64.645 200.994 64.5443 200.522 64.3485C200.049 64.1528 199.62 63.8658 199.258 63.5041C198.896 63.1424 198.609 62.713 198.413 62.2404C198.218 61.7678 198.117 61.2613 198.117 60.7498C198.117 60.2382 198.218 59.7317 198.413 59.2591C198.609 58.7865 198.896 58.3571 199.258 57.9954C199.62 57.6337 200.049 57.3468 200.522 57.151C200.994 56.9552 201.501 56.8545 202.012 56.8545C202.524 56.8545 203.03 56.9552 203.503 57.151C203.975 57.3468 204.405 57.6337 204.767 57.9954C205.128 58.3571 205.415 58.7865 205.611 59.2591C205.807 59.7317 205.907 60.2382 205.907 60.7498C205.907 61.2613 205.807 61.7678 205.611 62.2404C205.415 62.713 205.128 63.1424 204.767 63.5041C204.405 63.8658 203.975 64.1528 203.503 64.3485C203.03 64.5443 202.524 64.645 202.012 64.645Z" fill="#3749A9"/>
<path d="M69.5784 20.1255C69.0668 20.1255 68.5603 20.0247 68.0877 19.829C67.6151 19.6332 67.1857 19.3463 66.824 18.9846C66.4623 18.6229 66.1754 18.1935 65.9796 17.7209C65.7839 17.2483 65.6831 16.7418 65.6831 16.2302C65.6831 15.7187 65.7839 15.2122 65.9796 14.7396C66.1754 14.267 66.4623 13.8376 66.824 13.4759C67.1857 13.1141 67.6151 12.8272 68.0877 12.6315C68.5603 12.4357 69.0668 12.335 69.5784 12.335C70.0899 12.335 70.5964 12.4357 71.069 12.6315C71.5416 12.8272 71.971 13.1141 72.3327 13.4759C72.6944 13.8376 72.9814 14.267 73.1771 14.7396C73.3729 15.2122 73.4736 15.7187 73.4736 16.2302C73.4736 16.7418 73.3729 17.2483 73.1771 17.7209C72.9814 18.1935 72.6944 18.6229 72.3327 18.9846C71.971 19.3463 71.5416 19.6332 71.069 19.829C70.5964 20.0247 70.0899 20.1255 69.5784 20.1255Z" fill="#3749A9"/>
<path d="M84.5269 212.373C84.0153 212.373 83.5088 212.272 83.0362 212.076C82.5636 211.88 82.1342 211.593 81.7725 211.232C81.4108 210.87 81.1239 210.441 80.9281 209.968C80.7323 209.495 80.6316 208.989 80.6316 208.477C80.6316 207.966 80.7323 207.459 80.9281 206.987C81.1239 206.514 81.4108 206.085 81.7725 205.723C82.1342 205.361 82.5636 205.074 83.0362 204.879C83.5088 204.683 84.0153 204.582 84.5269 204.582C85.0384 204.582 85.5449 204.683 86.0175 204.879C86.4901 205.074 86.9195 205.361 87.2812 205.723C87.6429 206.085 87.9298 206.514 88.1256 206.987C88.3214 207.459 88.4221 207.966 88.4221 208.477C88.4221 208.989 88.3214 209.495 88.1256 209.968C87.9298 210.441 87.6429 210.87 87.2812 211.232C86.9195 211.593 86.4901 211.88 86.0175 212.076C85.5449 212.272 85.0384 212.373 84.5269 212.373Z" fill="#3749A9"/>
<path d="M202.013 168.101C201.283 168.101 200.582 167.81 200.065 167.294C199.549 166.777 199.259 166.077 199.259 165.346C199.259 164.616 199.549 163.915 200.065 163.399C200.582 162.882 201.283 162.592 202.013 162.592C202.744 162.592 203.444 162.882 203.961 163.399C204.477 163.915 204.767 164.616 204.767 165.346C204.767 166.077 204.477 166.777 203.961 167.294C203.444 167.81 202.744 168.101 202.013 168.101Z" fill="#3749A9"/>
<path d="M48.9664 28.1572C48.2359 28.1572 47.5353 27.867 47.0188 27.3504C46.5022 26.8339 46.212 26.1333 46.212 25.4028C46.212 24.6723 46.5022 23.9717 47.0188 23.4552C47.5353 22.9386 48.2359 22.6484 48.9664 22.6484C49.6969 22.6484 50.3975 22.9386 50.914 23.4552C51.4306 23.9717 51.7208 24.6723 51.7208 25.4028C51.7208 26.1333 51.4306 26.8339 50.914 27.3504C50.3975 27.867 49.6969 28.1572 48.9664 28.1572Z" fill="#3749A9"/>
<path d="M18.5027 163.056C17.7722 163.056 17.0716 162.765 16.555 162.249C16.0385 161.732 15.7483 161.032 15.7483 160.301C15.7483 159.571 16.0385 158.87 16.555 158.354C17.0716 157.837 17.7722 157.547 18.5027 157.547C19.2332 157.547 19.9337 157.837 20.4503 158.354C20.9668 158.87 21.257 159.571 21.257 160.301C21.257 161.032 20.9668 161.732 20.4503 162.249C19.9337 162.765 19.2332 163.056 18.5027 163.056Z" fill="#3749A9"/>
<path d="M21.2862 56.5751C20.5557 56.5751 19.8551 56.2849 19.3386 55.7684C18.8221 55.2519 18.5319 54.5513 18.5319 53.8208C18.5319 53.0903 18.8221 52.3897 19.3386 51.8731C19.8551 51.3566 20.5557 51.0664 21.2862 51.0664C22.0167 51.0664 22.7173 51.3566 23.2339 51.8731C23.7504 52.3897 24.0406 53.0903 24.0406 53.8208C24.0406 54.5513 23.7504 55.2519 23.2339 55.7684C22.7173 56.2849 22.0167 56.5751 21.2862 56.5751Z" fill="#3749A9"/>
<path d="M76.2773 213.124C75.5468 213.124 74.8462 212.834 74.3297 212.317C73.8131 211.801 73.5229 211.1 73.5229 210.37C73.5229 209.639 73.8131 208.939 74.3297 208.422C74.8462 207.905 75.5468 207.615 76.2773 207.615C77.0078 207.615 77.7084 207.905 78.2249 208.422C78.7415 208.939 79.0317 209.639 79.0317 210.37C79.0317 211.1 78.7415 211.801 78.2249 212.317C77.7084 212.834 77.0078 213.124 76.2773 213.124Z" fill="#3749A9"/>
<path d="M147.805 14.3974C147.075 14.3974 146.374 14.1072 145.858 13.5907C145.341 13.0741 145.051 12.3735 145.051 11.643C145.051 10.9125 145.341 10.212 145.858 9.69541C146.374 9.17886 147.075 8.88867 147.805 8.88867C148.536 8.88867 149.236 9.17886 149.753 9.69541C150.269 10.212 150.56 10.9125 150.56 11.643C150.56 12.3735 150.269 13.0741 149.753 13.5907C149.236 14.1072 148.536 14.3974 147.805 14.3974Z" fill="#3749A9"/>
<path d="M45.0013 193.263C44.2708 193.263 43.5702 192.972 43.0537 192.456C42.5371 191.939 42.2469 191.239 42.2469 190.508C42.2469 189.778 42.5371 189.077 43.0537 188.561C43.5702 188.044 44.2708 187.754 45.0013 187.754C45.7318 187.754 46.4324 188.044 46.9489 188.561C47.4655 189.077 47.7557 189.778 47.7557 190.508C47.7557 191.239 47.4655 191.939 46.9489 192.456C46.4324 192.972 45.7318 193.263 45.0013 193.263Z" fill="#3749A9"/>
<path d="M62.0529 201.377C61.3224 201.377 60.6219 201.087 60.1053 200.57C59.5888 200.054 59.2986 199.353 59.2986 198.623C59.2986 197.892 59.5888 197.191 60.1053 196.675C60.6219 196.158 61.3224 195.868 62.0529 195.868C62.7835 195.868 63.484 196.158 64.0006 196.675C64.5171 197.191 64.8073 197.892 64.8073 198.623C64.8073 199.353 64.5171 200.054 64.0006 200.57C63.484 201.087 62.7835 201.377 62.0529 201.377Z" fill="#3749A9"/>
<path d="M215.037 101.383C214.307 101.383 213.606 101.093 213.09 100.576C212.573 100.059 212.283 99.3589 212.283 98.6284C212.283 97.8979 212.573 97.1973 213.09 96.6808C213.606 96.1642 214.307 95.874 215.037 95.874C215.768 95.874 216.468 96.1642 216.985 96.6808C217.501 97.1973 217.792 97.8979 217.792 98.6284C217.792 99.3589 217.501 100.059 216.985 100.576C216.468 101.093 215.768 101.383 215.037 101.383Z" fill="#3749A9"/>
<path d="M213.634 91.7831C212.903 91.7831 212.203 91.493 211.686 90.9764C211.17 90.4599 210.879 89.7593 210.879 89.0288C210.879 88.2983 211.17 87.5977 211.686 87.0811C212.203 86.5646 212.903 86.2744 213.634 86.2744C214.364 86.2744 215.065 86.5646 215.581 87.0811C216.098 87.5977 216.388 88.2983 216.388 89.0288C216.388 89.7593 216.098 90.4599 215.581 90.9764C215.065 91.493 214.364 91.7831 213.634 91.7831Z" fill="#3749A9"/>
<path d="M182.845 30.9999C182.114 30.9999 181.414 30.7098 180.897 30.1932C180.381 29.6767 180.091 28.9761 180.091 28.2456C180.091 27.5151 180.381 26.8145 180.897 26.2979C181.414 25.7814 182.114 25.4912 182.845 25.4912C183.575 25.4912 184.276 25.7814 184.793 26.2979C185.309 26.8145 185.599 27.5151 185.599 28.2456C185.599 28.9761 185.309 29.6767 184.793 30.1932C184.276 30.7098 183.575 30.9999 182.845 30.9999Z" fill="#3749A9"/>
<path d="M61.1202 18.6777C60.3897 18.6777 59.6891 18.3875 59.1726 17.8709C58.656 17.3544 58.3658 16.6538 58.3658 15.9233C58.3658 15.1928 58.656 14.4922 59.1726 13.9757C59.6891 13.4591 60.3897 13.1689 61.1202 13.1689C61.8507 13.1689 62.5513 13.4591 63.0678 13.9757C63.5844 14.4922 63.8746 15.1928 63.8746 15.9233C63.8746 16.6538 63.5844 17.3544 63.0678 17.8709C62.5513 18.3875 61.8507 18.6777 61.1202 18.6777Z" fill="#3749A9"/>
<path d="M55.2149 203.997C54.4844 203.997 53.7838 203.707 53.2673 203.19C52.7508 202.674 52.4606 201.973 52.4606 201.243C52.4606 200.512 52.7508 199.812 53.2673 199.295C53.7838 198.778 54.4844 198.488 55.2149 198.488C55.9454 198.488 56.646 198.778 57.1626 199.295C57.6791 199.812 57.9693 200.512 57.9693 201.243C57.9693 201.973 57.6791 202.674 57.1626 203.19C56.646 203.707 55.9454 203.997 55.2149 203.997Z" fill="#3749A9"/>
<path d="M7.68674 125.989C6.95624 125.989 6.25565 125.699 5.73911 125.182C5.22256 124.666 4.93237 123.965 4.93237 123.235C4.93237 122.504 5.22256 121.804 5.73911 121.287C6.25565 120.771 6.95624 120.48 7.68674 120.48C8.41724 120.48 9.11783 120.771 9.63437 121.287C10.1509 121.804 10.4411 122.504 10.4411 123.235C10.4411 123.965 10.1509 124.666 9.63437 125.182C9.11783 125.699 8.41724 125.989 7.68674 125.989Z" fill="#3749A9"/>
<path d="M34.4778 43.829C33.7473 43.829 33.0467 43.5389 32.5301 43.0223C32.0136 42.5058 31.7234 41.8052 31.7234 41.0747C31.7234 40.3442 32.0136 39.6436 32.5301 39.127C33.0467 38.6105 33.7473 38.3203 34.4778 38.3203C35.2083 38.3203 35.9088 38.6105 36.4254 39.127C36.9419 39.6436 37.2321 40.3442 37.2321 41.0747C37.2321 41.8052 36.9419 42.5058 36.4254 43.0223C35.9088 43.5389 35.2083 43.829 34.4778 43.829Z" fill="#3749A9"/>
<path d="M132.379 9.44623C131.649 9.44623 130.948 9.15604 130.432 8.6395C129.915 8.12295 129.625 7.42237 129.625 6.69187C129.625 5.96136 129.915 5.26078 130.432 4.74423C130.948 4.22769 131.649 3.9375 132.379 3.9375C133.11 3.9375 133.811 4.22769 134.327 4.74423C134.844 5.26078 135.134 5.96136 135.134 6.69187C135.134 7.42237 134.844 8.12295 134.327 8.6395C133.811 9.15604 133.11 9.44623 132.379 9.44623Z" fill="#3749A9"/>
<path d="M202.946 55.0927C202.216 55.0927 201.515 54.8025 200.999 54.286C200.482 53.7694 200.192 53.0689 200.192 52.3383C200.192 51.6078 200.482 50.9073 200.999 50.3907C201.515 49.8742 202.216 49.584 202.946 49.584C203.677 49.584 204.377 49.8742 204.894 50.3907C205.41 50.9073 205.701 51.6078 205.701 52.3383C205.701 53.0689 205.41 53.7694 204.894 54.286C204.377 54.8025 203.677 55.0927 202.946 55.0927Z" fill="#3749A9"/>
<path d="M30.482 176.585C29.7515 176.585 29.0509 176.295 28.5344 175.778C28.0179 175.262 27.7277 174.561 27.7277 173.831C27.7277 173.1 28.0179 172.399 28.5344 171.883C29.0509 171.366 29.7515 171.076 30.482 171.076C31.2125 171.076 31.9131 171.366 32.4297 171.883C32.9462 172.399 33.2364 173.1 33.2364 173.831C33.2364 174.561 32.9462 175.262 32.4297 175.778C31.9131 176.295 31.2125 176.585 30.482 176.585Z" fill="#3749A9"/>
<path d="M217.311 116.333C216.581 116.333 215.88 116.043 215.363 115.526C214.847 115.01 214.557 114.309 214.557 113.579C214.557 112.848 214.847 112.147 215.363 111.631C215.88 111.114 216.581 110.824 217.311 110.824C218.042 110.824 218.742 111.114 219.259 111.631C219.775 112.147 220.065 112.848 220.065 113.579C220.065 114.309 219.775 115.01 219.259 115.526C218.742 116.043 218.042 116.333 217.311 116.333Z" fill="#3749A9"/>
<path d="M163.317 20.8408C162.587 20.8408 161.886 20.5506 161.37 20.034C160.853 19.5175 160.563 18.8169 160.563 18.0864C160.563 17.3559 160.853 16.6553 161.37 16.1388C161.886 15.6222 162.587 15.332 163.317 15.332C164.048 15.332 164.748 15.6222 165.265 16.1388C165.782 16.6553 166.072 17.3559 166.072 18.0864C166.072 18.8169 165.782 19.5175 165.265 20.034C164.748 20.5506 164.048 20.8408 163.317 20.8408Z" fill="#3749A9"/>
<path d="M94.3477 5.99799C93.6172 5.99799 92.9167 5.7078 92.4001 5.19125C91.8836 4.67471 91.5934 3.97413 91.5934 3.24362C91.5934 2.51312 91.8836 1.81254 92.4001 1.29599C92.9167 0.779449 93.6172 0.489258 94.3477 0.489258C95.0783 0.489258 95.7788 0.779449 96.2954 1.29599C96.8119 1.81254 97.1021 2.51312 97.1021 3.24362C97.1021 3.97413 96.8119 4.67471 96.2954 5.19125C95.7788 5.7078 95.0783 5.99799 94.3477 5.99799Z" fill="#3749A9"/>
<path d="M35.7496 36.6181C35.0191 36.6181 34.3185 36.3279 33.802 35.8114C33.2854 35.2948 32.9952 34.5942 32.9952 33.8637C32.9952 33.1332 33.2854 32.4327 33.802 31.9161C34.3185 31.3996 35.0191 31.1094 35.7496 31.1094C36.4801 31.1094 37.1807 31.3996 37.6972 31.9161C38.2138 32.4327 38.504 33.1332 38.504 33.8637C38.504 34.5942 38.2138 35.2948 37.6972 35.8114C37.1807 36.3279 36.4801 36.6181 35.7496 36.6181Z" fill="#3749A9"/>
<path d="M114.469 7.5224C113.738 7.5224 113.038 7.23221 112.521 6.71567C112.005 6.19912 111.714 5.49854 111.714 4.76804C111.714 4.03753 112.005 3.33695 112.521 2.82041C113.038 2.30386 113.738 2.01367 114.469 2.01367C115.199 2.01367 115.9 2.30386 116.416 2.82041C116.933 3.33695 117.223 4.03753 117.223 4.76804C117.223 5.49854 116.933 6.19912 116.416 6.71567C115.9 7.23221 115.199 7.5224 114.469 7.5224Z" fill="#3749A9"/>
<path d="M210.869 76.4882C210.138 76.4882 209.438 76.198 208.921 75.6815C208.405 75.1649 208.114 74.4644 208.114 73.7339C208.114 73.0034 208.405 72.3028 208.921 71.7862C209.438 71.2697 210.138 70.9795 210.869 70.9795C211.599 70.9795 212.3 71.2697 212.816 71.7862C213.333 72.3028 213.623 73.0034 213.623 73.7339C213.623 74.4644 213.333 75.1649 212.816 75.6815C212.3 76.198 211.599 76.4882 210.869 76.4882Z" fill="#3749A9"/>
<path d="M189.338 42.4531C188.607 42.4531 187.907 42.1629 187.39 41.6463C186.873 41.1298 186.583 40.4292 186.583 39.6987C186.583 38.9682 186.873 38.2676 187.39 37.7511C187.907 37.2345 188.607 36.9443 189.338 36.9443C190.068 36.9443 190.769 37.2345 191.285 37.7511C191.802 38.2676 192.092 38.9682 192.092 39.6987C192.092 40.4292 191.802 41.1298 191.285 41.6463C190.769 42.1629 190.068 42.4531 189.338 42.4531Z" fill="#3749A9"/>
<path d="M114.306 217.459C113.575 217.459 112.875 217.169 112.358 216.652C111.842 216.136 111.552 215.435 111.552 214.705C111.552 213.974 111.842 213.273 112.358 212.757C112.875 212.24 113.575 211.95 114.306 211.95C115.036 211.95 115.737 212.24 116.254 212.757C116.77 213.273 117.06 213.974 117.06 214.705C117.06 215.435 116.77 216.136 116.254 216.652C115.737 217.169 115.036 217.459 114.306 217.459Z" fill="#3749A9"/>
<path d="M31.6482 183.813C30.9177 183.813 30.2171 183.523 29.7005 183.007C29.184 182.49 28.8938 181.79 28.8938 181.059C28.8938 180.329 29.184 179.628 29.7005 179.111C30.2171 178.595 30.9177 178.305 31.6482 178.305C32.3787 178.305 33.0793 178.595 33.5958 179.111C34.1123 179.628 34.4025 180.329 34.4025 181.059C34.4025 181.79 34.1123 182.49 33.5958 183.007C33.0793 183.523 32.3787 183.813 31.6482 183.813Z" fill="#3749A9"/>
<path d="M196.071 45.332C195.34 45.332 194.64 45.0418 194.123 44.5252C193.606 44.0087 193.316 43.3081 193.316 42.5776C193.316 41.8471 193.606 41.1465 194.123 40.63C194.64 40.1134 195.34 39.8232 196.071 39.8232C196.801 39.8232 197.502 40.1134 198.018 40.63C198.535 41.1465 198.825 41.8471 198.825 42.5776C198.825 43.3081 198.535 44.0087 198.018 44.5252C197.502 45.0418 196.801 45.332 196.071 45.332Z" fill="#3749A9"/>
<path d="M11.57 140.726C10.8395 140.726 10.139 140.435 9.62241 139.919C9.10587 139.402 8.81567 138.702 8.81567 137.971C8.81567 137.241 9.10587 136.54 9.62241 136.024C10.139 135.507 10.8395 135.217 11.57 135.217C12.3005 135.217 13.0011 135.507 13.5177 136.024C14.0342 136.54 14.3244 137.241 14.3244 137.971C14.3244 138.702 14.0342 139.402 13.5177 139.919C13.0011 140.435 12.3005 140.726 11.57 140.726Z" fill="#3749A9"/>
<path d="M8.74484 90.2578C8.01434 90.2578 7.31376 89.9676 6.79721 89.451C6.28067 88.9345 5.99048 88.2339 5.99048 87.5034C5.99048 86.7729 6.28067 86.0723 6.79721 85.5558C7.31376 85.0392 8.01434 84.749 8.74484 84.749C9.47535 84.749 10.1759 85.0392 10.6925 85.5558C11.209 86.0723 11.4992 86.7729 11.4992 87.5034C11.4992 88.2339 11.209 88.9345 10.6925 89.451C10.1759 89.9676 9.47535 90.2578 8.74484 90.2578Z" fill="#3749A9"/>
<path d="M9.77878 147.826C9.04828 147.826 8.34769 147.536 7.83115 147.019C7.31461 146.503 7.02441 145.802 7.02441 145.072C7.02441 144.341 7.31461 143.641 7.83115 143.124C8.34769 142.608 9.04828 142.317 9.77878 142.317C10.5093 142.317 11.2099 142.608 11.7264 143.124C12.243 143.641 12.5331 144.341 12.5331 145.072C12.5331 145.802 12.243 146.503 11.7264 147.019C11.2099 147.536 10.5093 147.826 9.77878 147.826Z" fill="#3749A9"/>
<path d="M7.61191 110.551C6.88141 110.551 6.18082 110.261 5.66428 109.744C5.14774 109.227 4.85754 108.527 4.85754 107.796C4.85754 107.066 5.14774 106.365 5.66428 105.849C6.18082 105.332 6.88141 105.042 7.61191 105.042C8.34241 105.042 9.043 105.332 9.55954 105.849C10.0761 106.365 10.3663 107.066 10.3663 107.796C10.3663 108.527 10.0761 109.227 9.55954 109.744C9.043 110.261 8.34241 110.551 7.61191 110.551Z" fill="#3749A9"/>
<path d="M208.203 154.797C207.473 154.797 206.772 154.507 206.256 153.99C205.739 153.474 205.449 152.773 205.449 152.042C205.449 151.312 205.739 150.611 206.256 150.095C206.772 149.578 207.473 149.288 208.203 149.288C208.934 149.288 209.634 149.578 210.151 150.095C210.667 150.611 210.958 151.312 210.958 152.042C210.958 152.773 210.667 153.474 210.151 153.99C209.634 154.507 208.934 154.797 208.203 154.797Z" fill="#3749A9"/>
<path d="M122.849 217.104C122.118 217.104 121.418 216.814 120.901 216.298C120.385 215.781 120.094 215.081 120.094 214.35C120.094 213.62 120.385 212.919 120.901 212.402C121.418 211.886 122.118 211.596 122.849 211.596C123.579 211.596 124.28 211.886 124.796 212.402C125.313 212.919 125.603 213.62 125.603 214.35C125.603 215.081 125.313 215.781 124.796 216.298C124.28 216.814 123.579 217.104 122.849 217.104Z" fill="#3749A9"/>
<path d="M160.266 206.242C159.536 206.242 158.835 205.952 158.319 205.435C157.802 204.919 157.512 204.218 157.512 203.488C157.512 202.757 157.802 202.057 158.319 201.54C158.835 201.024 159.536 200.733 160.266 200.733C160.997 200.733 161.697 201.024 162.214 201.54C162.73 202.057 163.021 202.757 163.021 203.488C163.021 204.218 162.73 204.919 162.214 205.435C161.697 205.952 160.997 206.242 160.266 206.242Z" fill="#3749A9"/>
<path d="M213.339 149.577C212.609 149.577 211.908 149.287 211.392 148.77C210.875 148.254 210.585 147.553 210.585 146.823C210.585 146.092 210.875 145.392 211.392 144.875C211.908 144.359 212.609 144.068 213.339 144.068C214.07 144.068 214.771 144.359 215.287 144.875C215.804 145.392 216.094 146.092 216.094 146.823C216.094 147.553 215.804 148.254 215.287 148.77C214.771 149.287 214.07 149.577 213.339 149.577Z" fill="#3749A9"/>
<path d="M15.7962 70.3613C15.0657 70.3613 14.3651 70.0711 13.8486 69.5545C13.3321 69.038 13.0419 68.3374 13.0419 67.6069C13.0419 66.8764 13.3321 66.1758 13.8486 65.6593C14.3651 65.1427 15.0657 64.8525 15.7962 64.8525C16.5267 64.8525 17.2273 65.1427 17.7439 65.6593C18.2604 66.1758 18.5506 66.8764 18.5506 67.6069C18.5506 68.3374 18.2604 69.038 17.7439 69.5545C17.2273 70.0711 16.5267 70.3613 15.7962 70.3613Z" fill="#3749A9"/>
<path d="M2.75437 105.071C2.02386 105.071 1.32328 104.781 0.806735 104.264C0.290191 103.748 0 103.047 0 102.317C0 101.586 0.290191 100.886 0.806735 100.369C1.32328 99.8527 2.02386 99.5625 2.75437 99.5625C3.48487 99.5625 4.18545 99.8527 4.702 100.369C5.21854 100.886 5.50873 101.586 5.50873 102.317C5.50873 103.047 5.21854 103.748 4.702 104.264C4.18545 104.781 3.48487 105.071 2.75437 105.071Z" fill="#3749A9"/>
<path d="M107.428 5.50873C106.698 5.50873 105.997 5.21854 105.481 4.702C104.964 4.18545 104.674 3.48487 104.674 2.75437C104.674 2.02386 104.964 1.32328 105.481 0.806735C105.997 0.290191 106.698 0 107.428 0C108.159 0 108.859 0.290191 109.376 0.806735C109.892 1.32328 110.183 2.02386 110.183 2.75437C110.183 3.48487 109.892 4.18545 109.376 4.702C108.859 5.21854 108.159 5.50873 107.428 5.50873Z" fill="#3749A9"/>
<path d="M171.084 24.4794C170.353 24.4794 169.653 24.1892 169.136 23.6727C168.62 23.1562 168.33 22.4556 168.33 21.7251C168.33 20.9946 168.62 20.294 169.136 19.7774C169.653 19.2609 170.353 18.9707 171.084 18.9707C171.814 18.9707 172.515 19.2609 173.032 19.7774C173.548 20.294 173.838 20.9946 173.838 21.7251C173.838 22.4556 173.548 23.1562 173.032 23.6727C172.515 24.1892 171.814 24.4794 171.084 24.4794Z" fill="#3749A9"/>
<path d="M9.53024 74.1503C8.79974 74.1503 8.09916 73.8601 7.58261 73.3436C7.06607 72.8271 6.77588 72.1265 6.77588 71.396C6.77588 70.6655 7.06607 69.9649 7.58261 69.4483C8.09916 68.9318 8.79974 68.6416 9.53024 68.6416C10.2607 68.6416 10.9613 68.9318 11.4779 69.4483C11.9944 69.9649 12.2846 70.6655 12.2846 71.396C12.2846 72.1265 11.9944 72.8271 11.4779 73.3436C10.9613 73.8601 10.2607 74.1503 9.53024 74.1503Z" fill="#3749A9"/>
<path d="M216.744 134.705C216.013 134.705 215.313 134.415 214.796 133.898C214.28 133.382 213.99 132.681 213.99 131.951C213.99 131.22 214.28 130.52 214.796 130.003C215.313 129.486 216.013 129.196 216.744 129.196C217.474 129.196 218.175 129.486 218.692 130.003C219.208 130.52 219.498 131.22 219.498 131.951C219.498 132.681 219.208 133.382 218.692 133.898C218.175 134.415 217.474 134.705 216.744 134.705Z" fill="#3749A9"/>
<path d="M136.018 215.967C135.288 215.967 134.587 215.677 134.071 215.16C133.554 214.643 133.264 213.943 133.264 213.212C133.264 212.482 133.554 211.781 134.071 211.265C134.587 210.748 135.288 210.458 136.018 210.458C136.749 210.458 137.45 210.748 137.966 211.265C138.483 211.781 138.773 212.482 138.773 213.212C138.773 213.943 138.483 214.643 137.966 215.16C137.45 215.677 136.749 215.967 136.018 215.967Z" fill="#3749A9"/>
<path d="M81.2279 10.707C80.4974 10.707 79.7968 10.4168 79.2802 9.90024C78.7637 9.38369 78.4735 8.68311 78.4735 7.95261C78.4735 7.2221 78.7637 6.52152 79.2802 6.00498C79.7968 5.48843 80.4974 5.19824 81.2279 5.19824C81.9584 5.19824 82.659 5.48843 83.1755 6.00498C83.6921 6.52152 83.9822 7.2221 83.9822 7.95261C83.9822 8.68311 83.6921 9.38369 83.1755 9.90024C82.659 10.4168 81.9584 10.707 81.2279 10.707Z" fill="#3749A9"/>
<path d="M208.882 68.4492C208.151 68.4492 207.451 68.159 206.934 67.6424C206.418 67.1259 206.127 66.4253 206.127 65.6948C206.127 64.9643 206.418 64.2637 206.934 63.7472C207.451 63.2306 208.151 62.9404 208.882 62.9404C209.612 62.9404 210.313 63.2306 210.829 63.7472C211.346 64.2637 211.636 64.9643 211.636 65.6948C211.636 66.4253 211.346 67.1259 210.829 67.6424C210.313 68.159 209.612 68.4492 208.882 68.4492Z" fill="#3749A9"/>
<path d="M73.9806 11.7558C73.2501 11.7558 72.5495 11.4656 72.0329 10.9491C71.5164 10.4325 71.2262 9.73194 71.2262 9.00144C71.2262 8.27093 71.5164 7.57035 72.0329 7.05381C72.5495 6.53726 73.2501 6.24707 73.9806 6.24707C74.7111 6.24707 75.4116 6.53726 75.9282 7.05381C76.4447 7.57035 76.7349 8.27093 76.7349 9.00144C76.7349 9.73194 76.4447 10.4325 75.9282 10.9491C75.4116 11.4656 74.7111 11.7558 73.9806 11.7558Z" fill="#3749A9"/>
<path d="M219.763 95.79C219.033 95.79 218.332 95.4998 217.816 94.9832C217.299 94.4667 217.009 93.7661 217.009 93.0356C217.009 92.3051 217.299 91.6045 217.816 91.088C218.332 90.5714 219.033 90.2812 219.763 90.2812C220.494 90.2812 221.194 90.5714 221.711 91.088C222.228 91.6045 222.518 92.3051 222.518 93.0356C222.518 93.7661 222.228 94.4667 221.711 94.9832C221.194 95.4998 220.494 95.79 219.763 95.79Z" fill="#3749A9"/>
<path d="M167.48 204.982C166.749 204.982 166.049 204.692 165.532 204.176C165.016 203.659 164.726 202.959 164.726 202.228C164.726 201.497 165.016 200.797 165.532 200.28C166.049 199.764 166.749 199.474 167.48 199.474C168.21 199.474 168.911 199.764 169.428 200.28C169.944 200.797 170.234 201.497 170.234 202.228C170.234 202.959 169.944 203.659 169.428 204.176C168.911 204.692 168.21 204.982 167.48 204.982Z" fill="#3749A9"/>
<path d="M89.8187 217.837C89.0882 217.837 88.3876 217.547 87.8711 217.03C87.3545 216.514 87.0643 215.813 87.0643 215.082C87.0643 214.352 87.3545 213.651 87.8711 213.135C88.3876 212.618 89.0882 212.328 89.8187 212.328C90.5492 212.328 91.2498 212.618 91.7663 213.135C92.2829 213.651 92.5731 214.352 92.5731 215.082C92.5731 215.813 92.2829 216.514 91.7663 217.03C91.2498 217.547 90.5492 217.837 89.8187 217.837Z" fill="#3749A9"/>
<path d="M184.299 191.107C183.568 191.107 182.868 190.817 182.351 190.301C181.835 189.784 181.544 189.084 181.544 188.353C181.544 187.622 181.835 186.922 182.351 186.405C182.868 185.889 183.568 185.599 184.299 185.599C185.029 185.599 185.73 185.889 186.246 186.405C186.763 186.922 187.053 187.622 187.053 188.353C187.053 189.084 186.763 189.784 186.246 190.301C185.73 190.817 185.029 191.107 184.299 191.107Z" fill="#3749A9"/>
<path d="M181.257 197.768C180.527 197.768 179.826 197.478 179.309 196.962C178.793 196.445 178.503 195.745 178.503 195.014C178.503 194.284 178.793 193.583 179.309 193.067C179.826 192.55 180.527 192.26 181.257 192.26C181.988 192.26 182.688 192.55 183.205 193.067C183.721 193.583 184.011 194.284 184.011 195.014C184.011 195.745 183.721 196.445 183.205 196.962C182.688 197.478 181.988 197.768 181.257 197.768Z" fill="#3749A9"/>
</svg>
