<svg width="320" height="408" viewBox="0 0 320 408" fill="none" xmlns="http://www.w3.org/2000/svg">
<path opacity="0.3" d="M157.21 281.173C164.443 281.173 170.306 275.31 170.306 268.077C170.306 260.845 164.443 254.982 157.21 254.982C149.978 254.982 144.115 260.845 144.115 268.077C144.115 275.31 149.978 281.173 157.21 281.173Z" fill="#3749A9"/>
<path opacity="0.3" d="M184.803 277.337C189.917 277.337 194.063 273.192 194.063 268.077C194.063 262.963 189.917 258.817 184.803 258.817C179.689 258.817 175.543 262.963 175.543 268.077C175.543 273.192 179.689 277.337 184.803 277.337Z" fill="#3749A9"/>
<path opacity="0.3" d="M174.576 298.78C179.69 298.78 183.836 294.634 183.836 289.52C183.836 284.406 179.69 280.26 174.576 280.26C169.462 280.26 165.316 284.406 165.316 289.52C165.316 294.634 169.462 298.78 174.576 298.78Z" fill="#3749A9"/>
<path opacity="0.3" d="M173.848 254.04C182.706 254.04 189.887 246.859 189.887 238.001C189.887 229.143 182.706 221.963 173.848 221.963C164.99 221.963 157.81 229.143 157.81 238.001C157.81 246.859 164.99 254.04 173.848 254.04Z" fill="#3749A9"/>
<path opacity="0.3" d="M201.428 260.367C206.543 260.367 210.688 256.221 210.688 251.107C210.688 245.993 206.543 241.847 201.428 241.847C196.314 241.847 192.168 245.993 192.168 251.107C192.168 256.221 196.314 260.367 201.428 260.367Z" fill="#3749A9"/>
<path opacity="0.3" d="M148.399 311.341C155.631 311.341 161.494 305.477 161.494 298.245C161.494 291.012 155.631 285.149 148.399 285.149C141.166 285.149 135.303 291.012 135.303 298.245C135.303 305.477 141.166 311.341 148.399 311.341Z" fill="#3749A9"/>
<path opacity="0.3" d="M143.89 253.173C149.005 253.173 153.15 249.027 153.15 243.913C153.15 238.799 149.005 234.653 143.89 234.653C138.776 234.653 134.63 238.799 134.63 243.913C134.63 249.027 138.776 253.173 143.89 253.173Z" fill="#3749A9"/>
<path opacity="0.3" d="M198.26 296.916C203.374 296.916 207.52 292.77 207.52 287.656C207.52 282.542 203.374 278.396 198.26 278.396C193.145 278.396 189 282.542 189 287.656C189 292.77 193.145 296.916 198.26 296.916Z" fill="#3749A9"/>
<path opacity="0.3" d="M120.808 292.335C131.036 292.335 139.328 284.044 139.328 273.815C139.328 263.587 131.036 255.295 120.808 255.295C110.579 255.295 102.288 263.587 102.288 273.815C102.288 284.044 110.579 292.335 120.808 292.335Z" fill="#3749A9"/>
<path opacity="0.3" d="M120.338 250.062C125.452 250.062 129.598 245.916 129.598 240.802C129.598 235.687 125.452 231.542 120.338 231.542C115.224 231.542 111.078 235.687 111.078 240.802C111.078 245.916 115.224 250.062 120.338 250.062Z" fill="#3749A9"/>
<path opacity="0.3" d="M246.57 309.297C266.377 309.297 282.434 293.24 282.434 273.433C282.434 253.626 266.377 237.569 246.57 237.569C226.763 237.569 210.706 253.626 210.706 273.433C210.706 293.24 226.763 309.297 246.57 309.297Z" fill="#3749A9"/>
<path opacity="0.3" d="M171.654 322.357C176.768 322.357 180.914 318.211 180.914 313.097C180.914 307.982 176.768 303.837 171.654 303.837C166.539 303.837 162.394 307.982 162.394 313.097C162.394 318.211 166.539 322.357 171.654 322.357Z" fill="#3749A9"/>
<path opacity="0.3" d="M195.337 320.492C200.451 320.492 204.597 316.346 204.597 311.232C204.597 306.118 200.451 301.972 195.337 301.972C190.223 301.972 186.077 306.118 186.077 311.232C186.077 316.346 190.223 320.492 195.337 320.492Z" fill="#3749A9"/>
<path opacity="0.3" d="M143.773 229.416C155.209 229.416 164.479 220.146 164.479 208.71C164.479 197.275 155.209 188.004 143.773 188.004C132.338 188.004 123.067 197.275 123.067 208.71C123.067 220.146 132.338 229.416 143.773 229.416Z" fill="#3749A9"/>
<path opacity="0.3" d="M202.475 236.634C207.589 236.634 211.735 232.488 211.735 227.374C211.735 222.259 207.589 218.114 202.475 218.114C197.361 218.114 193.215 222.259 193.215 227.374C193.215 232.488 197.361 236.634 202.475 236.634Z" fill="#3749A9"/>
<path opacity="0.3" d="M122.168 316.064C127.282 316.064 131.428 311.918 131.428 306.804C131.428 301.69 127.282 297.544 122.168 297.544C117.054 297.544 112.908 301.69 112.908 306.804C112.908 311.918 117.054 316.064 122.168 316.064Z" fill="#3749A9"/>
<path opacity="0.3" d="M151.493 334.923C156.607 334.923 160.753 330.778 160.753 325.663C160.753 320.549 156.607 316.403 151.493 316.403C146.379 316.403 142.233 320.549 142.233 325.663C142.233 330.778 146.379 334.923 151.493 334.923Z" fill="#3749A9"/>
<path opacity="0.3" d="M218.726 324.656C223.84 324.656 227.986 320.511 227.986 315.396C227.986 310.282 223.84 306.136 218.726 306.136C213.612 306.136 209.466 310.282 209.466 315.396C209.466 320.511 213.612 324.656 218.726 324.656Z" fill="#3749A9"/>
<path opacity="0.3" d="M186.194 219.333C191.308 219.333 195.454 215.187 195.454 210.073C195.454 204.958 191.308 200.813 186.194 200.813C181.08 200.813 176.934 204.958 176.934 210.073C176.934 215.187 181.08 219.333 186.194 219.333Z" fill="#3749A9"/>
<path opacity="0.3" d="M226.232 236.622C231.346 236.622 235.492 232.476 235.492 227.362C235.492 222.248 231.346 218.102 226.232 218.102C221.118 218.102 216.972 222.248 216.972 227.362C216.972 232.476 221.118 236.622 226.232 236.622Z" fill="#3749A9"/>
<path opacity="0.3" d="M173.562 199.212C178.676 199.212 182.822 195.066 182.822 189.952C182.822 184.838 178.676 180.692 173.562 180.692C168.448 180.692 164.302 184.838 164.302 189.952C164.302 195.066 168.448 199.212 173.562 199.212Z" fill="#3749A9"/>
<path opacity="0.3" d="M110.206 228.574C115.32 228.574 119.466 224.428 119.466 219.314C119.466 214.2 115.32 210.054 110.206 210.054C105.092 210.054 100.946 214.2 100.946 219.314C100.946 224.428 105.092 228.574 110.206 228.574Z" fill="#3749A9"/>
<path opacity="0.3" d="M185.11 341.935C190.224 341.935 194.37 337.789 194.37 332.675C194.37 327.561 190.224 323.415 185.11 323.415C179.996 323.415 175.85 327.561 175.85 332.675C175.85 337.789 179.996 341.935 185.11 341.935Z" fill="#3749A9"/>
<path opacity="0.3" d="M128.1 339.068C133.215 339.068 137.36 334.922 137.36 329.808C137.36 324.694 133.215 320.548 128.1 320.548C122.986 320.548 118.84 324.694 118.84 329.808C118.84 334.922 122.986 339.068 128.1 339.068Z" fill="#3749A9"/>
<path opacity="0.3" d="M85.6215 267.339C97.0572 267.339 106.328 258.068 106.328 246.633C106.328 235.197 97.0572 225.927 85.6215 225.927C74.1859 225.927 64.9155 235.197 64.9155 246.633C64.9155 258.068 74.1859 267.339 85.6215 267.339Z" fill="#3749A9"/>
<path opacity="0.3" d="M164.949 354.502C170.063 354.502 174.209 350.356 174.209 345.242C174.209 340.128 170.063 335.982 164.949 335.982C159.835 335.982 155.689 340.128 155.689 345.242C155.689 350.356 159.835 354.502 164.949 354.502Z" fill="#3749A9"/>
<path opacity="0.3" d="M70.6489 345.212C91.1056 345.212 107.689 328.629 107.689 308.172C107.689 287.715 91.1056 271.132 70.6489 271.132C50.1923 271.132 33.6089 287.715 33.6089 308.172C33.6089 328.629 50.1923 345.212 70.6489 345.212Z" fill="#3749A9"/>
<path opacity="0.3" d="M209.318 213.883C214.432 213.883 218.578 209.738 218.578 204.623C218.578 199.509 214.432 195.363 209.318 195.363C204.203 195.363 200.058 199.509 200.058 204.623C200.058 209.738 204.203 213.883 209.318 213.883Z" fill="#3749A9"/>
<path opacity="0.3" d="M208.499 346.099C213.613 346.099 217.759 341.953 217.759 336.839C217.759 331.725 213.613 327.579 208.499 327.579C203.385 327.579 199.239 331.725 199.239 336.839C199.239 341.953 203.385 346.099 208.499 346.099Z" fill="#3749A9"/>
<path opacity="0.3" d="M233.074 213.872C238.189 213.872 242.334 209.726 242.334 204.612C242.334 199.498 238.189 195.352 233.074 195.352C227.96 195.352 223.814 199.498 223.814 204.612C223.814 209.726 227.96 213.872 233.074 213.872Z" fill="#3749A9"/>
<path opacity="0.3" d="M52.9602 269.026C58.0744 269.026 62.2202 264.88 62.2202 259.766C62.2202 254.651 58.0744 250.506 52.9602 250.506C47.846 250.506 43.7002 254.651 43.7002 259.766C43.7002 264.88 47.846 269.026 52.9602 269.026Z" fill="#3749A9"/>
<path opacity="0.3" d="M87.7722 220.755C92.8864 220.755 97.0322 216.61 97.0322 211.495C97.0322 206.381 92.8864 202.235 87.7722 202.235C82.6581 202.235 78.5122 206.381 78.5122 211.495C78.5122 216.61 82.6581 220.755 87.7722 220.755Z" fill="#3749A9"/>
<path opacity="0.3" d="M141.556 358.647C146.671 358.647 150.816 354.501 150.816 349.387C150.816 344.272 146.671 340.127 141.556 340.127C136.442 340.127 132.296 344.272 132.296 349.387C132.296 354.501 136.442 358.647 141.556 358.647Z" fill="#3749A9"/>
<path opacity="0.3" d="M108.467 352.444C113.581 352.444 117.727 348.298 117.727 343.184C117.727 338.07 113.581 333.924 108.467 333.924C103.352 333.924 99.2065 338.07 99.2065 343.184C99.2065 348.298 103.352 352.444 108.467 352.444Z" fill="#3749A9"/>
<path opacity="0.3" d="M201.603 191.041C211.831 191.041 220.123 182.749 220.123 172.521C220.123 162.292 211.831 154 201.603 154C191.374 154 183.083 162.292 183.083 172.521C183.083 182.749 191.374 191.041 201.603 191.041Z" fill="#3749A9"/>
<path opacity="0.3" d="M241.061 332.752C246.175 332.752 250.321 328.606 250.321 323.492C250.321 318.377 246.175 314.232 241.061 314.232C235.947 314.232 231.801 318.377 231.801 323.492C231.801 328.606 235.947 332.752 241.061 332.752Z" fill="#3749A9"/>
<path opacity="0.3" d="M249.615 232.425C254.729 232.425 258.875 228.279 258.875 223.165C258.875 218.05 254.729 213.905 249.615 213.905C244.501 213.905 240.355 218.05 240.355 223.165C240.355 228.279 244.501 232.425 249.615 232.425Z" fill="#3749A9"/>
<path opacity="0.3" d="M111.114 204.834C116.228 204.834 120.374 200.689 120.374 195.574C120.374 190.46 116.228 186.314 111.114 186.314C105.999 186.314 101.854 190.46 101.854 195.574C101.854 200.689 105.999 204.834 111.114 204.834Z" fill="#3749A9"/>
<path opacity="0.3" d="M191.903 388.591C203.339 388.591 212.609 379.32 212.609 367.885C212.609 356.449 203.339 347.179 191.903 347.179C180.468 347.179 171.197 356.449 171.197 367.885C171.197 379.32 180.468 388.591 191.903 388.591Z" fill="#3749A9"/>
<path d="M145.632 182.794C167.329 182.794 184.919 165.205 184.919 143.507C184.919 121.809 167.329 104.22 145.632 104.22C123.934 104.22 106.345 121.809 106.345 143.507C106.345 165.205 123.934 182.794 145.632 182.794Z" fill="#3749A9"/>
<path opacity="0.3" d="M230.834 354.194C235.948 354.194 240.094 350.048 240.094 344.934C240.094 339.82 235.948 335.674 230.834 335.674C225.72 335.674 221.574 339.82 221.574 344.934C221.574 350.048 225.72 354.194 230.834 354.194Z" fill="#3749A9"/>
<path opacity="0.3" d="M121.923 372.023C127.037 372.023 131.183 367.877 131.183 362.763C131.183 357.648 127.037 353.503 121.923 353.503C116.809 353.503 112.663 357.648 112.663 362.763C112.663 367.877 116.809 372.023 121.923 372.023Z" fill="#3749A9"/>
<path opacity="0.3" d="M259.733 210.59C266.965 210.59 272.828 204.727 272.828 197.494C272.828 190.262 266.965 184.398 259.733 184.398C252.5 184.398 246.637 190.262 246.637 197.494C246.637 204.727 252.5 210.59 259.733 210.59Z" fill="#3749A9"/>
<path opacity="0.3" d="M156.701 376.95C161.815 376.95 165.961 372.805 165.961 367.69C165.961 362.576 161.815 358.43 156.701 358.43C151.587 358.43 147.441 362.576 147.441 367.69C147.441 372.805 151.587 376.95 156.701 376.95Z" fill="#3749A9"/>
<path opacity="0.3" d="M233.549 190.12C238.663 190.12 242.809 185.974 242.809 180.86C242.809 175.745 238.663 171.6 233.549 171.6C228.435 171.6 224.289 175.745 224.289 180.86C224.289 185.974 228.435 190.12 233.549 190.12Z" fill="#3749A9"/>
<path opacity="0.3" d="M92.0442 187.764C100.902 187.764 108.083 180.583 108.083 171.725C108.083 162.867 100.902 155.686 92.0442 155.686C83.1862 155.686 76.0054 162.867 76.0054 171.725C76.0054 180.583 83.1862 187.764 92.0442 187.764Z" fill="#3749A9"/>
<path d="M196.6 286.712L197.896 286.352V291H198.832V285.312L196.6 285.816V286.712Z" fill="#F7FAFC"/>
<path d="M173.6 288.712L174.896 288.352V293H175.832V287.312L173.6 287.816V288.712Z" fill="#F7FAFC"/>
<path d="M163.6 343.712L164.896 343.352V348H165.832V342.312L163.6 342.816V343.712Z" fill="#F7FAFC"/>
<path d="M154.6 366.712L155.896 366.352V371H156.832V365.312L154.6 365.816V366.712Z" fill="#F7FAFC"/>
<path d="M183.6 331.712L184.896 331.352V336H185.832V330.312L183.6 330.816V331.712Z" fill="#F7FAFC"/>
<path d="M229.6 343.712L230.896 343.352V348H231.832V342.312L229.6 342.816V343.712Z" fill="#F7FAFC"/>
<path d="M206.6 335.712L207.896 335.352V340H208.832V334.312L206.6 334.816V335.712Z" fill="#F7FAFC"/>
<path d="M216.6 314.712L217.896 314.352V319H218.832V313.312L216.6 313.816V314.712Z" fill="#F7FAFC"/>
<path d="M239.6 322.712L240.896 322.352V327H241.832V321.312L239.6 321.816V322.712Z" fill="#F7FAFC"/>
<path d="M193.6 309.712L194.896 309.352V314H195.832V308.312L193.6 308.816V309.712Z" fill="#F7FAFC"/>
<path d="M169.6 311.712L170.896 311.352V316H171.832V310.312L169.6 310.816V311.712Z" fill="#F7FAFC"/>
<path d="M145.22 302H151.094V300.79H147.761L149.939 298.645C150.566 298.051 150.995 297.281 150.995 296.478C150.995 295.455 150.148 294.168 148.366 294.168C146.606 294.168 145.638 295.389 145.638 297.028H146.925C146.925 295.994 147.464 295.334 148.344 295.334C149.191 295.334 149.653 295.939 149.653 296.544C149.653 297.16 149.323 297.666 148.773 298.249L145.22 302Z" fill="#F7FAFC"/>
<path d="M153.22 272H159.094V270.79H155.761L157.939 268.645C158.566 268.051 158.995 267.281 158.995 266.478C158.995 265.455 158.148 264.168 156.366 264.168C154.606 264.168 153.638 265.389 153.638 267.028H154.925C154.925 265.994 155.464 265.334 156.344 265.334C157.191 265.334 157.653 265.939 157.653 266.544C157.653 267.16 157.323 267.666 156.773 268.249L153.22 272Z" fill="#F7FAFC"/>
<path d="M173.267 242.132C174.851 242.132 175.907 241.263 175.907 239.943C175.907 238.898 175.291 238.26 174.367 237.963C175.17 237.644 175.687 237.039 175.687 236.258C175.687 235.125 174.807 234.179 173.322 234.179C171.903 234.179 170.935 235.081 170.935 236.346H172.156C172.156 235.73 172.673 235.279 173.333 235.279C174.026 235.279 174.378 235.708 174.378 236.324C174.378 236.984 173.817 237.534 172.882 237.534V238.513C173.927 238.513 174.598 238.975 174.598 239.8C174.598 240.57 174.07 241.01 173.289 241.01C172.508 241.01 171.914 240.537 171.914 239.8H170.605C170.605 241.065 171.628 242.132 173.267 242.132Z" fill="#F7FAFC"/>
<path d="M117.198 276.526H120.993V278H122.324V276.526H123.534V275.404H122.324V270.3H121.543L117.198 276.526ZM119.101 275.503L121.07 272.621V275.503H119.101Z" fill="#F7FAFC"/>
<path d="M198.198 175.526H201.993V177H203.324V175.526H204.534V174.404H203.324V169.3H202.543L198.198 175.526ZM200.101 174.503L202.07 171.621V174.503H200.101Z" fill="#F7FAFC"/>
<path d="M146.116 210.492C146.116 208.941 145.082 207.929 143.806 207.929C143.377 207.929 142.97 208.017 142.585 208.204L143.069 206.444H146.05V205.3H142.09L141.045 209.535C141.826 209.051 142.409 208.93 143.091 208.93C143.982 208.93 144.73 209.48 144.73 210.415C144.73 211.35 144.125 211.911 143.091 211.911C142.354 211.911 141.595 211.427 141.144 210.822L140.385 211.757C140.979 212.505 141.848 213.121 143.267 213.121C144.752 213.121 146.116 212.263 146.116 210.492Z" fill="#F7FAFC"/>
<path d="M194.116 370.492C194.116 368.941 193.082 367.929 191.806 367.929C191.377 367.929 190.97 368.017 190.585 368.204L191.069 366.444H194.05V365.3H190.09L189.045 369.535C189.826 369.051 190.409 368.93 191.091 368.93C191.982 368.93 192.73 369.48 192.73 370.415C192.73 371.35 192.125 371.911 191.091 371.911C190.354 371.911 189.595 371.427 189.144 370.822L188.385 371.757C188.979 372.505 189.848 373.121 191.267 373.121C192.752 373.121 194.116 372.263 194.116 370.492Z" fill="#F7FAFC"/>
<path d="M241.825 271.104L243.607 270.609V277H244.894V269.179L241.825 269.872V271.104ZM252.315 274.492C252.315 272.941 251.281 271.929 250.005 271.929C249.576 271.929 249.169 272.017 248.784 272.204L249.268 270.444H252.249V269.3H248.289L247.244 273.535C248.025 273.051 248.608 272.93 249.29 272.93C250.181 272.93 250.929 273.48 250.929 274.415C250.929 275.35 250.324 275.911 249.29 275.911C248.553 275.911 247.794 275.427 247.343 274.822L246.584 275.757C247.178 276.505 248.047 277.121 249.466 277.121C250.951 277.121 252.315 276.263 252.315 274.492Z" fill="#F7FAFC"/>
<path d="M64.825 305.104L66.607 304.609V311H67.894V303.179L64.825 303.872V305.104ZM72.8402 303.311L70.3982 306.589C70.0132 307.084 69.7492 307.689 69.7492 308.404C69.7492 310.109 70.9922 311.132 72.5762 311.132C74.1602 311.132 75.4032 310.109 75.4032 308.404C75.4032 306.93 74.2922 305.907 73.0822 305.907C72.7632 305.907 72.5102 305.94 72.2792 306.05L74.4902 303.311H72.8402ZM71.0142 308.404C71.0142 307.458 71.6852 306.787 72.5762 306.787C73.4672 306.787 74.1272 307.458 74.1272 308.404C74.1272 309.35 73.4672 309.999 72.5762 309.999C71.6852 309.999 71.0142 309.35 71.0142 308.404Z" fill="#F7FAFC"/>
<path d="M140.825 142.104L142.607 141.609V148H143.894V140.179L140.825 140.872V142.104ZM145.793 145.91C145.793 147.197 146.948 148.132 148.378 148.132C149.808 148.132 150.974 147.197 150.974 145.91C150.974 144.887 150.358 144.227 149.566 143.908C150.237 143.6 150.699 143.006 150.699 142.159C150.699 140.982 149.676 140.168 148.378 140.168C147.08 140.168 146.068 140.982 146.068 142.159C146.068 143.006 146.519 143.6 147.19 143.908C146.409 144.227 145.793 144.887 145.793 145.91ZM147.3 142.291C147.3 141.653 147.751 141.191 148.378 141.191C149.005 141.191 149.456 141.653 149.456 142.291C149.456 142.929 148.972 143.38 148.378 143.38C147.784 143.38 147.3 142.929 147.3 142.291ZM147.069 145.734C147.069 145.008 147.696 144.436 148.378 144.436C149.06 144.436 149.698 145.008 149.698 145.734C149.698 146.57 149.06 147.043 148.378 147.043C147.696 147.043 147.069 146.57 147.069 145.734Z" fill="#F7FAFC"/>
<path d="M87.116 248.492C87.116 246.941 86.082 245.929 84.806 245.929C84.377 245.929 83.97 246.017 83.585 246.204L84.069 244.444H87.05V243.3H83.09L82.045 247.535C82.826 247.051 83.409 246.93 84.091 246.93C84.982 246.93 85.73 247.48 85.73 248.415C85.73 249.35 85.125 249.911 84.091 249.911C83.354 249.911 82.595 249.427 82.144 248.822L81.385 249.757C81.979 250.505 82.848 251.121 84.267 251.121C85.752 251.121 87.116 250.263 87.116 248.492Z" fill="#F7FAFC"/>
<path d="M256.22 201H262.094V199.79H258.761L260.939 197.645C261.566 197.051 261.995 196.281 261.995 195.478C261.995 194.455 261.148 193.168 259.366 193.168C257.606 193.168 256.638 194.389 256.638 196.028H257.925C257.925 194.994 258.464 194.334 259.344 194.334C260.191 194.334 260.653 194.939 260.653 195.544C260.653 196.16 260.323 196.666 259.773 197.249L256.22 201Z" fill="#F7FAFC"/>
<path d="M88.22 176H94.094V174.79H90.761L92.939 172.645C93.566 172.051 93.995 171.281 93.995 170.478C93.995 169.455 93.148 168.168 91.366 168.168C89.606 168.168 88.638 169.389 88.638 171.028H89.925C89.925 169.994 90.464 169.334 91.344 169.334C92.191 169.334 92.653 169.939 92.653 170.544C92.653 171.16 92.323 171.666 91.773 172.249L88.22 176Z" fill="#F7FAFC"/>
<path d="M149.6 323.712L150.896 323.352V328H151.832V322.312L149.6 322.816V323.712Z" fill="#F7FAFC"/>
<path d="M139.6 347.712L140.896 347.352V352H141.832V346.312L139.6 346.816V347.712Z" fill="#F7FAFC"/>
<path d="M120.6 361.712L121.896 361.352V366H122.832V360.312L120.6 360.816V361.712Z" fill="#F7FAFC"/>
<path d="M126.6 328.712L127.896 328.352V333H128.832V327.312L126.6 327.816V328.712Z" fill="#F7FAFC"/>
<path d="M106.6 341.712L107.896 341.352V346H108.832V340.312L106.6 340.816V341.712Z" fill="#F7FAFC"/>
<path d="M120.6 305.712L121.896 305.352V310H122.832V304.312L120.6 304.816V305.712Z" fill="#F7FAFC"/>
<path d="M142.6 242.712L143.896 242.352V247H144.832V241.312L142.6 241.816V242.712Z" fill="#F7FAFC"/>
<path d="M118.6 239.712L119.896 239.352V244H120.832V238.312L118.6 238.816V239.712Z" fill="#F7FAFC"/>
<path d="M108.6 217.712L109.896 217.352V222H110.832V216.312L108.6 216.816V217.712Z" fill="#F7FAFC"/>
<path d="M85.6 209.712L86.896 209.352V214H87.832V208.312L85.6 208.816V209.712Z" fill="#F7FAFC"/>
<path d="M50.6 258.712L51.896 258.352V263H52.832V257.312L50.6 257.816V258.712Z" fill="#F7FAFC"/>
<path d="M184.6 208.712L185.896 208.352V213H186.832V207.312L184.6 207.816V208.712Z" fill="#F7FAFC"/>
<path d="M200.6 226.712L201.896 226.352V231H202.832V225.312L200.6 225.816V226.712Z" fill="#F7FAFC"/>
<path d="M224.6 225.712L225.896 225.352V230H226.832V224.312L224.6 224.816V225.712Z" fill="#F7FAFC"/>
<path d="M248.6 221.712L249.896 221.352V226H250.832V220.312L248.6 220.816V221.712Z" fill="#F7FAFC"/>
<path d="M231.6 203.712L232.896 203.352V208H233.832V202.312L231.6 202.816V203.712Z" fill="#F7FAFC"/>
<path d="M207.6 203.712L208.896 203.352V208H209.832V202.312L207.6 202.816V203.712Z" fill="#F7FAFC"/>
<path d="M231.6 179.712L232.896 179.352V184H233.832V178.312L231.6 178.816V179.712Z" fill="#F7FAFC"/>
<path d="M171.6 188.712L172.896 188.352V193H173.832V187.312L171.6 187.816V188.712Z" fill="#F7FAFC"/>
<path d="M199.6 249.712L200.896 249.352V254H201.832V248.312L199.6 248.816V249.712Z" fill="#F7FAFC"/>
<path d="M109.6 193.712L110.896 193.352V198H111.832V192.312L109.6 192.816V193.712Z" fill="#F7FAFC"/>
<path d="M183.6 266.712L184.896 266.352V271H185.832V265.312L183.6 265.816V266.712Z" fill="#F7FAFC"/>
<path d="M210.48 148C212.928 148 214.68 146.308 214.68 143.8C214.68 141.292 212.928 139.6 210.48 139.6H207.96V148H210.48ZM210.48 140.62C212.376 140.62 213.66 141.844 213.66 143.8C213.66 145.756 212.376 146.98 210.48 146.98H208.98V140.62H210.48ZM216.224 143.752C216.476 143.56 217.052 143.2 217.88 143.2C218.564 143.2 219.128 143.416 219.128 144.172V144.976C218.804 144.772 218.288 144.568 217.556 144.568C216.2 144.568 215.396 145.276 215.396 146.344C215.396 147.472 216.284 148.12 217.304 148.12C217.976 148.12 218.768 147.844 219.128 147.256V148H220.088V144.04C220.088 142.972 219.212 142.36 217.928 142.36C216.908 142.36 216.176 142.744 215.756 143.044L216.224 143.752ZM216.368 146.296C216.368 145.696 216.776 145.324 217.712 145.324C218.228 145.324 218.684 145.42 219.128 145.636V145.84C219.128 146.716 218.432 147.292 217.556 147.292C216.848 147.292 216.368 146.932 216.368 146.296ZM220.754 142.48V143.38H221.654V148H222.614V143.38H223.514V142.48H222.614V140.56H221.654V142.48H220.754ZM226.492 148.12C227.668 148.12 228.544 147.652 229.12 146.716L228.34 146.224C227.932 146.896 227.356 147.22 226.612 147.22C225.58 147.22 224.944 146.596 224.86 145.48H229.204C229.204 145.456 229.216 145.312 229.216 145.192C229.216 143.44 228.232 142.36 226.612 142.36C224.98 142.36 223.876 143.524 223.876 145.24C223.876 146.944 224.944 148.12 226.492 148.12ZM226.612 143.2C227.5 143.2 228.1 143.776 228.172 144.664H224.896C225.064 143.728 225.664 143.2 226.612 143.2ZM233.952 144.64V148H234.912V144.52C234.912 143.188 234.18 142.36 233.016 142.36C232.296 142.36 231.744 142.672 231.372 143.344V142.48H230.412V148H231.372V144.64C231.372 143.824 231.936 143.26 232.776 143.26C233.544 143.26 233.952 143.728 233.952 144.64ZM235.757 142.48V143.38H236.657V148H237.617V143.38H238.517V142.48H237.617V140.56H236.657V142.48H235.757ZM243.74 142.48H242.66L241.148 146.284L239.6 142.48H238.46L240.572 147.22L239.06 150.64H240.14L243.74 142.48ZM245.425 150.64V147.052C245.833 147.736 246.493 148.12 247.309 148.12C248.809 148.12 250.045 147.028 250.045 145.24C250.045 143.452 248.809 142.36 247.309 142.36C246.493 142.36 245.833 142.744 245.425 143.428V142.48H244.465V150.64H245.425ZM249.073 145.24C249.073 146.512 248.209 147.22 247.189 147.22C246.349 147.22 245.425 146.512 245.425 145.24C245.425 143.968 246.349 143.26 247.189 143.26C248.209 143.26 249.073 143.968 249.073 145.24Z" fill="#0F1938"/>
<circle cx="244.5" cy="78.5" r="9" stroke="#3749A9"/>
<path d="M259.5 72.5C259.5 80.7694 252.575 87.5 244 87.5C235.425 87.5 228.5 80.7694 228.5 72.5C228.5 64.2306 235.425 57.5 244 57.5C252.575 57.5 259.5 64.2306 259.5 72.5Z" stroke="#3749A9"/>
<path d="M265.5 65.5C265.5 77.6609 255.864 87.5 244 87.5C232.136 87.5 222.5 77.6609 222.5 65.5C222.5 53.3391 232.136 43.5 244 43.5C255.864 43.5 265.5 53.3391 265.5 65.5Z" stroke="#3749A9"/>
<path d="M272.5 60.5C272.5 75.395 259.981 87.5 244.5 87.5C229.019 87.5 216.5 75.395 216.5 60.5C216.5 45.605 229.019 33.5 244.5 33.5C259.981 33.5 272.5 45.605 272.5 60.5Z" stroke="#3749A9"/>
<circle cx="244" cy="56" r="31.5" stroke="#3749A9"/>
<circle cx="244" cy="52" r="35.5" stroke="#3749A9"/>
<circle cx="244" cy="49" r="38.5" stroke="#3749A9"/>
<path d="M267.469 87.5H296.531" stroke="#0F1938" stroke-linecap="square"/>
<path d="M287 69.5H297" stroke="#0F1938" stroke-linecap="square"/>
<path d="M292.078 43.5H296.922" stroke="#0F1938" stroke-linecap="square"/>
<path d="M292.078 57.5H296.922" stroke="#0F1938" stroke-linecap="square"/>
<path d="M292.078 33.5H296.922" stroke="#0F1938" stroke-linecap="square"/>
<path d="M292.078 24.5H296.922" stroke="#0F1938" stroke-linecap="square"/>
<path d="M287.156 16.5H296.844" stroke="#0F1938" stroke-linecap="square"/>
<path d="M267.469 10.5H296.531" stroke="#0F1938" stroke-linecap="square"/>
<path d="M300.75 4.64L302.37 4.19V10H303.54V2.89L300.75 3.52V4.64ZM305.267 8.1C305.267 9.27 306.317 10.12 307.617 10.12C308.917 10.12 309.977 9.27 309.977 8.1C309.977 7.17 309.417 6.57 308.697 6.28C309.307 6 309.727 5.46 309.727 4.69C309.727 3.62 308.797 2.88 307.617 2.88C306.437 2.88 305.517 3.62 305.517 4.69C305.517 5.46 305.927 6 306.537 6.28C305.827 6.57 305.267 7.17 305.267 8.1ZM306.637 4.81C306.637 4.23 307.047 3.81 307.617 3.81C308.187 3.81 308.597 4.23 308.597 4.81C308.597 5.39 308.157 5.8 307.617 5.8C307.077 5.8 306.637 5.39 306.637 4.81ZM306.427 7.94C306.427 7.28 306.997 6.76 307.617 6.76C308.237 6.76 308.817 7.28 308.817 7.94C308.817 8.7 308.237 9.13 307.617 9.13C306.997 9.13 306.427 8.7 306.427 7.94Z" fill="#0F1938"/>
<path d="M300.75 12.64L302.37 12.19V18H303.54V10.89L300.75 11.52V12.64ZM310.287 15.72C310.287 14.31 309.347 13.39 308.187 13.39C307.797 13.39 307.427 13.47 307.077 13.64L307.517 12.04H310.227V11H306.627L305.677 14.85C306.387 14.41 306.917 14.3 307.537 14.3C308.347 14.3 309.027 14.8 309.027 15.65C309.027 16.5 308.477 17.01 307.537 17.01C306.867 17.01 306.177 16.57 305.767 16.02L305.077 16.87C305.617 17.55 306.407 18.11 307.697 18.11C309.047 18.11 310.287 17.33 310.287 15.72Z" fill="#0F1938"/>
<path d="M300.75 20.64L302.37 20.19V26H303.54V18.89L300.75 19.52V20.64ZM304.927 26H310.267V24.9H307.237L309.217 22.95C309.787 22.41 310.177 21.71 310.177 20.98C310.177 20.05 309.407 18.88 307.787 18.88C306.187 18.88 305.307 19.99 305.307 21.48H306.477C306.477 20.54 306.967 19.94 307.767 19.94C308.537 19.94 308.957 20.49 308.957 21.04C308.957 21.6 308.657 22.06 308.157 22.59L304.927 26Z" fill="#0F1938"/>
<path d="M302.82 34.99L305.04 32.01C305.39 31.56 305.64 31.01 305.64 30.36C305.64 28.81 304.51 27.88 303.07 27.88C301.63 27.88 300.5 28.81 300.5 30.36C300.5 31.7 301.51 32.63 302.61 32.63C302.89 32.63 303.12 32.6 303.32 32.51L301.32 34.99H302.82ZM304.48 30.36C304.48 31.22 303.88 31.83 303.07 31.83C302.26 31.83 301.65 31.22 301.65 30.36C301.65 29.5 302.26 28.91 303.07 28.91C303.88 28.91 304.48 29.5 304.48 30.36Z" fill="#0F1938"/>
<path d="M303.31 38.01L301.09 40.99C300.74 41.44 300.5 41.99 300.5 42.64C300.5 44.19 301.63 45.12 303.07 45.12C304.51 45.12 305.64 44.19 305.64 42.64C305.64 41.3 304.63 40.37 303.53 40.37C303.24 40.37 303.01 40.4 302.8 40.5L304.81 38.01H303.31ZM301.65 42.64C301.65 41.78 302.26 41.17 303.07 41.17C303.88 41.17 304.48 41.78 304.48 42.64C304.48 43.5 303.88 44.09 303.07 44.09C302.26 44.09 301.65 43.5 301.65 42.64Z" fill="#0F1938"/>
<path d="M302.97 58.12C304.41 58.12 305.37 57.33 305.37 56.13C305.37 55.18 304.81 54.6 303.97 54.33C304.7 54.04 305.17 53.49 305.17 52.78C305.17 51.75 304.37 50.89 303.02 50.89C301.73 50.89 300.85 51.71 300.85 52.86H301.96C301.96 52.3 302.43 51.89 303.03 51.89C303.66 51.89 303.98 52.28 303.98 52.84C303.98 53.44 303.47 53.94 302.62 53.94V54.83C303.57 54.83 304.18 55.25 304.18 56C304.18 56.7 303.7 57.1 302.99 57.1C302.28 57.1 301.74 56.67 301.74 56H300.55C300.55 57.15 301.48 58.12 302.97 58.12Z" fill="#0F1938"/>
<path d="M300.75 65.64L302.37 65.19V71H303.54V63.89L300.75 64.52V65.64Z" fill="#0F1938"/>
<path d="M300.4 84.5C300.4 86.67 301.5 88.11 303.12 88.11C304.76 88.11 305.85 86.67 305.85 84.5C305.85 82.33 304.76 80.89 303.12 80.89C301.5 80.89 300.4 82.33 300.4 84.5ZM301.56 84.5C301.56 82.99 302.16 81.95 303.12 81.95C304.08 81.95 304.69 82.99 304.69 84.5C304.69 86.01 304.08 87.05 303.12 87.05C302.16 87.05 301.56 86.01 301.56 84.5Z" fill="#0F1938"/>
<path d="M185 144L205 144" stroke="#0F1938"/>
<path d="M148.5 100.475C152.459 100.16 156.461 100 160.5 100C243.067 100 310 166.933 310 249.5C310 332.067 243.067 399 160.5 399C77.9334 399 11 332.067 11 249.5C11 172.853 68.6793 109.679 143 101.013" stroke="#0F1938"/>
<path d="M146 133L146 82" stroke="#0F1938"/>
<path d="M124.72 19H125.86L121.96 10.18L118.06 19H119.2L120.268 16.48H123.652L124.72 19ZM121.96 12.496L123.244 15.52H120.676L121.96 12.496ZM130.242 15.64V19H131.202V15.52C131.202 14.188 130.47 13.36 129.306 13.36C128.586 13.36 128.034 13.672 127.662 14.344V13.48H126.702V19H127.662V15.64C127.662 14.824 128.226 14.26 129.066 14.26C129.834 14.26 130.242 14.728 130.242 15.64ZM135.587 14.38L132.167 19H137.087V18.1H133.907L137.327 13.48H132.527V14.38H135.587ZM138.574 14.752C138.826 14.56 139.402 14.2 140.23 14.2C140.914 14.2 141.478 14.416 141.478 15.172V15.976C141.154 15.772 140.638 15.568 139.906 15.568C138.55 15.568 137.746 16.276 137.746 17.344C137.746 18.472 138.634 19.12 139.654 19.12C140.326 19.12 141.118 18.844 141.478 18.256V19H142.438V15.04C142.438 13.972 141.562 13.36 140.278 13.36C139.258 13.36 138.526 13.744 138.106 14.044L138.574 14.752ZM138.718 17.296C138.718 16.696 139.126 16.324 140.062 16.324C140.578 16.324 141.034 16.42 141.478 16.636V16.84C141.478 17.716 140.782 18.292 139.906 18.292C139.198 18.292 138.718 17.932 138.718 17.296ZM147.483 15.64V19H148.443V15.52C148.443 14.092 147.687 13.36 146.547 13.36C145.827 13.36 145.239 13.744 144.903 14.356V9.64H143.943V19H144.903V15.64C144.903 14.848 145.467 14.26 146.307 14.26C147.087 14.26 147.483 14.728 147.483 15.64ZM150.128 9.64V19H151.088V9.64H150.128ZM153.65 17.68L152.594 20.788L153.29 21.04L154.61 18.04L153.65 17.68ZM158.983 13.48L161.383 19.42L162.955 15.4L164.623 19.42L167.023 13.48H165.943L164.551 17.092L162.943 13.06L161.443 17.068L160.063 13.48H158.983ZM167.859 11.2C167.859 11.56 168.159 11.86 168.519 11.86C168.879 11.86 169.179 11.56 169.179 11.2C169.179 10.84 168.879 10.54 168.519 10.54C168.159 10.54 167.859 10.84 167.859 11.2ZM168.039 13.48V19H168.999V13.48H168.039ZM172.992 19.12C174.168 19.12 175.044 18.652 175.62 17.716L174.84 17.224C174.432 17.896 173.856 18.22 173.112 18.22C172.08 18.22 171.444 17.596 171.36 16.48H175.704C175.704 16.456 175.716 16.312 175.716 16.192C175.716 14.44 174.732 13.36 173.112 13.36C171.48 13.36 170.376 14.524 170.376 16.24C170.376 17.944 171.444 19.12 172.992 19.12ZM173.112 14.2C174 14.2 174.6 14.776 174.672 15.664H171.396C171.564 14.728 172.164 14.2 173.112 14.2ZM179.91 16.24C179.91 17.908 181.146 19.12 182.766 19.12C184.386 19.12 185.622 17.908 185.622 16.24C185.622 14.572 184.386 13.36 182.766 13.36C181.146 13.36 179.91 14.572 179.91 16.24ZM180.882 16.24C180.882 15.088 181.686 14.26 182.766 14.26C183.846 14.26 184.65 15.088 184.65 16.24C184.65 17.392 183.846 18.22 182.766 18.22C181.686 18.22 180.882 17.392 180.882 16.24ZM186.4 13.48V14.38H186.94V19H187.9V14.38H189.16V13.48H187.9V11.56C187.9 10.768 188.116 10.48 188.476 10.48C188.668 10.48 188.896 10.516 189.064 10.792L189.592 10C189.412 9.76 189.052 9.52 188.536 9.52C187.528 9.52 186.94 10.132 186.94 11.44V13.48H186.4ZM189.294 13.48V14.38H190.194V19H191.154V14.38H192.054V13.48H191.154V11.56H190.194V13.48H189.294ZM118.42 30.24C118.42 32.028 119.656 33.12 121.156 33.12C121.972 33.12 122.632 32.736 123.04 32.052V33H124V23.64H123.04V28.428C122.632 27.744 121.972 27.36 121.156 27.36C119.656 27.36 118.42 28.452 118.42 30.24ZM119.392 30.24C119.392 28.968 120.256 28.26 121.276 28.26C122.116 28.26 123.04 28.968 123.04 30.24C123.04 31.512 122.116 32.22 121.276 32.22C120.256 32.22 119.392 31.512 119.392 30.24ZM125.624 25.2C125.624 25.56 125.924 25.86 126.284 25.86C126.644 25.86 126.944 25.56 126.944 25.2C126.944 24.84 126.644 24.54 126.284 24.54C125.924 24.54 125.624 24.84 125.624 25.2ZM125.804 27.48V33H126.764V27.48H125.804ZM130.757 33.12C131.933 33.12 132.809 32.652 133.385 31.716L132.605 31.224C132.197 31.896 131.621 32.22 130.877 32.22C129.845 32.22 129.209 31.596 129.125 30.48H133.469C133.469 30.456 133.481 30.312 133.481 30.192C133.481 28.44 132.497 27.36 130.877 27.36C129.245 27.36 128.141 28.524 128.141 30.24C128.141 31.944 129.209 33.12 130.757 33.12ZM130.877 28.2C131.765 28.2 132.365 28.776 132.437 29.664H129.161C129.329 28.728 129.929 28.2 130.877 28.2ZM134.905 31.308L134.149 31.776C134.449 32.436 135.253 33.12 136.357 33.12C137.485 33.12 138.253 32.4 138.253 31.44C138.253 30.456 137.473 30.084 136.513 29.688C135.925 29.448 135.361 29.196 135.361 28.752C135.361 28.38 135.697 28.212 136.093 28.212C136.669 28.212 137.137 28.524 137.437 28.932L138.205 28.44C137.869 27.828 137.089 27.36 136.213 27.36C135.313 27.36 134.425 27.828 134.425 28.812C134.425 29.784 135.277 30.192 136.009 30.468C136.645 30.708 137.281 30.972 137.281 31.548C137.281 31.98 136.945 32.244 136.405 32.244C135.721 32.244 135.241 31.824 134.905 31.308ZM141.533 33.12C142.709 33.12 143.585 32.652 144.161 31.716L143.381 31.224C142.973 31.896 142.397 32.22 141.653 32.22C140.621 32.22 139.985 31.596 139.901 30.48H144.245C144.245 30.456 144.257 30.312 144.257 30.192C144.257 28.44 143.273 27.36 141.653 27.36C140.021 27.36 138.917 28.524 138.917 30.24C138.917 31.944 139.985 33.12 141.533 33.12ZM141.653 28.2C142.541 28.2 143.141 28.776 143.213 29.664H139.937C140.105 28.728 140.705 28.2 141.653 28.2ZM148.08 28.536L148.608 27.744C148.32 27.444 147.972 27.36 147.576 27.36C147.156 27.36 146.724 27.648 146.412 28.116V27.48H145.452V33H146.412V29.64C146.412 28.848 146.616 28.26 147.336 28.26C147.648 28.26 147.816 28.344 148.08 28.536ZM155.503 33C157.951 33 159.703 31.308 159.703 28.8C159.703 26.292 157.951 24.6 155.503 24.6H152.983V33H155.503ZM155.503 25.62C157.399 25.62 158.683 26.844 158.683 28.8C158.683 30.756 157.399 31.98 155.503 31.98H154.003V25.62H155.503ZM161.248 28.752C161.5 28.56 162.076 28.2 162.904 28.2C163.588 28.2 164.152 28.416 164.152 29.172V29.976C163.828 29.772 163.312 29.568 162.58 29.568C161.224 29.568 160.42 30.276 160.42 31.344C160.42 32.472 161.308 33.12 162.328 33.12C163 33.12 163.792 32.844 164.152 32.256V33H165.112V29.04C165.112 27.972 164.236 27.36 162.952 27.36C161.932 27.36 161.2 27.744 160.78 28.044L161.248 28.752ZM161.392 31.296C161.392 30.696 161.8 30.324 162.736 30.324C163.252 30.324 163.708 30.42 164.152 30.636V30.84C164.152 31.716 163.456 32.292 162.58 32.292C161.872 32.292 161.392 31.932 161.392 31.296ZM165.777 27.48V28.38H166.677V33H167.637V28.38H168.537V27.48H167.637V25.56H166.677V27.48H165.777ZM171.516 33.12C172.692 33.12 173.568 32.652 174.144 31.716L173.364 31.224C172.956 31.896 172.38 32.22 171.636 32.22C170.604 32.22 169.968 31.596 169.884 30.48H174.228C174.228 30.456 174.24 30.312 174.24 30.192C174.24 28.44 173.256 27.36 171.636 27.36C170.004 27.36 168.9 28.524 168.9 30.24C168.9 31.944 169.968 33.12 171.516 33.12ZM171.636 28.2C172.524 28.2 173.124 28.776 173.196 29.664H169.92C170.088 28.728 170.688 28.2 171.636 28.2ZM178.975 29.64V33H179.935V29.52C179.935 28.188 179.203 27.36 178.039 27.36C177.319 27.36 176.767 27.672 176.395 28.344V27.48H175.435V33H176.395V29.64C176.395 28.824 176.959 28.26 177.799 28.26C178.567 28.26 178.975 28.728 178.975 29.64ZM180.78 27.48V28.38H181.68V33H182.64V28.38H183.54V27.48H182.64V25.56H181.68V27.48H180.78ZM188.763 27.48H187.683L186.171 31.284L184.623 27.48H183.483L185.595 32.22L184.083 35.64H185.163L188.763 27.48ZM190.448 35.64V32.052C190.856 32.736 191.516 33.12 192.332 33.12C193.832 33.12 195.068 32.028 195.068 30.24C195.068 28.452 193.832 27.36 192.332 27.36C191.516 27.36 190.856 27.744 190.448 28.428V27.48H189.488V35.64H190.448ZM194.096 30.24C194.096 31.512 193.232 32.22 192.212 32.22C191.372 32.22 190.448 31.512 190.448 30.24C190.448 28.968 191.372 28.26 192.212 28.26C193.232 28.26 194.096 28.968 194.096 30.24ZM126.46 43.52C126.46 42.152 125.812 41.36 124.684 41.36C123.94 41.36 123.364 41.708 122.98 42.392C122.728 41.732 122.152 41.36 121.384 41.36C120.7 41.36 120.196 41.66 119.86 42.284V41.48H118.9V47H119.86V43.64C119.86 42.776 120.352 42.26 121.144 42.26C121.864 42.26 122.2 42.692 122.2 43.64V47H123.16V43.64C123.16 42.776 123.652 42.26 124.444 42.26C125.164 42.26 125.5 42.692 125.5 43.64V47H126.46V43.52ZM128.143 39.2C128.143 39.56 128.443 39.86 128.803 39.86C129.163 39.86 129.463 39.56 129.463 39.2C129.463 38.84 129.163 38.54 128.803 38.54C128.443 38.54 128.143 38.84 128.143 39.2ZM128.323 41.48V47H129.283V41.48H128.323ZM130.3 41.48V42.38H131.2V47H132.16V42.38H133.06V41.48H132.16V39.56H131.2V41.48H130.3ZM137.669 42.752C137.921 42.56 138.497 42.2 139.325 42.2C140.009 42.2 140.573 42.416 140.573 43.172V43.976C140.249 43.772 139.733 43.568 139.001 43.568C137.645 43.568 136.841 44.276 136.841 45.344C136.841 46.472 137.729 47.12 138.749 47.12C139.421 47.12 140.213 46.844 140.573 46.256V47H141.533V43.04C141.533 41.972 140.657 41.36 139.373 41.36C138.353 41.36 137.621 41.744 137.201 42.044L137.669 42.752ZM137.813 45.296C137.813 44.696 138.221 44.324 139.157 44.324C139.673 44.324 140.129 44.42 140.573 44.636V44.84C140.573 45.716 139.877 46.292 139.001 46.292C138.293 46.292 137.813 45.932 137.813 45.296ZM146.578 43.64V47H147.538V43.52C147.538 42.188 146.806 41.36 145.642 41.36C144.922 41.36 144.37 41.672 143.998 42.344V41.48H143.038V47H143.998V43.64C143.998 42.824 144.562 42.26 145.402 42.26C146.17 42.26 146.578 42.728 146.578 43.64ZM148.743 44.24C148.743 46.028 149.979 47.12 151.479 47.12C152.295 47.12 152.955 46.736 153.363 46.052V47H154.323V37.64H153.363V42.428C152.955 41.744 152.295 41.36 151.479 41.36C149.979 41.36 148.743 42.452 148.743 44.24ZM149.715 44.24C149.715 42.968 150.579 42.26 151.599 42.26C152.439 42.26 153.363 42.968 153.363 44.24C153.363 45.512 152.439 46.22 151.599 46.22C150.579 46.22 149.715 45.512 149.715 44.24ZM158.083 47.12C159.259 47.12 160.135 46.652 160.711 45.716L159.931 45.224C159.523 45.896 158.947 46.22 158.203 46.22C157.171 46.22 156.535 45.596 156.451 44.48H160.795C160.795 44.456 160.807 44.312 160.807 44.192C160.807 42.44 159.823 41.36 158.203 41.36C156.571 41.36 155.467 42.524 155.467 44.24C155.467 45.944 156.535 47.12 158.083 47.12ZM158.203 42.2C159.091 42.2 159.691 42.776 159.763 43.664H156.487C156.655 42.728 157.255 42.2 158.203 42.2ZM164.631 42.536L165.159 41.744C164.871 41.444 164.523 41.36 164.127 41.36C163.707 41.36 163.275 41.648 162.963 42.116V41.48H162.003V47H162.963V43.64C162.963 42.848 163.167 42.26 163.887 42.26C164.199 42.26 164.367 42.344 164.631 42.536ZM167.956 47.12C169.132 47.12 170.008 46.652 170.584 45.716L169.804 45.224C169.396 45.896 168.82 46.22 168.076 46.22C167.044 46.22 166.408 45.596 166.324 44.48H170.668C170.668 44.456 170.68 44.312 170.68 44.192C170.68 42.44 169.696 41.36 168.076 41.36C166.444 41.36 165.34 42.524 165.34 44.24C165.34 45.944 166.408 47.12 167.956 47.12ZM168.076 42.2C168.964 42.2 169.564 42.776 169.636 43.664H166.36C166.528 42.728 167.128 42.2 168.076 42.2ZM175.416 43.64V47H176.376V43.52C176.376 42.188 175.644 41.36 174.48 41.36C173.76 41.36 173.208 41.672 172.836 42.344V41.48H171.876V47H172.836V43.64C172.836 42.824 173.4 42.26 174.24 42.26C175.008 42.26 175.416 42.728 175.416 43.64ZM118.96 52.6V61H119.98V56.92H123.16V55.96H119.98V53.56H123.28V52.6H118.96ZM124.78 53.2C124.78 53.56 125.08 53.86 125.44 53.86C125.8 53.86 126.1 53.56 126.1 53.2C126.1 52.84 125.8 52.54 125.44 52.54C125.08 52.54 124.78 52.84 124.78 53.2ZM124.96 55.48V61H125.92V55.48H124.96ZM130.405 56.536L130.933 55.744C130.645 55.444 130.297 55.36 129.901 55.36C129.481 55.36 129.049 55.648 128.737 56.116V55.48H127.777V61H128.737V57.64C128.737 56.848 128.941 56.26 129.661 56.26C129.973 56.26 130.141 56.344 130.405 56.536ZM139.33 57.52C139.33 56.152 138.682 55.36 137.554 55.36C136.81 55.36 136.234 55.708 135.85 56.392C135.598 55.732 135.022 55.36 134.254 55.36C133.57 55.36 133.066 55.66 132.73 56.284V55.48H131.77V61H132.73V57.64C132.73 56.776 133.222 56.26 134.014 56.26C134.734 56.26 135.07 56.692 135.07 57.64V61H136.03V57.64C136.03 56.776 136.522 56.26 137.314 56.26C138.034 56.26 138.37 56.692 138.37 57.64V61H139.33V57.52ZM143.15 61.12C144.326 61.12 145.202 60.652 145.778 59.716L144.998 59.224C144.59 59.896 144.014 60.22 143.27 60.22C142.238 60.22 141.602 59.596 141.518 58.48H145.862C145.862 58.456 145.874 58.312 145.874 58.192C145.874 56.44 144.89 55.36 143.27 55.36C141.638 55.36 140.534 56.524 140.534 58.24C140.534 59.944 141.602 61.12 143.15 61.12ZM143.27 56.2C144.158 56.2 144.758 56.776 144.83 57.664H141.554C141.722 56.728 142.322 56.2 143.27 56.2ZM150.61 57.64V61H151.57V57.52C151.57 56.188 150.838 55.36 149.674 55.36C148.954 55.36 148.402 55.672 148.03 56.344V55.48H147.07V61H148.03V57.64C148.03 56.824 148.594 56.26 149.434 56.26C150.202 56.26 150.61 56.728 150.61 57.64ZM156.36 61.36C156.36 62.788 157.476 63.76 159.096 63.76C160.476 63.76 161.832 62.788 161.832 60.88V55.48H160.872V56.428C160.464 55.744 159.804 55.36 158.988 55.36C157.488 55.36 156.252 56.452 156.252 58.24C156.252 60.028 157.488 61.12 158.988 61.12C159.804 61.12 160.464 60.736 160.872 60.052V60.88C160.872 62.272 159.936 62.86 159.096 62.86C158.016 62.86 157.332 62.152 157.332 61.36H156.36ZM157.224 58.24C157.224 56.968 158.088 56.26 159.108 56.26C159.948 56.26 160.872 56.968 160.872 58.24C160.872 59.512 159.948 60.22 159.108 60.22C158.088 60.22 157.224 59.512 157.224 58.24ZM165.592 61.12C166.768 61.12 167.644 60.652 168.22 59.716L167.44 59.224C167.032 59.896 166.456 60.22 165.712 60.22C164.68 60.22 164.044 59.596 163.96 58.48H168.304C168.304 58.456 168.316 58.312 168.316 58.192C168.316 56.44 167.332 55.36 165.712 55.36C164.08 55.36 162.976 56.524 162.976 58.24C162.976 59.944 164.044 61.12 165.592 61.12ZM165.712 56.2C166.6 56.2 167.2 56.776 167.272 57.664H163.996C164.164 56.728 164.764 56.2 165.712 56.2ZM168.671 55.48V56.38H169.571V61H170.531V56.38H171.431V55.48H170.531V53.56H169.571V55.48H168.671ZM174.41 61.12C175.586 61.12 176.462 60.652 177.038 59.716L176.258 59.224C175.85 59.896 175.274 60.22 174.53 60.22C173.498 60.22 172.862 59.596 172.778 58.48H177.122C177.122 58.456 177.134 58.312 177.134 58.192C177.134 56.44 176.15 55.36 174.53 55.36C172.898 55.36 171.794 56.524 171.794 58.24C171.794 59.944 172.862 61.12 174.41 61.12ZM174.53 56.2C175.418 56.2 176.018 56.776 176.09 57.664H172.814C172.982 56.728 173.582 56.2 174.53 56.2ZM178.33 53.2C178.33 53.56 178.63 53.86 178.99 53.86C179.35 53.86 179.65 53.56 179.65 53.2C179.65 52.84 179.35 52.54 178.99 52.54C178.63 52.54 178.33 52.84 178.33 53.2ZM178.51 55.48V61H179.47V55.48H178.51ZM181.327 51.64V61H182.287V51.64H181.327ZM183.133 55.48V56.38H184.033V61H184.993V56.38H185.893V55.48H184.993V53.56H184.033V55.48H183.133ZM118.06 69.48L120.46 75.42L122.032 71.4L123.7 75.42L126.1 69.48H125.02L123.628 73.092L122.02 69.06L120.52 73.068L119.14 69.48H118.06ZM126.936 67.2C126.936 67.56 127.236 67.86 127.596 67.86C127.956 67.86 128.256 67.56 128.256 67.2C128.256 66.84 127.956 66.54 127.596 66.54C127.236 66.54 126.936 66.84 126.936 67.2ZM127.116 69.48V75H128.076V69.48H127.116ZM132.561 70.536L133.089 69.744C132.801 69.444 132.453 69.36 132.057 69.36C131.637 69.36 131.205 69.648 130.893 70.116V69.48H129.933V75H130.893V71.64C130.893 70.848 131.097 70.26 131.817 70.26C132.129 70.26 132.297 70.344 132.561 70.536ZM133.447 72.24C133.447 74.028 134.683 75.12 136.183 75.12C136.999 75.12 137.659 74.736 138.067 74.052V75H139.027V65.64H138.067V70.428C137.659 69.744 136.999 69.36 136.183 69.36C134.683 69.36 133.447 70.452 133.447 72.24ZM134.419 72.24C134.419 70.968 135.283 70.26 136.303 70.26C137.143 70.26 138.067 70.968 138.067 72.24C138.067 73.512 137.143 74.22 136.303 74.22C135.283 74.22 134.419 73.512 134.419 72.24ZM140.89 74.52C140.89 74.88 141.19 75.18 141.55 75.18C141.91 75.18 142.21 74.88 142.21 74.52C142.21 74.16 141.91 73.86 141.55 73.86C141.19 73.86 140.89 74.16 140.89 74.52Z" fill="#0F1938"/>
<path d="M44.5003 60.9999L81.8221 122.5" stroke="#0F1938"/>
<path d="M13.124 13.324L15.86 18.22L18.596 13.324L19.22 19H20.24L19.22 10.18L15.86 16.264L12.5 10.18L11.48 19H12.5L13.124 13.324ZM23.6308 19.12C24.8068 19.12 25.6828 18.652 26.2588 17.716L25.4788 17.224C25.0708 17.896 24.4948 18.22 23.7508 18.22C22.7188 18.22 22.0828 17.596 21.9988 16.48H26.3428C26.3428 16.456 26.3548 16.312 26.3548 16.192C26.3548 14.44 25.3708 13.36 23.7508 13.36C22.1188 13.36 21.0148 14.524 21.0148 16.24C21.0148 17.944 22.0828 19.12 23.6308 19.12ZM23.7508 14.2C24.6388 14.2 25.2388 14.776 25.3108 15.664H22.0348C22.2028 14.728 22.8028 14.2 23.7508 14.2ZM31.0906 15.64V19H32.0506V15.52C32.0506 14.188 31.3186 13.36 30.1546 13.36C29.4346 13.36 28.8826 13.672 28.5106 14.344V13.48H27.5506V19H28.5106V15.64C28.5106 14.824 29.0746 14.26 29.9146 14.26C30.6826 14.26 31.0906 14.728 31.0906 15.64ZM33.3633 19.36C33.3633 20.788 34.4793 21.76 36.0993 21.76C37.4793 21.76 38.8353 20.788 38.8353 18.88V13.48H37.8753V14.428C37.4673 13.744 36.8073 13.36 35.9913 13.36C34.4913 13.36 33.2553 14.452 33.2553 16.24C33.2553 18.028 34.4913 19.12 35.9913 19.12C36.8073 19.12 37.4673 18.736 37.8753 18.052V18.88C37.8753 20.272 36.9393 20.86 36.0993 20.86C35.0193 20.86 34.3353 20.152 34.3353 19.36H33.3633ZM34.2273 16.24C34.2273 14.968 35.0913 14.26 36.1113 14.26C36.9513 14.26 37.8753 14.968 37.8753 16.24C37.8753 17.512 36.9513 18.22 36.1113 18.22C35.0913 18.22 34.2273 17.512 34.2273 16.24ZM42.5951 19.12C43.7711 19.12 44.6471 18.652 45.2231 17.716L44.4431 17.224C44.0351 17.896 43.4591 18.22 42.7151 18.22C41.6831 18.22 41.0471 17.596 40.9631 16.48H45.3071C45.3071 16.456 45.3191 16.312 45.3191 16.192C45.3191 14.44 44.3351 13.36 42.7151 13.36C41.0831 13.36 39.9791 14.524 39.9791 16.24C39.9791 17.944 41.0471 19.12 42.5951 19.12ZM42.7151 14.2C43.6031 14.2 44.2031 14.776 44.2751 15.664H40.9991C41.1671 14.728 41.7671 14.2 42.7151 14.2ZM50.2805 14.752C50.5325 14.56 51.1085 14.2 51.9365 14.2C52.6205 14.2 53.1845 14.416 53.1845 15.172V15.976C52.8605 15.772 52.3445 15.568 51.6125 15.568C50.2565 15.568 49.4525 16.276 49.4525 17.344C49.4525 18.472 50.3405 19.12 51.3605 19.12C52.0325 19.12 52.8245 18.844 53.1845 18.256V19H54.1445V15.04C54.1445 13.972 53.2685 13.36 51.9845 13.36C50.9645 13.36 50.2325 13.744 49.8125 14.044L50.2805 14.752ZM50.4245 17.296C50.4245 16.696 50.8325 16.324 51.7685 16.324C52.2845 16.324 52.7405 16.42 53.1845 16.636V16.84C53.1845 17.716 52.4885 18.292 51.6125 18.292C50.9045 18.292 50.4245 17.932 50.4245 17.296ZM55.6498 9.64V19H56.6098V9.64H55.6498ZM58.2955 9.64V19H59.2555V9.64H58.2955ZM63.0771 19.12C64.2531 19.12 65.1291 18.652 65.7051 17.716L64.9251 17.224C64.5171 17.896 63.9411 18.22 63.1971 18.22C62.1651 18.22 61.5291 17.596 61.4451 16.48H65.7891C65.7891 16.456 65.8011 16.312 65.8011 16.192C65.8011 14.44 64.8171 13.36 63.1971 13.36C61.5651 13.36 60.4611 14.524 60.4611 16.24C60.4611 17.944 61.5291 19.12 63.0771 19.12ZM63.1971 14.2C64.0851 14.2 64.6851 14.776 64.7571 15.664H61.4811C61.6491 14.728 62.2491 14.2 63.1971 14.2ZM69.6249 14.536L70.1529 13.744C69.8649 13.444 69.5169 13.36 69.1209 13.36C68.7009 13.36 68.2689 13.648 67.9569 14.116V13.48H66.9969V19H67.9569V15.64C67.9569 14.848 68.1609 14.26 68.8809 14.26C69.1929 14.26 69.3609 14.344 69.6249 14.536ZM14.48 33C16.928 33 18.68 31.308 18.68 28.8C18.68 26.292 16.928 24.6 14.48 24.6H11.96V33H14.48ZM14.48 25.62C16.376 25.62 17.66 26.844 17.66 28.8C17.66 30.756 16.376 31.98 14.48 31.98H12.98V25.62H14.48ZM20.2243 28.752C20.4763 28.56 21.0523 28.2 21.8803 28.2C22.5643 28.2 23.1283 28.416 23.1283 29.172V29.976C22.8043 29.772 22.2883 29.568 21.5563 29.568C20.2003 29.568 19.3963 30.276 19.3963 31.344C19.3963 32.472 20.2843 33.12 21.3043 33.12C21.9763 33.12 22.7683 32.844 23.1283 32.256V33H24.0883V29.04C24.0883 27.972 23.2123 27.36 21.9283 27.36C20.9083 27.36 20.1763 27.744 19.7563 28.044L20.2243 28.752ZM20.3683 31.296C20.3683 30.696 20.7763 30.324 21.7123 30.324C22.2283 30.324 22.6843 30.42 23.1283 30.636V30.84C23.1283 31.716 22.4323 32.292 21.5563 32.292C20.8483 32.292 20.3683 31.932 20.3683 31.296ZM24.7536 27.48V28.38H25.6536V33H26.6136V28.38H27.5136V27.48H26.6136V25.56H25.6536V27.48H24.7536ZM30.4924 33.12C31.6684 33.12 32.5444 32.652 33.1204 31.716L32.3404 31.224C31.9324 31.896 31.3564 32.22 30.6124 32.22C29.5804 32.22 28.9444 31.596 28.8604 30.48H33.2044C33.2044 30.456 33.2164 30.312 33.2164 30.192C33.2164 28.44 32.2324 27.36 30.6124 27.36C28.9804 27.36 27.8764 28.524 27.8764 30.24C27.8764 31.944 28.9444 33.12 30.4924 33.12ZM30.6124 28.2C31.5004 28.2 32.1004 28.776 32.1724 29.664H28.8964C29.0644 28.728 29.6644 28.2 30.6124 28.2ZM37.9522 29.64V33H38.9122V29.52C38.9122 28.188 38.1802 27.36 37.0162 27.36C36.2962 27.36 35.7442 27.672 35.3722 28.344V27.48H34.4122V33H35.3722V29.64C35.3722 28.824 35.9362 28.26 36.7762 28.26C37.5442 28.26 37.9522 28.728 37.9522 29.64ZM39.7569 27.48V28.38H40.6569V33H41.6169V28.38H42.5169V27.48H41.6169V25.56H40.6569V27.48H39.7569ZM47.7397 27.48H46.6597L45.1477 31.284L43.5997 27.48H42.4597L44.5717 32.22L43.0597 35.64H44.1397L47.7397 27.48ZM49.4248 35.64V32.052C49.8328 32.736 50.4928 33.12 51.3088 33.12C52.8088 33.12 54.0448 32.028 54.0448 30.24C54.0448 28.452 52.8088 27.36 51.3088 27.36C50.4928 27.36 49.8328 27.744 49.4248 28.428V27.48H48.4648V35.64H49.4248ZM53.0728 30.24C53.0728 31.512 52.2088 32.22 51.1888 32.22C50.3488 32.22 49.4248 31.512 49.4248 30.24C49.4248 28.968 50.3488 28.26 51.1888 28.26C52.2088 28.26 53.0728 28.968 53.0728 30.24ZM57.3846 33.12C58.5606 33.12 59.4366 32.652 60.0126 31.716L59.2326 31.224C58.8246 31.896 58.2486 32.22 57.5046 32.22C56.4726 32.22 55.8366 31.596 55.7526 30.48H60.0966C60.0966 30.456 60.1086 30.312 60.1086 30.192C60.1086 28.44 59.1246 27.36 57.5046 27.36C55.8726 27.36 54.7686 28.524 54.7686 30.24C54.7686 31.944 55.8366 33.12 57.3846 33.12ZM57.5046 28.2C58.3926 28.2 58.9926 28.776 59.0646 29.664H55.7886C55.9566 28.728 56.5566 28.2 57.5046 28.2ZM64.8444 29.64V33H65.8044V29.52C65.8044 28.188 65.0724 27.36 63.9084 27.36C63.1884 27.36 62.6364 27.672 62.2644 28.344V27.48H61.3044V33H62.2644V29.64C62.2644 28.824 62.8284 28.26 63.6684 28.26C64.4364 28.26 64.8444 28.728 64.8444 29.64ZM68.3651 31.68L67.3091 34.788L68.0051 35.04L69.3251 32.04L68.3651 31.68ZM74.0581 30.24C74.0581 32.028 75.2941 33.12 76.7941 33.12C77.6101 33.12 78.2701 32.736 78.6781 32.052V33H79.6381V23.64H78.6781V28.428C78.2701 27.744 77.6101 27.36 76.7941 27.36C75.2941 27.36 74.0581 28.452 74.0581 30.24ZM75.0301 30.24C75.0301 28.968 75.8941 28.26 76.9141 28.26C77.7541 28.26 78.6781 28.968 78.6781 30.24C78.6781 31.512 77.7541 32.22 76.9141 32.22C75.8941 32.22 75.0301 31.512 75.0301 30.24ZM81.2619 25.2C81.2619 25.56 81.5619 25.86 81.9219 25.86C82.2819 25.86 82.5819 25.56 82.5819 25.2C82.5819 24.84 82.2819 24.54 81.9219 24.54C81.5619 24.54 81.2619 24.84 81.2619 25.2ZM81.4419 27.48V33H82.4019V27.48H81.4419ZM86.3951 33.12C87.5711 33.12 88.4471 32.652 89.0231 31.716L88.2431 31.224C87.8351 31.896 87.2591 32.22 86.5151 32.22C85.4831 32.22 84.8471 31.596 84.7631 30.48H89.1071C89.1071 30.456 89.1191 30.312 89.1191 30.192C89.1191 28.44 88.1351 27.36 86.5151 27.36C84.8831 27.36 83.7791 28.524 83.7791 30.24C83.7791 31.944 84.8471 33.12 86.3951 33.12ZM86.5151 28.2C87.4031 28.2 88.0031 28.776 88.0751 29.664H84.7991C84.9671 28.728 85.5671 28.2 86.5151 28.2ZM14.036 47.12C15.212 47.12 16.088 46.652 16.664 45.716L15.884 45.224C15.476 45.896 14.9 46.22 14.156 46.22C13.124 46.22 12.488 45.596 12.404 44.48H16.748C16.748 44.456 16.76 44.312 16.76 44.192C16.76 42.44 15.776 41.36 14.156 41.36C12.524 41.36 11.42 42.524 11.42 44.24C11.42 45.944 12.488 47.12 14.036 47.12ZM14.156 42.2C15.044 42.2 15.644 42.776 15.716 43.664H12.44C12.608 42.728 13.208 42.2 14.156 42.2ZM17.9558 39.2C17.9558 39.56 18.2558 39.86 18.6158 39.86C18.9758 39.86 19.2758 39.56 19.2758 39.2C19.2758 38.84 18.9758 38.54 18.6158 38.54C18.2558 38.54 17.9558 38.84 17.9558 39.2ZM18.1358 41.48V47H19.0958V41.48H18.1358ZM24.493 43.64V47H25.453V43.52C25.453 42.188 24.721 41.36 23.557 41.36C22.837 41.36 22.285 41.672 21.913 42.344V41.48H20.953V47H21.913V43.64C21.913 42.824 22.477 42.26 23.317 42.26C24.085 42.26 24.493 42.728 24.493 43.64ZM30.6153 38.6V44.24C30.6153 45.908 31.7313 47.12 33.4713 47.12C35.2113 47.12 36.3273 45.908 36.3273 44.24V38.6H35.3073V44.24C35.3073 45.392 34.6713 46.16 33.4713 46.16C32.2713 46.16 31.6353 45.392 31.6353 44.24V38.6H30.6153ZM41.547 43.64V47H42.507V43.52C42.507 42.188 41.775 41.36 40.611 41.36C39.891 41.36 39.339 41.672 38.967 42.344V41.48H38.007V47H38.967V43.64C38.967 42.824 39.531 42.26 40.371 42.26C41.139 42.26 41.547 42.728 41.547 43.64ZM43.3517 41.48V42.38H44.2517V47H45.2117V42.38H46.1117V41.48H45.2117V39.56H44.2517V41.48H43.3517ZM49.0905 47.12C50.2665 47.12 51.1425 46.652 51.7185 45.716L50.9385 45.224C50.5305 45.896 49.9545 46.22 49.2105 46.22C48.1785 46.22 47.5425 45.596 47.4585 44.48H51.8025C51.8025 44.456 51.8145 44.312 51.8145 44.192C51.8145 42.44 50.8305 41.36 49.2105 41.36C47.5785 41.36 46.4745 42.524 46.4745 44.24C46.4745 45.944 47.5425 47.12 49.0905 47.12ZM49.2105 42.2C50.0985 42.2 50.6985 42.776 50.7705 43.664H47.4945C47.6625 42.728 48.2625 42.2 49.2105 42.2ZM55.6383 42.536L56.1663 41.744C55.8783 41.444 55.5303 41.36 55.1343 41.36C54.7143 41.36 54.2823 41.648 53.9703 42.116V41.48H53.0103V47H53.9703V43.64C53.9703 42.848 54.1743 42.26 54.8943 42.26C55.2063 42.26 55.3743 42.344 55.6383 42.536ZM60.5436 43.64V47H61.5036V43.52C61.5036 42.188 60.7716 41.36 59.6076 41.36C58.8876 41.36 58.3356 41.672 57.9636 42.344V41.48H57.0036V47H57.9636V43.64C57.9636 42.824 58.5276 42.26 59.3676 42.26C60.1356 42.26 60.5436 42.728 60.5436 43.64ZM65.3243 47.12C66.5003 47.12 67.3763 46.652 67.9523 45.716L67.1723 45.224C66.7643 45.896 66.1883 46.22 65.4443 46.22C64.4123 46.22 63.7763 45.596 63.6923 44.48H68.0363C68.0363 44.456 68.0483 44.312 68.0483 44.192C68.0483 42.44 67.0643 41.36 65.4443 41.36C63.8123 41.36 62.7083 42.524 62.7083 44.24C62.7083 45.944 63.7763 47.12 65.3243 47.12ZM65.4443 42.2C66.3323 42.2 66.9323 42.776 67.0043 43.664H63.7283C63.8963 42.728 64.4963 42.2 65.4443 42.2ZM72.7841 43.64V47H73.7441V43.52C73.7441 42.092 72.9881 41.36 71.8481 41.36C71.1281 41.36 70.5401 41.744 70.2041 42.356V37.64H69.2441V47H70.2041V43.64C70.2041 42.848 70.7681 42.26 71.6081 42.26C72.3881 42.26 72.7841 42.728 72.7841 43.64ZM82.9888 43.52C82.9888 42.152 82.3408 41.36 81.2128 41.36C80.4688 41.36 79.8928 41.708 79.5088 42.392C79.2568 41.732 78.6808 41.36 77.9128 41.36C77.2288 41.36 76.7248 41.66 76.3888 42.284V41.48H75.4288V47H76.3888V43.64C76.3888 42.776 76.8808 42.26 77.6728 42.26C78.3928 42.26 78.7288 42.692 78.7288 43.64V47H79.6888V43.64C79.6888 42.776 80.1808 42.26 80.9728 42.26C81.6928 42.26 82.0288 42.692 82.0288 43.64V47H82.9888V43.52ZM86.808 47.12C87.984 47.12 88.86 46.652 89.436 45.716L88.656 45.224C88.248 45.896 87.672 46.22 86.928 46.22C85.896 46.22 85.26 45.596 85.176 44.48H89.52C89.52 44.456 89.532 44.312 89.532 44.192C89.532 42.44 88.548 41.36 86.928 41.36C85.296 41.36 84.192 42.524 84.192 44.24C84.192 45.944 85.26 47.12 86.808 47.12ZM86.928 42.2C87.816 42.2 88.416 42.776 88.488 43.664H85.212C85.38 42.728 85.98 42.2 86.928 42.2ZM94.2678 43.64V47H95.2278V43.52C95.2278 42.188 94.4958 41.36 93.3318 41.36C92.6118 41.36 92.0598 41.672 91.6878 42.344V41.48H90.7278V47H91.6878V43.64C91.6878 42.824 92.2518 42.26 93.0918 42.26C93.8598 42.26 94.2678 42.728 94.2678 43.64ZM11.06 55.48V56.38H11.96V61H12.92V56.38H13.82V55.48H12.92V53.56H11.96V55.48H11.06ZM16.7988 61.12C17.9748 61.12 18.8508 60.652 19.4268 59.716L18.6468 59.224C18.2388 59.896 17.6628 60.22 16.9188 60.22C15.8868 60.22 15.2508 59.596 15.1668 58.48H19.5108C19.5108 58.456 19.5228 58.312 19.5228 58.192C19.5228 56.44 18.5388 55.36 16.9188 55.36C15.2868 55.36 14.1828 56.524 14.1828 58.24C14.1828 59.944 15.2508 61.12 16.7988 61.12ZM16.9188 56.2C17.8068 56.2 18.4068 56.776 18.4788 57.664H15.2028C15.3708 56.728 15.9708 56.2 16.9188 56.2ZM20.7186 53.2C20.7186 53.56 21.0186 53.86 21.3786 53.86C21.7386 53.86 22.0386 53.56 22.0386 53.2C22.0386 52.84 21.7386 52.54 21.3786 52.54C21.0186 52.54 20.7186 52.84 20.7186 53.2ZM20.8986 55.48V61H21.8586V55.48H20.8986ZM23.7158 51.64V61H24.6758V51.64H23.7158ZM25.5214 55.48V56.38H26.4214V61H27.3814V56.38H28.2814V55.48H27.3814V53.56H26.4214V55.48H25.5214ZM29.3642 60.52C29.3642 60.88 29.6642 61.18 30.0242 61.18C30.3842 61.18 30.6842 60.88 30.6842 60.52C30.6842 60.16 30.3842 59.86 30.0242 59.86C29.6642 59.86 29.3642 60.16 29.3642 60.52Z" fill="#0F1938"/>
</svg>
