<svg width="320" height="395" viewBox="0 0 320 395" fill="none" xmlns="http://www.w3.org/2000/svg">
<g id="Infographics">
<g id="DataTypes">
<g id="Group">
<g id="Data Types">
<path id="Vector" opacity="0.3" d="M157.213 268.173C164.445 268.173 170.308 262.31 170.308 255.077C170.308 247.845 164.445 241.981 157.213 241.981C149.98 241.981 144.117 247.845 144.117 255.077C144.117 262.31 149.98 268.173 157.213 268.173Z" fill="#3749A9"/>
<path id="Vector_2" opacity="0.3" d="M184.803 264.337C189.917 264.337 194.063 260.192 194.063 255.077C194.063 249.963 189.917 245.817 184.803 245.817C179.689 245.817 175.543 249.963 175.543 255.077C175.543 260.192 179.689 264.337 184.803 264.337Z" fill="#3749A9"/>
<path id="Vector_3" opacity="0.3" d="M174.576 285.78C179.691 285.78 183.836 281.634 183.836 276.52C183.836 271.406 179.691 267.26 174.576 267.26C169.462 267.26 165.316 271.406 165.316 276.52C165.316 281.634 169.462 285.78 174.576 285.78Z" fill="#3749A9"/>
<path id="Vector_4" opacity="0.3" d="M173.847 241.04C182.705 241.04 189.886 233.859 189.886 225.001C189.886 216.143 182.705 208.962 173.847 208.962C164.989 208.962 157.809 216.143 157.809 225.001C157.809 233.859 164.989 241.04 173.847 241.04Z" fill="#3749A9"/>
<path id="Vector_5" opacity="0.3" d="M201.428 247.367C206.542 247.367 210.688 243.221 210.688 238.107C210.688 232.993 206.542 228.847 201.428 228.847C196.314 228.847 192.168 232.993 192.168 238.107C192.168 243.221 196.314 247.367 201.428 247.367Z" fill="#3749A9"/>
<path id="Vector_6" opacity="0.3" d="M148.4 298.34C155.633 298.34 161.496 292.477 161.496 285.244C161.496 278.012 155.633 272.148 148.4 272.148C141.168 272.148 135.305 278.012 135.305 285.244C135.305 292.477 141.168 298.34 148.4 298.34Z" fill="#3749A9"/>
<path id="Vector_7" opacity="0.3" d="M143.893 240.172C149.007 240.172 153.153 236.027 153.153 230.912C153.153 225.798 149.007 221.652 143.893 221.652C138.779 221.652 134.633 225.798 134.633 230.912C134.633 236.027 138.779 240.172 143.893 240.172Z" fill="#3749A9"/>
<path id="Vector_8" opacity="0.3" d="M198.26 283.916C203.374 283.916 207.52 279.77 207.52 274.656C207.52 269.541 203.374 265.396 198.26 265.396C193.146 265.396 189 269.541 189 274.656C189 279.77 193.146 283.916 198.26 283.916Z" fill="#3749A9"/>
<path id="Vector_9" opacity="0.3" d="M120.809 279.335C131.037 279.335 139.329 271.043 139.329 260.815C139.329 250.587 131.037 242.295 120.809 242.295C110.581 242.295 102.289 250.587 102.289 260.815C102.289 271.043 110.581 279.335 120.809 279.335Z" fill="#3749A9"/>
<path id="Vector_10" opacity="0.3" d="M120.338 237.061C125.452 237.061 129.598 232.915 129.598 227.801C129.598 222.687 125.452 218.541 120.338 218.541C115.224 218.541 111.078 222.687 111.078 227.801C111.078 232.915 115.224 237.061 120.338 237.061Z" fill="#3749A9"/>
<path id="Vector_11" opacity="0.3" d="M246.571 296.296C266.378 296.296 282.435 280.239 282.435 260.432C282.435 240.625 266.378 224.568 246.571 224.568C226.764 224.568 210.707 240.625 210.707 260.432C210.707 280.239 226.764 296.296 246.571 296.296Z" fill="#3749A9"/>
<path id="Vector_12" opacity="0.3" d="M171.655 309.356C176.769 309.356 180.915 305.21 180.915 300.096C180.915 294.982 176.769 290.836 171.655 290.836C166.54 290.836 162.395 294.982 162.395 300.096C162.395 305.21 166.54 309.356 171.655 309.356Z" fill="#3749A9"/>
<path id="Vector_13" opacity="0.3" d="M195.338 307.492C200.452 307.492 204.598 303.346 204.598 298.232C204.598 293.118 200.452 288.972 195.338 288.972C190.224 288.972 186.078 293.118 186.078 298.232C186.078 303.346 190.224 307.492 195.338 307.492Z" fill="#3749A9"/>
<path id="Vector_14" opacity="0.3" d="M143.772 216.416C155.208 216.416 164.478 207.146 164.478 195.71C164.478 184.274 155.208 175.004 143.772 175.004C132.337 175.004 123.066 184.274 123.066 195.71C123.066 207.146 132.337 216.416 143.772 216.416Z" fill="#3749A9"/>
<path id="Vector_15" opacity="0.3" d="M202.475 223.633C207.589 223.633 211.735 219.487 211.735 214.373C211.735 209.259 207.589 205.113 202.475 205.113C197.361 205.113 193.215 209.259 193.215 214.373C193.215 219.487 197.361 223.633 202.475 223.633Z" fill="#3749A9"/>
<path id="Vector_16" opacity="0.3" d="M122.166 303.064C127.28 303.064 131.426 298.918 131.426 293.804C131.426 288.69 127.28 284.544 122.166 284.544C117.052 284.544 112.906 288.69 112.906 293.804C112.906 298.918 117.052 303.064 122.166 303.064Z" fill="#3749A9"/>
<path id="Vector_17" opacity="0.3" d="M151.494 321.923C156.609 321.923 160.754 317.777 160.754 312.663C160.754 307.549 156.609 303.403 151.494 303.403C146.38 303.403 142.234 307.549 142.234 312.663C142.234 317.777 146.38 321.923 151.494 321.923Z" fill="#3749A9"/>
<path id="Vector_18" opacity="0.3" d="M218.725 311.656C223.839 311.656 227.985 307.51 227.985 302.396C227.985 297.282 223.839 293.136 218.725 293.136C213.611 293.136 209.465 297.282 209.465 302.396C209.465 307.51 213.611 311.656 218.725 311.656Z" fill="#3749A9"/>
<path id="Vector_19" opacity="0.3" d="M186.194 206.333C191.308 206.333 195.454 202.187 195.454 197.073C195.454 191.958 191.308 187.812 186.194 187.812C181.079 187.812 176.934 191.958 176.934 197.073C176.934 202.187 181.079 206.333 186.194 206.333Z" fill="#3749A9"/>
<path id="Vector_20" opacity="0.3" d="M226.233 223.622C231.347 223.622 235.493 219.476 235.493 214.362C235.493 209.247 231.347 205.102 226.233 205.102C221.119 205.102 216.973 209.247 216.973 214.362C216.973 219.476 221.119 223.622 226.233 223.622Z" fill="#3749A9"/>
<path id="Vector_21" opacity="0.3" d="M173.565 186.211C178.679 186.211 182.825 182.066 182.825 176.951C182.825 171.837 178.679 167.691 173.565 167.691C168.451 167.691 164.305 171.837 164.305 176.951C164.305 182.066 168.451 186.211 173.565 186.211Z" fill="#3749A9"/>
<path id="Vector_22" opacity="0.3" d="M110.205 215.574C115.319 215.574 119.465 211.428 119.465 206.314C119.465 201.2 115.319 197.054 110.205 197.054C105.091 197.054 100.945 201.2 100.945 206.314C100.945 211.428 105.091 215.574 110.205 215.574Z" fill="#3749A9"/>
<path id="Vector_23" opacity="0.3" d="M185.112 328.935C190.226 328.935 194.372 324.789 194.372 319.675C194.372 314.561 190.226 310.415 185.112 310.415C179.997 310.415 175.852 314.561 175.852 319.675C175.852 324.789 179.997 328.935 185.112 328.935Z" fill="#3749A9"/>
<path id="Vector_24" opacity="0.3" d="M128.1 326.068C133.214 326.068 137.36 321.922 137.36 316.808C137.36 311.694 133.214 307.548 128.1 307.548C122.986 307.548 118.84 311.694 118.84 316.808C118.84 321.922 122.986 326.068 128.1 326.068Z" fill="#3749A9"/>
<path id="Vector_25" opacity="0.3" d="M85.624 254.338C97.0596 254.338 106.33 245.067 106.33 233.632C106.33 222.196 97.0596 212.926 85.624 212.926C74.1884 212.926 64.918 222.196 64.918 233.632C64.918 245.067 74.1884 254.338 85.624 254.338Z" fill="#3749A9"/>
<path id="Vector_26" opacity="0.3" d="M164.951 341.501C170.066 341.501 174.211 337.356 174.211 332.241C174.211 327.127 170.066 322.981 164.951 322.981C159.837 322.981 155.691 327.127 155.691 332.241C155.691 337.356 159.837 341.501 164.951 341.501Z" fill="#3749A9"/>
<path id="Vector_27" opacity="0.3" d="M70.6494 332.212C91.1061 332.212 107.689 315.629 107.689 295.172C107.689 274.715 91.1061 258.132 70.6494 258.132C50.1928 258.132 33.6094 274.715 33.6094 295.172C33.6094 315.629 50.1928 332.212 70.6494 332.212Z" fill="#3749A9"/>
<path id="Vector_28" opacity="0.3" d="M209.319 200.883C214.433 200.883 218.579 196.737 218.579 191.623C218.579 186.509 214.433 182.363 209.319 182.363C204.204 182.363 200.059 186.509 200.059 191.623C200.059 196.737 204.204 200.883 209.319 200.883Z" fill="#3749A9"/>
<path id="Vector_29" opacity="0.3" d="M208.498 333.099C213.612 333.099 217.758 328.953 217.758 323.839C217.758 318.725 213.612 314.579 208.498 314.579C203.384 314.579 199.238 318.725 199.238 323.839C199.238 328.953 203.384 333.099 208.498 333.099Z" fill="#3749A9"/>
<path id="Vector_30" opacity="0.3" d="M233.076 200.872C238.191 200.872 242.336 196.726 242.336 191.612C242.336 186.497 238.191 182.352 233.076 182.352C227.962 182.352 223.816 186.497 223.816 191.612C223.816 196.726 227.962 200.872 233.076 200.872Z" fill="#3749A9"/>
<path id="Vector_31" opacity="0.3" d="M52.9592 256.025C58.0734 256.025 62.2192 251.879 62.2192 246.765C62.2192 241.651 58.0734 237.505 52.9592 237.505C47.8451 237.505 43.6992 241.651 43.6992 246.765C43.6992 251.879 47.8451 256.025 52.9592 256.025Z" fill="#3749A9"/>
<path id="Vector_32" opacity="0.3" d="M87.7717 207.755C92.8859 207.755 97.0317 203.61 97.0317 198.495C97.0317 193.381 92.8859 189.235 87.7717 189.235C82.6576 189.235 78.5117 193.381 78.5117 198.495C78.5117 203.61 82.6576 207.755 87.7717 207.755Z" fill="#3749A9"/>
<path id="Vector_33" opacity="0.3" d="M141.557 345.646C146.671 345.646 150.817 341.5 150.817 336.386C150.817 331.272 146.671 327.126 141.557 327.126C136.443 327.126 132.297 331.272 132.297 336.386C132.297 341.5 136.443 345.646 141.557 345.646Z" fill="#3749A9"/>
<path id="Vector_34" opacity="0.3" d="M108.467 339.444C113.581 339.444 117.727 335.298 117.727 330.184C117.727 325.07 113.581 320.924 108.467 320.924C103.353 320.924 99.207 325.07 99.207 330.184C99.207 335.298 103.353 339.444 108.467 339.444Z" fill="#3749A9"/>
<path id="Vector_35" opacity="0.3" d="M201.602 178.04C211.83 178.04 220.122 169.748 220.122 159.52C220.122 149.292 211.83 141 201.602 141C191.374 141 183.082 149.292 183.082 159.52C183.082 169.748 191.374 178.04 201.602 178.04Z" fill="#3749A9"/>
<path id="Vector_36" opacity="0.3" d="M241.061 319.751C246.175 319.751 250.321 315.606 250.321 310.491C250.321 305.377 246.175 301.231 241.061 301.231C235.947 301.231 231.801 305.377 231.801 310.491C231.801 315.606 235.947 319.751 241.061 319.751Z" fill="#3749A9"/>
<path id="Vector_37" opacity="0.3" d="M249.615 219.424C254.73 219.424 258.875 215.278 258.875 210.164C258.875 205.05 254.73 200.904 249.615 200.904C244.501 200.904 240.355 205.05 240.355 210.164C240.355 215.278 244.501 219.424 249.615 219.424Z" fill="#3749A9"/>
<path id="Vector_38" opacity="0.3" d="M111.115 191.834C116.23 191.834 120.375 187.689 120.375 182.574C120.375 177.46 116.23 173.314 111.115 173.314C106.001 173.314 101.855 177.46 101.855 182.574C101.855 187.689 106.001 191.834 111.115 191.834Z" fill="#3749A9"/>
<path id="Vector_39" opacity="0.3" d="M191.905 375.591C203.341 375.591 212.611 366.32 212.611 354.885C212.611 343.449 203.341 334.179 191.905 334.179C180.47 334.179 171.199 343.449 171.199 354.885C171.199 366.32 180.47 375.591 191.905 375.591Z" fill="#3749A9"/>
<path id="Vector_40" d="M145.631 169.794C167.328 169.794 184.918 152.204 184.918 130.507C184.918 108.809 167.328 91.2197 145.631 91.2197C123.933 91.2197 106.344 108.809 106.344 130.507C106.344 152.204 123.933 169.794 145.631 169.794Z" fill="#3749A9"/>
<path id="Vector_41" opacity="0.3" d="M230.834 341.194C235.948 341.194 240.094 337.048 240.094 331.934C240.094 326.82 235.948 322.674 230.834 322.674C225.72 322.674 221.574 326.82 221.574 331.934C221.574 337.048 225.72 341.194 230.834 341.194Z" fill="#3749A9"/>
<path id="Vector_42" opacity="0.3" d="M121.924 359.022C127.038 359.022 131.184 354.876 131.184 349.762C131.184 344.648 127.038 340.502 121.924 340.502C116.81 340.502 112.664 344.648 112.664 349.762C112.664 354.876 116.81 359.022 121.924 359.022Z" fill="#3749A9"/>
<path id="Vector_43" opacity="0.3" d="M259.732 197.59C266.965 197.59 272.828 191.727 272.828 184.494C272.828 177.262 266.965 171.398 259.732 171.398C252.5 171.398 246.637 177.262 246.637 184.494C246.637 191.727 252.5 197.59 259.732 197.59Z" fill="#3749A9"/>
<path id="Vector_44" opacity="0.3" d="M156.701 363.95C161.816 363.95 165.961 359.804 165.961 354.69C165.961 349.576 161.816 345.43 156.701 345.43C151.587 345.43 147.441 349.576 147.441 354.69C147.441 359.804 151.587 363.95 156.701 363.95Z" fill="#3749A9"/>
<path id="Vector_45" opacity="0.3" d="M233.549 177.12C238.663 177.12 242.809 172.974 242.809 167.86C242.809 162.745 238.663 158.6 233.549 158.6C228.435 158.6 224.289 162.745 224.289 167.86C224.289 172.974 228.435 177.12 233.549 177.12Z" fill="#3749A9"/>
<path id="Vector_46" opacity="0.3" d="M92.0466 174.763C100.905 174.763 108.085 167.582 108.085 158.724C108.085 149.866 100.905 142.686 92.0466 142.686C83.1886 142.686 76.0078 149.866 76.0078 158.724C76.0078 167.582 83.1886 174.763 92.0466 174.763Z" fill="#3749A9"/>
</g>
</g>
<g id="Numbers">
<path id="5001" d="M196.6 273.712L197.896 273.352V278H198.832V272.312L196.6 272.816V273.712Z" fill="#F7FAFC"/>
<path id="5002" d="M173.6 275.712L174.896 275.352V280H175.832V274.312L173.6 274.816V275.712Z" fill="#F7FAFC"/>
<path id="5003" d="M163.6 330.712L164.896 330.352V335H165.832V329.312L163.6 329.816V330.712Z" fill="#F7FAFC"/>
<path id="5032" d="M154.6 353.712L155.896 353.352V358H156.832V352.312L154.6 352.816V353.712Z" fill="#F7FAFC"/>
<path id="5004" d="M183.6 318.712L184.896 318.352V323H185.832V317.312L183.6 317.816V318.712Z" fill="#F7FAFC"/>
<path id="5005" d="M229.6 330.712L230.896 330.352V335H231.832V329.312L229.6 329.816V330.712Z" fill="#F7FAFC"/>
<path id="5006" d="M206.6 322.712L207.896 322.352V327H208.832V321.312L206.6 321.816V322.712Z" fill="#F7FAFC"/>
<path id="5007" d="M216.6 301.712L217.896 301.352V306H218.832V300.312L216.6 300.816V301.712Z" fill="#F7FAFC"/>
<path id="5008" d="M239.6 309.712L240.896 309.352V314H241.832V308.312L239.6 308.816V309.712Z" fill="#F7FAFC"/>
<path id="5009" d="M193.6 296.712L194.896 296.352V301H195.832V295.312L193.6 295.816V296.712Z" fill="#F7FAFC"/>
<path id="5041" d="M169.6 298.712L170.896 298.352V303H171.832V297.312L169.6 297.816V298.712Z" fill="#F7FAFC"/>
<path id="5010" d="M145.22 289H151.094V287.79H147.761L149.939 285.645C150.566 285.051 150.995 284.281 150.995 283.478C150.995 282.455 150.148 281.168 148.366 281.168C146.606 281.168 145.638 282.389 145.638 284.028H146.925C146.925 282.994 147.464 282.334 148.344 282.334C149.191 282.334 149.653 282.939 149.653 283.544C149.653 284.16 149.323 284.666 148.773 285.249L145.22 289Z" fill="#F7FAFC"/>
<path id="5033" d="M153.22 259H159.094V257.79H155.761L157.939 255.645C158.566 255.051 158.995 254.281 158.995 253.478C158.995 252.455 158.148 251.168 156.366 251.168C154.606 251.168 153.638 252.389 153.638 254.028H154.925C154.925 252.994 155.464 252.334 156.344 252.334C157.191 252.334 157.653 252.939 157.653 253.544C157.653 254.16 157.323 254.666 156.773 255.249L153.22 259Z" fill="#F7FAFC"/>
<path id="5036" d="M173.267 229.132C174.851 229.132 175.907 228.263 175.907 226.943C175.907 225.898 175.291 225.26 174.367 224.963C175.17 224.644 175.687 224.039 175.687 223.258C175.687 222.125 174.807 221.179 173.322 221.179C171.903 221.179 170.935 222.081 170.935 223.346H172.156C172.156 222.73 172.673 222.279 173.333 222.279C174.026 222.279 174.378 222.708 174.378 223.324C174.378 223.984 173.817 224.534 172.882 224.534V225.513C173.927 225.513 174.598 225.975 174.598 226.8C174.598 227.57 174.07 228.01 173.289 228.01C172.508 228.01 171.914 227.537 171.914 226.8H170.605C170.605 228.065 171.628 229.132 173.267 229.132Z" fill="#F7FAFC"/>
<path id="5037" d="M117.198 263.526H120.993V265H122.324V263.526H123.534V262.404H122.324V257.3H121.543L117.198 263.526ZM119.101 262.503L121.07 259.621V262.503H119.101Z" fill="#F7FAFC"/>
<path id="5038" d="M198.198 162.526H201.993V164H203.324V162.526H204.534V161.404H203.324V156.3H202.543L198.198 162.526ZM200.101 161.503L202.07 158.621V161.503H200.101Z" fill="#F7FAFC"/>
<path id="5039" d="M146.116 197.492C146.116 195.941 145.082 194.929 143.806 194.929C143.377 194.929 142.97 195.017 142.585 195.204L143.069 193.444H146.05V192.3H142.09L141.045 196.535C141.826 196.051 142.409 195.93 143.091 195.93C143.982 195.93 144.73 196.48 144.73 197.415C144.73 198.35 144.125 198.911 143.091 198.911C142.354 198.911 141.595 198.427 141.144 197.822L140.385 198.757C140.979 199.505 141.848 200.121 143.267 200.121C144.752 200.121 146.116 199.263 146.116 197.492Z" fill="#F7FAFC"/>
<path id="5042" d="M194.116 357.492C194.116 355.941 193.082 354.929 191.806 354.929C191.377 354.929 190.97 355.017 190.585 355.204L191.069 353.444H194.05V352.3H190.09L189.045 356.535C189.826 356.051 190.409 355.93 191.091 355.93C191.982 355.93 192.73 356.48 192.73 357.415C192.73 358.35 192.125 358.911 191.091 358.911C190.354 358.911 189.595 358.427 189.144 357.822L188.385 358.757C188.979 359.505 189.848 360.121 191.267 360.121C192.752 360.121 194.116 359.263 194.116 357.492Z" fill="#F7FAFC"/>
<path id="5043" d="M241.825 258.104L243.607 257.609V264H244.894V256.179L241.825 256.872V258.104ZM252.315 261.492C252.315 259.941 251.281 258.929 250.005 258.929C249.576 258.929 249.169 259.017 248.784 259.204L249.268 257.444H252.249V256.3H248.289L247.244 260.535C248.025 260.051 248.608 259.93 249.29 259.93C250.181 259.93 250.929 260.48 250.929 261.415C250.929 262.35 250.324 262.911 249.29 262.911C248.553 262.911 247.794 262.427 247.343 261.822L246.584 262.757C247.178 263.505 248.047 264.121 249.466 264.121C250.951 264.121 252.315 263.263 252.315 261.492Z" fill="#F7FAFC"/>
<path id="5044" d="M64.825 292.104L66.607 291.609V298H67.894V290.179L64.825 290.872V292.104ZM72.8402 290.311L70.3982 293.589C70.0132 294.084 69.7492 294.689 69.7492 295.404C69.7492 297.109 70.9922 298.132 72.5762 298.132C74.1602 298.132 75.4032 297.109 75.4032 295.404C75.4032 293.93 74.2922 292.907 73.0822 292.907C72.7632 292.907 72.5102 292.94 72.2792 293.05L74.4902 290.311H72.8402ZM71.0142 295.404C71.0142 294.458 71.6852 293.787 72.5762 293.787C73.4672 293.787 74.1272 294.458 74.1272 295.404C74.1272 296.35 73.4672 296.999 72.5762 296.999C71.6852 296.999 71.0142 296.35 71.0142 295.404Z" fill="#F7FAFC"/>
<path id="5045" d="M140.825 129.104L142.607 128.609V135H143.894V127.179L140.825 127.872V129.104ZM145.793 132.91C145.793 134.197 146.948 135.132 148.378 135.132C149.808 135.132 150.974 134.197 150.974 132.91C150.974 131.887 150.358 131.227 149.566 130.908C150.237 130.6 150.699 130.006 150.699 129.159C150.699 127.982 149.676 127.168 148.378 127.168C147.08 127.168 146.068 127.982 146.068 129.159C146.068 130.006 146.519 130.6 147.19 130.908C146.409 131.227 145.793 131.887 145.793 132.91ZM147.3 129.291C147.3 128.653 147.751 128.191 148.378 128.191C149.005 128.191 149.456 128.653 149.456 129.291C149.456 129.929 148.972 130.38 148.378 130.38C147.784 130.38 147.3 129.929 147.3 129.291ZM147.069 132.734C147.069 132.008 147.696 131.436 148.378 131.436C149.06 131.436 149.698 132.008 149.698 132.734C149.698 133.57 149.06 134.043 148.378 134.043C147.696 134.043 147.069 133.57 147.069 132.734Z" fill="#F7FAFC"/>
<path id="5040" d="M87.116 235.492C87.116 233.941 86.082 232.929 84.806 232.929C84.377 232.929 83.97 233.017 83.585 233.204L84.069 231.444H87.05V230.3H83.09L82.045 234.535C82.826 234.051 83.409 233.93 84.091 233.93C84.982 233.93 85.73 234.48 85.73 235.415C85.73 236.35 85.125 236.911 84.091 236.911C83.354 236.911 82.595 236.427 82.144 235.822L81.385 236.757C81.979 237.505 82.848 238.121 84.267 238.121C85.752 238.121 87.116 237.263 87.116 235.492Z" fill="#F7FAFC"/>
<path id="5034" d="M256.22 188H262.094V186.79H258.761L260.939 184.645C261.566 184.051 261.995 183.281 261.995 182.478C261.995 181.455 261.148 180.168 259.366 180.168C257.606 180.168 256.638 181.389 256.638 183.028H257.925C257.925 181.994 258.464 181.334 259.344 181.334C260.191 181.334 260.653 181.939 260.653 182.544C260.653 183.16 260.323 183.666 259.773 184.249L256.22 188Z" fill="#F7FAFC"/>
<path id="5035" d="M88.22 163H94.094V161.79H90.761L92.939 159.645C93.566 159.051 93.995 158.281 93.995 157.478C93.995 156.455 93.148 155.168 91.366 155.168C89.606 155.168 88.638 156.389 88.638 158.028H89.925C89.925 156.994 90.464 156.334 91.344 156.334C92.191 156.334 92.653 156.939 92.653 157.544C92.653 158.16 92.323 158.666 91.773 159.249L88.22 163Z" fill="#F7FAFC"/>
<path id="5011" d="M149.6 310.712L150.896 310.352V315H151.832V309.312L149.6 309.816V310.712Z" fill="#F7FAFC"/>
<path id="5012" d="M139.6 334.712L140.896 334.352V339H141.832V333.312L139.6 333.816V334.712Z" fill="#F7FAFC"/>
<path id="5013" d="M120.6 348.712L121.896 348.352V353H122.832V347.312L120.6 347.816V348.712Z" fill="#F7FAFC"/>
<path id="5014" d="M126.6 315.712L127.896 315.352V320H128.832V314.312L126.6 314.816V315.712Z" fill="#F7FAFC"/>
<path id="5015" d="M106.6 328.712L107.896 328.352V333H108.832V327.312L106.6 327.816V328.712Z" fill="#F7FAFC"/>
<path id="5016" d="M120.6 292.712L121.896 292.352V297H122.832V291.312L120.6 291.816V292.712Z" fill="#F7FAFC"/>
<path id="5017" d="M142.6 229.712L143.896 229.352V234H144.832V228.312L142.6 228.816V229.712Z" fill="#F7FAFC"/>
<path id="5018" d="M118.6 226.712L119.896 226.352V231H120.832V225.312L118.6 225.816V226.712Z" fill="#F7FAFC"/>
<path id="5019" d="M108.6 204.712L109.896 204.352V209H110.832V203.312L108.6 203.816V204.712Z" fill="#F7FAFC"/>
<path id="5020" d="M85.6 196.712L86.896 196.352V201H87.832V195.312L85.6 195.816V196.712Z" fill="#F7FAFC"/>
<path id="5022" d="M50.6 245.712L51.896 245.352V250H52.832V244.312L50.6 244.816V245.712Z" fill="#F7FAFC"/>
<path id="5023" d="M184.6 195.712L185.896 195.352V200H186.832V194.312L184.6 194.816V195.712Z" fill="#F7FAFC"/>
<path id="5024" d="M200.6 213.712L201.896 213.352V218H202.832V212.312L200.6 212.816V213.712Z" fill="#F7FAFC"/>
<path id="5025" d="M224.6 212.712L225.896 212.352V217H226.832V211.312L224.6 211.816V212.712Z" fill="#F7FAFC"/>
<path id="5026" d="M248.6 208.712L249.896 208.352V213H250.832V207.312L248.6 207.816V208.712Z" fill="#F7FAFC"/>
<path id="5027" d="M231.6 190.712L232.896 190.352V195H233.832V189.312L231.6 189.816V190.712Z" fill="#F7FAFC"/>
<path id="5028" d="M207.6 190.712L208.896 190.352V195H209.832V189.312L207.6 189.816V190.712Z" fill="#F7FAFC"/>
<path id="5029" d="M231.6 166.712L232.896 166.352V171H233.832V165.312L231.6 165.816V166.712Z" fill="#F7FAFC"/>
<path id="5030" d="M171.6 175.712L172.896 175.352V180H173.832V174.312L171.6 174.816V175.712Z" fill="#F7FAFC"/>
<path id="5031" d="M199.6 236.712L200.896 236.352V241H201.832V235.312L199.6 235.816V236.712Z" fill="#F7FAFC"/>
<path id="5021" d="M109.6 180.712L110.896 180.352V185H111.832V179.312L109.6 179.816V180.712Z" fill="#F7FAFC"/>
<path id="5000" d="M183.6 253.712L184.896 253.352V258H185.832V252.312L183.6 252.816V253.712Z" fill="#F7FAFC"/>
</g>
<path id="text3" d="M210.48 135C212.928 135 214.68 133.308 214.68 130.8C214.68 128.292 212.928 126.6 210.48 126.6H207.96V135H210.48ZM210.48 127.62C212.376 127.62 213.66 128.844 213.66 130.8C213.66 132.756 212.376 133.98 210.48 133.98H208.98V127.62H210.48ZM216.224 130.752C216.476 130.56 217.052 130.2 217.88 130.2C218.564 130.2 219.128 130.416 219.128 131.172V131.976C218.804 131.772 218.288 131.568 217.556 131.568C216.2 131.568 215.396 132.276 215.396 133.344C215.396 134.472 216.284 135.12 217.304 135.12C217.976 135.12 218.768 134.844 219.128 134.256V135H220.088V131.04C220.088 129.972 219.212 129.36 217.928 129.36C216.908 129.36 216.176 129.744 215.756 130.044L216.224 130.752ZM216.368 133.296C216.368 132.696 216.776 132.324 217.712 132.324C218.228 132.324 218.684 132.42 219.128 132.636V132.84C219.128 133.716 218.432 134.292 217.556 134.292C216.848 134.292 216.368 133.932 216.368 133.296ZM220.754 129.48V130.38H221.654V135H222.614V130.38H223.514V129.48H222.614V127.56H221.654V129.48H220.754ZM224.644 130.752C224.896 130.56 225.472 130.2 226.3 130.2C226.984 130.2 227.548 130.416 227.548 131.172V131.976C227.224 131.772 226.708 131.568 225.976 131.568C224.62 131.568 223.816 132.276 223.816 133.344C223.816 134.472 224.704 135.12 225.724 135.12C226.396 135.12 227.188 134.844 227.548 134.256V135H228.508V131.04C228.508 129.972 227.632 129.36 226.348 129.36C225.328 129.36 224.596 129.744 224.176 130.044L224.644 130.752ZM224.788 133.296C224.788 132.696 225.196 132.324 226.132 132.324C226.648 132.324 227.104 132.42 227.548 132.636V132.84C227.548 133.716 226.852 134.292 225.976 134.292C225.268 134.292 224.788 133.932 224.788 133.296ZM232.711 127.56H234.871V135H235.891V127.56H238.051V126.6H232.711V127.56ZM242.966 129.48H241.886L240.374 133.284L238.826 129.48H237.686L239.798 134.22L238.286 137.64H239.366L242.966 129.48ZM244.651 137.64V134.052C245.059 134.736 245.719 135.12 246.535 135.12C248.035 135.12 249.271 134.028 249.271 132.24C249.271 130.452 248.035 129.36 246.535 129.36C245.719 129.36 245.059 129.744 244.651 130.428V129.48H243.691V137.64H244.651ZM248.299 132.24C248.299 133.512 247.435 134.22 246.415 134.22C245.575 134.22 244.651 133.512 244.651 132.24C244.651 130.968 245.575 130.26 246.415 130.26C247.435 130.26 248.299 130.968 248.299 132.24ZM252.611 135.12C253.787 135.12 254.663 134.652 255.239 133.716L254.459 133.224C254.051 133.896 253.475 134.22 252.731 134.22C251.699 134.22 251.063 133.596 250.979 132.48H255.323C255.323 132.456 255.335 132.312 255.335 132.192C255.335 130.44 254.351 129.36 252.731 129.36C251.099 129.36 249.995 130.524 249.995 132.24C249.995 133.944 251.063 135.12 252.611 135.12ZM252.731 130.2C253.619 130.2 254.219 130.776 254.291 131.664H251.015C251.183 130.728 251.783 130.2 252.731 130.2Z" fill="#0F1938"/>
</g>
<g id="Legend_Sizes">
<g id="Bubbles">
<circle id="Ellipse 263" cx="244.5" cy="78.5" r="9" stroke="#3749A9"/>
<path id="Ellipse 264" d="M259.5 72.5C259.5 80.7694 252.575 87.5 244 87.5C235.425 87.5 228.5 80.7694 228.5 72.5C228.5 64.2306 235.425 57.5 244 57.5C252.575 57.5 259.5 64.2306 259.5 72.5Z" stroke="#3749A9"/>
<path id="Ellipse 265" d="M265.5 65.5C265.5 77.6609 255.864 87.5 244 87.5C232.136 87.5 222.5 77.6609 222.5 65.5C222.5 53.3391 232.136 43.5 244 43.5C255.864 43.5 265.5 53.3391 265.5 65.5Z" stroke="#3749A9"/>
<path id="Ellipse 266" d="M272.5 60.5C272.5 75.395 259.981 87.5 244.5 87.5C229.019 87.5 216.5 75.395 216.5 60.5C216.5 45.605 229.019 33.5 244.5 33.5C259.981 33.5 272.5 45.605 272.5 60.5Z" stroke="#3749A9"/>
<circle id="Ellipse 267" cx="244" cy="56" r="31.5" stroke="#3749A9"/>
<circle id="Ellipse 268" cx="244" cy="52" r="35.5" stroke="#3749A9"/>
<circle id="Ellipse 269" cx="244" cy="49" r="38.5" stroke="#3749A9"/>
</g>
<g id="Scale">
<g id="Lines">
<path id="Line" d="M267.469 87.5H296.531" stroke="#0F1938" stroke-linecap="square"/>
<path id="Line_2" d="M287 69.5H297" stroke="#0F1938" stroke-linecap="square"/>
<path id="Line_3" d="M292.078 43.5H296.922" stroke="#0F1938" stroke-linecap="square"/>
<path id="Line_4" d="M292.078 57.5H296.922" stroke="#0F1938" stroke-linecap="square"/>
<path id="Line_5" d="M292.078 33.5H296.922" stroke="#0F1938" stroke-linecap="square"/>
<path id="Line_6" d="M292.078 24.5H296.922" stroke="#0F1938" stroke-linecap="square"/>
<path id="Line_7" d="M287.156 16.5H296.844" stroke="#0F1938" stroke-linecap="square"/>
<path id="Line_8" d="M267.469 10.5H296.531" stroke="#0F1938" stroke-linecap="square"/>
</g>
<g id="Numbers_2">
<path id="18" d="M300.75 4.64L302.37 4.19V10H303.54V2.89L300.75 3.52V4.64ZM305.267 8.1C305.267 9.27 306.317 10.12 307.617 10.12C308.917 10.12 309.977 9.27 309.977 8.1C309.977 7.17 309.417 6.57 308.697 6.28C309.307 6 309.727 5.46 309.727 4.69C309.727 3.62 308.797 2.88 307.617 2.88C306.437 2.88 305.517 3.62 305.517 4.69C305.517 5.46 305.927 6 306.537 6.28C305.827 6.57 305.267 7.17 305.267 8.1ZM306.637 4.81C306.637 4.23 307.047 3.81 307.617 3.81C308.187 3.81 308.597 4.23 308.597 4.81C308.597 5.39 308.157 5.8 307.617 5.8C307.077 5.8 306.637 5.39 306.637 4.81ZM306.427 7.94C306.427 7.28 306.997 6.76 307.617 6.76C308.237 6.76 308.817 7.28 308.817 7.94C308.817 8.7 308.237 9.13 307.617 9.13C306.997 9.13 306.427 8.7 306.427 7.94Z" fill="#0F1938"/>
<path id="15" d="M300.75 12.64L302.37 12.19V18H303.54V10.89L300.75 11.52V12.64ZM310.287 15.72C310.287 14.31 309.347 13.39 308.187 13.39C307.797 13.39 307.427 13.47 307.077 13.64L307.517 12.04H310.227V11H306.627L305.677 14.85C306.387 14.41 306.917 14.3 307.537 14.3C308.347 14.3 309.027 14.8 309.027 15.65C309.027 16.5 308.477 17.01 307.537 17.01C306.867 17.01 306.177 16.57 305.767 16.02L305.077 16.87C305.617 17.55 306.407 18.11 307.697 18.11C309.047 18.11 310.287 17.33 310.287 15.72Z" fill="#0F1938"/>
<path id="12" d="M300.75 20.64L302.37 20.19V26H303.54V18.89L300.75 19.52V20.64ZM304.927 26H310.267V24.9H307.237L309.217 22.95C309.787 22.41 310.177 21.71 310.177 20.98C310.177 20.05 309.407 18.88 307.787 18.88C306.187 18.88 305.307 19.99 305.307 21.48H306.477C306.477 20.54 306.967 19.94 307.767 19.94C308.537 19.94 308.957 20.49 308.957 21.04C308.957 21.6 308.657 22.06 308.157 22.59L304.927 26Z" fill="#0F1938"/>
<path id="9" d="M302.82 34.99L305.04 32.01C305.39 31.56 305.64 31.01 305.64 30.36C305.64 28.81 304.51 27.88 303.07 27.88C301.63 27.88 300.5 28.81 300.5 30.36C300.5 31.7 301.51 32.63 302.61 32.63C302.89 32.63 303.12 32.6 303.32 32.51L301.32 34.99H302.82ZM304.48 30.36C304.48 31.22 303.88 31.83 303.07 31.83C302.26 31.83 301.65 31.22 301.65 30.36C301.65 29.5 302.26 28.91 303.07 28.91C303.88 28.91 304.48 29.5 304.48 30.36Z" fill="#0F1938"/>
<path id="6" d="M303.31 38.01L301.09 40.99C300.74 41.44 300.5 41.99 300.5 42.64C300.5 44.19 301.63 45.12 303.07 45.12C304.51 45.12 305.64 44.19 305.64 42.64C305.64 41.3 304.63 40.37 303.53 40.37C303.24 40.37 303.01 40.4 302.8 40.5L304.81 38.01H303.31ZM301.65 42.64C301.65 41.78 302.26 41.17 303.07 41.17C303.88 41.17 304.48 41.78 304.48 42.64C304.48 43.5 303.88 44.09 303.07 44.09C302.26 44.09 301.65 43.5 301.65 42.64Z" fill="#0F1938"/>
<path id="19" d="M302.97 58.12C304.41 58.12 305.37 57.33 305.37 56.13C305.37 55.18 304.81 54.6 303.97 54.33C304.7 54.04 305.17 53.49 305.17 52.78C305.17 51.75 304.37 50.89 303.02 50.89C301.73 50.89 300.85 51.71 300.85 52.86H301.96C301.96 52.3 302.43 51.89 303.03 51.89C303.66 51.89 303.98 52.28 303.98 52.84C303.98 53.44 303.47 53.94 302.62 53.94V54.83C303.57 54.83 304.18 55.25 304.18 56C304.18 56.7 303.7 57.1 302.99 57.1C302.28 57.1 301.74 56.67 301.74 56H300.55C300.55 57.15 301.48 58.12 302.97 58.12Z" fill="#0F1938"/>
<path id="1" d="M300.75 65.64L302.37 65.19V71H303.54V63.89L300.75 64.52V65.64Z" fill="#0F1938"/>
<path id="0" d="M300.4 84.5C300.4 86.67 301.5 88.11 303.12 88.11C304.76 88.11 305.85 86.67 305.85 84.5C305.85 82.33 304.76 80.89 303.12 80.89C301.5 80.89 300.4 82.33 300.4 84.5ZM301.56 84.5C301.56 82.99 302.16 81.95 303.12 81.95C304.08 81.95 304.69 82.99 304.69 84.5C304.69 86.01 304.08 87.05 303.12 87.05C302.16 87.05 301.56 86.01 301.56 84.5Z" fill="#0F1938"/>
</g>
</g>
</g>
<path id="Line 164" d="M185 131L205 131" stroke="#002850"/>
<circle id="Ellipse 260" cx="160.5" cy="235.5" r="149" stroke="#0F1938"/>
<path id="Line 166" d="M146 120L146 69" stroke="#002850"/>
<path id="text2" d="M125.32 10.6V16.852L118.96 10.18V19H119.98V12.748L126.34 19.42V10.6H125.32ZM129.045 16.84V13.48H128.085V16.96C128.085 18.28 128.829 19.12 129.981 19.12C130.713 19.12 131.253 18.796 131.625 18.136V19H132.585V13.48H131.625V16.84C131.625 17.656 131.061 18.22 130.221 18.22C129.453 18.22 129.045 17.728 129.045 16.84ZM141.829 15.52C141.829 14.152 141.181 13.36 140.053 13.36C139.309 13.36 138.733 13.708 138.349 14.392C138.097 13.732 137.521 13.36 136.753 13.36C136.069 13.36 135.565 13.66 135.229 14.284V13.48H134.269V19H135.229V15.64C135.229 14.776 135.721 14.26 136.513 14.26C137.233 14.26 137.569 14.692 137.569 15.64V19H138.529V15.64C138.529 14.776 139.021 14.26 139.813 14.26C140.533 14.26 140.869 14.692 140.869 15.64V19H141.829V15.52ZM149.033 16.24C149.033 14.452 147.797 13.36 146.297 13.36C145.481 13.36 144.821 13.744 144.413 14.428V9.64H143.453V19H144.413V18.052C144.821 18.736 145.481 19.12 146.297 19.12C147.797 19.12 149.033 18.028 149.033 16.24ZM148.061 16.24C148.061 17.512 147.197 18.22 146.177 18.22C145.337 18.22 144.413 17.512 144.413 16.24C144.413 14.968 145.337 14.26 146.177 14.26C147.197 14.26 148.061 14.968 148.061 16.24ZM152.372 19.12C153.548 19.12 154.424 18.652 155 17.716L154.22 17.224C153.812 17.896 153.236 18.22 152.492 18.22C151.46 18.22 150.824 17.596 150.74 16.48H155.084C155.084 16.456 155.096 16.312 155.096 16.192C155.096 14.44 154.112 13.36 152.492 13.36C150.86 13.36 149.756 14.524 149.756 16.24C149.756 17.944 150.824 19.12 152.372 19.12ZM152.492 14.2C153.38 14.2 153.98 14.776 154.052 15.664H150.776C150.944 14.728 151.544 14.2 152.492 14.2ZM158.92 14.536L159.448 13.744C159.16 13.444 158.812 13.36 158.416 13.36C157.996 13.36 157.564 13.648 157.252 14.116V13.48H156.292V19H157.252V15.64C157.252 14.848 157.456 14.26 158.176 14.26C158.488 14.26 158.656 14.344 158.92 14.536ZM163.283 16.24C163.283 17.908 164.519 19.12 166.139 19.12C167.759 19.12 168.995 17.908 168.995 16.24C168.995 14.572 167.759 13.36 166.139 13.36C164.519 13.36 163.283 14.572 163.283 16.24ZM164.255 16.24C164.255 15.088 165.059 14.26 166.139 14.26C167.219 14.26 168.023 15.088 168.023 16.24C168.023 17.392 167.219 18.22 166.139 18.22C165.059 18.22 164.255 17.392 164.255 16.24ZM169.774 13.48V14.38H170.314V19H171.274V14.38H172.534V13.48H171.274V11.56C171.274 10.768 171.49 10.48 171.85 10.48C172.042 10.48 172.27 10.516 172.438 10.792L172.966 10C172.786 9.76 172.426 9.52 171.91 9.52C170.902 9.52 170.314 10.132 170.314 11.44V13.48H169.774ZM118.06 27.48V28.38H118.96V33H119.92V28.38H120.82V27.48H119.92V25.56H118.96V27.48H118.06ZM121.663 25.2C121.663 25.56 121.963 25.86 122.323 25.86C122.683 25.86 122.983 25.56 122.983 25.2C122.983 24.84 122.683 24.54 122.323 24.54C121.963 24.54 121.663 24.84 121.663 25.2ZM121.843 27.48V33H122.803V27.48H121.843ZM132.22 29.52C132.22 28.152 131.572 27.36 130.444 27.36C129.7 27.36 129.124 27.708 128.74 28.392C128.488 27.732 127.912 27.36 127.144 27.36C126.46 27.36 125.956 27.66 125.62 28.284V27.48H124.66V33H125.62V29.64C125.62 28.776 126.112 28.26 126.904 28.26C127.624 28.26 127.96 28.692 127.96 29.64V33H128.92V29.64C128.92 28.776 129.412 28.26 130.204 28.26C130.924 28.26 131.26 28.692 131.26 29.64V33H132.22V29.52ZM136.039 33.12C137.215 33.12 138.091 32.652 138.667 31.716L137.887 31.224C137.479 31.896 136.903 32.22 136.159 32.22C135.127 32.22 134.491 31.596 134.407 30.48H138.751C138.751 30.456 138.763 30.312 138.763 30.192C138.763 28.44 137.779 27.36 136.159 27.36C134.527 27.36 133.423 28.524 133.423 30.24C133.423 31.944 134.491 33.12 136.039 33.12ZM136.159 28.2C137.047 28.2 137.647 28.776 137.719 29.664H134.443C134.611 28.728 135.211 28.2 136.159 28.2ZM140.187 31.308L139.431 31.776C139.731 32.436 140.535 33.12 141.639 33.12C142.767 33.12 143.535 32.4 143.535 31.44C143.535 30.456 142.755 30.084 141.795 29.688C141.207 29.448 140.643 29.196 140.643 28.752C140.643 28.38 140.979 28.212 141.375 28.212C141.951 28.212 142.419 28.524 142.719 28.932L143.487 28.44C143.151 27.828 142.371 27.36 141.495 27.36C140.595 27.36 139.707 27.828 139.707 28.812C139.707 29.784 140.559 30.192 141.291 30.468C141.927 30.708 142.563 30.972 142.563 31.548C142.563 31.98 142.227 32.244 141.687 32.244C141.003 32.244 140.523 31.824 140.187 31.308ZM147.317 27.48V28.38H148.217V33H149.177V28.38H150.077V27.48H149.177V25.56H148.217V27.48H147.317ZM154.459 29.64V33H155.419V29.52C155.419 28.092 154.663 27.36 153.523 27.36C152.803 27.36 152.215 27.744 151.879 28.356V23.64H150.919V33H151.879V29.64C151.879 28.848 152.443 28.26 153.283 28.26C154.063 28.26 154.459 28.728 154.459 29.64ZM159.24 33.12C160.416 33.12 161.292 32.652 161.868 31.716L161.088 31.224C160.68 31.896 160.104 32.22 159.36 32.22C158.328 32.22 157.692 31.596 157.608 30.48H161.952C161.952 30.456 161.964 30.312 161.964 30.192C161.964 28.44 160.98 27.36 159.36 27.36C157.728 27.36 156.624 28.524 156.624 30.24C156.624 31.944 157.692 33.12 159.24 33.12ZM159.36 28.2C160.248 28.2 160.848 28.776 160.92 29.664H157.644C157.812 28.728 158.412 28.2 159.36 28.2ZM166.157 30.24C166.157 32.028 167.393 33.12 168.893 33.12C169.709 33.12 170.369 32.736 170.777 32.052V33H171.737V23.64H170.777V28.428C170.369 27.744 169.709 27.36 168.893 27.36C167.393 27.36 166.157 28.452 166.157 30.24ZM167.129 30.24C167.129 28.968 167.993 28.26 169.013 28.26C169.853 28.26 170.777 28.968 170.777 30.24C170.777 31.512 169.853 32.22 169.013 32.22C167.993 32.22 167.129 31.512 167.129 30.24ZM173.649 28.752C173.901 28.56 174.477 28.2 175.305 28.2C175.989 28.2 176.553 28.416 176.553 29.172V29.976C176.229 29.772 175.713 29.568 174.981 29.568C173.625 29.568 172.821 30.276 172.821 31.344C172.821 32.472 173.709 33.12 174.729 33.12C175.401 33.12 176.193 32.844 176.553 32.256V33H177.513V29.04C177.513 27.972 176.637 27.36 175.353 27.36C174.333 27.36 173.601 27.744 173.181 28.044L173.649 28.752ZM173.793 31.296C173.793 30.696 174.201 30.324 175.137 30.324C175.653 30.324 176.109 30.42 176.553 30.636V30.84C176.553 31.716 175.857 32.292 174.981 32.292C174.273 32.292 173.793 31.932 173.793 31.296ZM178.179 27.48V28.38H179.079V33H180.039V28.38H180.939V27.48H180.039V25.56H179.079V27.48H178.179ZM182.069 28.752C182.321 28.56 182.897 28.2 183.725 28.2C184.409 28.2 184.973 28.416 184.973 29.172V29.976C184.649 29.772 184.133 29.568 183.401 29.568C182.045 29.568 181.241 30.276 181.241 31.344C181.241 32.472 182.129 33.12 183.149 33.12C183.821 33.12 184.613 32.844 184.973 32.256V33H185.933V29.04C185.933 27.972 185.057 27.36 183.773 27.36C182.753 27.36 182.021 27.744 181.601 28.044L182.069 28.752ZM182.213 31.296C182.213 30.696 182.621 30.324 183.557 30.324C184.073 30.324 184.529 30.42 184.973 30.636V30.84C184.973 31.716 184.277 32.292 183.401 32.292C182.693 32.292 182.213 31.932 182.213 31.296ZM118.06 41.48V42.38H118.96V47H119.92V42.38H120.82V41.48H119.92V39.56H118.96V41.48H118.06ZM126.043 41.48H124.963L123.451 45.284L121.903 41.48H120.763L122.875 46.22L121.363 49.64H122.443L126.043 41.48ZM127.728 49.64V46.052C128.136 46.736 128.796 47.12 129.612 47.12C131.112 47.12 132.348 46.028 132.348 44.24C132.348 42.452 131.112 41.36 129.612 41.36C128.796 41.36 128.136 41.744 127.728 42.428V41.48H126.768V49.64H127.728ZM131.376 44.24C131.376 45.512 130.512 46.22 129.492 46.22C128.652 46.22 127.728 45.512 127.728 44.24C127.728 42.968 128.652 42.26 129.492 42.26C130.512 42.26 131.376 42.968 131.376 44.24ZM135.688 47.12C136.864 47.12 137.74 46.652 138.316 45.716L137.536 45.224C137.128 45.896 136.552 46.22 135.808 46.22C134.776 46.22 134.14 45.596 134.056 44.48H138.4C138.4 44.456 138.412 44.312 138.412 44.192C138.412 42.44 137.428 41.36 135.808 41.36C134.176 41.36 133.072 42.524 133.072 44.24C133.072 45.944 134.14 47.12 135.688 47.12ZM135.808 42.2C136.696 42.2 137.296 42.776 137.368 43.664H134.092C134.26 42.728 134.86 42.2 135.808 42.2ZM139.836 45.308L139.08 45.776C139.38 46.436 140.184 47.12 141.288 47.12C142.416 47.12 143.184 46.4 143.184 45.44C143.184 44.456 142.404 44.084 141.444 43.688C140.856 43.448 140.292 43.196 140.292 42.752C140.292 42.38 140.628 42.212 141.024 42.212C141.6 42.212 142.068 42.524 142.368 42.932L143.136 42.44C142.8 41.828 142.02 41.36 141.144 41.36C140.244 41.36 139.356 41.828 139.356 42.812C139.356 43.784 140.208 44.192 140.94 44.468C141.576 44.708 142.212 44.972 142.212 45.548C142.212 45.98 141.876 46.244 141.336 46.244C140.652 46.244 140.172 45.824 139.836 45.308ZM151.345 43.64V47H152.305V43.52C152.305 42.092 151.549 41.36 150.409 41.36C149.689 41.36 149.101 41.744 148.765 42.356V37.64H147.805V47H148.765V43.64C148.765 42.848 149.329 42.26 150.169 42.26C150.949 42.26 151.345 42.728 151.345 43.64ZM154.278 42.752C154.53 42.56 155.106 42.2 155.934 42.2C156.618 42.2 157.182 42.416 157.182 43.172V43.976C156.858 43.772 156.342 43.568 155.61 43.568C154.254 43.568 153.45 44.276 153.45 45.344C153.45 46.472 154.338 47.12 155.358 47.12C156.03 47.12 156.822 46.844 157.182 46.256V47H158.142V43.04C158.142 41.972 157.266 41.36 155.982 41.36C154.962 41.36 154.23 41.744 153.81 42.044L154.278 42.752ZM154.422 45.296C154.422 44.696 154.83 44.324 155.766 44.324C156.282 44.324 156.738 44.42 157.182 44.636V44.84C157.182 45.716 156.486 46.292 155.61 46.292C154.902 46.292 154.422 45.932 154.422 45.296ZM158.688 41.48L161.328 47.42L163.968 41.48H162.888L161.328 45.38L159.768 41.48H158.688ZM166.714 47.12C167.89 47.12 168.766 46.652 169.342 45.716L168.562 45.224C168.154 45.896 167.578 46.22 166.834 46.22C165.802 46.22 165.166 45.596 165.082 44.48H169.426C169.426 44.456 169.438 44.312 169.438 44.192C169.438 42.44 168.454 41.36 166.834 41.36C165.202 41.36 164.098 42.524 164.098 44.24C164.098 45.944 165.166 47.12 166.714 47.12ZM166.834 42.2C167.722 42.2 168.322 42.776 168.394 43.664H165.118C165.286 42.728 165.886 42.2 166.834 42.2ZM124.42 58.24C124.42 56.452 123.184 55.36 121.684 55.36C120.868 55.36 120.208 55.744 119.8 56.428V51.64H118.84V61H119.8V60.052C120.208 60.736 120.868 61.12 121.684 61.12C123.184 61.12 124.42 60.028 124.42 58.24ZM123.448 58.24C123.448 59.512 122.584 60.22 121.564 60.22C120.724 60.22 119.8 59.512 119.8 58.24C119.8 56.968 120.724 56.26 121.564 56.26C122.584 56.26 123.448 56.968 123.448 58.24ZM127.76 61.12C128.936 61.12 129.812 60.652 130.388 59.716L129.608 59.224C129.2 59.896 128.624 60.22 127.88 60.22C126.848 60.22 126.212 59.596 126.128 58.48H130.472C130.472 58.456 130.484 58.312 130.484 58.192C130.484 56.44 129.5 55.36 127.88 55.36C126.248 55.36 125.144 56.524 125.144 58.24C125.144 59.944 126.212 61.12 127.76 61.12ZM127.88 56.2C128.768 56.2 129.368 56.776 129.44 57.664H126.164C126.332 56.728 126.932 56.2 127.88 56.2ZM133.816 61.12C134.992 61.12 135.868 60.652 136.444 59.716L135.664 59.224C135.256 59.896 134.68 60.22 133.936 60.22C132.904 60.22 132.268 59.596 132.184 58.48H136.528C136.528 58.456 136.54 58.312 136.54 58.192C136.54 56.44 135.556 55.36 133.936 55.36C132.304 55.36 131.2 56.524 131.2 58.24C131.2 59.944 132.268 61.12 133.816 61.12ZM133.936 56.2C134.824 56.2 135.424 56.776 135.496 57.664H132.22C132.388 56.728 132.988 56.2 133.936 56.2ZM141.275 57.64V61H142.235V57.52C142.235 56.188 141.503 55.36 140.339 55.36C139.619 55.36 139.067 55.672 138.695 56.344V55.48H137.735V61H138.695V57.64C138.695 56.824 139.259 56.26 140.099 56.26C140.867 56.26 141.275 56.728 141.275 57.64ZM147.626 59.308L146.87 59.776C147.17 60.436 147.974 61.12 149.078 61.12C150.206 61.12 150.974 60.4 150.974 59.44C150.974 58.456 150.194 58.084 149.234 57.688C148.646 57.448 148.082 57.196 148.082 56.752C148.082 56.38 148.418 56.212 148.814 56.212C149.39 56.212 149.858 56.524 150.158 56.932L150.926 56.44C150.59 55.828 149.81 55.36 148.934 55.36C148.034 55.36 147.146 55.828 147.146 56.812C147.146 57.784 147.998 58.192 148.73 58.468C149.366 58.708 150.002 58.972 150.002 59.548C150.002 59.98 149.666 60.244 149.126 60.244C148.442 60.244 147.962 59.824 147.626 59.308ZM155.657 57.64V61H156.617V57.52C156.617 56.092 155.861 55.36 154.721 55.36C154.001 55.36 153.413 55.744 153.077 56.356V51.64H152.117V61H153.077V57.64C153.077 56.848 153.641 56.26 154.481 56.26C155.261 56.26 155.657 56.728 155.657 57.64ZM158.59 56.752C158.842 56.56 159.418 56.2 160.246 56.2C160.93 56.2 161.494 56.416 161.494 57.172V57.976C161.17 57.772 160.654 57.568 159.922 57.568C158.566 57.568 157.762 58.276 157.762 59.344C157.762 60.472 158.65 61.12 159.67 61.12C160.342 61.12 161.134 60.844 161.494 60.256V61H162.454V57.04C162.454 55.972 161.578 55.36 160.294 55.36C159.274 55.36 158.542 55.744 158.122 56.044L158.59 56.752ZM158.734 59.296C158.734 58.696 159.142 58.324 160.078 58.324C160.594 58.324 161.05 58.42 161.494 58.636V58.84C161.494 59.716 160.798 60.292 159.922 60.292C159.214 60.292 158.734 59.932 158.734 59.296ZM166.588 56.536L167.116 55.744C166.828 55.444 166.48 55.36 166.084 55.36C165.664 55.36 165.232 55.648 164.92 56.116V55.48H163.96V61H164.92V57.64C164.92 56.848 165.124 56.26 165.844 56.26C166.156 56.26 166.324 56.344 166.588 56.536ZM169.913 61.12C171.089 61.12 171.965 60.652 172.541 59.716L171.761 59.224C171.353 59.896 170.777 60.22 170.033 60.22C169.001 60.22 168.365 59.596 168.281 58.48H172.625C172.625 58.456 172.637 58.312 172.637 58.192C172.637 56.44 171.653 55.36 170.033 55.36C168.401 55.36 167.297 56.524 167.297 58.24C167.297 59.944 168.365 61.12 169.913 61.12ZM170.033 56.2C170.921 56.2 171.521 56.776 171.593 57.664H168.317C168.485 56.728 169.085 56.2 170.033 56.2ZM173.353 58.24C173.353 60.028 174.589 61.12 176.089 61.12C176.905 61.12 177.565 60.736 177.973 60.052V61H178.933V51.64H177.973V56.428C177.565 55.744 176.905 55.36 176.089 55.36C174.589 55.36 173.353 56.452 173.353 58.24ZM174.325 58.24C174.325 56.968 175.189 56.26 176.209 56.26C177.049 56.26 177.973 56.968 177.973 58.24C177.973 59.512 177.049 60.22 176.209 60.22C175.189 60.22 174.325 59.512 174.325 58.24Z" fill="#0F1938"/>
<path id="Line 165" d="M63.498 69L85.8703 106.347" stroke="#002850"/>
<path id="text1" d="M17.72 19H18.86L14.96 10.18L11.06 19H12.2L13.268 16.48H16.652L17.72 19ZM14.96 12.496L16.244 15.52H13.676L14.96 12.496ZM27.2619 15.52C27.2619 14.152 26.6139 13.36 25.4859 13.36C24.7419 13.36 24.1659 13.708 23.7819 14.392C23.5299 13.732 22.9539 13.36 22.1859 13.36C21.5019 13.36 20.9979 13.66 20.6619 14.284V13.48H19.7019V19H20.6619V15.64C20.6619 14.776 21.1539 14.26 21.9459 14.26C22.6659 14.26 23.0019 14.692 23.0019 15.64V19H23.9619V15.64C23.9619 14.776 24.4539 14.26 25.2459 14.26C25.9659 14.26 26.3019 14.692 26.3019 15.64V19H27.2619V15.52ZM28.4652 16.24C28.4652 17.908 29.7012 19.12 31.3212 19.12C32.9412 19.12 34.1772 17.908 34.1772 16.24C34.1772 14.572 32.9412 13.36 31.3212 13.36C29.7012 13.36 28.4652 14.572 28.4652 16.24ZM29.4372 16.24C29.4372 15.088 30.2412 14.26 31.3212 14.26C32.4012 14.26 33.2052 15.088 33.2052 16.24C33.2052 17.392 32.4012 18.22 31.3212 18.22C30.2412 18.22 29.4372 17.392 29.4372 16.24ZM36.3359 16.84V13.48H35.3759V16.96C35.3759 18.28 36.1199 19.12 37.2719 19.12C38.0039 19.12 38.5439 18.796 38.9159 18.136V19H39.8759V13.48H38.9159V16.84C38.9159 17.656 38.3519 18.22 37.5119 18.22C36.7439 18.22 36.3359 17.728 36.3359 16.84ZM45.1006 15.64V19H46.0606V15.52C46.0606 14.188 45.3286 13.36 44.1646 13.36C43.4446 13.36 42.8926 13.672 42.5206 14.344V13.48H41.5606V19H42.5206V15.64C42.5206 14.824 43.0846 14.26 43.9246 14.26C44.6926 14.26 45.1006 14.728 45.1006 15.64ZM46.9053 13.48V14.38H47.8053V19H48.7653V14.38H49.6653V13.48H48.7653V11.56H47.8053V13.48H46.9053ZM53.5058 16.24C53.5058 17.908 54.7418 19.12 56.3618 19.12C57.9818 19.12 59.2178 17.908 59.2178 16.24C59.2178 14.572 57.9818 13.36 56.3618 13.36C54.7418 13.36 53.5058 14.572 53.5058 16.24ZM54.4778 16.24C54.4778 15.088 55.2818 14.26 56.3618 14.26C57.4418 14.26 58.2458 15.088 58.2458 16.24C58.2458 17.392 57.4418 18.22 56.3618 18.22C55.2818 18.22 54.4778 17.392 54.4778 16.24ZM59.9966 13.48V14.38H60.5366V19H61.4966V14.38H62.7566V13.48H61.4966V11.56C61.4966 10.768 61.7126 10.48 62.0726 10.48C62.2646 10.48 62.4926 10.516 62.6606 10.792L63.1886 10C63.0086 9.76 62.6486 9.52 62.1326 9.52C61.1246 9.52 60.5366 10.132 60.5366 11.44V13.48H59.9966ZM69.7878 19C72.2358 19 73.9878 17.308 73.9878 14.8C73.9878 12.292 72.2358 10.6 69.7878 10.6H67.2678V19H69.7878ZM69.7878 11.62C71.6838 11.62 72.9678 12.844 72.9678 14.8C72.9678 16.756 71.6838 17.98 69.7878 17.98H68.2878V11.62H69.7878ZM75.5321 14.752C75.7841 14.56 76.3601 14.2 77.1881 14.2C77.8721 14.2 78.4361 14.416 78.4361 15.172V15.976C78.1121 15.772 77.5961 15.568 76.8641 15.568C75.5081 15.568 74.7041 16.276 74.7041 17.344C74.7041 18.472 75.5921 19.12 76.6121 19.12C77.2841 19.12 78.0761 18.844 78.4361 18.256V19H79.3961V15.04C79.3961 13.972 78.5201 13.36 77.2361 13.36C76.2161 13.36 75.4841 13.744 75.0641 14.044L75.5321 14.752ZM75.6761 17.296C75.6761 16.696 76.0841 16.324 77.0201 16.324C77.5361 16.324 77.9921 16.42 78.4361 16.636V16.84C78.4361 17.716 77.7401 18.292 76.8641 18.292C76.1561 18.292 75.6761 17.932 75.6761 17.296ZM80.0614 13.48V14.38H80.9614V19H81.9214V14.38H82.8214V13.48H81.9214V11.56H80.9614V13.48H80.0614ZM83.9522 14.752C84.2042 14.56 84.7802 14.2 85.6082 14.2C86.2922 14.2 86.8562 14.416 86.8562 15.172V15.976C86.5322 15.772 86.0162 15.568 85.2842 15.568C83.9282 15.568 83.1242 16.276 83.1242 17.344C83.1242 18.472 84.0122 19.12 85.0322 19.12C85.7042 19.12 86.4962 18.844 86.8562 18.256V19H87.8162V15.04C87.8162 13.972 86.9402 13.36 85.6562 13.36C84.6362 13.36 83.9042 13.744 83.4842 14.044L83.9522 14.752ZM84.0962 17.296C84.0962 16.696 84.5042 16.324 85.4402 16.324C85.9562 16.324 86.4122 16.42 86.8562 16.636V16.84C86.8562 17.716 86.1602 18.292 85.2842 18.292C84.5762 18.292 84.0962 17.932 84.0962 17.296ZM11.12 25.56H13.28V33H14.3V25.56H16.46V24.6H11.12V25.56ZM21.3748 27.48H20.2948L18.7828 31.284L17.2348 27.48H16.0948L18.2068 32.22L16.6948 35.64H17.7748L21.3748 27.48ZM23.06 35.64V32.052C23.468 32.736 24.128 33.12 24.944 33.12C26.444 33.12 27.68 32.028 27.68 30.24C27.68 28.452 26.444 27.36 24.944 27.36C24.128 27.36 23.468 27.744 23.06 28.428V27.48H22.1V35.64H23.06ZM26.708 30.24C26.708 31.512 25.844 32.22 24.824 32.22C23.984 32.22 23.06 31.512 23.06 30.24C23.06 28.968 23.984 28.26 24.824 28.26C25.844 28.26 26.708 28.968 26.708 30.24ZM31.0197 33.12C32.1957 33.12 33.0717 32.652 33.6477 31.716L32.8677 31.224C32.4597 31.896 31.8837 32.22 31.1397 32.22C30.1077 32.22 29.4717 31.596 29.3877 30.48H33.7317C33.7317 30.456 33.7437 30.312 33.7437 30.192C33.7437 28.44 32.7597 27.36 31.1397 27.36C29.5077 27.36 28.4037 28.524 28.4037 30.24C28.4037 31.944 29.4717 33.12 31.0197 33.12ZM31.1397 28.2C32.0277 28.2 32.6277 28.776 32.6997 29.664H29.4237C29.5917 28.728 30.1917 28.2 31.1397 28.2ZM35.1675 31.308L34.4115 31.776C34.7115 32.436 35.5155 33.12 36.6195 33.12C37.7475 33.12 38.5155 32.4 38.5155 31.44C38.5155 30.456 37.7355 30.084 36.7755 29.688C36.1875 29.448 35.6235 29.196 35.6235 28.752C35.6235 28.38 35.9595 28.212 36.3555 28.212C36.9315 28.212 37.3995 28.524 37.6995 28.932L38.4675 28.44C38.1315 27.828 37.3515 27.36 36.4755 27.36C35.5755 27.36 34.6875 27.828 34.6875 28.812C34.6875 29.784 35.5395 30.192 36.2715 30.468C36.9075 30.708 37.5435 30.972 37.5435 31.548C37.5435 31.98 37.2075 32.244 36.6675 32.244C35.9835 32.244 35.5035 31.824 35.1675 31.308ZM43.365 31.308L42.609 31.776C42.909 32.436 43.713 33.12 44.817 33.12C45.945 33.12 46.713 32.4 46.713 31.44C46.713 30.456 45.933 30.084 44.973 29.688C44.385 29.448 43.821 29.196 43.821 28.752C43.821 28.38 44.157 28.212 44.553 28.212C45.129 28.212 45.597 28.524 45.897 28.932L46.665 28.44C46.329 27.828 45.549 27.36 44.673 27.36C43.773 27.36 42.885 27.828 42.885 28.812C42.885 29.784 43.737 30.192 44.469 30.468C45.105 30.708 45.741 30.972 45.741 31.548C45.741 31.98 45.405 32.244 44.865 32.244C44.181 32.244 43.701 31.824 43.365 31.308ZM51.3969 29.64V33H52.3569V29.52C52.3569 28.092 51.6009 27.36 50.4609 27.36C49.7409 27.36 49.1529 27.744 48.8169 28.356V23.64H47.8569V33H48.8169V29.64C48.8169 28.848 49.3809 28.26 50.2209 28.26C51.0009 28.26 51.3969 28.728 51.3969 29.64ZM54.3296 28.752C54.5816 28.56 55.1576 28.2 55.9856 28.2C56.6696 28.2 57.2336 28.416 57.2336 29.172V29.976C56.9096 29.772 56.3936 29.568 55.6616 29.568C54.3056 29.568 53.5016 30.276 53.5016 31.344C53.5016 32.472 54.3896 33.12 55.4096 33.12C56.0816 33.12 56.8736 32.844 57.2336 32.256V33H58.1936V29.04C58.1936 27.972 57.3176 27.36 56.0336 27.36C55.0136 27.36 54.2816 27.744 53.8616 28.044L54.3296 28.752ZM54.4736 31.296C54.4736 30.696 54.8816 30.324 55.8176 30.324C56.3336 30.324 56.7896 30.42 57.2336 30.636V30.84C57.2336 31.716 56.5376 32.292 55.6616 32.292C54.9536 32.292 54.4736 31.932 54.4736 31.296ZM62.3269 28.536L62.8549 27.744C62.5669 27.444 62.2189 27.36 61.8229 27.36C61.4029 27.36 60.9709 27.648 60.6589 28.116V27.48H59.6989V33H60.6589V29.64C60.6589 28.848 60.8629 28.26 61.5829 28.26C61.8949 28.26 62.0629 28.344 62.3269 28.536ZM65.6524 33.12C66.8284 33.12 67.7044 32.652 68.2804 31.716L67.5004 31.224C67.0924 31.896 66.5164 32.22 65.7724 32.22C64.7404 32.22 64.1044 31.596 64.0204 30.48H68.3644C68.3644 30.456 68.3764 30.312 68.3764 30.192C68.3764 28.44 67.3924 27.36 65.7724 27.36C64.1404 27.36 63.0364 28.524 63.0364 30.24C63.0364 31.944 64.1044 33.12 65.6524 33.12ZM65.7724 28.2C66.6604 28.2 67.2604 28.776 67.3324 29.664H64.0564C64.2244 28.728 64.8244 28.2 65.7724 28.2ZM69.0922 30.24C69.0922 32.028 70.3282 33.12 71.8282 33.12C72.6442 33.12 73.3042 32.736 73.7122 32.052V33H74.6722V23.64H73.7122V28.428C73.3042 27.744 72.6442 27.36 71.8282 27.36C70.3282 27.36 69.0922 28.452 69.0922 30.24ZM70.0642 30.24C70.0642 28.968 70.9282 28.26 71.9482 28.26C72.7882 28.26 73.7122 28.968 73.7122 30.24C73.7122 31.512 72.7882 32.22 71.9482 32.22C70.9282 32.22 70.0642 31.512 70.0642 30.24ZM11.06 41.48L13.46 47.42L15.032 43.4L16.7 47.42L19.1 41.48H18.02L16.628 45.092L15.02 41.06L13.52 45.068L12.14 41.48H11.06ZM19.9363 39.2C19.9363 39.56 20.2363 39.86 20.5963 39.86C20.9563 39.86 21.2563 39.56 21.2563 39.2C21.2563 38.84 20.9563 38.54 20.5963 38.54C20.2363 38.54 19.9363 38.84 19.9363 39.2ZM20.1163 41.48V47H21.0763V41.48H20.1163ZM22.0934 41.48V42.38H22.9934V47H23.9534V42.38H24.8534V41.48H23.9534V39.56H22.9934V41.48H22.0934ZM29.2363 43.64V47H30.1963V43.52C30.1963 42.092 29.4403 41.36 28.3003 41.36C27.5803 41.36 26.9923 41.744 26.6563 42.356V37.64H25.6963V47H26.6563V43.64C26.6563 42.848 27.2203 42.26 28.0603 42.26C28.8403 42.26 29.2363 42.728 29.2363 43.64ZM34.8786 44.24C34.8786 45.908 36.1146 47.12 37.7346 47.12C39.3546 47.12 40.5906 45.908 40.5906 44.24C40.5906 42.572 39.3546 41.36 37.7346 41.36C36.1146 41.36 34.8786 42.572 34.8786 44.24ZM35.8506 44.24C35.8506 43.088 36.6546 42.26 37.7346 42.26C38.8146 42.26 39.6186 43.088 39.6186 44.24C39.6186 45.392 38.8146 46.22 37.7346 46.22C36.6546 46.22 35.8506 45.392 35.8506 44.24ZM40.9494 41.48V42.38H41.8494V47H42.8094V42.38H43.7094V41.48H42.8094V39.56H41.8494V41.48H40.9494ZM48.0922 43.64V47H49.0522V43.52C49.0522 42.092 48.2962 41.36 47.1562 41.36C46.4362 41.36 45.8482 41.744 45.5122 42.356V37.64H44.5522V47H45.5122V43.64C45.5122 42.848 46.0762 42.26 46.9162 42.26C47.6962 42.26 48.0922 42.728 48.0922 43.64ZM52.8729 47.12C54.0489 47.12 54.9249 46.652 55.5009 45.716L54.7209 45.224C54.3129 45.896 53.7369 46.22 52.9929 46.22C51.9609 46.22 51.3249 45.596 51.2409 44.48H55.5849C55.5849 44.456 55.5969 44.312 55.5969 44.192C55.5969 42.44 54.6129 41.36 52.9929 41.36C51.3609 41.36 50.2569 42.524 50.2569 44.24C50.2569 45.944 51.3249 47.12 52.8729 47.12ZM52.9929 42.2C53.8809 42.2 54.4809 42.776 54.5529 43.664H51.2769C51.4449 42.728 52.0449 42.2 52.9929 42.2ZM59.4207 42.536L59.9487 41.744C59.6607 41.444 59.3127 41.36 58.9167 41.36C58.4967 41.36 58.0647 41.648 57.7527 42.116V41.48H56.7927V47H57.7527V43.64C57.7527 42.848 57.9567 42.26 58.6767 42.26C58.9887 42.26 59.1567 42.344 59.4207 42.536ZM12.332 58.24C12.332 57.088 13.136 56.26 14.216 56.26C15.104 56.26 15.884 56.728 16.136 57.268V56.068C15.752 55.624 14.972 55.36 14.216 55.36C12.596 55.36 11.36 56.572 11.36 58.24C11.36 59.908 12.596 61.12 14.216 61.12C14.972 61.12 15.752 60.868 16.136 60.412V59.212C15.884 59.752 15.104 60.22 14.216 60.22C13.136 60.22 12.332 59.392 12.332 58.24ZM17.0305 58.24C17.0305 59.908 18.2665 61.12 19.8865 61.12C21.5065 61.12 22.7425 59.908 22.7425 58.24C22.7425 56.572 21.5065 55.36 19.8865 55.36C18.2665 55.36 17.0305 56.572 17.0305 58.24ZM18.0025 58.24C18.0025 57.088 18.8065 56.26 19.8865 56.26C20.9665 56.26 21.7705 57.088 21.7705 58.24C21.7705 59.392 20.9665 60.22 19.8865 60.22C18.8065 60.22 18.0025 59.392 18.0025 58.24ZM31.5013 57.52C31.5013 56.152 30.8533 55.36 29.7253 55.36C28.9813 55.36 28.4053 55.708 28.0213 56.392C27.7693 55.732 27.1933 55.36 26.4253 55.36C25.7413 55.36 25.2373 55.66 24.9013 56.284V55.48H23.9413V61H24.9013V57.64C24.9013 56.776 25.3933 56.26 26.1853 56.26C26.9053 56.26 27.2413 56.692 27.2413 57.64V61H28.2013V57.64C28.2013 56.776 28.6933 56.26 29.4853 56.26C30.2053 56.26 30.5413 56.692 30.5413 57.64V61H31.5013V57.52ZM34.0845 63.64V60.052C34.4925 60.736 35.1525 61.12 35.9685 61.12C37.4685 61.12 38.7045 60.028 38.7045 58.24C38.7045 56.452 37.4685 55.36 35.9685 55.36C35.1525 55.36 34.4925 55.744 34.0845 56.428V55.48H33.1245V63.64H34.0845ZM37.7325 58.24C37.7325 59.512 36.8685 60.22 35.8485 60.22C35.0085 60.22 34.0845 59.512 34.0845 58.24C34.0845 56.968 35.0085 56.26 35.8485 56.26C36.8685 56.26 37.7325 56.968 37.7325 58.24ZM40.1963 56.752C40.4483 56.56 41.0243 56.2 41.8523 56.2C42.5363 56.2 43.1003 56.416 43.1003 57.172V57.976C42.7763 57.772 42.2603 57.568 41.5283 57.568C40.1723 57.568 39.3683 58.276 39.3683 59.344C39.3683 60.472 40.2563 61.12 41.2763 61.12C41.9483 61.12 42.7403 60.844 43.1003 60.256V61H44.0603V57.04C44.0603 55.972 43.1843 55.36 41.9003 55.36C40.8803 55.36 40.1483 55.744 39.7283 56.044L40.1963 56.752ZM40.3403 59.296C40.3403 58.696 40.7483 58.324 41.6843 58.324C42.2003 58.324 42.6563 58.42 43.1003 58.636V58.84C43.1003 59.716 42.4043 60.292 41.5283 60.292C40.8203 60.292 40.3403 59.932 40.3403 59.296ZM49.1056 57.64V61H50.0656V57.52C50.0656 56.188 49.3336 55.36 48.1696 55.36C47.4496 55.36 46.8976 55.672 46.5256 56.344V55.48H45.5656V61H46.5256V57.64C46.5256 56.824 47.0896 56.26 47.9296 56.26C48.6976 56.26 49.1056 56.728 49.1056 57.64ZM51.7503 53.2C51.7503 53.56 52.0503 53.86 52.4103 53.86C52.7703 53.86 53.0703 53.56 53.0703 53.2C53.0703 52.84 52.7703 52.54 52.4103 52.54C52.0503 52.54 51.7503 52.84 51.7503 53.2ZM51.9303 55.48V61H52.8903V55.48H51.9303ZM56.8835 61.12C58.0595 61.12 58.9355 60.652 59.5115 59.716L58.7315 59.224C58.3235 59.896 57.7475 60.22 57.0035 60.22C55.9715 60.22 55.3355 59.596 55.2515 58.48H59.5955C59.5955 58.456 59.6075 58.312 59.6075 58.192C59.6075 56.44 58.6235 55.36 57.0035 55.36C55.3715 55.36 54.2675 56.524 54.2675 58.24C54.2675 59.944 55.3355 61.12 56.8835 61.12ZM57.0035 56.2C57.8915 56.2 58.4915 56.776 58.5635 57.664H55.2875C55.4555 56.728 56.0555 56.2 57.0035 56.2ZM61.0313 59.308L60.2753 59.776C60.5753 60.436 61.3793 61.12 62.4833 61.12C63.6113 61.12 64.3793 60.4 64.3793 59.44C64.3793 58.456 63.5993 58.084 62.6393 57.688C62.0513 57.448 61.4873 57.196 61.4873 56.752C61.4873 56.38 61.8233 56.212 62.2193 56.212C62.7953 56.212 63.2633 56.524 63.5633 56.932L64.3313 56.44C63.9953 55.828 63.2153 55.36 62.3393 55.36C61.4393 55.36 60.5513 55.828 60.5513 56.812C60.5513 57.784 61.4033 58.192 62.1353 58.468C62.7713 58.708 63.4073 58.972 63.4073 59.548C63.4073 59.98 63.0713 60.244 62.5313 60.244C61.8473 60.244 61.3673 59.824 61.0313 59.308Z" fill="#0F1938"/>
</g>
</svg>
