<svg width="265" height="407" viewBox="0 0 265 407" fill="none" xmlns="http://www.w3.org/2000/svg">
<path opacity="0.3" d="M254 167C131 167 131 210.5 8 210.5V215.1C131.351 215.1 131 169 254 169V167Z" fill="#3749A9"/>
<path d="M254 252.5C131 252.5 131 302.094 8 302.094V340.5C131.351 340.5 131 292.5 254 292.5V252.5Z" fill="#3749A9"/>
<path opacity="0.3" d="M254 297.5C131 297.5 131 340.5 8 340.5V368.5C131.351 368.5 131 388.7 254 388.7V297.5Z" fill="#3749A9"/>
<path opacity="0.3" d="M254 393.7C131 393.7 131 368.5 8 368.5V382C131.351 382 131 402 254 402V393.7Z" fill="#3749A9"/>
<path opacity="0.3" d="M254 198C131 198 131 258.1 8.00006 258.1L8 297C131.351 297 131 226.6 254 226.6L254 198Z" fill="#3749A9"/>
<path opacity="0.3" d="M254 174.1C131 174.1 131 215.069 8 215.069V252.9C131.351 252.9 131 198 254 198V174.1Z" fill="#3749A9"/>
<path opacity="0.3" d="M254 118C131 118 131 157.581 8 157.581V210.5C131.351 210.5 131 162 254 162V118Z" fill="#3749A9"/>
<path d="M254.5 231.7V231.2H254C225.45 231.2 204.684 225.361 187.382 216.613C171.893 208.783 159.171 198.619 146.093 188.171C144.547 186.936 142.997 185.698 141.436 184.458C126.679 172.741 111.042 160.992 90.2262 152.18C69.4069 143.366 43.4332 137.5 8 137.5H7.5V138V156.5V157H8C38.7681 157 61.4885 162.923 80.2627 171.796C98.7066 180.513 113.359 192.083 128.128 203.746C128.401 203.961 128.674 204.177 128.947 204.392C143.985 216.265 159.213 228.176 178.7 237.111C198.196 246.049 221.933 252 254 252H254.5V251.5V231.7Z" fill="#3749A9" stroke="#F7FAFC"/>
<path d="M259 118H254V162H259V118Z" fill="#0F1938"/>
<path d="M259 167H254V169H259V167Z" fill="#0F1938"/>
<path d="M259 174.105H254V226.638H259V174.105Z" fill="#0F1938"/>
<path d="M259 231.639H254V292.466H259V231.639Z" fill="#0F1938"/>
<path d="M259 297.465H254V388.705H259V297.465Z" fill="#0F1938"/>
<path d="M259 393.705H254V402H259V393.705Z" fill="#0F1938"/>
<path d="M8 138H3V253H8V138Z" fill="#0F1938"/>
<path d="M8 258H3V297H8V258Z" fill="#0F1938"/>
<path d="M8 302H3V382H8V302Z" fill="#0F1938"/>
<rect x="14" y="191" width="48" height="19" rx="2" fill="#F7FAFC" fill-opacity="0.7"/>
<path d="M25.756 205H27.618L22.83 194.654L18.042 205H19.904L21.024 202.48H24.636L25.756 205ZM22.83 197.972L24.16 201.08H21.5L22.83 197.972ZM28.702 198.994C28.702 199.526 29.122 199.974 29.682 199.974C30.242 199.974 30.676 199.526 30.676 198.994C30.676 198.462 30.242 198.014 29.682 198.014C29.122 198.014 28.702 198.462 28.702 198.994ZM28.702 204.286C28.702 204.818 29.122 205.266 29.682 205.266C30.242 205.266 30.676 204.818 30.676 204.286C30.676 203.754 30.242 203.306 29.682 203.306C29.122 203.306 28.702 203.754 28.702 204.286ZM36.7999 197.496L39.0679 196.866V205H40.7059V195.046L36.7999 195.928V197.496ZM43.2771 197.496L45.5451 196.866V205H47.1831V195.046L43.2771 195.928V197.496ZM56.4883 201.808C56.4883 199.834 55.1723 198.546 53.5483 198.546C53.0023 198.546 52.4843 198.658 51.9943 198.896L52.6103 196.656H56.4043V195.2H51.3643L50.0343 200.59C51.0283 199.974 51.7703 199.82 52.6383 199.82C53.7723 199.82 54.7243 200.52 54.7243 201.71C54.7243 202.9 53.9543 203.614 52.6383 203.614C51.7003 203.614 50.7343 202.998 50.1603 202.228L49.1943 203.418C49.9503 204.37 51.0563 205.154 52.8623 205.154C54.7523 205.154 56.4883 204.062 56.4883 201.808Z" fill="#0F1938"/>
<rect y="94" width="93" height="19" rx="2" fill="#F7FAFC" fill-opacity="0.7"/>
<path d="M11.742 105.172C11.742 103.8 10.86 103.016 9.656 102.694C10.608 102.344 11.182 101.644 11.182 100.664C11.182 98.998 9.908 98.2 8.046 98.2H5.092V108H8.214C10.272 108 11.742 107.118 11.742 105.172ZM7.934 99.558C8.844 99.558 9.488 100.034 9.488 100.846C9.488 101.658 8.844 102.134 7.934 102.134H6.744V99.558H7.934ZM6.744 106.642V103.422H8.116C9.236 103.422 10.048 103.94 10.048 105.004C10.048 106.096 9.236 106.642 8.116 106.642H6.744ZM13.2205 97.08V108H14.7325V97.08H13.2205ZM16.0358 104.78C16.0358 106.754 17.5338 108.14 19.5078 108.14C21.4818 108.14 22.9798 106.754 22.9798 104.78C22.9798 102.806 21.4818 101.42 19.5078 101.42C17.5338 101.42 16.0358 102.806 16.0358 104.78ZM17.5898 104.78C17.5898 103.576 18.4158 102.75 19.5078 102.75C20.5998 102.75 21.4258 103.576 21.4258 104.78C21.4258 105.984 20.5998 106.81 19.5078 106.81C18.4158 106.81 17.5898 105.984 17.5898 104.78ZM25.2825 104.78C25.2825 103.59 26.1505 102.722 27.2845 102.722C28.1805 102.722 29.0625 103.184 29.3845 103.814V102.134C28.9365 101.7 28.1245 101.42 27.2145 101.42C25.2125 101.42 23.7285 102.806 23.7285 104.78C23.7285 106.754 25.2125 108.14 27.2145 108.14C28.1245 108.14 28.9365 107.874 29.3845 107.412V105.746C29.0625 106.376 28.2085 106.838 27.2845 106.838C26.1505 106.838 25.2825 105.998 25.2825 104.78ZM34.7098 101.56L32.3438 103.828V97.08H30.8598V108H32.3438V104.724L35.0038 108H36.8378L33.7858 104.22L36.5578 101.56H34.7098ZM37.9877 105.886L37.1057 106.768C37.6657 107.51 38.6597 108.196 39.9897 108.196C41.3897 108.196 42.2857 107.398 42.2857 106.18C42.2857 105.018 41.3757 104.598 40.3117 104.164C39.5137 103.856 38.9117 103.632 38.9117 103.142C38.9117 102.792 39.2197 102.596 39.6537 102.596C40.2837 102.596 40.9277 102.96 41.3477 103.45L42.1877 102.554C41.6557 101.91 40.7457 101.42 39.6957 101.42C38.5057 101.42 37.4837 102.008 37.4837 103.17C37.4837 104.346 38.4357 104.808 39.3177 105.13C40.1717 105.438 40.7597 105.704 40.7597 106.264C40.7597 106.684 40.4377 106.95 39.8917 106.95C39.2337 106.95 38.6177 106.572 37.9877 105.886ZM49.3646 97.08C48.2446 99.18 47.7126 101.56 47.7126 103.94C47.7126 106.32 48.2446 108.7 49.3646 110.8H50.7646C49.7846 108.7 49.3086 106.32 49.3086 103.94C49.3086 101.56 49.7846 99.18 50.7646 97.08H49.3646ZM55.7803 105.088L52.8963 98.2H50.9923L55.7803 108.546L60.5683 98.2H58.6643L55.7803 105.088ZM60.5238 103.24C60.8038 103.044 61.5598 102.638 62.4838 102.638C63.2818 102.638 63.8558 102.918 63.8558 103.702V104.486C63.4498 104.262 62.8338 104.038 61.9938 104.038C60.3978 104.038 59.4738 104.836 59.4738 106.082C59.4738 107.398 60.5098 108.14 61.7278 108.14C62.5538 108.14 63.4498 107.804 63.8558 107.118V108H65.3398V103.408C65.3398 102.134 64.2058 101.406 62.6238 101.406C61.4198 101.406 60.4958 101.826 59.9078 102.176L60.5238 103.24ZM60.9998 105.998C60.9998 105.396 61.4058 105.032 62.3578 105.032C62.9038 105.032 63.3938 105.13 63.8558 105.354V105.452C63.8558 106.432 63.0998 107.006 62.2038 107.006C61.5038 107.006 60.9998 106.642 60.9998 105.998ZM66.9625 97.08V108H68.4745V97.08H66.9625ZM71.8218 105.48V101.56H70.2678V105.648C70.2678 107.188 71.0658 108.14 72.5078 108.14C73.4038 108.14 74.0478 107.748 74.4538 107.006V108H75.9658V101.56H74.4538V105.48C74.4538 106.348 73.8658 106.922 73.0118 106.922C72.1998 106.922 71.8218 106.39 71.8218 105.48ZM80.5567 108.14C82.0407 108.14 83.1187 107.552 83.7907 106.39L82.4747 105.872C82.0547 106.572 81.4387 106.894 80.6267 106.894C79.5767 106.894 78.9327 106.25 78.8207 105.13H83.8327C83.8327 105.06 83.8467 104.878 83.8467 104.71C83.8467 102.652 82.6567 101.42 80.6267 101.42C78.5827 101.42 77.2667 102.75 77.2667 104.78C77.2667 106.796 78.5687 108.14 80.5567 108.14ZM80.6127 102.568C81.5087 102.568 82.1247 103.156 82.1947 104.08H78.8627C79.0447 103.1 79.6607 102.568 80.6127 102.568ZM85.9199 110.8C87.0399 108.7 87.5579 106.32 87.5579 103.94C87.5579 101.56 87.0399 99.18 85.9199 97.08H84.5199C85.4999 99.18 85.9759 101.56 85.9759 103.94C85.9759 106.32 85.4999 108.7 84.5199 110.8H85.9199Z" fill="#0F1938"/>
<rect x="172" y="94" width="93" height="19" rx="2" fill="#F7FAFC" fill-opacity="0.7"/>
<path d="M184.046 105.172C184.046 103.8 183.164 103.016 181.96 102.694C182.912 102.344 183.486 101.644 183.486 100.664C183.486 98.998 182.212 98.2 180.35 98.2H177.396V108H180.518C182.576 108 184.046 107.118 184.046 105.172ZM180.238 99.558C181.148 99.558 181.792 100.034 181.792 100.846C181.792 101.658 181.148 102.134 180.238 102.134H179.048V99.558H180.238ZM179.048 106.642V103.422H180.42C181.54 103.422 182.352 103.94 182.352 105.004C182.352 106.096 181.54 106.642 180.42 106.642H179.048ZM185.525 97.08V108H187.037V97.08H185.525ZM188.34 104.78C188.34 106.754 189.838 108.14 191.812 108.14C193.786 108.14 195.284 106.754 195.284 104.78C195.284 102.806 193.786 101.42 191.812 101.42C189.838 101.42 188.34 102.806 188.34 104.78ZM189.894 104.78C189.894 103.576 190.72 102.75 191.812 102.75C192.904 102.75 193.73 103.576 193.73 104.78C193.73 105.984 192.904 106.81 191.812 106.81C190.72 106.81 189.894 105.984 189.894 104.78ZM197.587 104.78C197.587 103.59 198.455 102.722 199.589 102.722C200.485 102.722 201.367 103.184 201.689 103.814V102.134C201.241 101.7 200.429 101.42 199.519 101.42C197.517 101.42 196.033 102.806 196.033 104.78C196.033 106.754 197.517 108.14 199.519 108.14C200.429 108.14 201.241 107.874 201.689 107.412V105.746C201.367 106.376 200.513 106.838 199.589 106.838C198.455 106.838 197.587 105.998 197.587 104.78ZM207.014 101.56L204.648 103.828V97.08H203.164V108H204.648V104.724L207.308 108H209.142L206.09 104.22L208.862 101.56H207.014ZM210.292 105.886L209.41 106.768C209.97 107.51 210.964 108.196 212.294 108.196C213.694 108.196 214.59 107.398 214.59 106.18C214.59 105.018 213.68 104.598 212.616 104.164C211.818 103.856 211.216 103.632 211.216 103.142C211.216 102.792 211.524 102.596 211.958 102.596C212.588 102.596 213.232 102.96 213.652 103.45L214.492 102.554C213.96 101.91 213.05 101.42 212 101.42C210.81 101.42 209.788 102.008 209.788 103.17C209.788 104.346 210.74 104.808 211.622 105.13C212.476 105.438 213.064 105.704 213.064 106.264C213.064 106.684 212.742 106.95 212.196 106.95C211.538 106.95 210.922 106.572 210.292 105.886ZM221.669 97.08C220.549 99.18 220.017 101.56 220.017 103.94C220.017 106.32 220.549 108.7 221.669 110.8H223.069C222.089 108.7 221.613 106.32 221.613 103.94C221.613 101.56 222.089 99.18 223.069 97.08H221.669ZM228.085 105.088L225.201 98.2H223.297L228.085 108.546L232.873 98.2H230.969L228.085 105.088ZM232.828 103.24C233.108 103.044 233.864 102.638 234.788 102.638C235.586 102.638 236.16 102.918 236.16 103.702V104.486C235.754 104.262 235.138 104.038 234.298 104.038C232.702 104.038 231.778 104.836 231.778 106.082C231.778 107.398 232.814 108.14 234.032 108.14C234.858 108.14 235.754 107.804 236.16 107.118V108H237.644V103.408C237.644 102.134 236.51 101.406 234.928 101.406C233.724 101.406 232.8 101.826 232.212 102.176L232.828 103.24ZM233.304 105.998C233.304 105.396 233.71 105.032 234.662 105.032C235.208 105.032 235.698 105.13 236.16 105.354V105.452C236.16 106.432 235.404 107.006 234.508 107.006C233.808 107.006 233.304 106.642 233.304 105.998ZM239.267 97.08V108H240.779V97.08H239.267ZM244.126 105.48V101.56H242.572V105.648C242.572 107.188 243.37 108.14 244.812 108.14C245.708 108.14 246.352 107.748 246.758 107.006V108H248.27V101.56H246.758V105.48C246.758 106.348 246.17 106.922 245.316 106.922C244.504 106.922 244.126 106.39 244.126 105.48ZM252.861 108.14C254.345 108.14 255.423 107.552 256.095 106.39L254.779 105.872C254.359 106.572 253.743 106.894 252.931 106.894C251.881 106.894 251.237 106.25 251.125 105.13H256.137C256.137 105.06 256.151 104.878 256.151 104.71C256.151 102.652 254.961 101.42 252.931 101.42C250.887 101.42 249.571 102.75 249.571 104.78C249.571 106.796 250.873 108.14 252.861 108.14ZM252.917 102.568C253.813 102.568 254.429 103.156 254.499 104.08H251.167C251.349 103.1 251.965 102.568 252.917 102.568ZM258.224 110.8C259.344 108.7 259.862 106.32 259.862 103.94C259.862 101.56 259.344 99.18 258.224 97.08H256.824C257.804 99.18 258.28 101.56 258.28 103.94C258.28 106.32 257.804 108.7 256.824 110.8H258.224Z" fill="#0F1938"/>
<rect x="14" y="268" width="42" height="19" rx="2" fill="#F7FAFC" fill-opacity="0.7"/>
<path d="M25.742 279.172C25.742 277.8 24.86 277.016 23.656 276.694C24.608 276.344 25.182 275.644 25.182 274.664C25.182 272.998 23.908 272.2 22.046 272.2H19.092V282H22.214C24.272 282 25.742 281.118 25.742 279.172ZM21.934 273.558C22.844 273.558 23.488 274.034 23.488 274.846C23.488 275.658 22.844 276.134 21.934 276.134H20.744V273.558H21.934ZM20.744 280.642V277.422H22.116C23.236 277.422 24.048 277.94 24.048 279.004C24.048 280.096 23.236 280.642 22.116 280.642H20.744ZM27.4305 275.994C27.4305 276.526 27.8505 276.974 28.4105 276.974C28.9705 276.974 29.4045 276.526 29.4045 275.994C29.4045 275.462 28.9705 275.014 28.4105 275.014C27.8505 275.014 27.4305 275.462 27.4305 275.994ZM27.4305 281.286C27.4305 281.818 27.8505 282.266 28.4105 282.266C28.9705 282.266 29.4045 281.818 29.4045 281.286C29.4045 280.754 28.9705 280.306 28.4105 280.306C27.8505 280.306 27.4305 280.754 27.4305 281.286ZM34.7304 280.124H39.5604V282H41.2544V280.124H42.7944V278.696H41.2544V272.2H40.2604L34.7304 280.124ZM37.1524 278.822L39.6584 275.154V278.822H37.1524ZM43.7031 277.1C43.7031 280.138 45.2431 282.154 47.5111 282.154C49.8071 282.154 51.3331 280.138 51.3331 277.1C51.3331 274.062 49.8071 272.046 47.5111 272.046C45.2431 272.046 43.7031 274.062 43.7031 277.1ZM45.3271 277.1C45.3271 274.986 46.1671 273.53 47.5111 273.53C48.8551 273.53 49.7091 274.986 49.7091 277.1C49.7091 279.214 48.8551 280.67 47.5111 280.67C46.1671 280.67 45.3271 279.214 45.3271 277.1Z" fill="#0F1938"/>
<rect x="14" y="330" width="43" height="19" rx="2" fill="#F7FAFC" fill-opacity="0.7"/>
<path d="M20.324 339.1C20.324 337.014 21.878 335.642 23.67 335.642C25.056 335.642 26.064 336.244 26.736 337.042V335.068C25.924 334.396 25.042 334.032 23.614 334.032C20.73 334.032 18.532 336.118 18.532 339.1C18.532 342.082 20.73 344.168 23.614 344.168C25.042 344.168 25.924 343.804 26.736 343.132V341.158C26.064 341.956 25.056 342.558 23.67 342.558C21.878 342.558 20.324 341.186 20.324 339.1ZM28.7157 337.994C28.7157 338.526 29.1357 338.974 29.6957 338.974C30.2557 338.974 30.6897 338.526 30.6897 337.994C30.6897 337.462 30.2557 337.014 29.6957 337.014C29.1357 337.014 28.7157 337.462 28.7157 337.994ZM28.7157 343.286C28.7157 343.818 29.1357 344.266 29.6957 344.266C30.2557 344.266 30.6897 343.818 30.6897 343.286C30.6897 342.754 30.2557 342.306 29.6957 342.306C29.1357 342.306 28.7157 342.754 28.7157 343.286ZM36.5196 341.34C36.5196 342.978 37.9896 344.168 39.8096 344.168C41.6296 344.168 43.1136 342.978 43.1136 341.34C43.1136 340.038 42.3296 339.198 41.3216 338.792C42.1756 338.4 42.7636 337.644 42.7636 336.566C42.7636 335.068 41.4616 334.032 39.8096 334.032C38.1576 334.032 36.8696 335.068 36.8696 336.566C36.8696 337.644 37.4436 338.4 38.2976 338.792C37.3036 339.198 36.5196 340.038 36.5196 341.34ZM38.4376 336.734C38.4376 335.922 39.0116 335.334 39.8096 335.334C40.6076 335.334 41.1816 335.922 41.1816 336.734C41.1816 337.546 40.5656 338.12 39.8096 338.12C39.0536 338.12 38.4376 337.546 38.4376 336.734ZM38.1436 341.116C38.1436 340.192 38.9416 339.464 39.8096 339.464C40.6776 339.464 41.4896 340.192 41.4896 341.116C41.4896 342.18 40.6776 342.782 39.8096 342.782C38.9416 342.782 38.1436 342.18 38.1436 341.116ZM44.2773 339.1C44.2773 342.138 45.8173 344.154 48.0853 344.154C50.3813 344.154 51.9073 342.138 51.9073 339.1C51.9073 336.062 50.3813 334.046 48.0853 334.046C45.8173 334.046 44.2773 336.062 44.2773 339.1ZM45.9013 339.1C45.9013 336.986 46.7413 335.53 48.0853 335.53C49.4293 335.53 50.2833 336.986 50.2833 339.1C50.2833 341.214 49.4293 342.67 48.0853 342.67C46.7413 342.67 45.9013 341.214 45.9013 339.1Z" fill="#0F1938"/>
<rect x="216" y="159" width="33" height="19" rx="2" fill="#F7FAFC" fill-opacity="0.7"/>
<path d="M221.575 163.2V173H227.539V171.544H223.199V168.464H227.259V167.036H223.199V164.656H227.539V163.2H221.575ZM229.517 166.994C229.517 167.526 229.937 167.974 230.497 167.974C231.057 167.974 231.491 167.526 231.491 166.994C231.491 166.462 231.057 166.014 230.497 166.014C229.937 166.014 229.517 166.462 229.517 166.994ZM229.517 172.286C229.517 172.818 229.937 173.266 230.497 173.266C231.057 173.266 231.491 172.818 231.491 172.286C231.491 171.754 231.057 171.306 230.497 171.306C229.937 171.306 229.517 171.754 229.517 172.286ZM236.844 173H244.32V171.46H240.078L242.85 168.73C243.648 167.974 244.194 166.994 244.194 165.972C244.194 164.67 243.116 163.032 240.848 163.032C238.608 163.032 237.376 164.586 237.376 166.672H239.014C239.014 165.356 239.7 164.516 240.82 164.516C241.898 164.516 242.486 165.286 242.486 166.056C242.486 166.84 242.066 167.484 241.366 168.226L236.844 173Z" fill="#0F1938"/>
<rect x="208" y="190" width="41" height="19" rx="2" fill="#F7FAFC" fill-opacity="0.7"/>
<path d="M213.771 194.2V204H215.395V199.576H219.035V198.134H215.395V195.684H219.175V194.2H213.771ZM221.016 197.994C221.016 198.526 221.436 198.974 221.996 198.974C222.556 198.974 222.99 198.526 222.99 197.994C222.99 197.462 222.556 197.014 221.996 197.014C221.436 197.014 221.016 197.462 221.016 197.994ZM221.016 203.286C221.016 203.818 221.436 204.266 221.996 204.266C222.556 204.266 222.99 203.818 222.99 203.286C222.99 202.754 222.556 202.306 221.996 202.306C221.436 202.306 221.016 202.754 221.016 203.286ZM235.848 200.808C235.848 198.834 234.532 197.546 232.908 197.546C232.362 197.546 231.844 197.658 231.354 197.896L231.97 195.656H235.764V194.2H230.724L229.394 199.59C230.388 198.974 231.13 198.82 231.998 198.82C233.132 198.82 234.084 199.52 234.084 200.71C234.084 201.9 233.314 202.614 231.998 202.614C231.06 202.614 230.094 201.998 229.52 201.228L228.554 202.418C229.31 203.37 230.416 204.154 232.222 204.154C234.112 204.154 235.848 203.062 235.848 200.808ZM236.824 199.1C236.824 202.138 238.364 204.154 240.632 204.154C242.928 204.154 244.454 202.138 244.454 199.1C244.454 196.062 242.928 194.046 240.632 194.046C238.364 194.046 236.824 196.062 236.824 199.1ZM238.448 199.1C238.448 196.986 239.288 195.53 240.632 195.53C241.976 195.53 242.83 196.986 242.83 199.1C242.83 201.214 241.976 202.67 240.632 202.67C239.288 202.67 238.448 201.214 238.448 199.1Z" fill="#0F1938"/>
<rect x="204" y="252" width="45" height="19" rx="2" fill="#F7FAFC" fill-opacity="0.7"/>
<path d="M214.427 262.276H217.437C217.115 263.606 216.107 264.67 214.357 264.67C212.425 264.67 210.941 263.242 210.941 261.1C210.941 258.958 212.453 257.558 214.357 257.558C215.715 257.558 216.681 258.188 217.227 259.112L218.571 258.202C217.703 256.844 216.275 256.032 214.357 256.032C211.389 256.032 209.205 258.104 209.205 261.1C209.205 264.096 211.361 266.21 214.329 266.21C217.465 266.21 219.215 263.746 219.145 260.876H214.427V262.276ZM220.77 259.994C220.77 260.526 221.19 260.974 221.75 260.974C222.31 260.974 222.744 260.526 222.744 259.994C222.744 259.462 222.31 259.014 221.75 259.014C221.19 259.014 220.77 259.462 220.77 259.994ZM220.77 265.286C220.77 265.818 221.19 266.266 221.75 266.266C222.31 266.266 222.744 265.818 222.744 265.286C222.744 264.754 222.31 264.306 221.75 264.306C221.19 264.306 220.77 264.754 220.77 265.286ZM232.452 256.214L229.344 260.386C228.854 261.016 228.518 261.786 228.518 262.696C228.518 264.866 230.1 266.168 232.116 266.168C234.132 266.168 235.714 264.866 235.714 262.696C235.714 260.82 234.3 259.518 232.76 259.518C232.354 259.518 232.032 259.56 231.738 259.7L234.552 256.214H232.452ZM230.128 262.696C230.128 261.492 230.982 260.638 232.116 260.638C233.25 260.638 234.09 261.492 234.09 262.696C234.09 263.9 233.25 264.726 232.116 264.726C230.982 264.726 230.128 263.9 230.128 262.696ZM236.824 261.1C236.824 264.138 238.364 266.154 240.632 266.154C242.928 266.154 244.454 264.138 244.454 261.1C244.454 258.062 242.928 256.046 240.632 256.046C238.364 256.046 236.824 258.062 236.824 261.1ZM238.448 261.1C238.448 258.986 239.288 257.53 240.632 257.53C241.976 257.53 242.83 258.986 242.83 261.1C242.83 263.214 241.976 264.67 240.632 264.67C239.288 264.67 238.448 263.214 238.448 261.1Z" fill="#0F1938"/>
<rect x="206" y="128" width="43" height="19" rx="2" fill="#F7FAFC" fill-opacity="0.7"/>
<path d="M214.351 142C217.347 142 219.391 140.054 219.391 137.1C219.391 134.146 217.347 132.2 214.351 132.2H211.187V142H214.351ZM214.309 133.754C216.241 133.754 217.697 134.888 217.697 137.1C217.697 139.312 216.241 140.446 214.309 140.446H212.881V133.754H214.309ZM220.948 135.994C220.948 136.526 221.368 136.974 221.928 136.974C222.488 136.974 222.922 136.526 222.922 135.994C222.922 135.462 222.488 135.014 221.928 135.014C221.368 135.014 220.948 135.462 220.948 135.994ZM220.948 141.286C220.948 141.818 221.368 142.266 221.928 142.266C222.488 142.266 222.922 141.818 222.922 141.286C222.922 140.754 222.488 140.306 221.928 140.306C221.368 140.306 220.948 140.754 220.948 141.286ZM228.247 140.124H233.077V142H234.771V140.124H236.311V138.696H234.771V132.2H233.777L228.247 140.124ZM230.669 138.822L233.175 135.154V138.822H230.669ZM244.444 138.808C244.444 136.834 243.128 135.546 241.504 135.546C240.958 135.546 240.44 135.658 239.95 135.896L240.566 133.656H244.36V132.2H239.32L237.99 137.59C238.984 136.974 239.726 136.82 240.594 136.82C241.728 136.82 242.68 137.52 242.68 138.71C242.68 139.9 241.91 140.614 240.594 140.614C239.656 140.614 238.69 139.998 238.116 139.228L237.15 140.418C237.906 141.37 239.012 142.154 240.818 142.154C242.708 142.154 244.444 141.062 244.444 138.808Z" fill="#0F1938"/>
<rect x="205" y="330" width="44" height="19" rx="2" fill="#F7FAFC" fill-opacity="0.7"/>
<path d="M210.422 334.2V344H212.074V339.506H217.002V344H218.654V334.2H217.002V337.98H212.074V334.2H210.422ZM220.77 337.994C220.77 338.526 221.19 338.974 221.75 338.974C222.31 338.974 222.744 338.526 222.744 337.994C222.744 337.462 222.31 337.014 221.75 337.014C221.19 337.014 220.77 337.462 220.77 337.994ZM220.77 343.286C220.77 343.818 221.19 344.266 221.75 344.266C222.31 344.266 222.744 343.818 222.744 343.286C222.744 342.754 222.31 342.306 221.75 342.306C221.19 342.306 220.77 342.754 220.77 343.286ZM231.766 343.986L234.874 339.814C235.364 339.184 235.714 338.414 235.714 337.504C235.714 335.334 234.132 334.032 232.116 334.032C230.1 334.032 228.518 335.334 228.518 337.504C228.518 339.38 229.932 340.682 231.472 340.682C231.864 340.682 232.186 340.64 232.466 340.514L229.666 343.986H231.766ZM234.09 337.504C234.09 338.708 233.25 339.562 232.116 339.562C230.982 339.562 230.128 338.708 230.128 337.504C230.128 336.3 230.982 335.474 232.116 335.474C233.25 335.474 234.09 336.3 234.09 337.504ZM236.824 339.1C236.824 342.138 238.364 344.154 240.632 344.154C242.928 344.154 244.454 342.138 244.454 339.1C244.454 336.062 242.928 334.046 240.632 334.046C238.364 334.046 236.824 336.062 236.824 339.1ZM238.448 339.1C238.448 336.986 239.288 335.53 240.632 335.53C241.976 335.53 242.83 336.986 242.83 339.1C242.83 341.214 241.976 342.67 240.632 342.67C239.288 342.67 238.448 341.214 238.448 339.1Z" fill="#0F1938"/>
<rect x="213" y="388" width="36" height="19" rx="2" fill="#F7FAFC" fill-opacity="0.7"/>
<path d="M218.939 392.2V402H220.605V392.2H218.939ZM222.739 395.994C222.739 396.526 223.159 396.974 223.719 396.974C224.279 396.974 224.713 396.526 224.713 395.994C224.713 395.462 224.279 395.014 223.719 395.014C223.159 395.014 222.739 395.462 222.739 395.994ZM222.739 401.286C222.739 401.818 223.159 402.266 223.719 402.266C224.279 402.266 224.713 401.818 224.713 401.286C224.713 400.754 224.279 400.306 223.719 400.306C223.159 400.306 222.739 400.754 222.739 401.286ZM230.836 394.496L233.104 393.866V402H234.742V392.046L230.836 392.928V394.496ZM236.824 397.1C236.824 400.138 238.364 402.154 240.632 402.154C242.928 402.154 244.454 400.138 244.454 397.1C244.454 394.062 242.928 392.046 240.632 392.046C238.364 392.046 236.824 394.062 236.824 397.1ZM238.448 397.1C238.448 394.986 239.288 393.53 240.632 393.53C241.976 393.53 242.83 394.986 242.83 397.1C242.83 399.214 241.976 400.67 240.632 400.67C239.288 400.67 238.448 399.214 238.448 397.1Z" fill="#0F1938"/>
<path opacity="0.3" d="M3 43.25C9.5 43.25 9.5 37.75 15 37.75" stroke="#3749A9" stroke-width="2"/>
<path d="M21.092 35.2V45H26.636V43.516H22.744V35.2H21.092ZM30.3662 45.14C31.8502 45.14 32.9282 44.552 33.6002 43.39L32.2842 42.872C31.8642 43.572 31.2482 43.894 30.4362 43.894C29.3862 43.894 28.7422 43.25 28.6302 42.13H33.6422C33.6422 42.06 33.6562 41.878 33.6562 41.71C33.6562 39.652 32.4662 38.42 30.4362 38.42C28.3922 38.42 27.0762 39.75 27.0762 41.78C27.0762 43.796 28.3782 45.14 30.3662 45.14ZM30.4222 39.568C31.3182 39.568 31.9342 40.156 32.0042 41.08H28.6722C28.8542 40.1 29.4702 39.568 30.4222 39.568ZM34.5954 45.434C34.6514 47.114 35.8554 48.276 37.9554 48.276C39.7054 48.276 41.2874 47.198 41.2874 44.86V38.56H39.8034V39.61C39.3134 38.84 38.5434 38.42 37.6054 38.42C35.9254 38.42 34.4694 39.638 34.4694 41.752C34.4694 43.866 35.9254 45.07 37.6054 45.07C38.5434 45.07 39.3134 44.65 39.8034 43.894V44.86C39.8034 46.316 38.8654 46.96 37.9134 46.96C36.8214 46.96 36.1354 46.302 36.1074 45.434H34.5954ZM36.0374 41.752C36.0374 40.464 36.9194 39.736 37.9694 39.736C38.8374 39.736 39.8034 40.436 39.8034 41.752C39.8034 43.068 38.8374 43.754 37.9694 43.754C36.9194 43.754 36.0374 43.04 36.0374 41.752ZM45.8226 45.14C47.3066 45.14 48.3846 44.552 49.0566 43.39L47.7406 42.872C47.3206 43.572 46.7046 43.894 45.8926 43.894C44.8426 43.894 44.1986 43.25 44.0866 42.13H49.0986C49.0986 42.06 49.1126 41.878 49.1126 41.71C49.1126 39.652 47.9226 38.42 45.8926 38.42C43.8486 38.42 42.5326 39.75 42.5326 41.78C42.5326 43.796 43.8346 45.14 45.8226 45.14ZM45.8786 39.568C46.7746 39.568 47.3906 40.156 47.4606 41.08H44.1286C44.3106 40.1 44.9266 39.568 45.8786 39.568ZM54.5598 41.08V45H56.1138V40.912C56.1138 39.358 55.3298 38.42 53.8738 38.42C52.9918 38.42 52.3338 38.798 51.9278 39.554V38.56H50.4158V45H51.9278V41.08C51.9278 40.212 52.5158 39.638 53.3698 39.638C54.1818 39.638 54.5598 40.142 54.5598 41.08ZM57.4147 41.78C57.4147 43.894 58.8707 45.14 60.5507 45.14C61.4887 45.14 62.2587 44.706 62.7487 43.936V45H64.2747V34.08H62.7487V39.624C62.2587 38.854 61.4887 38.42 60.5507 38.42C58.8707 38.42 57.4147 39.666 57.4147 41.78ZM58.9827 41.78C58.9827 40.492 59.8647 39.736 60.9147 39.736C61.7827 39.736 62.7487 40.464 62.7487 41.78C62.7487 43.096 61.7827 43.824 60.9147 43.824C59.8647 43.824 58.9827 43.068 58.9827 41.78ZM76.8424 45H78.7044L73.9164 34.654L69.1284 45H70.9904L72.1104 42.48H75.7224L76.8424 45ZM73.9164 37.972L75.2464 41.08H72.5864L73.9164 37.972Z" fill="#0F1938"/>
<path d="M3 61.75C9.5 61.75 9.5 67.25 15 67.25" stroke="#3749A9" stroke-width="2"/>
<path d="M21.092 59.2V69H26.636V67.516H22.744V59.2H21.092ZM30.3662 69.14C31.8502 69.14 32.9282 68.552 33.6002 67.39L32.2842 66.872C31.8642 67.572 31.2482 67.894 30.4362 67.894C29.3862 67.894 28.7422 67.25 28.6302 66.13H33.6422C33.6422 66.06 33.6562 65.878 33.6562 65.71C33.6562 63.652 32.4662 62.42 30.4362 62.42C28.3922 62.42 27.0762 63.75 27.0762 65.78C27.0762 67.796 28.3782 69.14 30.3662 69.14ZM30.4222 63.568C31.3182 63.568 31.9342 64.156 32.0042 65.08H28.6722C28.8542 64.1 29.4702 63.568 30.4222 63.568ZM34.5954 69.434C34.6514 71.114 35.8554 72.276 37.9554 72.276C39.7054 72.276 41.2874 71.198 41.2874 68.86V62.56H39.8034V63.61C39.3134 62.84 38.5434 62.42 37.6054 62.42C35.9254 62.42 34.4694 63.638 34.4694 65.752C34.4694 67.866 35.9254 69.07 37.6054 69.07C38.5434 69.07 39.3134 68.65 39.8034 67.894V68.86C39.8034 70.316 38.8654 70.96 37.9134 70.96C36.8214 70.96 36.1354 70.302 36.1074 69.434H34.5954ZM36.0374 65.752C36.0374 64.464 36.9194 63.736 37.9694 63.736C38.8374 63.736 39.8034 64.436 39.8034 65.752C39.8034 67.068 38.8374 67.754 37.9694 67.754C36.9194 67.754 36.0374 67.04 36.0374 65.752ZM45.8226 69.14C47.3066 69.14 48.3846 68.552 49.0566 67.39L47.7406 66.872C47.3206 67.572 46.7046 67.894 45.8926 67.894C44.8426 67.894 44.1986 67.25 44.0866 66.13H49.0986C49.0986 66.06 49.1126 65.878 49.1126 65.71C49.1126 63.652 47.9226 62.42 45.8926 62.42C43.8486 62.42 42.5326 63.75 42.5326 65.78C42.5326 67.796 43.8346 69.14 45.8226 69.14ZM45.8786 63.568C46.7746 63.568 47.3906 64.156 47.4606 65.08H44.1286C44.3106 64.1 44.9266 63.568 45.8786 63.568ZM54.5598 65.08V69H56.1138V64.912C56.1138 63.358 55.3298 62.42 53.8738 62.42C52.9918 62.42 52.3338 62.798 51.9278 63.554V62.56H50.4158V69H51.9278V65.08C51.9278 64.212 52.5158 63.638 53.3698 63.638C54.1818 63.638 54.5598 64.142 54.5598 65.08ZM57.4147 65.78C57.4147 67.894 58.8707 69.14 60.5507 69.14C61.4887 69.14 62.2587 68.706 62.7487 67.936V69H64.2747V58.08H62.7487V63.624C62.2587 62.854 61.4887 62.42 60.5507 62.42C58.8707 62.42 57.4147 63.666 57.4147 65.78ZM58.9827 65.78C58.9827 64.492 59.8647 63.736 60.9147 63.736C61.7827 63.736 62.7487 64.464 62.7487 65.78C62.7487 67.096 61.7827 67.824 60.9147 67.824C59.8647 67.824 58.9827 67.068 58.9827 65.78ZM76.8284 66.172C76.8284 64.8 75.9464 64.016 74.7424 63.694C75.6944 63.344 76.2684 62.644 76.2684 61.664C76.2684 59.998 74.9944 59.2 73.1324 59.2H70.1784V69H73.3004C75.3584 69 76.8284 68.118 76.8284 66.172ZM73.0204 60.558C73.9304 60.558 74.5744 61.034 74.5744 61.846C74.5744 62.658 73.9304 63.134 73.0204 63.134H71.8304V60.558H73.0204ZM71.8304 67.642V64.422H73.2024C74.3224 64.422 75.1344 64.94 75.1344 66.004C75.1344 67.096 74.3224 67.642 73.2024 67.642H71.8304Z" fill="#0F1938"/>
<mask id="path-46-outside-1_3092_4645" maskUnits="userSpaceOnUse" x="118" y="131" width="26" height="36" fill="black">
<rect fill="white" x="118" y="131" width="26" height="36"/>
<path fill-rule="evenodd" clip-rule="evenodd" d="M141 132H121C119.895 132 119 132.895 119 134L119 156L119 164L127 156H141C142.105 156 143 155.105 143 154V134C143 132.895 142.105 132 141 132Z"/>
</mask>
<path fill-rule="evenodd" clip-rule="evenodd" d="M141 132H121C119.895 132 119 132.895 119 134L119 156L119 164L127 156H141C142.105 156 143 155.105 143 154V134C143 132.895 142.105 132 141 132Z" fill="#3BA6FF"/>
<path d="M119 134H118H119ZM119 156H120H119ZM119 164H118L118 166.414L119.707 164.707L119 164ZM127 156V155H126.586L126.293 155.293L127 156ZM121 133H141V131H121V133ZM120 134C120 133.448 120.448 133 121 133V131C119.343 131 118 132.343 118 134H120ZM120 156L120 134H118L118 156H120ZM118 156L118 164H120L120 156H118ZM119.707 164.707L127.707 156.707L126.293 155.293L118.293 163.293L119.707 164.707ZM141 155H127V157H141V155ZM142 154C142 154.552 141.552 155 141 155V157C142.657 157 144 155.657 144 154H142ZM142 134V154H144V134H142ZM141 133C141.552 133 142 133.448 142 134H144C144 132.343 142.657 131 141 131V133Z" fill="#F7FAFC" mask="url(#path-46-outside-1_3092_4645)"/>
<path d="M127.625 148H134.033V146.68H130.397L132.773 144.34C133.457 143.692 133.925 142.852 133.925 141.976C133.925 140.86 133.001 139.456 131.057 139.456C129.137 139.456 128.081 140.788 128.081 142.576H129.485C129.485 141.448 130.073 140.728 131.033 140.728C131.957 140.728 132.461 141.388 132.461 142.048C132.461 142.72 132.101 143.272 131.501 143.908L127.625 148Z" fill="#F7FAFC"/>
<mask id="path-49-outside-2_3092_4645" maskUnits="userSpaceOnUse" x="9" y="211" width="36" height="36" fill="black">
<rect fill="white" x="9" y="211" width="36" height="36"/>
<path fill-rule="evenodd" clip-rule="evenodd" d="M44 224L44 244C44 245.105 43.1046 246 42 246L22 246C20.8954 246 20 245.105 20 244L20 238L12 234L20 230L20 224C20 222.895 20.8954 222 22 222L28 222L32 214L36 222L42 222C43.1046 222 44 222.895 44 224Z"/>
</mask>
<path fill-rule="evenodd" clip-rule="evenodd" d="M44 224L44 244C44 245.105 43.1046 246 42 246L22 246C20.8954 246 20 245.105 20 244L20 238L12 234L20 230L20 224C20 222.895 20.8954 222 22 222L28 222L32 214L36 222L42 222C43.1046 222 44 222.895 44 224Z" fill="#3BA6FF"/>
<path d="M20 238L21 238L21 237.382L20.4472 237.106L20 238ZM12 234L11.5528 233.106L9.76393 234L11.5528 234.894L12 234ZM20 230L20.4472 230.894L21 230.618L21 230L20 230ZM20 224L21 224L20 224ZM22 222L22 221L22 222ZM28 222L28 223L28.618 223L28.8944 222.447L28 222ZM32 214L32.8944 213.553L32 211.764L31.1056 213.553L32 214ZM36 222L35.1056 222.447L35.382 223L36 223L36 222ZM42 222L42 221H42L42 222ZM45 244L45 224L43 224L43 244L45 244ZM42 247C43.6569 247 45 245.657 45 244L43 244C43 244.552 42.5523 245 42 245L42 247ZM22 247L42 247L42 245L22 245L22 247ZM19 244C19 245.657 20.3431 247 22 247L22 245C21.4477 245 21 244.552 21 244L19 244ZM19 238L19 244L21 244L21 238L19 238ZM20.4472 237.106L12.4472 233.106L11.5528 234.894L19.5528 238.894L20.4472 237.106ZM12.4472 234.894L20.4472 230.894L19.5528 229.106L11.5528 233.106L12.4472 234.894ZM19 224L19 230L21 230L21 224L19 224ZM22 221C20.3431 221 19 222.343 19 224L21 224C21 223.448 21.4477 223 22 223L22 221ZM28 221L22 221L22 223L28 223L28 221ZM31.1056 213.553L27.1056 221.553L28.8944 222.447L32.8944 214.447L31.1056 213.553ZM36.8944 221.553L32.8944 213.553L31.1056 214.447L35.1056 222.447L36.8944 221.553ZM42 221L36 221L36 223L42 223L42 221ZM45 224C45 222.343 43.6569 221 42 221L42 223C42.5523 223 43 223.448 43 224L45 224Z" fill="#F7FAFC" mask="url(#path-49-outside-2_3092_4645)"/>
<path d="M31.607 238.144C33.335 238.144 34.487 237.196 34.487 235.756C34.487 234.616 33.815 233.92 32.807 233.596C33.683 233.248 34.247 232.588 34.247 231.736C34.247 230.5 33.287 229.468 31.667 229.468C30.119 229.468 29.063 230.452 29.063 231.832H30.395C30.395 231.16 30.959 230.668 31.679 230.668C32.435 230.668 32.819 231.136 32.819 231.808C32.819 232.528 32.207 233.128 31.187 233.128V234.196C32.327 234.196 33.059 234.7 33.059 235.6C33.059 236.44 32.483 236.92 31.631 236.92C30.779 236.92 30.131 236.404 30.131 235.6H28.703C28.703 236.98 29.819 238.144 31.607 238.144Z" fill="#F7FAFC"/>
<mask id="path-52-outside-3_3092_4645" maskUnits="userSpaceOnUse" x="27" y="0" width="26" height="36" fill="black">
<rect fill="white" x="27" width="26" height="36"/>
<path fill-rule="evenodd" clip-rule="evenodd" d="M50 1H30C28.8954 1 28 1.89543 28 3L28 23C28 24.1046 28.8954 25 30 25H36L40 33L44 25H50C51.1046 25 52 24.1046 52 23V3C52 1.89543 51.1046 1 50 1Z"/>
</mask>
<path fill-rule="evenodd" clip-rule="evenodd" d="M50 1H30C28.8954 1 28 1.89543 28 3L28 23C28 24.1046 28.8954 25 30 25H36L40 33L44 25H50C51.1046 25 52 24.1046 52 23V3C52 1.89543 51.1046 1 50 1Z" fill="#3BA6FF"/>
<path d="M28 3H27H28ZM28 23H29H28ZM36 25L36.8944 24.5528L36.618 24H36V25ZM40 33L39.1056 33.4472L40 35.2361L40.8944 33.4472L40 33ZM44 25V24H43.382L43.1056 24.5528L44 25ZM30 2H50V0H30V2ZM29 3C29 2.44772 29.4477 2 30 2V0C28.3431 0 27 1.34315 27 3H29ZM29 23L29 3H27L27 23H29ZM30 24C29.4477 24 29 23.5523 29 23H27C27 24.6569 28.3431 26 30 26V24ZM36 24H30V26H36V24ZM40.8944 32.5528L36.8944 24.5528L35.1056 25.4472L39.1056 33.4472L40.8944 32.5528ZM43.1056 24.5528L39.1056 32.5528L40.8944 33.4472L44.8944 25.4472L43.1056 24.5528ZM50 24H44V26H50V24ZM51 23C51 23.5523 50.5523 24 50 24V26C51.6569 26 53 24.6569 53 23H51ZM51 3V23H53V3H51ZM50 2C50.5523 2 51 2.44772 51 3H53C53 1.34314 51.6569 0 50 0V2Z" fill="#F7FAFC" mask="url(#path-52-outside-3_3092_4645)"/>
<path d="M38.0641 10.568L40.0081 10.028V17H41.4121V8.468L38.0641 9.224V10.568Z" fill="#F7FAFC"/>
</svg>
