<svg width="211" height="163" viewBox="0 0 211 163" fill="none" xmlns="http://www.w3.org/2000/svg">
<g id="correlation">
<path id="Vector" d="M98.8474 83.0405C107.705 83.0405 114.886 75.8597 114.886 67.0017C114.886 58.1437 107.705 50.9629 98.8474 50.9629C89.9894 50.9629 82.8086 58.1437 82.8086 67.0017C82.8086 75.8597 89.9894 83.0405 98.8474 83.0405Z" fill="#3749A9"/>
<path id="Vector_2" d="M134.317 42.8833C139.431 42.8833 143.577 38.7375 143.577 33.6233C143.577 28.5091 139.431 24.3633 134.317 24.3633C129.202 24.3633 125.057 28.5091 125.057 33.6233C125.057 38.7375 129.202 42.8833 134.317 42.8833Z" fill="#3749A9"/>
<path id="Vector_3" d="M171.57 138.297C191.377 138.297 207.434 122.24 207.434 102.433C207.434 82.6261 191.377 66.5693 171.57 66.5693C151.763 66.5693 135.706 82.6261 135.706 102.433C135.706 122.24 151.763 138.297 171.57 138.297Z" fill="#3749A9"/>
<g id="bold3">
<rect x="134" y="144" width="77" height="19" rx="2" fill="#F7FAFC"/>
</g>
<g id="bold1">
<rect x="96" width="76" height="19" rx="2" fill="#F7FAFC"/>
</g>
<g id="bold2">
<rect y="57" width="78" height="19" rx="2" fill="#F7FAFC"/>
</g>
</g>
</svg>
