<svg width="328" height="224" viewBox="0 0 328 224" fill="none" xmlns="http://www.w3.org/2000/svg">
<g clip-path="url(#clip0_1028_7067)">
<path d="M172.986 141.039C192.95 138.048 206.709 119.439 203.718 99.4753C200.728 79.5113 182.119 65.7519 162.155 68.7427C142.191 71.7336 128.432 90.3422 131.422 110.306C134.413 130.27 153.022 144.03 172.986 141.039Z" fill="#FB8A89"/>
<circle cx="168.867" cy="101.867" r="41.8679" transform="rotate(-9.17668 168.867 101.867)" stroke="#172553" stroke-dasharray="1.65 1.65"/>
<path d="M171.688 84.1192C178.75 83.9721 185.312 89.0614 185.512 98.6584C185.712 108.255 179.367 113.613 172.305 113.76C166.217 113.887 165.314 108.558 166.662 106.039C167.645 106.444 168.262 106.796 169.845 106.763C173.985 106.676 177.336 103.811 177.232 98.8307C177.129 93.8501 173.661 91.127 169.521 91.2132C169.521 91.2132 165.622 91.1728 163.506 94.8629C162.317 90.3909 165.661 84.2447 171.688 84.1192ZM155.153 126.635L154.293 85.3321L162.208 85.1673L163.068 126.471L155.153 126.635Z" fill="#0F1938"/>
<path fill-rule="evenodd" clip-rule="evenodd" d="M105.069 32.3887C104.612 32.9092 104.136 32.6634 103.56 32.4975C103.215 32.3977 102.079 31.8447 101.757 32.0012C101.386 32.1822 101.299 33.0217 101.184 33.3812C100.982 34.0073 100.78 34.6363 100.495 35.2294C100.368 35.4925 100.078 36.4408 99.8399 36.6197C99.7031 36.7222 99.5958 36.7599 99.4182 36.6846C99.1066 36.5523 99.2699 36.3599 99.3345 36.0325C99.6301 34.5362 100.011 33.0521 100.645 31.6622C99.7572 31.2813 98.8508 30.9597 97.94 30.6384C97.6731 30.5443 97.0675 30.4566 97.0221 30.093C96.967 29.6496 97.5538 29.6399 97.8707 29.6675C98.3333 29.7075 98.8277 29.9471 99.2663 30.0908C99.6284 30.2095 100.383 30.6287 100.755 30.5741C101.011 30.5368 100.993 30.3787 101.092 30.0962C101.185 29.8293 101.278 29.5622 101.372 29.2954C101.524 28.8677 101.676 28.4417 101.856 28.0252C101.955 27.7967 102.069 27.319 102.277 27.1527C102.397 27.0562 102.831 26.9468 102.953 27.0669C103.237 27.3477 102.489 29.2316 102.387 29.6187C102.32 29.8754 102.269 30.1334 102.181 30.3827C102.147 30.477 102.008 30.5894 102.004 30.6913C101.985 31.1237 102.313 31.156 102.666 31.2878C103.486 31.5942 104.323 31.9272 105.069 32.3887Z" fill="#475ABB"/>
<path fill-rule="evenodd" clip-rule="evenodd" d="M42.3062 35.4275C41.8359 35.9607 41.3458 35.7089 40.7532 35.539C40.3976 35.4367 39.2284 34.8703 38.8972 35.0306C38.5145 35.216 38.4253 36.076 38.3064 36.4443C38.0992 37.0857 37.891 37.73 37.5971 38.3375C37.4665 38.6071 37.1687 39.5785 36.9231 39.7618C36.7823 39.8668 36.6718 39.9054 36.4891 39.8283C36.1682 39.6928 36.3364 39.4957 36.4029 39.1602C36.7073 37.6275 37.0992 36.1072 37.7523 34.6834C36.8382 34.2932 35.9051 33.9638 34.9676 33.6347C34.6928 33.5383 34.0694 33.4485 34.0227 33.076C33.9659 32.6218 34.57 32.6118 34.8962 32.6401C35.3724 32.681 35.8814 32.9265 36.3329 33.0737C36.7056 33.1952 37.4828 33.6247 37.8657 33.5688C38.1293 33.5305 38.1099 33.3686 38.2117 33.0792C38.3079 32.8057 38.4035 32.5321 38.5008 32.2588C38.6568 31.8206 38.8133 31.3843 38.9989 30.9577C39.1008 30.7235 39.2185 30.2342 39.4319 30.0638C39.5556 29.965 40.0029 29.8528 40.1277 29.9759C40.4199 30.2635 39.6501 32.1934 39.5458 32.5899C39.4766 32.853 39.4242 33.1172 39.3329 33.3726C39.2981 33.4693 39.1555 33.5844 39.1508 33.6887C39.1313 34.1317 39.4694 34.1647 39.8327 34.2998C40.6769 34.6136 41.5383 34.9547 42.3062 35.4275Z" fill="#475ABB"/>
<path fill-rule="evenodd" clip-rule="evenodd" d="M51.3788 47.7858C51.1786 45.4541 53.4983 45.1481 54.1591 46.8937C54.8248 49.417 51.9498 50.018 51.3788 47.7858ZM50.7372 49.1507C54.0066 52.241 56.3045 48.4357 54.899 46.4031C53.3533 44.2255 48.1068 44.258 50.7372 49.1507Z" fill="#475ABB"/>
<path fill-rule="evenodd" clip-rule="evenodd" d="M112.379 65.7858C112.179 63.4541 114.498 63.1481 115.159 64.8937C115.825 67.417 112.95 68.018 112.379 65.7858ZM111.737 67.1507C115.007 70.241 117.305 66.4357 115.899 64.4031C114.353 62.2255 109.107 62.258 111.737 67.1507Z" fill="#475ABB"/>
<path fill-rule="evenodd" clip-rule="evenodd" d="M78.1744 34.3106C77.9742 31.9788 80.2938 31.6728 80.9547 33.4185C81.6203 35.9417 78.7454 36.5428 78.1744 34.3106ZM77.5328 35.6754C80.8021 38.7658 83.1 34.9605 81.6945 32.9278C80.1488 30.7503 74.9023 30.7828 77.5328 35.6754Z" fill="#475ABB"/>
<path fill-rule="evenodd" clip-rule="evenodd" d="M278.668 127.363C278.045 127.826 277.583 127.442 276.993 127.123C276.64 126.931 275.53 126.054 275.141 126.149C274.692 126.259 274.396 127.16 274.184 127.527C273.814 128.166 273.443 128.808 272.989 129.39C272.787 129.649 272.244 130.621 271.941 130.76C271.767 130.84 271.641 130.856 271.464 130.731C271.155 130.511 271.38 130.339 271.529 129.995C272.21 128.424 272.981 126.886 274.007 125.512C273.127 124.883 272.213 124.314 271.294 123.744C271.025 123.577 270.384 123.337 270.422 122.927C270.467 122.427 271.111 122.557 271.451 122.662C271.947 122.816 272.43 123.197 272.875 123.459C273.243 123.676 273.967 124.316 274.387 124.345C274.676 124.365 274.693 124.187 274.869 123.9C275.035 123.63 275.2 123.359 275.367 123.088C275.635 122.655 275.903 122.224 276.2 121.81C276.363 121.583 276.602 121.086 276.868 120.953C277.023 120.875 277.524 120.859 277.627 121.02C277.871 121.395 276.603 123.284 276.4 123.685C276.265 123.951 276.147 124.222 275.991 124.474C275.931 124.569 275.753 124.66 275.724 124.77C275.6 125.24 275.951 125.354 276.305 125.583C277.128 126.114 277.963 126.679 278.668 127.363Z" fill="#475ABB"/>
<path fill-rule="evenodd" clip-rule="evenodd" d="M254.276 111.996C253.877 112.293 253.581 112.047 253.203 111.842C252.977 111.719 252.266 111.156 252.017 111.217C251.729 111.288 251.539 111.867 251.403 112.103C251.166 112.513 250.928 112.926 250.637 113.301C250.508 113.467 250.159 114.091 249.965 114.181C249.853 114.232 249.772 114.243 249.66 114.162C249.462 114.022 249.606 113.911 249.701 113.69C250.138 112.68 250.633 111.692 251.291 110.809C250.727 110.404 250.142 110.039 249.554 109.674C249.381 109.567 248.971 109.412 248.995 109.149C249.024 108.828 249.437 108.911 249.654 108.979C249.972 109.077 250.281 109.322 250.566 109.49C250.802 109.629 251.266 110.04 251.535 110.058C251.72 110.071 251.731 109.957 251.844 109.772C251.95 109.599 252.056 109.424 252.163 109.251C252.335 108.972 252.507 108.695 252.697 108.429C252.802 108.283 252.955 107.964 253.126 107.878C253.225 107.828 253.546 107.817 253.612 107.921C253.768 108.162 252.955 109.376 252.824 109.634C252.738 109.804 252.663 109.978 252.562 110.141C252.524 110.202 252.41 110.26 252.391 110.331C252.311 110.633 252.536 110.706 252.763 110.853C253.29 111.194 253.825 111.557 254.276 111.996Z" fill="#475ABB"/>
<path fill-rule="evenodd" clip-rule="evenodd" d="M298.603 162.573C298.862 160.571 300.873 160.74 301.109 162.332C301.207 164.581 298.674 164.559 298.603 162.573ZM297.811 163.606C299.999 166.81 302.634 164.026 301.823 162.054C300.92 159.936 296.493 158.999 297.811 163.606Z" fill="#475ABB"/>
<line x1="188.558" y1="63.7671" x2="208.558" y2="25.7671" stroke="#172553" stroke-dasharray="1.65 1.65"/>
<line x1="208.808" y1="87.0645" x2="248.442" y2="70.5385" stroke="#172553" stroke-dasharray="1.65 1.65"/>
<line x1="202.31" y1="129.608" x2="236.018" y2="156.211" stroke="#172553" stroke-dasharray="1.65 1.65"/>
<line x1="162.713" y1="143.107" x2="153.488" y2="185.047" stroke="#172553" stroke-dasharray="1.65 1.65"/>
<line x1="130.26" y1="123.427" x2="87.2595" y2="149.541" stroke="#172553" stroke-dasharray="1.65 1.65"/>
<line x1="127.174" y1="94.6357" x2="77.8991" y2="84.4897" stroke="#172553" stroke-dasharray="1.65 1.65"/>
<path d="M266.546 84.5655C278.251 82.8118 286.319 71.9008 284.565 60.1951C282.812 48.4893 271.901 40.4216 260.195 42.1753C248.489 43.9289 240.422 54.8399 242.175 66.5456C243.929 78.2514 254.84 86.3191 266.546 84.5655Z" fill="#172553"/>
<g clip-path="url(#clip1_1028_7067)">
<path d="M259.827 72.2327C259.531 72.5282 259.164 72.7475 258.761 72.864L253.025 74.5518C252.648 74.6637 252.24 74.5608 251.962 74.2429C251.684 74.0056 251.58 73.5982 251.691 73.2176L253.378 67.4825C253.497 67.0796 253.714 66.7125 254.011 66.417L265.212 55.2122L270.992 60.9908L259.827 72.2327Z" fill="white"/>
<path opacity="0.4" d="M267.885 52.539C269.004 51.4198 270.822 51.4198 271.941 52.539L273.705 54.3043C274.825 55.4231 274.825 57.239 273.705 58.3583L270.992 60.9908L265.212 55.2122L267.885 52.539Z" fill="white"/>
</g>
<path d="M85.5457 103.566C97.2514 101.812 105.319 90.9008 103.565 79.1951C101.812 67.4894 90.9008 59.4216 79.1951 61.1753C67.4894 62.929 59.4216 73.8399 61.1753 85.5457C62.929 97.2514 73.84 105.319 85.5457 103.566Z" fill="#172553"/>
<g clip-path="url(#clip2_1028_7067)">
<path d="M79.1661 82.1353C81.0069 82.1353 82.5035 80.6732 82.5035 78.8748C82.5035 78.2889 82.3001 77.7387 82.0655 77.2649C82.2115 77.2496 82.3575 77.2445 82.5035 77.2445C85.2673 77.2445 87.5096 79.3893 87.5096 82.1353C87.5096 84.8354 85.2673 87.0261 82.5035 87.0261C79.6928 87.0261 77.4974 84.8354 77.4974 82.1353C77.4974 81.9927 77.5027 81.85 77.5183 81.7074C78.0033 81.9366 78.5664 82.1353 79.1661 82.1353Z" fill="white"/>
<path opacity="0.4" d="M72.4611 74.8297C74.9161 72.6003 78.29 70.7234 82.5035 70.7234C86.7169 70.7234 90.0908 72.6003 92.5469 74.8297C94.9874 77.0407 96.6195 79.6441 97.3913 81.5087C97.5634 81.9112 97.5634 82.3595 97.3913 82.762C96.6195 84.5807 94.9874 87.1841 92.5469 89.441C90.0908 91.6724 86.7169 93.5472 82.5035 93.5472C78.29 93.5472 74.9161 91.6724 72.4611 89.441C70.0206 87.1841 68.3895 84.5807 67.6136 82.762C67.4424 82.3595 67.4424 81.9112 67.6136 81.5087C68.3895 79.6441 70.0206 77.0407 72.4611 74.8297ZM82.5035 89.4715C86.6491 89.4715 90.0126 86.1855 90.0126 82.1353C90.0126 78.0851 86.6491 74.7991 82.5035 74.7991C78.3578 74.7991 74.9943 78.0851 74.9943 82.1353C74.9943 86.1855 78.3578 89.4715 82.5035 89.4715Z" fill="white"/>
</g>
<path d="M71.5457 180.566C83.2514 178.812 91.3191 167.901 89.5655 156.195C87.8118 144.489 76.9008 136.422 65.1951 138.175C53.4894 139.929 45.4216 150.84 47.1753 162.546C48.929 174.251 59.84 182.319 71.5457 180.566Z" fill="#172553"/>
<g clip-path="url(#clip3_1028_7067)">
<path d="M71.4016 146.093V152.614H77.9886L71.4016 146.093ZM72.225 165.656H63.9913C63.5385 165.656 63.168 166.023 63.168 166.472C63.168 166.92 63.5385 167.287 63.9913 167.287H72.225C72.6797 167.287 73.0484 166.922 73.0484 166.472C73.0484 166.021 72.6779 165.656 72.225 165.656ZM72.225 162.396H63.9913C63.5385 162.396 63.168 162.763 63.168 163.211C63.168 163.659 63.5385 164.026 63.9913 164.026H72.225C72.6797 164.026 73.0484 163.661 73.0484 163.211C73.0484 162.761 72.6779 162.396 72.225 162.396ZM72.225 159.135H63.9913C63.5385 159.135 63.168 159.502 63.168 159.95C63.168 160.399 63.5385 160.766 63.9913 160.766H72.225C72.6779 160.766 73.0484 160.399 73.0484 159.95C73.0484 159.502 72.6779 159.135 72.225 159.135Z" fill="white"/>
<path opacity="0.4" d="M71.4017 152.614V146.093H60.6979C59.3337 146.093 58.2278 147.188 58.2278 148.539V169.732C58.2278 171.082 59.3337 172.177 60.6979 172.177H75.5185C76.8827 172.177 77.9886 171.083 77.9886 169.732V152.614H71.4017ZM72.225 167.287H63.9914C63.5385 167.287 63.168 166.92 63.168 166.472C63.168 166.023 63.5385 165.656 63.9914 165.656H72.225C72.6797 165.656 73.0484 166.021 73.0484 166.472C73.0484 166.922 72.6779 167.287 72.225 167.287ZM72.225 164.026H63.9914C63.5385 164.026 63.168 163.659 63.168 163.211C63.168 162.763 63.5385 162.396 63.9914 162.396H72.225C72.6797 162.396 73.0484 162.761 73.0484 163.211C73.0484 163.661 72.6779 164.026 72.225 164.026ZM72.225 160.766H63.9914C63.5385 160.766 63.168 160.399 63.168 159.95C63.168 159.502 63.5385 159.135 63.9914 159.135H72.225C72.6779 159.135 73.0484 159.502 73.0484 159.95C73.0484 160.399 72.6779 160.766 72.225 160.766Z" fill="white"/>
</g>
<path d="M243.546 181.566C255.251 179.812 263.319 168.901 261.565 157.195C259.812 145.489 248.901 137.422 237.195 139.175C225.489 140.929 217.422 151.84 219.175 163.546C220.929 175.251 231.84 183.319 243.546 181.566Z" fill="#172553"/>
<g clip-path="url(#clip4_1028_7067)">
<path d="M253.15 158.676H227.066V154.378H253.15V158.676Z" fill="white"/>
<path opacity="0.4" d="M250.252 150.08C251.851 150.08 253.15 151.362 253.15 152.945V154.378H227.066V152.945C227.066 151.362 228.363 150.08 229.964 150.08H250.252ZM253.15 167.271C253.15 168.852 251.851 170.137 250.252 170.137H229.964C228.363 170.137 227.066 168.852 227.066 167.271V158.676H253.15V167.271ZM232.138 164.406C231.739 164.406 231.413 164.728 231.413 165.122C231.413 165.516 231.739 165.839 232.138 165.839H235.036C235.435 165.839 235.761 165.516 235.761 165.122C235.761 164.728 235.435 164.406 235.036 164.406H232.138ZM237.934 165.839H243.731C244.13 165.839 244.456 165.516 244.456 165.122C244.456 164.728 244.13 164.406 243.731 164.406H237.934C237.536 164.406 237.21 164.728 237.21 165.122C237.21 165.516 237.536 165.839 237.934 165.839Z" fill="white"/>
</g>
<path d="M157.546 205.565C169.251 203.812 177.319 192.901 175.565 181.195C173.812 169.489 162.901 161.422 151.195 163.175C139.489 164.929 131.422 175.84 133.175 187.546C134.929 199.251 145.84 207.319 157.546 205.565Z" fill="#172553"/>
<g clip-path="url(#clip5_1028_7067)">
<path d="M166.36 178.779V189.487C166.36 190.55 165.119 191.171 164.216 190.562L159.553 187.416V180.855L164.216 177.705C165.122 177.096 166.36 177.72 166.36 178.779Z" fill="white"/>
<path opacity="0.4" d="M158.192 178.133V190.138C158.192 191.243 157.278 192.138 156.15 192.138H143.898C142.771 192.138 141.856 191.243 141.856 190.138V178.133C141.856 177.028 142.771 176.132 143.898 176.132H156.15C157.277 176.132 158.192 177.028 158.192 178.133Z" fill="white"/>
</g>
<path d="M212.546 44.5655C224.251 42.8118 232.319 31.9008 230.565 20.1951C228.812 8.48936 217.901 0.421632 206.195 2.1753C194.489 3.92896 186.422 14.8399 188.175 26.5457C189.929 38.2514 200.84 46.3192 212.546 44.5655Z" fill="#172553"/>
<g clip-path="url(#clip6_1028_7067)">
<path d="M219.443 16.5556C220.021 17.1345 220.021 18.07 219.443 18.649L213.514 24.5772C212.935 25.1561 212 25.1561 211.421 24.5772L208.721 21.9234L204.622 26.0593C204.043 26.6382 203.107 26.6382 202.529 26.0593C201.949 25.4803 201.949 24.5448 202.529 23.9659L207.716 18.7787C208.295 18.1997 209.23 18.1997 209.809 18.7787L212.468 21.4325L217.349 16.5556C217.928 15.9757 218.864 15.9757 219.443 16.5556Z" fill="white"/>
<path opacity="0.4" d="M199.129 13.1561C199.947 13.1561 200.611 13.8198 200.611 14.6382V30.1998C200.611 30.6074 200.943 30.9408 201.352 30.9408H219.878C220.698 30.9408 221.36 31.6031 221.36 32.4229C221.36 33.2427 220.698 33.905 219.878 33.905H201.352C199.306 33.905 197.647 32.2469 197.647 30.1998V14.6382C197.647 13.8198 198.311 13.1561 199.129 13.1561Z" fill="white"/>
</g>
</g>
<defs>
<clipPath id="clip0_1028_7067">
<rect width="328" height="224" fill="white"/>
</clipPath>
<clipPath id="clip1_1028_7067">
<rect width="22.9225" height="22.9225" fill="white" transform="translate(251.647 51.674)"/>
</clipPath>
<clipPath id="clip2_1028_7067">
<rect width="30.0364" height="26.0843" fill="white" transform="translate(67.4852 69.0932)"/>
</clipPath>
<clipPath id="clip3_1028_7067">
<rect width="19.7608" height="26.0843" fill="white" transform="translate(58.2278 146.093)"/>
</clipPath>
<clipPath id="clip4_1028_7067">
<rect width="26.0843" height="22.9225" fill="white" transform="translate(227.066 148.647)"/>
</clipPath>
<clipPath id="clip5_1028_7067">
<rect width="24.5034" height="21.3417" fill="white" transform="translate(141.856 173.464)"/>
</clipPath>
<clipPath id="clip6_1028_7067">
<rect width="23.713" height="23.713" fill="white" transform="translate(197.647 11.674)"/>
</clipPath>
</defs>
</svg>
