<svg width="328" height="224" viewBox="0 0 328 224" fill="none" xmlns="http://www.w3.org/2000/svg">
<g clip-path="url(#clip0_1028_7131)">
<path d="M177.093 219.905C186.132 202.205 201.261 194.119 204.17 171.614C204.354 169.945 178.491 149.585 165.615 148.671C152.739 147.757 129.39 215.404 129.39 215.404L177.093 219.905Z" fill="#FFF5F5"/>
<path d="M201.333 165.787L151.713 161.368L138.622 177.09C137.696 188.7 135.746 212.299 135.351 213.822C134.955 215.346 155.693 217.582 166.111 218.51L175.413 212.518C178.977 207.748 186.976 197.18 190.46 193.073C193.943 188.967 196.662 184.208 197.586 182.341L200.702 172.876L201.333 165.787Z" fill="#FFF5F5"/>
<path d="M209.661 155.273L127.255 147.498L125.828 162.619L208.234 170.395L209.661 155.273Z" fill="#172553"/>
<path d="M167.403 162.578C169.408 162.767 171.188 161.294 171.377 159.289C171.566 157.284 170.094 155.504 168.088 155.315C166.083 155.126 164.304 156.598 164.114 158.604C163.925 160.609 165.398 162.388 167.403 162.578Z" fill="#FFF5F5"/>
<path d="M222.443 23.1789L141.366 15.529L140.497 24.7418L221.574 32.3917L222.443 23.1789Z" fill="#172553"/>
<path d="M172.976 115.536C187.948 115.788 200.289 103.854 200.541 88.8812C200.792 73.9087 188.858 61.5675 173.886 61.3163C158.913 61.0651 146.572 72.9989 146.321 87.9714C146.069 102.944 158.003 115.285 172.976 115.536Z" fill="#FB8A89"/>
<circle cx="174.749" cy="86.3721" r="30.9284" transform="rotate(0.304922 174.749 86.3721)" stroke="#172553" stroke-dasharray="1.65 1.65"/>
<path d="M178.981 73.7316C184.167 74.487 188.346 79.0125 187.32 86.0587C186.293 93.1048 180.996 96.2498 175.811 95.4944C171.341 94.8432 171.332 90.8341 172.626 89.1554C173.296 89.5718 173.704 89.9045 174.866 90.0738C177.906 90.5166 180.708 88.8299 181.24 85.173C181.773 81.5162 179.569 79.1001 176.529 78.6573C176.529 78.6573 173.681 78.1513 171.682 80.5926C171.359 77.1753 174.556 73.0869 178.981 73.7316ZM161.688 102.819L166.106 72.4935L171.917 73.3401L167.499 103.665L161.688 102.819Z" fill="#0F1938"/>
<path d="M108.397 213.111C113.687 198.684 119.804 142.175 116.357 128.756C123.57 124.461 153.326 106.058 157.798 103.076C161.446 106.038 157.596 127.41 143.997 135.554L143.384 142.043C150.133 142.679 158.125 166.216 150.161 189.556C145.876 199.705 154.507 217.462 154.507 217.462L108.397 213.111Z" fill="#FFF5F5"/>
<path d="M220.517 133.573C238.472 148.188 205.154 169.57 196.235 175.503C194.236 173.764 194.717 152.769 220.517 133.573Z" fill="#FFF5F5"/>
<path d="M214.798 121.336C193.402 131.625 188.568 157.879 191.016 159.682C198.553 157.512 228.363 130.21 229.661 116.454C229.955 113.339 221.484 106.596 219.49 105.557C218.37 104.993 219.788 103.197 215.287 106.634C214.954 110.439 213.989 117.51 214.798 121.336Z" fill="#FFF5F5"/>
<path d="M217.389 88.3239C221.836 85.6011 237.693 72.9567 239.446 71.0272C242.919 70.3073 247.346 87.2225 215.503 108.31" fill="#FFF5F5"/>
<path d="M188.769 198.414C188.598 198.631 188.636 198.945 188.853 199.116C189.07 199.287 189.384 199.249 189.555 199.032L188.769 198.414ZM203.348 169.636C203.384 169.362 203.19 169.111 202.916 169.076C202.643 169.04 202.392 169.233 202.356 169.507L203.348 169.636ZM175.342 217.657C175.214 217.902 175.31 218.204 175.555 218.331C175.8 218.459 176.102 218.364 176.229 218.119L175.342 217.657ZM182.794 207.701C182.96 207.48 182.915 207.167 182.695 207.001C182.474 206.835 182.161 206.879 181.995 207.1L182.794 207.701ZM174.05 25.7644C173.775 25.7385 173.531 25.9403 173.505 26.2153C173.479 26.4902 173.681 26.7341 173.956 26.76L174.05 25.7644ZM186.201 27.9155C186.476 27.9414 186.72 27.7396 186.746 27.4647C186.771 27.1898 186.57 26.9459 186.295 26.9199L186.201 27.9155ZM149.008 146.193C148.887 145.945 148.588 145.842 148.34 145.963C148.091 146.084 147.988 146.383 148.109 146.631L149.008 146.193ZM148.951 187.727C148.862 187.989 149.002 188.273 149.263 188.362C149.525 188.451 149.809 188.311 149.898 188.05L148.951 187.727ZM152.556 103.664C152.323 103.812 152.253 104.121 152.401 104.354C152.549 104.587 152.857 104.657 153.091 104.51L152.556 103.664ZM157.064 101.369L157.379 100.981C157.209 100.843 156.968 100.832 156.786 100.953L157.064 101.369ZM143.267 133.864L143.01 133.435C142.873 133.517 142.784 133.659 142.769 133.817L143.267 133.864ZM142.324 138.541C142.298 138.816 142.499 139.06 142.774 139.086C143.049 139.111 143.293 138.91 143.319 138.635L142.324 138.541ZM119.553 124.113C119.317 124.257 119.243 124.565 119.386 124.801C119.53 125.036 119.838 125.111 120.074 124.967L119.553 124.113ZM144.811 109.704C145.046 109.558 145.118 109.25 144.972 109.015C144.826 108.781 144.518 108.709 144.283 108.855L144.811 109.704ZM117.601 135.051C117.603 134.775 117.38 134.55 117.104 134.549C116.828 134.547 116.603 134.77 116.601 135.046L117.601 135.051ZM202.504 168.899C202.729 168.738 202.781 168.426 202.62 168.201C202.46 167.977 202.148 167.924 201.923 168.085L202.504 168.899ZM194.921 173.463L194.642 173.878C194.811 173.991 195.03 173.991 195.199 173.879L194.921 173.463ZM204.306 147.826C204.476 147.608 204.438 147.294 204.221 147.124C204.003 146.953 203.689 146.992 203.519 147.209L204.306 147.826ZM219.511 131.123C219.297 130.949 218.982 130.981 218.807 131.195C218.633 131.409 218.665 131.724 218.879 131.899L219.511 131.123ZM214.651 157.604C214.455 157.799 214.454 158.115 214.649 158.311C214.843 158.507 215.16 158.508 215.356 158.314L214.651 157.604ZM218.401 103.037C218.156 102.91 217.854 103.005 217.726 103.25C217.599 103.494 217.694 103.796 217.939 103.924L218.401 103.037ZM228.336 114.382L227.838 114.335L228.336 114.382ZM222.548 126.139C222.394 126.368 222.454 126.679 222.682 126.834C222.911 126.988 223.222 126.929 223.377 126.7L222.548 126.139ZM211.779 140.638C211.971 140.44 211.966 140.123 211.768 139.931C211.569 139.739 211.253 139.744 211.061 139.943L211.779 140.638ZM189.707 157.629L189.41 158.031C189.535 158.123 189.696 158.152 189.845 158.109L189.707 157.629ZM213.697 119.714C213.945 119.594 214.05 119.295 213.93 119.047C213.81 118.798 213.512 118.693 213.263 118.813L213.697 119.714ZM227.324 96.7106C227.529 96.525 227.544 96.2087 227.358 96.0043C227.173 95.7999 226.857 95.7846 226.652 95.9703L227.324 96.7106ZM213.912 105.817C213.681 105.968 213.616 106.278 213.767 106.509C213.918 106.74 214.227 106.805 214.459 106.654L213.912 105.817ZM215.81 85.814C215.575 85.9583 215.501 86.2662 215.645 86.5016C215.79 86.737 216.097 86.8109 216.333 86.6666L215.81 85.814ZM238.119 68.9335L238.018 68.444C237.914 68.4655 237.82 68.5192 237.749 68.5975L238.119 68.9335ZM233.324 88.8504C233.153 89.0671 233.19 89.3816 233.407 89.5527C233.624 89.7239 233.938 89.687 234.109 89.4702L233.324 88.8504ZM111.91 214.397C111.782 214.642 111.878 214.944 112.123 215.072C112.368 215.199 112.67 215.104 112.797 214.859L111.91 214.397ZM113.181 188.444C113.204 188.169 113 187.927 112.724 187.905C112.449 187.882 112.208 188.086 112.185 188.362L113.181 188.444ZM189.555 199.032C195.855 191.017 201.654 182.746 203.348 169.636L202.356 169.507C200.698 182.343 195.038 190.438 188.769 198.414L189.555 199.032ZM176.229 218.119C178.126 214.471 180.322 210.986 182.794 207.701L181.995 207.1C179.49 210.429 177.265 213.96 175.342 217.657L176.229 218.119ZM173.956 26.76L186.201 27.9155L186.295 26.9199L174.05 25.7644L173.956 26.76ZM148.109 146.631C152.232 155.1 154.498 171.454 148.951 187.727L149.898 188.05C155.526 171.539 153.252 154.91 149.008 146.193L148.109 146.631ZM153.091 104.51C155.077 103.254 156.575 102.297 157.341 101.785L156.786 100.953C156.032 101.457 154.545 102.408 152.556 103.664L153.091 104.51ZM156.748 101.757C157.081 102.028 157.383 102.561 157.59 103.402C157.793 104.23 157.887 105.293 157.858 106.539C157.799 109.03 157.246 112.187 156.155 115.517C153.97 122.187 149.666 129.445 143.01 133.435L143.524 134.293C150.462 130.134 154.879 122.627 157.105 115.828C158.22 112.423 158.796 109.169 158.858 106.563C158.889 105.261 158.792 104.104 158.561 103.163C158.333 102.235 157.958 101.452 157.379 100.981L156.748 101.757ZM142.769 133.817L142.324 138.541L143.319 138.635L143.765 133.911L142.769 133.817ZM120.074 124.967C126.337 121.151 136.561 114.836 144.811 109.704L144.283 108.855C136.034 113.986 125.813 120.299 119.553 124.113L120.074 124.967ZM201.923 168.085C198.959 170.201 196.357 171.904 194.644 173.047L195.199 173.879C196.904 172.74 199.524 171.027 202.504 168.899L201.923 168.085ZM195.2 173.048C194.707 172.717 194.317 171.855 194.272 170.329C194.228 168.843 194.519 166.872 195.206 164.55C196.577 159.913 199.5 153.957 204.306 147.826L203.519 147.209C198.645 153.427 195.658 159.494 194.247 164.267C193.542 166.651 193.224 168.732 193.272 170.359C193.319 171.946 193.721 173.259 194.642 173.878L195.2 173.048ZM218.879 131.899C221.276 133.851 222.707 135.903 223.402 137.993C224.096 140.082 224.067 142.247 223.48 144.45C222.299 148.879 218.875 153.413 214.651 157.604L215.356 158.314C219.614 154.088 223.196 149.399 224.446 144.708C225.074 142.351 225.117 139.983 224.351 137.677C223.585 135.373 222.024 133.171 219.511 131.123L218.879 131.899ZM217.939 103.924C218.875 104.412 221.451 106.321 223.767 108.516C224.921 109.608 225.989 110.752 226.746 111.803C227.125 112.328 227.417 112.819 227.605 113.259C227.795 113.703 227.864 114.061 227.838 114.335L228.833 114.429C228.881 113.925 228.749 113.391 228.525 112.865C228.298 112.336 227.962 111.78 227.557 111.218C226.748 110.096 225.631 108.903 224.455 107.79C222.115 105.573 219.46 103.589 218.401 103.037L217.939 103.924ZM227.838 114.335C227.532 117.58 225.55 121.706 222.548 126.139L223.377 126.7C226.397 122.238 228.502 117.937 228.833 114.429L227.838 114.335ZM211.061 139.943C206.79 144.354 202.321 148.403 198.454 151.482C196.52 153.021 194.742 154.314 193.218 155.286C191.684 156.265 190.44 156.898 189.569 157.148L189.845 158.109C190.861 157.818 192.204 157.12 193.756 156.129C195.318 155.132 197.125 153.818 199.077 152.264C202.98 149.156 207.481 145.078 211.779 140.638L211.061 139.943ZM190.003 157.226C189.975 157.205 189.893 157.116 189.812 156.862C189.735 156.62 189.676 156.284 189.648 155.852C189.59 154.99 189.657 153.814 189.876 152.397C190.312 149.567 191.341 145.836 193.113 141.833C196.657 133.825 203.142 124.795 213.697 119.714L213.263 118.813C202.431 124.028 195.806 133.278 192.198 141.428C190.394 145.505 189.338 149.321 188.887 152.245C188.662 153.705 188.586 154.958 188.65 155.918C188.681 156.397 188.749 156.82 188.859 157.166C188.966 157.5 189.133 157.827 189.41 158.031L190.003 157.226ZM226.652 95.9703C222.672 99.5843 218.412 102.877 213.912 105.817L214.459 106.654C219.003 103.685 223.305 100.36 227.324 96.7106L226.652 95.9703ZM216.333 86.6666C218.586 85.2857 223.684 81.4213 228.415 77.6815C230.786 75.8071 233.074 73.9568 234.88 72.4533C236.671 70.9622 238.022 69.7842 238.49 69.2696L237.749 68.5975C237.34 69.0482 236.053 70.1755 234.24 71.6848C232.442 73.1816 230.161 75.0265 227.795 76.897C223.051 80.6468 218.002 84.4704 215.81 85.814L216.333 86.6666ZM238.221 69.4231C238.5 69.3651 238.97 69.5319 239.401 70.3649C239.816 71.1675 240.101 72.4544 240.012 74.1799C239.836 77.6206 238.176 82.7082 233.324 88.8504L234.109 89.4702C239.052 83.2118 240.821 77.9312 241.011 74.2312C241.106 72.3865 240.809 70.9099 240.289 69.9053C239.785 68.9312 238.966 68.2471 238.018 68.444L238.221 69.4231ZM133.398 110.311L140.693 32.9815L139.698 32.8876L132.402 110.217L133.398 110.311ZM215.339 81.2367L219.192 40.3891L218.197 40.2952L214.343 81.1427L215.339 81.2367ZM115.211 163.92C117.432 148.643 117.533 148.103 117.601 135.051L116.601 135.046C116.533 148.039 116.438 148.531 114.222 163.776L115.211 163.92ZM112.797 214.859C113.074 214.326 113.262 213.581 113.394 212.72C113.527 211.848 113.609 210.815 113.654 209.677C113.744 207.402 113.688 204.674 113.585 201.923C113.482 199.179 113.331 196.376 113.232 193.992C113.132 191.588 113.085 189.61 113.181 188.444L112.185 188.362C112.082 189.601 112.133 191.644 112.233 194.034C112.333 196.444 112.482 199.209 112.586 201.961C112.688 204.706 112.744 207.403 112.655 209.638C112.611 210.755 112.531 211.748 112.405 212.568C112.278 213.399 112.11 214.012 111.91 214.397L112.797 214.859Z" fill="#172553"/>
<path fill-rule="evenodd" clip-rule="evenodd" d="M111.618 60.5277C111.161 61.0482 110.685 60.8024 110.109 60.6365C109.764 60.5367 108.628 59.9837 108.306 60.1402C107.934 60.3212 107.848 61.1607 107.732 61.5202C107.531 62.1463 107.329 62.7753 107.043 63.3684C106.917 63.6315 106.627 64.5798 106.389 64.7587C106.252 64.8612 106.145 64.8989 105.967 64.8236C105.655 64.6913 105.819 64.4989 105.883 64.1715C106.179 62.6752 106.56 61.1911 107.194 59.8012C106.306 59.4203 105.4 59.0987 104.489 58.7775C104.222 58.6833 103.616 58.5956 103.571 58.232C103.516 57.7886 104.103 57.7789 104.419 57.8065C104.882 57.8465 105.377 58.0861 105.815 58.2298C106.177 58.3485 106.932 58.7677 107.304 58.7132C107.56 58.6758 107.541 58.5177 107.64 58.2352C107.734 57.9683 107.827 57.7012 107.921 57.4344C108.073 57.0067 108.225 56.5807 108.405 56.1642C108.504 55.9357 108.618 55.458 108.826 55.2917C108.946 55.1952 109.38 55.0858 109.501 55.2059C109.785 55.4867 109.038 57.3706 108.936 57.7577C108.869 58.0144 108.818 58.2724 108.729 58.5217C108.696 58.6161 108.557 58.7284 108.553 58.8303C108.534 59.2627 108.862 59.295 109.215 59.4269C110.035 59.7332 110.872 60.0662 111.618 60.5277Z" fill="#475ABB"/>
<path fill-rule="evenodd" clip-rule="evenodd" d="M42.3062 35.4274C41.8359 35.9606 41.3458 35.7088 40.7532 35.5389C40.3976 35.4367 39.2284 34.8702 38.8972 35.0306C38.5145 35.216 38.4253 36.0759 38.3064 36.4442C38.0992 37.0856 37.891 37.7299 37.5971 38.3375C37.4665 38.6071 37.1687 39.5785 36.9231 39.7617C36.7823 39.8667 36.6718 39.9053 36.4891 39.8282C36.1682 39.6927 36.3364 39.4956 36.4029 39.1602C36.7073 37.6274 37.0992 36.1071 37.7523 34.6833C36.8382 34.2931 35.9051 33.9637 34.9676 33.6347C34.6928 33.5383 34.0694 33.4484 34.0227 33.0759C33.9659 32.6217 34.57 32.6118 34.8962 32.64C35.3724 32.681 35.8814 32.9264 36.3329 33.0737C36.7056 33.1952 37.4828 33.6246 37.8657 33.5687C38.1293 33.5305 38.1099 33.3685 38.2117 33.0791C38.3079 32.8056 38.4035 32.532 38.5008 32.2587C38.6568 31.8206 38.8133 31.3842 38.9989 30.9576C39.1008 30.7235 39.2185 30.2341 39.4319 30.0638C39.5556 29.9649 40.0029 29.8528 40.1277 29.9758C40.4199 30.2635 39.6501 32.1934 39.5458 32.5899C39.4766 32.8529 39.4242 33.1171 39.3329 33.3725C39.2981 33.4692 39.1555 33.5843 39.1508 33.6886C39.1313 34.1316 39.4694 34.1647 39.8327 34.2998C40.6769 34.6136 41.5383 34.9546 42.3062 35.4274Z" fill="#475ABB"/>
<path fill-rule="evenodd" clip-rule="evenodd" d="M75.4904 71.8346C75.2902 69.5028 77.6099 69.1969 78.2707 70.9425C78.9364 73.4657 76.0614 74.0668 75.4904 71.8346ZM74.8488 73.1994C78.1181 76.2898 80.4161 72.4845 79.0106 70.4519C77.4648 68.2743 72.2184 68.3068 74.8488 73.1994Z" fill="#475ABB"/>
<path fill-rule="evenodd" clip-rule="evenodd" d="M106.545 99.3307C106.345 96.9989 108.664 96.6929 109.325 98.4386C109.991 100.962 107.116 101.563 106.545 99.3307ZM105.903 100.696C109.173 103.786 111.471 99.9806 110.065 97.948C108.519 95.7704 103.273 95.8029 105.903 100.696Z" fill="#475ABB"/>
<path fill-rule="evenodd" clip-rule="evenodd" d="M78.1744 34.3105C77.9742 31.9788 80.2938 31.6728 80.9547 33.4184C81.6203 35.9417 78.7454 36.5427 78.1744 34.3105ZM77.5328 35.6754C80.8021 38.7658 83.1 34.9604 81.6945 32.9278C80.1488 30.7502 74.9023 30.7828 77.5328 35.6754Z" fill="#475ABB"/>
<path fill-rule="evenodd" clip-rule="evenodd" d="M278.668 127.363C278.045 127.826 277.583 127.442 276.993 127.123C276.64 126.931 275.53 126.054 275.141 126.149C274.692 126.259 274.396 127.16 274.184 127.527C273.814 128.166 273.443 128.808 272.989 129.39C272.787 129.649 272.244 130.62 271.941 130.76C271.767 130.84 271.641 130.856 271.464 130.731C271.155 130.511 271.38 130.339 271.529 129.995C272.21 128.424 272.981 126.886 274.007 125.512C273.127 124.883 272.213 124.314 271.294 123.744C271.025 123.577 270.384 123.337 270.422 122.927C270.467 122.427 271.111 122.557 271.451 122.662C271.947 122.816 272.43 123.197 272.875 123.459C273.243 123.676 273.967 124.316 274.387 124.344C274.676 124.365 274.693 124.187 274.869 123.9C275.035 123.629 275.2 123.359 275.367 123.088C275.635 122.655 275.903 122.224 276.2 121.81C276.363 121.583 276.602 121.086 276.868 120.953C277.023 120.875 277.524 120.859 277.627 121.02C277.871 121.395 276.603 123.284 276.4 123.685C276.265 123.951 276.147 124.222 275.991 124.474C275.931 124.569 275.753 124.66 275.724 124.77C275.6 125.24 275.951 125.354 276.305 125.583C277.128 126.114 277.963 126.679 278.668 127.363Z" fill="#475ABB"/>
<path fill-rule="evenodd" clip-rule="evenodd" d="M256.687 155.563C256.287 155.86 255.991 155.614 255.614 155.409C255.387 155.286 254.677 154.723 254.428 154.784C254.139 154.855 253.95 155.434 253.814 155.669C253.577 156.08 253.338 156.493 253.047 156.867C252.918 157.034 252.57 157.658 252.375 157.748C252.264 157.799 252.183 157.809 252.07 157.729C251.872 157.588 252.016 157.478 252.112 157.257C252.549 156.247 253.043 155.258 253.701 154.375C253.138 153.971 252.552 153.606 251.964 153.24C251.792 153.133 251.381 152.979 251.405 152.716C251.435 152.395 251.847 152.477 252.065 152.545C252.382 152.644 252.692 152.888 252.977 153.057C253.212 153.196 253.676 153.606 253.945 153.625C254.13 153.638 254.141 153.523 254.254 153.339C254.36 153.165 254.466 152.991 254.574 152.817C254.745 152.539 254.917 152.262 255.108 151.996C255.212 151.85 255.365 151.53 255.536 151.445C255.635 151.395 255.956 151.384 256.023 151.487C256.178 151.729 255.365 152.943 255.235 153.2C255.148 153.371 255.073 153.545 254.973 153.707C254.934 153.769 254.82 153.827 254.801 153.898C254.722 154.2 254.947 154.273 255.173 154.42C255.701 154.761 256.235 155.123 256.687 155.563Z" fill="#475ABB"/>
<path fill-rule="evenodd" clip-rule="evenodd" d="M282.678 156.279C282.938 154.278 284.949 154.446 285.185 156.038C285.283 158.287 282.75 158.265 282.678 156.279ZM281.887 157.312C284.075 160.517 286.71 157.732 285.899 155.761C284.996 153.642 280.569 152.706 281.887 157.312Z" fill="#475ABB"/>
</g>
<defs>
<clipPath id="clip0_1028_7131">
<rect width="328" height="224" fill="white"/>
</clipPath>
</defs>
</svg>
